<?xml version="1.0" encoding="UTF-8" standalone="no"?>
<!DOCTYPE svg PUBLIC "-//W3C//DTD SVG 1.1//EN"
 "http://www.w3.org/Graphics/SVG/1.1/DTD/svg11.dtd">
<!-- Generated by graphviz version 2.47.1 (20210417.1919)
 -->
<!-- Title: Circuit Pages: 1 -->
<svg width="257pt" height="123pt"
 viewBox="0.00 0.00 257.00 123.00" xmlns="http://www.w3.org/2000/svg" xmlns:xlink="http://www.w3.org/1999/xlink">
<g id="graph0" class="graph" transform="scale(1 1) rotate(0) translate(4 119)">
<title>Circuit</title>
<polygon fill="white" stroke="transparent" points="-4,4 -4,-119 253,-119 253,4 -4,4"/>
<g id="clust1" class="cluster">
<title>cluster_q_inputs</title>
<path fill="lightgrey" stroke="lightgrey" d="M18.53,-9C18.53,-9 23.07,-9 23.07,-9 25.33,-9 27.6,-11.27 27.6,-13.53 27.6,-13.53 27.6,-63.47 27.6,-63.47 27.6,-65.73 25.33,-68 23.07,-68 23.07,-68 18.53,-68 18.53,-68 16.27,-68 14,-65.73 14,-63.47 14,-63.47 14,-13.53 14,-13.53 14,-11.27 16.27,-9 18.53,-9"/>
</g>
<g id="clust3" class="cluster">
<title>cluster_q_outputs</title>
<path fill="lightgrey" stroke="lightgrey" d="M231.93,-8C231.93,-8 236.47,-8 236.47,-8 238.73,-8 241,-10.27 241,-12.53 241,-12.53 241,-62.47 241,-62.47 241,-64.73 238.73,-67 236.47,-67 236.47,-67 231.93,-67 231.93,-67 229.67,-67 227.4,-64.73 227.4,-62.47 227.4,-62.47 227.4,-12.53 227.4,-12.53 227.4,-10.27 229.67,-8 231.93,-8"/>
</g>
<g id="clust5" class="cluster">
<title>cluster_8</title>
<path fill="lightblue" stroke="lightblue" d="M135.4,-50C135.4,-50 145.6,-50 145.6,-50 150.7,-50 155.8,-55.1 155.8,-60.2 155.8,-60.2 155.8,-87.8 155.8,-87.8 155.8,-92.9 150.7,-98 145.6,-98 145.6,-98 135.4,-98 135.4,-98 130.3,-98 125.2,-92.9 125.2,-87.8 125.2,-87.8 125.2,-60.2 125.2,-60.2 125.2,-55.1 130.3,-50 135.4,-50"/>
<text text-anchor="middle" x="140.5" y="-86" font-family="Times,serif" font-size="10.00">CX</text>
</g>
<g id="clust6" class="cluster">
<title>cluster_9</title>
<path fill="lightblue" stroke="lightblue" d="M50.6,-74C50.6,-74 103.2,-74 103.2,-74 108.7,-74 114.2,-79.5 114.2,-85 114.2,-85 114.2,-96 114.2,-96 114.2,-101.5 108.7,-107 103.2,-107 103.2,-107 50.6,-107 50.6,-107 45.1,-107 39.6,-101.5 39.6,-96 39.6,-96 39.6,-85 39.6,-85 39.6,-79.5 45.1,-74 50.6,-74"/>
<text text-anchor="middle" x="76.9" y="-95" font-family="Times,serif" font-size="10.00">U3(3.8, 0, 1.5)</text>
</g>
<g id="clust7" class="cluster">
<title>cluster_10</title>
<path fill="lightblue" stroke="lightblue" d="M178.8,-41C178.8,-41 204.4,-41 204.4,-41 209.9,-41 215.4,-46.5 215.4,-52 215.4,-52 215.4,-63 215.4,-63 215.4,-68.5 209.9,-74 204.4,-74 204.4,-74 178.8,-74 178.8,-74 173.3,-74 167.8,-68.5 167.8,-63 167.8,-63 167.8,-52 167.8,-52 167.8,-46.5 173.3,-41 178.8,-41"/>
<text text-anchor="middle" x="191.6" y="-62" font-family="Times,serif" font-size="10.00">U1(0.5)</text>
</g>
<g id="clust8" class="cluster">
<title>cluster_11</title>
<path fill="lightblue" stroke="lightblue" d="M63.6,-41C63.6,-41 89.2,-41 89.2,-41 94.7,-41 100.2,-46.5 100.2,-52 100.2,-52 100.2,-63 100.2,-63 100.2,-68.5 94.7,-74 89.2,-74 89.2,-74 63.6,-74 63.6,-74 58.1,-74 52.6,-68.5 52.6,-63 52.6,-63 52.6,-52 52.6,-52 52.6,-46.5 58.1,-41 63.6,-41"/>
<text text-anchor="middle" x="76.4" y="-62" font-family="Times,serif" font-size="10.00">U1(0.5)</text>
</g>
<!-- (0, 0) -->
<g id="node1" class="node">
<title>(0, 0)</title>
<ellipse fill="blue" stroke="blue" cx="20.8" cy="-61" rx="1.8" ry="1.8"/>
<text text-anchor="middle" x="9.5" y="-52.8" font-family="Courier,monospace" font-size="8.00">q[0]</text>
</g>
<!-- (9, 0) -->
<g id="node11" class="node">
<title>(9, 0)</title>
<ellipse fill="black" stroke="black" cx="76.4" cy="-81" rx="1.8" ry="1.8"/>
</g>
<!-- (0, 0)&#45;&gt;(9, 0) -->
<g id="edge1" class="edge">
<title>(0, 0)&#45;&gt;(9, 0)</title>
<path fill="none" stroke="blue" d="M22.65,-61.94C25.04,-64.52 32.12,-71.69 39.6,-75 50.9,-79.99 65.88,-80.86 72.28,-80.99"/>
<polygon fill="blue" stroke="blue" points="74.47,-81.01 72.46,-82.12 73.47,-81 72.47,-80.99 72.47,-80.99 72.47,-80.99 73.47,-81 72.48,-79.87 74.47,-81.01 74.47,-81.01"/>
</g>
<!-- (2, 0) -->
<g id="node2" class="node">
<title>(2, 0)</title>
<ellipse fill="blue" stroke="blue" cx="20.8" cy="-46" rx="1.8" ry="1.8"/>
<text text-anchor="middle" x="9.5" y="-37.8" font-family="Courier,monospace" font-size="8.00">q[1]</text>
</g>
<!-- (11, 0) -->
<g id="node13" class="node">
<title>(11, 0)</title>
<ellipse fill="black" stroke="black" cx="76.4" cy="-48" rx="1.8" ry="1.8"/>
</g>
<!-- (2, 0)&#45;&gt;(11, 0) -->
<g id="edge2" class="edge">
<title>(2, 0)&#45;&gt;(11, 0)</title>
<path fill="none" stroke="blue" d="M22.73,-46.03C28.68,-46.26 61.45,-47.48 72.07,-47.88"/>
<polygon fill="blue" stroke="blue" points="74.27,-47.96 72.23,-49.01 73.27,-47.92 72.27,-47.88 72.27,-47.88 72.27,-47.88 73.27,-47.92 72.31,-46.76 74.27,-47.96 74.27,-47.96"/>
</g>
<!-- (4, 0) -->
<g id="node3" class="node">
<title>(4, 0)</title>
<ellipse fill="blue" stroke="blue" cx="20.8" cy="-31" rx="1.8" ry="1.8"/>
<text text-anchor="middle" x="9.5" y="-22.8" font-family="Courier,monospace" font-size="8.00">q[2]</text>
</g>
<!-- (5, 0) -->
<g id="node7" class="node">
<title>(5, 0)</title>
<ellipse fill="blue" stroke="blue" cx="234.2" cy="-30" rx="1.8" ry="1.8"/>
<text text-anchor="middle" x="222.9" y="-21.8" font-family="Courier,monospace" font-size="8.00">q[2]</text>
</g>
<!-- (4, 0)&#45;&gt;(5, 0) -->
<g id="edge3" class="edge">
<title>(4, 0)&#45;&gt;(5, 0)</title>
<path fill="none" stroke="blue" d="M22.74,-31C36.88,-30.93 205.72,-30.13 230.24,-30.01"/>
<polygon fill="blue" stroke="blue" points="232.33,-30 230.33,-31.14 231.33,-30.01 230.33,-30.01 230.33,-30.01 230.33,-30.01 231.33,-30.01 230.32,-28.89 232.33,-30 232.33,-30"/>
</g>
<!-- (6, 0) -->
<g id="node4" class="node">
<title>(6, 0)</title>
<ellipse fill="blue" stroke="blue" cx="20.8" cy="-16" rx="1.8" ry="1.8"/>
<text text-anchor="middle" x="9.5" y="-7.8" font-family="Courier,monospace" font-size="8.00">q[3]</text>
</g>
<!-- (7, 0) -->
<g id="node8" class="node">
<title>(7, 0)</title>
<ellipse fill="blue" stroke="blue" cx="234.2" cy="-15" rx="1.8" ry="1.8"/>
<text text-anchor="middle" x="222.9" y="-6.8" font-family="Courier,monospace" font-size="8.00">q[3]</text>
</g>
<!-- (6, 0)&#45;&gt;(7, 0) -->
<g id="edge4" class="edge">
<title>(6, 0)&#45;&gt;(7, 0)</title>
<path fill="none" stroke="blue" d="M22.74,-16C36.88,-15.93 205.72,-15.13 230.24,-15.01"/>
<polygon fill="blue" stroke="blue" points="232.33,-15 230.33,-16.14 231.33,-15.01 230.33,-15.01 230.33,-15.01 230.33,-15.01 231.33,-15.01 230.32,-13.89 232.33,-15 232.33,-15"/>
</g>
<!-- (1, 0) -->
<g id="node5" class="node">
<title>(1, 0)</title>
<ellipse fill="blue" stroke="blue" cx="234.2" cy="-60" rx="1.8" ry="1.8"/>
<text text-anchor="middle" x="222.9" y="-51.8" font-family="Courier,monospace" font-size="8.00">q[0]</text>
</g>
<!-- (3, 0) -->
<g id="node6" class="node">
<title>(3, 0)</title>
<ellipse fill="blue" stroke="blue" cx="234.2" cy="-45" rx="1.8" ry="1.8"/>
<text text-anchor="middle" x="222.9" y="-36.8" font-family="Courier,monospace" font-size="8.00">q[1]</text>
</g>
<!-- (8, 0) -->
<g id="node9" class="node">
<title>(8, 0)</title>
<ellipse fill="black" stroke="black" cx="140" cy="-57" rx="1.8" ry="1.8"/>
<text text-anchor="middle" x="135.7" y="-48.8" font-family="Helvetica,sans-Serif" font-size="8.00">0</text>
</g>
<!-- (8, 0)&#45;&gt;(1, 0) -->
<g id="edge5" class="edge">
<title>(8, 0)&#45;&gt;(1, 0)</title>
<path fill="none" stroke="blue" d="M141.84,-57.38C144.14,-58.44 150.77,-61.59 155.8,-65 161.55,-68.89 161.27,-72.64 167.8,-75 187.69,-82.2 195.53,-82.26 215.4,-75 222.06,-72.57 227.96,-66.42 231,-62.8"/>
<polygon fill="blue" stroke="blue" points="232.39,-61.08 232.01,-63.34 231.76,-61.86 231.13,-62.64 231.13,-62.64 231.13,-62.64 231.76,-61.86 230.26,-61.93 232.39,-61.08 232.39,-61.08"/>
</g>
<!-- (8, 1) -->
<g id="node10" class="node">
<title>(8, 1)</title>
<ellipse fill="black" stroke="black" cx="140" cy="-72" rx="1.8" ry="1.8"/>
<text text-anchor="middle" x="135.7" y="-63.8" font-family="Helvetica,sans-Serif" font-size="8.00">1</text>
</g>
<!-- (10, 0) -->
<g id="node12" class="node">
<title>(10, 0)</title>
<ellipse fill="black" stroke="black" cx="191.6" cy="-48" rx="1.8" ry="1.8"/>
</g>
<!-- (8, 1)&#45;&gt;(10, 0) -->
<g id="edge6" class="edge">
<title>(8, 1)&#45;&gt;(10, 0)</title>
<path fill="none" stroke="blue" d="M141.86,-71.58C147.36,-68.92 177.69,-54.25 187.52,-49.49"/>
<polygon fill="blue" stroke="blue" points="189.55,-48.51 188.24,-50.39 188.65,-48.94 187.75,-49.38 187.75,-49.38 187.75,-49.38 188.65,-48.94 187.26,-48.37 189.55,-48.51 189.55,-48.51"/>
</g>
<!-- (9, 0)&#45;&gt;(8, 1) -->
<g id="edge7" class="edge">
<title>(9, 0)&#45;&gt;(8, 1)</title>
<path fill="none" stroke="blue" d="M78.47,-80.84C85.48,-79.82 124.94,-74.05 136.07,-72.43"/>
<polygon fill="blue" stroke="blue" points="138.09,-72.13 136.27,-73.54 137.1,-72.28 136.11,-72.42 136.11,-72.42 136.11,-72.42 137.1,-72.28 135.95,-71.31 138.09,-72.13 138.09,-72.13"/>
</g>
<!-- (10, 0)&#45;&gt;(3, 0) -->
<g id="edge8" class="edge">
<title>(10, 0)&#45;&gt;(3, 0)</title>
<path fill="none" stroke="blue" d="M193.6,-47.93C198.74,-47.55 222.15,-45.82 230.35,-45.21"/>
<polygon fill="blue" stroke="blue" points="232.37,-45.06 230.46,-46.33 231.37,-45.14 230.38,-45.21 230.38,-45.21 230.38,-45.21 231.37,-45.14 230.29,-44.09 232.37,-45.06 232.37,-45.06"/>
</g>
<!-- (11, 0)&#45;&gt;(8, 0) -->
<g id="edge9" class="edge">
<title>(11, 0)&#45;&gt;(8, 0)</title>
<path fill="none" stroke="blue" d="M78.47,-48.16C85.48,-49.18 124.94,-54.95 136.07,-56.57"/>
<polygon fill="blue" stroke="blue" points="138.09,-56.87 135.95,-57.69 137.1,-56.72 136.11,-56.58 136.11,-56.58 136.11,-56.58 137.1,-56.72 136.27,-55.46 138.09,-56.87 138.09,-56.87"/>
</g>
</g>
</svg>
