<?xml version="1.0" encoding="UTF-8" standalone="no"?>
<!DOCTYPE svg PUBLIC "-//W3C//DTD SVG 1.1//EN"
 "http://www.w3.org/Graphics/SVG/1.1/DTD/svg11.dtd">
<!-- Generated by graphviz version 2.43.0 (0)
 -->
<!-- Title: Qubit connectivity Pages: 1 -->
<svg width="215pt" height="219pt"
 viewBox="0.00 0.00 215.10 219.40" xmlns="http://www.w3.org/2000/svg" xmlns:xlink="http://www.w3.org/1999/xlink">
<g id="graph0" class="graph" transform="scale(1 1) rotate(0) translate(4 215.4)">
<title>Qubit connectivity</title>
<polygon fill="white" stroke="transparent" points="-4,4 -4,-215.4 211.1,-215.4 211.1,4 -4,4"/>
<!-- q[0] -->
<g id="node1" class="node">
<title>q[0]</title>
<ellipse fill="none" stroke="blue" cx="99.35" cy="-105.66" rx="24.27" ry="24.27"/>
<text text-anchor="middle" x="99.35" y="-103.16" font-family="Courier,monospace" font-size="10.00">q[0]</text>
</g>
<!-- q[7] -->
<g id="node2" class="node">
<title>q[7]</title>
<ellipse fill="none" stroke="blue" cx="182.96" cy="-106.28" rx="24.27" ry="24.27"/>
<text text-anchor="middle" x="182.96" y="-103.78" font-family="Courier,monospace" font-size="10.00">q[7]</text>
</g>
<!-- q[0]&#45;&#45;q[7] -->
<g id="edge1" class="edge">
<title>q[0]&#45;&#45;q[7]</title>
<path fill="none" stroke="black" d="M123.53,-105.84C134.53,-105.92 147.52,-106.01 158.54,-106.1"/>
</g>
<!-- q[6] -->
<g id="node3" class="node">
<title>q[6]</title>
<ellipse fill="none" stroke="blue" cx="81.43" cy="-24.14" rx="24.27" ry="24.27"/>
<text text-anchor="middle" x="81.43" y="-21.64" font-family="Courier,monospace" font-size="10.00">q[6]</text>
</g>
<!-- q[0]&#45;&#45;q[6] -->
<g id="edge2" class="edge">
<title>q[0]&#45;&#45;q[6]</title>
<path fill="none" stroke="black" d="M94.17,-82.08C91.81,-71.35 89.03,-58.69 86.66,-47.94"/>
</g>
<!-- q[5] -->
<g id="node4" class="node">
<title>q[5]</title>
<ellipse fill="none" stroke="blue" cx="24.42" cy="-142.51" rx="24.27" ry="24.27"/>
<text text-anchor="middle" x="24.42" y="-140.01" font-family="Courier,monospace" font-size="10.00">q[5]</text>
</g>
<!-- q[0]&#45;&#45;q[5] -->
<g id="edge3" class="edge">
<title>q[0]&#45;&#45;q[5]</title>
<path fill="none" stroke="black" d="M77.68,-116.31C67.82,-121.16 56.18,-126.89 46.3,-131.75"/>
</g>
<!-- q[4] -->
<g id="node5" class="node">
<title>q[4]</title>
<ellipse fill="none" stroke="blue" cx="151.55" cy="-170.97" rx="24.27" ry="24.27"/>
<text text-anchor="middle" x="151.55" y="-168.47" font-family="Courier,monospace" font-size="10.00">q[4]</text>
</g>
<!-- q[0]&#45;&#45;q[4] -->
<g id="edge4" class="edge">
<title>q[0]&#45;&#45;q[4]</title>
<path fill="none" stroke="black" d="M114.45,-124.55C121.31,-133.14 129.42,-143.28 136.3,-151.89"/>
</g>
<!-- q[3] -->
<g id="node6" class="node">
<title>q[3]</title>
<ellipse fill="none" stroke="blue" cx="81.39" cy="-187.26" rx="24.27" ry="24.27"/>
<text text-anchor="middle" x="81.39" y="-184.76" font-family="Courier,monospace" font-size="10.00">q[3]</text>
</g>
<!-- q[0]&#45;&#45;q[3] -->
<g id="edge5" class="edge">
<title>q[0]&#45;&#45;q[3]</title>
<path fill="none" stroke="black" d="M94.15,-129.26C91.79,-139.99 89,-152.67 86.63,-163.43"/>
</g>
<!-- q[2] -->
<g id="node7" class="node">
<title>q[2]</title>
<ellipse fill="none" stroke="blue" cx="24.14" cy="-69.47" rx="24.27" ry="24.27"/>
<text text-anchor="middle" x="24.14" y="-66.97" font-family="Courier,monospace" font-size="10.00">q[2]</text>
</g>
<!-- q[0]&#45;&#45;q[2] -->
<g id="edge6" class="edge">
<title>q[0]&#45;&#45;q[2]</title>
<path fill="none" stroke="black" d="M77.59,-95.19C67.7,-90.43 56.02,-84.81 46.1,-80.04"/>
</g>
<!-- q[1] -->
<g id="node8" class="node">
<title>q[1]</title>
<ellipse fill="none" stroke="blue" cx="152.16" cy="-40.93" rx="24.27" ry="24.27"/>
<text text-anchor="middle" x="152.16" y="-38.43" font-family="Courier,monospace" font-size="10.00">q[1]</text>
</g>
<!-- q[0]&#45;&#45;q[1] -->
<g id="edge7" class="edge">
<title>q[0]&#45;&#45;q[1]</title>
<path fill="none" stroke="black" d="M114.62,-86.93C121.57,-78.42 129.77,-68.37 136.74,-59.83"/>
</g>
</g>
</svg>
