<?xml version="1.0" encoding="UTF-8" standalone="no"?>
<!DOCTYPE svg PUBLIC "-//W3C//DTD SVG 1.1//EN"
 "http://www.w3.org/Graphics/SVG/1.1/DTD/svg11.dtd">
<!-- Generated by graphviz version 2.49.0 (20210828.1703)
 -->
<!-- Title: Circuit Pages: 1 -->
<svg width="253pt" height="113pt"
 viewBox="0.00 0.00 252.60 113.00" xmlns="http://www.w3.org/2000/svg" xmlns:xlink="http://www.w3.org/1999/xlink">
<g id="graph0" class="graph" transform="scale(1 1) rotate(0) translate(4 109)">
<title>Circuit</title>
<polygon fill="white" stroke="transparent" points="-4,4 -4,-109 248.6,-109 248.6,4 -4,4"/>
<g id="clust5" class="cluster">
<title>cluster_8</title>
<path fill="lightblue" stroke="lightblue" d="M50.47,-42C50.47,-42 60.33,-42 60.33,-42 65.27,-42 70.2,-46.93 70.2,-51.87 70.2,-51.87 70.2,-80.13 70.2,-80.13 70.2,-85.07 65.27,-90 60.33,-90 60.33,-90 50.47,-90 50.47,-90 45.53,-90 40.6,-85.07 40.6,-80.13 40.6,-80.13 40.6,-51.87 40.6,-51.87 40.6,-46.93 45.53,-42 50.47,-42"/>
<text text-anchor="middle" x="55.4" y="-78" font-family="Times,serif" font-size="10.00">CX</text>
</g>
<g id="clust6" class="cluster">
<title>cluster_9</title>
<path fill="lightblue" stroke="lightblue" d="M92.07,-44C92.07,-44 101.93,-44 101.93,-44 106.87,-44 111.8,-48.93 111.8,-53.87 111.8,-53.87 111.8,-82.13 111.8,-82.13 111.8,-87.07 106.87,-92 101.93,-92 101.93,-92 92.07,-92 92.07,-92 87.13,-92 82.2,-87.07 82.2,-82.13 82.2,-82.13 82.2,-53.87 82.2,-53.87 82.2,-48.93 87.13,-44 92.07,-44"/>
<text text-anchor="middle" x="97" y="-80" font-family="Times,serif" font-size="10.00">CX</text>
</g>
<g id="clust7" class="cluster">
<title>cluster_10</title>
<path fill="lightblue" stroke="lightblue" d="M134.8,-64C134.8,-64 159.4,-64 159.4,-64 164.9,-64 170.4,-69.5 170.4,-75 170.4,-75 170.4,-86 170.4,-86 170.4,-91.5 164.9,-97 159.4,-97 159.4,-97 134.8,-97 134.8,-97 129.3,-97 123.8,-91.5 123.8,-86 123.8,-86 123.8,-75 123.8,-75 123.8,-69.5 129.3,-64 134.8,-64"/>
<text text-anchor="middle" x="147.1" y="-85" font-family="Times,serif" font-size="10.00">Rx(0.2)</text>
</g>
<g id="clust8" class="cluster">
<title>cluster_11</title>
<path fill="lightblue" stroke="lightblue" d="M191.93,-43C191.93,-43 201.47,-43 201.47,-43 206.23,-43 211,-47.77 211,-52.53 211,-52.53 211,-81.47 211,-81.47 211,-86.23 206.23,-91 201.47,-91 201.47,-91 191.93,-91 191.93,-91 187.17,-91 182.4,-86.23 182.4,-81.47 182.4,-81.47 182.4,-52.53 182.4,-52.53 182.4,-47.77 187.17,-43 191.93,-43"/>
<text text-anchor="middle" x="196.7" y="-79" font-family="Times,serif" font-size="10.00">CZ</text>
</g>
<g id="clust1" class="cluster">
<title>cluster_q_inputs</title>
<path fill="lightgrey" stroke="lightgrey" d="M19.53,-9C19.53,-9 24.07,-9 24.07,-9 26.33,-9 28.6,-11.27 28.6,-13.53 28.6,-13.53 28.6,-63.47 28.6,-63.47 28.6,-65.73 26.33,-68 24.07,-68 24.07,-68 19.53,-68 19.53,-68 17.27,-68 15,-65.73 15,-63.47 15,-63.47 15,-13.53 15,-13.53 15,-11.27 17.27,-9 19.53,-9"/>
</g>
<g id="clust3" class="cluster">
<title>cluster_q_outputs</title>
<path fill="lightgrey" stroke="lightgrey" d="M227.53,-8C227.53,-8 232.07,-8 232.07,-8 234.33,-8 236.6,-10.27 236.6,-12.53 236.6,-12.53 236.6,-62.47 236.6,-62.47 236.6,-64.73 234.33,-67 232.07,-67 232.07,-67 227.53,-67 227.53,-67 225.27,-67 223,-64.73 223,-62.47 223,-62.47 223,-12.53 223,-12.53 223,-10.27 225.27,-8 227.53,-8"/>
</g>
<!-- (0, 0) -->
<g id="node1" class="node">
<title>(0, 0)</title>
<ellipse fill="blue" stroke="blue" cx="21.8" cy="-46" rx="1.8" ry="1.8"/>
<text text-anchor="middle" x="10" y="-37.8" font-family="Courier,monospace" font-size="8.00">q[0]</text>
</g>
<!-- (8, 0) -->
<g id="node9" class="node">
<title>(8, 0)</title>
<ellipse fill="black" stroke="black" cx="55.4" cy="-49" rx="1.8" ry="1.8"/>
<text text-anchor="middle" x="51.1" y="-40.8" font-family="Helvetica,sans-Serif" font-size="8.00">0</text>
</g>
<!-- (0, 0)&#45;&gt;(8, 0) -->
<g id="edge1" class="edge">
<title>(0, 0)&#45;&gt;(8, 0)</title>
<path fill="none" stroke="blue" d="M24.16,-46.13C28.87,-46.58 44.6,-48.07 51.32,-48.71"/>
<polygon fill="blue" stroke="blue" points="53.35,-48.9 51.25,-49.83 52.35,-48.81 51.36,-48.71 51.36,-48.71 51.36,-48.71 52.35,-48.81 51.46,-47.59 53.35,-48.9 53.35,-48.9"/>
</g>
<!-- (2, 0) -->
<g id="node2" class="node">
<title>(2, 0)</title>
<ellipse fill="blue" stroke="blue" cx="21.8" cy="-61" rx="1.8" ry="1.8"/>
<text text-anchor="middle" x="10" y="-52.8" font-family="Courier,monospace" font-size="8.00">q[1]</text>
</g>
<!-- (8, 1) -->
<g id="node10" class="node">
<title>(8, 1)</title>
<ellipse fill="black" stroke="black" cx="55.4" cy="-64" rx="1.8" ry="1.8"/>
<text text-anchor="middle" x="51.1" y="-55.8" font-family="Helvetica,sans-Serif" font-size="8.00">1</text>
</g>
<!-- (2, 0)&#45;&gt;(8, 1) -->
<g id="edge2" class="edge">
<title>(2, 0)&#45;&gt;(8, 1)</title>
<path fill="none" stroke="blue" d="M24.16,-61.13C28.87,-61.58 44.6,-63.07 51.32,-63.71"/>
<polygon fill="blue" stroke="blue" points="53.35,-63.9 51.25,-64.83 52.35,-63.81 51.36,-63.71 51.36,-63.71 51.36,-63.71 52.35,-63.81 51.46,-62.59 53.35,-63.9 53.35,-63.9"/>
</g>
<!-- (4, 0) -->
<g id="node3" class="node">
<title>(4, 0)</title>
<ellipse fill="blue" stroke="blue" cx="21.8" cy="-31" rx="1.8" ry="1.8"/>
<text text-anchor="middle" x="10" y="-22.8" font-family="Courier,monospace" font-size="8.00">q[2]</text>
</g>
<!-- (5, 0) -->
<g id="node7" class="node">
<title>(5, 0)</title>
<ellipse fill="blue" stroke="blue" cx="229.8" cy="-30" rx="1.8" ry="1.8"/>
<text text-anchor="middle" x="218" y="-21.8" font-family="Courier,monospace" font-size="8.00">q[2]</text>
</g>
<!-- (4, 0)&#45;&gt;(5, 0) -->
<g id="edge3" class="edge">
<title>(4, 0)&#45;&gt;(5, 0)</title>
<path fill="none" stroke="blue" d="M23.83,-30.95C30.35,-30.64 66.51,-29 96,-29 96,-29 96,-29 147.6,-29 178.27,-29 215.46,-29.72 225.93,-29.94"/>
<polygon fill="blue" stroke="blue" points="228,-29.98 225.98,-31.07 227,-29.96 226,-29.94 226,-29.94 226,-29.94 227,-29.96 226.02,-28.82 228,-29.98 228,-29.98"/>
</g>
<!-- (6, 0) -->
<g id="node4" class="node">
<title>(6, 0)</title>
<ellipse fill="blue" stroke="blue" cx="21.8" cy="-16" rx="1.8" ry="1.8"/>
<text text-anchor="middle" x="10" y="-7.8" font-family="Courier,monospace" font-size="8.00">q[3]</text>
</g>
<!-- (7, 0) -->
<g id="node8" class="node">
<title>(7, 0)</title>
<ellipse fill="blue" stroke="blue" cx="229.8" cy="-15" rx="1.8" ry="1.8"/>
<text text-anchor="middle" x="218" y="-6.8" font-family="Courier,monospace" font-size="8.00">q[3]</text>
</g>
<!-- (6, 0)&#45;&gt;(7, 0) -->
<g id="edge4" class="edge">
<title>(6, 0)&#45;&gt;(7, 0)</title>
<path fill="none" stroke="blue" d="M23.82,-15.75C30.3,-14.21 66.24,-6 96,-6 96,-6 96,-6 147.6,-6 178.46,-6 215.51,-12.5 225.94,-14.45"/>
<polygon fill="blue" stroke="blue" points="228,-14.84 225.83,-15.58 227.02,-14.66 226.04,-14.47 226.04,-14.47 226.04,-14.47 227.02,-14.66 226.25,-13.36 228,-14.84 228,-14.84"/>
</g>
<!-- (1, 0) -->
<g id="node5" class="node">
<title>(1, 0)</title>
<ellipse fill="blue" stroke="blue" cx="229.8" cy="-45" rx="1.8" ry="1.8"/>
<text text-anchor="middle" x="218" y="-36.8" font-family="Courier,monospace" font-size="8.00">q[0]</text>
</g>
<!-- (3, 0) -->
<g id="node6" class="node">
<title>(3, 0)</title>
<ellipse fill="blue" stroke="blue" cx="229.8" cy="-60" rx="1.8" ry="1.8"/>
<text text-anchor="middle" x="218" y="-51.8" font-family="Courier,monospace" font-size="8.00">q[1]</text>
</g>
<!-- (9, 1) -->
<g id="node12" class="node">
<title>(9, 1)</title>
<ellipse fill="black" stroke="black" cx="97" cy="-51" rx="1.8" ry="1.8"/>
<text text-anchor="middle" x="92.7" y="-42.8" font-family="Helvetica,sans-Serif" font-size="8.00">1</text>
</g>
<!-- (8, 0)&#45;&gt;(9, 1) -->
<g id="edge5" class="edge">
<title>(8, 0)&#45;&gt;(9, 1)</title>
<path fill="none" stroke="blue" d="M57.38,-49.05C62.3,-49.3 84.44,-50.42 92.79,-50.84"/>
<polygon fill="blue" stroke="blue" points="95.19,-50.96 93.14,-51.98 94.19,-50.91 93.19,-50.86 93.19,-50.86 93.19,-50.86 94.19,-50.91 93.25,-49.73 95.19,-50.96 95.19,-50.96"/>
</g>
<!-- (9, 0) -->
<g id="node11" class="node">
<title>(9, 0)</title>
<ellipse fill="black" stroke="black" cx="97" cy="-66" rx="1.8" ry="1.8"/>
<text text-anchor="middle" x="92.7" y="-57.8" font-family="Helvetica,sans-Serif" font-size="8.00">0</text>
</g>
<!-- (8, 1)&#45;&gt;(9, 0) -->
<g id="edge6" class="edge">
<title>(8, 1)&#45;&gt;(9, 0)</title>
<path fill="none" stroke="blue" d="M57.38,-64.05C62.3,-64.3 84.44,-65.42 92.79,-65.84"/>
<polygon fill="blue" stroke="blue" points="95.19,-65.96 93.14,-66.98 94.19,-65.91 93.19,-65.86 93.19,-65.86 93.19,-65.86 94.19,-65.91 93.25,-64.73 95.19,-65.96 95.19,-65.96"/>
</g>
<!-- (10, 0) -->
<g id="node13" class="node">
<title>(10, 0)</title>
<ellipse fill="black" stroke="black" cx="146.6" cy="-71" rx="1.8" ry="1.8"/>
</g>
<!-- (9, 0)&#45;&gt;(10, 0) -->
<g id="edge8" class="edge">
<title>(9, 0)&#45;&gt;(10, 0)</title>
<path fill="none" stroke="blue" d="M98.83,-66.09C104.02,-66.63 132.23,-69.6 142.15,-70.64"/>
<polygon fill="blue" stroke="blue" points="144.59,-70.89 142.49,-71.8 143.6,-70.79 142.61,-70.69 142.61,-70.69 142.61,-70.69 143.6,-70.79 142.72,-69.57 144.59,-70.89 144.59,-70.89"/>
</g>
<!-- (11, 0) -->
<g id="node14" class="node">
<title>(11, 0)</title>
<ellipse fill="black" stroke="black" cx="196.2" cy="-50" rx="1.8" ry="1.8"/>
<text text-anchor="middle" x="191.9" y="-41.8" font-family="Helvetica,sans-Serif" font-size="8.00">0</text>
</g>
<!-- (9, 1)&#45;&gt;(11, 0) -->
<g id="edge7" class="edge">
<title>(9, 1)&#45;&gt;(11, 0)</title>
<path fill="none" stroke="blue" d="M99.09,-50.99C108.56,-50.89 176.73,-50.19 192.12,-50.03"/>
<polygon fill="blue" stroke="blue" points="194.24,-50.01 192.25,-51.16 193.24,-50.02 192.24,-50.03 192.24,-50.03 192.24,-50.03 193.24,-50.02 192.23,-48.91 194.24,-50.01 194.24,-50.01"/>
</g>
<!-- (11, 1) -->
<g id="node15" class="node">
<title>(11, 1)</title>
<ellipse fill="black" stroke="black" cx="196.2" cy="-65" rx="1.8" ry="1.8"/>
<text text-anchor="middle" x="191.9" y="-56.8" font-family="Helvetica,sans-Serif" font-size="8.00">1</text>
</g>
<!-- (10, 0)&#45;&gt;(11, 1) -->
<g id="edge9" class="edge">
<title>(10, 0)&#45;&gt;(11, 1)</title>
<path fill="none" stroke="blue" d="M148.43,-70.9C153.62,-70.24 181.83,-66.69 191.75,-65.43"/>
<polygon fill="blue" stroke="blue" points="194.19,-65.13 192.35,-66.49 193.2,-65.25 192.21,-65.38 192.21,-65.38 192.21,-65.38 193.2,-65.25 192.07,-64.26 194.19,-65.13 194.19,-65.13"/>
</g>
<!-- (11, 0)&#45;&gt;(1, 0) -->
<g id="edge11" class="edge">
<title>(11, 0)&#45;&gt;(1, 0)</title>
<path fill="none" stroke="blue" d="M198.56,-49.79C203.27,-49.04 219,-46.55 225.72,-45.49"/>
<polygon fill="blue" stroke="blue" points="227.75,-45.17 225.95,-46.59 226.76,-45.32 225.77,-45.48 225.77,-45.48 225.77,-45.48 226.76,-45.32 225.6,-44.37 227.75,-45.17 227.75,-45.17"/>
</g>
<!-- (11, 1)&#45;&gt;(3, 0) -->
<g id="edge10" class="edge">
<title>(11, 1)&#45;&gt;(3, 0)</title>
<path fill="none" stroke="blue" d="M198.56,-64.79C203.27,-64.04 219,-61.55 225.72,-60.49"/>
<polygon fill="blue" stroke="blue" points="227.75,-60.17 225.95,-61.59 226.76,-60.32 225.77,-60.48 225.77,-60.48 225.77,-60.48 226.76,-60.32 225.6,-59.37 227.75,-60.17 227.75,-60.17"/>
</g>
</g>
</svg>
