<?xml version="1.0" encoding="UTF-8" standalone="no"?>
<!DOCTYPE svg PUBLIC "-//W3C//DTD SVG 1.1//EN"
 "http://www.w3.org/Graphics/SVG/1.1/DTD/svg11.dtd">
<!-- Generated by graphviz version 2.44.1 (20200629.0846)
 -->
<!-- Title: Qubit connectivity Pages: 1 -->
<svg width="218pt" height="219pt"
 viewBox="0.00 0.00 217.56 218.87" xmlns="http://www.w3.org/2000/svg" xmlns:xlink="http://www.w3.org/1999/xlink">
<g id="graph0" class="graph" transform="scale(1 1) rotate(0) translate(4 214.87)">
<title>Qubit connectivity</title>
<polygon fill="white" stroke="transparent" points="-4,4 -4,-214.87 213.56,-214.87 213.56,4 -4,4"/>
<!-- q[7] -->
<g id="node1" class="node">
<title>q[7]</title>
<ellipse fill="none" stroke="blue" cx="24.14" cy="-97.67" rx="24.27" ry="24.27"/>
<text text-anchor="middle" x="24.14" y="-95.17" font-family="Courier,monospace" font-size="10.00">q[7]</text>
</g>
<!-- q[0] -->
<g id="node2" class="node">
<title>q[0]</title>
<ellipse fill="none" stroke="blue" cx="107.52" cy="-103.92" rx="24.27" ry="24.27"/>
<text text-anchor="middle" x="107.52" y="-101.42" font-family="Courier,monospace" font-size="10.00">q[0]</text>
</g>
<!-- q[7]&#45;&#45;q[0] -->
<g id="edge1" class="edge">
<title>q[7]&#45;&#45;q[0]</title>
<path fill="none" stroke="black" d="M48.25,-99.47C59.22,-100.3 72.17,-101.27 83.17,-102.09"/>
</g>
<!-- q[6] -->
<g id="node3" class="node">
<title>q[6]</title>
<ellipse fill="none" stroke="blue" cx="132.08" cy="-24.14" rx="24.27" ry="24.27"/>
<text text-anchor="middle" x="132.08" y="-21.64" font-family="Courier,monospace" font-size="10.00">q[6]</text>
</g>
<!-- q[0]&#45;&#45;q[6] -->
<g id="edge2" class="edge">
<title>q[0]&#45;&#45;q[6]</title>
<path fill="none" stroke="black" d="M114.62,-80.84C117.85,-70.35 121.67,-57.96 124.91,-47.44"/>
</g>
<!-- q[5] -->
<g id="node4" class="node">
<title>q[5]</title>
<ellipse fill="none" stroke="blue" cx="118.8" cy="-186.73" rx="24.27" ry="24.27"/>
<text text-anchor="middle" x="118.8" y="-184.23" font-family="Courier,monospace" font-size="10.00">q[5]</text>
</g>
<!-- q[0]&#45;&#45;q[5] -->
<g id="edge3" class="edge">
<title>q[0]&#45;&#45;q[5]</title>
<path fill="none" stroke="black" d="M110.78,-127.87C112.27,-138.76 114.02,-151.63 115.51,-162.55"/>
</g>
<!-- q[4] -->
<g id="node5" class="node">
<title>q[4]</title>
<ellipse fill="none" stroke="blue" cx="179.28" cy="-146.62" rx="24.27" ry="24.27"/>
<text text-anchor="middle" x="179.28" y="-144.12" font-family="Courier,monospace" font-size="10.00">q[4]</text>
</g>
<!-- q[0]&#45;&#45;q[4] -->
<g id="edge4" class="edge">
<title>q[0]&#45;&#45;q[4]</title>
<path fill="none" stroke="black" d="M128.28,-116.27C137.72,-121.89 148.86,-128.52 158.32,-134.15"/>
</g>
<!-- q[3] -->
<g id="node6" class="node">
<title>q[3]</title>
<ellipse fill="none" stroke="blue" cx="50.21" cy="-164.74" rx="24.27" ry="24.27"/>
<text text-anchor="middle" x="50.21" y="-162.24" font-family="Courier,monospace" font-size="10.00">q[3]</text>
</g>
<!-- q[0]&#45;&#45;q[3] -->
<g id="edge5" class="edge">
<title>q[0]&#45;&#45;q[3]</title>
<path fill="none" stroke="black" d="M90.94,-121.51C83.41,-129.51 74.5,-138.96 66.95,-146.98"/>
</g>
<!-- q[2] -->
<g id="node7" class="node">
<title>q[2]</title>
<ellipse fill="none" stroke="blue" cx="60.24" cy="-35.05" rx="24.27" ry="24.27"/>
<text text-anchor="middle" x="60.24" y="-32.55" font-family="Courier,monospace" font-size="10.00">q[2]</text>
</g>
<!-- q[0]&#45;&#45;q[2] -->
<g id="edge6" class="edge">
<title>q[0]&#45;&#45;q[2]</title>
<path fill="none" stroke="black" d="M93.85,-84C87.63,-74.94 80.28,-64.24 74.05,-55.16"/>
</g>
<!-- q[1] -->
<g id="node8" class="node">
<title>q[1]</title>
<ellipse fill="none" stroke="blue" cx="185.42" cy="-73.96" rx="24.27" ry="24.27"/>
<text text-anchor="middle" x="185.42" y="-71.46" font-family="Courier,monospace" font-size="10.00">q[1]</text>
</g>
<!-- q[0]&#45;&#45;q[1] -->
<g id="edge7" class="edge">
<title>q[0]&#45;&#45;q[1]</title>
<path fill="none" stroke="black" d="M130.05,-95.25C140.3,-91.31 152.4,-86.66 162.67,-82.71"/>
</g>
</g>
</svg>
