<?xml version="1.0" encoding="UTF-8" standalone="no"?>
<!DOCTYPE svg PUBLIC "-//W3C//DTD SVG 1.1//EN"
 "http://www.w3.org/Graphics/SVG/1.1/DTD/svg11.dtd">
<!-- Generated by graphviz version 2.47.1 (20210417.1919)
 -->
<!-- Title: Circuit Pages: 1 -->
<svg width="210pt" height="109pt"
 viewBox="0.00 0.00 210.00 109.00" xmlns="http://www.w3.org/2000/svg" xmlns:xlink="http://www.w3.org/1999/xlink">
<g id="graph0" class="graph" transform="scale(1 1) rotate(0) translate(4 105)">
<title>Circuit</title>
<polygon fill="white" stroke="transparent" points="-4,4 -4,-105 206,-105 206,4 -4,4"/>
<g id="clust1" class="cluster">
<title>cluster_q_inputs</title>
<path fill="lightgrey" stroke="lightgrey" d="M18.53,-12C18.53,-12 23.07,-12 23.07,-12 25.33,-12 27.6,-14.27 27.6,-16.53 27.6,-16.53 27.6,-51.47 27.6,-51.47 27.6,-53.73 25.33,-56 23.07,-56 23.07,-56 18.53,-56 18.53,-56 16.27,-56 14,-53.73 14,-51.47 14,-51.47 14,-16.53 14,-16.53 14,-14.27 16.27,-12 18.53,-12"/>
</g>
<g id="clust3" class="cluster">
<title>cluster_q_outputs</title>
<path fill="lightgrey" stroke="lightgrey" d="M184.93,-12C184.93,-12 189.47,-12 189.47,-12 191.73,-12 194,-14.27 194,-16.53 194,-16.53 194,-51.47 194,-51.47 194,-53.73 191.73,-56 189.47,-56 189.47,-56 184.93,-56 184.93,-56 182.67,-56 180.4,-53.73 180.4,-51.47 180.4,-51.47 180.4,-16.53 180.4,-16.53 180.4,-14.27 182.67,-12 184.93,-12"/>
</g>
<g id="clust5" class="cluster">
<title>cluster_6</title>
<path fill="lightblue" stroke="lightblue" d="M49.8,-27C49.8,-27 60,-27 60,-27 65.1,-27 70.2,-32.1 70.2,-37.2 70.2,-37.2 70.2,-64.8 70.2,-64.8 70.2,-69.9 65.1,-75 60,-75 60,-75 49.8,-75 49.8,-75 44.7,-75 39.6,-69.9 39.6,-64.8 39.6,-64.8 39.6,-37.2 39.6,-37.2 39.6,-32.1 44.7,-27 49.8,-27"/>
<text text-anchor="middle" x="54.9" y="-63" font-family="Times,serif" font-size="10.00">CX</text>
</g>
<g id="clust6" class="cluster">
<title>cluster_7</title>
<path fill="lightblue" stroke="lightblue" d="M91.73,-8C91.73,-8 101.27,-8 101.27,-8 106.03,-8 110.8,-12.77 110.8,-17.53 110.8,-17.53 110.8,-46.47 110.8,-46.47 110.8,-51.23 106.03,-56 101.27,-56 101.27,-56 91.73,-56 91.73,-56 86.97,-56 82.2,-51.23 82.2,-46.47 82.2,-46.47 82.2,-17.53 82.2,-17.53 82.2,-12.77 86.97,-8 91.73,-8"/>
<text text-anchor="middle" x="96.5" y="-44" font-family="Times,serif" font-size="10.00">CZ</text>
</g>
<g id="clust7" class="cluster">
<title>cluster_8</title>
<path fill="lightblue" stroke="lightblue" d="M140.67,-27C140.67,-27 148.53,-27 148.53,-27 152.47,-27 156.4,-30.93 156.4,-34.87 156.4,-34.87 156.4,-52.13 156.4,-52.13 156.4,-56.07 152.47,-60 148.53,-60 148.53,-60 140.67,-60 140.67,-60 136.73,-60 132.8,-56.07 132.8,-52.13 132.8,-52.13 132.8,-34.87 132.8,-34.87 132.8,-30.93 136.73,-27 140.67,-27"/>
<text text-anchor="middle" x="144.6" y="-48" font-family="Times,serif" font-size="10.00">X</text>
</g>
<g id="clust8" class="cluster">
<title>cluster_9</title>
<path fill="lightblue" stroke="lightblue" d="M132.8,-60C132.8,-60 157.4,-60 157.4,-60 162.9,-60 168.4,-65.5 168.4,-71 168.4,-71 168.4,-82 168.4,-82 168.4,-87.5 162.9,-93 157.4,-93 157.4,-93 132.8,-93 132.8,-93 127.3,-93 121.8,-87.5 121.8,-82 121.8,-82 121.8,-71 121.8,-71 121.8,-65.5 127.3,-60 132.8,-60"/>
<text text-anchor="middle" x="145.1" y="-81" font-family="Times,serif" font-size="10.00">Rx(0.3)</text>
</g>
<!-- (0, 0) -->
<g id="node1" class="node">
<title>(0, 0)</title>
<ellipse fill="blue" stroke="blue" cx="20.8" cy="-49" rx="1.8" ry="1.8"/>
<text text-anchor="middle" x="9.5" y="-40.8" font-family="Courier,monospace" font-size="8.00">q[0]</text>
</g>
<!-- (6, 0) -->
<g id="node7" class="node">
<title>(6, 0)</title>
<ellipse fill="black" stroke="black" cx="54.4" cy="-49" rx="1.8" ry="1.8"/>
<text text-anchor="middle" x="50.1" y="-40.8" font-family="Helvetica,sans-Serif" font-size="8.00">0</text>
</g>
<!-- (0, 0)&#45;&gt;(6, 0) -->
<g id="edge1" class="edge">
<title>(0, 0)&#45;&gt;(6, 0)</title>
<path fill="none" stroke="blue" d="M23.16,-49C27.87,-49 43.6,-49 50.32,-49"/>
<polygon fill="blue" stroke="blue" points="52.35,-49 50.35,-50.13 51.35,-49 50.35,-49 50.35,-49 50.35,-49 51.35,-49 50.35,-47.88 52.35,-49 52.35,-49"/>
</g>
<!-- (2, 0) -->
<g id="node2" class="node">
<title>(2, 0)</title>
<ellipse fill="blue" stroke="blue" cx="20.8" cy="-34" rx="1.8" ry="1.8"/>
<text text-anchor="middle" x="9.5" y="-25.8" font-family="Courier,monospace" font-size="8.00">q[1]</text>
</g>
<!-- (6, 1) -->
<g id="node8" class="node">
<title>(6, 1)</title>
<ellipse fill="black" stroke="black" cx="54.4" cy="-34" rx="1.8" ry="1.8"/>
<text text-anchor="middle" x="50.1" y="-25.8" font-family="Helvetica,sans-Serif" font-size="8.00">1</text>
</g>
<!-- (2, 0)&#45;&gt;(6, 1) -->
<g id="edge2" class="edge">
<title>(2, 0)&#45;&gt;(6, 1)</title>
<path fill="none" stroke="blue" d="M23.16,-34C27.87,-34 43.6,-34 50.32,-34"/>
<polygon fill="blue" stroke="blue" points="52.35,-34 50.35,-35.13 51.35,-34 50.35,-34 50.35,-34 50.35,-34 51.35,-34 50.35,-32.88 52.35,-34 52.35,-34"/>
</g>
<!-- (4, 0) -->
<g id="node3" class="node">
<title>(4, 0)</title>
<ellipse fill="blue" stroke="blue" cx="20.8" cy="-19" rx="1.8" ry="1.8"/>
<text text-anchor="middle" x="9.5" y="-10.8" font-family="Courier,monospace" font-size="8.00">q[2]</text>
</g>
<!-- (7, 1) -->
<g id="node10" class="node">
<title>(7, 1)</title>
<ellipse fill="black" stroke="black" cx="96" cy="-15" rx="1.8" ry="1.8"/>
<text text-anchor="middle" x="91.7" y="-6.8" font-family="Helvetica,sans-Serif" font-size="8.00">1</text>
</g>
<!-- (4, 0)&#45;&gt;(7, 1) -->
<g id="edge3" class="edge">
<title>(4, 0)&#45;&gt;(7, 1)</title>
<path fill="none" stroke="blue" d="M22.62,-18.96C29.57,-18.58 78.57,-15.9 91.75,-15.18"/>
<polygon fill="blue" stroke="blue" points="93.88,-15.06 91.94,-16.29 92.88,-15.12 91.88,-15.17 91.88,-15.17 91.88,-15.17 92.88,-15.12 91.82,-14.05 93.88,-15.06 93.88,-15.06"/>
</g>
<!-- (1, 0) -->
<g id="node4" class="node">
<title>(1, 0)</title>
<ellipse fill="blue" stroke="blue" cx="187.2" cy="-49" rx="1.8" ry="1.8"/>
<text text-anchor="middle" x="175.9" y="-40.8" font-family="Courier,monospace" font-size="8.00">q[0]</text>
</g>
<!-- (3, 0) -->
<g id="node5" class="node">
<title>(3, 0)</title>
<ellipse fill="blue" stroke="blue" cx="187.2" cy="-34" rx="1.8" ry="1.8"/>
<text text-anchor="middle" x="175.9" y="-25.8" font-family="Courier,monospace" font-size="8.00">q[1]</text>
</g>
<!-- (5, 0) -->
<g id="node6" class="node">
<title>(5, 0)</title>
<ellipse fill="blue" stroke="blue" cx="187.2" cy="-19" rx="1.8" ry="1.8"/>
<text text-anchor="middle" x="175.9" y="-10.8" font-family="Courier,monospace" font-size="8.00">q[2]</text>
</g>
<!-- (9, 0) -->
<g id="node12" class="node">
<title>(9, 0)</title>
<ellipse fill="black" stroke="black" cx="144.6" cy="-67" rx="1.8" ry="1.8"/>
</g>
<!-- (6, 0)&#45;&gt;(9, 0) -->
<g id="edge5" class="edge">
<title>(6, 0)&#45;&gt;(9, 0)</title>
<path fill="none" stroke="blue" d="M56.41,-49.35C59.93,-50.57 71.98,-54.65 82.2,-57 104.33,-62.08 131.53,-65.56 140.54,-66.64"/>
<polygon fill="blue" stroke="blue" points="142.73,-66.9 140.61,-67.78 141.73,-66.78 140.74,-66.67 140.74,-66.67 140.74,-66.67 141.73,-66.78 140.87,-65.55 142.73,-66.9 142.73,-66.9"/>
</g>
<!-- (7, 0) -->
<g id="node9" class="node">
<title>(7, 0)</title>
<ellipse fill="black" stroke="black" cx="96" cy="-30" rx="1.8" ry="1.8"/>
<text text-anchor="middle" x="91.7" y="-21.8" font-family="Helvetica,sans-Serif" font-size="8.00">0</text>
</g>
<!-- (6, 1)&#45;&gt;(7, 0) -->
<g id="edge4" class="edge">
<title>(6, 1)&#45;&gt;(7, 0)</title>
<path fill="none" stroke="blue" d="M56.38,-33.9C61.3,-33.4 83.44,-31.17 91.79,-30.32"/>
<polygon fill="blue" stroke="blue" points="94.19,-30.08 92.31,-31.4 93.2,-30.18 92.2,-30.28 92.2,-30.28 92.2,-30.28 93.2,-30.18 92.09,-29.16 94.19,-30.08 94.19,-30.08"/>
</g>
<!-- (8, 0) -->
<g id="node11" class="node">
<title>(8, 0)</title>
<ellipse fill="black" stroke="black" cx="144.6" cy="-34" rx="1.8" ry="1.8"/>
</g>
<!-- (7, 0)&#45;&gt;(8, 0) -->
<g id="edge6" class="edge">
<title>(7, 0)&#45;&gt;(8, 0)</title>
<path fill="none" stroke="blue" d="M97.81,-30.07C102.89,-30.51 130.51,-32.88 140.22,-33.71"/>
<polygon fill="blue" stroke="blue" points="142.62,-33.92 140.53,-34.87 141.62,-33.83 140.62,-33.74 140.62,-33.74 140.62,-33.74 141.62,-33.83 140.72,-32.62 142.62,-33.92 142.62,-33.92"/>
</g>
<!-- (7, 1)&#45;&gt;(5, 0) -->
<g id="edge7" class="edge">
<title>(7, 1)&#45;&gt;(5, 0)</title>
<path fill="none" stroke="blue" d="M98,-15.04C106.61,-15.43 168.22,-18.19 183.01,-18.86"/>
<polygon fill="blue" stroke="blue" points="185.32,-18.96 183.27,-19.99 184.32,-18.92 183.32,-18.87 183.32,-18.87 183.32,-18.87 184.32,-18.92 183.37,-17.75 185.32,-18.96 185.32,-18.96"/>
</g>
<!-- (8, 0)&#45;&gt;(3, 0) -->
<g id="edge8" class="edge">
<title>(8, 0)&#45;&gt;(3, 0)</title>
<path fill="none" stroke="blue" d="M146.6,-34C151.74,-34 175.15,-34 183.35,-34"/>
<polygon fill="blue" stroke="blue" points="185.37,-34 183.37,-35.13 184.37,-34 183.37,-34 183.37,-34 183.37,-34 184.37,-34 183.37,-32.88 185.37,-34 185.37,-34"/>
</g>
<!-- (9, 0)&#45;&gt;(1, 0) -->
<g id="edge9" class="edge">
<title>(9, 0)&#45;&gt;(1, 0)</title>
<path fill="none" stroke="blue" d="M146.51,-66.87C149.65,-66.41 160.35,-64.65 168.4,-61 174.14,-58.4 180.06,-54 183.42,-51.32"/>
<polygon fill="blue" stroke="blue" points="185.3,-49.77 184.47,-51.91 184.53,-50.4 183.76,-51.04 183.76,-51.04 183.76,-51.04 184.53,-50.4 183.04,-50.17 185.3,-49.77 185.3,-49.77"/>
</g>
</g>
</svg>
