<?xml version="1.0" encoding="UTF-8" standalone="no"?>
<!DOCTYPE svg PUBLIC "-//W3C//DTD SVG 1.1//EN"
 "http://www.w3.org/Graphics/SVG/1.1/DTD/svg11.dtd">
<!-- Generated by graphviz version 2.49.0 (20210828.1703)
 -->
<!-- Title: Circuit Pages: 1 -->
<svg width="277pt" height="123pt"
 viewBox="0.00 0.00 277.00 123.00" xmlns="http://www.w3.org/2000/svg" xmlns:xlink="http://www.w3.org/1999/xlink">
<g id="graph0" class="graph" transform="scale(1 1) rotate(0) translate(4 119)">
<title>Circuit</title>
<polygon fill="white" stroke="transparent" points="-4,4 -4,-119 273,-119 273,4 -4,4"/>
<g id="clust5" class="cluster">
<title>cluster_8</title>
<path fill="lightblue" stroke="lightblue" d="M137.07,-50C137.07,-50 146.93,-50 146.93,-50 151.87,-50 156.8,-54.93 156.8,-59.87 156.8,-59.87 156.8,-88.13 156.8,-88.13 156.8,-93.07 151.87,-98 146.93,-98 146.93,-98 137.07,-98 137.07,-98 132.13,-98 127.2,-93.07 127.2,-88.13 127.2,-88.13 127.2,-59.87 127.2,-59.87 127.2,-54.93 132.13,-50 137.07,-50"/>
<text text-anchor="middle" x="142" y="-86" font-family="Times,serif" font-size="10.00">CX</text>
</g>
<g id="clust6" class="cluster">
<title>cluster_9</title>
<path fill="lightblue" stroke="lightblue" d="M51.6,-74C51.6,-74 105.2,-74 105.2,-74 110.7,-74 116.2,-79.5 116.2,-85 116.2,-85 116.2,-96 116.2,-96 116.2,-101.5 110.7,-107 105.2,-107 105.2,-107 51.6,-107 51.6,-107 46.1,-107 40.6,-101.5 40.6,-96 40.6,-96 40.6,-85 40.6,-85 40.6,-79.5 46.1,-74 51.6,-74"/>
<text text-anchor="middle" x="78.4" y="-95" font-family="Times,serif" font-size="10.00">tk1(0.5, 3.8, 1)</text>
</g>
<g id="clust7" class="cluster">
<title>cluster_10</title>
<path fill="lightblue" stroke="lightblue" d="M55.6,-41C55.6,-41 101.2,-41 101.2,-41 106.7,-41 112.2,-46.5 112.2,-52 112.2,-52 112.2,-63 112.2,-63 112.2,-68.5 106.7,-74 101.2,-74 101.2,-74 55.6,-74 55.6,-74 50.1,-74 44.6,-68.5 44.6,-63 44.6,-63 44.6,-52 44.6,-52 44.6,-46.5 50.1,-41 55.6,-41"/>
<text text-anchor="middle" x="78.4" y="-62" font-family="Times,serif" font-size="10.00">tk1(0, 0, 0.5)</text>
</g>
<g id="clust8" class="cluster">
<title>cluster_11</title>
<path fill="lightblue" stroke="lightblue" d="M179.8,-41C179.8,-41 225.4,-41 225.4,-41 230.9,-41 236.4,-46.5 236.4,-52 236.4,-52 236.4,-63 236.4,-63 236.4,-68.5 230.9,-74 225.4,-74 225.4,-74 179.8,-74 179.8,-74 174.3,-74 168.8,-68.5 168.8,-63 168.8,-63 168.8,-52 168.8,-52 168.8,-46.5 174.3,-41 179.8,-41"/>
<text text-anchor="middle" x="202.6" y="-62" font-family="Times,serif" font-size="10.00">tk1(0, 0, 0.5)</text>
</g>
<g id="clust1" class="cluster">
<title>cluster_q_inputs</title>
<path fill="lightgrey" stroke="lightgrey" d="M19.53,-9C19.53,-9 24.07,-9 24.07,-9 26.33,-9 28.6,-11.27 28.6,-13.53 28.6,-13.53 28.6,-63.47 28.6,-63.47 28.6,-65.73 26.33,-68 24.07,-68 24.07,-68 19.53,-68 19.53,-68 17.27,-68 15,-65.73 15,-63.47 15,-63.47 15,-13.53 15,-13.53 15,-11.27 17.27,-9 19.53,-9"/>
</g>
<g id="clust3" class="cluster">
<title>cluster_q_outputs</title>
<path fill="lightgrey" stroke="lightgrey" d="M251.93,-8C251.93,-8 256.47,-8 256.47,-8 258.73,-8 261,-10.27 261,-12.53 261,-12.53 261,-62.47 261,-62.47 261,-64.73 258.73,-67 256.47,-67 256.47,-67 251.93,-67 251.93,-67 249.67,-67 247.4,-64.73 247.4,-62.47 247.4,-62.47 247.4,-12.53 247.4,-12.53 247.4,-10.27 249.67,-8 251.93,-8"/>
</g>
<!-- (0, 0) -->
<g id="node1" class="node">
<title>(0, 0)</title>
<ellipse fill="blue" stroke="blue" cx="21.8" cy="-61" rx="1.8" ry="1.8"/>
<text text-anchor="middle" x="10" y="-52.8" font-family="Courier,monospace" font-size="8.00">q[0]</text>
</g>
<!-- (9, 0) -->
<g id="node11" class="node">
<title>(9, 0)</title>
<ellipse fill="black" stroke="black" cx="78.4" cy="-81" rx="1.8" ry="1.8"/>
</g>
<!-- (0, 0)&#45;&gt;(9, 0) -->
<g id="edge1" class="edge">
<title>(0, 0)&#45;&gt;(9, 0)</title>
<path fill="none" stroke="blue" d="M23.65,-61.94C26.04,-64.52 33.11,-71.71 40.6,-75 52.22,-80.1 67.62,-80.91 74.2,-81.01"/>
<polygon fill="blue" stroke="blue" points="76.44,-81.02 74.44,-82.13 75.44,-81.01 74.44,-81.01 74.44,-81.01 74.44,-81.01 75.44,-81.01 74.45,-79.88 76.44,-81.02 76.44,-81.02"/>
</g>
<!-- (2, 0) -->
<g id="node2" class="node">
<title>(2, 0)</title>
<ellipse fill="blue" stroke="blue" cx="21.8" cy="-46" rx="1.8" ry="1.8"/>
<text text-anchor="middle" x="10" y="-37.8" font-family="Courier,monospace" font-size="8.00">q[1]</text>
</g>
<!-- (10, 0) -->
<g id="node12" class="node">
<title>(10, 0)</title>
<ellipse fill="black" stroke="black" cx="78.4" cy="-48" rx="1.8" ry="1.8"/>
</g>
<!-- (2, 0)&#45;&gt;(10, 0) -->
<g id="edge2" class="edge">
<title>(2, 0)&#45;&gt;(10, 0)</title>
<path fill="none" stroke="blue" d="M23.75,-46.03C29.91,-46.26 64.35,-47.52 74.55,-47.9"/>
<polygon fill="blue" stroke="blue" points="76.59,-47.97 74.55,-49.02 75.59,-47.93 74.59,-47.9 74.59,-47.9 74.59,-47.9 75.59,-47.93 74.63,-46.77 76.59,-47.97 76.59,-47.97"/>
</g>
<!-- (4, 0) -->
<g id="node3" class="node">
<title>(4, 0)</title>
<ellipse fill="blue" stroke="blue" cx="21.8" cy="-31" rx="1.8" ry="1.8"/>
<text text-anchor="middle" x="10" y="-22.8" font-family="Courier,monospace" font-size="8.00">q[2]</text>
</g>
<!-- (5, 0) -->
<g id="node7" class="node">
<title>(5, 0)</title>
<ellipse fill="blue" stroke="blue" cx="254.2" cy="-30" rx="1.8" ry="1.8"/>
<text text-anchor="middle" x="242.4" y="-21.8" font-family="Courier,monospace" font-size="8.00">q[2]</text>
</g>
<!-- (4, 0)&#45;&gt;(5, 0) -->
<g id="edge3" class="edge">
<title>(4, 0)&#45;&gt;(5, 0)</title>
<path fill="none" stroke="blue" d="M23.83,-31C39.24,-30.93 223.24,-30.13 249.97,-30.01"/>
<polygon fill="blue" stroke="blue" points="252.25,-30 250.26,-31.14 251.25,-30.01 250.25,-30.01 250.25,-30.01 250.25,-30.01 251.25,-30.01 250.25,-28.89 252.25,-30 252.25,-30"/>
</g>
<!-- (6, 0) -->
<g id="node4" class="node">
<title>(6, 0)</title>
<ellipse fill="blue" stroke="blue" cx="21.8" cy="-16" rx="1.8" ry="1.8"/>
<text text-anchor="middle" x="10" y="-7.8" font-family="Courier,monospace" font-size="8.00">q[3]</text>
</g>
<!-- (7, 0) -->
<g id="node8" class="node">
<title>(7, 0)</title>
<ellipse fill="blue" stroke="blue" cx="254.2" cy="-15" rx="1.8" ry="1.8"/>
<text text-anchor="middle" x="242.4" y="-6.8" font-family="Courier,monospace" font-size="8.00">q[3]</text>
</g>
<!-- (6, 0)&#45;&gt;(7, 0) -->
<g id="edge4" class="edge">
<title>(6, 0)&#45;&gt;(7, 0)</title>
<path fill="none" stroke="blue" d="M23.83,-16C39.24,-15.93 223.24,-15.13 249.97,-15.01"/>
<polygon fill="blue" stroke="blue" points="252.25,-15 250.26,-16.14 251.25,-15.01 250.25,-15.01 250.25,-15.01 250.25,-15.01 251.25,-15.01 250.25,-13.89 252.25,-15 252.25,-15"/>
</g>
<!-- (1, 0) -->
<g id="node5" class="node">
<title>(1, 0)</title>
<ellipse fill="blue" stroke="blue" cx="254.2" cy="-60" rx="1.8" ry="1.8"/>
<text text-anchor="middle" x="242.4" y="-51.8" font-family="Courier,monospace" font-size="8.00">q[0]</text>
</g>
<!-- (3, 0) -->
<g id="node6" class="node">
<title>(3, 0)</title>
<ellipse fill="blue" stroke="blue" cx="254.2" cy="-45" rx="1.8" ry="1.8"/>
<text text-anchor="middle" x="242.4" y="-36.8" font-family="Courier,monospace" font-size="8.00">q[1]</text>
</g>
<!-- (8, 0) -->
<g id="node9" class="node">
<title>(8, 0)</title>
<ellipse fill="black" stroke="black" cx="142" cy="-57" rx="1.8" ry="1.8"/>
<text text-anchor="middle" x="137.7" y="-48.8" font-family="Helvetica,sans-Serif" font-size="8.00">0</text>
</g>
<!-- (8, 0)&#45;&gt;(1, 0) -->
<g id="edge5" class="edge">
<title>(8, 0)&#45;&gt;(1, 0)</title>
<path fill="none" stroke="blue" d="M143.78,-57.39C145.92,-58.48 152.08,-61.7 156.8,-65 162.49,-68.98 162.27,-72.64 168.8,-75 197.05,-85.23 208.33,-85.71 236.4,-75 242.81,-72.55 248.33,-66.41 251.16,-62.79"/>
<polygon fill="blue" stroke="blue" points="252.45,-61.08 252.15,-63.35 251.85,-61.88 251.25,-62.68 251.25,-62.68 251.25,-62.68 251.85,-61.88 250.35,-62 252.45,-61.08 252.45,-61.08"/>
</g>
<!-- (8, 1) -->
<g id="node10" class="node">
<title>(8, 1)</title>
<ellipse fill="black" stroke="black" cx="142" cy="-72" rx="1.8" ry="1.8"/>
<text text-anchor="middle" x="137.7" y="-63.8" font-family="Helvetica,sans-Serif" font-size="8.00">1</text>
</g>
<!-- (11, 0) -->
<g id="node13" class="node">
<title>(11, 0)</title>
<ellipse fill="black" stroke="black" cx="202.6" cy="-48" rx="1.8" ry="1.8"/>
</g>
<!-- (8, 1)&#45;&gt;(11, 0) -->
<g id="edge6" class="edge">
<title>(8, 1)&#45;&gt;(11, 0)</title>
<path fill="none" stroke="blue" d="M144.02,-71.58C150.69,-68.85 188.22,-53.48 198.82,-49.14"/>
<polygon fill="blue" stroke="blue" points="200.73,-48.36 199.31,-50.15 199.81,-48.73 198.88,-49.11 198.88,-49.11 198.88,-49.11 199.81,-48.73 198.45,-48.07 200.73,-48.36 200.73,-48.36"/>
</g>
<!-- (9, 0)&#45;&gt;(8, 1) -->
<g id="edge7" class="edge">
<title>(9, 0)&#45;&gt;(8, 1)</title>
<path fill="none" stroke="blue" d="M80.47,-80.84C87.48,-79.82 126.94,-74.05 138.07,-72.43"/>
<polygon fill="blue" stroke="blue" points="140.09,-72.13 138.27,-73.54 139.1,-72.28 138.11,-72.42 138.11,-72.42 138.11,-72.42 139.1,-72.28 137.95,-71.31 140.09,-72.13 140.09,-72.13"/>
</g>
<!-- (10, 0)&#45;&gt;(8, 0) -->
<g id="edge8" class="edge">
<title>(10, 0)&#45;&gt;(8, 0)</title>
<path fill="none" stroke="blue" d="M80.47,-48.16C87.48,-49.18 126.94,-54.95 138.07,-56.57"/>
<polygon fill="blue" stroke="blue" points="140.09,-56.87 137.95,-57.69 139.1,-56.72 138.11,-56.58 138.11,-56.58 138.11,-56.58 139.1,-56.72 138.27,-55.46 140.09,-56.87 140.09,-56.87"/>
</g>
<!-- (11, 0)&#45;&gt;(3, 0) -->
<g id="edge9" class="edge">
<title>(11, 0)&#45;&gt;(3, 0)</title>
<path fill="none" stroke="blue" d="M204.46,-47.95C209.96,-47.62 240.29,-45.78 250.12,-45.19"/>
<polygon fill="blue" stroke="blue" points="252.15,-45.06 250.22,-46.31 251.15,-45.12 250.16,-45.18 250.16,-45.18 250.16,-45.18 251.15,-45.12 250.09,-44.06 252.15,-45.06 252.15,-45.06"/>
</g>
</g>
</svg>
