<?xml version="1.0" encoding="UTF-8" standalone="no"?>
<!DOCTYPE svg PUBLIC "-//W3C//DTD SVG 1.1//EN"
 "http://www.w3.org/Graphics/SVG/1.1/DTD/svg11.dtd">
<!-- Generated by graphviz version 2.49.0 (20210828.1703)
 -->
<!-- Title: Qubit connectivity Pages: 1 -->
<svg width="360pt" height="456pt"
 viewBox="0.00 0.00 360.30 455.83" xmlns="http://www.w3.org/2000/svg" xmlns:xlink="http://www.w3.org/1999/xlink">
<g id="graph0" class="graph" transform="scale(1 1) rotate(0) translate(4 451.83)">
<title>Qubit connectivity</title>
<polygon fill="white" stroke="transparent" points="-4,4 -4,-451.83 356.3,-451.83 356.3,4 -4,4"/>
<!-- q[6] -->
<g id="node1" class="node">
<title>q[6]</title>
<ellipse fill="none" stroke="blue" cx="60.36" cy="-361.11" rx="24.27" ry="24.27"/>
<text text-anchor="middle" x="60.36" y="-358.61" font-family="Courier,monospace" font-size="10.00">q[6]</text>
</g>
<!-- q[7] -->
<g id="node2" class="node">
<title>q[7]</title>
<ellipse fill="none" stroke="blue" cx="24.14" cy="-423.69" rx="24.27" ry="24.27"/>
<text text-anchor="middle" x="24.14" y="-421.19" font-family="Courier,monospace" font-size="10.00">q[7]</text>
</g>
<!-- q[6]&#45;&#45;q[7] -->
<g id="edge1" class="edge">
<title>q[6]&#45;&#45;q[7]</title>
<path fill="none" stroke="black" d="M48.1,-382.3C44.32,-388.82 40.16,-396 36.39,-402.53"/>
</g>
<!-- q[5] -->
<g id="node3" class="node">
<title>q[5]</title>
<ellipse fill="none" stroke="blue" cx="107.83" cy="-306.59" rx="24.27" ry="24.27"/>
<text text-anchor="middle" x="107.83" y="-304.09" font-family="Courier,monospace" font-size="10.00">q[5]</text>
</g>
<!-- q[6]&#45;&#45;q[5] -->
<g id="edge2" class="edge">
<title>q[6]&#45;&#45;q[5]</title>
<path fill="none" stroke="black" d="M76.43,-342.65C81.38,-336.97 86.83,-330.71 91.77,-325.03"/>
</g>
<!-- q[4] -->
<g id="node4" class="node">
<title>q[4]</title>
<ellipse fill="none" stroke="blue" cx="162.69" cy="-259.43" rx="24.27" ry="24.27"/>
<text text-anchor="middle" x="162.69" y="-256.93" font-family="Courier,monospace" font-size="10.00">q[4]</text>
</g>
<!-- q[5]&#45;&#45;q[4] -->
<g id="edge3" class="edge">
<title>q[5]&#45;&#45;q[4]</title>
<path fill="none" stroke="black" d="M126.4,-290.62C132.12,-285.71 138.42,-280.3 144.14,-275.38"/>
</g>
<!-- q[3] -->
<g id="node5" class="node">
<title>q[3]</title>
<ellipse fill="none" stroke="blue" cx="212.19" cy="-206.7" rx="24.27" ry="24.27"/>
<text text-anchor="middle" x="212.19" y="-204.2" font-family="Courier,monospace" font-size="10.00">q[3]</text>
</g>
<!-- q[4]&#45;&#45;q[3] -->
<g id="edge4" class="edge">
<title>q[4]&#45;&#45;q[3]</title>
<path fill="none" stroke="black" d="M179.45,-241.58C184.61,-236.08 190.29,-230.03 195.45,-224.53"/>
</g>
<!-- q[2] -->
<g id="node6" class="node">
<title>q[2]</title>
<ellipse fill="none" stroke="blue" cx="252.58" cy="-146.69" rx="24.27" ry="24.27"/>
<text text-anchor="middle" x="252.58" y="-144.19" font-family="Courier,monospace" font-size="10.00">q[2]</text>
</g>
<!-- q[3]&#45;&#45;q[2] -->
<g id="edge5" class="edge">
<title>q[3]&#45;&#45;q[2]</title>
<path fill="none" stroke="black" d="M225.86,-186.38C230.07,-180.13 234.71,-173.24 238.92,-166.99"/>
</g>
<!-- q[1] -->
<g id="node7" class="node">
<title>q[1]</title>
<ellipse fill="none" stroke="blue" cx="285.57" cy="-82.34" rx="24.27" ry="24.27"/>
<text text-anchor="middle" x="285.57" y="-79.84" font-family="Courier,monospace" font-size="10.00">q[1]</text>
</g>
<!-- q[2]&#45;&#45;q[1] -->
<g id="edge6" class="edge">
<title>q[2]&#45;&#45;q[1]</title>
<path fill="none" stroke="black" d="M263.75,-124.91C267.19,-118.2 270.97,-110.81 274.41,-104.11"/>
</g>
<!-- q[0] -->
<g id="node8" class="node">
<title>q[0]</title>
<ellipse fill="none" stroke="blue" cx="328.16" cy="-24.14" rx="24.27" ry="24.27"/>
<text text-anchor="middle" x="328.16" y="-21.64" font-family="Courier,monospace" font-size="10.00">q[0]</text>
</g>
<!-- q[1]&#45;&#45;q[0] -->
<g id="edge7" class="edge">
<title>q[1]&#45;&#45;q[0]</title>
<path fill="none" stroke="black" d="M299.99,-62.64C304.43,-56.57 309.32,-49.89 313.76,-43.82"/>
</g>
</g>
</svg>
