<?xml version="1.0" encoding="UTF-8" standalone="no"?>
<!DOCTYPE svg PUBLIC "-//W3C//DTD SVG 1.1//EN"
 "http://www.w3.org/Graphics/SVG/1.1/DTD/svg11.dtd">
<!-- Generated by graphviz version 2.43.0 (0)
 -->
<!-- Title: Circuit Pages: 1 -->
<svg width="302pt" height="123pt"
 viewBox="0.00 0.00 302.00 123.00" xmlns="http://www.w3.org/2000/svg" xmlns:xlink="http://www.w3.org/1999/xlink">
<g id="graph0" class="graph" transform="scale(1 1) rotate(0) translate(4 119)">
<title>Circuit</title>
<polygon fill="white" stroke="transparent" points="-4,4 -4,-119 298,-119 298,4 -4,4"/>
<g id="clust1" class="cluster">
<title>cluster_q_inputs</title>
<path fill="lightgrey" stroke="lightgrey" d="M18.53,-9C18.53,-9 23.07,-9 23.07,-9 25.33,-9 27.6,-11.27 27.6,-13.53 27.6,-13.53 27.6,-63.47 27.6,-63.47 27.6,-65.73 25.33,-68 23.07,-68 23.07,-68 18.53,-68 18.53,-68 16.27,-68 14,-65.73 14,-63.47 14,-63.47 14,-13.53 14,-13.53 14,-11.27 16.27,-9 18.53,-9"/>
</g>
<g id="clust3" class="cluster">
<title>cluster_q_outputs</title>
<path fill="lightgrey" stroke="lightgrey" d="M276.93,-8C276.93,-8 281.47,-8 281.47,-8 283.73,-8 286,-10.27 286,-12.53 286,-12.53 286,-62.47 286,-62.47 286,-64.73 283.73,-67 281.47,-67 281.47,-67 276.93,-67 276.93,-67 274.67,-67 272.4,-64.73 272.4,-62.47 272.4,-62.47 272.4,-12.53 272.4,-12.53 272.4,-10.27 274.67,-8 276.93,-8"/>
</g>
<g id="clust5" class="cluster">
<title>cluster_8</title>
<path fill="lightblue" stroke="lightblue" d="M149.4,-50C149.4,-50 159.6,-50 159.6,-50 164.7,-50 169.8,-55.1 169.8,-60.2 169.8,-60.2 169.8,-87.8 169.8,-87.8 169.8,-92.9 164.7,-98 159.6,-98 159.6,-98 149.4,-98 149.4,-98 144.3,-98 139.2,-92.9 139.2,-87.8 139.2,-87.8 139.2,-60.2 139.2,-60.2 139.2,-55.1 144.3,-50 149.4,-50"/>
<text text-anchor="middle" x="154.5" y="-86" font-family="Times,serif" font-size="10.00">CX</text>
</g>
<g id="clust6" class="cluster">
<title>cluster_9</title>
<path fill="lightblue" stroke="lightblue" d="M50.6,-74C50.6,-74 116.2,-74 116.2,-74 121.7,-74 127.2,-79.5 127.2,-85 127.2,-85 127.2,-96 127.2,-96 127.2,-101.5 121.7,-107 116.2,-107 116.2,-107 50.6,-107 50.6,-107 45.1,-107 39.6,-101.5 39.6,-96 39.6,-96 39.6,-85 39.6,-85 39.6,-79.5 45.1,-74 50.6,-74"/>
<text text-anchor="middle" x="83.4" y="-95" font-family="Times,serif" font-size="10.00">tk1(0.5, 3.8, 1)</text>
</g>
<g id="clust7" class="cluster">
<title>cluster_10</title>
<path fill="lightblue" stroke="lightblue" d="M55.6,-41C55.6,-41 112.2,-41 112.2,-41 117.7,-41 123.2,-46.5 123.2,-52 123.2,-52 123.2,-63 123.2,-63 123.2,-68.5 117.7,-74 112.2,-74 112.2,-74 55.6,-74 55.6,-74 50.1,-74 44.6,-68.5 44.6,-63 44.6,-63 44.6,-52 44.6,-52 44.6,-46.5 50.1,-41 55.6,-41"/>
<text text-anchor="middle" x="83.9" y="-62" font-family="Times,serif" font-size="10.00">tk1(0, 0, 0.5)</text>
</g>
<g id="clust8" class="cluster">
<title>cluster_11</title>
<path fill="lightblue" stroke="lightblue" d="M192.8,-41C192.8,-41 249.4,-41 249.4,-41 254.9,-41 260.4,-46.5 260.4,-52 260.4,-52 260.4,-63 260.4,-63 260.4,-68.5 254.9,-74 249.4,-74 249.4,-74 192.8,-74 192.8,-74 187.3,-74 181.8,-68.5 181.8,-63 181.8,-63 181.8,-52 181.8,-52 181.8,-46.5 187.3,-41 192.8,-41"/>
<text text-anchor="middle" x="221.1" y="-62" font-family="Times,serif" font-size="10.00">tk1(0, 0, 0.5)</text>
</g>
<!-- (0, 0) -->
<g id="node1" class="node">
<title>(0, 0)</title>
<ellipse fill="blue" stroke="blue" cx="20.8" cy="-61" rx="1.8" ry="1.8"/>
<text text-anchor="middle" x="9.5" y="-52.8" font-family="Courier,monospace" font-size="8.00">q[0]</text>
</g>
<!-- (9, 0) -->
<g id="node11" class="node">
<title>(9, 0)</title>
<ellipse fill="black" stroke="black" cx="83.4" cy="-81" rx="1.8" ry="1.8"/>
</g>
<!-- (0, 0)&#45;&gt;(9, 0) -->
<g id="edge1" class="edge">
<title>(0, 0)&#45;&gt;(9, 0)</title>
<path fill="none" stroke="blue" d="M22.65,-61.95C25.03,-64.56 32.08,-71.79 39.6,-75 53.37,-80.87 71.67,-81.23 79.08,-81.11"/>
<polygon fill="blue" stroke="blue" points="81.29,-81.05 79.32,-82.23 80.29,-81.08 79.29,-81.1 79.29,-81.1 79.29,-81.1 80.29,-81.08 79.26,-79.98 81.29,-81.05 81.29,-81.05"/>
</g>
<!-- (2, 0) -->
<g id="node2" class="node">
<title>(2, 0)</title>
<ellipse fill="blue" stroke="blue" cx="20.8" cy="-46" rx="1.8" ry="1.8"/>
<text text-anchor="middle" x="9.5" y="-37.8" font-family="Courier,monospace" font-size="8.00">q[1]</text>
</g>
<!-- (10, 0) -->
<g id="node12" class="node">
<title>(10, 0)</title>
<ellipse fill="black" stroke="black" cx="83.4" cy="-48" rx="1.8" ry="1.8"/>
</g>
<!-- (2, 0)&#45;&gt;(10, 0) -->
<g id="edge2" class="edge">
<title>(2, 0)&#45;&gt;(10, 0)</title>
<path fill="none" stroke="blue" d="M22.85,-46.03C29.69,-46.26 67.91,-47.52 79.24,-47.9"/>
<polygon fill="blue" stroke="blue" points="81.5,-47.97 79.47,-49.03 80.5,-47.94 79.5,-47.9 79.5,-47.9 79.5,-47.9 80.5,-47.94 79.54,-46.78 81.5,-47.97 81.5,-47.97"/>
</g>
<!-- (4, 0) -->
<g id="node3" class="node">
<title>(4, 0)</title>
<ellipse fill="blue" stroke="blue" cx="20.8" cy="-31" rx="1.8" ry="1.8"/>
<text text-anchor="middle" x="9.5" y="-22.8" font-family="Courier,monospace" font-size="8.00">q[2]</text>
</g>
<!-- (5, 0) -->
<g id="node7" class="node">
<title>(5, 0)</title>
<ellipse fill="blue" stroke="blue" cx="279.2" cy="-30" rx="1.8" ry="1.8"/>
<text text-anchor="middle" x="267.9" y="-21.8" font-family="Courier,monospace" font-size="8.00">q[2]</text>
</g>
<!-- (4, 0)&#45;&gt;(5, 0) -->
<g id="edge3" class="edge">
<title>(4, 0)&#45;&gt;(5, 0)</title>
<path fill="none" stroke="blue" d="M22.94,-31C40.16,-30.93 246.53,-30.12 274.96,-30.01"/>
<polygon fill="blue" stroke="blue" points="277.14,-30 275.15,-31.14 276.14,-30.01 275.14,-30.01 275.14,-30.01 275.14,-30.01 276.14,-30.01 275.14,-28.89 277.14,-30 277.14,-30"/>
</g>
<!-- (6, 0) -->
<g id="node4" class="node">
<title>(6, 0)</title>
<ellipse fill="blue" stroke="blue" cx="20.8" cy="-16" rx="1.8" ry="1.8"/>
<text text-anchor="middle" x="9.5" y="-7.8" font-family="Courier,monospace" font-size="8.00">q[3]</text>
</g>
<!-- (7, 0) -->
<g id="node8" class="node">
<title>(7, 0)</title>
<ellipse fill="blue" stroke="blue" cx="279.2" cy="-15" rx="1.8" ry="1.8"/>
<text text-anchor="middle" x="267.9" y="-6.8" font-family="Courier,monospace" font-size="8.00">q[3]</text>
</g>
<!-- (6, 0)&#45;&gt;(7, 0) -->
<g id="edge4" class="edge">
<title>(6, 0)&#45;&gt;(7, 0)</title>
<path fill="none" stroke="blue" d="M22.94,-16C40.16,-15.93 246.53,-15.12 274.96,-15.01"/>
<polygon fill="blue" stroke="blue" points="277.14,-15 275.15,-16.14 276.14,-15.01 275.14,-15.01 275.14,-15.01 275.14,-15.01 276.14,-15.01 275.14,-13.89 277.14,-15 277.14,-15"/>
</g>
<!-- (1, 0) -->
<g id="node5" class="node">
<title>(1, 0)</title>
<ellipse fill="blue" stroke="blue" cx="279.2" cy="-60" rx="1.8" ry="1.8"/>
<text text-anchor="middle" x="267.9" y="-51.8" font-family="Courier,monospace" font-size="8.00">q[0]</text>
</g>
<!-- (3, 0) -->
<g id="node6" class="node">
<title>(3, 0)</title>
<ellipse fill="blue" stroke="blue" cx="279.2" cy="-45" rx="1.8" ry="1.8"/>
<text text-anchor="middle" x="267.9" y="-36.8" font-family="Courier,monospace" font-size="8.00">q[1]</text>
</g>
<!-- (8, 0) -->
<g id="node9" class="node">
<title>(8, 0)</title>
<ellipse fill="black" stroke="black" cx="154" cy="-57" rx="1.8" ry="1.8"/>
<text text-anchor="middle" x="149.2" y="-48.8" font-family="Helvetica,sans-Serif" font-size="8.00">0</text>
</g>
<!-- (8, 0)&#45;&gt;(1, 0) -->
<g id="edge5" class="edge">
<title>(8, 0)&#45;&gt;(1, 0)</title>
<path fill="none" stroke="blue" d="M155.84,-57.38C158.14,-58.44 164.77,-61.59 169.8,-65 175.55,-68.89 175.27,-72.64 181.8,-75 214.65,-86.89 227.59,-86.98 260.4,-75 267.06,-72.57 272.96,-66.42 276,-62.8"/>
<polygon fill="blue" stroke="blue" points="277.39,-61.08 277.01,-63.34 276.76,-61.86 276.13,-62.64 276.13,-62.64 276.13,-62.64 276.76,-61.86 275.26,-61.93 277.39,-61.08 277.39,-61.08"/>
</g>
<!-- (8, 1) -->
<g id="node10" class="node">
<title>(8, 1)</title>
<ellipse fill="black" stroke="black" cx="154" cy="-72" rx="1.8" ry="1.8"/>
<text text-anchor="middle" x="149.2" y="-63.8" font-family="Helvetica,sans-Serif" font-size="8.00">1</text>
</g>
<!-- (11, 0) -->
<g id="node13" class="node">
<title>(11, 0)</title>
<ellipse fill="black" stroke="black" cx="220.6" cy="-48" rx="1.8" ry="1.8"/>
</g>
<!-- (8, 1)&#45;&gt;(11, 0) -->
<g id="edge6" class="edge">
<title>(8, 1)&#45;&gt;(11, 0)</title>
<path fill="none" stroke="blue" d="M156.12,-71.58C163.47,-68.85 204.85,-53.48 216.53,-49.14"/>
<polygon fill="blue" stroke="blue" points="218.64,-48.36 217.16,-50.11 217.71,-48.7 216.77,-49.05 216.77,-49.05 216.77,-49.05 217.71,-48.7 216.38,-48 218.64,-48.36 218.64,-48.36"/>
</g>
<!-- (9, 0)&#45;&gt;(8, 1) -->
<g id="edge7" class="edge">
<title>(9, 0)&#45;&gt;(8, 1)</title>
<path fill="none" stroke="blue" d="M85.37,-80.87C92.52,-79.94 137.09,-74.09 149.69,-72.43"/>
<polygon fill="blue" stroke="blue" points="151.97,-72.14 150.13,-73.51 150.98,-72.27 149.98,-72.4 149.98,-72.4 149.98,-72.4 150.98,-72.27 149.84,-71.28 151.97,-72.14 151.97,-72.14"/>
</g>
<!-- (10, 0)&#45;&gt;(8, 0) -->
<g id="edge8" class="edge">
<title>(10, 0)&#45;&gt;(8, 0)</title>
<path fill="none" stroke="blue" d="M85.37,-48.13C92.52,-49.06 137.09,-54.91 149.69,-56.57"/>
<polygon fill="blue" stroke="blue" points="151.97,-56.86 149.84,-57.72 150.98,-56.73 149.98,-56.6 149.98,-56.6 149.98,-56.6 150.98,-56.73 150.13,-55.49 151.97,-56.86 151.97,-56.86"/>
</g>
<!-- (11, 0)&#45;&gt;(3, 0) -->
<g id="edge9" class="edge">
<title>(11, 0)&#45;&gt;(3, 0)</title>
<path fill="none" stroke="blue" d="M222.58,-47.95C228.97,-47.61 264.67,-45.72 275.25,-45.16"/>
<polygon fill="blue" stroke="blue" points="277.36,-45.04 275.42,-46.27 276.36,-45.1 275.36,-45.15 275.36,-45.15 275.36,-45.15 276.36,-45.1 275.3,-44.03 277.36,-45.04 277.36,-45.04"/>
</g>
</g>
</svg>
