<?xml version="1.0" encoding="UTF-8" standalone="no"?>
<!DOCTYPE svg PUBLIC "-//W3C//DTD SVG 1.1//EN"
 "http://www.w3.org/Graphics/SVG/1.1/DTD/svg11.dtd">
<!-- Generated by graphviz version 2.47.1 (20210417.1919)
 -->
<!-- Title: Qubit connectivity Pages: 1 -->
<svg width="407pt" height="239pt"
 viewBox="0.00 0.00 406.84 239.12" xmlns="http://www.w3.org/2000/svg" xmlns:xlink="http://www.w3.org/1999/xlink">
<g id="graph0" class="graph" transform="scale(1 1) rotate(0) translate(4 235.12)">
<title>Qubit connectivity</title>
<polygon fill="white" stroke="transparent" points="-4,4 -4,-235.12 402.84,-235.12 402.84,4 -4,4"/>
<!-- q[1] -->
<g id="node1" class="node">
<title>q[1]</title>
<ellipse fill="none" stroke="blue" cx="259.35" cy="-24.14" rx="24.27" ry="24.27"/>
<text text-anchor="middle" x="259.35" y="-21.64" font-family="Courier,monospace" font-size="10.00">q[1]</text>
</g>
<!-- q[0] -->
<g id="node2" class="node">
<title>q[0]</title>
<ellipse fill="none" stroke="blue" cx="236.93" cy="-101.54" rx="24.27" ry="24.27"/>
<text text-anchor="middle" x="236.93" y="-99.04" font-family="Courier,monospace" font-size="10.00">q[0]</text>
</g>
<!-- q[1]&#45;&#45;q[0] -->
<g id="edge1" class="edge">
<title>q[1]&#45;&#45;q[0]</title>
<path fill="none" stroke="black" d="M252.62,-47.36C249.79,-57.16 246.49,-68.54 243.65,-78.33"/>
</g>
<!-- q[2] -->
<g id="node3" class="node">
<title>q[2]</title>
<ellipse fill="none" stroke="blue" cx="305.45" cy="-141.06" rx="24.27" ry="24.27"/>
<text text-anchor="middle" x="305.45" y="-138.56" font-family="Courier,monospace" font-size="10.00">q[2]</text>
</g>
<!-- q[0]&#45;&#45;q[2] -->
<g id="edge2" class="edge">
<title>q[0]&#45;&#45;q[2]</title>
<path fill="none" stroke="black" d="M257.86,-113.61C266.21,-118.43 275.8,-123.96 284.18,-128.79"/>
</g>
<!-- q[4] -->
<g id="node4" class="node">
<title>q[4]</title>
<ellipse fill="none" stroke="blue" cx="159.66" cy="-129.67" rx="24.27" ry="24.27"/>
<text text-anchor="middle" x="159.66" y="-127.17" font-family="Courier,monospace" font-size="10.00">q[4]</text>
</g>
<!-- q[0]&#45;&#45;q[4] -->
<g id="edge3" class="edge">
<title>q[0]&#45;&#45;q[4]</title>
<path fill="none" stroke="black" d="M214.17,-109.83C204.19,-113.46 192.51,-117.71 182.53,-121.35"/>
</g>
<!-- q[3] -->
<g id="node5" class="node">
<title>q[3]</title>
<ellipse fill="none" stroke="blue" cx="374.7" cy="-168.16" rx="24.27" ry="24.27"/>
<text text-anchor="middle" x="374.7" y="-165.66" font-family="Courier,monospace" font-size="10.00">q[3]</text>
</g>
<!-- q[2]&#45;&#45;q[3] -->
<g id="edge4" class="edge">
<title>q[2]&#45;&#45;q[3]</title>
<path fill="none" stroke="black" d="M328.13,-149.93C335.86,-152.96 344.5,-156.34 352.21,-159.36"/>
</g>
<!-- q[6] -->
<g id="node7" class="node">
<title>q[6]</title>
<ellipse fill="none" stroke="blue" cx="91.09" cy="-90.3" rx="24.27" ry="24.27"/>
<text text-anchor="middle" x="91.09" y="-87.8" font-family="Courier,monospace" font-size="10.00">q[6]</text>
</g>
<!-- q[4]&#45;&#45;q[6] -->
<g id="edge6" class="edge">
<title>q[4]&#45;&#45;q[6]</title>
<path fill="none" stroke="black" d="M138.71,-117.65C130.37,-112.85 120.77,-107.34 112.38,-102.53"/>
</g>
<!-- q[5] -->
<g id="node6" class="node">
<title>q[5]</title>
<ellipse fill="none" stroke="blue" cx="136.92" cy="-206.98" rx="24.27" ry="24.27"/>
<text text-anchor="middle" x="136.92" y="-204.48" font-family="Courier,monospace" font-size="10.00">q[5]</text>
</g>
<!-- q[5]&#45;&#45;q[4] -->
<g id="edge5" class="edge">
<title>q[5]&#45;&#45;q[4]</title>
<path fill="none" stroke="black" d="M143.74,-183.79C146.62,-174 149.96,-162.64 152.84,-152.85"/>
</g>
<!-- q[7] -->
<g id="node8" class="node">
<title>q[7]</title>
<ellipse fill="none" stroke="blue" cx="24.14" cy="-57.89" rx="24.27" ry="24.27"/>
<text text-anchor="middle" x="24.14" y="-55.39" font-family="Courier,monospace" font-size="10.00">q[7]</text>
</g>
<!-- q[7]&#45;&#45;q[6] -->
<g id="edge7" class="edge">
<title>q[7]&#45;&#45;q[6]</title>
<path fill="none" stroke="black" d="M46.06,-68.5C53.53,-72.12 61.89,-76.16 69.35,-79.77"/>
</g>
</g>
</svg>
