<?xml version="1.0" encoding="UTF-8" standalone="no"?>
<!DOCTYPE svg PUBLIC "-//W3C//DTD SVG 1.1//EN"
 "http://www.w3.org/Graphics/SVG/1.1/DTD/svg11.dtd">
<!-- Generated by graphviz version 2.43.0 (0)
 -->
<!-- Title: Qubit connectivity Pages: 1 -->
<svg width="330pt" height="474pt"
 viewBox="0.00 0.00 329.87 473.66" xmlns="http://www.w3.org/2000/svg" xmlns:xlink="http://www.w3.org/1999/xlink">
<g id="graph0" class="graph" transform="scale(1 1) rotate(0) translate(4 469.66)">
<title>Qubit connectivity</title>
<polygon fill="white" stroke="transparent" points="-4,4 -4,-469.66 325.87,-469.66 325.87,4 -4,4"/>
<!-- q[7] -->
<g id="node1" class="node">
<title>q[7]</title>
<ellipse fill="none" stroke="blue" cx="24.14" cy="-441.52" rx="24.27" ry="24.27"/>
<text text-anchor="middle" x="24.14" y="-439.02" font-family="Courier,monospace" font-size="10.00">q[7]</text>
</g>
<!-- q[6] -->
<g id="node2" class="node">
<title>q[6]</title>
<ellipse fill="none" stroke="blue" cx="78.45" cy="-393.89" rx="24.27" ry="24.27"/>
<text text-anchor="middle" x="78.45" y="-391.39" font-family="Courier,monospace" font-size="10.00">q[6]</text>
</g>
<!-- q[7]&#45;&#45;q[6] -->
<g id="edge1" class="edge">
<title>q[7]&#45;&#45;q[6]</title>
<path fill="none" stroke="black" d="M42.52,-425.4C48.19,-420.43 54.42,-414.96 60.08,-410"/>
</g>
<!-- q[5] -->
<g id="node3" class="node">
<title>q[5]</title>
<ellipse fill="none" stroke="blue" cx="125.67" cy="-339.2" rx="24.27" ry="24.27"/>
<text text-anchor="middle" x="125.67" y="-336.7" font-family="Courier,monospace" font-size="10.00">q[5]</text>
</g>
<!-- q[6]&#45;&#45;q[5] -->
<g id="edge2" class="edge">
<title>q[6]&#45;&#45;q[5]</title>
<path fill="none" stroke="black" d="M94.44,-375.37C99.36,-369.67 104.78,-363.4 109.7,-357.7"/>
</g>
<!-- q[4] -->
<g id="node4" class="node">
<title>q[4]</title>
<ellipse fill="none" stroke="blue" cx="171.34" cy="-283.14" rx="24.27" ry="24.27"/>
<text text-anchor="middle" x="171.34" y="-280.64" font-family="Courier,monospace" font-size="10.00">q[4]</text>
</g>
<!-- q[5]&#45;&#45;q[4] -->
<g id="edge3" class="edge">
<title>q[5]&#45;&#45;q[4]</title>
<path fill="none" stroke="black" d="M141.13,-320.22C145.89,-314.38 151.13,-307.95 155.89,-302.1"/>
</g>
<!-- q[3] -->
<g id="node5" class="node">
<title>q[3]</title>
<ellipse fill="none" stroke="blue" cx="209.68" cy="-221.79" rx="24.27" ry="24.27"/>
<text text-anchor="middle" x="209.68" y="-219.29" font-family="Courier,monospace" font-size="10.00">q[3]</text>
</g>
<!-- q[4]&#45;&#45;q[3] -->
<g id="edge4" class="edge">
<title>q[4]&#45;&#45;q[3]</title>
<path fill="none" stroke="black" d="M184.32,-262.37C188.31,-255.97 192.71,-248.93 196.71,-242.54"/>
</g>
<!-- q[2] -->
<g id="node6" class="node">
<title>q[2]</title>
<ellipse fill="none" stroke="blue" cx="239.92" cy="-156.09" rx="24.27" ry="24.27"/>
<text text-anchor="middle" x="239.92" y="-153.59" font-family="Courier,monospace" font-size="10.00">q[2]</text>
</g>
<!-- q[3]&#45;&#45;q[2] -->
<g id="edge5" class="edge">
<title>q[3]&#45;&#45;q[2]</title>
<path fill="none" stroke="black" d="M219.92,-199.55C223.07,-192.7 226.54,-185.16 229.69,-178.31"/>
</g>
<!-- q[1] -->
<g id="node7" class="node">
<title>q[1]</title>
<ellipse fill="none" stroke="blue" cx="264.52" cy="-88.15" rx="24.27" ry="24.27"/>
<text text-anchor="middle" x="264.52" y="-85.65" font-family="Courier,monospace" font-size="10.00">q[1]</text>
</g>
<!-- q[2]&#45;&#45;q[1] -->
<g id="edge6" class="edge">
<title>q[2]&#45;&#45;q[1]</title>
<path fill="none" stroke="black" d="M248.25,-133.09C250.81,-126 253.64,-118.21 256.2,-111.13"/>
</g>
<!-- q[0] -->
<g id="node8" class="node">
<title>q[0]</title>
<ellipse fill="none" stroke="blue" cx="297.74" cy="-24.14" rx="24.27" ry="24.27"/>
<text text-anchor="middle" x="297.74" y="-21.64" font-family="Courier,monospace" font-size="10.00">q[0]</text>
</g>
<!-- q[1]&#45;&#45;q[0] -->
<g id="edge7" class="edge">
<title>q[1]&#45;&#45;q[0]</title>
<path fill="none" stroke="black" d="M275.77,-66.47C279.23,-59.8 283.04,-52.46 286.5,-45.78"/>
</g>
</g>
</svg>
