<?xml version="1.0" encoding="UTF-8" standalone="no"?>
<!DOCTYPE svg PUBLIC "-//W3C//DTD SVG 1.1//EN"
 "http://www.w3.org/Graphics/SVG/1.1/DTD/svg11.dtd">
<!-- Generated by graphviz version 2.44.1 (20200629.0846)
 -->
<!-- Title: Qubit connectivity Pages: 1 -->
<svg width="373pt" height="243pt"
 viewBox="0.00 0.00 372.91 243.02" xmlns="http://www.w3.org/2000/svg" xmlns:xlink="http://www.w3.org/1999/xlink">
<g id="graph0" class="graph" transform="scale(1 1) rotate(0) translate(4 239.02)">
<title>Qubit connectivity</title>
<polygon fill="white" stroke="transparent" points="-4,4 -4,-239.02 368.91,-239.02 368.91,4 -4,4"/>
<!-- q[0] -->
<g id="node1" class="node">
<title>q[0]</title>
<ellipse fill="none" stroke="blue" cx="214.98" cy="-137.88" rx="24.27" ry="24.27"/>
<text text-anchor="middle" x="214.98" y="-135.38" font-family="Courier,monospace" font-size="10.00">q[0]</text>
</g>
<!-- q[1] -->
<g id="node2" class="node">
<title>q[1]</title>
<ellipse fill="none" stroke="blue" cx="249.46" cy="-210.89" rx="24.27" ry="24.27"/>
<text text-anchor="middle" x="249.46" y="-208.39" font-family="Courier,monospace" font-size="10.00">q[1]</text>
</g>
<!-- q[0]&#45;&#45;q[1] -->
<g id="edge1" class="edge">
<title>q[0]&#45;&#45;q[1]</title>
<path fill="none" stroke="black" d="M225.32,-159.78C229.68,-169.02 234.75,-179.76 239.12,-189"/>
</g>
<!-- q[2] -->
<g id="node3" class="node">
<title>q[2]</title>
<ellipse fill="none" stroke="blue" cx="275.82" cy="-87.3" rx="24.27" ry="24.27"/>
<text text-anchor="middle" x="275.82" y="-84.8" font-family="Courier,monospace" font-size="10.00">q[2]</text>
</g>
<!-- q[0]&#45;&#45;q[2] -->
<g id="edge2" class="edge">
<title>q[0]&#45;&#45;q[2]</title>
<path fill="none" stroke="black" d="M233.56,-122.43C240.97,-116.27 249.49,-109.19 256.93,-103.01"/>
</g>
<!-- q[4] -->
<g id="node4" class="node">
<title>q[4]</title>
<ellipse fill="none" stroke="blue" cx="133.18" cy="-131.94" rx="24.27" ry="24.27"/>
<text text-anchor="middle" x="133.18" y="-129.44" font-family="Courier,monospace" font-size="10.00">q[4]</text>
</g>
<!-- q[0]&#45;&#45;q[4] -->
<g id="edge3" class="edge">
<title>q[0]&#45;&#45;q[4]</title>
<path fill="none" stroke="black" d="M190.88,-136.13C180.32,-135.36 167.96,-134.47 157.39,-133.7"/>
</g>
<!-- q[3] -->
<g id="node5" class="node">
<title>q[3]</title>
<ellipse fill="none" stroke="blue" cx="340.78" cy="-50.67" rx="24.27" ry="24.27"/>
<text text-anchor="middle" x="340.78" y="-48.17" font-family="Courier,monospace" font-size="10.00">q[3]</text>
</g>
<!-- q[2]&#45;&#45;q[3] -->
<g id="edge4" class="edge">
<title>q[2]&#45;&#45;q[3]</title>
<path fill="none" stroke="black" d="M297.09,-75.31C304.34,-71.22 312.44,-66.65 319.68,-62.57"/>
</g>
<!-- q[6] -->
<g id="node7" class="node">
<title>q[6]</title>
<ellipse fill="none" stroke="blue" cx="80.12" cy="-73.32" rx="24.27" ry="24.27"/>
<text text-anchor="middle" x="80.12" y="-70.82" font-family="Courier,monospace" font-size="10.00">q[6]</text>
</g>
<!-- q[4]&#45;&#45;q[6] -->
<g id="edge6" class="edge">
<title>q[4]&#45;&#45;q[6]</title>
<path fill="none" stroke="black" d="M116.98,-114.03C110.51,-106.9 103.09,-98.69 96.6,-91.52"/>
</g>
<!-- q[5] -->
<g id="node6" class="node">
<title>q[5]</title>
<ellipse fill="none" stroke="blue" cx="88.37" cy="-199.12" rx="24.27" ry="24.27"/>
<text text-anchor="middle" x="88.37" y="-196.62" font-family="Courier,monospace" font-size="10.00">q[5]</text>
</g>
<!-- q[5]&#45;&#45;q[4] -->
<g id="edge5" class="edge">
<title>q[5]&#45;&#45;q[4]</title>
<path fill="none" stroke="black" d="M101.81,-178.97C107.49,-170.46 114.08,-160.58 119.75,-152.08"/>
</g>
<!-- q[7] -->
<g id="node8" class="node">
<title>q[7]</title>
<ellipse fill="none" stroke="blue" cx="24.14" cy="-24.14" rx="24.27" ry="24.27"/>
<text text-anchor="middle" x="24.14" y="-21.64" font-family="Courier,monospace" font-size="10.00">q[7]</text>
</g>
<!-- q[7]&#45;&#45;q[6] -->
<g id="edge7" class="edge">
<title>q[7]&#45;&#45;q[6]</title>
<path fill="none" stroke="black" d="M42.47,-40.24C48.72,-45.73 55.7,-51.87 61.94,-57.35"/>
</g>
</g>
</svg>
