<svg width="626" height="230" viewBox="0 0 626 230" fill="none" xmlns="http://www.w3.org/2000/svg">
<path d="M334.465 25H447.916C448.258 25 448.578 25.1713 448.744 25.4703C449.966 27.6726 451.965 32.9652 451.965 40C451.965 47.0275 449.97 51.7464 448.747 53.6034C448.578 53.8611 448.285 54 447.976 54H387.388C386.578 54 386.104 54.9114 386.569 55.5741L415.667 97.0741C415.854 97.3411 416.159 97.5 416.485 97.5H438.09C438.332 97.5 438.57 97.5849 438.724 97.7722C440 99.3294 441.795 104.503 441.954 111.499C441.966 112.051 441.518 112.5 440.965 112.5H385.96C385.648 112.5 385.363 112.366 385.174 112.118C367.885 89.4244 331.378 38.6191 329.965 36.5C327.965 33.5 327.543 29.8439 328.465 28C329.465 26 331.965 25 334.465 25Z" fill="black"/>
<path d="M328.465 28C329.465 26 331.965 25 334.465 25H366.451C366.793 25 367.111 25.1746 367.295 25.4629L385.465 54L415.667 97.0741C415.854 97.3411 416.159 97.5 416.485 97.5H419.09C419.332 97.5 419.572 97.584 419.717 97.7779C420.887 99.3421 421.873 104.512 421.959 111.499C421.966 112.051 421.518 112.5 420.965 112.5H385.96C385.648 112.5 385.363 112.366 385.174 112.118C367.885 89.4244 331.378 38.6191 329.965 36.5C327.965 33.5 327.543 29.8439 328.465 28Z" fill="#FFFA3A" stroke="#FFFA3A" stroke-width="0.5"/>
<path d="M334.465 199.5H447.916C448.258 199.5 448.578 199.329 448.744 199.03C449.966 196.827 451.965 191.535 451.965 184.5C451.965 177.473 449.97 172.754 448.747 170.897C448.578 170.639 448.285 170.5 447.976 170.5H387.388C386.578 170.5 386.104 169.589 386.569 168.926L415.667 127.426C415.854 127.159 416.159 127 416.485 127H438.09C438.332 127 438.57 126.915 438.724 126.728C440 125.171 441.795 119.997 441.954 113.001C441.966 112.449 441.518 112 440.965 112H385.96C385.648 112 385.363 112.134 385.174 112.382C367.885 135.076 331.378 185.881 329.965 188C327.965 191 327.543 194.656 328.465 196.5C329.465 198.5 331.965 199.5 334.465 199.5Z" fill="black"/>
<path d="M209.5 24H183C181 24 176.8 25 176 29C175.2 33 178.667 39 180.5 41.5C196.913 62.5086 228.519 105.661 229.478 106.97C229.508 107.011 229.518 107.018 229.55 107.058C229.677 107.215 230 107.696 230 108.5C230 109.272 229.702 109.746 229.566 109.922C229.524 109.976 229.483 110.026 229.445 110.083C212.259 136.277 177.341 188.028 176.5 189.5C174.5 193 173.5 196.75 173.5 200C173.5 203.25 176.5 205 179.5 205H206.5C209.5 205 212.5 203 213.5 201.5L266.653 116.938C267.187 116.088 268.5 116.467 268.5 117.47V199.807C268.5 199.935 268.522 200.061 268.581 200.174C269.482 201.888 274.132 205 286.5 205C298.799 205 303.774 201.922 304.883 200.203C304.968 200.073 305 199.919 305 199.764V28.5092C305 28.1893 304.85 27.8866 304.577 27.7186C302.318 26.325 296.211 24 286.5 24C276.789 24 270.973 26.3248 268.888 27.7184C268.635 27.8872 268.5 28.1768 268.5 28.4806V102.277C268.5 103.259 267.236 103.659 266.68 102.849C249.004 77.1028 216.659 29.9316 215.5 28C214.055 25.5919 212 24 209.5 24Z" fill="black"/>
<path d="M268.5 28.4806V105.5V114V199.807C268.5 199.935 268.522 200.061 268.581 200.174C269.482 201.888 274.132 205 286.5 205C298.799 205 303.774 201.922 304.883 200.203C304.968 200.073 305 199.919 305 199.764V28.5092C305 28.1893 304.85 27.8866 304.577 27.7186C302.318 26.325 296.211 24 286.5 24C276.789 24 270.973 26.3248 268.888 27.7184C268.635 27.8872 268.5 28.1768 268.5 28.4806Z" fill="#FD3BF9" stroke="#FD3BF9" stroke-width="0.5"/>
<path d="M153.36 25H24.3757C24.1335 25 23.8966 25.0851 23.7316 25.2624C22.3396 26.758 20 31.2574 20 39.5C20 47.7156 22.3242 52.7934 23.7179 54.6522C23.8892 54.8808 24.1634 55 24.4491 55H69.5C70.0523 55 70.5 55.3521 70.5 55.9044V201C70.5 203 79 205.5 90 205.5C98.8 205.5 107 203 107 201V55.9044C107 55.3521 107.44 55 107.993 55H153C155.571 55 157 48.5 157 40C157 33.0036 154.967 27.3622 154.248 25.5853C154.102 25.2237 153.75 25 153.36 25Z" fill="black"/>
<path d="M602.36 25H473.376C473.134 25 472.897 25.0851 472.732 25.2624C471.34 26.758 469 31.2574 469 39.5C469 47.7156 471.324 52.7934 472.718 54.6522C472.889 54.8808 473.163 55 473.449 55H518.5C519.052 55 519.5 55.3521 519.5 55.9044V201C519.5 203 528 205.5 539 205.5C547.8 205.5 556 203 556 201V55.9044C556 55.3521 556.44 55 556.993 55H602C604.571 55 606 48.5 606 40C606 33.0036 603.967 27.3622 603.248 25.5853C603.102 25.2237 602.75 25 602.36 25Z" fill="black"/>
<path d="M328.465 196.5C329.465 198.5 331.965 199.5 334.465 199.5H366.451C366.793 199.5 367.111 199.325 367.295 199.037L385.465 170.5L415.667 127.426C415.854 127.159 416.159 127 416.485 127H419.09C419.332 127 419.572 126.916 419.717 126.722C420.887 125.158 421.873 119.988 421.959 113.001C421.966 112.449 421.518 112 420.965 112H385.96C385.648 112 385.363 112.134 385.174 112.382C367.885 135.076 331.378 185.881 329.965 188C327.965 191 327.543 194.656 328.465 196.5Z" fill="#1AFCFE" stroke="#1AFCFE" stroke-width="0.5"/>
</svg>
