<?xml version="1.0" encoding="UTF-8" standalone="no"?>
<!DOCTYPE svg PUBLIC "-//W3C//DTD SVG 1.1//EN"
 "http://www.w3.org/Graphics/SVG/1.1/DTD/svg11.dtd">
<!-- Generated by graphviz version 2.43.0 (0)
 -->
<!-- Title: G Pages: 1 -->
<svg width="989pt" height="811pt"
 viewBox="0.00 0.00 989.34 810.95" xmlns="http://www.w3.org/2000/svg" xmlns:xlink="http://www.w3.org/1999/xlink">
<g id="graph0" class="graph" transform="scale(1 1) rotate(0) translate(4 806.95)">
<title>G</title>
<polygon fill="white" stroke="transparent" points="-4,4 -4,-806.95 985.34,-806.95 985.34,4 -4,4"/>
<!-- 0 -->
<g id="node1" class="node">
<title>0</title>
<g id="a_node1"><a xlink:title="Q&#45;Input">
<ellipse fill="white" stroke="black" stroke-width="3" stroke-dasharray="5,2" cx="60.44" cy="-685.95" rx="46.29" ry="46.29"/>
<text text-anchor="middle" x="60.44" y="-682.25" font-family="Times,serif" font-size="14.00">Q&#45;Input</text>
</a>
</g>
<text text-anchor="start" x="4.3" y="-628.6" font-family="Times,serif" font-size="14.00" fill="grey">0</text>
</g>
<!-- 1 -->
<g id="node2" class="node">
<title>1</title>
<g id="a_node2"><a xlink:title="Q&#45;Input">
<ellipse fill="white" stroke="black" stroke-width="3" stroke-dasharray="5,2" cx="60.44" cy="-514.95" rx="46.29" ry="46.29"/>
<text text-anchor="middle" x="60.44" y="-511.25" font-family="Times,serif" font-size="14.00">Q&#45;Input</text>
</a>
</g>
<text text-anchor="start" x="4.3" y="-457.6" font-family="Times,serif" font-size="14.00" fill="grey">1</text>
</g>
<!-- 0&#45;&#45;1 -->
<!-- 8 -->
<g id="node9" class="node">
<title>8</title>
<g id="a_node9"><a xlink:title="Q&#45;Z(1.5)">
<ellipse fill="green" stroke="black" stroke-width="3" cx="182.24" cy="-685.95" rx="25.2" ry="25.2"/>
<text text-anchor="middle" x="182.24" y="-682.25" font-family="Times,serif" font-size="14.00">1.5</text>
</a>
</g>
<text text-anchor="start" x="146.89" y="-649.4" font-family="Times,serif" font-size="14.00" fill="grey">8</text>
</g>
<!-- 0&#45;&#45;8 -->
<g id="edge1" class="edge">
<title>0&#45;&#45;8</title>
<path fill="none" stroke="black" stroke-width="3" d="M106.73,-685.95C123.69,-685.95 142.32,-685.95 156.71,-685.95"/>
</g>
<!-- 2 -->
<g id="node3" class="node">
<title>2</title>
<g id="a_node3"><a xlink:title="Q&#45;Input">
<ellipse fill="white" stroke="black" stroke-width="3" stroke-dasharray="5,2" cx="60.44" cy="-404.95" rx="46.29" ry="46.29"/>
<text text-anchor="middle" x="60.44" y="-401.25" font-family="Times,serif" font-size="14.00">Q&#45;Input</text>
</a>
</g>
<text text-anchor="start" x="4.3" y="-347.6" font-family="Times,serif" font-size="14.00" fill="grey">2</text>
</g>
<!-- 1&#45;&#45;2 -->
<!-- 11 -->
<g id="node12" class="node">
<title>11</title>
<g id="a_node12"><a xlink:title="Q&#45;Z(0.5)">
<ellipse fill="green" stroke="black" stroke-width="3" cx="182.24" cy="-445.95" rx="25.2" ry="25.2"/>
<text text-anchor="middle" x="182.24" y="-442.25" font-family="Times,serif" font-size="14.00">0.5</text>
</a>
</g>
<text text-anchor="start" x="137.89" y="-409.4" font-family="Times,serif" font-size="14.00" fill="grey">11</text>
</g>
<!-- 1&#45;&#45;11 -->
<g id="edge3" class="edge">
<title>1&#45;&#45;11</title>
<path fill="none" stroke="black" stroke-width="3" d="M101,-492.16C120.63,-480.86 143.56,-467.65 159.87,-458.25"/>
</g>
<!-- 3 -->
<g id="node4" class="node">
<title>3</title>
<g id="a_node4"><a xlink:title="Q&#45;Input">
<ellipse fill="white" stroke="black" stroke-width="3" stroke-dasharray="5,2" cx="60.44" cy="-294.95" rx="46.29" ry="46.29"/>
<text text-anchor="middle" x="60.44" y="-291.25" font-family="Times,serif" font-size="14.00">Q&#45;Input</text>
</a>
</g>
<text text-anchor="start" x="4.3" y="-237.6" font-family="Times,serif" font-size="14.00" fill="grey">3</text>
</g>
<!-- 2&#45;&#45;3 -->
<!-- 23 -->
<g id="node24" class="node">
<title>23</title>
<g id="a_node24"><a xlink:title="Q&#45;Z(0.0)">
<ellipse fill="green" stroke="black" stroke-width="3" cx="274.78" cy="-317.95" rx="18" ry="18"/>
</a>
</g>
<text text-anchor="start" x="237.78" y="-288.75" font-family="Times,serif" font-size="14.00" fill="grey">23</text>
</g>
<!-- 2&#45;&#45;23 -->
<g id="edge21" class="edge">
<title>2&#45;&#45;23</title>
<path fill="none" stroke="black" stroke-width="3" d="M103.4,-387.76C150.77,-368.34 225.48,-337.74 257.9,-324.45"/>
</g>
<!-- 24 -->
<g id="node25" class="node">
<title>24</title>
<g id="a_node25"><a xlink:title="Q&#45;Z(0.0)">
<ellipse fill="green" stroke="black" stroke-width="3" cx="182.24" cy="-557.95" rx="18" ry="18"/>
</a>
</g>
<text text-anchor="start" x="145.24" y="-528.75" font-family="Times,serif" font-size="14.00" fill="grey">24</text>
</g>
<!-- 3&#45;&#45;24 -->
<g id="edge23" class="edge">
<title>3&#45;&#45;24</title>
<path fill="none" stroke="black" stroke-width="3" d="M97.57,-322.41C106.23,-330.47 114.74,-339.86 120.89,-349.95 152.08,-401.14 139.96,-422.43 156.89,-479.95 163.1,-501.04 170.72,-525.18 175.76,-540.95"/>
</g>
<!-- 4 -->
<g id="node5" class="node">
<title>4</title>
<g id="a_node5"><a xlink:title="Q&#45;Output">
<ellipse fill="white" stroke="black" stroke-width="3" stroke-dasharray="5,2" cx="408.92" cy="-538.95" rx="53.89" ry="53.89"/>
<text text-anchor="middle" x="408.92" y="-535.25" font-family="Times,serif" font-size="14.00">Q&#45;Output</text>
</a>
</g>
<text text-anchor="start" x="344.98" y="-473.8" font-family="Times,serif" font-size="14.00" fill="grey">4</text>
</g>
<!-- 5 -->
<g id="node6" class="node">
<title>5</title>
<g id="a_node6"><a xlink:title="Q&#45;Output">
<ellipse fill="white" stroke="black" stroke-width="3" stroke-dasharray="5,2" cx="408.92" cy="-374.95" rx="53.89" ry="53.89"/>
<text text-anchor="middle" x="408.92" y="-371.25" font-family="Times,serif" font-size="14.00">Q&#45;Output</text>
</a>
</g>
<text text-anchor="start" x="344.98" y="-309.8" font-family="Times,serif" font-size="14.00" fill="grey">5</text>
</g>
<!-- 4&#45;&#45;5 -->
<!-- 25 -->
<g id="node26" class="node">
<title>25</title>
<g id="a_node26"><a xlink:title="Q&#45;Z(0.0)">
<ellipse fill="green" stroke="black" stroke-width="3" cx="537.22" cy="-552.95" rx="18" ry="18"/>
</a>
</g>
<text text-anchor="start" x="500.22" y="-523.75" font-family="Times,serif" font-size="14.00" fill="grey">25</text>
</g>
<!-- 4&#45;&#45;25 -->
<g id="edge25" class="edge">
<title>4&#45;&#45;25</title>
<path fill="none" stroke="black" stroke-width="3" d="M462.75,-544.8C483.03,-547.05 504.77,-549.46 519.29,-551.07"/>
</g>
<!-- 6 -->
<g id="node7" class="node">
<title>6</title>
<g id="a_node7"><a xlink:title="Q&#45;Output">
<ellipse fill="white" stroke="black" stroke-width="3" stroke-dasharray="5,2" cx="408.92" cy="-194.95" rx="53.89" ry="53.89"/>
<text text-anchor="middle" x="408.92" y="-191.25" font-family="Times,serif" font-size="14.00">Q&#45;Output</text>
</a>
</g>
<text text-anchor="start" x="344.98" y="-129.8" font-family="Times,serif" font-size="14.00" fill="grey">6</text>
</g>
<!-- 5&#45;&#45;6 -->
<!-- 13 -->
<g id="node14" class="node">
<title>13</title>
<g id="a_node14"><a xlink:title="Q&#45;Z(0.0)">
<ellipse fill="green" stroke="black" stroke-width="3" cx="537.22" cy="-374.95" rx="18" ry="18"/>
</a>
</g>
<text text-anchor="start" x="500.22" y="-345.75" font-family="Times,serif" font-size="14.00" fill="grey">13</text>
</g>
<!-- 5&#45;&#45;13 -->
<g id="edge5" class="edge">
<title>5&#45;&#45;13</title>
<path fill="none" stroke="black" stroke-width="3" d="M463.12,-374.95C483.2,-374.95 504.67,-374.95 519.11,-374.95"/>
</g>
<!-- 7 -->
<g id="node8" class="node">
<title>7</title>
<g id="a_node8"><a xlink:title="Q&#45;Output">
<ellipse fill="white" stroke="black" stroke-width="3" stroke-dasharray="5,2" cx="408.92" cy="-68.95" rx="53.89" ry="53.89"/>
<text text-anchor="middle" x="408.92" y="-65.25" font-family="Times,serif" font-size="14.00">Q&#45;Output</text>
</a>
</g>
<text text-anchor="start" x="344.98" y="-3.8" font-family="Times,serif" font-size="14.00" fill="grey">7</text>
</g>
<!-- 6&#45;&#45;7 -->
<!-- 26 -->
<g id="node27" class="node">
<title>26</title>
<g id="a_node27"><a xlink:title="Q&#45;Z(0.0)">
<ellipse fill="green" stroke="black" stroke-width="3" cx="797.3" cy="-228.95" rx="18" ry="18"/>
</a>
</g>
<text text-anchor="start" x="760.3" y="-199.75" font-family="Times,serif" font-size="14.00" fill="grey">26</text>
</g>
<!-- 6&#45;&#45;26 -->
<g id="edge27" class="edge">
<title>6&#45;&#45;26</title>
<path fill="none" stroke="black" stroke-width="3" d="M462.84,-199.6C551.09,-207.37 724.07,-222.59 779.08,-227.43"/>
</g>
<!-- 27 -->
<g id="node28" class="node">
<title>27</title>
<g id="a_node28"><a xlink:title="Q&#45;Z(0.0)">
<ellipse fill="green" stroke="black" stroke-width="3" cx="963.34" cy="-186.95" rx="18" ry="18"/>
</a>
</g>
<text text-anchor="start" x="926.34" y="-157.75" font-family="Times,serif" font-size="14.00" fill="grey">27</text>
</g>
<!-- 7&#45;&#45;27 -->
<g id="edge29" class="edge">
<title>7&#45;&#45;27</title>
<path fill="none" stroke="black" stroke-width="3" d="M453.27,-100.09C494.73,-126.78 560.08,-160.95 622.91,-160.95 622.91,-160.95 622.91,-160.95 798.3,-160.95 852.8,-160.95 916.24,-175.12 945.72,-182.53"/>
</g>
<!-- 9 -->
<g id="node10" class="node">
<title>9</title>
<g id="a_node10"><a xlink:title="Q&#45;Z(0.5)">
<ellipse fill="green" stroke="black" stroke-width="3" cx="274.78" cy="-685.95" rx="25.2" ry="25.2"/>
<text text-anchor="middle" x="274.78" y="-682.25" font-family="Times,serif" font-size="14.00">0.5</text>
</a>
</g>
<text text-anchor="start" x="239.43" y="-649.4" font-family="Times,serif" font-size="14.00" fill="grey">9</text>
</g>
<!-- 8&#45;&#45;9 -->
<g id="edge2" class="edge">
<title>8&#45;&#45;9</title>
<path fill="none" stroke="blue" stroke-width="3" stroke-dasharray="5,2" d="M207.98,-685.95C220.86,-685.95 236.55,-685.95 249.38,-685.95"/>
</g>
<!-- 10 -->
<g id="node11" class="node">
<title>10</title>
<g id="a_node11"><a xlink:title="Q&#45;Z(0.25)">
<ellipse fill="green" stroke="black" stroke-width="3" cx="408.92" cy="-679.95" rx="31.4" ry="31.4"/>
<text text-anchor="middle" x="408.92" y="-676.25" font-family="Times,serif" font-size="14.00">0.25</text>
</a>
</g>
<text text-anchor="start" x="358.73" y="-637.55" font-family="Times,serif" font-size="14.00" fill="grey">10</text>
</g>
<!-- 9&#45;&#45;10 -->
<g id="edge12" class="edge">
<title>9&#45;&#45;10</title>
<path fill="none" stroke="blue" stroke-width="3" stroke-dasharray="5,2" d="M300.33,-684.83C322.12,-683.84 354.05,-682.39 377.47,-681.33"/>
</g>
<!-- 18 -->
<g id="node19" class="node">
<title>18</title>
<g id="a_node19"><a xlink:title="Q&#45;Z(0)">
<ellipse fill="green" stroke="black" stroke-width="3" cx="537.22" cy="-649.95" rx="18" ry="18"/>
</a>
</g>
<text text-anchor="start" x="500.22" y="-620.75" font-family="Times,serif" font-size="14.00" fill="grey">18</text>
</g>
<!-- 9&#45;&#45;18 -->
<g id="edge11" class="edge">
<title>9&#45;&#45;18</title>
<path fill="none" stroke="blue" stroke-width="3" stroke-dasharray="5,2" d="M296.24,-699.68C308.84,-707.29 325.65,-716 341.98,-719.95 399.82,-733.93 421.77,-744.73 475.87,-719.95 500.08,-708.85 518.27,-682.71 528.06,-665.7"/>
</g>
<!-- 10&#45;&#45;18 -->
<g id="edge19" class="edge">
<title>10&#45;&#45;18</title>
<path fill="none" stroke="blue" stroke-width="3" stroke-dasharray="5,2" d="M439.53,-672.91C464.47,-666.99 499.23,-658.73 519.56,-653.9"/>
</g>
<!-- 10&#45;&#45;25 -->
<g id="edge24" class="edge">
<title>10&#45;&#45;25</title>
<path fill="none" stroke="blue" stroke-width="3" stroke-dasharray="5,2" d="M431.63,-658.11C458.29,-631.31 502.59,-586.76 523.95,-565.28"/>
</g>
<!-- 12 -->
<g id="node13" class="node">
<title>12</title>
<g id="a_node13"><a xlink:title="Q&#45;Z(0.25)">
<ellipse fill="green" stroke="black" stroke-width="3" cx="274.78" cy="-445.95" rx="31.4" ry="31.4"/>
<text text-anchor="middle" x="274.78" y="-442.25" font-family="Times,serif" font-size="14.00">0.25</text>
</a>
</g>
<text text-anchor="start" x="224.58" y="-403.55" font-family="Times,serif" font-size="14.00" fill="grey">12</text>
</g>
<!-- 11&#45;&#45;12 -->
<g id="edge14" class="edge">
<title>11&#45;&#45;12</title>
<path fill="none" stroke="blue" stroke-width="3" stroke-dasharray="5,2" d="M207.98,-445.95C218.97,-445.95 232.02,-445.95 243.58,-445.95"/>
</g>
<!-- 14 -->
<g id="node15" class="node">
<title>14</title>
<g id="a_node15"><a xlink:title="Q&#45;Z(0)">
<ellipse fill="green" stroke="black" stroke-width="3" cx="408.92" cy="-284.95" rx="18" ry="18"/>
</a>
</g>
<text text-anchor="start" x="371.92" y="-255.75" font-family="Times,serif" font-size="14.00" fill="grey">14</text>
</g>
<!-- 11&#45;&#45;14 -->
<g id="edge13" class="edge">
<title>11&#45;&#45;14</title>
<path fill="none" stroke="blue" stroke-width="3" stroke-dasharray="5,2" d="M202.64,-430.51C227.06,-410.97 270.15,-376.07 305.98,-344.95 322.37,-330.71 323.65,-323.57 341.98,-311.95 357.65,-302.01 377.6,-294.44 391.43,-289.89"/>
</g>
<!-- 12&#45;&#45;13 -->
<g id="edge15" class="edge">
<title>12&#45;&#45;13</title>
<path fill="none" stroke="blue" stroke-width="3" stroke-dasharray="5,2" d="M305.5,-451.4C346.01,-457.41 419.93,-463.16 475.87,-437.95 498.37,-427.8 516.69,-405.03 527.02,-389.83"/>
</g>
<!-- 12&#45;&#45;14 -->
<g id="edge17" class="edge">
<title>12&#45;&#45;14</title>
<path fill="none" stroke="blue" stroke-width="3" stroke-dasharray="5,2" d="M291.51,-419.54C296.34,-411.13 301.54,-401.73 305.98,-392.95 323.75,-357.79 313.71,-339.39 341.98,-311.95 355.56,-298.76 376.46,-291.69 391.08,-288.14"/>
</g>
<!-- 17 -->
<g id="node18" class="node">
<title>17</title>
<g id="a_node18"><a xlink:title="Q&#45;Z(0.0)">
<ellipse fill="green" stroke="black" stroke-width="3" cx="710.61" cy="-284.95" rx="18" ry="18"/>
</a>
</g>
<text text-anchor="start" x="673.61" y="-255.75" font-family="Times,serif" font-size="14.00" fill="grey">17</text>
</g>
<!-- 13&#45;&#45;17 -->
<g id="edge4" class="edge">
<title>13&#45;&#45;17</title>
<path fill="none" stroke="blue" stroke-width="3" stroke-dasharray="5,2" d="M553.78,-367.38C575.36,-356.82 615.54,-336.93 649.26,-318.95 664.75,-310.68 682.2,-300.78 694.34,-293.81"/>
</g>
<!-- 15 -->
<g id="node16" class="node">
<title>15</title>
<g id="a_node16"><a xlink:title="Q&#45;Z(0.5)">
<ellipse fill="green" stroke="black" stroke-width="3" cx="537.22" cy="-284.95" rx="25.2" ry="25.2"/>
<text text-anchor="middle" x="537.22" y="-281.25" font-family="Times,serif" font-size="14.00">0.5</text>
</a>
</g>
<text text-anchor="start" x="492.87" y="-248.4" font-family="Times,serif" font-size="14.00" fill="grey">15</text>
</g>
<!-- 14&#45;&#45;15 -->
<g id="edge16" class="edge">
<title>14&#45;&#45;15</title>
<path fill="none" stroke="blue" stroke-width="3" stroke-dasharray="5,2" d="M426.96,-284.95C448.77,-284.95 486.73,-284.95 511.66,-284.95"/>
</g>
<!-- 16 -->
<g id="node17" class="node">
<title>16</title>
<g id="a_node17"><a xlink:title="Q&#45;Z(0.5)">
<ellipse fill="green" stroke="black" stroke-width="3" cx="623.91" cy="-284.95" rx="25.2" ry="25.2"/>
<text text-anchor="middle" x="623.91" y="-281.25" font-family="Times,serif" font-size="14.00">0.5</text>
</a>
</g>
<text text-anchor="start" x="579.56" y="-248.4" font-family="Times,serif" font-size="14.00" fill="grey">16</text>
</g>
<!-- 15&#45;&#45;16 -->
<g id="edge6" class="edge">
<title>15&#45;&#45;16</title>
<path fill="none" stroke="blue" stroke-width="3" stroke-dasharray="5,2" d="M562.71,-284.95C573.95,-284.95 587.24,-284.95 598.47,-284.95"/>
</g>
<!-- 16&#45;&#45;17 -->
<g id="edge7" class="edge">
<title>16&#45;&#45;17</title>
<path fill="none" stroke="blue" stroke-width="3" stroke-dasharray="5,2" d="M649.41,-284.95C663.19,-284.95 680.05,-284.95 692.42,-284.95"/>
</g>
<!-- 17&#45;&#45;26 -->
<g id="edge26" class="edge">
<title>17&#45;&#45;26</title>
<path fill="none" stroke="blue" stroke-width="3" stroke-dasharray="5,2" d="M725.97,-275.45C741.55,-265.15 766.26,-248.81 781.86,-238.49"/>
</g>
<!-- 19 -->
<g id="node20" class="node">
<title>19</title>
<g id="a_node20"><a xlink:title="Q&#45;Z(1.5)">
<ellipse fill="green" stroke="black" stroke-width="3" cx="623.91" cy="-514.95" rx="25.2" ry="25.2"/>
<text text-anchor="middle" x="623.91" y="-511.25" font-family="Times,serif" font-size="14.00">1.5</text>
</a>
</g>
<text text-anchor="start" x="579.56" y="-478.4" font-family="Times,serif" font-size="14.00" fill="grey">19</text>
</g>
<!-- 18&#45;&#45;19 -->
<g id="edge18" class="edge">
<title>18&#45;&#45;19</title>
<path fill="none" stroke="blue" stroke-width="3" stroke-dasharray="5,2" d="M547.6,-634.98C562.68,-610.95 592.33,-563.68 609.59,-536.18"/>
</g>
<!-- 20 -->
<g id="node21" class="node">
<title>20</title>
<g id="a_node21"><a xlink:title="Q&#45;Z(1.0)">
<ellipse fill="green" stroke="black" stroke-width="3" cx="710.61" cy="-367.95" rx="25.2" ry="25.2"/>
<text text-anchor="middle" x="710.61" y="-364.25" font-family="Times,serif" font-size="14.00">1.0</text>
</a>
</g>
<text text-anchor="start" x="666.26" y="-331.4" font-family="Times,serif" font-size="14.00" fill="grey">20</text>
</g>
<!-- 19&#45;&#45;20 -->
<g id="edge8" class="edge">
<title>19&#45;&#45;20</title>
<path fill="none" stroke="blue" stroke-width="3" stroke-dasharray="5,2" d="M637.41,-493.25C653.42,-465.46 681.02,-417.56 697.06,-389.72"/>
</g>
<!-- 21 -->
<g id="node22" class="node">
<title>21</title>
<g id="a_node22"><a xlink:title="Q&#45;Z(0.5)">
<ellipse fill="green" stroke="black" stroke-width="3" cx="797.3" cy="-300.95" rx="25.2" ry="25.2"/>
<text text-anchor="middle" x="797.3" y="-297.25" font-family="Times,serif" font-size="14.00">0.5</text>
</a>
</g>
<text text-anchor="start" x="752.95" y="-264.4" font-family="Times,serif" font-size="14.00" fill="grey">21</text>
</g>
<!-- 20&#45;&#45;21 -->
<g id="edge9" class="edge">
<title>20&#45;&#45;21</title>
<path fill="none" stroke="blue" stroke-width="3" stroke-dasharray="5,2" d="M731.25,-352.41C744.93,-341.58 763.11,-327.21 776.76,-316.4"/>
</g>
<!-- 22 -->
<g id="node23" class="node">
<title>22</title>
<g id="a_node23"><a xlink:title="Q&#45;Z(1.0)">
<ellipse fill="green" stroke="black" stroke-width="3" cx="884" cy="-240.95" rx="25.2" ry="25.2"/>
<text text-anchor="middle" x="884" y="-237.25" font-family="Times,serif" font-size="14.00">1.0</text>
</a>
</g>
<text text-anchor="start" x="839.65" y="-204.4" font-family="Times,serif" font-size="14.00" fill="grey">22</text>
</g>
<!-- 21&#45;&#45;22 -->
<g id="edge10" class="edge">
<title>21&#45;&#45;22</title>
<path fill="none" stroke="blue" stroke-width="3" stroke-dasharray="5,2" d="M818.37,-286.73C831.78,-277.23 849.34,-264.79 862.78,-255.27"/>
</g>
<!-- 22&#45;&#45;27 -->
<g id="edge28" class="edge">
<title>22&#45;&#45;27</title>
<path fill="none" stroke="blue" stroke-width="3" stroke-dasharray="5,2" d="M905.32,-226.76C918.75,-217.38 936.02,-205.33 948.02,-196.95"/>
</g>
<!-- 23&#45;&#45;14 -->
<g id="edge20" class="edge">
<title>23&#45;&#45;14</title>
<path fill="none" stroke="blue" stroke-width="3" stroke-dasharray="5,2" d="M292.52,-313.77C317.94,-307.42 365.99,-295.42 391.32,-289.09"/>
</g>
<!-- 24&#45;&#45;18 -->
<g id="edge22" class="edge">
<title>24&#45;&#45;18</title>
<path fill="none" stroke="blue" stroke-width="3" stroke-dasharray="5,2" d="M199.88,-562.72C228.74,-570.97 289.97,-588.31 341.98,-601.95 407.5,-619.12 485.9,-637.98 519.55,-645.99"/>
</g>
<!-- input_rank -->
<g id="node29" class="node">
<title>input_rank</title>
</g>
<!-- input_rank&#45;&#45;0 -->
<!-- output_rank -->
<g id="node30" class="node">
<title>output_rank</title>
</g>
<!-- input_rank&#45;&#45;output_rank -->
<!-- output_rank&#45;&#45;4 -->
</g>
</svg>
