<?xml version="1.0" encoding="UTF-8" standalone="no"?>
<!DOCTYPE svg PUBLIC "-//W3C//DTD SVG 1.1//EN"
 "http://www.w3.org/Graphics/SVG/1.1/DTD/svg11.dtd">
<!-- Generated by graphviz version 6.0.1 (20220911.1526)
 -->
<!-- Title: Qubit connectivity Pages: 1 -->
<svg width="407pt" height="239pt"
 viewBox="0.00 0.00 406.86 239.11" xmlns="http://www.w3.org/2000/svg" xmlns:xlink="http://www.w3.org/1999/xlink">
<g id="graph0" class="graph" transform="scale(1 1) rotate(0) translate(4 235.11)">
<title>Qubit connectivity</title>
<polygon fill="white" stroke="none" points="-4,4 -4,-235.11 402.86,-235.11 402.86,4 -4,4"/>
<!-- q[1] -->
<g id="node1" class="node">
<title>q[1]</title>
<ellipse fill="none" stroke="blue" cx="259.42" cy="-24.14" rx="24.27" ry="24.27"/>
<text text-anchor="middle" x="259.42" y="-21.64" font-family="Courier,monospace" font-size="10.00">q[1]</text>
</g>
<!-- q[0] -->
<g id="node2" class="node">
<title>q[0]</title>
<ellipse fill="none" stroke="blue" cx="236.99" cy="-101.54" rx="24.27" ry="24.27"/>
<text text-anchor="middle" x="236.99" y="-99.04" font-family="Courier,monospace" font-size="10.00">q[0]</text>
</g>
<!-- q[1]&#45;&#45;q[0] -->
<g id="edge1" class="edge">
<title>q[1]&#45;&#45;q[0]</title>
<path fill="none" stroke="black" d="M252.69,-47.36C249.86,-57.16 246.56,-68.54 243.72,-78.33"/>
</g>
<!-- q[2] -->
<g id="node3" class="node">
<title>q[2]</title>
<ellipse fill="none" stroke="blue" cx="305.51" cy="-141.06" rx="24.27" ry="24.27"/>
<text text-anchor="middle" x="305.51" y="-138.56" font-family="Courier,monospace" font-size="10.00">q[2]</text>
</g>
<!-- q[0]&#45;&#45;q[2] -->
<g id="edge2" class="edge">
<title>q[0]&#45;&#45;q[2]</title>
<path fill="none" stroke="black" d="M257.92,-113.61C266.27,-118.42 275.86,-123.96 284.24,-128.79"/>
</g>
<!-- q[4] -->
<g id="node4" class="node">
<title>q[4]</title>
<ellipse fill="none" stroke="blue" cx="159.72" cy="-129.67" rx="24.27" ry="24.27"/>
<text text-anchor="middle" x="159.72" y="-127.17" font-family="Courier,monospace" font-size="10.00">q[4]</text>
</g>
<!-- q[0]&#45;&#45;q[4] -->
<g id="edge3" class="edge">
<title>q[0]&#45;&#45;q[4]</title>
<path fill="none" stroke="black" d="M214.23,-109.83C204.26,-113.46 192.58,-117.71 182.59,-121.34"/>
</g>
<!-- q[3] -->
<g id="node5" class="node">
<title>q[3]</title>
<ellipse fill="none" stroke="blue" cx="374.72" cy="-168.26" rx="24.27" ry="24.27"/>
<text text-anchor="middle" x="374.72" y="-165.76" font-family="Courier,monospace" font-size="10.00">q[3]</text>
</g>
<!-- q[2]&#45;&#45;q[3] -->
<g id="edge4" class="edge">
<title>q[2]&#45;&#45;q[3]</title>
<path fill="none" stroke="black" d="M328.17,-149.97C335.9,-153 344.53,-156.4 352.24,-159.43"/>
</g>
<!-- q[6] -->
<g id="node7" class="node">
<title>q[6]</title>
<ellipse fill="none" stroke="blue" cx="91.16" cy="-90.28" rx="24.27" ry="24.27"/>
<text text-anchor="middle" x="91.16" y="-87.78" font-family="Courier,monospace" font-size="10.00">q[6]</text>
</g>
<!-- q[4]&#45;&#45;q[6] -->
<g id="edge6" class="edge">
<title>q[4]&#45;&#45;q[6]</title>
<path fill="none" stroke="black" d="M138.78,-117.64C130.43,-112.84 120.83,-107.33 112.45,-102.51"/>
</g>
<!-- q[5] -->
<g id="node6" class="node">
<title>q[5]</title>
<ellipse fill="none" stroke="blue" cx="136.98" cy="-206.98" rx="24.27" ry="24.27"/>
<text text-anchor="middle" x="136.98" y="-204.48" font-family="Courier,monospace" font-size="10.00">q[5]</text>
</g>
<!-- q[5]&#45;&#45;q[4] -->
<g id="edge5" class="edge">
<title>q[5]&#45;&#45;q[4]</title>
<path fill="none" stroke="black" d="M143.8,-183.78C146.68,-174 150.02,-162.63 152.9,-152.85"/>
</g>
<!-- q[7] -->
<g id="node8" class="node">
<title>q[7]</title>
<ellipse fill="none" stroke="blue" cx="24.14" cy="-58.01" rx="24.27" ry="24.27"/>
<text text-anchor="middle" x="24.14" y="-55.51" font-family="Courier,monospace" font-size="10.00">q[7]</text>
</g>
<!-- q[7]&#45;&#45;q[6] -->
<g id="edge7" class="edge">
<title>q[7]&#45;&#45;q[6]</title>
<path fill="none" stroke="black" d="M46.08,-68.58C53.56,-72.18 61.92,-76.21 69.39,-79.8"/>
</g>
</g>
</svg>
