<?xml version="1.0" encoding="UTF-8" standalone="no"?>
<!DOCTYPE svg PUBLIC "-//W3C//DTD SVG 1.1//EN"
 "http://www.w3.org/Graphics/SVG/1.1/DTD/svg11.dtd">
<!-- Generated by graphviz version 6.0.1 (20220911.1526)
 -->
<!-- Title: Qubit connectivity Pages: 1 -->
<svg width="373pt" height="243pt"
 viewBox="0.00 0.00 372.86 243.07" xmlns="http://www.w3.org/2000/svg" xmlns:xlink="http://www.w3.org/1999/xlink">
<g id="graph0" class="graph" transform="scale(1 1) rotate(0) translate(4 239.07)">
<title>Qubit connectivity</title>
<polygon fill="white" stroke="none" points="-4,4 -4,-239.07 368.86,-239.07 368.86,4 -4,4"/>
<!-- q[0] -->
<g id="node1" class="node">
<title>q[0]</title>
<ellipse fill="none" stroke="blue" cx="214.91" cy="-137.94" rx="24.27" ry="24.27"/>
<text text-anchor="middle" x="214.91" y="-135.44" font-family="Courier,monospace" font-size="10.00">q[0]</text>
</g>
<!-- q[1] -->
<g id="node2" class="node">
<title>q[1]</title>
<ellipse fill="none" stroke="blue" cx="249.41" cy="-210.93" rx="24.27" ry="24.27"/>
<text text-anchor="middle" x="249.41" y="-208.43" font-family="Courier,monospace" font-size="10.00">q[1]</text>
</g>
<!-- q[0]&#45;&#45;q[1] -->
<g id="edge1" class="edge">
<title>q[0]&#45;&#45;q[1]</title>
<path fill="none" stroke="black" d="M225.26,-159.84C229.63,-169.08 234.7,-179.81 239.07,-189.05"/>
</g>
<!-- q[2] -->
<g id="node3" class="node">
<title>q[2]</title>
<ellipse fill="none" stroke="blue" cx="275.73" cy="-87.33" rx="24.27" ry="24.27"/>
<text text-anchor="middle" x="275.73" y="-84.83" font-family="Courier,monospace" font-size="10.00">q[2]</text>
</g>
<!-- q[0]&#45;&#45;q[2] -->
<g id="edge2" class="edge">
<title>q[0]&#45;&#45;q[2]</title>
<path fill="none" stroke="black" d="M233.49,-122.48C240.89,-116.32 249.41,-109.23 256.85,-103.04"/>
</g>
<!-- q[4] -->
<g id="node4" class="node">
<title>q[4]</title>
<ellipse fill="none" stroke="blue" cx="133.12" cy="-132.02" rx="24.27" ry="24.27"/>
<text text-anchor="middle" x="133.12" y="-129.52" font-family="Courier,monospace" font-size="10.00">q[4]</text>
</g>
<!-- q[0]&#45;&#45;q[4] -->
<g id="edge3" class="edge">
<title>q[0]&#45;&#45;q[4]</title>
<path fill="none" stroke="black" d="M190.81,-136.2C180.26,-135.43 167.89,-134.54 157.32,-133.77"/>
</g>
<!-- q[5] -->
<g id="node6" class="node">
<title>q[5]</title>
<ellipse fill="none" stroke="blue" cx="88.32" cy="-199.22" rx="24.27" ry="24.27"/>
<text text-anchor="middle" x="88.32" y="-196.72" font-family="Courier,monospace" font-size="10.00">q[5]</text>
</g>
<!-- q[4]&#45;&#45;q[5] -->
<g id="edge5" class="edge">
<title>q[4]&#45;&#45;q[5]</title>
<path fill="none" stroke="black" d="M119.68,-152.18C114.01,-160.69 107.42,-170.57 101.75,-179.07"/>
</g>
<!-- q[6] -->
<g id="node7" class="node">
<title>q[6]</title>
<ellipse fill="none" stroke="blue" cx="80.01" cy="-73.45" rx="24.27" ry="24.27"/>
<text text-anchor="middle" x="80.01" y="-70.95" font-family="Courier,monospace" font-size="10.00">q[6]</text>
</g>
<!-- q[4]&#45;&#45;q[6] -->
<g id="edge6" class="edge">
<title>q[4]&#45;&#45;q[6]</title>
<path fill="none" stroke="black" d="M116.89,-114.13C110.43,-107 102.99,-98.8 96.5,-91.64"/>
</g>
<!-- q[3] -->
<g id="node5" class="node">
<title>q[3]</title>
<ellipse fill="none" stroke="blue" cx="340.72" cy="-50.76" rx="24.27" ry="24.27"/>
<text text-anchor="middle" x="340.72" y="-48.26" font-family="Courier,monospace" font-size="10.00">q[3]</text>
</g>
<!-- q[3]&#45;&#45;q[2] -->
<g id="edge4" class="edge">
<title>q[3]&#45;&#45;q[2]</title>
<path fill="none" stroke="black" d="M319.44,-62.74C312.19,-66.82 304.08,-71.38 296.84,-75.45"/>
</g>
<!-- q[7] -->
<g id="node8" class="node">
<title>q[7]</title>
<ellipse fill="none" stroke="blue" cx="24.14" cy="-24.14" rx="24.27" ry="24.27"/>
<text text-anchor="middle" x="24.14" y="-21.64" font-family="Courier,monospace" font-size="10.00">q[7]</text>
</g>
<!-- q[6]&#45;&#45;q[7] -->
<g id="edge7" class="edge">
<title>q[6]&#45;&#45;q[7]</title>
<path fill="none" stroke="black" d="M61.71,-57.3C55.48,-51.8 48.51,-45.65 42.28,-40.15"/>
</g>
</g>
</svg>
