<?xml version="1.0" encoding="UTF-8" standalone="no"?>
<!DOCTYPE svg PUBLIC "-//W3C//DTD SVG 1.1//EN"
 "http://www.w3.org/Graphics/SVG/1.1/DTD/svg11.dtd">
<!-- Generated by graphviz version 2.43.0 (0)
 -->
<!-- Title: Circuit Pages: 1 -->
<svg width="310pt" height="123pt"
 viewBox="0.00 0.00 310.00 123.00" xmlns="http://www.w3.org/2000/svg" xmlns:xlink="http://www.w3.org/1999/xlink">
<g id="graph0" class="graph" transform="scale(1 1) rotate(0) translate(4 119)">
<title>Circuit</title>
<polygon fill="white" stroke="transparent" points="-4,4 -4,-119 306,-119 306,4 -4,4"/>
<g id="clust1" class="cluster">
<title>cluster_q_inputs</title>
<path fill="lightgrey" stroke="lightgrey" d="M18.53,-9C18.53,-9 23.07,-9 23.07,-9 25.33,-9 27.6,-11.27 27.6,-13.53 27.6,-13.53 27.6,-63.47 27.6,-63.47 27.6,-65.73 25.33,-68 23.07,-68 23.07,-68 18.53,-68 18.53,-68 16.27,-68 14,-65.73 14,-63.47 14,-63.47 14,-13.53 14,-13.53 14,-11.27 16.27,-9 18.53,-9"/>
</g>
<g id="clust3" class="cluster">
<title>cluster_q_outputs</title>
<path fill="lightgrey" stroke="lightgrey" d="M284.93,-8C284.93,-8 289.47,-8 289.47,-8 291.73,-8 294,-10.27 294,-12.53 294,-12.53 294,-62.47 294,-62.47 294,-64.73 291.73,-67 289.47,-67 289.47,-67 284.93,-67 284.93,-67 282.67,-67 280.4,-64.73 280.4,-62.47 280.4,-62.47 280.4,-12.53 280.4,-12.53 280.4,-10.27 282.67,-8 284.93,-8"/>
</g>
<g id="clust5" class="cluster">
<title>cluster_8</title>
<path fill="lightblue" stroke="lightblue" d="M153.4,-50C153.4,-50 163.6,-50 163.6,-50 168.7,-50 173.8,-55.1 173.8,-60.2 173.8,-60.2 173.8,-87.8 173.8,-87.8 173.8,-92.9 168.7,-98 163.6,-98 163.6,-98 153.4,-98 153.4,-98 148.3,-98 143.2,-92.9 143.2,-87.8 143.2,-87.8 143.2,-60.2 143.2,-60.2 143.2,-55.1 148.3,-50 153.4,-50"/>
<text text-anchor="middle" x="158.5" y="-86" font-family="Times,serif" font-size="10.00">CX</text>
</g>
<g id="clust6" class="cluster">
<title>cluster_9</title>
<path fill="lightblue" stroke="lightblue" d="M50.6,-74C50.6,-74 120.2,-74 120.2,-74 125.7,-74 131.2,-79.5 131.2,-85 131.2,-85 131.2,-96 131.2,-96 131.2,-101.5 125.7,-107 120.2,-107 120.2,-107 50.6,-107 50.6,-107 45.1,-107 39.6,-101.5 39.6,-96 39.6,-96 39.6,-85 39.6,-85 39.6,-79.5 45.1,-74 50.6,-74"/>
<text text-anchor="middle" x="85.4" y="-95" font-family="Times,serif" font-size="10.00">TK1(0.5, 1.8, 3)</text>
</g>
<g id="clust7" class="cluster">
<title>cluster_10</title>
<path fill="lightblue" stroke="lightblue" d="M55.6,-41C55.6,-41 116.2,-41 116.2,-41 121.7,-41 127.2,-46.5 127.2,-52 127.2,-52 127.2,-63 127.2,-63 127.2,-68.5 121.7,-74 116.2,-74 116.2,-74 55.6,-74 55.6,-74 50.1,-74 44.6,-68.5 44.6,-63 44.6,-63 44.6,-52 44.6,-52 44.6,-46.5 50.1,-41 55.6,-41"/>
<text text-anchor="middle" x="85.9" y="-62" font-family="Times,serif" font-size="10.00">TK1(0, 0, 0.5)</text>
</g>
<g id="clust8" class="cluster">
<title>cluster_11</title>
<path fill="lightblue" stroke="lightblue" d="M196.8,-41C196.8,-41 257.4,-41 257.4,-41 262.9,-41 268.4,-46.5 268.4,-52 268.4,-52 268.4,-63 268.4,-63 268.4,-68.5 262.9,-74 257.4,-74 257.4,-74 196.8,-74 196.8,-74 191.3,-74 185.8,-68.5 185.8,-63 185.8,-63 185.8,-52 185.8,-52 185.8,-46.5 191.3,-41 196.8,-41"/>
<text text-anchor="middle" x="227.1" y="-62" font-family="Times,serif" font-size="10.00">TK1(0, 0, 0.5)</text>
</g>
<!-- (0, 0) -->
<g id="node1" class="node">
<title>(0, 0)</title>
<ellipse fill="blue" stroke="blue" cx="20.8" cy="-61" rx="1.8" ry="1.8"/>
<text text-anchor="middle" x="9.5" y="-52.8" font-family="Courier,monospace" font-size="8.00">q[0]</text>
</g>
<!-- (9, 0) -->
<g id="node11" class="node">
<title>(9, 0)</title>
<ellipse fill="black" stroke="black" cx="85.4" cy="-81" rx="1.8" ry="1.8"/>
</g>
<!-- (0, 0)&#45;&gt;(9, 0) -->
<g id="edge1" class="edge">
<title>(0, 0)&#45;&gt;(9, 0)</title>
<path fill="none" stroke="blue" d="M22.65,-61.96C25.02,-64.56 32.07,-71.82 39.6,-75 54.02,-81.09 73.17,-81.33 80.92,-81.14"/>
<polygon fill="blue" stroke="blue" points="83.23,-81.06 81.27,-82.26 82.23,-81.1 81.24,-81.13 81.24,-81.13 81.24,-81.13 82.23,-81.1 81.2,-80.01 83.23,-81.06 83.23,-81.06"/>
</g>
<!-- (2, 0) -->
<g id="node2" class="node">
<title>(2, 0)</title>
<ellipse fill="blue" stroke="blue" cx="20.8" cy="-46" rx="1.8" ry="1.8"/>
<text text-anchor="middle" x="9.5" y="-37.8" font-family="Courier,monospace" font-size="8.00">q[1]</text>
</g>
<!-- (10, 0) -->
<g id="node12" class="node">
<title>(10, 0)</title>
<ellipse fill="black" stroke="black" cx="85.4" cy="-48" rx="1.8" ry="1.8"/>
</g>
<!-- (2, 0)&#45;&gt;(10, 0) -->
<g id="edge2" class="edge">
<title>(2, 0)&#45;&gt;(10, 0)</title>
<path fill="none" stroke="blue" d="M22.89,-46.03C30.01,-46.26 70.11,-47.54 81.43,-47.9"/>
<polygon fill="blue" stroke="blue" points="83.47,-47.97 81.44,-49.03 82.47,-47.94 81.47,-47.91 81.47,-47.91 81.47,-47.91 82.47,-47.94 81.51,-46.78 83.47,-47.97 83.47,-47.97"/>
</g>
<!-- (4, 0) -->
<g id="node3" class="node">
<title>(4, 0)</title>
<ellipse fill="blue" stroke="blue" cx="20.8" cy="-31" rx="1.8" ry="1.8"/>
<text text-anchor="middle" x="9.5" y="-22.8" font-family="Courier,monospace" font-size="8.00">q[2]</text>
</g>
<!-- (5, 0) -->
<g id="node7" class="node">
<title>(5, 0)</title>
<ellipse fill="blue" stroke="blue" cx="287.2" cy="-30" rx="1.8" ry="1.8"/>
<text text-anchor="middle" x="275.9" y="-21.8" font-family="Courier,monospace" font-size="8.00">q[2]</text>
</g>
<!-- (4, 0)&#45;&gt;(5, 0) -->
<g id="edge3" class="edge">
<title>(4, 0)&#45;&gt;(5, 0)</title>
<path fill="none" stroke="blue" d="M22.76,-31C38.87,-30.94 253.28,-30.12 282.83,-30.01"/>
<polygon fill="blue" stroke="blue" points="285.1,-30 283.11,-31.14 284.1,-30.01 283.1,-30.01 283.1,-30.01 283.1,-30.01 284.1,-30.01 283.1,-28.89 285.1,-30 285.1,-30"/>
</g>
<!-- (6, 0) -->
<g id="node4" class="node">
<title>(6, 0)</title>
<ellipse fill="blue" stroke="blue" cx="20.8" cy="-16" rx="1.8" ry="1.8"/>
<text text-anchor="middle" x="9.5" y="-7.8" font-family="Courier,monospace" font-size="8.00">q[3]</text>
</g>
<!-- (7, 0) -->
<g id="node8" class="node">
<title>(7, 0)</title>
<ellipse fill="blue" stroke="blue" cx="287.2" cy="-15" rx="1.8" ry="1.8"/>
<text text-anchor="middle" x="275.9" y="-6.8" font-family="Courier,monospace" font-size="8.00">q[3]</text>
</g>
<!-- (6, 0)&#45;&gt;(7, 0) -->
<g id="edge4" class="edge">
<title>(6, 0)&#45;&gt;(7, 0)</title>
<path fill="none" stroke="blue" d="M22.76,-16C38.87,-15.94 253.28,-15.12 282.83,-15.01"/>
<polygon fill="blue" stroke="blue" points="285.1,-15 283.11,-16.14 284.1,-15.01 283.1,-15.01 283.1,-15.01 283.1,-15.01 284.1,-15.01 283.1,-13.89 285.1,-15 285.1,-15"/>
</g>
<!-- (1, 0) -->
<g id="node5" class="node">
<title>(1, 0)</title>
<ellipse fill="blue" stroke="blue" cx="287.2" cy="-60" rx="1.8" ry="1.8"/>
<text text-anchor="middle" x="275.9" y="-51.8" font-family="Courier,monospace" font-size="8.00">q[0]</text>
</g>
<!-- (3, 0) -->
<g id="node6" class="node">
<title>(3, 0)</title>
<ellipse fill="blue" stroke="blue" cx="287.2" cy="-45" rx="1.8" ry="1.8"/>
<text text-anchor="middle" x="275.9" y="-36.8" font-family="Courier,monospace" font-size="8.00">q[1]</text>
</g>
<!-- (8, 0) -->
<g id="node9" class="node">
<title>(8, 0)</title>
<ellipse fill="black" stroke="black" cx="158" cy="-57" rx="1.8" ry="1.8"/>
<text text-anchor="middle" x="153.2" y="-48.8" font-family="Helvetica,sans-Serif" font-size="8.00">0</text>
</g>
<!-- (8, 0)&#45;&gt;(1, 0) -->
<g id="edge5" class="edge">
<title>(8, 0)&#45;&gt;(1, 0)</title>
<path fill="none" stroke="blue" d="M159.84,-57.38C162.14,-58.44 168.77,-61.59 173.8,-65 179.55,-68.89 179.27,-72.64 185.8,-75 220.32,-87.5 233.92,-87.59 268.4,-75 275.06,-72.57 280.96,-66.42 284,-62.8"/>
<polygon fill="blue" stroke="blue" points="285.39,-61.08 285.01,-63.34 284.76,-61.86 284.13,-62.64 284.13,-62.64 284.13,-62.64 284.76,-61.86 283.26,-61.93 285.39,-61.08 285.39,-61.08"/>
</g>
<!-- (8, 1) -->
<g id="node10" class="node">
<title>(8, 1)</title>
<ellipse fill="black" stroke="black" cx="158" cy="-72" rx="1.8" ry="1.8"/>
<text text-anchor="middle" x="153.2" y="-63.8" font-family="Helvetica,sans-Serif" font-size="8.00">1</text>
</g>
<!-- (11, 0) -->
<g id="node13" class="node">
<title>(11, 0)</title>
<ellipse fill="black" stroke="black" cx="226.6" cy="-48" rx="1.8" ry="1.8"/>
</g>
<!-- (8, 1)&#45;&gt;(11, 0) -->
<g id="edge6" class="edge">
<title>(8, 1)&#45;&gt;(11, 0)</title>
<path fill="none" stroke="blue" d="M160.16,-71.58C167.74,-68.85 210.39,-53.48 222.44,-49.14"/>
<polygon fill="blue" stroke="blue" points="224.61,-48.36 223.11,-50.09 223.67,-48.69 222.73,-49.03 222.73,-49.03 222.73,-49.03 223.67,-48.69 222.35,-47.98 224.61,-48.36 224.61,-48.36"/>
</g>
<!-- (9, 0)&#45;&gt;(8, 1) -->
<g id="edge7" class="edge">
<title>(9, 0)&#45;&gt;(8, 1)</title>
<path fill="none" stroke="blue" d="M87.4,-80.87C94.81,-79.93 141.4,-73.99 153.91,-72.39"/>
<polygon fill="blue" stroke="blue" points="155.94,-72.14 154.1,-73.5 154.94,-72.26 153.95,-72.39 153.95,-72.39 153.95,-72.39 154.94,-72.26 153.81,-71.27 155.94,-72.14 155.94,-72.14"/>
</g>
<!-- (10, 0)&#45;&gt;(8, 0) -->
<g id="edge8" class="edge">
<title>(10, 0)&#45;&gt;(8, 0)</title>
<path fill="none" stroke="blue" d="M87.4,-48.13C94.81,-49.07 141.4,-55.01 153.91,-56.61"/>
<polygon fill="blue" stroke="blue" points="155.94,-56.86 153.81,-57.73 154.94,-56.74 153.95,-56.61 153.95,-56.61 153.95,-56.61 154.94,-56.74 154.1,-55.5 155.94,-56.86 155.94,-56.86"/>
</g>
<!-- (11, 0)&#45;&gt;(3, 0) -->
<g id="edge9" class="edge">
<title>(11, 0)&#45;&gt;(3, 0)</title>
<path fill="none" stroke="blue" d="M228.62,-47.95C235.23,-47.61 272.19,-45.72 283.14,-45.16"/>
<polygon fill="blue" stroke="blue" points="285.33,-45.04 283.39,-46.27 284.33,-45.1 283.33,-45.15 283.33,-45.15 283.33,-45.15 284.33,-45.1 283.28,-44.02 285.33,-45.04 285.33,-45.04"/>
</g>
</g>
</svg>
