<?xml version="1.0" encoding="UTF-8" standalone="no"?>
<!DOCTYPE svg PUBLIC "-//W3C//DTD SVG 1.1//EN"
 "http://www.w3.org/Graphics/SVG/1.1/DTD/svg11.dtd">
<!-- Generated by graphviz version 6.0.1 (20220911.1526)
 -->
<!-- Title: Circuit Pages: 1 -->
<svg width="254pt" height="113pt"
 viewBox="0.00 0.00 253.60 113.00" xmlns="http://www.w3.org/2000/svg" xmlns:xlink="http://www.w3.org/1999/xlink">
<g id="graph0" class="graph" transform="scale(1 1) rotate(0) translate(4 109)">
<title>Circuit</title>
<polygon fill="white" stroke="none" points="-4,4 -4,-109 249.6,-109 249.6,4 -4,4"/>
<g id="clust1" class="cluster">
<title>cluster_q_inputs</title>
<path fill="lightgrey" stroke="lightgrey" d="M18.53,-9C18.53,-9 23.07,-9 23.07,-9 25.33,-9 27.6,-11.27 27.6,-13.53 27.6,-13.53 27.6,-63.47 27.6,-63.47 27.6,-65.73 25.33,-68 23.07,-68 23.07,-68 18.53,-68 18.53,-68 16.27,-68 14,-65.73 14,-63.47 14,-63.47 14,-13.53 14,-13.53 14,-11.27 16.27,-9 18.53,-9"/>
</g>
<g id="clust4" class="cluster">
<title>cluster_q_outputs</title>
<path fill="lightgrey" stroke="lightgrey" d="M228.53,-8C228.53,-8 233.07,-8 233.07,-8 235.33,-8 237.6,-10.27 237.6,-12.53 237.6,-12.53 237.6,-62.47 237.6,-62.47 237.6,-64.73 235.33,-67 233.07,-67 233.07,-67 228.53,-67 228.53,-67 226.27,-67 224,-64.73 224,-62.47 224,-62.47 224,-12.53 224,-12.53 224,-10.27 226.27,-8 228.53,-8"/>
</g>
<g id="clust7" class="cluster">
<title>cluster_8</title>
<path fill="lightblue" stroke="lightblue" d="M49.8,-42C49.8,-42 60,-42 60,-42 65.1,-42 70.2,-47.1 70.2,-52.2 70.2,-52.2 70.2,-79.8 70.2,-79.8 70.2,-84.9 65.1,-90 60,-90 60,-90 49.8,-90 49.8,-90 44.7,-90 39.6,-84.9 39.6,-79.8 39.6,-79.8 39.6,-52.2 39.6,-52.2 39.6,-47.1 44.7,-42 49.8,-42"/>
<text text-anchor="middle" x="54.9" y="-78" font-family="Times,serif" font-size="10.00">CX</text>
</g>
<g id="clust8" class="cluster">
<title>cluster_9</title>
<path fill="lightblue" stroke="lightblue" d="M92.4,-44C92.4,-44 102.6,-44 102.6,-44 107.7,-44 112.8,-49.1 112.8,-54.2 112.8,-54.2 112.8,-81.8 112.8,-81.8 112.8,-86.9 107.7,-92 102.6,-92 102.6,-92 92.4,-92 92.4,-92 87.3,-92 82.2,-86.9 82.2,-81.8 82.2,-81.8 82.2,-54.2 82.2,-54.2 82.2,-49.1 87.3,-44 92.4,-44"/>
<text text-anchor="middle" x="97.5" y="-80" font-family="Times,serif" font-size="10.00">CX</text>
</g>
<g id="clust9" class="cluster">
<title>cluster_10</title>
<path fill="lightblue" stroke="lightblue" d="M135.8,-64C135.8,-64 160.4,-64 160.4,-64 165.9,-64 171.4,-69.5 171.4,-75 171.4,-75 171.4,-86 171.4,-86 171.4,-91.5 165.9,-97 160.4,-97 160.4,-97 135.8,-97 135.8,-97 130.3,-97 124.8,-91.5 124.8,-86 124.8,-86 124.8,-75 124.8,-75 124.8,-69.5 130.3,-64 135.8,-64"/>
<text text-anchor="middle" x="148.1" y="-85" font-family="Times,serif" font-size="10.00">Rx(0.2)</text>
</g>
<g id="clust10" class="cluster">
<title>cluster_11</title>
<path fill="lightblue" stroke="lightblue" d="M192.93,-43C192.93,-43 202.47,-43 202.47,-43 207.23,-43 212,-47.77 212,-52.53 212,-52.53 212,-81.47 212,-81.47 212,-86.23 207.23,-91 202.47,-91 202.47,-91 192.93,-91 192.93,-91 188.17,-91 183.4,-86.23 183.4,-81.47 183.4,-81.47 183.4,-52.53 183.4,-52.53 183.4,-47.77 188.17,-43 192.93,-43"/>
<text text-anchor="middle" x="197.7" y="-79" font-family="Times,serif" font-size="10.00">CZ</text>
</g>
<!-- (0, 0) -->
<g id="node1" class="node">
<title>(0, 0)</title>
<ellipse fill="blue" stroke="blue" cx="20.8" cy="-46" rx="1.8" ry="1.8"/>
<text text-anchor="middle" x="9.5" y="-37.8" font-family="Courier,monospace" font-size="8.00">q[0]</text>
</g>
<!-- (8, 0) -->
<g id="node9" class="node">
<title>(8, 0)</title>
<ellipse fill="black" stroke="black" cx="54.4" cy="-49" rx="1.8" ry="1.8"/>
<text text-anchor="middle" x="50.1" y="-40.8" font-family="Helvetica,sans-Serif" font-size="8.00">0</text>
</g>
<!-- (0, 0)&#45;&gt;(8, 0) -->
<g id="edge1" class="edge">
<title>(0, 0)&#45;&gt;(8, 0)</title>
<path fill="none" stroke="blue" d="M23.16,-46.13C27.87,-46.58 43.6,-48.07 50.32,-48.71"/>
<polygon fill="blue" stroke="blue" points="52.35,-48.9 50.25,-49.83 51.35,-48.81 50.36,-48.71 50.36,-48.71 50.36,-48.71 51.35,-48.81 50.46,-47.59 52.35,-48.9 52.35,-48.9"/>
</g>
<!-- (2, 0) -->
<g id="node2" class="node">
<title>(2, 0)</title>
<ellipse fill="blue" stroke="blue" cx="20.8" cy="-61" rx="1.8" ry="1.8"/>
<text text-anchor="middle" x="9.5" y="-52.8" font-family="Courier,monospace" font-size="8.00">q[1]</text>
</g>
<!-- (8, 1) -->
<g id="node10" class="node">
<title>(8, 1)</title>
<ellipse fill="black" stroke="black" cx="54.4" cy="-64" rx="1.8" ry="1.8"/>
<text text-anchor="middle" x="50.1" y="-55.8" font-family="Helvetica,sans-Serif" font-size="8.00">1</text>
</g>
<!-- (2, 0)&#45;&gt;(8, 1) -->
<g id="edge2" class="edge">
<title>(2, 0)&#45;&gt;(8, 1)</title>
<path fill="none" stroke="blue" d="M23.16,-61.13C27.87,-61.58 43.6,-63.07 50.32,-63.71"/>
<polygon fill="blue" stroke="blue" points="52.35,-63.9 50.25,-64.83 51.35,-63.81 50.36,-63.71 50.36,-63.71 50.36,-63.71 51.35,-63.81 50.46,-62.59 52.35,-63.9 52.35,-63.9"/>
</g>
<!-- (4, 0) -->
<g id="node3" class="node">
<title>(4, 0)</title>
<ellipse fill="blue" stroke="blue" cx="20.8" cy="-31" rx="1.8" ry="1.8"/>
<text text-anchor="middle" x="9.5" y="-22.8" font-family="Courier,monospace" font-size="8.00">q[2]</text>
</g>
<!-- (5, 0) -->
<g id="node7" class="node">
<title>(5, 0)</title>
<ellipse fill="blue" stroke="blue" cx="230.8" cy="-30" rx="1.8" ry="1.8"/>
<text text-anchor="middle" x="219.5" y="-21.8" font-family="Courier,monospace" font-size="8.00">q[2]</text>
</g>
<!-- (4, 0)&#45;&gt;(5, 0) -->
<g id="edge3" class="edge">
<title>(4, 0)&#45;&gt;(5, 0)</title>
<path fill="none" stroke="blue" d="M22.85,-30.95C29.45,-30.64 66.1,-29 96,-29 96,-29 96,-29 148.6,-29 179.27,-29 216.46,-29.72 226.93,-29.94"/>
<polygon fill="blue" stroke="blue" points="229,-29.98 226.98,-31.07 228,-29.96 227,-29.94 227,-29.94 227,-29.94 228,-29.96 227.02,-28.82 229,-29.98 229,-29.98"/>
</g>
<!-- (6, 0) -->
<g id="node4" class="node">
<title>(6, 0)</title>
<ellipse fill="blue" stroke="blue" cx="20.8" cy="-16" rx="1.8" ry="1.8"/>
<text text-anchor="middle" x="9.5" y="-7.8" font-family="Courier,monospace" font-size="8.00">q[3]</text>
</g>
<!-- (7, 0) -->
<g id="node8" class="node">
<title>(7, 0)</title>
<ellipse fill="blue" stroke="blue" cx="230.8" cy="-15" rx="1.8" ry="1.8"/>
<text text-anchor="middle" x="219.5" y="-6.8" font-family="Courier,monospace" font-size="8.00">q[3]</text>
</g>
<!-- (6, 0)&#45;&gt;(7, 0) -->
<g id="edge4" class="edge">
<title>(6, 0)&#45;&gt;(7, 0)</title>
<path fill="none" stroke="blue" d="M22.84,-15.75C29.41,-14.21 65.84,-6 96,-6 96,-6 96,-6 148.6,-6 179.46,-6 216.51,-12.5 226.94,-14.45"/>
<polygon fill="blue" stroke="blue" points="229,-14.84 226.83,-15.58 228.02,-14.66 227.04,-14.47 227.04,-14.47 227.04,-14.47 228.02,-14.66 227.25,-13.36 229,-14.84 229,-14.84"/>
</g>
<!-- (1, 0) -->
<g id="node5" class="node">
<title>(1, 0)</title>
<ellipse fill="blue" stroke="blue" cx="230.8" cy="-45" rx="1.8" ry="1.8"/>
<text text-anchor="middle" x="219.5" y="-36.8" font-family="Courier,monospace" font-size="8.00">q[0]</text>
</g>
<!-- (3, 0) -->
<g id="node6" class="node">
<title>(3, 0)</title>
<ellipse fill="blue" stroke="blue" cx="230.8" cy="-60" rx="1.8" ry="1.8"/>
<text text-anchor="middle" x="219.5" y="-51.8" font-family="Courier,monospace" font-size="8.00">q[1]</text>
</g>
<!-- (9, 1) -->
<g id="node12" class="node">
<title>(9, 1)</title>
<ellipse fill="black" stroke="black" cx="97" cy="-51" rx="1.8" ry="1.8"/>
<text text-anchor="middle" x="92.7" y="-42.8" font-family="Helvetica,sans-Serif" font-size="8.00">1</text>
</g>
<!-- (8, 0)&#45;&gt;(9, 1) -->
<g id="edge5" class="edge">
<title>(8, 0)&#45;&gt;(9, 1)</title>
<path fill="none" stroke="blue" d="M56.4,-49.05C61.54,-49.3 84.95,-50.46 93.15,-50.86"/>
<polygon fill="blue" stroke="blue" points="95.17,-50.96 93.12,-51.98 94.17,-50.91 93.17,-50.86 93.17,-50.86 93.17,-50.86 94.17,-50.91 93.23,-49.74 95.17,-50.96 95.17,-50.96"/>
</g>
<!-- (9, 0) -->
<g id="node11" class="node">
<title>(9, 0)</title>
<ellipse fill="black" stroke="black" cx="97" cy="-66" rx="1.8" ry="1.8"/>
<text text-anchor="middle" x="92.7" y="-57.8" font-family="Helvetica,sans-Serif" font-size="8.00">0</text>
</g>
<!-- (8, 1)&#45;&gt;(9, 0) -->
<g id="edge6" class="edge">
<title>(8, 1)&#45;&gt;(9, 0)</title>
<path fill="none" stroke="blue" d="M56.4,-64.05C61.54,-64.3 84.95,-65.46 93.15,-65.86"/>
<polygon fill="blue" stroke="blue" points="95.17,-65.96 93.12,-66.98 94.17,-65.91 93.17,-65.86 93.17,-65.86 93.17,-65.86 94.17,-65.91 93.23,-64.74 95.17,-65.96 95.17,-65.96"/>
</g>
<!-- (10, 0) -->
<g id="node13" class="node">
<title>(10, 0)</title>
<ellipse fill="black" stroke="black" cx="147.6" cy="-71" rx="1.8" ry="1.8"/>
</g>
<!-- (9, 0)&#45;&gt;(10, 0) -->
<g id="edge7" class="edge">
<title>(9, 0)&#45;&gt;(10, 0)</title>
<path fill="none" stroke="blue" d="M98.84,-66.09C104.19,-66.64 133.45,-69.65 143.34,-70.66"/>
<polygon fill="blue" stroke="blue" points="145.57,-70.89 143.47,-71.81 144.58,-70.79 143.58,-70.69 143.58,-70.69 143.58,-70.69 144.58,-70.79 143.7,-69.57 145.57,-70.89 145.57,-70.89"/>
</g>
<!-- (11, 0) -->
<g id="node14" class="node">
<title>(11, 0)</title>
<ellipse fill="black" stroke="black" cx="197.2" cy="-50" rx="1.8" ry="1.8"/>
<text text-anchor="middle" x="192.9" y="-41.8" font-family="Helvetica,sans-Serif" font-size="8.00">0</text>
</g>
<!-- (9, 1)&#45;&gt;(11, 0) -->
<g id="edge8" class="edge">
<title>(9, 1)&#45;&gt;(11, 0)</title>
<path fill="none" stroke="blue" d="M99.1,-50.99C108.66,-50.89 177.54,-50.19 193.09,-50.03"/>
<polygon fill="blue" stroke="blue" points="195.23,-50.01 193.24,-51.16 194.23,-50.02 193.23,-50.03 193.23,-50.03 193.23,-50.03 194.23,-50.02 193.22,-48.91 195.23,-50.01 195.23,-50.01"/>
</g>
<!-- (11, 1) -->
<g id="node15" class="node">
<title>(11, 1)</title>
<ellipse fill="black" stroke="black" cx="197.2" cy="-65" rx="1.8" ry="1.8"/>
<text text-anchor="middle" x="192.9" y="-56.8" font-family="Helvetica,sans-Serif" font-size="8.00">1</text>
</g>
<!-- (10, 0)&#45;&gt;(11, 1) -->
<g id="edge9" class="edge">
<title>(10, 0)&#45;&gt;(11, 1)</title>
<path fill="none" stroke="blue" d="M149.43,-70.9C154.62,-70.24 182.83,-66.69 192.75,-65.43"/>
<polygon fill="blue" stroke="blue" points="195.19,-65.13 193.35,-66.49 194.2,-65.25 193.21,-65.38 193.21,-65.38 193.21,-65.38 194.2,-65.25 193.07,-64.26 195.19,-65.13 195.19,-65.13"/>
</g>
<!-- (11, 0)&#45;&gt;(1, 0) -->
<g id="edge11" class="edge">
<title>(11, 0)&#45;&gt;(1, 0)</title>
<path fill="none" stroke="blue" d="M199.56,-49.79C204.27,-49.04 220,-46.55 226.72,-45.49"/>
<polygon fill="blue" stroke="blue" points="228.75,-45.17 226.95,-46.59 227.76,-45.32 226.77,-45.48 226.77,-45.48 226.77,-45.48 227.76,-45.32 226.6,-44.37 228.75,-45.17 228.75,-45.17"/>
</g>
<!-- (11, 1)&#45;&gt;(3, 0) -->
<g id="edge10" class="edge">
<title>(11, 1)&#45;&gt;(3, 0)</title>
<path fill="none" stroke="blue" d="M199.56,-64.79C204.27,-64.04 220,-61.55 226.72,-60.49"/>
<polygon fill="blue" stroke="blue" points="228.75,-60.17 226.95,-61.59 227.76,-60.32 226.77,-60.48 226.77,-60.48 226.77,-60.48 227.76,-60.32 226.6,-59.37 228.75,-60.17 228.75,-60.17"/>
</g>
</g>
</svg>
