<?xml version="1.0" encoding="UTF-8" standalone="no"?>
<!DOCTYPE svg PUBLIC "-//W3C//DTD SVG 1.1//EN"
 "http://www.w3.org/Graphics/SVG/1.1/DTD/svg11.dtd">
<!-- Generated by graphviz version 2.43.0 (0)
 -->
<!-- Title: G Pages: 1 -->
<svg width="1217pt" height="753pt"
 viewBox="0.00 0.00 1217.04 752.95" xmlns="http://www.w3.org/2000/svg" xmlns:xlink="http://www.w3.org/1999/xlink">
<g id="graph0" class="graph" transform="scale(1 1) rotate(0) translate(4 748.95)">
<title>G</title>
<polygon fill="white" stroke="transparent" points="-4,4 -4,-748.95 1213.04,-748.95 1213.04,4 -4,4"/>
<!-- 0 -->
<g id="node1" class="node">
<title>0</title>
<g id="a_node1"><a xlink:title="Q&#45;Input">
<ellipse fill="white" stroke="black" stroke-width="3" stroke-dasharray="5,2" cx="60.44" cy="-644.95" rx="46.29" ry="46.29"/>
<text text-anchor="middle" x="60.44" y="-641.25" font-family="Times,serif" font-size="14.00">Q&#45;Input</text>
</a>
</g>
<text text-anchor="start" x="4.3" y="-587.6" font-family="Times,serif" font-size="14.00" fill="grey">0</text>
</g>
<!-- 1 -->
<g id="node2" class="node">
<title>1</title>
<g id="a_node2"><a xlink:title="Q&#45;Input">
<ellipse fill="white" stroke="black" stroke-width="3" stroke-dasharray="5,2" cx="60.44" cy="-534.95" rx="46.29" ry="46.29"/>
<text text-anchor="middle" x="60.44" y="-531.25" font-family="Times,serif" font-size="14.00">Q&#45;Input</text>
</a>
</g>
<text text-anchor="start" x="4.3" y="-477.6" font-family="Times,serif" font-size="14.00" fill="grey">1</text>
</g>
<!-- 0&#45;&#45;1 -->
<!-- 8 -->
<g id="node9" class="node">
<title>8</title>
<g id="a_node9"><a xlink:title="Q&#45;Z(1.5)">
<ellipse fill="green" stroke="black" stroke-width="3" cx="182.24" cy="-418.95" rx="25.2" ry="25.2"/>
<text text-anchor="middle" x="182.24" y="-415.25" font-family="Times,serif" font-size="14.00">1.5</text>
</a>
</g>
<text text-anchor="start" x="146.89" y="-382.4" font-family="Times,serif" font-size="14.00" fill="grey">8</text>
</g>
<!-- 0&#45;&#45;8 -->
<g id="edge1" class="edge">
<title>0&#45;&#45;8</title>
<path fill="none" stroke="black" stroke-width="3" d="M97.41,-616.9C105.97,-608.9 114.48,-599.7 120.89,-589.95 137.19,-565.15 162.21,-484.16 174.26,-443.17"/>
</g>
<!-- 2 -->
<g id="node3" class="node">
<title>2</title>
<g id="a_node3"><a xlink:title="Q&#45;Input">
<ellipse fill="white" stroke="black" stroke-width="3" stroke-dasharray="5,2" cx="60.44" cy="-424.95" rx="46.29" ry="46.29"/>
<text text-anchor="middle" x="60.44" y="-421.25" font-family="Times,serif" font-size="14.00">Q&#45;Input</text>
</a>
</g>
<text text-anchor="start" x="4.3" y="-367.6" font-family="Times,serif" font-size="14.00" fill="grey">2</text>
</g>
<!-- 1&#45;&#45;2 -->
<!-- 13 -->
<g id="node14" class="node">
<title>13</title>
<g id="a_node14"><a xlink:title="Q&#45;Z(0.5)">
<ellipse fill="green" stroke="black" stroke-width="3" cx="182.24" cy="-534.95" rx="25.2" ry="25.2"/>
<text text-anchor="middle" x="182.24" y="-531.25" font-family="Times,serif" font-size="14.00">0.5</text>
</a>
</g>
<text text-anchor="start" x="137.89" y="-498.4" font-family="Times,serif" font-size="14.00" fill="grey">13</text>
</g>
<!-- 1&#45;&#45;13 -->
<g id="edge9" class="edge">
<title>1&#45;&#45;13</title>
<path fill="none" stroke="black" stroke-width="3" d="M106.73,-534.95C123.69,-534.95 142.32,-534.95 156.71,-534.95"/>
</g>
<!-- 3 -->
<g id="node4" class="node">
<title>3</title>
<g id="a_node4"><a xlink:title="Q&#45;Input">
<ellipse fill="white" stroke="black" stroke-width="3" stroke-dasharray="5,2" cx="60.44" cy="-314.95" rx="46.29" ry="46.29"/>
<text text-anchor="middle" x="60.44" y="-311.25" font-family="Times,serif" font-size="14.00">Q&#45;Input</text>
</a>
</g>
<text text-anchor="start" x="4.3" y="-257.6" font-family="Times,serif" font-size="14.00" fill="grey">3</text>
</g>
<!-- 2&#45;&#45;3 -->
<!-- 18 -->
<g id="node19" class="node">
<title>18</title>
<g id="a_node19"><a xlink:title="Q&#45;X(0.0)">
<ellipse fill="red" stroke="black" stroke-width="3" cx="348.28" cy="-480.95" rx="18" ry="18"/>
</a>
</g>
<text text-anchor="start" x="311.28" y="-451.75" font-family="Times,serif" font-size="14.00" fill="grey">18</text>
</g>
<!-- 2&#45;&#45;18 -->
<g id="edge18" class="edge">
<title>2&#45;&#45;18</title>
<path fill="none" stroke="black" stroke-width="3" d="M104.83,-439.06C121.04,-443.96 139.68,-449.18 156.89,-452.95 220.2,-466.82 296.89,-475.74 330.33,-479.25"/>
</g>
<!-- 23 -->
<g id="node24" class="node">
<title>23</title>
<g id="a_node24"><a xlink:title="Q&#45;Z(0.0)">
<ellipse fill="green" stroke="black" stroke-width="3" cx="420.28" cy="-352.95" rx="18" ry="18"/>
</a>
</g>
<text text-anchor="start" x="383.28" y="-323.75" font-family="Times,serif" font-size="14.00" fill="grey">23</text>
</g>
<!-- 3&#45;&#45;23 -->
<g id="edge24" class="edge">
<title>3&#45;&#45;23</title>
<path fill="none" stroke="blue" stroke-width="3" stroke-dasharray="5,2" d="M106.4,-319.72C186.18,-328.19 349.1,-345.49 402.16,-351.13"/>
</g>
<!-- 4 -->
<g id="node5" class="node">
<title>4</title>
<g id="a_node5"><a xlink:title="Q&#45;Output">
<ellipse fill="white" stroke="black" stroke-width="3" stroke-dasharray="5,2" cx="998.1" cy="-446.95" rx="53.89" ry="53.89"/>
<text text-anchor="middle" x="998.1" y="-443.25" font-family="Times,serif" font-size="14.00">Q&#45;Output</text>
</a>
</g>
<text text-anchor="start" x="934.15" y="-381.8" font-family="Times,serif" font-size="14.00" fill="grey">4</text>
</g>
<!-- 5 -->
<g id="node6" class="node">
<title>5</title>
<g id="a_node6"><a xlink:title="Q&#45;Output">
<ellipse fill="white" stroke="black" stroke-width="3" stroke-dasharray="5,2" cx="998.1" cy="-320.95" rx="53.89" ry="53.89"/>
<text text-anchor="middle" x="998.1" y="-317.25" font-family="Times,serif" font-size="14.00">Q&#45;Output</text>
</a>
</g>
<text text-anchor="start" x="934.15" y="-255.8" font-family="Times,serif" font-size="14.00" fill="grey">5</text>
</g>
<!-- 4&#45;&#45;5 -->
<!-- 6 -->
<g id="node7" class="node">
<title>6</title>
<g id="a_node7"><a xlink:title="Q&#45;Output">
<ellipse fill="white" stroke="black" stroke-width="3" stroke-dasharray="5,2" cx="998.1" cy="-194.95" rx="53.89" ry="53.89"/>
<text text-anchor="middle" x="998.1" y="-191.25" font-family="Times,serif" font-size="14.00">Q&#45;Output</text>
</a>
</g>
<text text-anchor="start" x="934.15" y="-129.8" font-family="Times,serif" font-size="14.00" fill="grey">6</text>
</g>
<!-- 5&#45;&#45;6 -->
<!-- 17 -->
<g id="node18" class="node">
<title>17</title>
<g id="a_node18"><a xlink:title="Q&#45;Z(0.0)">
<ellipse fill="green" stroke="black" stroke-width="3" cx="1119.04" cy="-401.95" rx="18" ry="18"/>
</a>
</g>
<text text-anchor="start" x="1082.04" y="-372.75" font-family="Times,serif" font-size="14.00" fill="grey">17</text>
</g>
<!-- 5&#45;&#45;17 -->
<g id="edge17" class="edge">
<title>5&#45;&#45;17</title>
<path fill="none" stroke="black" stroke-width="3" d="M1043.05,-350.88C1064.49,-365.48 1088.83,-382.05 1103.81,-392.25"/>
</g>
<!-- 7 -->
<g id="node8" class="node">
<title>7</title>
<g id="a_node8"><a xlink:title="Q&#45;Output">
<ellipse fill="white" stroke="black" stroke-width="3" stroke-dasharray="5,2" cx="998.1" cy="-68.95" rx="53.89" ry="53.89"/>
<text text-anchor="middle" x="998.1" y="-65.25" font-family="Times,serif" font-size="14.00">Q&#45;Output</text>
</a>
</g>
<text text-anchor="start" x="934.15" y="-3.8" font-family="Times,serif" font-size="14.00" fill="grey">7</text>
</g>
<!-- 6&#45;&#45;7 -->
<!-- 9 -->
<g id="node10" class="node">
<title>9</title>
<g id="a_node10"><a xlink:title="Q&#45;Z(0.5)">
<ellipse fill="green" stroke="black" stroke-width="3" cx="268.93" cy="-413.95" rx="25.2" ry="25.2"/>
<text text-anchor="middle" x="268.93" y="-410.25" font-family="Times,serif" font-size="14.00">0.5</text>
</a>
</g>
<text text-anchor="start" x="233.58" y="-377.4" font-family="Times,serif" font-size="14.00" fill="grey">9</text>
</g>
<!-- 8&#45;&#45;9 -->
<g id="edge2" class="edge">
<title>8&#45;&#45;9</title>
<path fill="none" stroke="blue" stroke-width="3" stroke-dasharray="5,2" d="M207.73,-417.5C218.97,-416.84 232.26,-416.05 243.49,-415.39"/>
</g>
<!-- 10 -->
<g id="node11" class="node">
<title>10</title>
<g id="a_node11"><a xlink:title="Q&#45;Z(0.0)">
<ellipse fill="green" stroke="black" stroke-width="3" cx="348.28" cy="-409.95" rx="18" ry="18"/>
</a>
</g>
<text text-anchor="start" x="311.28" y="-380.75" font-family="Times,serif" font-size="14.00" fill="grey">10</text>
</g>
<!-- 9&#45;&#45;10 -->
<g id="edge3" class="edge">
<title>9&#45;&#45;10</title>
<path fill="none" stroke="black" stroke-width="3" d="M294.41,-412.68C305.91,-412.08 319.37,-411.39 329.83,-410.85"/>
</g>
<!-- 11 -->
<g id="node12" class="node">
<title>11</title>
<g id="a_node12"><a xlink:title="Q&#45;X(0.0)">
<ellipse fill="red" stroke="black" stroke-width="3" cx="420.28" cy="-409.95" rx="18" ry="18"/>
</a>
</g>
<text text-anchor="start" x="383.28" y="-380.75" font-family="Times,serif" font-size="14.00" fill="grey">11</text>
</g>
<!-- 10&#45;&#45;11 -->
<g id="edge5" class="edge">
<title>10&#45;&#45;11</title>
<path fill="none" stroke="black" stroke-width="3" d="M366.58,-409.95C377.43,-409.95 391.36,-409.95 402.18,-409.95"/>
</g>
<!-- 10&#45;&#45;23 -->
<g id="edge4" class="edge">
<title>10&#45;&#45;23</title>
<path fill="none" stroke="blue" stroke-width="3" stroke-dasharray="5,2" d="M362.78,-398.96C375.17,-388.86 393.44,-373.98 405.83,-363.9"/>
</g>
<!-- 12 -->
<g id="node13" class="node">
<title>12</title>
<g id="a_node13"><a xlink:title="Q&#45;Z(0.25)">
<ellipse fill="green" stroke="black" stroke-width="3" cx="777.26" cy="-428.95" rx="31.4" ry="31.4"/>
<text text-anchor="middle" x="777.26" y="-425.25" font-family="Times,serif" font-size="14.00">0.25</text>
</a>
</g>
<text text-anchor="start" x="727.07" y="-386.55" font-family="Times,serif" font-size="14.00" fill="grey">12</text>
</g>
<!-- 11&#45;&#45;12 -->
<g id="edge7" class="edge">
<title>11&#45;&#45;12</title>
<path fill="none" stroke="blue" stroke-width="3" stroke-dasharray="5,2" d="M438.4,-410.86C494.63,-413.87 674.13,-423.48 746.05,-427.33"/>
</g>
<!-- 24 -->
<g id="node25" class="node">
<title>24</title>
<g id="a_node25"><a xlink:title="Q&#45;Z(0.0)">
<ellipse fill="green" stroke="black" stroke-width="3" cx="499.63" cy="-352.95" rx="18" ry="18"/>
</a>
</g>
<text text-anchor="start" x="462.63" y="-323.75" font-family="Times,serif" font-size="14.00" fill="grey">24</text>
</g>
<!-- 11&#45;&#45;24 -->
<g id="edge6" class="edge">
<title>11&#45;&#45;24</title>
<path fill="none" stroke="black" stroke-width="3" d="M435.47,-399.49C449.51,-389.14 470.87,-373.4 484.79,-363.14"/>
</g>
<!-- 12&#45;&#45;4 -->
<g id="edge8" class="edge">
<title>12&#45;&#45;4</title>
<path fill="none" stroke="blue" stroke-width="3" stroke-dasharray="5,2" d="M808.69,-431.45C843.69,-434.33 901.77,-439.1 944.21,-442.6"/>
</g>
<!-- 14 -->
<g id="node15" class="node">
<title>14</title>
<g id="a_node15"><a xlink:title="Q&#45;Z(0.0)">
<ellipse fill="green" stroke="black" stroke-width="3" cx="268.93" cy="-534.95" rx="18" ry="18"/>
</a>
</g>
<text text-anchor="start" x="231.93" y="-505.75" font-family="Times,serif" font-size="14.00" fill="grey">14</text>
</g>
<!-- 13&#45;&#45;14 -->
<g id="edge10" class="edge">
<title>13&#45;&#45;14</title>
<path fill="none" stroke="black" stroke-width="3" d="M207.73,-534.95C221.51,-534.95 238.37,-534.95 250.74,-534.95"/>
</g>
<!-- 15 -->
<g id="node16" class="node">
<title>15</title>
<g id="a_node16"><a xlink:title="Q&#45;Z(0.0)">
<ellipse fill="green" stroke="black" stroke-width="3" cx="348.28" cy="-534.95" rx="18" ry="18"/>
</a>
</g>
<text text-anchor="start" x="311.28" y="-505.75" font-family="Times,serif" font-size="14.00" fill="grey">15</text>
</g>
<!-- 14&#45;&#45;15 -->
<g id="edge12" class="edge">
<title>14&#45;&#45;15</title>
<path fill="none" stroke="blue" stroke-width="3" stroke-dasharray="5,2" d="M287.1,-534.95C299.92,-534.95 317.36,-534.95 330.16,-534.95"/>
</g>
<!-- 14&#45;&#45;18 -->
<g id="edge11" class="edge">
<title>14&#45;&#45;18</title>
<path fill="none" stroke="black" stroke-width="3" d="M284.12,-525.04C298.08,-515.3 319.26,-500.51 333.18,-490.79"/>
</g>
<!-- 16 -->
<g id="node17" class="node">
<title>16</title>
<g id="a_node17"><a xlink:title="Q&#45;Z(0.25)">
<ellipse fill="green" stroke="black" stroke-width="3" cx="678.87" cy="-566.95" rx="31.4" ry="31.4"/>
<text text-anchor="middle" x="678.87" y="-563.25" font-family="Times,serif" font-size="14.00">0.25</text>
</a>
</g>
<text text-anchor="start" x="628.67" y="-524.55" font-family="Times,serif" font-size="14.00" fill="grey">16</text>
</g>
<!-- 15&#45;&#45;16 -->
<g id="edge14" class="edge">
<title>15&#45;&#45;16</title>
<path fill="none" stroke="black" stroke-width="3" d="M366.48,-536.62C419.44,-541.78 580.45,-557.46 647.77,-564.01"/>
</g>
<!-- 19 -->
<g id="node20" class="node">
<title>19</title>
<g id="a_node20"><a xlink:title="Q&#45;X(0.0)">
<ellipse fill="red" stroke="black" stroke-width="3" cx="420.28" cy="-507.95" rx="18" ry="18"/>
</a>
</g>
<text text-anchor="start" x="383.28" y="-478.75" font-family="Times,serif" font-size="14.00" fill="grey">19</text>
</g>
<!-- 15&#45;&#45;19 -->
<g id="edge13" class="edge">
<title>15&#45;&#45;19</title>
<path fill="none" stroke="black" stroke-width="3" d="M365.52,-528.68C376.82,-524.32 391.84,-518.53 403.13,-514.17"/>
</g>
<!-- 16&#45;&#45;17 -->
<g id="edge15" class="edge">
<title>16&#45;&#45;17</title>
<path fill="none" stroke="blue" stroke-width="3" stroke-dasharray="5,2" d="M709.9,-571.6C780.12,-580.73 957.21,-593.44 1065.04,-509.95 1094.44,-487.18 1108.58,-443.86 1114.47,-419.57"/>
</g>
<!-- 22 -->
<g id="node23" class="node">
<title>22</title>
<g id="a_node23"><a xlink:title="Q&#45;X(0.0)">
<ellipse fill="red" stroke="black" stroke-width="3" cx="1191.04" cy="-401.95" rx="18" ry="18"/>
</a>
</g>
<text text-anchor="start" x="1154.04" y="-372.75" font-family="Times,serif" font-size="14.00" fill="grey">22</text>
</g>
<!-- 17&#45;&#45;22 -->
<g id="edge16" class="edge">
<title>17&#45;&#45;22</title>
<path fill="none" stroke="black" stroke-width="3" d="M1137.35,-401.95C1148.2,-401.95 1162.13,-401.95 1172.94,-401.95"/>
</g>
<!-- 18&#45;&#45;19 -->
<g id="edge19" class="edge">
<title>18&#45;&#45;19</title>
<path fill="none" stroke="black" stroke-width="3" d="M365.52,-487.21C376.82,-491.57 391.84,-497.36 403.13,-501.72"/>
</g>
<!-- 20 -->
<g id="node21" class="node">
<title>20</title>
<g id="a_node21"><a xlink:title="Q&#45;Z(0.5)">
<ellipse fill="green" stroke="black" stroke-width="3" cx="499.63" cy="-507.95" rx="25.2" ry="25.2"/>
<text text-anchor="middle" x="499.63" y="-504.25" font-family="Times,serif" font-size="14.00">0.5</text>
</a>
</g>
<text text-anchor="start" x="455.28" y="-471.4" font-family="Times,serif" font-size="14.00" fill="grey">20</text>
</g>
<!-- 19&#45;&#45;20 -->
<g id="edge20" class="edge">
<title>19&#45;&#45;20</title>
<path fill="none" stroke="black" stroke-width="3" d="M438.45,-507.95C448.95,-507.95 462.56,-507.95 474.17,-507.95"/>
</g>
<!-- 21 -->
<g id="node22" class="node">
<title>21</title>
<g id="a_node22"><a xlink:title="Q&#45;Z(0.5)">
<ellipse fill="green" stroke="black" stroke-width="3" cx="869.81" cy="-510.95" rx="25.2" ry="25.2"/>
<text text-anchor="middle" x="869.81" y="-507.25" font-family="Times,serif" font-size="14.00">0.5</text>
</a>
</g>
<text text-anchor="start" x="825.46" y="-474.4" font-family="Times,serif" font-size="14.00" fill="grey">21</text>
</g>
<!-- 20&#45;&#45;21 -->
<g id="edge21" class="edge">
<title>20&#45;&#45;21</title>
<path fill="none" stroke="blue" stroke-width="3" stroke-dasharray="5,2" d="M525.07,-508.14C591.88,-508.69 777.05,-510.2 844.13,-510.74"/>
</g>
<!-- 21&#45;&#45;22 -->
<g id="edge22" class="edge">
<title>21&#45;&#45;22</title>
<path fill="none" stroke="black" stroke-width="3" d="M894.78,-515.98C932.43,-522.77 1007.11,-531.68 1065.04,-509.95 1116.06,-490.81 1160.21,-440.59 1179.58,-415.96"/>
</g>
<!-- 22&#45;&#45;6 -->
<g id="edge23" class="edge">
<title>22&#45;&#45;6</title>
<path fill="none" stroke="black" stroke-width="3" d="M1179.07,-388.48C1157.79,-362.55 1109.13,-304.19 1065.04,-257.95 1056.63,-249.12 1047.31,-239.91 1038.4,-231.33"/>
</g>
<!-- 23&#45;&#45;24 -->
<g id="edge25" class="edge">
<title>23&#45;&#45;24</title>
<path fill="none" stroke="black" stroke-width="3" d="M438.45,-352.95C451.26,-352.95 468.7,-352.95 481.51,-352.95"/>
</g>
<!-- 25 -->
<g id="node26" class="node">
<title>25</title>
<g id="a_node26"><a xlink:title="Q&#45;Z(1.5)">
<ellipse fill="green" stroke="black" stroke-width="3" cx="586.32" cy="-347.95" rx="25.2" ry="25.2"/>
<text text-anchor="middle" x="586.32" y="-344.25" font-family="Times,serif" font-size="14.00">1.5</text>
</a>
</g>
<text text-anchor="start" x="541.98" y="-311.4" font-family="Times,serif" font-size="14.00" fill="grey">25</text>
</g>
<!-- 24&#45;&#45;25 -->
<g id="edge26" class="edge">
<title>24&#45;&#45;25</title>
<path fill="none" stroke="blue" stroke-width="3" stroke-dasharray="5,2" d="M517.77,-351.93C530.14,-351.2 547.03,-350.21 560.83,-349.39"/>
</g>
<!-- 26 -->
<g id="node27" class="node">
<title>26</title>
<g id="a_node27"><a xlink:title="Q&#45;X(1.0)">
<ellipse fill="red" stroke="black" stroke-width="3" cx="678.87" cy="-337.95" rx="25.2" ry="25.2"/>
<text text-anchor="middle" x="678.87" y="-334.25" font-family="Times,serif" font-size="14.00">1.0</text>
</a>
</g>
<text text-anchor="start" x="634.52" y="-301.4" font-family="Times,serif" font-size="14.00" fill="grey">26</text>
</g>
<!-- 25&#45;&#45;26 -->
<g id="edge27" class="edge">
<title>25&#45;&#45;26</title>
<path fill="none" stroke="black" stroke-width="3" d="M611.59,-345.27C624.58,-343.83 640.54,-342.07 653.54,-340.63"/>
</g>
<!-- 27 -->
<g id="node28" class="node">
<title>27</title>
<g id="a_node28"><a xlink:title="Q&#45;Z(0.5)">
<ellipse fill="green" stroke="black" stroke-width="3" cx="777.26" cy="-283.95" rx="25.2" ry="25.2"/>
<text text-anchor="middle" x="777.26" y="-280.25" font-family="Times,serif" font-size="14.00">0.5</text>
</a>
</g>
<text text-anchor="start" x="732.92" y="-247.4" font-family="Times,serif" font-size="14.00" fill="grey">27</text>
</g>
<!-- 26&#45;&#45;27 -->
<g id="edge28" class="edge">
<title>26&#45;&#45;27</title>
<path fill="none" stroke="black" stroke-width="3" d="M701.26,-325.96C717.12,-317.07 738.67,-305.01 754.6,-296.08"/>
</g>
<!-- 28 -->
<g id="node29" class="node">
<title>28</title>
<g id="a_node29"><a xlink:title="Q&#45;X(1.0)">
<ellipse fill="red" stroke="black" stroke-width="3" cx="869.81" cy="-157.95" rx="25.2" ry="25.2"/>
<text text-anchor="middle" x="869.81" y="-154.25" font-family="Times,serif" font-size="14.00">1.0</text>
</a>
</g>
<text text-anchor="start" x="825.46" y="-121.4" font-family="Times,serif" font-size="14.00" fill="grey">28</text>
</g>
<!-- 27&#45;&#45;28 -->
<g id="edge29" class="edge">
<title>27&#45;&#45;28</title>
<path fill="none" stroke="black" stroke-width="3" d="M792.81,-263.7C809.71,-240.19 837.42,-201.63 854.3,-178.14"/>
</g>
<!-- 28&#45;&#45;7 -->
<g id="edge30" class="edge">
<title>28&#45;&#45;7</title>
<path fill="none" stroke="black" stroke-width="3" d="M891.1,-143.65C907.9,-131.8 932.37,-114.56 953.57,-99.62"/>
</g>
<!-- input_rank -->
<g id="node30" class="node">
<title>input_rank</title>
</g>
<!-- input_rank&#45;&#45;0 -->
<!-- output_rank -->
<g id="node31" class="node">
<title>output_rank</title>
</g>
<!-- input_rank&#45;&#45;output_rank -->
<!-- output_rank&#45;&#45;4 -->
</g>
</svg>
