<?xml version="1.0" encoding="UTF-8" standalone="no"?>
<!DOCTYPE svg PUBLIC "-//W3C//DTD SVG 1.1//EN"
 "http://www.w3.org/Graphics/SVG/1.1/DTD/svg11.dtd">
<!-- Generated by graphviz version 6.0.1 (20220911.1526)
 -->
<!-- Title: Circuit Pages: 1 -->
<svg width="851pt" height="149pt"
 viewBox="0.00 0.00 851.00 149.00" xmlns="http://www.w3.org/2000/svg" xmlns:xlink="http://www.w3.org/1999/xlink">
<g id="graph0" class="graph" transform="scale(1 1) rotate(0) translate(4 145)">
<title>Circuit</title>
<polygon fill="white" stroke="none" points="-4,4 -4,-145 847,-145 847,4 -4,4"/>
<g id="clust1" class="cluster">
<title>cluster_q_inputs</title>
<path fill="lightgrey" stroke="lightgrey" d="M18.53,-49C18.53,-49 23.07,-49 23.07,-49 25.33,-49 27.6,-51.27 27.6,-53.53 27.6,-53.53 27.6,-88.47 27.6,-88.47 27.6,-90.73 25.33,-93 23.07,-93 23.07,-93 18.53,-93 18.53,-93 16.27,-93 14,-90.73 14,-88.47 14,-88.47 14,-53.53 14,-53.53 14,-51.27 16.27,-49 18.53,-49"/>
</g>
<g id="clust4" class="cluster">
<title>cluster_q_outputs</title>
<path fill="lightgrey" stroke="lightgrey" d="M825.93,-41C825.93,-41 830.47,-41 830.47,-41 832.73,-41 835,-43.27 835,-45.53 835,-45.53 835,-80.47 835,-80.47 835,-82.73 832.73,-85 830.47,-85 830.47,-85 825.93,-85 825.93,-85 823.67,-85 821.4,-82.73 821.4,-80.47 821.4,-80.47 821.4,-45.53 821.4,-45.53 821.4,-43.27 823.67,-41 825.93,-41"/>
</g>
<g id="clust7" class="cluster">
<title>cluster_6</title>
<path fill="lightblue" stroke="lightblue" d="M793.67,-23C793.67,-23 801.53,-23 801.53,-23 805.47,-23 809.4,-26.93 809.4,-30.87 809.4,-30.87 809.4,-48.13 809.4,-48.13 809.4,-52.07 805.47,-56 801.53,-56 801.53,-56 793.67,-56 793.67,-56 789.73,-56 785.8,-52.07 785.8,-48.13 785.8,-48.13 785.8,-30.87 785.8,-30.87 785.8,-26.93 789.73,-23 793.67,-23"/>
<text text-anchor="middle" x="797.6" y="-44" font-family="Times,serif" font-size="10.00">V</text>
</g>
<g id="clust8" class="cluster">
<title>cluster_7</title>
<path fill="lightblue" stroke="lightblue" d="M793.67,-56C793.67,-56 801.53,-56 801.53,-56 805.47,-56 809.4,-59.93 809.4,-63.87 809.4,-63.87 809.4,-81.13 809.4,-81.13 809.4,-85.07 805.47,-89 801.53,-89 801.53,-89 793.67,-89 793.67,-89 789.73,-89 785.8,-85.07 785.8,-81.13 785.8,-81.13 785.8,-63.87 785.8,-63.87 785.8,-59.93 789.73,-56 793.67,-56"/>
<text text-anchor="middle" x="797.6" y="-77" font-family="Times,serif" font-size="10.00">V</text>
</g>
<g id="clust9" class="cluster">
<title>cluster_8</title>
<path fill="lightblue" stroke="lightblue" d="M758.07,-92C758.07,-92 765.93,-92 765.93,-92 769.87,-92 773.8,-95.93 773.8,-99.87 773.8,-99.87 773.8,-117.13 773.8,-117.13 773.8,-121.07 769.87,-125 765.93,-125 765.93,-125 758.07,-125 758.07,-125 754.13,-125 750.2,-121.07 750.2,-117.13 750.2,-117.13 750.2,-99.87 750.2,-99.87 750.2,-95.93 754.13,-92 758.07,-92"/>
<text text-anchor="middle" x="762" y="-113" font-family="Times,serif" font-size="10.00">V</text>
</g>
<g id="clust10" class="cluster">
<title>cluster_9</title>
<path fill="lightblue" stroke="lightblue" d="M758.4,-23C758.4,-23 765.6,-23 765.6,-23 769.2,-23 772.8,-26.6 772.8,-30.2 772.8,-30.2 772.8,-48.8 772.8,-48.8 772.8,-52.4 769.2,-56 765.6,-56 765.6,-56 758.4,-56 758.4,-56 754.8,-56 751.2,-52.4 751.2,-48.8 751.2,-48.8 751.2,-30.2 751.2,-30.2 751.2,-26.6 754.8,-23 758.4,-23"/>
<text text-anchor="middle" x="762" y="-44" font-family="Times,serif" font-size="10.00">S</text>
</g>
<g id="clust11" class="cluster">
<title>cluster_10</title>
<path fill="lightblue" stroke="lightblue" d="M758.4,-57C758.4,-57 765.6,-57 765.6,-57 769.2,-57 772.8,-60.6 772.8,-64.2 772.8,-64.2 772.8,-82.8 772.8,-82.8 772.8,-86.4 769.2,-90 765.6,-90 765.6,-90 758.4,-90 758.4,-90 754.8,-90 751.2,-86.4 751.2,-82.8 751.2,-82.8 751.2,-64.2 751.2,-64.2 751.2,-60.6 754.8,-57 758.4,-57"/>
<text text-anchor="middle" x="762" y="-78" font-family="Times,serif" font-size="10.00">S</text>
</g>
<g id="clust12" class="cluster">
<title>cluster_11</title>
<path fill="lightblue" stroke="lightblue" d="M722.8,-91C722.8,-91 730,-91 730,-91 733.6,-91 737.2,-94.6 737.2,-98.2 737.2,-98.2 737.2,-116.8 737.2,-116.8 737.2,-120.4 733.6,-124 730,-124 730,-124 722.8,-124 722.8,-124 719.2,-124 715.6,-120.4 715.6,-116.8 715.6,-116.8 715.6,-98.2 715.6,-98.2 715.6,-94.6 719.2,-91 722.8,-91"/>
<text text-anchor="middle" x="726.4" y="-112" font-family="Times,serif" font-size="10.00">S</text>
</g>
<g id="clust13" class="cluster">
<title>cluster_12</title>
<path fill="lightblue" stroke="lightblue" d="M722.47,-23C722.47,-23 730.33,-23 730.33,-23 734.27,-23 738.2,-26.93 738.2,-30.87 738.2,-30.87 738.2,-48.13 738.2,-48.13 738.2,-52.07 734.27,-56 730.33,-56 730.33,-56 722.47,-56 722.47,-56 718.53,-56 714.6,-52.07 714.6,-48.13 714.6,-48.13 714.6,-30.87 714.6,-30.87 714.6,-26.93 718.53,-23 722.47,-23"/>
<text text-anchor="middle" x="726.4" y="-44" font-family="Times,serif" font-size="10.00">H</text>
</g>
<g id="clust14" class="cluster">
<title>cluster_13</title>
<path fill="lightblue" stroke="lightblue" d="M722.47,-57C722.47,-57 730.33,-57 730.33,-57 734.27,-57 738.2,-60.93 738.2,-64.87 738.2,-64.87 738.2,-82.13 738.2,-82.13 738.2,-86.07 734.27,-90 730.33,-90 730.33,-90 722.47,-90 722.47,-90 718.53,-90 714.6,-86.07 714.6,-82.13 714.6,-82.13 714.6,-64.87 714.6,-64.87 714.6,-60.93 718.53,-57 722.47,-57"/>
<text text-anchor="middle" x="726.4" y="-78" font-family="Times,serif" font-size="10.00">H</text>
</g>
<g id="clust15" class="cluster">
<title>cluster_14</title>
<path fill="lightblue" stroke="lightblue" d="M686.87,-90C686.87,-90 694.73,-90 694.73,-90 698.67,-90 702.6,-93.93 702.6,-97.87 702.6,-97.87 702.6,-115.13 702.6,-115.13 702.6,-119.07 698.67,-123 694.73,-123 694.73,-123 686.87,-123 686.87,-123 682.93,-123 679,-119.07 679,-115.13 679,-115.13 679,-97.87 679,-97.87 679,-93.93 682.93,-90 686.87,-90"/>
<text text-anchor="middle" x="690.8" y="-111" font-family="Times,serif" font-size="10.00">H</text>
</g>
<g id="clust16" class="cluster">
<title>cluster_15</title>
<path fill="lightblue" stroke="lightblue" d="M687.2,-23C687.2,-23 694.4,-23 694.4,-23 698,-23 701.6,-26.6 701.6,-30.2 701.6,-30.2 701.6,-48.8 701.6,-48.8 701.6,-52.4 698,-56 694.4,-56 694.4,-56 687.2,-56 687.2,-56 683.6,-56 680,-52.4 680,-48.8 680,-48.8 680,-30.2 680,-30.2 680,-26.6 683.6,-23 687.2,-23"/>
<text text-anchor="middle" x="690.8" y="-44" font-family="Times,serif" font-size="10.00">S</text>
</g>
<g id="clust17" class="cluster">
<title>cluster_16</title>
<path fill="lightblue" stroke="lightblue" d="M687.2,-57C687.2,-57 694.4,-57 694.4,-57 698,-57 701.6,-60.6 701.6,-64.2 701.6,-64.2 701.6,-82.8 701.6,-82.8 701.6,-86.4 698,-90 694.4,-90 694.4,-90 687.2,-90 687.2,-90 683.6,-90 680,-86.4 680,-82.8 680,-82.8 680,-64.2 680,-64.2 680,-60.6 683.6,-57 687.2,-57"/>
<text text-anchor="middle" x="690.8" y="-78" font-family="Times,serif" font-size="10.00">S</text>
</g>
<g id="clust18" class="cluster">
<title>cluster_17</title>
<path fill="lightblue" stroke="lightblue" d="M645.6,-90C645.6,-90 652.8,-90 652.8,-90 656.4,-90 660,-93.6 660,-97.2 660,-97.2 660,-115.8 660,-115.8 660,-119.4 656.4,-123 652.8,-123 652.8,-123 645.6,-123 645.6,-123 642,-123 638.4,-119.4 638.4,-115.8 638.4,-115.8 638.4,-97.2 638.4,-97.2 638.4,-93.6 642,-90 645.6,-90"/>
<text text-anchor="middle" x="649.2" y="-111" font-family="Times,serif" font-size="10.00">S</text>
</g>
<g id="clust19" class="cluster">
<title>cluster_18</title>
<path fill="lightblue" stroke="lightblue" d="M47.47,-64C47.47,-64 55.33,-64 55.33,-64 59.27,-64 63.2,-67.93 63.2,-71.87 63.2,-71.87 63.2,-89.13 63.2,-89.13 63.2,-93.07 59.27,-97 55.33,-97 55.33,-97 47.47,-97 47.47,-97 43.53,-97 39.6,-93.07 39.6,-89.13 39.6,-89.13 39.6,-71.87 39.6,-71.87 39.6,-67.93 43.53,-64 47.47,-64"/>
<text text-anchor="middle" x="51.4" y="-85" font-family="Times,serif" font-size="10.00">H</text>
</g>
<g id="clust20" class="cluster">
<title>cluster_19</title>
<path fill="lightblue" stroke="lightblue" d="M149.67,-45C149.67,-45 157.53,-45 157.53,-45 161.47,-45 165.4,-48.93 165.4,-52.87 165.4,-52.87 165.4,-70.13 165.4,-70.13 165.4,-74.07 161.47,-78 157.53,-78 157.53,-78 149.67,-78 149.67,-78 145.73,-78 141.8,-74.07 141.8,-70.13 141.8,-70.13 141.8,-52.87 141.8,-52.87 141.8,-48.93 145.73,-45 149.67,-45"/>
<text text-anchor="middle" x="153.6" y="-66" font-family="Times,serif" font-size="10.00">H</text>
</g>
<g id="clust21" class="cluster">
<title>cluster_20</title>
<path fill="lightblue" stroke="lightblue" d="M86.2,-65C86.2,-65 115.8,-65 115.8,-65 121.3,-65 126.8,-70.5 126.8,-76 126.8,-76 126.8,-87 126.8,-87 126.8,-92.5 121.3,-98 115.8,-98 115.8,-98 86.2,-98 86.2,-98 80.7,-98 75.2,-92.5 75.2,-87 75.2,-87 75.2,-76 75.2,-76 75.2,-70.5 80.7,-65 86.2,-65"/>
<text text-anchor="middle" x="101" y="-86" font-family="Times,serif" font-size="10.00">Rz(0.45)</text>
</g>
<g id="clust22" class="cluster">
<title>cluster_21</title>
<path fill="lightblue" stroke="lightblue" d="M89.2,-100C89.2,-100 113.8,-100 113.8,-100 119.3,-100 124.8,-105.5 124.8,-111 124.8,-111 124.8,-122 124.8,-122 124.8,-127.5 119.3,-133 113.8,-133 113.8,-133 89.2,-133 89.2,-133 83.7,-133 78.2,-127.5 78.2,-122 78.2,-122 78.2,-111 78.2,-111 78.2,-105.5 83.7,-100 89.2,-100"/>
<text text-anchor="middle" x="101.5" y="-121" font-family="Times,serif" font-size="10.00">Rz(0.2)</text>
</g>
<g id="clust23" class="cluster">
<title>cluster_22</title>
<path fill="lightblue" stroke="lightblue" d="M149,-80C149,-80 159.2,-80 159.2,-80 164.3,-80 169.4,-85.1 169.4,-90.2 169.4,-90.2 169.4,-117.8 169.4,-117.8 169.4,-122.9 164.3,-128 159.2,-128 159.2,-128 149,-128 149,-128 143.9,-128 138.8,-122.9 138.8,-117.8 138.8,-117.8 138.8,-90.2 138.8,-90.2 138.8,-85.1 143.9,-80 149,-80"/>
<text text-anchor="middle" x="154.1" y="-116" font-family="Times,serif" font-size="10.00">CX</text>
</g>
<g id="clust24" class="cluster">
<title>cluster_23</title>
<path fill="lightblue" stroke="lightblue" d="M191.6,-45C191.6,-45 201.8,-45 201.8,-45 206.9,-45 212,-50.1 212,-55.2 212,-55.2 212,-82.8 212,-82.8 212,-87.9 206.9,-93 201.8,-93 201.8,-93 191.6,-93 191.6,-93 186.5,-93 181.4,-87.9 181.4,-82.8 181.4,-82.8 181.4,-55.2 181.4,-55.2 181.4,-50.1 186.5,-45 191.6,-45"/>
<text text-anchor="middle" x="196.7" y="-81" font-family="Times,serif" font-size="10.00">CX</text>
</g>
<g id="clust25" class="cluster">
<title>cluster_24</title>
<path fill="lightblue" stroke="lightblue" d="M235,-60C235,-60 259.6,-60 259.6,-60 265.1,-60 270.6,-65.5 270.6,-71 270.6,-71 270.6,-82 270.6,-82 270.6,-87.5 265.1,-93 259.6,-93 259.6,-93 235,-93 235,-93 229.5,-93 224,-87.5 224,-82 224,-82 224,-71 224,-71 224,-65.5 229.5,-60 235,-60"/>
<text text-anchor="middle" x="247.3" y="-81" font-family="Times,serif" font-size="10.00">Rz(0.8)</text>
</g>
<g id="clust26" class="cluster">
<title>cluster_25</title>
<path fill="lightblue" stroke="lightblue" d="M335.4,-41C335.4,-41 345.6,-41 345.6,-41 350.7,-41 355.8,-46.1 355.8,-51.2 355.8,-51.2 355.8,-78.8 355.8,-78.8 355.8,-83.9 350.7,-89 345.6,-89 345.6,-89 335.4,-89 335.4,-89 330.3,-89 325.2,-83.9 325.2,-78.8 325.2,-78.8 325.2,-51.2 325.2,-51.2 325.2,-46.1 330.3,-41 335.4,-41"/>
<text text-anchor="middle" x="340.5" y="-77" font-family="Times,serif" font-size="10.00">CX</text>
</g>
<g id="clust27" class="cluster">
<title>cluster_26</title>
<path fill="lightblue" stroke="lightblue" d="M292.8,-67C292.8,-67 303,-67 303,-67 308.1,-67 313.2,-72.1 313.2,-77.2 313.2,-77.2 313.2,-104.8 313.2,-104.8 313.2,-109.9 308.1,-115 303,-115 303,-115 292.8,-115 292.8,-115 287.7,-115 282.6,-109.9 282.6,-104.8 282.6,-104.8 282.6,-77.2 282.6,-77.2 282.6,-72.1 287.7,-67 292.8,-67"/>
<text text-anchor="middle" x="297.9" y="-103" font-family="Times,serif" font-size="10.00">CX</text>
</g>
<g id="clust28" class="cluster">
<title>cluster_27</title>
<path fill="lightblue" stroke="lightblue" d="M336.07,-89C336.07,-89 343.93,-89 343.93,-89 347.87,-89 351.8,-92.93 351.8,-96.87 351.8,-96.87 351.8,-114.13 351.8,-114.13 351.8,-118.07 347.87,-122 343.93,-122 343.93,-122 336.07,-122 336.07,-122 332.13,-122 328.2,-118.07 328.2,-114.13 328.2,-114.13 328.2,-96.87 328.2,-96.87 328.2,-92.93 332.13,-89 336.07,-89"/>
<text text-anchor="middle" x="340" y="-110" font-family="Times,serif" font-size="10.00">H</text>
</g>
<g id="clust29" class="cluster">
<title>cluster_28</title>
<path fill="lightblue" stroke="lightblue" d="M375.67,-56C375.67,-56 383.53,-56 383.53,-56 387.47,-56 391.4,-59.93 391.4,-63.87 391.4,-63.87 391.4,-81.13 391.4,-81.13 391.4,-85.07 387.47,-89 383.53,-89 383.53,-89 375.67,-89 375.67,-89 371.73,-89 367.8,-85.07 367.8,-81.13 367.8,-81.13 367.8,-63.87 367.8,-63.87 367.8,-59.93 371.73,-56 375.67,-56"/>
<text text-anchor="middle" x="379.6" y="-77" font-family="Times,serif" font-size="10.00">H</text>
</g>
<g id="clust30" class="cluster">
<title>cluster_29</title>
<path fill="lightblue" stroke="lightblue" d="M375.67,-23C375.67,-23 383.53,-23 383.53,-23 387.47,-23 391.4,-26.93 391.4,-30.87 391.4,-30.87 391.4,-48.13 391.4,-48.13 391.4,-52.07 387.47,-56 383.53,-56 383.53,-56 375.67,-56 375.67,-56 371.73,-56 367.8,-52.07 367.8,-48.13 367.8,-48.13 367.8,-30.87 367.8,-30.87 367.8,-26.93 371.73,-23 375.67,-23"/>
<text text-anchor="middle" x="379.6" y="-44" font-family="Times,serif" font-size="10.00">V</text>
</g>
<g id="clust31" class="cluster">
<title>cluster_30</title>
<path fill="lightblue" stroke="lightblue" d="M375.67,-89C375.67,-89 383.53,-89 383.53,-89 387.47,-89 391.4,-92.93 391.4,-96.87 391.4,-96.87 391.4,-114.13 391.4,-114.13 391.4,-118.07 387.47,-122 383.53,-122 383.53,-122 375.67,-122 375.67,-122 371.73,-122 367.8,-118.07 367.8,-114.13 367.8,-114.13 367.8,-96.87 367.8,-96.87 367.8,-92.93 371.73,-89 375.67,-89"/>
<text text-anchor="middle" x="379.6" y="-110" font-family="Times,serif" font-size="10.00">H</text>
</g>
<g id="clust32" class="cluster">
<title>cluster_31</title>
<path fill="lightblue" stroke="lightblue" d="M643.4,-23C643.4,-23 656,-23 656,-23 661.5,-23 667,-28.5 667,-34 667,-34 667,-45 667,-45 667,-50.5 661.5,-56 656,-56 656,-56 643.4,-56 643.4,-56 637.9,-56 632.4,-50.5 632.4,-45 632.4,-45 632.4,-34 632.4,-34 632.4,-28.5 637.9,-23 643.4,-23"/>
<text text-anchor="middle" x="649.7" y="-44" font-family="Times,serif" font-size="10.00">Vdg</text>
</g>
<g id="clust33" class="cluster">
<title>cluster_32</title>
<path fill="lightblue" stroke="lightblue" d="M645.27,-57C645.27,-57 653.13,-57 653.13,-57 657.07,-57 661,-60.93 661,-64.87 661,-64.87 661,-82.13 661,-82.13 661,-86.07 657.07,-90 653.13,-90 653.13,-90 645.27,-90 645.27,-90 641.33,-90 637.4,-86.07 637.4,-82.13 637.4,-82.13 637.4,-64.87 637.4,-64.87 637.4,-60.93 641.33,-57 645.27,-57"/>
<text text-anchor="middle" x="649.2" y="-78" font-family="Times,serif" font-size="10.00">H</text>
</g>
<g id="clust34" class="cluster">
<title>cluster_33</title>
<path fill="lightblue" stroke="lightblue" d="M413.6,-65C413.6,-65 423.8,-65 423.8,-65 428.9,-65 434,-70.1 434,-75.2 434,-75.2 434,-102.8 434,-102.8 434,-107.9 428.9,-113 423.8,-113 423.8,-113 413.6,-113 413.6,-113 408.5,-113 403.4,-107.9 403.4,-102.8 403.4,-102.8 403.4,-75.2 403.4,-75.2 403.4,-70.1 408.5,-65 413.6,-65"/>
<text text-anchor="middle" x="418.7" y="-101" font-family="Times,serif" font-size="10.00">CX</text>
</g>
<g id="clust35" class="cluster">
<title>cluster_34</title>
<path fill="lightblue" stroke="lightblue" d="M456.2,-23C456.2,-23 466.4,-23 466.4,-23 471.5,-23 476.6,-28.1 476.6,-33.2 476.6,-33.2 476.6,-60.8 476.6,-60.8 476.6,-65.9 471.5,-71 466.4,-71 466.4,-71 456.2,-71 456.2,-71 451.1,-71 446,-65.9 446,-60.8 446,-60.8 446,-33.2 446,-33.2 446,-28.1 451.1,-23 456.2,-23"/>
<text text-anchor="middle" x="461.3" y="-59" font-family="Times,serif" font-size="10.00">CX</text>
</g>
<g id="clust36" class="cluster">
<title>cluster_35</title>
<path fill="lightblue" stroke="lightblue" d="M499.6,-8C499.6,-8 524.2,-8 524.2,-8 529.7,-8 535.2,-13.5 535.2,-19 535.2,-19 535.2,-30 535.2,-30 535.2,-35.5 529.7,-41 524.2,-41 524.2,-41 499.6,-41 499.6,-41 494.1,-41 488.6,-35.5 488.6,-30 488.6,-30 488.6,-19 488.6,-19 488.6,-13.5 494.1,-8 499.6,-8"/>
<text text-anchor="middle" x="511.9" y="-29" font-family="Times,serif" font-size="10.00">Rz(3.4)</text>
</g>
<g id="clust37" class="cluster">
<title>cluster_36</title>
<path fill="lightblue" stroke="lightblue" d="M557.4,-23C557.4,-23 567.6,-23 567.6,-23 572.7,-23 577.8,-28.1 577.8,-33.2 577.8,-33.2 577.8,-60.8 577.8,-60.8 577.8,-65.9 572.7,-71 567.6,-71 567.6,-71 557.4,-71 557.4,-71 552.3,-71 547.2,-65.9 547.2,-60.8 547.2,-60.8 547.2,-33.2 547.2,-33.2 547.2,-28.1 552.3,-23 557.4,-23"/>
<text text-anchor="middle" x="562.5" y="-59" font-family="Times,serif" font-size="10.00">CX</text>
</g>
<g id="clust38" class="cluster">
<title>cluster_37</title>
<path fill="lightblue" stroke="lightblue" d="M600,-59C600,-59 610.2,-59 610.2,-59 615.3,-59 620.4,-64.1 620.4,-69.2 620.4,-69.2 620.4,-96.8 620.4,-96.8 620.4,-101.9 615.3,-107 610.2,-107 610.2,-107 600,-107 600,-107 594.9,-107 589.8,-101.9 589.8,-96.8 589.8,-96.8 589.8,-69.2 589.8,-69.2 589.8,-64.1 594.9,-59 600,-59"/>
<text text-anchor="middle" x="605.1" y="-95" font-family="Times,serif" font-size="10.00">CX</text>
</g>
<!-- (0, 0) -->
<g id="node1" class="node">
<title>(0, 0)</title>
<ellipse fill="blue" stroke="blue" cx="20.8" cy="-86" rx="1.8" ry="1.8"/>
<text text-anchor="middle" x="9.5" y="-77.8" font-family="Courier,monospace" font-size="8.00">q[0]</text>
</g>
<!-- (21, 0) -->
<g id="node22" class="node">
<title>(21, 0)</title>
<ellipse fill="black" stroke="black" cx="101" cy="-107" rx="1.8" ry="1.8"/>
</g>
<!-- (0, 0)&#45;&gt;(21, 0) -->
<g id="edge1" class="edge">
<title>(0, 0)&#45;&gt;(21, 0)</title>
<path fill="none" stroke="blue" d="M22.68,-86.81C25.14,-89.03 32.37,-95.19 39.6,-98 60.38,-106.07 87.77,-106.96 96.89,-107.01"/>
<polygon fill="blue" stroke="blue" points="99.11,-107.01 97.11,-108.14 98.11,-107.01 97.11,-107.01 97.11,-107.01 97.11,-107.01 98.11,-107.01 97.11,-105.89 99.11,-107.01 99.11,-107.01"/>
</g>
<!-- (1, 0) -->
<g id="node2" class="node">
<title>(1, 0)</title>
<ellipse fill="blue" stroke="blue" cx="20.8" cy="-71" rx="1.8" ry="1.8"/>
<text text-anchor="middle" x="9.5" y="-62.8" font-family="Courier,monospace" font-size="8.00">q[1]</text>
</g>
<!-- (18, 0) -->
<g id="node19" class="node">
<title>(18, 0)</title>
<ellipse fill="black" stroke="black" cx="51.4" cy="-71" rx="1.8" ry="1.8"/>
</g>
<!-- (1, 0)&#45;&gt;(18, 0) -->
<g id="edge2" class="edge">
<title>(1, 0)&#45;&gt;(18, 0)</title>
<path fill="none" stroke="blue" d="M23.03,-71C27.22,-71 41.04,-71 47.28,-71"/>
<polygon fill="blue" stroke="blue" points="49.45,-71 47.45,-72.13 48.45,-71 47.45,-71 47.45,-71 47.45,-71 48.45,-71 47.45,-69.88 49.45,-71 49.45,-71"/>
</g>
<!-- (2, 0) -->
<g id="node3" class="node">
<title>(2, 0)</title>
<ellipse fill="blue" stroke="blue" cx="20.8" cy="-56" rx="1.8" ry="1.8"/>
<text text-anchor="middle" x="9.5" y="-47.8" font-family="Courier,monospace" font-size="8.00">q[2]</text>
</g>
<!-- (19, 0) -->
<g id="node20" class="node">
<title>(19, 0)</title>
<ellipse fill="black" stroke="black" cx="153.6" cy="-52" rx="1.8" ry="1.8"/>
</g>
<!-- (2, 0)&#45;&gt;(19, 0) -->
<g id="edge3" class="edge">
<title>(2, 0)&#45;&gt;(19, 0)</title>
<path fill="none" stroke="blue" d="M22.64,-55.97C32.59,-55.67 128.52,-52.74 148.83,-52.12"/>
<polygon fill="blue" stroke="blue" points="151.26,-52.04 149.3,-53.23 150.26,-52.07 149.26,-52.1 149.26,-52.1 149.26,-52.1 150.26,-52.07 149.23,-50.98 151.26,-52.04 151.26,-52.04"/>
</g>
<!-- (3, 0) -->
<g id="node4" class="node">
<title>(3, 0)</title>
<ellipse fill="blue" stroke="blue" cx="828.2" cy="-48" rx="1.8" ry="1.8"/>
<text text-anchor="middle" x="816.9" y="-39.8" font-family="Courier,monospace" font-size="8.00">q[0]</text>
</g>
<!-- (4, 0) -->
<g id="node5" class="node">
<title>(4, 0)</title>
<ellipse fill="blue" stroke="blue" cx="828.2" cy="-63" rx="1.8" ry="1.8"/>
<text text-anchor="middle" x="816.9" y="-54.8" font-family="Courier,monospace" font-size="8.00">q[1]</text>
</g>
<!-- (5, 0) -->
<g id="node6" class="node">
<title>(5, 0)</title>
<ellipse fill="blue" stroke="blue" cx="828.2" cy="-78" rx="1.8" ry="1.8"/>
<text text-anchor="middle" x="816.9" y="-69.8" font-family="Courier,monospace" font-size="8.00">q[2]</text>
</g>
<!-- (6, 0) -->
<g id="node7" class="node">
<title>(6, 0)</title>
<ellipse fill="black" stroke="black" cx="797.6" cy="-30" rx="1.8" ry="1.8"/>
</g>
<!-- (6, 0)&#45;&gt;(3, 0) -->
<g id="edge4" class="edge">
<title>(6, 0)&#45;&gt;(3, 0)</title>
<path fill="none" stroke="blue" d="M799.83,-30.77C804.09,-33.46 818.33,-42.42 824.41,-46.25"/>
<polygon fill="blue" stroke="blue" points="826.25,-47.4 823.96,-47.29 825.4,-46.87 824.56,-46.34 824.56,-46.34 824.56,-46.34 825.4,-46.87 825.16,-45.38 826.25,-47.4 826.25,-47.4"/>
</g>
<!-- (7, 0) -->
<g id="node8" class="node">
<title>(7, 0)</title>
<ellipse fill="black" stroke="black" cx="797.6" cy="-63" rx="1.8" ry="1.8"/>
</g>
<!-- (7, 0)&#45;&gt;(4, 0) -->
<g id="edge5" class="edge">
<title>(7, 0)&#45;&gt;(4, 0)</title>
<path fill="none" stroke="blue" d="M799.83,-63C804.02,-63 817.84,-63 824.08,-63"/>
<polygon fill="blue" stroke="blue" points="826.25,-63 824.25,-64.13 825.25,-63 824.25,-63 824.25,-63 824.25,-63 825.25,-63 824.25,-61.88 826.25,-63 826.25,-63"/>
</g>
<!-- (8, 0) -->
<g id="node9" class="node">
<title>(8, 0)</title>
<ellipse fill="black" stroke="black" cx="762" cy="-99" rx="1.8" ry="1.8"/>
</g>
<!-- (8, 0)&#45;&gt;(5, 0) -->
<g id="edge6" class="edge">
<title>(8, 0)&#45;&gt;(5, 0)</title>
<path fill="none" stroke="blue" d="M764.2,-98.94C769.63,-98.65 792.42,-97.03 809.4,-90 815.22,-87.59 821.11,-83.13 824.45,-80.38"/>
<polygon fill="blue" stroke="blue" points="826.31,-78.79 825.52,-80.95 825.55,-79.44 824.79,-80.09 824.79,-80.09 824.79,-80.09 825.55,-79.44 824.06,-79.23 826.31,-78.79 826.31,-78.79"/>
</g>
<!-- (9, 0) -->
<g id="node10" class="node">
<title>(9, 0)</title>
<ellipse fill="black" stroke="black" cx="762" cy="-30" rx="1.8" ry="1.8"/>
</g>
<!-- (9, 0)&#45;&gt;(6, 0) -->
<g id="edge7" class="edge">
<title>(9, 0)&#45;&gt;(6, 0)</title>
<path fill="none" stroke="blue" d="M763.83,-30C767.86,-30 785.51,-30 793.11,-30"/>
<polygon fill="blue" stroke="blue" points="795.4,-30 793.4,-31.13 794.4,-30 793.4,-30 793.4,-30 793.4,-30 794.4,-30 793.4,-28.88 795.4,-30 795.4,-30"/>
</g>
<!-- (10, 0) -->
<g id="node11" class="node">
<title>(10, 0)</title>
<ellipse fill="black" stroke="black" cx="762" cy="-64" rx="1.8" ry="1.8"/>
</g>
<!-- (10, 0)&#45;&gt;(7, 0) -->
<g id="edge8" class="edge">
<title>(10, 0)&#45;&gt;(7, 0)</title>
<path fill="none" stroke="blue" d="M763.83,-63.98C767.86,-63.86 785.51,-63.33 793.11,-63.1"/>
<polygon fill="blue" stroke="blue" points="795.4,-63.04 793.44,-64.22 794.4,-63.07 793.41,-63.1 793.41,-63.1 793.41,-63.1 794.4,-63.07 793.37,-61.97 795.4,-63.04 795.4,-63.04"/>
</g>
<!-- (11, 0) -->
<g id="node12" class="node">
<title>(11, 0)</title>
<ellipse fill="black" stroke="black" cx="726.4" cy="-98" rx="1.8" ry="1.8"/>
</g>
<!-- (11, 0)&#45;&gt;(8, 0) -->
<g id="edge9" class="edge">
<title>(11, 0)&#45;&gt;(8, 0)</title>
<path fill="none" stroke="blue" d="M728.23,-98.02C732.26,-98.14 749.91,-98.67 757.51,-98.9"/>
<polygon fill="blue" stroke="blue" points="759.8,-98.96 757.77,-100.03 758.8,-98.93 757.81,-98.9 757.81,-98.9 757.81,-98.9 758.8,-98.93 757.84,-97.78 759.8,-98.96 759.8,-98.96"/>
</g>
<!-- (12, 0) -->
<g id="node13" class="node">
<title>(12, 0)</title>
<ellipse fill="black" stroke="black" cx="726.4" cy="-30" rx="1.8" ry="1.8"/>
</g>
<!-- (12, 0)&#45;&gt;(9, 0) -->
<g id="edge10" class="edge">
<title>(12, 0)&#45;&gt;(9, 0)</title>
<path fill="none" stroke="blue" d="M728.23,-30C732.26,-30 749.91,-30 757.51,-30"/>
<polygon fill="blue" stroke="blue" points="759.8,-30 757.8,-31.13 758.8,-30 757.8,-30 757.8,-30 757.8,-30 758.8,-30 757.8,-28.88 759.8,-30 759.8,-30"/>
</g>
<!-- (13, 0) -->
<g id="node14" class="node">
<title>(13, 0)</title>
<ellipse fill="black" stroke="black" cx="726.4" cy="-64" rx="1.8" ry="1.8"/>
</g>
<!-- (13, 0)&#45;&gt;(10, 0) -->
<g id="edge11" class="edge">
<title>(13, 0)&#45;&gt;(10, 0)</title>
<path fill="none" stroke="blue" d="M728.23,-64C732.26,-64 749.91,-64 757.51,-64"/>
<polygon fill="blue" stroke="blue" points="759.8,-64 757.8,-65.13 758.8,-64 757.8,-64 757.8,-64 757.8,-64 758.8,-64 757.8,-62.88 759.8,-64 759.8,-64"/>
</g>
<!-- (14, 0) -->
<g id="node15" class="node">
<title>(14, 0)</title>
<ellipse fill="black" stroke="black" cx="690.8" cy="-97" rx="1.8" ry="1.8"/>
</g>
<!-- (14, 0)&#45;&gt;(11, 0) -->
<g id="edge12" class="edge">
<title>(14, 0)&#45;&gt;(11, 0)</title>
<path fill="none" stroke="blue" d="M692.63,-97.02C696.66,-97.14 714.31,-97.67 721.91,-97.9"/>
<polygon fill="blue" stroke="blue" points="724.2,-97.96 722.17,-99.03 723.2,-97.93 722.21,-97.9 722.21,-97.9 722.21,-97.9 723.2,-97.93 722.24,-96.78 724.2,-97.96 724.2,-97.96"/>
</g>
<!-- (15, 0) -->
<g id="node16" class="node">
<title>(15, 0)</title>
<ellipse fill="black" stroke="black" cx="690.8" cy="-30" rx="1.8" ry="1.8"/>
</g>
<!-- (15, 0)&#45;&gt;(12, 0) -->
<g id="edge13" class="edge">
<title>(15, 0)&#45;&gt;(12, 0)</title>
<path fill="none" stroke="blue" d="M692.63,-30C696.66,-30 714.31,-30 721.91,-30"/>
<polygon fill="blue" stroke="blue" points="724.2,-30 722.2,-31.13 723.2,-30 722.2,-30 722.2,-30 722.2,-30 723.2,-30 722.2,-28.88 724.2,-30 724.2,-30"/>
</g>
<!-- (16, 0) -->
<g id="node17" class="node">
<title>(16, 0)</title>
<ellipse fill="black" stroke="black" cx="690.8" cy="-64" rx="1.8" ry="1.8"/>
</g>
<!-- (16, 0)&#45;&gt;(13, 0) -->
<g id="edge14" class="edge">
<title>(16, 0)&#45;&gt;(13, 0)</title>
<path fill="none" stroke="blue" d="M692.63,-64C696.66,-64 714.31,-64 721.91,-64"/>
<polygon fill="blue" stroke="blue" points="724.2,-64 722.2,-65.13 723.2,-64 722.2,-64 722.2,-64 722.2,-64 723.2,-64 722.2,-62.88 724.2,-64 724.2,-64"/>
</g>
<!-- (17, 0) -->
<g id="node18" class="node">
<title>(17, 0)</title>
<ellipse fill="black" stroke="black" cx="649.2" cy="-97" rx="1.8" ry="1.8"/>
</g>
<!-- (17, 0)&#45;&gt;(14, 0) -->
<g id="edge15" class="edge">
<title>(17, 0)&#45;&gt;(14, 0)</title>
<path fill="none" stroke="blue" d="M651.18,-97C656.1,-97 678.24,-97 686.59,-97"/>
<polygon fill="blue" stroke="blue" points="688.99,-97 686.99,-98.13 687.99,-97 686.99,-97 686.99,-97 686.99,-97 687.99,-97 686.99,-95.88 688.99,-97 688.99,-97"/>
</g>
<!-- (20, 0) -->
<g id="node21" class="node">
<title>(20, 0)</title>
<ellipse fill="black" stroke="black" cx="101" cy="-72" rx="1.8" ry="1.8"/>
</g>
<!-- (18, 0)&#45;&gt;(20, 0) -->
<g id="edge16" class="edge">
<title>(18, 0)&#45;&gt;(20, 0)</title>
<path fill="none" stroke="blue" d="M53.23,-71.02C58.42,-71.13 86.63,-71.72 96.55,-71.93"/>
<polygon fill="blue" stroke="blue" points="98.99,-71.98 96.97,-73.06 98,-71.96 97,-71.94 97,-71.94 97,-71.94 98,-71.96 97.02,-70.81 98.99,-71.98 98.99,-71.98"/>
</g>
<!-- (23, 0) -->
<g id="node25" class="node">
<title>(23, 0)</title>
<ellipse fill="black" stroke="black" cx="196.2" cy="-52" rx="1.8" ry="1.8"/>
<text text-anchor="middle" x="191.9" y="-43.8" font-family="Helvetica,sans-Serif" font-size="8.00">0</text>
</g>
<!-- (19, 0)&#45;&gt;(23, 0) -->
<g id="edge17" class="edge">
<title>(19, 0)&#45;&gt;(23, 0)</title>
<path fill="none" stroke="blue" d="M155.6,-52C160.74,-52 184.15,-52 192.35,-52"/>
<polygon fill="blue" stroke="blue" points="194.37,-52 192.37,-53.13 193.37,-52 192.37,-52 192.37,-52 192.37,-52 193.37,-52 192.37,-50.88 194.37,-52 194.37,-52"/>
</g>
<!-- (22, 0) -->
<g id="node23" class="node">
<title>(22, 0)</title>
<ellipse fill="black" stroke="black" cx="153.6" cy="-87" rx="1.8" ry="1.8"/>
<text text-anchor="middle" x="149.3" y="-78.8" font-family="Helvetica,sans-Serif" font-size="8.00">0</text>
</g>
<!-- (20, 0)&#45;&gt;(22, 0) -->
<g id="edge18" class="edge">
<title>(20, 0)&#45;&gt;(22, 0)</title>
<path fill="none" stroke="blue" d="M102.88,-72.26C108.49,-73.92 139.43,-83.1 149.46,-86.07"/>
<polygon fill="blue" stroke="blue" points="151.53,-86.68 149.29,-87.19 150.57,-86.4 149.61,-86.11 149.61,-86.11 149.61,-86.11 150.57,-86.4 149.93,-85.04 151.53,-86.68 151.53,-86.68"/>
</g>
<!-- (22, 1) -->
<g id="node24" class="node">
<title>(22, 1)</title>
<ellipse fill="black" stroke="black" cx="153.6" cy="-102" rx="1.8" ry="1.8"/>
<text text-anchor="middle" x="149.3" y="-93.8" font-family="Helvetica,sans-Serif" font-size="8.00">1</text>
</g>
<!-- (21, 0)&#45;&gt;(22, 1) -->
<g id="edge19" class="edge">
<title>(21, 0)&#45;&gt;(22, 1)</title>
<path fill="none" stroke="blue" d="M102.88,-106.91C108.49,-106.36 139.43,-103.3 149.46,-102.31"/>
<polygon fill="blue" stroke="blue" points="151.53,-102.11 149.65,-103.42 150.54,-102.2 149.54,-102.3 149.54,-102.3 149.54,-102.3 150.54,-102.2 149.43,-101.18 151.53,-102.11 151.53,-102.11"/>
</g>
<!-- (26, 0) -->
<g id="node30" class="node">
<title>(26, 0)</title>
<ellipse fill="black" stroke="black" cx="297.4" cy="-89" rx="1.8" ry="1.8"/>
<text text-anchor="middle" x="293.1" y="-80.8" font-family="Helvetica,sans-Serif" font-size="8.00">0</text>
</g>
<!-- (22, 0)&#45;&gt;(26, 0) -->
<g id="edge21" class="edge">
<title>(22, 0)&#45;&gt;(26, 0)</title>
<path fill="none" stroke="blue" d="M155.6,-87.36C159.1,-88.6 171.1,-92.68 181.4,-94 220.72,-99.05 231.14,-97.79 270.6,-94 278.88,-93.21 288.45,-91.01 293.27,-89.81"/>
<polygon fill="blue" stroke="blue" points="295.43,-89.26 293.77,-90.84 294.46,-89.51 293.49,-89.75 293.49,-89.75 293.49,-89.75 294.46,-89.51 293.21,-88.66 295.43,-89.26 295.43,-89.26"/>
</g>
<!-- (23, 1) -->
<g id="node26" class="node">
<title>(23, 1)</title>
<ellipse fill="black" stroke="black" cx="196.2" cy="-67" rx="1.8" ry="1.8"/>
<text text-anchor="middle" x="191.9" y="-58.8" font-family="Helvetica,sans-Serif" font-size="8.00">1</text>
</g>
<!-- (22, 1)&#45;&gt;(23, 1) -->
<g id="edge20" class="edge">
<title>(22, 1)&#45;&gt;(23, 1)</title>
<path fill="none" stroke="blue" d="M155.46,-101.65C157.82,-100.66 164.57,-97.69 169.4,-94 179.32,-86.43 188.9,-74.99 193.05,-69.77"/>
<polygon fill="blue" stroke="blue" points="194.32,-68.15 193.97,-70.42 193.71,-68.94 193.09,-69.72 193.09,-69.72 193.09,-69.72 193.71,-68.94 192.2,-69.03 194.32,-68.15 194.32,-68.15"/>
</g>
<!-- (25, 0) -->
<g id="node28" class="node">
<title>(25, 0)</title>
<ellipse fill="black" stroke="black" cx="340" cy="-48" rx="1.8" ry="1.8"/>
<text text-anchor="middle" x="335.7" y="-39.8" font-family="Helvetica,sans-Serif" font-size="8.00">0</text>
</g>
<!-- (23, 0)&#45;&gt;(25, 0) -->
<g id="edge23" class="edge">
<title>(23, 0)&#45;&gt;(25, 0)</title>
<path fill="none" stroke="blue" d="M198.11,-51.97C209.08,-51.66 316.39,-48.64 335.95,-48.09"/>
<polygon fill="blue" stroke="blue" points="338.18,-48.02 336.21,-49.2 337.18,-48.05 336.18,-48.08 336.18,-48.08 336.18,-48.08 337.18,-48.05 336.15,-46.96 338.18,-48.02 338.18,-48.02"/>
</g>
<!-- (24, 0) -->
<g id="node27" class="node">
<title>(24, 0)</title>
<ellipse fill="black" stroke="black" cx="246.8" cy="-67" rx="1.8" ry="1.8"/>
</g>
<!-- (23, 1)&#45;&gt;(24, 0) -->
<g id="edge22" class="edge">
<title>(23, 1)&#45;&gt;(24, 0)</title>
<path fill="none" stroke="blue" d="M198.04,-67C203.39,-67 232.65,-67 242.54,-67"/>
<polygon fill="blue" stroke="blue" points="244.77,-67 242.77,-68.13 243.77,-67 242.77,-67 242.77,-67 242.77,-67 243.77,-67 242.77,-65.88 244.77,-67 244.77,-67"/>
</g>
<!-- (26, 1) -->
<g id="node31" class="node">
<title>(26, 1)</title>
<ellipse fill="black" stroke="black" cx="297.4" cy="-74" rx="1.8" ry="1.8"/>
<text text-anchor="middle" x="293.1" y="-65.8" font-family="Helvetica,sans-Serif" font-size="8.00">1</text>
</g>
<!-- (24, 0)&#45;&gt;(26, 1) -->
<g id="edge24" class="edge">
<title>(24, 0)&#45;&gt;(26, 1)</title>
<path fill="none" stroke="blue" d="M248.64,-67.12C254.04,-67.9 283.75,-72.18 293.38,-73.57"/>
<polygon fill="blue" stroke="blue" points="295.37,-73.85 293.23,-74.68 294.38,-73.71 293.39,-73.57 293.39,-73.57 293.39,-73.57 294.38,-73.71 293.55,-72.45 295.37,-73.85 295.37,-73.85"/>
</g>
<!-- (28, 0) -->
<g id="node33" class="node">
<title>(28, 0)</title>
<ellipse fill="black" stroke="black" cx="379.6" cy="-63" rx="1.8" ry="1.8"/>
</g>
<!-- (25, 0)&#45;&gt;(28, 0) -->
<g id="edge25" class="edge">
<title>(25, 0)&#45;&gt;(28, 0)</title>
<path fill="none" stroke="blue" d="M341.93,-48.37C346.52,-50.2 366.89,-58.33 375.13,-61.61"/>
<polygon fill="blue" stroke="blue" points="377.26,-62.47 374.99,-62.77 376.33,-62.1 375.4,-61.73 375.4,-61.73 375.4,-61.73 376.33,-62.1 375.82,-60.68 377.26,-62.47 377.26,-62.47"/>
</g>
<!-- (25, 1) -->
<g id="node29" class="node">
<title>(25, 1)</title>
<ellipse fill="black" stroke="black" cx="340" cy="-63" rx="1.8" ry="1.8"/>
<text text-anchor="middle" x="335.7" y="-54.8" font-family="Helvetica,sans-Serif" font-size="8.00">1</text>
</g>
<!-- (29, 0) -->
<g id="node34" class="node">
<title>(29, 0)</title>
<ellipse fill="black" stroke="black" cx="379.6" cy="-30" rx="1.8" ry="1.8"/>
</g>
<!-- (25, 1)&#45;&gt;(29, 0) -->
<g id="edge26" class="edge">
<title>(25, 1)&#45;&gt;(29, 0)</title>
<path fill="none" stroke="blue" d="M341.86,-62.66C344.23,-61.68 351.01,-58.74 355.8,-55 364.55,-48.16 372.81,-37.79 376.53,-32.84"/>
<polygon fill="blue" stroke="blue" points="377.84,-31.07 377.55,-33.35 377.24,-31.87 376.65,-32.68 376.65,-32.68 376.65,-32.68 377.24,-31.87 375.74,-32.01 377.84,-31.07 377.84,-31.07"/>
</g>
<!-- (27, 0) -->
<g id="node32" class="node">
<title>(27, 0)</title>
<ellipse fill="black" stroke="black" cx="340" cy="-96" rx="1.8" ry="1.8"/>
</g>
<!-- (26, 0)&#45;&gt;(27, 0) -->
<g id="edge28" class="edge">
<title>(26, 0)&#45;&gt;(27, 0)</title>
<path fill="none" stroke="blue" d="M299.4,-89.17C304.54,-90.06 327.95,-94.09 336.15,-95.51"/>
<polygon fill="blue" stroke="blue" points="338.17,-95.86 336.01,-96.63 337.19,-95.69 336.2,-95.52 336.2,-95.52 336.2,-95.52 337.19,-95.69 336.39,-94.41 338.17,-95.86 338.17,-95.86"/>
</g>
<!-- (26, 1)&#45;&gt;(25, 1) -->
<g id="edge27" class="edge">
<title>(26, 1)&#45;&gt;(25, 1)</title>
<path fill="none" stroke="blue" d="M299.4,-73.73C304.54,-72.34 327.95,-65.99 336.15,-63.77"/>
<polygon fill="blue" stroke="blue" points="338.17,-63.22 336.53,-64.83 337.21,-63.49 336.24,-63.75 336.24,-63.75 336.24,-63.75 337.21,-63.49 335.95,-62.66 338.17,-63.22 338.17,-63.22"/>
</g>
<!-- (30, 0) -->
<g id="node35" class="node">
<title>(30, 0)</title>
<ellipse fill="black" stroke="black" cx="379.6" cy="-96" rx="1.8" ry="1.8"/>
</g>
<!-- (27, 0)&#45;&gt;(30, 0) -->
<g id="edge29" class="edge">
<title>(27, 0)&#45;&gt;(30, 0)</title>
<path fill="none" stroke="blue" d="M341.93,-96C346.52,-96 366.89,-96 375.13,-96"/>
<polygon fill="blue" stroke="blue" points="377.26,-96 375.26,-97.13 376.26,-96 375.26,-96 375.26,-96 375.26,-96 376.26,-96 375.26,-94.88 377.26,-96 377.26,-96"/>
</g>
<!-- (33, 0) -->
<g id="node38" class="node">
<title>(33, 0)</title>
<ellipse fill="black" stroke="black" cx="418.2" cy="-72" rx="1.8" ry="1.8"/>
<text text-anchor="middle" x="413.9" y="-63.8" font-family="Helvetica,sans-Serif" font-size="8.00">0</text>
</g>
<!-- (28, 0)&#45;&gt;(33, 0) -->
<g id="edge30" class="edge">
<title>(28, 0)&#45;&gt;(33, 0)</title>
<path fill="none" stroke="blue" d="M381.5,-63.22C385.97,-64.32 405.8,-69.2 413.82,-71.17"/>
<polygon fill="blue" stroke="blue" points="415.9,-71.68 413.69,-72.29 414.93,-71.44 413.96,-71.2 413.96,-71.2 413.96,-71.2 414.93,-71.44 414.22,-70.11 415.9,-71.68 415.9,-71.68"/>
</g>
<!-- (34, 1) -->
<g id="node41" class="node">
<title>(34, 1)</title>
<ellipse fill="black" stroke="black" cx="460.8" cy="-30" rx="1.8" ry="1.8"/>
<text text-anchor="middle" x="456.5" y="-21.8" font-family="Helvetica,sans-Serif" font-size="8.00">1</text>
</g>
<!-- (29, 0)&#45;&gt;(34, 1) -->
<g id="edge31" class="edge">
<title>(29, 0)&#45;&gt;(34, 1)</title>
<path fill="none" stroke="blue" d="M381.49,-30C389.07,-30 442.93,-30 456.63,-30"/>
<polygon fill="blue" stroke="blue" points="458.81,-30 456.81,-31.13 457.81,-30 456.81,-30 456.81,-30 456.81,-30 457.81,-30 456.81,-28.88 458.81,-30 458.81,-30"/>
</g>
<!-- (33, 1) -->
<g id="node39" class="node">
<title>(33, 1)</title>
<ellipse fill="black" stroke="black" cx="418.2" cy="-87" rx="1.8" ry="1.8"/>
<text text-anchor="middle" x="413.9" y="-78.8" font-family="Helvetica,sans-Serif" font-size="8.00">1</text>
</g>
<!-- (30, 0)&#45;&gt;(33, 1) -->
<g id="edge32" class="edge">
<title>(30, 0)&#45;&gt;(33, 1)</title>
<path fill="none" stroke="blue" d="M381.5,-95.78C385.97,-94.68 405.8,-89.8 413.82,-87.83"/>
<polygon fill="blue" stroke="blue" points="415.9,-87.32 414.22,-88.89 414.93,-87.56 413.96,-87.8 413.96,-87.8 413.96,-87.8 414.93,-87.56 413.69,-86.71 415.9,-87.32 415.9,-87.32"/>
</g>
<!-- (31, 0) -->
<g id="node36" class="node">
<title>(31, 0)</title>
<ellipse fill="black" stroke="black" cx="649.2" cy="-30" rx="1.8" ry="1.8"/>
</g>
<!-- (31, 0)&#45;&gt;(15, 0) -->
<g id="edge33" class="edge">
<title>(31, 0)&#45;&gt;(15, 0)</title>
<path fill="none" stroke="blue" d="M651.18,-30C656.1,-30 678.24,-30 686.59,-30"/>
<polygon fill="blue" stroke="blue" points="688.99,-30 686.99,-31.13 687.99,-30 686.99,-30 686.99,-30 686.99,-30 687.99,-30 686.99,-28.88 688.99,-30 688.99,-30"/>
</g>
<!-- (32, 0) -->
<g id="node37" class="node">
<title>(32, 0)</title>
<ellipse fill="black" stroke="black" cx="649.2" cy="-64" rx="1.8" ry="1.8"/>
</g>
<!-- (32, 0)&#45;&gt;(16, 0) -->
<g id="edge34" class="edge">
<title>(32, 0)&#45;&gt;(16, 0)</title>
<path fill="none" stroke="blue" d="M651.18,-64C656.1,-64 678.24,-64 686.59,-64"/>
<polygon fill="blue" stroke="blue" points="688.99,-64 686.99,-65.13 687.99,-64 686.99,-64 686.99,-64 686.99,-64 687.99,-64 686.99,-62.88 688.99,-64 688.99,-64"/>
</g>
<!-- (37, 0) -->
<g id="node45" class="node">
<title>(37, 0)</title>
<ellipse fill="black" stroke="black" cx="604.6" cy="-81" rx="1.8" ry="1.8"/>
<text text-anchor="middle" x="600.3" y="-72.8" font-family="Helvetica,sans-Serif" font-size="8.00">0</text>
</g>
<!-- (33, 0)&#45;&gt;(37, 0) -->
<g id="edge35" class="edge">
<title>(33, 0)&#45;&gt;(37, 0)</title>
<path fill="none" stroke="blue" d="M420.02,-72.04C432.26,-72.64 577.24,-79.71 600.47,-80.85"/>
<polygon fill="blue" stroke="blue" points="602.51,-80.95 600.46,-81.97 601.51,-80.9 600.51,-80.85 600.51,-80.85 600.51,-80.85 601.51,-80.9 600.57,-79.73 602.51,-80.95 602.51,-80.95"/>
</g>
<!-- (34, 0) -->
<g id="node40" class="node">
<title>(34, 0)</title>
<ellipse fill="black" stroke="black" cx="460.8" cy="-45" rx="1.8" ry="1.8"/>
<text text-anchor="middle" x="456.5" y="-36.8" font-family="Helvetica,sans-Serif" font-size="8.00">0</text>
</g>
<!-- (33, 1)&#45;&gt;(34, 0) -->
<g id="edge36" class="edge">
<title>(33, 1)&#45;&gt;(34, 0)</title>
<path fill="none" stroke="blue" d="M420.08,-86.68C422.5,-85.76 429.39,-82.95 434,-79 445.02,-69.55 454.29,-54.65 458.03,-48.18"/>
<polygon fill="blue" stroke="blue" points="459.15,-46.2 459.14,-48.49 458.65,-47.07 458.16,-47.94 458.16,-47.94 458.16,-47.94 458.65,-47.07 457.18,-47.38 459.15,-46.2 459.15,-46.2"/>
</g>
<!-- (36, 0) -->
<g id="node43" class="node">
<title>(36, 0)</title>
<ellipse fill="black" stroke="black" cx="562" cy="-45" rx="1.8" ry="1.8"/>
<text text-anchor="middle" x="557.7" y="-36.8" font-family="Helvetica,sans-Serif" font-size="8.00">0</text>
</g>
<!-- (34, 0)&#45;&gt;(36, 0) -->
<g id="edge38" class="edge">
<title>(34, 0)&#45;&gt;(36, 0)</title>
<path fill="none" stroke="blue" d="M462.91,-45C472.57,-45 542.15,-45 557.86,-45"/>
<polygon fill="blue" stroke="blue" points="560.02,-45 558.02,-46.13 559.02,-45 558.02,-45 558.02,-45 558.02,-45 559.02,-45 558.02,-43.88 560.02,-45 560.02,-45"/>
</g>
<!-- (35, 0) -->
<g id="node42" class="node">
<title>(35, 0)</title>
<ellipse fill="black" stroke="black" cx="511.4" cy="-15" rx="1.8" ry="1.8"/>
</g>
<!-- (34, 1)&#45;&gt;(35, 0) -->
<g id="edge37" class="edge">
<title>(34, 1)&#45;&gt;(35, 0)</title>
<path fill="none" stroke="blue" d="M462.64,-29.74C468.04,-28.08 497.75,-18.9 507.38,-15.93"/>
<polygon fill="blue" stroke="blue" points="509.37,-15.32 507.79,-16.98 508.42,-15.61 507.46,-15.91 507.46,-15.91 507.46,-15.91 508.42,-15.61 507.13,-14.83 509.37,-15.32 509.37,-15.32"/>
</g>
<!-- (36, 1) -->
<g id="node44" class="node">
<title>(36, 1)</title>
<ellipse fill="black" stroke="black" cx="562" cy="-30" rx="1.8" ry="1.8"/>
<text text-anchor="middle" x="557.7" y="-21.8" font-family="Helvetica,sans-Serif" font-size="8.00">1</text>
</g>
<!-- (35, 0)&#45;&gt;(36, 1) -->
<g id="edge39" class="edge">
<title>(35, 0)&#45;&gt;(36, 1)</title>
<path fill="none" stroke="blue" d="M513.24,-15.26C518.64,-16.92 548.35,-26.1 557.98,-29.07"/>
<polygon fill="blue" stroke="blue" points="559.97,-29.68 557.73,-30.17 559.02,-29.39 558.06,-29.09 558.06,-29.09 558.06,-29.09 559.02,-29.39 558.39,-28.02 559.97,-29.68 559.97,-29.68"/>
</g>
<!-- (37, 1) -->
<g id="node46" class="node">
<title>(37, 1)</title>
<ellipse fill="black" stroke="black" cx="604.6" cy="-66" rx="1.8" ry="1.8"/>
<text text-anchor="middle" x="600.3" y="-57.8" font-family="Helvetica,sans-Serif" font-size="8.00">1</text>
</g>
<!-- (36, 0)&#45;&gt;(37, 1) -->
<g id="edge41" class="edge">
<title>(36, 0)&#45;&gt;(37, 1)</title>
<path fill="none" stroke="blue" d="M564,-45.52C569.14,-48.18 592.55,-60.28 600.75,-64.53"/>
<polygon fill="blue" stroke="blue" points="602.77,-65.57 600.48,-65.65 601.88,-65.11 600.99,-64.65 600.99,-64.65 600.99,-64.65 601.88,-65.11 601.51,-63.65 602.77,-65.57 602.77,-65.57"/>
</g>
<!-- (36, 1)&#45;&gt;(31, 0) -->
<g id="edge40" class="edge">
<title>(36, 1)&#45;&gt;(31, 0)</title>
<path fill="none" stroke="blue" d="M563.96,-30C572.18,-30 631.03,-30 645.16,-30"/>
<polygon fill="blue" stroke="blue" points="647.36,-30 645.36,-31.13 646.36,-30 645.36,-30 645.36,-30 645.36,-30 646.36,-30 645.36,-28.88 647.36,-30 647.36,-30"/>
</g>
<!-- (37, 0)&#45;&gt;(17, 0) -->
<g id="edge42" class="edge">
<title>(37, 0)&#45;&gt;(17, 0)</title>
<path fill="none" stroke="blue" d="M606.65,-81.4C612.04,-83.42 636.6,-92.64 645.21,-95.88"/>
<polygon fill="blue" stroke="blue" points="647.33,-96.67 645.06,-97.02 646.39,-96.32 645.46,-95.97 645.46,-95.97 645.46,-95.97 646.39,-96.32 645.85,-94.92 647.33,-96.67 647.33,-96.67"/>
</g>
<!-- (37, 1)&#45;&gt;(32, 0) -->
<g id="edge43" class="edge">
<title>(37, 1)&#45;&gt;(32, 0)</title>
<path fill="none" stroke="blue" d="M606.65,-65.95C612.04,-65.7 636.6,-64.54 645.21,-64.14"/>
<polygon fill="blue" stroke="blue" points="647.33,-64.04 645.38,-65.26 646.33,-64.09 645.33,-64.13 645.33,-64.13 645.33,-64.13 646.33,-64.09 645.28,-63.01 647.33,-64.04 647.33,-64.04"/>
</g>
</g>
</svg>
