<?xml version="1.0" encoding="UTF-8" standalone="no"?>
<!DOCTYPE svg PUBLIC "-//W3C//DTD SVG 1.1//EN"
 "http://www.w3.org/Graphics/SVG/1.1/DTD/svg11.dtd">
<!-- Generated by graphviz version 2.43.0 (0)
 -->
<!-- Title: G Pages: 1 -->
<svg width="953pt" height="776pt"
 viewBox="0.00 0.00 953.35 775.95" xmlns="http://www.w3.org/2000/svg" xmlns:xlink="http://www.w3.org/1999/xlink">
<g id="graph0" class="graph" transform="scale(1 1) rotate(0) translate(4 771.95)">
<title>G</title>
<polygon fill="white" stroke="transparent" points="-4,4 -4,-771.95 949.35,-771.95 949.35,4 -4,4"/>
<!-- 0 -->
<g id="node1" class="node">
<title>0</title>
<g id="a_node1"><a xlink:title="Q&#45;Input">
<ellipse fill="white" stroke="black" stroke-width="3" stroke-dasharray="5,2" cx="93.02" cy="-537.95" rx="46.29" ry="46.29"/>
<text text-anchor="middle" x="93.02" y="-534.25" font-family="Times,serif" font-size="14.00">Q&#45;Input</text>
</a>
</g>
<text text-anchor="start" x="36.87" y="-480.6" font-family="Times,serif" font-size="14.00" fill="grey">0</text>
</g>
<!-- 1 -->
<g id="node2" class="node">
<title>1</title>
<g id="a_node2"><a xlink:title="Q&#45;Input">
<ellipse fill="white" stroke="black" stroke-width="3" stroke-dasharray="5,2" cx="93.02" cy="-427.95" rx="46.29" ry="46.29"/>
<text text-anchor="middle" x="93.02" y="-424.25" font-family="Times,serif" font-size="14.00">Q&#45;Input</text>
</a>
</g>
<text text-anchor="start" x="36.87" y="-370.6" font-family="Times,serif" font-size="14.00" fill="grey">1</text>
</g>
<!-- 0&#45;&#45;1 -->
<!-- 8 -->
<g id="node9" class="node">
<title>8</title>
<g id="a_node9"><a xlink:title="Q&#45;Y(0)">
<ellipse fill="lightgrey" stroke="black" stroke-width="3" cx="238.46" cy="-323.95" rx="3.5" ry="3.5"/>
<text text-anchor="middle" x="238.46" y="-328.25" font-family="Times,serif" font-size="14.00">Q&#45;Y(0)</text>
</a>
</g>
<text text-anchor="start" x="198.46" y="-293.25" font-family="Times,serif" font-size="14.00" fill="grey">8</text>
</g>
<!-- 0&#45;&#45;8 -->
<g id="edge1" class="edge">
<title>0&#45;&#45;8</title>
<path fill="none" stroke="black" stroke-width="3" d="M129.34,-508.93C137.82,-501.02 146.44,-492.09 153.46,-482.95 175.72,-453.98 227.47,-345.12 236.2,-326.62"/>
</g>
<!-- 2 -->
<g id="node3" class="node">
<title>2</title>
<g id="a_node3"><a xlink:title="Q&#45;Input">
<ellipse fill="white" stroke="black" stroke-width="3" stroke-dasharray="5,2" cx="93.02" cy="-317.95" rx="46.29" ry="46.29"/>
<text text-anchor="middle" x="93.02" y="-314.25" font-family="Times,serif" font-size="14.00">Q&#45;Input</text>
</a>
</g>
<text text-anchor="start" x="36.87" y="-260.6" font-family="Times,serif" font-size="14.00" fill="grey">2</text>
</g>
<!-- 1&#45;&#45;2 -->
<!-- 10 -->
<g id="node11" class="node">
<title>10</title>
<g id="a_node11"><a xlink:title="Q&#45;X(1)">
<ellipse fill="lightgrey" stroke="black" stroke-width="3" cx="238.46" cy="-582.95" rx="3.5" ry="3.5"/>
<text text-anchor="middle" x="238.46" y="-587.25" font-family="Times,serif" font-size="14.00">Q&#45;X(1)</text>
</a>
</g>
<text text-anchor="start" x="188.46" y="-552.25" font-family="Times,serif" font-size="14.00" fill="grey">10</text>
</g>
<!-- 1&#45;&#45;10 -->
<g id="edge2" class="edge">
<title>1&#45;&#45;10</title>
<path fill="none" stroke="black" stroke-width="3" d="M129.26,-457.03C137.73,-464.94 146.38,-473.85 153.46,-482.95 174,-509.3 167.26,-523.98 189.46,-548.95 203.85,-565.12 227.33,-577.82 234.97,-581.71"/>
</g>
<!-- 3 -->
<g id="node4" class="node">
<title>3</title>
<g id="a_node4"><a xlink:title="Q&#45;Input">
<ellipse fill="white" stroke="black" stroke-width="3" stroke-dasharray="5,2" cx="93.02" cy="-207.95" rx="46.29" ry="46.29"/>
<text text-anchor="middle" x="93.02" y="-204.25" font-family="Times,serif" font-size="14.00">Q&#45;Input</text>
</a>
</g>
<text text-anchor="start" x="36.87" y="-150.6" font-family="Times,serif" font-size="14.00" fill="grey">3</text>
</g>
<!-- 2&#45;&#45;3 -->
<!-- 13 -->
<g id="node14" class="node">
<title>13</title>
<g id="a_node14"><a xlink:title="Q&#45;Y(1)">
<ellipse fill="lightgrey" stroke="black" stroke-width="3" cx="353.46" cy="-630.95" rx="3.5" ry="3.5"/>
<text text-anchor="middle" x="353.46" y="-635.25" font-family="Times,serif" font-size="14.00">Q&#45;Y(1)</text>
</a>
</g>
<text text-anchor="start" x="304.46" y="-600.25" font-family="Times,serif" font-size="14.00" fill="grey">13</text>
</g>
<!-- 2&#45;&#45;13 -->
<g id="edge3" class="edge">
<title>2&#45;&#45;13</title>
<path fill="none" stroke="black" stroke-width="3" d="M130.29,-345.32C138.96,-353.38 147.43,-362.79 153.46,-372.95 186.73,-428.91 146.74,-465.82 189.46,-514.95 220.33,-550.44 249.32,-527.41 287.46,-554.95 318.71,-577.51 344.65,-618.09 350.98,-628.47"/>
</g>
<!-- 14 -->
<g id="node15" class="node">
<title>14</title>
<g id="a_node15"><a xlink:title="Q&#45;Y(1)">
<ellipse fill="lightgrey" stroke="black" stroke-width="3" cx="353.46" cy="-207.95" rx="3.5" ry="3.5"/>
<text text-anchor="middle" x="353.46" y="-212.25" font-family="Times,serif" font-size="14.00">Q&#45;Y(1)</text>
</a>
</g>
<text text-anchor="start" x="304.46" y="-177.25" font-family="Times,serif" font-size="14.00" fill="grey">14</text>
</g>
<!-- 3&#45;&#45;14 -->
<g id="edge4" class="edge">
<title>3&#45;&#45;14</title>
<path fill="none" stroke="black" stroke-width="3" d="M139.33,-207.95C207.37,-207.95 330.09,-207.95 349.77,-207.95"/>
</g>
<!-- 4 -->
<g id="node5" class="node">
<title>4</title>
<g id="a_node5"><a xlink:title="Q&#45;Output">
<ellipse fill="white" stroke="black" stroke-width="3" stroke-dasharray="5,2" cx="780.41" cy="-446.95" rx="53.89" ry="53.89"/>
<text text-anchor="middle" x="780.41" y="-443.25" font-family="Times,serif" font-size="14.00">Q&#45;Output</text>
</a>
</g>
<text text-anchor="start" x="716.46" y="-381.8" font-family="Times,serif" font-size="14.00" fill="grey">4</text>
</g>
<!-- 5 -->
<g id="node6" class="node">
<title>5</title>
<g id="a_node6"><a xlink:title="Q&#45;Output">
<ellipse fill="white" stroke="black" stroke-width="3" stroke-dasharray="5,2" cx="780.41" cy="-320.95" rx="53.89" ry="53.89"/>
<text text-anchor="middle" x="780.41" y="-317.25" font-family="Times,serif" font-size="14.00">Q&#45;Output</text>
</a>
</g>
<text text-anchor="start" x="716.46" y="-255.8" font-family="Times,serif" font-size="14.00" fill="grey">5</text>
</g>
<!-- 4&#45;&#45;5 -->
<!-- 15 -->
<g id="node16" class="node">
<title>15</title>
<g id="a_node16"><a xlink:title="Q&#45;X(0)">
<ellipse fill="lightgrey" stroke="black" stroke-width="3" cx="914.35" cy="-487.95" rx="3.5" ry="3.5"/>
<text text-anchor="middle" x="914.35" y="-492.25" font-family="Times,serif" font-size="14.00">Q&#45;X(0)</text>
</a>
</g>
<text text-anchor="start" x="864.35" y="-457.25" font-family="Times,serif" font-size="14.00" fill="grey">15</text>
</g>
<!-- 4&#45;&#45;15 -->
<g id="edge6" class="edge">
<title>4&#45;&#45;15</title>
<path fill="none" stroke="black" stroke-width="3" d="M832.04,-462.68C864.02,-472.62 901.09,-484.13 910.88,-487.18"/>
</g>
<!-- 6 -->
<g id="node7" class="node">
<title>6</title>
<g id="a_node7"><a xlink:title="Q&#45;Output">
<ellipse fill="white" stroke="black" stroke-width="3" stroke-dasharray="5,2" cx="780.41" cy="-194.95" rx="53.89" ry="53.89"/>
<text text-anchor="middle" x="780.41" y="-191.25" font-family="Times,serif" font-size="14.00">Q&#45;Output</text>
</a>
</g>
<text text-anchor="start" x="716.46" y="-129.8" font-family="Times,serif" font-size="14.00" fill="grey">6</text>
</g>
<!-- 5&#45;&#45;6 -->
<!-- 7 -->
<g id="node8" class="node">
<title>7</title>
<g id="a_node8"><a xlink:title="Q&#45;Output">
<ellipse fill="white" stroke="black" stroke-width="3" stroke-dasharray="5,2" cx="780.41" cy="-68.95" rx="53.89" ry="53.89"/>
<text text-anchor="middle" x="780.41" y="-65.25" font-family="Times,serif" font-size="14.00">Q&#45;Output</text>
</a>
</g>
<text text-anchor="start" x="716.46" y="-3.8" font-family="Times,serif" font-size="14.00" fill="grey">7</text>
</g>
<!-- 6&#45;&#45;7 -->
<!-- 8&#45;&#45;14 -->
<g id="edge8" class="edge">
<title>8&#45;&#45;14</title>
<path fill="none" stroke="blue" stroke-width="3" stroke-dasharray="5,2" d="M241.43,-321.93C255.14,-307.85 336.56,-224.27 350.45,-210.01"/>
</g>
<!-- 9 -->
<g id="node10" class="node">
<title>9</title>
<g id="a_node10"><a xlink:title="Q&#45;XY(0.25)">
<ellipse fill="lightgrey" stroke="black" stroke-width="3" cx="93.02" cy="-621.95" rx="3.5" ry="3.5"/>
<text text-anchor="middle" x="93.02" y="-626.25" font-family="Times,serif" font-size="14.00">Q&#45;XY(0.25)</text>
</a>
</g>
<text text-anchor="start" x="36.02" y="-591.25" font-family="Times,serif" font-size="14.00" fill="grey">9</text>
</g>
<!-- 9&#45;&#45;8 -->
<g id="edge7" class="edge">
<title>9&#45;&#45;8</title>
<path fill="none" stroke="blue" stroke-width="3" stroke-dasharray="5,2" d="M96.54,-621.52C105.78,-619.83 138.04,-612.66 153.46,-592.95 200.52,-532.81 164.91,-497.25 189.46,-424.95 203.32,-384.13 229.24,-338.15 235.88,-326.66"/>
</g>
<!-- 9&#45;&#45;15 -->
<g id="edge5" class="edge">
<title>9&#45;&#45;15</title>
<path fill="none" stroke="blue" stroke-width="3" stroke-dasharray="5,2" d="M96.51,-621.5C105.63,-619.71 137.55,-612.27 153.46,-592.95 192.93,-545 140.22,-495.78 189.46,-457.95 224,-431.41 243.99,-455.3 287.46,-457.95 477.85,-469.52 523.08,-498.37 713.46,-509.95 772.86,-513.56 788.61,-519.48 847.35,-509.95 873.1,-505.77 902.39,-492.98 910.91,-489.08"/>
</g>
<!-- 12 -->
<g id="node13" class="node">
<title>12</title>
<g id="a_node13"><a xlink:title="Q&#45;Y(1)">
<ellipse fill="lightgrey" stroke="black" stroke-width="3" cx="450.46" cy="-606.95" rx="3.5" ry="3.5"/>
<text text-anchor="middle" x="450.46" y="-611.25" font-family="Times,serif" font-size="14.00">Q&#45;Y(1)</text>
</a>
</g>
<text text-anchor="start" x="401.46" y="-576.25" font-family="Times,serif" font-size="14.00" fill="grey">12</text>
</g>
<!-- 10&#45;&#45;12 -->
<g id="edge14" class="edge">
<title>10&#45;&#45;12</title>
<path fill="none" stroke="blue" stroke-width="3" stroke-dasharray="5,2" d="M242.12,-583.25C264.72,-585.83 424.51,-604.09 446.87,-606.65"/>
</g>
<!-- 10&#45;&#45;13 -->
<g id="edge13" class="edge">
<title>10&#45;&#45;13</title>
<path fill="none" stroke="blue" stroke-width="3" stroke-dasharray="5,2" d="M241.82,-583.95C256.4,-590.14 334.09,-623.14 349.72,-629.78"/>
</g>
<!-- 11 -->
<g id="node12" class="node">
<title>11</title>
<g id="a_node12"><a xlink:title="Q&#45;XY(&#45;0.75)">
<ellipse fill="lightgrey" stroke="black" stroke-width="3" cx="238.46" cy="-678.95" rx="3.5" ry="3.5"/>
<text text-anchor="middle" x="238.46" y="-683.25" font-family="Times,serif" font-size="14.00">Q&#45;XY(&#45;0.75)</text>
</a>
</g>
<text text-anchor="start" x="170.46" y="-648.25" font-family="Times,serif" font-size="14.00" fill="grey">11</text>
</g>
<!-- 11&#45;&#45;13 -->
<g id="edge15" class="edge">
<title>11&#45;&#45;13</title>
<path fill="none" stroke="blue" stroke-width="3" stroke-dasharray="5,2" d="M241.82,-677.94C256.4,-671.75 334.09,-638.75 349.72,-632.11"/>
</g>
<!-- 18 -->
<g id="node19" class="node">
<title>18</title>
<g id="a_node19"><a xlink:title="Q&#45;X(0)">
<ellipse fill="lightgrey" stroke="black" stroke-width="3" cx="548.46" cy="-604.95" rx="3.5" ry="3.5"/>
<text text-anchor="middle" x="548.46" y="-609.25" font-family="Times,serif" font-size="14.00">Q&#45;X(0)</text>
</a>
</g>
<text text-anchor="start" x="498.46" y="-574.25" font-family="Times,serif" font-size="14.00" fill="grey">18</text>
</g>
<!-- 12&#45;&#45;18 -->
<g id="edge19" class="edge">
<title>12&#45;&#45;18</title>
<path fill="none" stroke="blue" stroke-width="3" stroke-dasharray="5,2" d="M454.23,-606.89C468.25,-606.6 531.25,-605.28 544.87,-605"/>
</g>
<!-- 13&#45;&#45;12 -->
<g id="edge16" class="edge">
<title>13&#45;&#45;12</title>
<path fill="none" stroke="blue" stroke-width="3" stroke-dasharray="5,2" d="M357.2,-630.25C371.08,-626.75 433.42,-611 446.89,-607.59"/>
</g>
<!-- 16 -->
<g id="node17" class="node">
<title>16</title>
<g id="a_node17"><a xlink:title="Q&#45;Y(1)">
<ellipse fill="lightgrey" stroke="black" stroke-width="3" cx="93.02" cy="-678.95" rx="3.5" ry="3.5"/>
<text text-anchor="middle" x="93.02" y="-683.25" font-family="Times,serif" font-size="14.00">Q&#45;Y(1)</text>
</a>
</g>
<text text-anchor="start" x="44.02" y="-648.25" font-family="Times,serif" font-size="14.00" fill="grey">16</text>
</g>
<!-- 16&#45;&#45;10 -->
<g id="edge9" class="edge">
<title>16&#45;&#45;10</title>
<path fill="none" stroke="blue" stroke-width="3" stroke-dasharray="5,2" d="M96.43,-678.12C104.78,-675.22 133.11,-664.83 153.46,-650.95 171.65,-638.55 172.44,-630.9 189.46,-616.95 206.21,-603.22 228.14,-588.91 235.18,-584.4"/>
</g>
<!-- 16&#45;&#45;11 -->
<g id="edge10" class="edge">
<title>16&#45;&#45;11</title>
<path fill="none" stroke="blue" stroke-width="3" stroke-dasharray="5,2" d="M96.76,-678.95C114.88,-678.95 217.43,-678.95 234.93,-678.95"/>
</g>
<!-- 16&#45;&#45;12 -->
<g id="edge12" class="edge">
<title>16&#45;&#45;12</title>
<path fill="none" stroke="blue" stroke-width="3" stroke-dasharray="5,2" d="M96.61,-680.04C107.59,-684.64 151.44,-702.3 189.46,-707.95 232.55,-714.35 245.07,-717.95 287.46,-707.95 362.3,-690.28 434.54,-621.68 447.43,-608.98"/>
</g>
<!-- 16&#45;&#45;13 -->
<g id="edge11" class="edge">
<title>16&#45;&#45;13</title>
<path fill="none" stroke="blue" stroke-width="3" stroke-dasharray="5,2" d="M96.64,-678.01C107.72,-674.06 151.92,-658.7 189.46,-650.95 253.68,-637.68 334.08,-632.11 349.75,-631.11"/>
</g>
<!-- 20 -->
<g id="node21" class="node">
<title>20</title>
<g id="a_node21"><a xlink:title="Q&#45;X(0)">
<ellipse fill="lightgrey" stroke="black" stroke-width="3" cx="238.46" cy="-486.95" rx="3.5" ry="3.5"/>
<text text-anchor="middle" x="238.46" y="-491.25" font-family="Times,serif" font-size="14.00">Q&#45;X(0)</text>
</a>
</g>
<text text-anchor="start" x="188.46" y="-456.25" font-family="Times,serif" font-size="14.00" fill="grey">20</text>
</g>
<!-- 16&#45;&#45;20 -->
<g id="edge22" class="edge">
<title>16&#45;&#45;20</title>
<path fill="none" stroke="blue" stroke-width="3" stroke-dasharray="5,2" d="M96.7,-678.44C105.93,-676.54 136.76,-669.06 153.46,-650.95 184.35,-617.44 168.15,-595.22 189.46,-554.95 204.06,-527.36 228.2,-497.91 235.38,-489.39"/>
</g>
<!-- 17 -->
<g id="node18" class="node">
<title>17</title>
<g id="a_node18"><a xlink:title="Q&#45;Y(0)">
<ellipse fill="lightgrey" stroke="black" stroke-width="3" cx="93.02" cy="-123.95" rx="3.5" ry="3.5"/>
<text text-anchor="middle" x="93.02" y="-128.25" font-family="Times,serif" font-size="14.00">Q&#45;Y(0)</text>
</a>
</g>
<text text-anchor="start" x="44.02" y="-93.25" font-family="Times,serif" font-size="14.00" fill="grey">17</text>
</g>
<!-- 17&#45;&#45;8 -->
<g id="edge17" class="edge">
<title>17&#45;&#45;8</title>
<path fill="none" stroke="blue" stroke-width="3" stroke-dasharray="5,2" d="M96.63,-124.57C105.66,-126.83 135.9,-135.43 153.46,-152.95 207.33,-206.66 232.21,-301.89 236.71,-320.67"/>
</g>
<!-- 17&#45;&#45;14 -->
<g id="edge18" class="edge">
<title>17&#45;&#45;14</title>
<path fill="none" stroke="blue" stroke-width="3" stroke-dasharray="5,2" d="M96.58,-124.78C121.74,-132.96 324.62,-198.9 349.89,-207.11"/>
</g>
<!-- 22 -->
<g id="node23" class="node">
<title>22</title>
<g id="a_node23"><a xlink:title="Q&#45;X(0)">
<ellipse fill="lightgrey" stroke="black" stroke-width="3" cx="238.46" cy="-121.95" rx="3.5" ry="3.5"/>
<text text-anchor="middle" x="238.46" y="-126.25" font-family="Times,serif" font-size="14.00">Q&#45;X(0)</text>
</a>
</g>
<text text-anchor="start" x="188.46" y="-91.25" font-family="Times,serif" font-size="14.00" fill="grey">22</text>
</g>
<!-- 17&#45;&#45;22 -->
<g id="edge25" class="edge">
<title>17&#45;&#45;22</title>
<path fill="none" stroke="blue" stroke-width="3" stroke-dasharray="5,2" d="M96.76,-123.91C114.88,-123.65 217.43,-122.22 234.93,-121.98"/>
</g>
<!-- 19 -->
<g id="node20" class="node">
<title>19</title>
<g id="a_node20"><a xlink:title="Q&#45;X(0)">
<ellipse fill="lightgrey" stroke="black" stroke-width="3" cx="646.46" cy="-601.95" rx="3.5" ry="3.5"/>
<text text-anchor="middle" x="646.46" y="-606.25" font-family="Times,serif" font-size="14.00">Q&#45;X(0)</text>
</a>
</g>
<text text-anchor="start" x="596.46" y="-571.25" font-family="Times,serif" font-size="14.00" fill="grey">19</text>
</g>
<!-- 18&#45;&#45;19 -->
<g id="edge20" class="edge">
<title>18&#45;&#45;19</title>
<path fill="none" stroke="blue" stroke-width="3" stroke-dasharray="5,2" d="M552.23,-604.86C566.25,-604.42 629.25,-602.45 642.87,-602.03"/>
</g>
<!-- 19&#45;&#45;5 -->
<g id="edge21" class="edge">
<title>19&#45;&#45;5</title>
<path fill="none" stroke="black" stroke-width="3" d="M647.83,-598.62C650.25,-577.64 665.43,-462.1 713.46,-383.95 720.01,-373.29 728.8,-363.21 737.82,-354.37"/>
</g>
<!-- 21 -->
<g id="node22" class="node">
<title>21</title>
<g id="a_node22"><a xlink:title="Q&#45;X(0)">
<ellipse fill="lightgrey" stroke="black" stroke-width="3" cx="548.46" cy="-336.95" rx="3.5" ry="3.5"/>
<text text-anchor="middle" x="548.46" y="-341.25" font-family="Times,serif" font-size="14.00">Q&#45;X(0)</text>
</a>
</g>
<text text-anchor="start" x="498.46" y="-306.25" font-family="Times,serif" font-size="14.00" fill="grey">21</text>
</g>
<!-- 20&#45;&#45;21 -->
<g id="edge23" class="edge">
<title>20&#45;&#45;21</title>
<path fill="none" stroke="blue" stroke-width="3" stroke-dasharray="5,2" d="M242.13,-485.65C270.58,-471.79 518.09,-351.25 545.08,-338.11"/>
</g>
<!-- 21&#45;&#45;6 -->
<g id="edge24" class="edge">
<title>21&#45;&#45;6</title>
<path fill="none" stroke="black" stroke-width="3" d="M551.74,-335.54C568.39,-325.26 672.51,-260.96 734.02,-222.97"/>
</g>
<!-- 23 -->
<g id="node24" class="node">
<title>23</title>
<g id="a_node24"><a xlink:title="Q&#45;X(0)">
<ellipse fill="lightgrey" stroke="black" stroke-width="3" cx="450.46" cy="-79.95" rx="3.5" ry="3.5"/>
<text text-anchor="middle" x="450.46" y="-84.25" font-family="Times,serif" font-size="14.00">Q&#45;X(0)</text>
</a>
</g>
<text text-anchor="start" x="400.46" y="-49.25" font-family="Times,serif" font-size="14.00" fill="grey">23</text>
</g>
<!-- 22&#45;&#45;23 -->
<g id="edge26" class="edge">
<title>22&#45;&#45;23</title>
<path fill="none" stroke="blue" stroke-width="3" stroke-dasharray="5,2" d="M242.12,-121.41C264.72,-116.89 424.51,-84.94 446.87,-80.46"/>
</g>
<!-- 23&#45;&#45;7 -->
<g id="edge27" class="edge">
<title>23&#45;&#45;7</title>
<path fill="none" stroke="black" stroke-width="3" d="M454.3,-79.85C477.71,-79.06 640.39,-73.61 726.39,-70.72"/>
</g>
<!-- input_rank -->
<g id="node25" class="node">
<title>input_rank</title>
</g>
<!-- input_rank&#45;&#45;0 -->
<!-- output_rank -->
<g id="node26" class="node">
<title>output_rank</title>
</g>
<!-- input_rank&#45;&#45;output_rank -->
<!-- output_rank&#45;&#45;4 -->
</g>
</svg>
