<?xml version="1.0" encoding="UTF-8" standalone="no"?>
<!DOCTYPE svg PUBLIC "-//W3C//DTD SVG 1.1//EN"
 "http://www.w3.org/Graphics/SVG/1.1/DTD/svg11.dtd">
<!-- Generated by graphviz version 6.0.1 (20220911.1526)
 -->
<!-- Title: G Pages: 1 -->
<svg width="891pt" height="723pt"
 viewBox="0.00 0.00 890.55 723.20" xmlns="http://www.w3.org/2000/svg" xmlns:xlink="http://www.w3.org/1999/xlink">
<g id="graph0" class="graph" transform="scale(1 1) rotate(0) translate(4 719.2)">
<title>G</title>
<polygon fill="white" stroke="none" points="-4,4 -4,-719.2 886.55,-719.2 886.55,4 -4,4"/>
<!-- 0 -->
<g id="node1" class="node">
<title>0</title>
<g id="a_node1"><a xlink:title="Q&#45;Input">
<ellipse fill="white" stroke="black" stroke-width="3" stroke-dasharray="5,2" cx="48.75" cy="-603.2" rx="38.19" ry="38.19"/>
<text text-anchor="middle" x="48.75" y="-599.5" font-family="Times,serif" font-size="14.00">Q&#45;Input</text>
</a>
</g>
<text text-anchor="start" x="3.4" y="-553.65" font-family="Times,serif" font-size="14.00" fill="grey">0</text>
</g>
<!-- 1 -->
<g id="node2" class="node">
<title>1</title>
<g id="a_node2"><a xlink:title="Q&#45;Input">
<ellipse fill="white" stroke="black" stroke-width="3" stroke-dasharray="5,2" cx="48.75" cy="-369.2" rx="38.19" ry="38.19"/>
<text text-anchor="middle" x="48.75" y="-365.5" font-family="Times,serif" font-size="14.00">Q&#45;Input</text>
</a>
</g>
<text text-anchor="start" x="3.4" y="-319.65" font-family="Times,serif" font-size="14.00" fill="grey">1</text>
</g>
<!-- 0&#45;&#45;1 -->
<!-- 8 -->
<g id="node9" class="node">
<title>8</title>
<g id="a_node9"><a xlink:title="Q&#45;Z(1.5)">
<ellipse fill="green" stroke="black" stroke-width="3" cx="155.59" cy="-603.2" rx="22.2" ry="22.2"/>
<text text-anchor="middle" x="155.59" y="-599.5" font-family="Times,serif" font-size="14.00">1.5</text>
</a>
</g>
<text text-anchor="start" x="126.49" y="-569.9" font-family="Times,serif" font-size="14.00" fill="grey">8</text>
</g>
<!-- 0&#45;&#45;8 -->
<g id="edge1" class="edge">
<title>0&#45;&#45;8</title>
<path fill="none" stroke="black" stroke-width="3" d="M87.3,-603.2C102.81,-603.2 120.22,-603.2 133.44,-603.2"/>
</g>
<!-- 2 -->
<g id="node3" class="node">
<title>2</title>
<g id="a_node3"><a xlink:title="Q&#45;Input">
<ellipse fill="white" stroke="black" stroke-width="3" stroke-dasharray="5,2" cx="48.75" cy="-274.2" rx="38.19" ry="38.19"/>
<text text-anchor="middle" x="48.75" y="-270.5" font-family="Times,serif" font-size="14.00">Q&#45;Input</text>
</a>
</g>
<text text-anchor="start" x="3.4" y="-224.65" font-family="Times,serif" font-size="14.00" fill="grey">2</text>
</g>
<!-- 1&#45;&#45;2 -->
<!-- 11 -->
<g id="node12" class="node">
<title>11</title>
<g id="a_node12"><a xlink:title="Q&#45;Z(0.5)">
<ellipse fill="green" stroke="black" stroke-width="3" cx="155.59" cy="-368.2" rx="22.2" ry="22.2"/>
<text text-anchor="middle" x="155.59" y="-364.5" font-family="Times,serif" font-size="14.00">0.5</text>
</a>
</g>
<text text-anchor="start" x="119.49" y="-334.9" font-family="Times,serif" font-size="14.00" fill="grey">11</text>
</g>
<!-- 1&#45;&#45;11 -->
<g id="edge3" class="edge">
<title>1&#45;&#45;11</title>
<path fill="none" stroke="black" stroke-width="3" d="M87.3,-368.84C102.81,-368.69 120.22,-368.52 133.44,-368.4"/>
</g>
<!-- 3 -->
<g id="node4" class="node">
<title>3</title>
<g id="a_node4"><a xlink:title="Q&#45;Input">
<ellipse fill="white" stroke="black" stroke-width="3" stroke-dasharray="5,2" cx="48.75" cy="-179.2" rx="38.19" ry="38.19"/>
<text text-anchor="middle" x="48.75" y="-175.5" font-family="Times,serif" font-size="14.00">Q&#45;Input</text>
</a>
</g>
<text text-anchor="start" x="3.4" y="-129.65" font-family="Times,serif" font-size="14.00" fill="grey">3</text>
</g>
<!-- 2&#45;&#45;3 -->
<!-- 23 -->
<g id="node24" class="node">
<title>23</title>
<g id="a_node24"><a xlink:title="Q&#45;Z(0.0)">
<ellipse fill="green" stroke="black" stroke-width="3" cx="155.59" cy="-267.2" rx="18" ry="18"/>
</a>
</g>
<text text-anchor="start" x="123.59" y="-238" font-family="Times,serif" font-size="14.00" fill="grey">23</text>
</g>
<!-- 2&#45;&#45;23 -->
<g id="edge21" class="edge">
<title>2&#45;&#45;23</title>
<path fill="none" stroke="black" stroke-width="3" d="M87.3,-271.69C104.46,-270.54 123.93,-269.24 137.5,-268.34"/>
</g>
<!-- 24 -->
<g id="node25" class="node">
<title>24</title>
<g id="a_node25"><a xlink:title="Q&#45;Z(0.0)">
<ellipse fill="green" stroke="black" stroke-width="3" cx="240.34" cy="-515.2" rx="18" ry="18"/>
</a>
</g>
<text text-anchor="start" x="208.34" y="-486" font-family="Times,serif" font-size="14.00" fill="grey">24</text>
</g>
<!-- 3&#45;&#45;24 -->
<g id="edge23" class="edge">
<title>3&#45;&#45;24</title>
<path fill="none" stroke="black" stroke-width="3" d="M78.85,-203.06C85.89,-210.16 92.75,-218.4 97.49,-227.2 134.56,-295.94 97.91,-329.67 133.49,-399.2 156.72,-444.58 202.49,-485.56 225.47,-504.35"/>
</g>
<!-- 4 -->
<g id="node5" class="node">
<title>4</title>
<g id="a_node5"><a xlink:title="Q&#45;Output">
<ellipse fill="white" stroke="black" stroke-width="3" stroke-dasharray="5,2" cx="356.28" cy="-469.2" rx="44.39" ry="44.39"/>
<text text-anchor="middle" x="356.28" y="-465.5" font-family="Times,serif" font-size="14.00">Q&#45;Output</text>
</a>
</g>
<text text-anchor="start" x="305.08" y="-413.8" font-family="Times,serif" font-size="14.00" fill="grey">4</text>
</g>
<!-- 5 -->
<g id="node6" class="node">
<title>5</title>
<g id="a_node6"><a xlink:title="Q&#45;Output">
<ellipse fill="white" stroke="black" stroke-width="3" stroke-dasharray="5,2" cx="356.28" cy="-325.2" rx="44.39" ry="44.39"/>
<text text-anchor="middle" x="356.28" y="-321.5" font-family="Times,serif" font-size="14.00">Q&#45;Output</text>
</a>
</g>
<text text-anchor="start" x="305.08" y="-269.8" font-family="Times,serif" font-size="14.00" fill="grey">5</text>
</g>
<!-- 4&#45;&#45;5 -->
<!-- 25 -->
<g id="node26" class="node">
<title>25</title>
<g id="a_node26"><a xlink:title="Q&#45;Z(0.0)">
<ellipse fill="green" stroke="black" stroke-width="3" cx="467.67" cy="-478.2" rx="18" ry="18"/>
</a>
</g>
<text text-anchor="start" x="435.67" y="-449" font-family="Times,serif" font-size="14.00" fill="grey">25</text>
</g>
<!-- 4&#45;&#45;25 -->
<g id="edge25" class="edge">
<title>4&#45;&#45;25</title>
<path fill="none" stroke="black" stroke-width="3" d="M400.51,-472.75C417.71,-474.17 436.5,-475.71 449.64,-476.79"/>
</g>
<!-- 6 -->
<g id="node7" class="node">
<title>6</title>
<g id="a_node7"><a xlink:title="Q&#45;Output">
<ellipse fill="white" stroke="black" stroke-width="3" stroke-dasharray="5,2" cx="356.28" cy="-165.2" rx="44.39" ry="44.39"/>
<text text-anchor="middle" x="356.28" y="-161.5" font-family="Times,serif" font-size="14.00">Q&#45;Output</text>
</a>
</g>
<text text-anchor="start" x="305.08" y="-109.8" font-family="Times,serif" font-size="14.00" fill="grey">6</text>
</g>
<!-- 5&#45;&#45;6 -->
<!-- 13 -->
<g id="node14" class="node">
<title>13</title>
<g id="a_node14"><a xlink:title="Q&#45;Z(0.0)">
<ellipse fill="green" stroke="black" stroke-width="3" cx="467.67" cy="-325.2" rx="18" ry="18"/>
</a>
</g>
<text text-anchor="start" x="435.67" y="-296" font-family="Times,serif" font-size="14.00" fill="grey">13</text>
</g>
<!-- 5&#45;&#45;13 -->
<g id="edge5" class="edge">
<title>5&#45;&#45;13</title>
<path fill="none" stroke="black" stroke-width="3" d="M400.51,-325.2C417.71,-325.2 436.5,-325.2 449.64,-325.2"/>
</g>
<!-- 7 -->
<g id="node8" class="node">
<title>7</title>
<g id="a_node8"><a xlink:title="Q&#45;Output">
<ellipse fill="white" stroke="black" stroke-width="3" stroke-dasharray="5,2" cx="356.28" cy="-59.2" rx="44.39" ry="44.39"/>
<text text-anchor="middle" x="356.28" y="-55.5" font-family="Times,serif" font-size="14.00">Q&#45;Output</text>
</a>
</g>
<text text-anchor="start" x="305.08" y="-3.8" font-family="Times,serif" font-size="14.00" fill="grey">7</text>
</g>
<!-- 6&#45;&#45;7 -->
<!-- 26 -->
<g id="node27" class="node">
<title>26</title>
<g id="a_node27"><a xlink:title="Q&#45;Z(0.0)">
<ellipse fill="green" stroke="black" stroke-width="3" cx="708.26" cy="-195.2" rx="18" ry="18"/>
</a>
</g>
<text text-anchor="start" x="676.26" y="-166" font-family="Times,serif" font-size="14.00" fill="grey">26</text>
</g>
<!-- 6&#45;&#45;26 -->
<g id="edge27" class="edge">
<title>6&#45;&#45;26</title>
<path fill="none" stroke="black" stroke-width="3" d="M400.54,-168.9C478.09,-175.55 637.54,-189.22 690.06,-193.72"/>
</g>
<!-- 27 -->
<g id="node28" class="node">
<title>27</title>
<g id="a_node28"><a xlink:title="Q&#45;Z(0.0)">
<ellipse fill="green" stroke="black" stroke-width="3" cx="864.55" cy="-153.2" rx="18" ry="18"/>
</a>
</g>
<text text-anchor="start" x="832.55" y="-124" font-family="Times,serif" font-size="14.00" fill="grey">27</text>
</g>
<!-- 7&#45;&#45;27 -->
<g id="edge29" class="edge">
<title>7&#45;&#45;27</title>
<path fill="none" stroke="black" stroke-width="3" d="M394.67,-81.6C431.9,-101.75 491.35,-128.2 546.87,-128.2 546.87,-128.2 546.87,-128.2 709.26,-128.2 760,-128.2 818.94,-141.54 847.03,-148.73"/>
</g>
<!-- 9 -->
<g id="node10" class="node">
<title>9</title>
<g id="a_node10"><a xlink:title="Q&#45;Z(0.5)">
<ellipse fill="green" stroke="black" stroke-width="3" cx="240.34" cy="-603.2" rx="22.2" ry="22.2"/>
<text text-anchor="middle" x="240.34" y="-599.5" font-family="Times,serif" font-size="14.00">0.5</text>
</a>
</g>
<text text-anchor="start" x="211.24" y="-569.9" font-family="Times,serif" font-size="14.00" fill="grey">9</text>
</g>
<!-- 8&#45;&#45;9 -->
<g id="edge2" class="edge">
<title>8&#45;&#45;9</title>
<path fill="none" stroke="blue" stroke-width="3" stroke-dasharray="5,2" d="M177.9,-603.2C190.25,-603.2 205.76,-603.2 218.1,-603.2"/>
</g>
<!-- 10 -->
<g id="node11" class="node">
<title>10</title>
<g id="a_node11"><a xlink:title="Q&#45;Z(0.25)">
<ellipse fill="green" stroke="black" stroke-width="3" cx="356.28" cy="-596.2" rx="26.8" ry="26.8"/>
<text text-anchor="middle" x="356.28" y="-592.5" font-family="Times,serif" font-size="14.00">0.25</text>
</a>
</g>
<text text-anchor="start" x="315.63" y="-558.35" font-family="Times,serif" font-size="14.00" fill="grey">10</text>
</g>
<!-- 9&#45;&#45;10 -->
<g id="edge12" class="edge">
<title>9&#45;&#45;10</title>
<path fill="none" stroke="blue" stroke-width="3" stroke-dasharray="5,2" d="M262.5,-601.9C281.42,-600.73 309.2,-599.03 329.43,-597.78"/>
</g>
<!-- 18 -->
<g id="node19" class="node">
<title>18</title>
<g id="a_node19"><a xlink:title="Q&#45;Z(0)">
<ellipse fill="green" stroke="black" stroke-width="3" cx="467.67" cy="-568.2" rx="18" ry="18"/>
</a>
</g>
<text text-anchor="start" x="435.67" y="-539" font-family="Times,serif" font-size="14.00" fill="grey">18</text>
</g>
<!-- 9&#45;&#45;18 -->
<g id="edge11" class="edge">
<title>9&#45;&#45;18</title>
<path fill="none" stroke="blue" stroke-width="3" stroke-dasharray="5,2" d="M259.45,-614.32C271.35,-620.96 287.51,-628.74 302.98,-632.2 349.22,-642.53 366.34,-651.56 409.57,-632.2 431.59,-622.33 448.61,-599.32 458.13,-583.76"/>
</g>
<!-- 10&#45;&#45;18 -->
<g id="edge19" class="edge">
<title>10&#45;&#45;18</title>
<path fill="none" stroke="blue" stroke-width="3" stroke-dasharray="5,2" d="M382.38,-589.77C403.07,-584.48 431.84,-577.11 449.85,-572.5"/>
</g>
<!-- 10&#45;&#45;25 -->
<g id="edge24" class="edge">
<title>10&#45;&#45;25</title>
<path fill="none" stroke="blue" stroke-width="3" stroke-dasharray="5,2" d="M375.1,-576.97C397.5,-552.81 435.35,-511.99 454.62,-491.2"/>
</g>
<!-- 12 -->
<g id="node13" class="node">
<title>12</title>
<g id="a_node13"><a xlink:title="Q&#45;Z(0.25)">
<ellipse fill="green" stroke="black" stroke-width="3" cx="240.34" cy="-368.2" rx="26.8" ry="26.8"/>
<text text-anchor="middle" x="240.34" y="-364.5" font-family="Times,serif" font-size="14.00">0.25</text>
</a>
</g>
<text text-anchor="start" x="199.69" y="-330.35" font-family="Times,serif" font-size="14.00" fill="grey">12</text>
</g>
<!-- 11&#45;&#45;12 -->
<g id="edge14" class="edge">
<title>11&#45;&#45;12</title>
<path fill="none" stroke="blue" stroke-width="3" stroke-dasharray="5,2" d="M177.9,-368.2C188.82,-368.2 202.19,-368.2 213.67,-368.2"/>
</g>
<!-- 14 -->
<g id="node15" class="node">
<title>14</title>
<g id="a_node15"><a xlink:title="Q&#45;Z(0)">
<ellipse fill="green" stroke="black" stroke-width="3" cx="356.28" cy="-245.2" rx="18" ry="18"/>
</a>
</g>
<text text-anchor="start" x="324.28" y="-216" font-family="Times,serif" font-size="14.00" fill="grey">14</text>
</g>
<!-- 11&#45;&#45;14 -->
<g id="edge13" class="edge">
<title>11&#45;&#45;14</title>
<path fill="none" stroke="blue" stroke-width="3" stroke-dasharray="5,2" d="M174.24,-355.76C201.38,-336.84 255.21,-300.09 302.98,-272.2 314.98,-265.19 328.99,-258.01 339.49,-252.81"/>
</g>
<!-- 12&#45;&#45;13 -->
<g id="edge15" class="edge">
<title>12&#45;&#45;13</title>
<path fill="none" stroke="blue" stroke-width="3" stroke-dasharray="5,2" d="M266.02,-375.95C299.75,-385.16 361.5,-397.07 409.57,-378.2 429.21,-370.49 446.12,-352.49 456.33,-339.61"/>
</g>
<!-- 12&#45;&#45;14 -->
<g id="edge17" class="edge">
<title>12&#45;&#45;14</title>
<path fill="none" stroke="blue" stroke-width="3" stroke-dasharray="5,2" d="M254.33,-345.05C268.51,-320.34 290.82,-283.26 302.98,-272.2 313.41,-262.71 327.79,-255.6 338.84,-251.07"/>
</g>
<!-- 17 -->
<g id="node18" class="node">
<title>17</title>
<g id="a_node18"><a xlink:title="Q&#45;Z(0.0)">
<ellipse fill="green" stroke="black" stroke-width="3" cx="628.06" cy="-245.2" rx="18" ry="18"/>
</a>
</g>
<text text-anchor="start" x="596.06" y="-216" font-family="Times,serif" font-size="14.00" fill="grey">17</text>
</g>
<!-- 13&#45;&#45;17 -->
<g id="edge4" class="edge">
<title>13&#45;&#45;17</title>
<path fill="none" stroke="blue" stroke-width="3" stroke-dasharray="5,2" d="M484.23,-317.95C504.21,-308.58 539.89,-291.62 569.97,-276.2 584.22,-268.89 600.23,-260.15 611.66,-253.81"/>
</g>
<!-- 15 -->
<g id="node16" class="node">
<title>15</title>
<g id="a_node16"><a xlink:title="Q&#45;Z(0.5)">
<ellipse fill="green" stroke="black" stroke-width="3" cx="467.67" cy="-245.2" rx="22.2" ry="22.2"/>
<text text-anchor="middle" x="467.67" y="-241.5" font-family="Times,serif" font-size="14.00">0.5</text>
</a>
</g>
<text text-anchor="start" x="431.57" y="-211.9" font-family="Times,serif" font-size="14.00" fill="grey">15</text>
</g>
<!-- 14&#45;&#45;15 -->
<g id="edge16" class="edge">
<title>14&#45;&#45;15</title>
<path fill="none" stroke="blue" stroke-width="3" stroke-dasharray="5,2" d="M374.37,-245.2C393.48,-245.2 424.46,-245.2 445.19,-245.2"/>
</g>
<!-- 16 -->
<g id="node17" class="node">
<title>16</title>
<g id="a_node17"><a xlink:title="Q&#45;Z(0.5)">
<ellipse fill="green" stroke="black" stroke-width="3" cx="547.87" cy="-245.2" rx="22.2" ry="22.2"/>
<text text-anchor="middle" x="547.87" y="-241.5" font-family="Times,serif" font-size="14.00">0.5</text>
</a>
</g>
<text text-anchor="start" x="511.77" y="-211.9" font-family="Times,serif" font-size="14.00" fill="grey">16</text>
</g>
<!-- 15&#45;&#45;16 -->
<g id="edge6" class="edge">
<title>15&#45;&#45;16</title>
<path fill="none" stroke="blue" stroke-width="3" stroke-dasharray="5,2" d="M490.04,-245.2C501.07,-245.2 514.5,-245.2 525.53,-245.2"/>
</g>
<!-- 16&#45;&#45;17 -->
<g id="edge7" class="edge">
<title>16&#45;&#45;17</title>
<path fill="none" stroke="blue" stroke-width="3" stroke-dasharray="5,2" d="M570.23,-245.2C582.72,-245.2 598.25,-245.2 609.93,-245.2"/>
</g>
<!-- 17&#45;&#45;26 -->
<g id="edge26" class="edge">
<title>17&#45;&#45;26</title>
<path fill="none" stroke="blue" stroke-width="3" stroke-dasharray="5,2" d="M643.77,-235.79C657.75,-226.85 678.66,-213.48 692.62,-204.56"/>
</g>
<!-- 19 -->
<g id="node20" class="node">
<title>19</title>
<g id="a_node20"><a xlink:title="Q&#45;Z(1.5)">
<ellipse fill="green" stroke="black" stroke-width="3" cx="547.87" cy="-450.2" rx="22.2" ry="22.2"/>
<text text-anchor="middle" x="547.87" y="-446.5" font-family="Times,serif" font-size="14.00">1.5</text>
</a>
</g>
<text text-anchor="start" x="511.77" y="-416.9" font-family="Times,serif" font-size="14.00" fill="grey">19</text>
</g>
<!-- 18&#45;&#45;19 -->
<g id="edge18" class="edge">
<title>18&#45;&#45;19</title>
<path fill="none" stroke="blue" stroke-width="3" stroke-dasharray="5,2" d="M478.57,-553.25C492.88,-531.67 519.29,-491.82 534.74,-468.5"/>
</g>
<!-- 20 -->
<g id="node21" class="node">
<title>20</title>
<g id="a_node21"><a xlink:title="Q&#45;Z(1.0)">
<ellipse fill="green" stroke="black" stroke-width="3" cx="628.06" cy="-324.2" rx="22.2" ry="22.2"/>
<text text-anchor="middle" x="628.06" y="-320.5" font-family="Times,serif" font-size="14.00">1.0</text>
</a>
</g>
<text text-anchor="start" x="591.97" y="-290.9" font-family="Times,serif" font-size="14.00" fill="grey">20</text>
</g>
<!-- 19&#45;&#45;20 -->
<g id="edge8" class="edge">
<title>19&#45;&#45;20</title>
<path fill="none" stroke="blue" stroke-width="3" stroke-dasharray="5,2" d="M560.24,-431.87C575.06,-407.99 600.85,-366.44 615.68,-342.54"/>
</g>
<!-- 21 -->
<g id="node22" class="node">
<title>21</title>
<g id="a_node22"><a xlink:title="Q&#45;Z(0.5)">
<ellipse fill="green" stroke="black" stroke-width="3" cx="708.26" cy="-263.2" rx="22.2" ry="22.2"/>
<text text-anchor="middle" x="708.26" y="-259.5" font-family="Times,serif" font-size="14.00">0.5</text>
</a>
</g>
<text text-anchor="start" x="672.16" y="-229.9" font-family="Times,serif" font-size="14.00" fill="grey">21</text>
</g>
<!-- 20&#45;&#45;21 -->
<g id="edge9" class="edge">
<title>20&#45;&#45;21</title>
<path fill="none" stroke="blue" stroke-width="3" stroke-dasharray="5,2" d="M646.03,-310.96C659.15,-300.73 677.22,-286.63 690.33,-276.41"/>
</g>
<!-- 22 -->
<g id="node23" class="node">
<title>22</title>
<g id="a_node23"><a xlink:title="Q&#45;Z(1.0)">
<ellipse fill="green" stroke="black" stroke-width="3" cx="788.46" cy="-205.2" rx="22.2" ry="22.2"/>
<text text-anchor="middle" x="788.46" y="-201.5" font-family="Times,serif" font-size="14.00">1.0</text>
</a>
</g>
<text text-anchor="start" x="752.36" y="-171.9" font-family="Times,serif" font-size="14.00" fill="grey">22</text>
</g>
<!-- 21&#45;&#45;22 -->
<g id="edge10" class="edge">
<title>21&#45;&#45;22</title>
<path fill="none" stroke="blue" stroke-width="3" stroke-dasharray="5,2" d="M726.61,-250.32C739.57,-240.71 757.2,-227.64 770.15,-218.03"/>
</g>
<!-- 22&#45;&#45;27 -->
<g id="edge28" class="edge">
<title>22&#45;&#45;27</title>
<path fill="none" stroke="blue" stroke-width="3" stroke-dasharray="5,2" d="M807.02,-192.87C819.85,-183.86 837.06,-171.79 849.1,-163.34"/>
</g>
<!-- 23&#45;&#45;14 -->
<g id="edge20" class="edge">
<title>23&#45;&#45;14</title>
<path fill="none" stroke="blue" stroke-width="3" stroke-dasharray="5,2" d="M173.53,-265.32C210.97,-261.17 300.43,-251.27 338.1,-247.1"/>
</g>
<!-- 24&#45;&#45;18 -->
<g id="edge22" class="edge">
<title>24&#45;&#45;18</title>
<path fill="none" stroke="blue" stroke-width="3" stroke-dasharray="5,2" d="M258.27,-519.18C300.13,-529.03 408.1,-554.42 449.85,-564.24"/>
</g>
<!-- input_rank -->
<g id="node29" class="node">
<title>input_rank</title>
</g>
<!-- input_rank&#45;&#45;0 -->
<!-- output_rank -->
<g id="node30" class="node">
<title>output_rank</title>
</g>
<!-- input_rank&#45;&#45;output_rank -->
<!-- output_rank&#45;&#45;4 -->
</g>
</svg>
