<?xml version="1.0" encoding="UTF-8" standalone="no"?>
<!DOCTYPE svg PUBLIC "-//W3C//DTD SVG 1.1//EN"
 "http://www.w3.org/Graphics/SVG/1.1/DTD/svg11.dtd">
<!-- Generated by graphviz version 6.0.1 (20220911.1526)
 -->
<!-- Title: G Pages: 1 -->
<svg width="464pt" height="175pt"
 viewBox="0.00 0.00 464.08 175.20" xmlns="http://www.w3.org/2000/svg" xmlns:xlink="http://www.w3.org/1999/xlink">
<g id="graph0" class="graph" transform="scale(1 1) rotate(0) translate(4 171.2)">
<title>G</title>
<polygon fill="white" stroke="none" points="-4,4 -4,-171.2 460.08,-171.2 460.08,4 -4,4"/>
<!-- 0 -->
<g id="node1" class="node">
<title>0</title>
<g id="a_node1"><a xlink:title="Q&#45;Input">
<ellipse fill="white" stroke="black" stroke-width="3" stroke-dasharray="5,2" cx="48.75" cy="-75.2" rx="38.19" ry="38.19"/>
<text text-anchor="middle" x="48.75" y="-71.5" font-family="Times,serif" font-size="14.00">Q&#45;Input</text>
</a>
</g>
<text text-anchor="start" x="3.4" y="-25.65" font-family="Times,serif" font-size="14.00" fill="grey">0</text>
</g>
<!-- 2 -->
<g id="node3" class="node">
<title>2</title>
<g id="a_node3"><a xlink:title="Q&#45;Z(0.0)">
<ellipse fill="green" stroke="black" stroke-width="3" cx="151.49" cy="-75.2" rx="18" ry="18"/>
</a>
</g>
<text text-anchor="start" x="126.49" y="-46" font-family="Times,serif" font-size="14.00" fill="grey">2</text>
</g>
<!-- 0&#45;&#45;2 -->
<g id="edge1" class="edge">
<title>0&#45;&#45;2</title>
<path fill="none" stroke="black" stroke-width="3" d="M87.26,-75.2C103.04,-75.2 120.62,-75.2 133.23,-75.2"/>
</g>
<!-- 1 -->
<g id="node2" class="node">
<title>1</title>
<g id="a_node2"><a xlink:title="Q&#45;Output">
<ellipse fill="white" stroke="black" stroke-width="3" stroke-dasharray="5,2" cx="402.79" cy="-59.2" rx="44.39" ry="44.39"/>
<text text-anchor="middle" x="402.79" y="-55.5" font-family="Times,serif" font-size="14.00">Q&#45;Output</text>
</a>
</g>
<text text-anchor="start" x="351.59" y="-3.8" font-family="Times,serif" font-size="14.00" fill="grey">1</text>
</g>
<!-- 3 -->
<g id="node4" class="node">
<title>3</title>
<g id="a_node4"><a xlink:title="Q&#45;X(0.0)">
<ellipse fill="red" stroke="black" stroke-width="3" cx="223.49" cy="-103.2" rx="18" ry="18"/>
</a>
</g>
<text text-anchor="start" x="198.49" y="-74" font-family="Times,serif" font-size="14.00" fill="grey">3</text>
</g>
<!-- 2&#45;&#45;3 -->
<g id="edge2" class="edge">
<title>2&#45;&#45;3</title>
<path fill="none" stroke="black" stroke-width="3" d="M168.38,-81.55C179.67,-86.07 194.8,-92.12 206.18,-96.67"/>
</g>
<!-- 5 -->
<g id="node6" class="node">
<title>5</title>
<g id="a_node6"><a xlink:title="C&#45;X(0.0)">
<ellipse fill="red" stroke="black" cx="223.49" cy="-49.2" rx="18" ry="18"/>
</a>
</g>
<text text-anchor="start" x="198.49" y="-20" font-family="Times,serif" font-size="14.00" fill="grey">5</text>
</g>
<!-- 2&#45;&#45;5 -->
<g id="edge3" class="edge">
<title>2&#45;&#45;5</title>
<path fill="none" stroke="black" stroke-width="3" d="M168.73,-69.17C180.04,-64.97 195.05,-59.39 206.34,-55.19"/>
</g>
<!-- 4 -->
<g id="node5" class="node">
<title>4</title>
<g id="a_node5"><a xlink:title="C&#45;Z(0.0)">
<ellipse fill="green" stroke="black" cx="295.49" cy="-103.2" rx="18" ry="18"/>
</a>
</g>
<text text-anchor="start" x="270.49" y="-74" font-family="Times,serif" font-size="14.00" fill="grey">4</text>
</g>
<!-- 3&#45;&#45;4 -->
<g id="edge4" class="edge">
<title>3&#45;&#45;4</title>
<path fill="none" stroke="black" stroke-width="3" d="M240.73,-97.4C252.04,-96.13 267.05,-96.13 278.34,-97.41"/>
</g>
<!-- 6 -->
<g id="node7" class="node">
<title>6</title>
<g id="a_node7"><a xlink:title="Q&#45;Z(0.0)">
<ellipse fill="green" stroke="black" stroke-width="3" cx="295.49" cy="-49.2" rx="18" ry="18"/>
</a>
</g>
<text text-anchor="start" x="270.49" y="-20" font-family="Times,serif" font-size="14.00" fill="grey">6</text>
</g>
<!-- 3&#45;&#45;6 -->
<g id="edge6" class="edge">
<title>3&#45;&#45;6</title>
<path fill="none" stroke="black" stroke-width="3" d="M238.32,-92.53C250.59,-83.06 268.43,-69.3 280.69,-59.84"/>
</g>
<!-- 4&#45;&#45;3 -->
<g id="edge7" class="edge">
<title>4&#45;&#45;3</title>
<path fill="none" stroke="black" stroke-width="3" d="M278.34,-108.99C267.05,-110.26 252.04,-110.27 240.73,-109"/>
</g>
<!-- 5&#45;&#45;6 -->
<g id="edge8" class="edge">
<title>5&#45;&#45;6</title>
<path fill="none" stroke="black" stroke-width="3" d="M241.79,-49.2C252.65,-49.2 266.57,-49.2 277.39,-49.2"/>
</g>
<!-- 6&#45;&#45;1 -->
<g id="edge5" class="edge">
<title>6&#45;&#45;1</title>
<path fill="none" stroke="black" stroke-width="3" d="M313.88,-50.85C326.03,-52 342.81,-53.6 358.47,-55.08"/>
</g>
<!-- input_rank -->
<g id="node8" class="node">
<title>input_rank</title>
</g>
<!-- input_rank&#45;&#45;0 -->
<!-- output_rank -->
<g id="node9" class="node">
<title>output_rank</title>
</g>
<!-- input_rank&#45;&#45;output_rank -->
<!-- output_rank&#45;&#45;1 -->
</g>
</svg>
