<?xml version="1.0" encoding="UTF-8" standalone="no"?>
<!DOCTYPE svg PUBLIC "-//W3C//DTD SVG 1.1//EN"
 "http://www.w3.org/Graphics/SVG/1.1/DTD/svg11.dtd">
<!-- Generated by graphviz version 2.43.0 (0)
 -->
<!-- Title: G Pages: 1 -->
<svg width="731pt" height="197pt"
 viewBox="0.00 0.00 730.78 197.00" xmlns="http://www.w3.org/2000/svg" xmlns:xlink="http://www.w3.org/1999/xlink">
<g id="graph0" class="graph" transform="scale(1 1) rotate(0) translate(4 193)">
<title>G</title>
<polygon fill="white" stroke="transparent" points="-4,4 -4,-193 726.78,-193 726.78,4 -4,4"/>
<!-- 0 -->
<g id="node1" class="node">
<title>0</title>
<g id="a_node1"><a xlink:title="Q&#45;Input">
<ellipse fill="white" stroke="black" stroke-width="3" stroke-dasharray="5,2" cx="60.44" cy="-89" rx="46.29" ry="46.29"/>
<text text-anchor="middle" x="60.44" y="-85.3" font-family="Times,serif" font-size="14.00">Q&#45;Input</text>
</a>
</g>
<text text-anchor="start" x="4.3" y="-31.65" font-family="Times,serif" font-size="14.00" fill="grey">0</text>
</g>
<!-- 2 -->
<g id="node3" class="node">
<title>2</title>
<g id="a_node3"><a xlink:title="Q&#45;Z(0.0)">
<ellipse fill="green" stroke="black" stroke-width="3" cx="174.89" cy="-89" rx="18" ry="18"/>
</a>
</g>
<text text-anchor="start" x="146.89" y="-59.8" font-family="Times,serif" font-size="14.00" fill="grey">2</text>
</g>
<!-- 0&#45;&#45;2 -->
<g id="edge2" class="edge">
<title>0&#45;&#45;2</title>
<path fill="none" stroke="black" stroke-width="3" d="M106.86,-89C124.41,-89 143.43,-89 156.7,-89"/>
</g>
<!-- 1 -->
<g id="node2" class="node">
<title>1</title>
<g id="a_node2"><a xlink:title="Q&#45;Output">
<ellipse fill="white" stroke="black" stroke-width="3" stroke-dasharray="5,2" cx="655.83" cy="-81" rx="53.89" ry="53.89"/>
<text text-anchor="middle" x="655.83" y="-77.3" font-family="Times,serif" font-size="14.00">Q&#45;Output</text>
</a>
</g>
<text text-anchor="start" x="591.89" y="-15.85" font-family="Times,serif" font-size="14.00" fill="grey">1</text>
</g>
<!-- 3 -->
<g id="node4" class="node">
<title>3</title>
<g id="a_node4"><a xlink:title="Q&#45;X(0.0)">
<ellipse fill="red" stroke="black" stroke-width="3" cx="246.89" cy="-89" rx="18" ry="18"/>
</a>
</g>
<text text-anchor="start" x="218.89" y="-59.8" font-family="Times,serif" font-size="14.00" fill="grey">3</text>
</g>
<!-- 2&#45;&#45;3 -->
<g id="edge3" class="edge">
<title>2&#45;&#45;3</title>
<path fill="none" stroke="black" stroke-width="3" d="M193.19,-89C204.04,-89 217.97,-89 228.78,-89"/>
</g>
<!-- 5 -->
<g id="node6" class="node">
<title>5</title>
<g id="a_node6"><a xlink:title="C&#45;X(0.0)">
<ellipse fill="red" stroke="black" cx="246.89" cy="-35" rx="18" ry="18"/>
</a>
</g>
<text text-anchor="start" x="218.89" y="-5.8" font-family="Times,serif" font-size="14.00" fill="grey">5</text>
</g>
<!-- 2&#45;&#45;5 -->
<g id="edge4" class="edge">
<title>2&#45;&#45;5</title>
<path fill="none" stroke="black" stroke-width="3" d="M189.72,-78.33C201.99,-68.86 219.82,-55.11 232.09,-45.65"/>
</g>
<!-- 4 -->
<g id="node5" class="node">
<title>4</title>
<g id="a_node5"><a xlink:title="C&#45;Z(0.0)">
<ellipse fill="green" stroke="black" cx="318.89" cy="-87" rx="18" ry="18"/>
</a>
</g>
<text text-anchor="start" x="290.89" y="-57.8" font-family="Times,serif" font-size="14.00" fill="grey">4</text>
</g>
<!-- 3&#45;&#45;4 -->
<g id="edge5" class="edge">
<title>3&#45;&#45;4</title>
<path fill="none" stroke="black" stroke-width="3" d="M265.19,-88.51C276.04,-88.2 289.97,-87.8 300.78,-87.49"/>
</g>
<!-- 9 -->
<g id="node10" class="node">
<title>9</title>
<g id="a_node10"><a xlink:title="Q&#45;X(0.0)">
<ellipse fill="red" stroke="black" stroke-width="3" cx="462.89" cy="-87" rx="18" ry="18"/>
</a>
</g>
<text text-anchor="start" x="434.89" y="-57.8" font-family="Times,serif" font-size="14.00" fill="grey">9</text>
</g>
<!-- 3&#45;&#45;9 -->
<g id="edge1" class="edge">
<title>3&#45;&#45;9</title>
<path fill="none" stroke="black" stroke-width="3" d="M262.56,-98.08C272.86,-103.91 287.19,-110.93 300.89,-114 347.73,-124.49 362.22,-125.2 408.89,-114 422.75,-110.67 437.06,-103.09 447.32,-96.8"/>
</g>
<!-- 6 -->
<g id="node7" class="node">
<title>6</title>
<g id="a_node7"><a xlink:title="C&#45;Z(0.0)">
<ellipse fill="green" stroke="black" cx="390.89" cy="-87" rx="18" ry="18"/>
</a>
</g>
<text text-anchor="start" x="362.89" y="-57.8" font-family="Times,serif" font-size="14.00" fill="grey">6</text>
</g>
<!-- 4&#45;&#45;6 -->
<g id="edge8" class="edge">
<title>4&#45;&#45;6</title>
<path fill="none" stroke="black" d="M337.19,-87C348.04,-87 361.97,-87 372.78,-87"/>
</g>
<!-- 7 -->
<g id="node8" class="node">
<title>7</title>
<g id="a_node8"><a xlink:title="C&#45;X(0.0)">
<ellipse fill="red" stroke="black" cx="390.89" cy="-33" rx="18" ry="18"/>
</a>
</g>
<text text-anchor="start" x="362.89" y="-3.8" font-family="Times,serif" font-size="14.00" fill="grey">7</text>
</g>
<!-- 5&#45;&#45;7 -->
<g id="edge6" class="edge">
<title>5&#45;&#45;7</title>
<path fill="none" stroke="black" d="M265.02,-34.76C292.31,-34.37 345.37,-33.63 372.7,-33.24"/>
</g>
<!-- 6&#45;&#45;9 -->
<g id="edge9" class="edge">
<title>6&#45;&#45;9</title>
<path fill="none" stroke="black" stroke-width="3" d="M409.19,-87C420.04,-87 433.97,-87 444.78,-87"/>
</g>
<!-- 8 -->
<g id="node9" class="node">
<title>8</title>
<g id="a_node9"><a xlink:title="Q&#45;Z(0.0)">
<ellipse fill="green" stroke="black" stroke-width="3" cx="534.89" cy="-81" rx="18" ry="18"/>
</a>
</g>
<text text-anchor="start" x="506.89" y="-51.8" font-family="Times,serif" font-size="14.00" fill="grey">8</text>
</g>
<!-- 7&#45;&#45;8 -->
<g id="edge7" class="edge">
<title>7&#45;&#45;8</title>
<path fill="none" stroke="black" stroke-width="3" d="M408.42,-37.57C426.39,-42.65 455.89,-51.27 480.89,-60 493.41,-64.37 507.34,-69.92 517.78,-74.22"/>
</g>
<!-- 8&#45;&#45;1 -->
<g id="edge11" class="edge">
<title>8&#45;&#45;1</title>
<path fill="none" stroke="black" stroke-width="3" d="M552.93,-81C565.78,-81 584.14,-81 601.74,-81"/>
</g>
<!-- 9&#45;&#45;8 -->
<g id="edge10" class="edge">
<title>9&#45;&#45;8</title>
<path fill="none" stroke="black" stroke-width="3" d="M480.83,-85.55C491.68,-84.62 505.71,-83.42 516.61,-82.48"/>
</g>
<!-- input_rank -->
<g id="node11" class="node">
<title>input_rank</title>
</g>
<!-- input_rank&#45;&#45;0 -->
<!-- output_rank -->
<g id="node12" class="node">
<title>output_rank</title>
</g>
<!-- input_rank&#45;&#45;output_rank -->
<!-- output_rank&#45;&#45;1 -->
</g>
</svg>
