<?xml version="1.0" encoding="UTF-8" standalone="no"?>
<!DOCTYPE svg PUBLIC "-//W3C//DTD SVG 1.1//EN"
 "http://www.w3.org/Graphics/SVG/1.1/DTD/svg11.dtd">
<!-- Generated by graphviz version 2.43.0 (0)
 -->
<!-- Title: Circuit Pages: 1 -->
<svg width="875pt" height="149pt"
 viewBox="0.00 0.00 875.00 149.00" xmlns="http://www.w3.org/2000/svg" xmlns:xlink="http://www.w3.org/1999/xlink">
<g id="graph0" class="graph" transform="scale(1 1) rotate(0) translate(4 145)">
<title>Circuit</title>
<polygon fill="white" stroke="transparent" points="-4,4 -4,-145 871,-145 871,4 -4,4"/>
<g id="clust1" class="cluster">
<title>cluster_q_inputs</title>
<path fill="lightgrey" stroke="lightgrey" d="M18.53,-49C18.53,-49 23.07,-49 23.07,-49 25.33,-49 27.6,-51.27 27.6,-53.53 27.6,-53.53 27.6,-88.47 27.6,-88.47 27.6,-90.73 25.33,-93 23.07,-93 23.07,-93 18.53,-93 18.53,-93 16.27,-93 14,-90.73 14,-88.47 14,-88.47 14,-53.53 14,-53.53 14,-51.27 16.27,-49 18.53,-49"/>
</g>
<g id="clust3" class="cluster">
<title>cluster_q_outputs</title>
<path fill="lightgrey" stroke="lightgrey" d="M849.93,-41C849.93,-41 854.47,-41 854.47,-41 856.73,-41 859,-43.27 859,-45.53 859,-45.53 859,-80.47 859,-80.47 859,-82.73 856.73,-85 854.47,-85 854.47,-85 849.93,-85 849.93,-85 847.67,-85 845.4,-82.73 845.4,-80.47 845.4,-80.47 845.4,-45.53 845.4,-45.53 845.4,-43.27 847.67,-41 849.93,-41"/>
</g>
<g id="clust5" class="cluster">
<title>cluster_3</title>
<path fill="lightblue" stroke="lightblue" d="M48.13,-64C48.13,-64 56.67,-64 56.67,-64 60.93,-64 65.2,-68.27 65.2,-72.53 65.2,-72.53 65.2,-88.47 65.2,-88.47 65.2,-92.73 60.93,-97 56.67,-97 56.67,-97 48.13,-97 48.13,-97 43.87,-97 39.6,-92.73 39.6,-88.47 39.6,-88.47 39.6,-72.53 39.6,-72.53 39.6,-68.27 43.87,-64 48.13,-64"/>
<text text-anchor="middle" x="52.4" y="-85" font-family="Times,serif" font-size="10.00">H</text>
</g>
<g id="clust6" class="cluster">
<title>cluster_4</title>
<path fill="lightblue" stroke="lightblue" d="M156.33,-45C156.33,-45 164.87,-45 164.87,-45 169.13,-45 173.4,-49.27 173.4,-53.53 173.4,-53.53 173.4,-69.47 173.4,-69.47 173.4,-73.73 169.13,-78 164.87,-78 164.87,-78 156.33,-78 156.33,-78 152.07,-78 147.8,-73.73 147.8,-69.47 147.8,-69.47 147.8,-53.53 147.8,-53.53 147.8,-49.27 152.07,-45 156.33,-45"/>
<text text-anchor="middle" x="160.6" y="-66" font-family="Times,serif" font-size="10.00">H</text>
</g>
<g id="clust7" class="cluster">
<title>cluster_5</title>
<path fill="lightblue" stroke="lightblue" d="M88.2,-65C88.2,-65 123.8,-65 123.8,-65 129.3,-65 134.8,-70.5 134.8,-76 134.8,-76 134.8,-87 134.8,-87 134.8,-92.5 129.3,-98 123.8,-98 123.8,-98 88.2,-98 88.2,-98 82.7,-98 77.2,-92.5 77.2,-87 77.2,-87 77.2,-76 77.2,-76 77.2,-70.5 82.7,-65 88.2,-65"/>
<text text-anchor="middle" x="106" y="-86" font-family="Times,serif" font-size="10.00">Rz(0.45)</text>
</g>
<g id="clust8" class="cluster">
<title>cluster_6</title>
<path fill="lightblue" stroke="lightblue" d="M91.2,-100C91.2,-100 120.8,-100 120.8,-100 126.3,-100 131.8,-105.5 131.8,-111 131.8,-111 131.8,-122 131.8,-122 131.8,-127.5 126.3,-133 120.8,-133 120.8,-133 91.2,-133 91.2,-133 85.7,-133 80.2,-127.5 80.2,-122 80.2,-122 80.2,-111 80.2,-111 80.2,-105.5 85.7,-100 91.2,-100"/>
<text text-anchor="middle" x="106" y="-121" font-family="Times,serif" font-size="10.00">Rz(0.2)</text>
</g>
<g id="clust9" class="cluster">
<title>cluster_7</title>
<path fill="lightblue" stroke="lightblue" d="M156,-80C156,-80 166.2,-80 166.2,-80 171.3,-80 176.4,-85.1 176.4,-90.2 176.4,-90.2 176.4,-117.8 176.4,-117.8 176.4,-122.9 171.3,-128 166.2,-128 166.2,-128 156,-128 156,-128 150.9,-128 145.8,-122.9 145.8,-117.8 145.8,-117.8 145.8,-90.2 145.8,-90.2 145.8,-85.1 150.9,-80 156,-80"/>
<text text-anchor="middle" x="161.1" y="-116" font-family="Times,serif" font-size="10.00">CX</text>
</g>
<g id="clust10" class="cluster">
<title>cluster_8</title>
<path fill="lightblue" stroke="lightblue" d="M198.6,-45C198.6,-45 208.8,-45 208.8,-45 213.9,-45 219,-50.1 219,-55.2 219,-55.2 219,-82.8 219,-82.8 219,-87.9 213.9,-93 208.8,-93 208.8,-93 198.6,-93 198.6,-93 193.5,-93 188.4,-87.9 188.4,-82.8 188.4,-82.8 188.4,-55.2 188.4,-55.2 188.4,-50.1 193.5,-45 198.6,-45"/>
<text text-anchor="middle" x="203.7" y="-81" font-family="Times,serif" font-size="10.00">CX</text>
</g>
<g id="clust11" class="cluster">
<title>cluster_9</title>
<path fill="lightblue" stroke="lightblue" d="M242,-60C242,-60 271.6,-60 271.6,-60 277.1,-60 282.6,-65.5 282.6,-71 282.6,-71 282.6,-82 282.6,-82 282.6,-87.5 277.1,-93 271.6,-93 271.6,-93 242,-93 242,-93 236.5,-93 231,-87.5 231,-82 231,-82 231,-71 231,-71 231,-65.5 236.5,-60 242,-60"/>
<text text-anchor="middle" x="256.8" y="-81" font-family="Times,serif" font-size="10.00">Rz(0.8)</text>
</g>
<g id="clust12" class="cluster">
<title>cluster_10</title>
<path fill="lightblue" stroke="lightblue" d="M347.4,-41C347.4,-41 357.6,-41 357.6,-41 362.7,-41 367.8,-46.1 367.8,-51.2 367.8,-51.2 367.8,-78.8 367.8,-78.8 367.8,-83.9 362.7,-89 357.6,-89 357.6,-89 347.4,-89 347.4,-89 342.3,-89 337.2,-83.9 337.2,-78.8 337.2,-78.8 337.2,-51.2 337.2,-51.2 337.2,-46.1 342.3,-41 347.4,-41"/>
<text text-anchor="middle" x="352.5" y="-77" font-family="Times,serif" font-size="10.00">CX</text>
</g>
<g id="clust13" class="cluster">
<title>cluster_11</title>
<path fill="lightblue" stroke="lightblue" d="M304.8,-67C304.8,-67 315,-67 315,-67 320.1,-67 325.2,-72.1 325.2,-77.2 325.2,-77.2 325.2,-104.8 325.2,-104.8 325.2,-109.9 320.1,-115 315,-115 315,-115 304.8,-115 304.8,-115 299.7,-115 294.6,-109.9 294.6,-104.8 294.6,-104.8 294.6,-77.2 294.6,-77.2 294.6,-72.1 299.7,-67 304.8,-67"/>
<text text-anchor="middle" x="309.9" y="-103" font-family="Times,serif" font-size="10.00">CX</text>
</g>
<g id="clust14" class="cluster">
<title>cluster_12</title>
<path fill="lightblue" stroke="lightblue" d="M347.73,-89C347.73,-89 356.27,-89 356.27,-89 360.53,-89 364.8,-93.27 364.8,-97.53 364.8,-97.53 364.8,-113.47 364.8,-113.47 364.8,-117.73 360.53,-122 356.27,-122 356.27,-122 347.73,-122 347.73,-122 343.47,-122 339.2,-117.73 339.2,-113.47 339.2,-113.47 339.2,-97.53 339.2,-97.53 339.2,-93.27 343.47,-89 347.73,-89"/>
<text text-anchor="middle" x="352" y="-110" font-family="Times,serif" font-size="10.00">H</text>
</g>
<g id="clust15" class="cluster">
<title>cluster_13</title>
<path fill="lightblue" stroke="lightblue" d="M388.33,-56C388.33,-56 396.87,-56 396.87,-56 401.13,-56 405.4,-60.27 405.4,-64.53 405.4,-64.53 405.4,-80.47 405.4,-80.47 405.4,-84.73 401.13,-89 396.87,-89 396.87,-89 388.33,-89 388.33,-89 384.07,-89 379.8,-84.73 379.8,-80.47 379.8,-80.47 379.8,-64.53 379.8,-64.53 379.8,-60.27 384.07,-56 388.33,-56"/>
<text text-anchor="middle" x="392.6" y="-77" font-family="Times,serif" font-size="10.00">H</text>
</g>
<g id="clust16" class="cluster">
<title>cluster_14</title>
<path fill="lightblue" stroke="lightblue" d="M388.67,-23C388.67,-23 396.53,-23 396.53,-23 400.47,-23 404.4,-26.93 404.4,-30.87 404.4,-30.87 404.4,-48.13 404.4,-48.13 404.4,-52.07 400.47,-56 396.53,-56 396.53,-56 388.67,-56 388.67,-56 384.73,-56 380.8,-52.07 380.8,-48.13 380.8,-48.13 380.8,-30.87 380.8,-30.87 380.8,-26.93 384.73,-23 388.67,-23"/>
<text text-anchor="middle" x="392.6" y="-44" font-family="Times,serif" font-size="10.00">V</text>
</g>
<g id="clust17" class="cluster">
<title>cluster_15</title>
<path fill="lightblue" stroke="lightblue" d="M388.33,-89C388.33,-89 396.87,-89 396.87,-89 401.13,-89 405.4,-93.27 405.4,-97.53 405.4,-97.53 405.4,-113.47 405.4,-113.47 405.4,-117.73 401.13,-122 396.87,-122 396.87,-122 388.33,-122 388.33,-122 384.07,-122 379.8,-117.73 379.8,-113.47 379.8,-113.47 379.8,-97.53 379.8,-97.53 379.8,-93.27 384.07,-89 388.33,-89"/>
<text text-anchor="middle" x="392.6" y="-110" font-family="Times,serif" font-size="10.00">H</text>
</g>
<g id="clust18" class="cluster">
<title>cluster_16</title>
<path fill="lightblue" stroke="lightblue" d="M427.6,-65C427.6,-65 437.8,-65 437.8,-65 442.9,-65 448,-70.1 448,-75.2 448,-75.2 448,-102.8 448,-102.8 448,-107.9 442.9,-113 437.8,-113 437.8,-113 427.6,-113 427.6,-113 422.5,-113 417.4,-107.9 417.4,-102.8 417.4,-102.8 417.4,-75.2 417.4,-75.2 417.4,-70.1 422.5,-65 427.6,-65"/>
<text text-anchor="middle" x="432.7" y="-101" font-family="Times,serif" font-size="10.00">CX</text>
</g>
<g id="clust19" class="cluster">
<title>cluster_17</title>
<path fill="lightblue" stroke="lightblue" d="M470.2,-23C470.2,-23 480.4,-23 480.4,-23 485.5,-23 490.6,-28.1 490.6,-33.2 490.6,-33.2 490.6,-60.8 490.6,-60.8 490.6,-65.9 485.5,-71 480.4,-71 480.4,-71 470.2,-71 470.2,-71 465.1,-71 460,-65.9 460,-60.8 460,-60.8 460,-33.2 460,-33.2 460,-28.1 465.1,-23 470.2,-23"/>
<text text-anchor="middle" x="475.3" y="-59" font-family="Times,serif" font-size="10.00">CX</text>
</g>
<g id="clust20" class="cluster">
<title>cluster_18</title>
<path fill="lightblue" stroke="lightblue" d="M513.6,-8C513.6,-8 543.2,-8 543.2,-8 548.7,-8 554.2,-13.5 554.2,-19 554.2,-19 554.2,-30 554.2,-30 554.2,-35.5 548.7,-41 543.2,-41 543.2,-41 513.6,-41 513.6,-41 508.1,-41 502.6,-35.5 502.6,-30 502.6,-30 502.6,-19 502.6,-19 502.6,-13.5 508.1,-8 513.6,-8"/>
<text text-anchor="middle" x="528.4" y="-29" font-family="Times,serif" font-size="10.00">Rz(3.4)</text>
</g>
<g id="clust21" class="cluster">
<title>cluster_19</title>
<path fill="lightblue" stroke="lightblue" d="M576.4,-23C576.4,-23 586.6,-23 586.6,-23 591.7,-23 596.8,-28.1 596.8,-33.2 596.8,-33.2 596.8,-60.8 596.8,-60.8 596.8,-65.9 591.7,-71 586.6,-71 586.6,-71 576.4,-71 576.4,-71 571.3,-71 566.2,-65.9 566.2,-60.8 566.2,-60.8 566.2,-33.2 566.2,-33.2 566.2,-28.1 571.3,-23 576.4,-23"/>
<text text-anchor="middle" x="581.5" y="-59" font-family="Times,serif" font-size="10.00">CX</text>
</g>
<g id="clust22" class="cluster">
<title>cluster_20</title>
<path fill="lightblue" stroke="lightblue" d="M619,-59C619,-59 629.2,-59 629.2,-59 634.3,-59 639.4,-64.1 639.4,-69.2 639.4,-69.2 639.4,-96.8 639.4,-96.8 639.4,-101.9 634.3,-107 629.2,-107 629.2,-107 619,-107 619,-107 613.9,-107 608.8,-101.9 608.8,-96.8 608.8,-96.8 608.8,-69.2 608.8,-69.2 608.8,-64.1 613.9,-59 619,-59"/>
<text text-anchor="middle" x="624.1" y="-95" font-family="Times,serif" font-size="10.00">CX</text>
</g>
<g id="clust23" class="cluster">
<title>cluster_21</title>
<path fill="lightblue" stroke="lightblue" d="M662.4,-23C662.4,-23 678,-23 678,-23 683.5,-23 689,-28.5 689,-34 689,-34 689,-45 689,-45 689,-50.5 683.5,-56 678,-56 678,-56 662.4,-56 662.4,-56 656.9,-56 651.4,-50.5 651.4,-45 651.4,-45 651.4,-34 651.4,-34 651.4,-28.5 656.9,-23 662.4,-23"/>
<text text-anchor="middle" x="670.2" y="-44" font-family="Times,serif" font-size="10.00">Vdg</text>
</g>
<g id="clust24" class="cluster">
<title>cluster_22</title>
<path fill="lightblue" stroke="lightblue" d="M665.93,-58C665.93,-58 674.47,-58 674.47,-58 678.73,-58 683,-62.27 683,-66.53 683,-66.53 683,-82.47 683,-82.47 683,-86.73 678.73,-91 674.47,-91 674.47,-91 665.93,-91 665.93,-91 661.67,-91 657.4,-86.73 657.4,-82.47 657.4,-82.47 657.4,-66.53 657.4,-66.53 657.4,-62.27 661.67,-58 665.93,-58"/>
<text text-anchor="middle" x="670.2" y="-79" font-family="Times,serif" font-size="10.00">H</text>
</g>
<g id="clust25" class="cluster">
<title>cluster_26</title>
<path fill="lightblue" stroke="lightblue" d="M708.87,-23C708.87,-23 716.73,-23 716.73,-23 720.67,-23 724.6,-26.93 724.6,-30.87 724.6,-30.87 724.6,-48.13 724.6,-48.13 724.6,-52.07 720.67,-56 716.73,-56 716.73,-56 708.87,-56 708.87,-56 704.93,-56 701,-52.07 701,-48.13 701,-48.13 701,-30.87 701,-30.87 701,-26.93 704.93,-23 708.87,-23"/>
<text text-anchor="middle" x="712.8" y="-44" font-family="Times,serif" font-size="10.00">V</text>
</g>
<g id="clust26" class="cluster">
<title>cluster_27</title>
<path fill="lightblue" stroke="lightblue" d="M708.87,-58C708.87,-58 716.73,-58 716.73,-58 720.67,-58 724.6,-61.93 724.6,-65.87 724.6,-65.87 724.6,-83.13 724.6,-83.13 724.6,-87.07 720.67,-91 716.73,-91 716.73,-91 708.87,-91 708.87,-91 704.93,-91 701,-87.07 701,-83.13 701,-83.13 701,-65.87 701,-65.87 701,-61.93 704.93,-58 708.87,-58"/>
<text text-anchor="middle" x="712.8" y="-79" font-family="Times,serif" font-size="10.00">V</text>
</g>
<g id="clust27" class="cluster">
<title>cluster_28</title>
<path fill="lightblue" stroke="lightblue" d="M666.27,-91C666.27,-91 674.13,-91 674.13,-91 678.07,-91 682,-94.93 682,-98.87 682,-98.87 682,-116.13 682,-116.13 682,-120.07 678.07,-124 674.13,-124 674.13,-124 666.27,-124 666.27,-124 662.33,-124 658.4,-120.07 658.4,-116.13 658.4,-116.13 658.4,-98.87 658.4,-98.87 658.4,-94.93 662.33,-91 666.27,-91"/>
<text text-anchor="middle" x="670.2" y="-112" font-family="Times,serif" font-size="10.00">V</text>
</g>
<g id="clust28" class="cluster">
<title>cluster_29</title>
<path fill="lightblue" stroke="lightblue" d="M745.13,-23C745.13,-23 752.67,-23 752.67,-23 756.43,-23 760.2,-26.77 760.2,-30.53 760.2,-30.53 760.2,-48.47 760.2,-48.47 760.2,-52.23 756.43,-56 752.67,-56 752.67,-56 745.13,-56 745.13,-56 741.37,-56 737.6,-52.23 737.6,-48.47 737.6,-48.47 737.6,-30.53 737.6,-30.53 737.6,-26.77 741.37,-23 745.13,-23"/>
<text text-anchor="middle" x="748.9" y="-44" font-family="Times,serif" font-size="10.00">S</text>
</g>
<g id="clust29" class="cluster">
<title>cluster_30</title>
<path fill="lightblue" stroke="lightblue" d="M745.13,-58C745.13,-58 752.67,-58 752.67,-58 756.43,-58 760.2,-61.77 760.2,-65.53 760.2,-65.53 760.2,-83.47 760.2,-83.47 760.2,-87.23 756.43,-91 752.67,-91 752.67,-91 745.13,-91 745.13,-91 741.37,-91 737.6,-87.23 737.6,-83.47 737.6,-83.47 737.6,-65.53 737.6,-65.53 737.6,-61.77 741.37,-58 745.13,-58"/>
<text text-anchor="middle" x="748.9" y="-79" font-family="Times,serif" font-size="10.00">S</text>
</g>
<g id="clust30" class="cluster">
<title>cluster_31</title>
<path fill="lightblue" stroke="lightblue" d="M709.53,-91C709.53,-91 717.07,-91 717.07,-91 720.83,-91 724.6,-94.77 724.6,-98.53 724.6,-98.53 724.6,-116.47 724.6,-116.47 724.6,-120.23 720.83,-124 717.07,-124 717.07,-124 709.53,-124 709.53,-124 705.77,-124 702,-120.23 702,-116.47 702,-116.47 702,-98.53 702,-98.53 702,-94.77 705.77,-91 709.53,-91"/>
<text text-anchor="middle" x="713.3" y="-112" font-family="Times,serif" font-size="10.00">S</text>
</g>
<g id="clust31" class="cluster">
<title>cluster_32</title>
<path fill="lightblue" stroke="lightblue" d="M781.73,-23C781.73,-23 790.27,-23 790.27,-23 794.53,-23 798.8,-27.27 798.8,-31.53 798.8,-31.53 798.8,-47.47 798.8,-47.47 798.8,-51.73 794.53,-56 790.27,-56 790.27,-56 781.73,-56 781.73,-56 777.47,-56 773.2,-51.73 773.2,-47.47 773.2,-47.47 773.2,-31.53 773.2,-31.53 773.2,-27.27 777.47,-23 781.73,-23"/>
<text text-anchor="middle" x="786" y="-44" font-family="Times,serif" font-size="10.00">H</text>
</g>
<g id="clust32" class="cluster">
<title>cluster_33</title>
<path fill="lightblue" stroke="lightblue" d="M781.73,-57C781.73,-57 790.27,-57 790.27,-57 794.53,-57 798.8,-61.27 798.8,-65.53 798.8,-65.53 798.8,-81.47 798.8,-81.47 798.8,-85.73 794.53,-90 790.27,-90 790.27,-90 781.73,-90 781.73,-90 777.47,-90 773.2,-85.73 773.2,-81.47 773.2,-81.47 773.2,-65.53 773.2,-65.53 773.2,-61.27 777.47,-57 781.73,-57"/>
<text text-anchor="middle" x="786" y="-78" font-family="Times,serif" font-size="10.00">H</text>
</g>
<g id="clust33" class="cluster">
<title>cluster_34</title>
<path fill="lightblue" stroke="lightblue" d="M744.13,-91C744.13,-91 752.67,-91 752.67,-91 756.93,-91 761.2,-95.27 761.2,-99.53 761.2,-99.53 761.2,-115.47 761.2,-115.47 761.2,-119.73 756.93,-124 752.67,-124 752.67,-124 744.13,-124 744.13,-124 739.87,-124 735.6,-119.73 735.6,-115.47 735.6,-115.47 735.6,-99.53 735.6,-99.53 735.6,-95.27 739.87,-91 744.13,-91"/>
<text text-anchor="middle" x="748.4" y="-112" font-family="Times,serif" font-size="10.00">H</text>
</g>
<g id="clust34" class="cluster">
<title>cluster_35</title>
<path fill="lightblue" stroke="lightblue" d="M818.33,-23C818.33,-23 825.87,-23 825.87,-23 829.63,-23 833.4,-26.77 833.4,-30.53 833.4,-30.53 833.4,-48.47 833.4,-48.47 833.4,-52.23 829.63,-56 825.87,-56 825.87,-56 818.33,-56 818.33,-56 814.57,-56 810.8,-52.23 810.8,-48.47 810.8,-48.47 810.8,-30.53 810.8,-30.53 810.8,-26.77 814.57,-23 818.33,-23"/>
<text text-anchor="middle" x="822.1" y="-44" font-family="Times,serif" font-size="10.00">S</text>
</g>
<g id="clust35" class="cluster">
<title>cluster_36</title>
<path fill="lightblue" stroke="lightblue" d="M818.33,-56C818.33,-56 825.87,-56 825.87,-56 829.63,-56 833.4,-59.77 833.4,-63.53 833.4,-63.53 833.4,-81.47 833.4,-81.47 833.4,-85.23 829.63,-89 825.87,-89 825.87,-89 818.33,-89 818.33,-89 814.57,-89 810.8,-85.23 810.8,-81.47 810.8,-81.47 810.8,-63.53 810.8,-63.53 810.8,-59.77 814.57,-56 818.33,-56"/>
<text text-anchor="middle" x="822.1" y="-77" font-family="Times,serif" font-size="10.00">S</text>
</g>
<g id="clust36" class="cluster">
<title>cluster_37</title>
<path fill="lightblue" stroke="lightblue" d="M782.73,-92C782.73,-92 790.27,-92 790.27,-92 794.03,-92 797.8,-95.77 797.8,-99.53 797.8,-99.53 797.8,-117.47 797.8,-117.47 797.8,-121.23 794.03,-125 790.27,-125 790.27,-125 782.73,-125 782.73,-125 778.97,-125 775.2,-121.23 775.2,-117.47 775.2,-117.47 775.2,-99.53 775.2,-99.53 775.2,-95.77 778.97,-92 782.73,-92"/>
<text text-anchor="middle" x="786.5" y="-113" font-family="Times,serif" font-size="10.00">S</text>
</g>
<!-- (0, 0) -->
<g id="node1" class="node">
<title>(0, 0)</title>
<ellipse fill="blue" stroke="blue" cx="20.8" cy="-86" rx="1.8" ry="1.8"/>
<text text-anchor="middle" x="9.5" y="-77.8" font-family="Courier,monospace" font-size="8.00">q[0]</text>
</g>
<!-- (6, 0) -->
<g id="node10" class="node">
<title>(6, 0)</title>
<ellipse fill="black" stroke="black" cx="106" cy="-107" rx="1.8" ry="1.8"/>
</g>
<!-- (0, 0)&#45;&gt;(6, 0) -->
<g id="edge1" class="edge">
<title>(0, 0)&#45;&gt;(6, 0)</title>
<path fill="none" stroke="blue" d="M22.68,-86.82C25.13,-89.04 32.36,-95.23 39.6,-98 62.11,-106.6 91.76,-107.14 101.64,-107.06"/>
<polygon fill="blue" stroke="blue" points="104.04,-107.03 102.06,-108.18 103.04,-107.04 102.04,-107.06 102.04,-107.06 102.04,-107.06 103.04,-107.04 102.02,-105.93 104.04,-107.03 104.04,-107.03"/>
</g>
<!-- (1, 0) -->
<g id="node2" class="node">
<title>(1, 0)</title>
<ellipse fill="blue" stroke="blue" cx="20.8" cy="-71" rx="1.8" ry="1.8"/>
<text text-anchor="middle" x="9.5" y="-62.8" font-family="Courier,monospace" font-size="8.00">q[1]</text>
</g>
<!-- (3, 0) -->
<g id="node7" class="node">
<title>(3, 0)</title>
<ellipse fill="black" stroke="black" cx="52.4" cy="-71" rx="1.8" ry="1.8"/>
</g>
<!-- (1, 0)&#45;&gt;(3, 0) -->
<g id="edge2" class="edge">
<title>(1, 0)&#45;&gt;(3, 0)</title>
<path fill="none" stroke="blue" d="M23.07,-71C27.41,-71 41.71,-71 48.18,-71"/>
<polygon fill="blue" stroke="blue" points="50.42,-71 48.42,-72.13 49.42,-71 48.42,-71 48.42,-71 48.42,-71 49.42,-71 48.42,-69.88 50.42,-71 50.42,-71"/>
</g>
<!-- (2, 0) -->
<g id="node3" class="node">
<title>(2, 0)</title>
<ellipse fill="blue" stroke="blue" cx="20.8" cy="-56" rx="1.8" ry="1.8"/>
<text text-anchor="middle" x="9.5" y="-47.8" font-family="Courier,monospace" font-size="8.00">q[2]</text>
</g>
<!-- (4, 0) -->
<g id="node8" class="node">
<title>(4, 0)</title>
<ellipse fill="black" stroke="black" cx="160.6" cy="-52" rx="1.8" ry="1.8"/>
</g>
<!-- (2, 0)&#45;&gt;(4, 0) -->
<g id="edge3" class="edge">
<title>(2, 0)&#45;&gt;(4, 0)</title>
<path fill="none" stroke="blue" d="M22.68,-55.97C33.34,-55.66 137.63,-52.64 156.64,-52.09"/>
<polygon fill="blue" stroke="blue" points="158.8,-52.02 156.83,-53.21 157.8,-52.05 156.8,-52.08 156.8,-52.08 156.8,-52.08 157.8,-52.05 156.77,-50.96 158.8,-52.02 158.8,-52.02"/>
</g>
<!-- (24, 0) -->
<g id="node4" class="node">
<title>(24, 0)</title>
<ellipse fill="blue" stroke="blue" cx="852.2" cy="-63" rx="1.8" ry="1.8"/>
<text text-anchor="middle" x="840.9" y="-54.8" font-family="Courier,monospace" font-size="8.00">q[1]</text>
</g>
<!-- (25, 0) -->
<g id="node5" class="node">
<title>(25, 0)</title>
<ellipse fill="blue" stroke="blue" cx="852.2" cy="-78" rx="1.8" ry="1.8"/>
<text text-anchor="middle" x="840.9" y="-69.8" font-family="Courier,monospace" font-size="8.00">q[2]</text>
</g>
<!-- (23, 0) -->
<g id="node6" class="node">
<title>(23, 0)</title>
<ellipse fill="blue" stroke="blue" cx="852.2" cy="-48" rx="1.8" ry="1.8"/>
<text text-anchor="middle" x="840.9" y="-39.8" font-family="Courier,monospace" font-size="8.00">q[0]</text>
</g>
<!-- (5, 0) -->
<g id="node9" class="node">
<title>(5, 0)</title>
<ellipse fill="black" stroke="black" cx="106" cy="-72" rx="1.8" ry="1.8"/>
</g>
<!-- (3, 0)&#45;&gt;(5, 0) -->
<g id="edge4" class="edge">
<title>(3, 0)&#45;&gt;(5, 0)</title>
<path fill="none" stroke="blue" d="M54.3,-71.02C60.02,-71.13 91.57,-71.74 101.8,-71.94"/>
<polygon fill="blue" stroke="blue" points="103.91,-71.98 101.89,-73.06 102.91,-71.96 101.91,-71.94 101.91,-71.94 101.91,-71.94 102.91,-71.96 101.93,-70.82 103.91,-71.98 103.91,-71.98"/>
</g>
<!-- (8, 0) -->
<g id="node13" class="node">
<title>(8, 0)</title>
<ellipse fill="black" stroke="black" cx="203.2" cy="-52" rx="1.8" ry="1.8"/>
<text text-anchor="middle" x="198.4" y="-43.8" font-family="Helvetica,sans-Serif" font-size="8.00">0</text>
</g>
<!-- (4, 0)&#45;&gt;(8, 0) -->
<g id="edge5" class="edge">
<title>(4, 0)&#45;&gt;(8, 0)</title>
<path fill="none" stroke="blue" d="M162.6,-52C167.74,-52 191.15,-52 199.35,-52"/>
<polygon fill="blue" stroke="blue" points="201.37,-52 199.37,-53.13 200.37,-52 199.37,-52 199.37,-52 199.37,-52 200.37,-52 199.37,-50.88 201.37,-52 201.37,-52"/>
</g>
<!-- (7, 0) -->
<g id="node11" class="node">
<title>(7, 0)</title>
<ellipse fill="black" stroke="black" cx="160.6" cy="-87" rx="1.8" ry="1.8"/>
<text text-anchor="middle" x="155.8" y="-78.8" font-family="Helvetica,sans-Serif" font-size="8.00">0</text>
</g>
<!-- (5, 0)&#45;&gt;(7, 0) -->
<g id="edge6" class="edge">
<title>(5, 0)&#45;&gt;(7, 0)</title>
<path fill="none" stroke="blue" d="M107.91,-72.26C113.75,-73.92 145.91,-83.1 156.34,-86.07"/>
<polygon fill="blue" stroke="blue" points="158.49,-86.68 156.26,-87.22 157.53,-86.41 156.57,-86.13 156.57,-86.13 156.57,-86.13 157.53,-86.41 156.87,-85.05 158.49,-86.68 158.49,-86.68"/>
</g>
<!-- (7, 1) -->
<g id="node12" class="node">
<title>(7, 1)</title>
<ellipse fill="black" stroke="black" cx="160.6" cy="-102" rx="1.8" ry="1.8"/>
<text text-anchor="middle" x="155.8" y="-93.8" font-family="Helvetica,sans-Serif" font-size="8.00">1</text>
</g>
<!-- (6, 0)&#45;&gt;(7, 1) -->
<g id="edge7" class="edge">
<title>(6, 0)&#45;&gt;(7, 1)</title>
<path fill="none" stroke="blue" d="M107.91,-106.91C113.75,-106.36 145.91,-103.3 156.34,-102.31"/>
<polygon fill="blue" stroke="blue" points="158.49,-102.11 156.6,-103.41 157.49,-102.2 156.5,-102.29 156.5,-102.29 156.5,-102.29 157.49,-102.2 156.39,-101.17 158.49,-102.11 158.49,-102.11"/>
</g>
<!-- (11, 0) -->
<g id="node18" class="node">
<title>(11, 0)</title>
<ellipse fill="black" stroke="black" cx="309.4" cy="-89" rx="1.8" ry="1.8"/>
<text text-anchor="middle" x="304.6" y="-80.8" font-family="Helvetica,sans-Serif" font-size="8.00">0</text>
</g>
<!-- (7, 0)&#45;&gt;(11, 0) -->
<g id="edge9" class="edge">
<title>(7, 0)&#45;&gt;(11, 0)</title>
<path fill="none" stroke="blue" d="M162.6,-87.36C166.1,-88.6 178.1,-92.68 188.4,-94 229.93,-99.33 240.92,-98 282.6,-94 290.88,-93.21 300.45,-91.01 305.27,-89.81"/>
<polygon fill="blue" stroke="blue" points="307.43,-89.26 305.77,-90.84 306.46,-89.51 305.49,-89.75 305.49,-89.75 305.49,-89.75 306.46,-89.51 305.21,-88.66 307.43,-89.26 307.43,-89.26"/>
</g>
<!-- (8, 1) -->
<g id="node14" class="node">
<title>(8, 1)</title>
<ellipse fill="black" stroke="black" cx="203.2" cy="-67" rx="1.8" ry="1.8"/>
<text text-anchor="middle" x="198.4" y="-58.8" font-family="Helvetica,sans-Serif" font-size="8.00">1</text>
</g>
<!-- (7, 1)&#45;&gt;(8, 1) -->
<g id="edge8" class="edge">
<title>(7, 1)&#45;&gt;(8, 1)</title>
<path fill="none" stroke="blue" d="M162.46,-101.65C164.82,-100.66 171.57,-97.69 176.4,-94 186.32,-86.43 195.9,-74.99 200.05,-69.77"/>
<polygon fill="blue" stroke="blue" points="201.32,-68.15 200.97,-70.42 200.71,-68.94 200.09,-69.72 200.09,-69.72 200.09,-69.72 200.71,-68.94 199.2,-69.03 201.32,-68.15 201.32,-68.15"/>
</g>
<!-- (10, 0) -->
<g id="node16" class="node">
<title>(10, 0)</title>
<ellipse fill="black" stroke="black" cx="352" cy="-48" rx="1.8" ry="1.8"/>
<text text-anchor="middle" x="347.2" y="-39.8" font-family="Helvetica,sans-Serif" font-size="8.00">0</text>
</g>
<!-- (8, 0)&#45;&gt;(10, 0) -->
<g id="edge11" class="edge">
<title>(8, 0)&#45;&gt;(10, 0)</title>
<path fill="none" stroke="blue" d="M205.14,-51.97C216.5,-51.66 327.59,-48.64 347.84,-48.09"/>
<polygon fill="blue" stroke="blue" points="350.15,-48.02 348.18,-49.2 349.15,-48.05 348.15,-48.08 348.15,-48.08 348.15,-48.08 349.15,-48.05 348.12,-46.95 350.15,-48.02 350.15,-48.02"/>
</g>
<!-- (9, 0) -->
<g id="node15" class="node">
<title>(9, 0)</title>
<ellipse fill="black" stroke="black" cx="256.8" cy="-67" rx="1.8" ry="1.8"/>
</g>
<!-- (8, 1)&#45;&gt;(9, 0) -->
<g id="edge10" class="edge">
<title>(8, 1)&#45;&gt;(9, 0)</title>
<path fill="none" stroke="blue" d="M205.1,-67C210.82,-67 242.37,-67 252.6,-67"/>
<polygon fill="blue" stroke="blue" points="254.71,-67 252.71,-68.13 253.71,-67 252.71,-67 252.71,-67 252.71,-67 253.71,-67 252.71,-65.88 254.71,-67 254.71,-67"/>
</g>
<!-- (11, 1) -->
<g id="node19" class="node">
<title>(11, 1)</title>
<ellipse fill="black" stroke="black" cx="309.4" cy="-74" rx="1.8" ry="1.8"/>
<text text-anchor="middle" x="304.6" y="-65.8" font-family="Helvetica,sans-Serif" font-size="8.00">1</text>
</g>
<!-- (9, 0)&#45;&gt;(11, 1) -->
<g id="edge12" class="edge">
<title>(9, 0)&#45;&gt;(11, 1)</title>
<path fill="none" stroke="blue" d="M258.68,-67.12C264.29,-67.9 295.23,-72.18 305.26,-73.57"/>
<polygon fill="blue" stroke="blue" points="307.33,-73.85 305.2,-74.69 306.34,-73.72 305.35,-73.58 305.35,-73.58 305.35,-73.58 306.34,-73.72 305.5,-72.46 307.33,-73.85 307.33,-73.85"/>
</g>
<!-- (13, 0) -->
<g id="node21" class="node">
<title>(13, 0)</title>
<ellipse fill="black" stroke="black" cx="392.6" cy="-63" rx="1.8" ry="1.8"/>
</g>
<!-- (10, 0)&#45;&gt;(13, 0) -->
<g id="edge14" class="edge">
<title>(10, 0)&#45;&gt;(13, 0)</title>
<path fill="none" stroke="blue" d="M353.95,-48.37C358.84,-50.27 381.09,-58.92 388.89,-61.95"/>
<polygon fill="blue" stroke="blue" points="390.81,-62.69 388.54,-63.02 389.88,-62.33 388.95,-61.97 388.95,-61.97 388.95,-61.97 389.88,-62.33 389.35,-60.92 390.81,-62.69 390.81,-62.69"/>
</g>
<!-- (10, 1) -->
<g id="node17" class="node">
<title>(10, 1)</title>
<ellipse fill="black" stroke="black" cx="352" cy="-63" rx="1.8" ry="1.8"/>
<text text-anchor="middle" x="347.2" y="-54.8" font-family="Helvetica,sans-Serif" font-size="8.00">1</text>
</g>
<!-- (14, 0) -->
<g id="node22" class="node">
<title>(14, 0)</title>
<ellipse fill="black" stroke="black" cx="392.6" cy="-30" rx="1.8" ry="1.8"/>
</g>
<!-- (10, 1)&#45;&gt;(14, 0) -->
<g id="edge13" class="edge">
<title>(10, 1)&#45;&gt;(14, 0)</title>
<path fill="none" stroke="blue" d="M353.86,-62.65C356.22,-61.67 362.97,-58.69 367.8,-55 376.8,-48.12 385.48,-37.77 389.41,-32.83"/>
<polygon fill="blue" stroke="blue" points="390.79,-31.06 390.44,-33.33 390.18,-31.85 389.56,-32.64 389.56,-32.64 389.56,-32.64 390.18,-31.85 388.67,-31.95 390.79,-31.06 390.79,-31.06"/>
</g>
<!-- (12, 0) -->
<g id="node20" class="node">
<title>(12, 0)</title>
<ellipse fill="black" stroke="black" cx="352" cy="-96" rx="1.8" ry="1.8"/>
</g>
<!-- (11, 0)&#45;&gt;(12, 0) -->
<g id="edge15" class="edge">
<title>(11, 0)&#45;&gt;(12, 0)</title>
<path fill="none" stroke="blue" d="M311.4,-89.17C316.54,-90.06 339.95,-94.09 348.15,-95.51"/>
<polygon fill="blue" stroke="blue" points="350.17,-95.86 348.01,-96.63 349.19,-95.69 348.2,-95.52 348.2,-95.52 348.2,-95.52 349.19,-95.69 348.39,-94.41 350.17,-95.86 350.17,-95.86"/>
</g>
<!-- (11, 1)&#45;&gt;(10, 1) -->
<g id="edge16" class="edge">
<title>(11, 1)&#45;&gt;(10, 1)</title>
<path fill="none" stroke="blue" d="M311.4,-73.73C316.54,-72.34 339.95,-65.99 348.15,-63.77"/>
<polygon fill="blue" stroke="blue" points="350.17,-63.22 348.53,-64.83 349.21,-63.49 348.24,-63.75 348.24,-63.75 348.24,-63.75 349.21,-63.49 347.95,-62.66 350.17,-63.22 350.17,-63.22"/>
</g>
<!-- (15, 0) -->
<g id="node23" class="node">
<title>(15, 0)</title>
<ellipse fill="black" stroke="black" cx="392.6" cy="-96" rx="1.8" ry="1.8"/>
</g>
<!-- (12, 0)&#45;&gt;(15, 0) -->
<g id="edge17" class="edge">
<title>(12, 0)&#45;&gt;(15, 0)</title>
<path fill="none" stroke="blue" d="M353.95,-96C358.67,-96 379.58,-96 388.03,-96"/>
<polygon fill="blue" stroke="blue" points="390.23,-96 388.23,-97.13 389.23,-96 388.23,-96 388.23,-96 388.23,-96 389.23,-96 388.23,-94.88 390.23,-96 390.23,-96"/>
</g>
<!-- (16, 0) -->
<g id="node24" class="node">
<title>(16, 0)</title>
<ellipse fill="black" stroke="black" cx="432.2" cy="-72" rx="1.8" ry="1.8"/>
<text text-anchor="middle" x="427.4" y="-63.8" font-family="Helvetica,sans-Serif" font-size="8.00">0</text>
</g>
<!-- (13, 0)&#45;&gt;(16, 0) -->
<g id="edge18" class="edge">
<title>(13, 0)&#45;&gt;(16, 0)</title>
<path fill="none" stroke="blue" d="M394.53,-63.22C399.12,-64.32 419.49,-69.2 427.73,-71.17"/>
<polygon fill="blue" stroke="blue" points="429.86,-71.68 427.65,-72.31 428.89,-71.45 427.92,-71.21 427.92,-71.21 427.92,-71.21 428.89,-71.45 428.18,-70.12 429.86,-71.68 429.86,-71.68"/>
</g>
<!-- (17, 1) -->
<g id="node27" class="node">
<title>(17, 1)</title>
<ellipse fill="black" stroke="black" cx="474.8" cy="-30" rx="1.8" ry="1.8"/>
<text text-anchor="middle" x="470" y="-21.8" font-family="Helvetica,sans-Serif" font-size="8.00">1</text>
</g>
<!-- (14, 0)&#45;&gt;(17, 1) -->
<g id="edge19" class="edge">
<title>(14, 0)&#45;&gt;(17, 1)</title>
<path fill="none" stroke="blue" d="M394.5,-30C402.18,-30 456.71,-30 470.59,-30"/>
<polygon fill="blue" stroke="blue" points="472.8,-30 470.8,-31.13 471.8,-30 470.8,-30 470.8,-30 470.8,-30 471.8,-30 470.8,-28.88 472.8,-30 472.8,-30"/>
</g>
<!-- (16, 1) -->
<g id="node25" class="node">
<title>(16, 1)</title>
<ellipse fill="black" stroke="black" cx="432.2" cy="-87" rx="1.8" ry="1.8"/>
<text text-anchor="middle" x="427.4" y="-78.8" font-family="Helvetica,sans-Serif" font-size="8.00">1</text>
</g>
<!-- (15, 0)&#45;&gt;(16, 1) -->
<g id="edge20" class="edge">
<title>(15, 0)&#45;&gt;(16, 1)</title>
<path fill="none" stroke="blue" d="M394.53,-95.78C399.12,-94.68 419.49,-89.8 427.73,-87.83"/>
<polygon fill="blue" stroke="blue" points="429.86,-87.32 428.18,-88.88 428.89,-87.55 427.92,-87.79 427.92,-87.79 427.92,-87.79 428.89,-87.55 427.65,-86.69 429.86,-87.32 429.86,-87.32"/>
</g>
<!-- (20, 0) -->
<g id="node31" class="node">
<title>(20, 0)</title>
<ellipse fill="black" stroke="black" cx="623.6" cy="-81" rx="1.8" ry="1.8"/>
<text text-anchor="middle" x="618.8" y="-72.8" font-family="Helvetica,sans-Serif" font-size="8.00">0</text>
</g>
<!-- (16, 0)&#45;&gt;(20, 0) -->
<g id="edge22" class="edge">
<title>(16, 0)&#45;&gt;(20, 0)</title>
<path fill="none" stroke="blue" d="M434.04,-72.04C446.61,-72.64 595.52,-79.71 619.38,-80.85"/>
<polygon fill="blue" stroke="blue" points="621.48,-80.95 619.43,-81.98 620.48,-80.9 619.48,-80.85 619.48,-80.85 619.48,-80.85 620.48,-80.9 619.54,-79.73 621.48,-80.95 621.48,-80.95"/>
</g>
<!-- (17, 0) -->
<g id="node26" class="node">
<title>(17, 0)</title>
<ellipse fill="black" stroke="black" cx="474.8" cy="-45" rx="1.8" ry="1.8"/>
<text text-anchor="middle" x="470" y="-36.8" font-family="Helvetica,sans-Serif" font-size="8.00">0</text>
</g>
<!-- (16, 1)&#45;&gt;(17, 0) -->
<g id="edge21" class="edge">
<title>(16, 1)&#45;&gt;(17, 0)</title>
<path fill="none" stroke="blue" d="M434.08,-86.68C436.5,-85.76 443.39,-82.95 448,-79 459.02,-69.55 468.29,-54.65 472.03,-48.18"/>
<polygon fill="blue" stroke="blue" points="473.15,-46.2 473.14,-48.49 472.65,-47.07 472.16,-47.94 472.16,-47.94 472.16,-47.94 472.65,-47.07 471.18,-47.38 473.15,-46.2 473.15,-46.2"/>
</g>
<!-- (19, 0) -->
<g id="node29" class="node">
<title>(19, 0)</title>
<ellipse fill="black" stroke="black" cx="581" cy="-45" rx="1.8" ry="1.8"/>
<text text-anchor="middle" x="576.2" y="-36.8" font-family="Helvetica,sans-Serif" font-size="8.00">0</text>
</g>
<!-- (17, 0)&#45;&gt;(19, 0) -->
<g id="edge24" class="edge">
<title>(17, 0)&#45;&gt;(19, 0)</title>
<path fill="none" stroke="blue" d="M476.97,-45C487.12,-45 560.2,-45 576.7,-45"/>
<polygon fill="blue" stroke="blue" points="578.97,-45 576.97,-46.13 577.97,-45 576.97,-45 576.97,-45 576.97,-45 577.97,-45 576.97,-43.88 578.97,-45 578.97,-45"/>
</g>
<!-- (18, 0) -->
<g id="node28" class="node">
<title>(18, 0)</title>
<ellipse fill="black" stroke="black" cx="528.4" cy="-15" rx="1.8" ry="1.8"/>
</g>
<!-- (17, 1)&#45;&gt;(18, 0) -->
<g id="edge23" class="edge">
<title>(17, 1)&#45;&gt;(18, 0)</title>
<path fill="none" stroke="blue" d="M476.7,-29.74C482.42,-28.08 513.97,-18.9 524.2,-15.93"/>
<polygon fill="blue" stroke="blue" points="526.31,-15.32 524.7,-16.96 525.35,-15.6 524.39,-15.88 524.39,-15.88 524.39,-15.88 525.35,-15.6 524.08,-14.79 526.31,-15.32 526.31,-15.32"/>
</g>
<!-- (19, 1) -->
<g id="node30" class="node">
<title>(19, 1)</title>
<ellipse fill="black" stroke="black" cx="581" cy="-30" rx="1.8" ry="1.8"/>
<text text-anchor="middle" x="576.2" y="-21.8" font-family="Helvetica,sans-Serif" font-size="8.00">1</text>
</g>
<!-- (18, 0)&#45;&gt;(19, 1) -->
<g id="edge25" class="edge">
<title>(18, 0)&#45;&gt;(19, 1)</title>
<path fill="none" stroke="blue" d="M530.28,-15.26C535.89,-16.92 566.83,-26.1 576.86,-29.07"/>
<polygon fill="blue" stroke="blue" points="578.93,-29.68 576.69,-30.19 577.97,-29.4 577.01,-29.11 577.01,-29.11 577.01,-29.11 577.97,-29.4 577.33,-28.04 578.93,-29.68 578.93,-29.68"/>
</g>
<!-- (20, 1) -->
<g id="node32" class="node">
<title>(20, 1)</title>
<ellipse fill="black" stroke="black" cx="623.6" cy="-66" rx="1.8" ry="1.8"/>
<text text-anchor="middle" x="618.8" y="-57.8" font-family="Helvetica,sans-Serif" font-size="8.00">1</text>
</g>
<!-- (19, 0)&#45;&gt;(20, 1) -->
<g id="edge26" class="edge">
<title>(19, 0)&#45;&gt;(20, 1)</title>
<path fill="none" stroke="blue" d="M583,-45.52C588.14,-48.18 611.55,-60.28 619.75,-64.53"/>
<polygon fill="blue" stroke="blue" points="621.77,-65.57 619.48,-65.65 620.88,-65.11 619.99,-64.65 619.99,-64.65 619.99,-64.65 620.88,-65.11 620.51,-63.65 621.77,-65.57 621.77,-65.57"/>
</g>
<!-- (21, 0) -->
<g id="node33" class="node">
<title>(21, 0)</title>
<ellipse fill="black" stroke="black" cx="670.2" cy="-30" rx="1.8" ry="1.8"/>
</g>
<!-- (19, 1)&#45;&gt;(21, 0) -->
<g id="edge27" class="edge">
<title>(19, 1)&#45;&gt;(21, 0)</title>
<path fill="none" stroke="blue" d="M582.98,-30C591.4,-30 651.62,-30 666.08,-30"/>
<polygon fill="blue" stroke="blue" points="668.34,-30 666.34,-31.13 667.34,-30 666.34,-30 666.34,-30 666.34,-30 667.34,-30 666.34,-28.88 668.34,-30 668.34,-30"/>
</g>
<!-- (28, 0) -->
<g id="node37" class="node">
<title>(28, 0)</title>
<ellipse fill="black" stroke="black" cx="670.2" cy="-98" rx="1.8" ry="1.8"/>
</g>
<!-- (20, 0)&#45;&gt;(28, 0) -->
<g id="edge28" class="edge">
<title>(20, 0)&#45;&gt;(28, 0)</title>
<path fill="none" stroke="blue" d="M625.61,-81.44C629.14,-82.98 641.22,-88.2 651.4,-92 656.56,-93.93 662.67,-95.92 666.22,-97.06"/>
<polygon fill="blue" stroke="blue" points="668.23,-97.7 665.98,-98.16 667.27,-97.39 666.32,-97.09 666.32,-97.09 666.32,-97.09 667.27,-97.39 666.66,-96.02 668.23,-97.7 668.23,-97.7"/>
</g>
<!-- (22, 0) -->
<g id="node34" class="node">
<title>(22, 0)</title>
<ellipse fill="black" stroke="black" cx="670.2" cy="-65" rx="1.8" ry="1.8"/>
</g>
<!-- (20, 1)&#45;&gt;(22, 0) -->
<g id="edge29" class="edge">
<title>(20, 1)&#45;&gt;(22, 0)</title>
<path fill="none" stroke="blue" d="M625.7,-65.98C631.34,-65.85 657.06,-65.27 666.07,-65.07"/>
<polygon fill="blue" stroke="blue" points="668.29,-65.02 666.31,-66.19 667.29,-65.04 666.29,-65.07 666.29,-65.07 666.29,-65.07 667.29,-65.04 666.26,-63.94 668.29,-65.02 668.29,-65.02"/>
</g>
<!-- (26, 0) -->
<g id="node35" class="node">
<title>(26, 0)</title>
<ellipse fill="black" stroke="black" cx="712.8" cy="-30" rx="1.8" ry="1.8"/>
</g>
<!-- (21, 0)&#45;&gt;(26, 0) -->
<g id="edge30" class="edge">
<title>(21, 0)&#45;&gt;(26, 0)</title>
<path fill="none" stroke="blue" d="M672.2,-30C677.34,-30 700.75,-30 708.95,-30"/>
<polygon fill="blue" stroke="blue" points="710.97,-30 708.97,-31.13 709.97,-30 708.97,-30 708.97,-30 708.97,-30 709.97,-30 708.97,-28.88 710.97,-30 710.97,-30"/>
</g>
<!-- (27, 0) -->
<g id="node36" class="node">
<title>(27, 0)</title>
<ellipse fill="black" stroke="black" cx="712.8" cy="-65" rx="1.8" ry="1.8"/>
</g>
<!-- (22, 0)&#45;&gt;(27, 0) -->
<g id="edge31" class="edge">
<title>(22, 0)&#45;&gt;(27, 0)</title>
<path fill="none" stroke="blue" d="M672.2,-65C677.34,-65 700.75,-65 708.95,-65"/>
<polygon fill="blue" stroke="blue" points="710.97,-65 708.97,-66.13 709.97,-65 708.97,-65 708.97,-65 708.97,-65 709.97,-65 708.97,-63.88 710.97,-65 710.97,-65"/>
</g>
<!-- (29, 0) -->
<g id="node38" class="node">
<title>(29, 0)</title>
<ellipse fill="black" stroke="black" cx="748.4" cy="-30" rx="1.8" ry="1.8"/>
</g>
<!-- (26, 0)&#45;&gt;(29, 0) -->
<g id="edge32" class="edge">
<title>(26, 0)&#45;&gt;(29, 0)</title>
<path fill="none" stroke="blue" d="M714.63,-30C718.66,-30 736.31,-30 743.91,-30"/>
<polygon fill="blue" stroke="blue" points="746.2,-30 744.2,-31.13 745.2,-30 744.2,-30 744.2,-30 744.2,-30 745.2,-30 744.2,-28.88 746.2,-30 746.2,-30"/>
</g>
<!-- (30, 0) -->
<g id="node39" class="node">
<title>(30, 0)</title>
<ellipse fill="black" stroke="black" cx="748.4" cy="-65" rx="1.8" ry="1.8"/>
</g>
<!-- (27, 0)&#45;&gt;(30, 0) -->
<g id="edge33" class="edge">
<title>(27, 0)&#45;&gt;(30, 0)</title>
<path fill="none" stroke="blue" d="M714.63,-65C718.66,-65 736.31,-65 743.91,-65"/>
<polygon fill="blue" stroke="blue" points="746.2,-65 744.2,-66.13 745.2,-65 744.2,-65 744.2,-65 744.2,-65 745.2,-65 744.2,-63.88 746.2,-65 746.2,-65"/>
</g>
<!-- (31, 0) -->
<g id="node40" class="node">
<title>(31, 0)</title>
<ellipse fill="black" stroke="black" cx="712.8" cy="-98" rx="1.8" ry="1.8"/>
</g>
<!-- (28, 0)&#45;&gt;(31, 0) -->
<g id="edge34" class="edge">
<title>(28, 0)&#45;&gt;(31, 0)</title>
<path fill="none" stroke="blue" d="M672.2,-98C677.34,-98 700.75,-98 708.95,-98"/>
<polygon fill="blue" stroke="blue" points="710.97,-98 708.97,-99.13 709.97,-98 708.97,-98 708.97,-98 708.97,-98 709.97,-98 708.97,-96.88 710.97,-98 710.97,-98"/>
</g>
<!-- (32, 0) -->
<g id="node41" class="node">
<title>(32, 0)</title>
<ellipse fill="black" stroke="black" cx="786" cy="-30" rx="1.8" ry="1.8"/>
</g>
<!-- (29, 0)&#45;&gt;(32, 0) -->
<g id="edge35" class="edge">
<title>(29, 0)&#45;&gt;(32, 0)</title>
<path fill="none" stroke="blue" d="M750.28,-30C754.63,-30 773.91,-30 781.71,-30"/>
<polygon fill="blue" stroke="blue" points="783.73,-30 781.73,-31.13 782.73,-30 781.73,-30 781.73,-30 781.73,-30 782.73,-30 781.73,-28.88 783.73,-30 783.73,-30"/>
</g>
<!-- (33, 0) -->
<g id="node42" class="node">
<title>(33, 0)</title>
<ellipse fill="black" stroke="black" cx="786" cy="-64" rx="1.8" ry="1.8"/>
</g>
<!-- (30, 0)&#45;&gt;(33, 0) -->
<g id="edge36" class="edge">
<title>(30, 0)&#45;&gt;(33, 0)</title>
<path fill="none" stroke="blue" d="M750.28,-64.98C754.63,-64.85 773.91,-64.31 781.71,-64.09"/>
<polygon fill="blue" stroke="blue" points="783.73,-64.04 781.77,-65.22 782.73,-64.06 781.73,-64.09 781.73,-64.09 781.73,-64.09 782.73,-64.06 781.7,-62.97 783.73,-64.04 783.73,-64.04"/>
</g>
<!-- (34, 0) -->
<g id="node43" class="node">
<title>(34, 0)</title>
<ellipse fill="black" stroke="black" cx="748.4" cy="-98" rx="1.8" ry="1.8"/>
</g>
<!-- (31, 0)&#45;&gt;(34, 0) -->
<g id="edge37" class="edge">
<title>(31, 0)&#45;&gt;(34, 0)</title>
<path fill="none" stroke="blue" d="M714.63,-98C718.66,-98 736.31,-98 743.91,-98"/>
<polygon fill="blue" stroke="blue" points="746.2,-98 744.2,-99.13 745.2,-98 744.2,-98 744.2,-98 744.2,-98 745.2,-98 744.2,-96.88 746.2,-98 746.2,-98"/>
</g>
<!-- (35, 0) -->
<g id="node44" class="node">
<title>(35, 0)</title>
<ellipse fill="black" stroke="black" cx="821.6" cy="-30" rx="1.8" ry="1.8"/>
</g>
<!-- (32, 0)&#45;&gt;(35, 0) -->
<g id="edge38" class="edge">
<title>(32, 0)&#45;&gt;(35, 0)</title>
<path fill="none" stroke="blue" d="M787.83,-30C791.86,-30 809.51,-30 817.11,-30"/>
<polygon fill="blue" stroke="blue" points="819.4,-30 817.4,-31.13 818.4,-30 817.4,-30 817.4,-30 817.4,-30 818.4,-30 817.4,-28.88 819.4,-30 819.4,-30"/>
</g>
<!-- (36, 0) -->
<g id="node45" class="node">
<title>(36, 0)</title>
<ellipse fill="black" stroke="black" cx="821.6" cy="-63" rx="1.8" ry="1.8"/>
</g>
<!-- (33, 0)&#45;&gt;(36, 0) -->
<g id="edge39" class="edge">
<title>(33, 0)&#45;&gt;(36, 0)</title>
<path fill="none" stroke="blue" d="M787.83,-63.98C791.86,-63.86 809.51,-63.33 817.11,-63.1"/>
<polygon fill="blue" stroke="blue" points="819.4,-63.04 817.44,-64.22 818.4,-63.07 817.41,-63.1 817.41,-63.1 817.41,-63.1 818.4,-63.07 817.37,-61.97 819.4,-63.04 819.4,-63.04"/>
</g>
<!-- (37, 0) -->
<g id="node46" class="node">
<title>(37, 0)</title>
<ellipse fill="black" stroke="black" cx="786" cy="-99" rx="1.8" ry="1.8"/>
</g>
<!-- (34, 0)&#45;&gt;(37, 0) -->
<g id="edge40" class="edge">
<title>(34, 0)&#45;&gt;(37, 0)</title>
<path fill="none" stroke="blue" d="M750.28,-98.02C754.63,-98.15 773.91,-98.69 781.71,-98.91"/>
<polygon fill="blue" stroke="blue" points="783.73,-98.96 781.7,-100.03 782.73,-98.94 781.73,-98.91 781.73,-98.91 781.73,-98.91 782.73,-98.94 781.77,-97.78 783.73,-98.96 783.73,-98.96"/>
</g>
<!-- (35, 0)&#45;&gt;(23, 0) -->
<g id="edge41" class="edge">
<title>(35, 0)&#45;&gt;(23, 0)</title>
<path fill="none" stroke="blue" d="M823.83,-30.77C828.09,-33.46 842.33,-42.42 848.41,-46.25"/>
<polygon fill="blue" stroke="blue" points="850.25,-47.4 847.96,-47.29 849.4,-46.87 848.56,-46.34 848.56,-46.34 848.56,-46.34 849.4,-46.87 849.16,-45.38 850.25,-47.4 850.25,-47.4"/>
</g>
<!-- (36, 0)&#45;&gt;(24, 0) -->
<g id="edge42" class="edge">
<title>(36, 0)&#45;&gt;(24, 0)</title>
<path fill="none" stroke="blue" d="M823.83,-63C828.02,-63 841.84,-63 848.08,-63"/>
<polygon fill="blue" stroke="blue" points="850.25,-63 848.25,-64.13 849.25,-63 848.25,-63 848.25,-63 848.25,-63 849.25,-63 848.25,-61.88 850.25,-63 850.25,-63"/>
</g>
<!-- (37, 0)&#45;&gt;(25, 0) -->
<g id="edge43" class="edge">
<title>(37, 0)&#45;&gt;(25, 0)</title>
<path fill="none" stroke="blue" d="M788.2,-98.94C793.63,-98.65 816.42,-97.03 833.4,-90 839.22,-87.59 845.11,-83.13 848.45,-80.38"/>
<polygon fill="blue" stroke="blue" points="850.31,-78.79 849.52,-80.95 849.55,-79.44 848.79,-80.09 848.79,-80.09 848.79,-80.09 849.55,-79.44 848.06,-79.23 850.31,-78.79 850.31,-78.79"/>
</g>
</g>
</svg>
