<?xml version="1.0" encoding="UTF-8" standalone="no"?>
<!DOCTYPE svg PUBLIC "-//W3C//DTD SVG 1.1//EN"
 "http://www.w3.org/Graphics/SVG/1.1/DTD/svg11.dtd">
<!-- Generated by graphviz version 2.49.0 (20210828.1703)
 -->
<!-- Title: Circuit Pages: 1 -->
<svg width="210pt" height="109pt"
 viewBox="0.00 0.00 210.00 109.00" xmlns="http://www.w3.org/2000/svg" xmlns:xlink="http://www.w3.org/1999/xlink">
<g id="graph0" class="graph" transform="scale(1 1) rotate(0) translate(4 105)">
<title>Circuit</title>
<polygon fill="white" stroke="transparent" points="-4,4 -4,-105 206,-105 206,4 -4,4"/>
<g id="clust1" class="cluster">
<title>cluster_q_inputs</title>
<path fill="lightgrey" stroke="lightgrey" d="M19.53,-12C19.53,-12 24.07,-12 24.07,-12 26.33,-12 28.6,-14.27 28.6,-16.53 28.6,-16.53 28.6,-51.47 28.6,-51.47 28.6,-53.73 26.33,-56 24.07,-56 24.07,-56 19.53,-56 19.53,-56 17.27,-56 15,-53.73 15,-51.47 15,-51.47 15,-16.53 15,-16.53 15,-14.27 17.27,-12 19.53,-12"/>
</g>
<g id="clust3" class="cluster">
<title>cluster_q_outputs</title>
<path fill="lightgrey" stroke="lightgrey" d="M184.93,-12C184.93,-12 189.47,-12 189.47,-12 191.73,-12 194,-14.27 194,-16.53 194,-16.53 194,-51.47 194,-51.47 194,-53.73 191.73,-56 189.47,-56 189.47,-56 184.93,-56 184.93,-56 182.67,-56 180.4,-53.73 180.4,-51.47 180.4,-51.47 180.4,-16.53 180.4,-16.53 180.4,-14.27 182.67,-12 184.93,-12"/>
</g>
<g id="clust5" class="cluster">
<title>cluster_6</title>
<path fill="lightblue" stroke="lightblue" d="M50.47,-27C50.47,-27 60.33,-27 60.33,-27 65.27,-27 70.2,-31.93 70.2,-36.87 70.2,-36.87 70.2,-65.13 70.2,-65.13 70.2,-70.07 65.27,-75 60.33,-75 60.33,-75 50.47,-75 50.47,-75 45.53,-75 40.6,-70.07 40.6,-65.13 40.6,-65.13 40.6,-36.87 40.6,-36.87 40.6,-31.93 45.53,-27 50.47,-27"/>
<text text-anchor="middle" x="55.4" y="-63" font-family="Times,serif" font-size="10.00">CX</text>
</g>
<g id="clust6" class="cluster">
<title>cluster_7</title>
<path fill="lightblue" stroke="lightblue" d="M91.73,-8C91.73,-8 101.27,-8 101.27,-8 106.03,-8 110.8,-12.77 110.8,-17.53 110.8,-17.53 110.8,-46.47 110.8,-46.47 110.8,-51.23 106.03,-56 101.27,-56 101.27,-56 91.73,-56 91.73,-56 86.97,-56 82.2,-51.23 82.2,-46.47 82.2,-46.47 82.2,-17.53 82.2,-17.53 82.2,-12.77 86.97,-8 91.73,-8"/>
<text text-anchor="middle" x="96.5" y="-44" font-family="Times,serif" font-size="10.00">CZ</text>
</g>
<g id="clust7" class="cluster">
<title>cluster_8</title>
<path fill="lightblue" stroke="lightblue" d="M140.67,-27C140.67,-27 148.53,-27 148.53,-27 152.47,-27 156.4,-30.93 156.4,-34.87 156.4,-34.87 156.4,-52.13 156.4,-52.13 156.4,-56.07 152.47,-60 148.53,-60 148.53,-60 140.67,-60 140.67,-60 136.73,-60 132.8,-56.07 132.8,-52.13 132.8,-52.13 132.8,-34.87 132.8,-34.87 132.8,-30.93 136.73,-27 140.67,-27"/>
<text text-anchor="middle" x="144.6" y="-48" font-family="Times,serif" font-size="10.00">X</text>
</g>
<g id="clust8" class="cluster">
<title>cluster_9</title>
<path fill="lightblue" stroke="lightblue" d="M132.8,-60C132.8,-60 157.4,-60 157.4,-60 162.9,-60 168.4,-65.5 168.4,-71 168.4,-71 168.4,-82 168.4,-82 168.4,-87.5 162.9,-93 157.4,-93 157.4,-93 132.8,-93 132.8,-93 127.3,-93 121.8,-87.5 121.8,-82 121.8,-82 121.8,-71 121.8,-71 121.8,-65.5 127.3,-60 132.8,-60"/>
<text text-anchor="middle" x="145.1" y="-81" font-family="Times,serif" font-size="10.00">Rx(0.3)</text>
</g>
<!-- (0, 0) -->
<g id="node1" class="node">
<title>(0, 0)</title>
<ellipse fill="blue" stroke="blue" cx="21.8" cy="-49" rx="1.8" ry="1.8"/>
<text text-anchor="middle" x="10" y="-40.8" font-family="Courier,monospace" font-size="8.00">q[0]</text>
</g>
<!-- (6, 0) -->
<g id="node7" class="node">
<title>(6, 0)</title>
<ellipse fill="black" stroke="black" cx="55.4" cy="-49" rx="1.8" ry="1.8"/>
<text text-anchor="middle" x="51.1" y="-40.8" font-family="Helvetica,sans-Serif" font-size="8.00">0</text>
</g>
<!-- (0, 0)&#45;&gt;(6, 0) -->
<g id="edge1" class="edge">
<title>(0, 0)&#45;&gt;(6, 0)</title>
<path fill="none" stroke="blue" d="M24.16,-49C28.87,-49 44.6,-49 51.32,-49"/>
<polygon fill="blue" stroke="blue" points="53.35,-49 51.35,-50.13 52.35,-49 51.35,-49 51.35,-49 51.35,-49 52.35,-49 51.35,-47.88 53.35,-49 53.35,-49"/>
</g>
<!-- (2, 0) -->
<g id="node2" class="node">
<title>(2, 0)</title>
<ellipse fill="blue" stroke="blue" cx="21.8" cy="-34" rx="1.8" ry="1.8"/>
<text text-anchor="middle" x="10" y="-25.8" font-family="Courier,monospace" font-size="8.00">q[1]</text>
</g>
<!-- (6, 1) -->
<g id="node8" class="node">
<title>(6, 1)</title>
<ellipse fill="black" stroke="black" cx="55.4" cy="-34" rx="1.8" ry="1.8"/>
<text text-anchor="middle" x="51.1" y="-25.8" font-family="Helvetica,sans-Serif" font-size="8.00">1</text>
</g>
<!-- (2, 0)&#45;&gt;(6, 1) -->
<g id="edge2" class="edge">
<title>(2, 0)&#45;&gt;(6, 1)</title>
<path fill="none" stroke="blue" d="M24.16,-34C28.87,-34 44.6,-34 51.32,-34"/>
<polygon fill="blue" stroke="blue" points="53.35,-34 51.35,-35.13 52.35,-34 51.35,-34 51.35,-34 51.35,-34 52.35,-34 51.35,-32.88 53.35,-34 53.35,-34"/>
</g>
<!-- (4, 0) -->
<g id="node3" class="node">
<title>(4, 0)</title>
<ellipse fill="blue" stroke="blue" cx="21.8" cy="-19" rx="1.8" ry="1.8"/>
<text text-anchor="middle" x="10" y="-10.8" font-family="Courier,monospace" font-size="8.00">q[2]</text>
</g>
<!-- (7, 1) -->
<g id="node10" class="node">
<title>(7, 1)</title>
<ellipse fill="black" stroke="black" cx="96" cy="-15" rx="1.8" ry="1.8"/>
<text text-anchor="middle" x="91.7" y="-6.8" font-family="Helvetica,sans-Serif" font-size="8.00">1</text>
</g>
<!-- (4, 0)&#45;&gt;(7, 1) -->
<g id="edge3" class="edge">
<title>(4, 0)&#45;&gt;(7, 1)</title>
<path fill="none" stroke="blue" d="M23.61,-18.96C30.47,-18.58 78.8,-15.9 91.79,-15.18"/>
<polygon fill="blue" stroke="blue" points="93.89,-15.06 91.96,-16.3 92.9,-15.12 91.9,-15.17 91.9,-15.17 91.9,-15.17 92.9,-15.12 91.84,-14.05 93.89,-15.06 93.89,-15.06"/>
</g>
<!-- (1, 0) -->
<g id="node4" class="node">
<title>(1, 0)</title>
<ellipse fill="blue" stroke="blue" cx="187.2" cy="-49" rx="1.8" ry="1.8"/>
<text text-anchor="middle" x="175.4" y="-40.8" font-family="Courier,monospace" font-size="8.00">q[0]</text>
</g>
<!-- (3, 0) -->
<g id="node5" class="node">
<title>(3, 0)</title>
<ellipse fill="blue" stroke="blue" cx="187.2" cy="-34" rx="1.8" ry="1.8"/>
<text text-anchor="middle" x="175.4" y="-25.8" font-family="Courier,monospace" font-size="8.00">q[1]</text>
</g>
<!-- (5, 0) -->
<g id="node6" class="node">
<title>(5, 0)</title>
<ellipse fill="blue" stroke="blue" cx="187.2" cy="-19" rx="1.8" ry="1.8"/>
<text text-anchor="middle" x="175.4" y="-10.8" font-family="Courier,monospace" font-size="8.00">q[2]</text>
</g>
<!-- (9, 0) -->
<g id="node12" class="node">
<title>(9, 0)</title>
<ellipse fill="black" stroke="black" cx="144.6" cy="-67" rx="1.8" ry="1.8"/>
</g>
<!-- (6, 0)&#45;&gt;(9, 0) -->
<g id="edge5" class="edge">
<title>(6, 0)&#45;&gt;(9, 0)</title>
<path fill="none" stroke="blue" d="M57.37,-49.35C60.75,-50.58 72.34,-54.68 82.2,-57 104.3,-62.2 131.52,-65.6 140.54,-66.65"/>
<polygon fill="blue" stroke="blue" points="142.73,-66.9 140.61,-67.8 141.73,-66.79 140.74,-66.68 140.74,-66.68 140.74,-66.68 141.73,-66.79 140.87,-65.56 142.73,-66.9 142.73,-66.9"/>
</g>
<!-- (7, 0) -->
<g id="node9" class="node">
<title>(7, 0)</title>
<ellipse fill="black" stroke="black" cx="96" cy="-30" rx="1.8" ry="1.8"/>
<text text-anchor="middle" x="91.7" y="-21.8" font-family="Helvetica,sans-Serif" font-size="8.00">0</text>
</g>
<!-- (6, 1)&#45;&gt;(7, 0) -->
<g id="edge4" class="edge">
<title>(6, 1)&#45;&gt;(7, 0)</title>
<path fill="none" stroke="blue" d="M57.35,-33.9C62.07,-33.41 82.98,-31.25 91.43,-30.37"/>
<polygon fill="blue" stroke="blue" points="93.63,-30.14 91.75,-31.47 92.63,-30.25 91.64,-30.35 91.64,-30.35 91.64,-30.35 92.63,-30.25 91.52,-29.23 93.63,-30.14 93.63,-30.14"/>
</g>
<!-- (8, 0) -->
<g id="node11" class="node">
<title>(8, 0)</title>
<ellipse fill="black" stroke="black" cx="144.6" cy="-34" rx="1.8" ry="1.8"/>
</g>
<!-- (7, 0)&#45;&gt;(8, 0) -->
<g id="edge6" class="edge">
<title>(7, 0)&#45;&gt;(8, 0)</title>
<path fill="none" stroke="blue" d="M97.81,-30.07C102.89,-30.51 130.51,-32.88 140.22,-33.71"/>
<polygon fill="blue" stroke="blue" points="142.62,-33.92 140.53,-34.87 141.62,-33.83 140.62,-33.74 140.62,-33.74 140.62,-33.74 141.62,-33.83 140.72,-32.62 142.62,-33.92 142.62,-33.92"/>
</g>
<!-- (7, 1)&#45;&gt;(5, 0) -->
<g id="edge7" class="edge">
<title>(7, 1)&#45;&gt;(5, 0)</title>
<path fill="none" stroke="blue" d="M98,-15.04C106.61,-15.43 168.22,-18.19 183.01,-18.86"/>
<polygon fill="blue" stroke="blue" points="185.32,-18.96 183.27,-19.99 184.32,-18.92 183.32,-18.87 183.32,-18.87 183.32,-18.87 184.32,-18.92 183.37,-17.75 185.32,-18.96 185.32,-18.96"/>
</g>
<!-- (8, 0)&#45;&gt;(3, 0) -->
<g id="edge8" class="edge">
<title>(8, 0)&#45;&gt;(3, 0)</title>
<path fill="none" stroke="blue" d="M146.6,-34C151.74,-34 175.15,-34 183.35,-34"/>
<polygon fill="blue" stroke="blue" points="185.37,-34 183.37,-35.13 184.37,-34 183.37,-34 183.37,-34 183.37,-34 184.37,-34 183.37,-32.88 185.37,-34 185.37,-34"/>
</g>
<!-- (9, 0)&#45;&gt;(1, 0) -->
<g id="edge9" class="edge">
<title>(9, 0)&#45;&gt;(1, 0)</title>
<path fill="none" stroke="blue" d="M146.51,-66.87C149.65,-66.41 160.35,-64.65 168.4,-61 174.14,-58.4 180.06,-54 183.42,-51.32"/>
<polygon fill="blue" stroke="blue" points="185.3,-49.77 184.47,-51.91 184.53,-50.4 183.76,-51.04 183.76,-51.04 183.76,-51.04 184.53,-50.4 183.04,-50.17 185.3,-49.77 185.3,-49.77"/>
</g>
</g>
</svg>
