<?xml version="1.0" encoding="UTF-8" standalone="no"?>
<!DOCTYPE svg PUBLIC "-//W3C//DTD SVG 1.1//EN"
 "http://www.w3.org/Graphics/SVG/1.1/DTD/svg11.dtd">
<!-- Generated by graphviz version 2.50.0 (20211204.2007)
 -->
<!-- Title: Qubit connectivity Pages: 1 -->
<svg width="196pt" height="128pt"
 viewBox="0.00 0.00 196.17 127.62" xmlns="http://www.w3.org/2000/svg" xmlns:xlink="http://www.w3.org/1999/xlink">
<g id="graph0" class="graph" transform="scale(1 1) rotate(0) translate(4 123.62)">
<title>Qubit connectivity</title>
<polygon fill="white" stroke="transparent" points="-4,4 -4,-123.62 192.17,-123.62 192.17,4 -4,4"/>
<!-- q[0] -->
<g id="node1" class="node">
<title>q[0]</title>
<ellipse fill="none" stroke="blue" cx="24.14" cy="-43.83" rx="24.27" ry="24.27"/>
<text text-anchor="middle" x="24.14" y="-41.33" font-family="Courier,monospace" font-size="10.00">q[0]</text>
</g>
<!-- q[1] -->
<g id="node2" class="node">
<title>q[1]</title>
<ellipse fill="none" stroke="blue" cx="96.95" cy="-52.27" rx="24.27" ry="24.27"/>
<text text-anchor="middle" x="96.95" y="-49.77" font-family="Courier,monospace" font-size="10.00">q[1]</text>
</g>
<!-- q[0]&#45;&#45;q[1] -->
<g id="edge1" class="edge">
<title>q[0]&#45;&#45;q[1]</title>
<path fill="none" stroke="black" d="M48.38,-46.64C56.16,-47.54 64.77,-48.54 72.56,-49.45"/>
</g>
<!-- q[2] -->
<g id="node3" class="node">
<title>q[2]</title>
<ellipse fill="none" stroke="blue" cx="164.03" cy="-24.14" rx="24.27" ry="24.27"/>
<text text-anchor="middle" x="164.03" y="-21.64" font-family="Courier,monospace" font-size="10.00">q[2]</text>
</g>
<!-- q[1]&#45;&#45;q[2] -->
<g id="edge2" class="edge">
<title>q[1]&#45;&#45;q[2]</title>
<path fill="none" stroke="black" d="M119.29,-42.9C126.45,-39.9 134.39,-36.57 141.56,-33.56"/>
</g>
<!-- q[3] -->
<g id="node4" class="node">
<title>q[3]</title>
<ellipse fill="none" stroke="blue" cx="155.5" cy="-95.48" rx="24.27" ry="24.27"/>
<text text-anchor="middle" x="155.5" y="-92.98" font-family="Courier,monospace" font-size="10.00">q[3]</text>
</g>
<!-- q[1]&#45;&#45;q[3] -->
<g id="edge3" class="edge">
<title>q[1]&#45;&#45;q[3]</title>
<path fill="none" stroke="black" d="M116.45,-66.66C122.7,-71.28 129.63,-76.39 135.89,-81.01"/>
</g>
<!-- q[2]&#45;&#45;q[3] -->
<g id="edge4" class="edge">
<title>q[2]&#45;&#45;q[3]</title>
<path fill="none" stroke="black" d="M161.14,-48.29C160.25,-55.73 159.27,-63.91 158.38,-71.35"/>
</g>
</g>
</svg>
