<?xml version="1.0" encoding="UTF-8" standalone="no"?>
<!DOCTYPE svg PUBLIC "-//W3C//DTD SVG 1.1//EN"
 "http://www.w3.org/Graphics/SVG/1.1/DTD/svg11.dtd">
<!-- Generated by graphviz version 2.50.0 (0)
 -->
<!-- Title: G Pages: 1 -->
<svg width="578pt" height="683pt"
 viewBox="0.00 0.00 577.97 683.10" xmlns="http://www.w3.org/2000/svg" xmlns:xlink="http://www.w3.org/1999/xlink">
<g id="graph0" class="graph" transform="scale(1 1) rotate(0) translate(4 679.1)">
<title>G</title>
<polygon fill="white" stroke="transparent" points="-4,4 -4,-679.1 573.97,-679.1 573.97,4 -4,4"/>
<!-- 0 -->
<g id="node1" class="node">
<title>0</title>
<g id="a_node1"><a xlink:title="Q&#45;Input">
<ellipse fill="white" stroke="black" stroke-width="3" stroke-dasharray="5,2" cx="48.75" cy="-418.1" rx="38.19" ry="38.19"/>
<text text-anchor="middle" x="48.75" y="-414.4" font-family="Times,serif" font-size="14.00">Q&#45;Input</text>
</a>
</g>
<text text-anchor="start" x="3.4" y="-368.55" font-family="Times,serif" font-size="14.00" fill="grey">0</text>
</g>
<!-- 1 -->
<g id="node2" class="node">
<title>1</title>
<g id="a_node2"><a xlink:title="Q&#45;Input">
<ellipse fill="white" stroke="black" stroke-width="3" stroke-dasharray="5,2" cx="48.75" cy="-323.1" rx="38.19" ry="38.19"/>
<text text-anchor="middle" x="48.75" y="-319.4" font-family="Times,serif" font-size="14.00">Q&#45;Input</text>
</a>
</g>
<text text-anchor="start" x="3.4" y="-273.55" font-family="Times,serif" font-size="14.00" fill="grey">1</text>
</g>
<!-- 0&#45;&#45;1 -->
<!-- 8 -->
<g id="node9" class="node">
<title>8</title>
<g id="a_node9"><a xlink:title="Q&#45;Z(1.5)">
<ellipse fill="green" stroke="black" stroke-width="3" cx="382.93" cy="-87.1" rx="22.2" ry="22.2"/>
<text text-anchor="middle" x="382.93" y="-83.4" font-family="Times,serif" font-size="14.00">1.5</text>
</a>
</g>
<text text-anchor="start" x="353.83" y="-53.8" font-family="Times,serif" font-size="14.00" fill="grey">8</text>
</g>
<!-- 0&#45;&#45;8 -->
<g id="edge1" class="edge">
<title>0&#45;&#45;8</title>
<path fill="none" stroke="black" stroke-width="3" d="M79.06,-394.34C86.11,-387.25 92.91,-378.98 97.49,-370.1 140.91,-285.94 70.53,-230.83 133.49,-160.1 149.07,-142.6 304.07,-105.18 361.05,-91.9"/>
</g>
<!-- 2 -->
<g id="node3" class="node">
<title>2</title>
<g id="a_node3"><a xlink:title="Q&#45;Input">
<ellipse fill="white" stroke="black" stroke-width="3" stroke-dasharray="5,2" cx="48.75" cy="-228.1" rx="38.19" ry="38.19"/>
<text text-anchor="middle" x="48.75" y="-224.4" font-family="Times,serif" font-size="14.00">Q&#45;Input</text>
</a>
</g>
<text text-anchor="start" x="3.4" y="-178.55" font-family="Times,serif" font-size="14.00" fill="grey">2</text>
</g>
<!-- 1&#45;&#45;2 -->
<!-- 10 -->
<g id="node11" class="node">
<title>10</title>
<g id="a_node11"><a xlink:title="Q&#45;Z(1.0)">
<ellipse fill="green" stroke="black" stroke-width="3" cx="382.93" cy="-335.1" rx="22.2" ry="22.2"/>
<text text-anchor="middle" x="382.93" y="-331.4" font-family="Times,serif" font-size="14.00">1.0</text>
</a>
</g>
<text text-anchor="start" x="346.83" y="-301.8" font-family="Times,serif" font-size="14.00" fill="grey">10</text>
</g>
<!-- 1&#45;&#45;10 -->
<g id="edge2" class="edge">
<title>1&#45;&#45;10</title>
<path fill="none" stroke="black" stroke-width="3" d="M87.21,-324.45C157.11,-326.98 305.35,-332.33 360.59,-334.33"/>
</g>
<!-- 3 -->
<g id="node4" class="node">
<title>3</title>
<g id="a_node4"><a xlink:title="Q&#45;Input">
<ellipse fill="white" stroke="black" stroke-width="3" stroke-dasharray="5,2" cx="48.75" cy="-65.1" rx="38.19" ry="38.19"/>
<text text-anchor="middle" x="48.75" y="-61.4" font-family="Times,serif" font-size="14.00">Q&#45;Input</text>
</a>
</g>
<text text-anchor="start" x="3.4" y="-15.55" font-family="Times,serif" font-size="14.00" fill="grey">3</text>
</g>
<!-- 2&#45;&#45;3 -->
<!-- 13 -->
<g id="node14" class="node">
<title>13</title>
<g id="a_node14"><a xlink:title="Q&#45;Z(0.5)">
<ellipse fill="green" stroke="black" stroke-width="3" cx="467.67" cy="-285.1" rx="22.2" ry="22.2"/>
<text text-anchor="middle" x="467.67" y="-281.4" font-family="Times,serif" font-size="14.00">0.5</text>
</a>
</g>
<text text-anchor="start" x="431.57" y="-251.8" font-family="Times,serif" font-size="14.00" fill="grey">13</text>
</g>
<!-- 2&#45;&#45;13 -->
<g id="edge4" class="edge">
<title>2&#45;&#45;13</title>
<path fill="none" stroke="black" stroke-width="3" d="M82.55,-246.38C97.6,-253.87 115.97,-261.78 133.49,-266.1 248.54,-294.43 392.39,-289.62 445.61,-286.54"/>
</g>
<!-- 14 -->
<g id="node15" class="node">
<title>14</title>
<g id="a_node15"><a xlink:title="Q&#45;Z(0.5)">
<ellipse fill="green" stroke="black" stroke-width="3" cx="467.67" cy="-37.1" rx="22.2" ry="22.2"/>
<text text-anchor="middle" x="467.67" y="-33.4" font-family="Times,serif" font-size="14.00">0.5</text>
</a>
</g>
<text text-anchor="start" x="431.57" y="-3.8" font-family="Times,serif" font-size="14.00" fill="grey">14</text>
</g>
<!-- 3&#45;&#45;14 -->
<g id="edge5" class="edge">
<title>3&#45;&#45;14</title>
<path fill="none" stroke="black" stroke-width="3" d="M79.79,-42.27C95.01,-32.12 114.31,-21.3 133.49,-16.1 248.45,15.06 393.54,-17.34 446.31,-31.33"/>
</g>
<!-- 4 -->
<g id="node5" class="node">
<title>4</title>
<g id="a_node5"><a xlink:title="Q&#45;Output">
<ellipse fill="white" stroke="black" stroke-width="3" stroke-dasharray="5,2" cx="186.79" cy="-577.1" rx="44.39" ry="44.39"/>
<text text-anchor="middle" x="186.79" y="-573.4" font-family="Times,serif" font-size="14.00">Q&#45;Output</text>
</a>
</g>
<text text-anchor="start" x="135.59" y="-521.7" font-family="Times,serif" font-size="14.00" fill="grey">4</text>
</g>
<!-- 5 -->
<g id="node6" class="node">
<title>5</title>
<g id="a_node6"><a xlink:title="Q&#45;Output">
<ellipse fill="white" stroke="black" stroke-width="3" stroke-dasharray="5,2" cx="186.79" cy="-471.1" rx="44.39" ry="44.39"/>
<text text-anchor="middle" x="186.79" y="-467.4" font-family="Times,serif" font-size="14.00">Q&#45;Output</text>
</a>
</g>
<text text-anchor="start" x="135.59" y="-415.7" font-family="Times,serif" font-size="14.00" fill="grey">5</text>
</g>
<!-- 4&#45;&#45;5 -->
<!-- 15 -->
<g id="node16" class="node">
<title>15</title>
<g id="a_node16"><a xlink:title="Q&#45;Z(0.0)">
<ellipse fill="green" stroke="black" stroke-width="3" cx="298.18" cy="-540.1" rx="18" ry="18"/>
</a>
</g>
<text text-anchor="start" x="266.18" y="-510.9" font-family="Times,serif" font-size="14.00" fill="grey">15</text>
</g>
<!-- 4&#45;&#45;15 -->
<g id="edge7" class="edge">
<title>4&#45;&#45;15</title>
<path fill="none" stroke="black" stroke-width="3" d="M228.83,-563.22C246.9,-557.1 267.09,-550.28 280.81,-545.64"/>
</g>
<!-- 6 -->
<g id="node7" class="node">
<title>6</title>
<g id="a_node7"><a xlink:title="Q&#45;Output">
<ellipse fill="white" stroke="black" stroke-width="3" stroke-dasharray="5,2" cx="186.79" cy="-213.1" rx="44.39" ry="44.39"/>
<text text-anchor="middle" x="186.79" y="-209.4" font-family="Times,serif" font-size="14.00">Q&#45;Output</text>
</a>
</g>
<text text-anchor="start" x="135.59" y="-157.7" font-family="Times,serif" font-size="14.00" fill="grey">6</text>
</g>
<!-- 5&#45;&#45;6 -->
<!-- 12 -->
<g id="node13" class="node">
<title>12</title>
<g id="a_node13"><a xlink:title="Q&#45;Z(0.5)">
<ellipse fill="green" stroke="black" stroke-width="3" cx="547.87" cy="-310.1" rx="22.2" ry="22.2"/>
<text text-anchor="middle" x="547.87" y="-306.4" font-family="Times,serif" font-size="14.00">0.5</text>
</a>
</g>
<text text-anchor="start" x="511.77" y="-276.8" font-family="Times,serif" font-size="14.00" fill="grey">12</text>
</g>
<!-- 5&#45;&#45;12 -->
<g id="edge3" class="edge">
<title>5&#45;&#45;12</title>
<path fill="none" stroke="black" stroke-width="3" d="M227.4,-453.49C285.15,-427.81 395.81,-378.49 489.77,-336.1 502.38,-330.41 516.53,-323.97 527.59,-318.92"/>
</g>
<!-- 7 -->
<g id="node8" class="node">
<title>7</title>
<g id="a_node8"><a xlink:title="Q&#45;Output">
<ellipse fill="white" stroke="black" stroke-width="3" stroke-dasharray="5,2" cx="186.79" cy="-69.1" rx="44.39" ry="44.39"/>
<text text-anchor="middle" x="186.79" y="-65.4" font-family="Times,serif" font-size="14.00">Q&#45;Output</text>
</a>
</g>
<text text-anchor="start" x="135.59" y="-13.7" font-family="Times,serif" font-size="14.00" fill="grey">7</text>
</g>
<!-- 6&#45;&#45;7 -->
<!-- 16 -->
<g id="node17" class="node">
<title>16</title>
<g id="a_node17"><a xlink:title="Q&#45;Z(0.5)">
<ellipse fill="green" stroke="black" stroke-width="3" cx="298.18" cy="-229.1" rx="22.2" ry="22.2"/>
<text text-anchor="middle" x="298.18" y="-225.4" font-family="Times,serif" font-size="14.00">0.5</text>
</a>
</g>
<text text-anchor="start" x="262.08" y="-195.8" font-family="Times,serif" font-size="14.00" fill="grey">16</text>
</g>
<!-- 6&#45;&#45;16 -->
<g id="edge8" class="edge">
<title>6&#45;&#45;16</title>
<path fill="none" stroke="black" stroke-width="3" d="M230.71,-219.38C246.27,-221.65 263.17,-224.12 276.03,-226.01"/>
</g>
<!-- 17 -->
<g id="node18" class="node">
<title>17</title>
<g id="a_node18"><a xlink:title="Q&#45;Z(1.5)">
<ellipse fill="green" stroke="black" stroke-width="3" cx="298.18" cy="-69.1" rx="22.2" ry="22.2"/>
<text text-anchor="middle" x="298.18" y="-65.4" font-family="Times,serif" font-size="14.00">1.5</text>
</a>
</g>
<text text-anchor="start" x="262.08" y="-35.8" font-family="Times,serif" font-size="14.00" fill="grey">17</text>
</g>
<!-- 7&#45;&#45;17 -->
<g id="edge9" class="edge">
<title>7&#45;&#45;17</title>
<path fill="none" stroke="black" stroke-width="3" d="M231.02,-69.1C246.43,-69.1 263.11,-69.1 275.86,-69.1"/>
</g>
<!-- 8&#45;&#45;14 -->
<g id="edge11" class="edge">
<title>8&#45;&#45;14</title>
<path fill="none" stroke="blue" stroke-width="3" stroke-dasharray="5,2" d="M402.29,-76C416,-67.72 434.66,-56.44 448.36,-48.16"/>
</g>
<!-- 9 -->
<g id="node10" class="node">
<title>9</title>
<g id="a_node10"><a xlink:title="Q&#45;Z(&#45;0.25)">
<ellipse fill="green" stroke="black" stroke-width="3" cx="186.79" cy="-380.1" rx="29.5" ry="29.5"/>
<text text-anchor="middle" x="186.79" y="-376.4" font-family="Times,serif" font-size="14.00">&#45;0.25</text>
</a>
</g>
<text text-anchor="start" x="150.54" y="-339.65" font-family="Times,serif" font-size="14.00" fill="grey">9</text>
</g>
<!-- 9&#45;&#45;8 -->
<g id="edge10" class="edge">
<title>9&#45;&#45;8</title>
<path fill="none" stroke="blue" stroke-width="3" stroke-dasharray="5,2" d="M199.9,-353.86C221.71,-306.81 266.24,-211.73 276.08,-198.1 292.13,-175.88 301.24,-174.82 320.28,-155.1 336.99,-137.79 355.43,-117.24 367.75,-103.3"/>
</g>
<!-- 9&#45;&#45;15 -->
<g id="edge6" class="edge">
<title>9&#45;&#45;15</title>
<path fill="none" stroke="blue" stroke-width="3" stroke-dasharray="5,2" d="M212.54,-394.32C222.05,-400.68 232.44,-408.84 240.08,-418.1 266.88,-450.56 284.22,-497.69 292.16,-522.81"/>
</g>
<!-- 10&#45;&#45;12 -->
<g id="edge17" class="edge">
<title>10&#45;&#45;12</title>
<path fill="none" stroke="blue" stroke-width="3" stroke-dasharray="5,2" d="M404.89,-331.88C436.18,-327.08 494.74,-318.1 525.98,-313.3"/>
</g>
<!-- 10&#45;&#45;13 -->
<g id="edge16" class="edge">
<title>10&#45;&#45;13</title>
<path fill="none" stroke="blue" stroke-width="3" stroke-dasharray="5,2" d="M402.29,-324C416,-315.72 434.66,-304.44 448.36,-296.16"/>
</g>
<!-- 11 -->
<g id="node12" class="node">
<title>11</title>
<g id="a_node12"><a xlink:title="Q&#45;Z(0.75)">
<ellipse fill="green" stroke="black" stroke-width="3" cx="382.93" cy="-230.1" rx="26.8" ry="26.8"/>
<text text-anchor="middle" x="382.93" y="-226.4" font-family="Times,serif" font-size="14.00">0.75</text>
</a>
</g>
<text text-anchor="start" x="342.28" y="-192.25" font-family="Times,serif" font-size="14.00" fill="grey">11</text>
</g>
<!-- 11&#45;&#45;13 -->
<g id="edge18" class="edge">
<title>11&#45;&#45;13</title>
<path fill="none" stroke="blue" stroke-width="3" stroke-dasharray="5,2" d="M405.67,-244.55C419.07,-253.46 436.06,-264.75 448.7,-273.16"/>
</g>
<!-- 13&#45;&#45;12 -->
<g id="edge19" class="edge">
<title>13&#45;&#45;12</title>
<path fill="none" stroke="blue" stroke-width="3" stroke-dasharray="5,2" d="M489.22,-291.67C500.71,-295.34 514.99,-299.91 526.46,-303.57"/>
</g>
<!-- 16&#45;&#45;10 -->
<g id="edge12" class="edge">
<title>16&#45;&#45;10</title>
<path fill="none" stroke="blue" stroke-width="3" stroke-dasharray="5,2" d="M312.47,-246.13C327.92,-265.91 353.24,-298.35 368.66,-318.11"/>
</g>
<!-- 16&#45;&#45;11 -->
<g id="edge13" class="edge">
<title>16&#45;&#45;11</title>
<path fill="none" stroke="blue" stroke-width="3" stroke-dasharray="5,2" d="M320.49,-229.36C331.41,-229.49 344.78,-229.65 356.27,-229.79"/>
</g>
<!-- 16&#45;&#45;12 -->
<g id="edge15" class="edge">
<title>16&#45;&#45;12</title>
<path fill="none" stroke="blue" stroke-width="3" stroke-dasharray="5,2" d="M313.9,-212.87C324.52,-202.43 339.82,-189.8 356.28,-184.1 378.66,-176.34 387.39,-175.78 409.57,-184.1 466.22,-205.34 513.37,-262.78 534.67,-292.2"/>
</g>
<!-- 16&#45;&#45;13 -->
<g id="edge14" class="edge">
<title>16&#45;&#45;13</title>
<path fill="none" stroke="blue" stroke-width="3" stroke-dasharray="5,2" d="M316.09,-215.69C338.5,-199.68 378.78,-177.07 409.57,-194.1 436.34,-208.9 452.24,-242.09 460.22,-264.02"/>
</g>
<!-- 17&#45;&#45;8 -->
<g id="edge20" class="edge">
<title>17&#45;&#45;8</title>
<path fill="none" stroke="blue" stroke-width="3" stroke-dasharray="5,2" d="M320.06,-73.64C332.6,-76.37 348.51,-79.83 361.05,-82.56"/>
</g>
<!-- 17&#45;&#45;14 -->
<g id="edge21" class="edge">
<title>17&#45;&#45;14</title>
<path fill="none" stroke="blue" stroke-width="3" stroke-dasharray="5,2" d="M319.74,-64.14C330.58,-61.59 344.12,-58.53 356.28,-56.1 387.17,-49.93 423.17,-43.96 445.45,-40.41"/>
</g>
<!-- input_rank -->
<g id="node19" class="node">
<title>input_rank</title>
</g>
<!-- input_rank&#45;&#45;0 -->
<!-- output_rank -->
<g id="node20" class="node">
<title>output_rank</title>
</g>
<!-- input_rank&#45;&#45;output_rank -->
<!-- output_rank&#45;&#45;4 -->
</g>
</svg>
