<?xml version="1.0" encoding="UTF-8" standalone="no"?>
<!DOCTYPE svg PUBLIC "-//W3C//DTD SVG 1.1//EN"
 "http://www.w3.org/Graphics/SVG/1.1/DTD/svg11.dtd">
<!-- Generated by graphviz version 2.43.0 (0)
 -->
<!-- Title: G Pages: 1 -->
<svg width="559pt" height="309pt"
 viewBox="0.00 0.00 559.17 309.30" xmlns="http://www.w3.org/2000/svg" xmlns:xlink="http://www.w3.org/1999/xlink">
<g id="graph0" class="graph" transform="scale(1 1) rotate(0) translate(4 305.3)">
<title>G</title>
<polygon fill="white" stroke="transparent" points="-4,4 -4,-305.3 555.17,-305.3 555.17,4 -4,4"/>
<!-- 0 -->
<g id="node1" class="node">
<title>0</title>
<g id="a_node1"><a xlink:title="Q&#45;Input">
<ellipse fill="white" stroke="black" stroke-width="3" stroke-dasharray="5,2" cx="60.44" cy="-195.3" rx="46.29" ry="46.29"/>
<text text-anchor="middle" x="60.44" y="-191.6" font-family="Times,serif" font-size="14.00">Q&#45;Input</text>
</a>
</g>
<text text-anchor="start" x="4.3" y="-137.95" font-family="Times,serif" font-size="14.00" fill="grey">0</text>
</g>
<!-- 1 -->
<g id="node2" class="node">
<title>1</title>
<g id="a_node2"><a xlink:title="Q&#45;Input">
<ellipse fill="white" stroke="black" stroke-width="3" stroke-dasharray="5,2" cx="60.44" cy="-85.3" rx="46.29" ry="46.29"/>
<text text-anchor="middle" x="60.44" y="-81.6" font-family="Times,serif" font-size="14.00">Q&#45;Input</text>
</a>
</g>
<text text-anchor="start" x="4.3" y="-27.95" font-family="Times,serif" font-size="14.00" fill="grey">1</text>
</g>
<!-- 0&#45;&#45;1 -->
<!-- 4 -->
<g id="node5" class="node">
<title>4</title>
<g id="a_node5"><a xlink:title="Q&#45;Z(0.0)">
<ellipse fill="green" stroke="black" stroke-width="3" cx="174.89" cy="-193.3" rx="18" ry="18"/>
</a>
</g>
<text text-anchor="start" x="146.89" y="-164.1" font-family="Times,serif" font-size="14.00" fill="grey">4</text>
</g>
<!-- 0&#45;&#45;4 -->
<g id="edge1" class="edge">
<title>0&#45;&#45;4</title>
<path fill="none" stroke="black" stroke-width="3" d="M106.86,-194.49C124.41,-194.18 143.43,-193.84 156.7,-193.6"/>
</g>
<!-- 5 -->
<g id="node6" class="node">
<title>5</title>
<g id="a_node6"><a xlink:title="Q&#45;Z(0.0)">
<ellipse fill="green" stroke="black" stroke-width="3" cx="260.09" cy="-85.3" rx="18" ry="18"/>
</a>
</g>
<text text-anchor="start" x="232.09" y="-56.1" font-family="Times,serif" font-size="14.00" fill="grey">5</text>
</g>
<!-- 1&#45;&#45;5 -->
<g id="edge2" class="edge">
<title>1&#45;&#45;5</title>
<path fill="none" stroke="black" stroke-width="3" d="M106.79,-85.3C149.64,-85.3 211.69,-85.3 241.63,-85.3"/>
</g>
<!-- 2 -->
<g id="node3" class="node">
<title>2</title>
<g id="a_node3"><a xlink:title="Q&#45;Output">
<ellipse fill="white" stroke="black" stroke-width="3" stroke-dasharray="5,2" cx="484.23" cy="-193.3" rx="53.89" ry="53.89"/>
<text text-anchor="middle" x="484.23" y="-189.6" font-family="Times,serif" font-size="14.00">Q&#45;Output</text>
</a>
</g>
<text text-anchor="start" x="420.28" y="-128.15" font-family="Times,serif" font-size="14.00" fill="grey">2</text>
</g>
<!-- 3 -->
<g id="node4" class="node">
<title>3</title>
<g id="a_node4"><a xlink:title="C&#45;Output">
<ellipse fill="white" stroke="black" stroke-dasharray="5,2" cx="484.23" cy="-68.3" rx="53.09" ry="53.09"/>
<text text-anchor="middle" x="484.23" y="-64.6" font-family="Times,serif" font-size="14.00">C&#45;Output</text>
</a>
</g>
<text text-anchor="start" x="420.93" y="-3.8" font-family="Times,serif" font-size="14.00" fill="grey">3</text>
</g>
<!-- 2&#45;&#45;3 -->
<!-- 4&#45;&#45;5 -->
<g id="edge3" class="edge">
<title>4&#45;&#45;5</title>
<path fill="none" stroke="blue" stroke-width="3" stroke-dasharray="5,2" d="M186.77,-179.18C202.8,-158.36 232.59,-119.69 248.47,-99.08"/>
</g>
<!-- 6 -->
<g id="node7" class="node">
<title>6</title>
<g id="a_node7"><a xlink:title="Q&#45;X(0.25)">
<ellipse fill="red" stroke="black" stroke-width="3" cx="260.09" cy="-193.3" rx="31.4" ry="31.4"/>
<text text-anchor="middle" x="260.09" y="-189.6" font-family="Times,serif" font-size="14.00">0.25</text>
</a>
</g>
<text text-anchor="start" x="218.89" y="-150.9" font-family="Times,serif" font-size="14.00" fill="grey">6</text>
</g>
<!-- 4&#45;&#45;6 -->
<g id="edge4" class="edge">
<title>4&#45;&#45;6</title>
<path fill="none" stroke="black" stroke-width="3" d="M193.13,-193.3C203.41,-193.3 216.75,-193.3 228.75,-193.3"/>
</g>
<!-- 7 -->
<g id="node8" class="node">
<title>7</title>
<g id="a_node8"><a xlink:title="C&#45;X(0.0)">
<ellipse fill="red" stroke="black" cx="354.28" cy="-75.3" rx="18" ry="18"/>
</a>
</g>
<text text-anchor="start" x="326.28" y="-46.1" font-family="Times,serif" font-size="14.00" fill="grey">7</text>
</g>
<!-- 5&#45;&#45;7 -->
<g id="edge7" class="edge">
<title>5&#45;&#45;7</title>
<path fill="none" stroke="black" stroke-width="3" d="M278,-83.46C294.53,-81.67 319.57,-78.95 336.17,-77.15"/>
</g>
<!-- 8 -->
<g id="node9" class="node">
<title>8</title>
<g id="a_node9"><a xlink:title="Box">
<polygon fill="lightgrey" stroke="black" stroke-width="2" points="381.28,-211.3 331.28,-211.3 327.28,-207.3 327.28,-175.3 377.28,-175.3 381.28,-179.3 381.28,-211.3"/>
<polyline fill="none" stroke="black" stroke-width="2" points="377.28,-207.3 327.28,-207.3 "/>
<polyline fill="none" stroke="black" stroke-width="2" points="377.28,-207.3 377.28,-175.3 "/>
<polyline fill="none" stroke="black" stroke-width="2" points="377.28,-207.3 381.28,-211.3 "/>
<text text-anchor="middle" x="354.28" y="-189.6" font-family="Times,serif" font-size="14.00">Box</text>
</a>
</g>
<text text-anchor="start" x="317.28" y="-164.1" font-family="Times,serif" font-size="14.00" fill="grey">8</text>
</g>
<!-- 6&#45;&#45;8 -->
<g id="edge5" class="edge">
<title>6&#45;&#45;8</title>
<path fill="none" stroke="black" stroke-width="3" d="M291.53,-193.3C303.07,-193.3 316.09,-193.3 327.2,-193.3"/>
<text text-anchor="middle" x="322.2" y="-182.1" font-family="Times,serif" font-size="14.00">0</text>
</g>
<!-- 7&#45;&#45;3 -->
<g id="edge8" class="edge">
<title>7&#45;&#45;3</title>
<path fill="none" stroke="blue" stroke-dasharray="5,2" d="M372.27,-74.37C387.3,-73.54 410.02,-72.3 431,-71.15"/>
</g>
<!-- 8&#45;&#45;2 -->
<g id="edge6" class="edge">
<title>8&#45;&#45;2</title>
<path fill="none" stroke="black" stroke-width="3" d="M381.48,-193.3C395.52,-193.3 413.34,-193.3 430.13,-193.3"/>
<text text-anchor="middle" x="386.48" y="-182.1" font-family="Times,serif" font-size="14.00">1</text>
</g>
<!-- input_rank -->
<g id="node10" class="node">
<title>input_rank</title>
</g>
<!-- input_rank&#45;&#45;0 -->
<!-- output_rank -->
<g id="node11" class="node">
<title>output_rank</title>
</g>
<!-- input_rank&#45;&#45;output_rank -->
<!-- output_rank&#45;&#45;2 -->
</g>
</svg>
