<?xml version="1.0" encoding="UTF-8" standalone="no"?>
<!DOCTYPE svg PUBLIC "-//W3C//DTD SVG 1.1//EN"
 "http://www.w3.org/Graphics/SVG/1.1/DTD/svg11.dtd">
<!-- Generated by graphviz version 2.50.0 (0)
 -->
<!-- Title: G Pages: 1 -->
<svg width="680pt" height="196pt"
 viewBox="0.00 0.00 680.08 196.00" xmlns="http://www.w3.org/2000/svg" xmlns:xlink="http://www.w3.org/1999/xlink">
<g id="graph0" class="graph" transform="scale(1 1) rotate(0) translate(4 192)">
<title>G</title>
<polygon fill="white" stroke="transparent" points="-4,4 -4,-192 676.08,-192 676.08,4 -4,4"/>
<!-- 0 -->
<g id="node1" class="node">
<title>0</title>
<g id="a_node1"><a xlink:title="Q&#45;Input">
<ellipse fill="white" stroke="black" stroke-width="3" stroke-dasharray="5,2" cx="48.75" cy="-95" rx="38.19" ry="38.19"/>
<text text-anchor="middle" x="48.75" y="-91.3" font-family="Times,serif" font-size="14.00">Q&#45;Input</text>
</a>
</g>
<text text-anchor="start" x="3.4" y="-45.45" font-family="Times,serif" font-size="14.00" fill="grey">0</text>
</g>
<!-- 2 -->
<g id="node3" class="node">
<title>2</title>
<g id="a_node3"><a xlink:title="Q&#45;Z(0.0)">
<ellipse fill="green" stroke="black" stroke-width="3" cx="151.49" cy="-92" rx="18" ry="18"/>
</a>
</g>
<text text-anchor="start" x="126.49" y="-62.8" font-family="Times,serif" font-size="14.00" fill="grey">2</text>
</g>
<!-- 0&#45;&#45;2 -->
<g id="edge2" class="edge">
<title>0&#45;&#45;2</title>
<path fill="none" stroke="black" stroke-width="3" d="M87.26,-93.88C103.15,-93.41 120.87,-92.88 133.49,-92.51"/>
</g>
<!-- 1 -->
<g id="node2" class="node">
<title>1</title>
<g id="a_node2"><a xlink:title="Q&#45;Output">
<ellipse fill="white" stroke="black" stroke-width="3" stroke-dasharray="5,2" cx="618.79" cy="-88" rx="44.39" ry="44.39"/>
<text text-anchor="middle" x="618.79" y="-84.3" font-family="Times,serif" font-size="14.00">Q&#45;Output</text>
</a>
</g>
<text text-anchor="start" x="567.59" y="-32.6" font-family="Times,serif" font-size="14.00" fill="grey">1</text>
</g>
<!-- 3 -->
<g id="node4" class="node">
<title>3</title>
<g id="a_node4"><a xlink:title="Q&#45;X(0.0)">
<ellipse fill="red" stroke="black" stroke-width="3" cx="223.49" cy="-92" rx="18" ry="18"/>
</a>
</g>
<text text-anchor="start" x="198.49" y="-62.8" font-family="Times,serif" font-size="14.00" fill="grey">3</text>
</g>
<!-- 2&#45;&#45;3 -->
<g id="edge3" class="edge">
<title>2&#45;&#45;3</title>
<path fill="none" stroke="black" stroke-width="3" d="M169.79,-92C180.65,-92 194.57,-92 205.39,-92"/>
</g>
<!-- 5 -->
<g id="node6" class="node">
<title>5</title>
<g id="a_node6"><a xlink:title="C&#45;X(0.0)">
<ellipse fill="red" stroke="black" cx="223.49" cy="-38" rx="18" ry="18"/>
</a>
</g>
<text text-anchor="start" x="198.49" y="-8.8" font-family="Times,serif" font-size="14.00" fill="grey">5</text>
</g>
<!-- 2&#45;&#45;5 -->
<g id="edge4" class="edge">
<title>2&#45;&#45;5</title>
<path fill="none" stroke="black" stroke-width="3" d="M166.32,-81.33C178.59,-71.86 196.43,-58.11 208.69,-48.65"/>
</g>
<!-- 4 -->
<g id="node5" class="node">
<title>4</title>
<g id="a_node5"><a xlink:title="C&#45;Z(0.0)">
<ellipse fill="green" stroke="black" cx="295.49" cy="-87" rx="18" ry="18"/>
</a>
</g>
<text text-anchor="start" x="270.49" y="-57.8" font-family="Times,serif" font-size="14.00" fill="grey">4</text>
</g>
<!-- 3&#45;&#45;4 -->
<g id="edge5" class="edge">
<title>3&#45;&#45;4</title>
<path fill="none" stroke="black" stroke-width="3" d="M241.79,-90.76C252.65,-89.99 266.57,-88.99 277.39,-88.22"/>
</g>
<!-- 9 -->
<g id="node10" class="node">
<title>9</title>
<g id="a_node10"><a xlink:title="Q&#45;X(0.0)">
<ellipse fill="red" stroke="black" stroke-width="3" cx="439.49" cy="-87" rx="18" ry="18"/>
</a>
</g>
<text text-anchor="start" x="414.49" y="-57.8" font-family="Times,serif" font-size="14.00" fill="grey">9</text>
</g>
<!-- 3&#45;&#45;9 -->
<g id="edge1" class="edge">
<title>3&#45;&#45;9</title>
<path fill="none" stroke="black" stroke-width="3" d="M239.75,-100.22C250.08,-105.31 264.2,-111.35 277.49,-114 324.57,-123.38 338.82,-125.2 385.49,-114 399.35,-110.67 413.67,-103.09 423.92,-96.8"/>
</g>
<!-- 6 -->
<g id="node7" class="node">
<title>6</title>
<g id="a_node7"><a xlink:title="C&#45;Z(0.0)">
<ellipse fill="green" stroke="black" cx="367.49" cy="-87" rx="18" ry="18"/>
</a>
</g>
<text text-anchor="start" x="342.49" y="-57.8" font-family="Times,serif" font-size="14.00" fill="grey">6</text>
</g>
<!-- 4&#45;&#45;6 -->
<g id="edge8" class="edge">
<title>4&#45;&#45;6</title>
<path fill="none" stroke="black" d="M313.79,-87C324.65,-87 338.57,-87 349.39,-87"/>
</g>
<!-- 7 -->
<g id="node8" class="node">
<title>7</title>
<g id="a_node8"><a xlink:title="C&#45;X(0.0)">
<ellipse fill="red" stroke="black" cx="367.49" cy="-33" rx="18" ry="18"/>
</a>
</g>
<text text-anchor="start" x="342.49" y="-3.8" font-family="Times,serif" font-size="14.00" fill="grey">7</text>
</g>
<!-- 5&#45;&#45;7 -->
<g id="edge6" class="edge">
<title>5&#45;&#45;7</title>
<path fill="none" stroke="black" d="M241.62,-37.4C268.91,-36.44 321.97,-34.57 349.3,-33.61"/>
</g>
<!-- 6&#45;&#45;9 -->
<g id="edge9" class="edge">
<title>6&#45;&#45;9</title>
<path fill="none" stroke="black" stroke-width="3" d="M385.79,-87C396.65,-87 410.57,-87 421.39,-87"/>
</g>
<!-- 8 -->
<g id="node9" class="node">
<title>8</title>
<g id="a_node9"><a xlink:title="Q&#45;Z(0.0)">
<ellipse fill="green" stroke="black" stroke-width="3" cx="511.49" cy="-87" rx="18" ry="18"/>
</a>
</g>
<text text-anchor="start" x="486.49" y="-57.8" font-family="Times,serif" font-size="14.00" fill="grey">8</text>
</g>
<!-- 7&#45;&#45;8 -->
<g id="edge7" class="edge">
<title>7&#45;&#45;8</title>
<path fill="none" stroke="black" stroke-width="3" d="M385.2,-37.12C403.31,-41.81 432.93,-50.11 457.49,-60 470.71,-65.32 485.08,-72.75 495.52,-78.47"/>
</g>
<!-- 8&#45;&#45;1 -->
<g id="edge11" class="edge">
<title>8&#45;&#45;1</title>
<path fill="none" stroke="black" stroke-width="3" d="M529.88,-87.17C542.03,-87.28 558.81,-87.44 574.47,-87.59"/>
</g>
<!-- 9&#45;&#45;8 -->
<g id="edge10" class="edge">
<title>9&#45;&#45;8</title>
<path fill="none" stroke="black" stroke-width="3" d="M457.79,-87C468.65,-87 482.57,-87 493.39,-87"/>
</g>
<!-- input_rank -->
<g id="node11" class="node">
<title>input_rank</title>
</g>
<!-- input_rank&#45;&#45;0 -->
<!-- output_rank -->
<g id="node12" class="node">
<title>output_rank</title>
</g>
<!-- input_rank&#45;&#45;output_rank -->
<!-- output_rank&#45;&#45;1 -->
</g>
</svg>
