<?xml version="1.0" encoding="UTF-8" standalone="no"?>
<!DOCTYPE svg PUBLIC "-//W3C//DTD SVG 1.1//EN"
 "http://www.w3.org/Graphics/SVG/1.1/DTD/svg11.dtd">
<!-- Generated by graphviz version 2.50.0 (20211204.2007)
 -->
<!-- Title: Circuit Pages: 1 -->
<svg width="289pt" height="123pt"
 viewBox="0.00 0.00 289.00 123.00" xmlns="http://www.w3.org/2000/svg" xmlns:xlink="http://www.w3.org/1999/xlink">
<g id="graph0" class="graph" transform="scale(1 1) rotate(0) translate(4 119)">
<title>Circuit</title>
<polygon fill="white" stroke="transparent" points="-4,4 -4,-119 285,-119 285,4 -4,4"/>
<g id="clust1" class="cluster">
<title>cluster_q_inputs</title>
<path fill="lightgrey" stroke="lightgrey" d="M18.53,-9C18.53,-9 23.07,-9 23.07,-9 25.33,-9 27.6,-11.27 27.6,-13.53 27.6,-13.53 27.6,-63.47 27.6,-63.47 27.6,-65.73 25.33,-68 23.07,-68 23.07,-68 18.53,-68 18.53,-68 16.27,-68 14,-65.73 14,-63.47 14,-63.47 14,-13.53 14,-13.53 14,-11.27 16.27,-9 18.53,-9"/>
</g>
<g id="clust3" class="cluster">
<title>cluster_q_outputs</title>
<path fill="lightgrey" stroke="lightgrey" d="M263.93,-8C263.93,-8 268.47,-8 268.47,-8 270.73,-8 273,-10.27 273,-12.53 273,-12.53 273,-62.47 273,-62.47 273,-64.73 270.73,-67 268.47,-67 268.47,-67 263.93,-67 263.93,-67 261.67,-67 259.4,-64.73 259.4,-62.47 259.4,-62.47 259.4,-12.53 259.4,-12.53 259.4,-10.27 261.67,-8 263.93,-8"/>
</g>
<g id="clust5" class="cluster">
<title>cluster_8</title>
<path fill="lightblue" stroke="lightblue" d="M142.4,-50C142.4,-50 152.6,-50 152.6,-50 157.7,-50 162.8,-55.1 162.8,-60.2 162.8,-60.2 162.8,-87.8 162.8,-87.8 162.8,-92.9 157.7,-98 152.6,-98 152.6,-98 142.4,-98 142.4,-98 137.3,-98 132.2,-92.9 132.2,-87.8 132.2,-87.8 132.2,-60.2 132.2,-60.2 132.2,-55.1 137.3,-50 142.4,-50"/>
<text text-anchor="middle" x="147.5" y="-86" font-family="Times,serif" font-size="10.00">CX</text>
</g>
<g id="clust6" class="cluster">
<title>cluster_9</title>
<path fill="lightblue" stroke="lightblue" d="M50.6,-74C50.6,-74 109.2,-74 109.2,-74 114.7,-74 120.2,-79.5 120.2,-85 120.2,-85 120.2,-96 120.2,-96 120.2,-101.5 114.7,-107 109.2,-107 109.2,-107 50.6,-107 50.6,-107 45.1,-107 39.6,-101.5 39.6,-96 39.6,-96 39.6,-85 39.6,-85 39.6,-79.5 45.1,-74 50.6,-74"/>
<text text-anchor="middle" x="79.9" y="-95" font-family="Times,serif" font-size="10.00">TK1(0.5, 1.8, 3)</text>
</g>
<g id="clust7" class="cluster">
<title>cluster_10</title>
<path fill="lightblue" stroke="lightblue" d="M53.6,-41C53.6,-41 105.2,-41 105.2,-41 110.7,-41 116.2,-46.5 116.2,-52 116.2,-52 116.2,-63 116.2,-63 116.2,-68.5 110.7,-74 105.2,-74 105.2,-74 53.6,-74 53.6,-74 48.1,-74 42.6,-68.5 42.6,-63 42.6,-63 42.6,-52 42.6,-52 42.6,-46.5 48.1,-41 53.6,-41"/>
<text text-anchor="middle" x="79.4" y="-62" font-family="Times,serif" font-size="10.00">TK1(0, 0, 0.5)</text>
</g>
<g id="clust8" class="cluster">
<title>cluster_11</title>
<path fill="lightblue" stroke="lightblue" d="M185.8,-41C185.8,-41 237.4,-41 237.4,-41 242.9,-41 248.4,-46.5 248.4,-52 248.4,-52 248.4,-63 248.4,-63 248.4,-68.5 242.9,-74 237.4,-74 237.4,-74 185.8,-74 185.8,-74 180.3,-74 174.8,-68.5 174.8,-63 174.8,-63 174.8,-52 174.8,-52 174.8,-46.5 180.3,-41 185.8,-41"/>
<text text-anchor="middle" x="211.6" y="-62" font-family="Times,serif" font-size="10.00">TK1(0, 0, 0.5)</text>
</g>
<!-- (0, 0) -->
<g id="node1" class="node">
<title>(0, 0)</title>
<ellipse fill="blue" stroke="blue" cx="20.8" cy="-61" rx="1.8" ry="1.8"/>
<text text-anchor="middle" x="9.5" y="-52.8" font-family="Courier,monospace" font-size="8.00">q[0]</text>
</g>
<!-- (9, 0) -->
<g id="node11" class="node">
<title>(9, 0)</title>
<ellipse fill="black" stroke="black" cx="79.4" cy="-81" rx="1.8" ry="1.8"/>
</g>
<!-- (0, 0)&#45;&gt;(9, 0) -->
<g id="edge1" class="edge">
<title>(0, 0)&#45;&gt;(9, 0)</title>
<path fill="none" stroke="blue" d="M22.65,-61.95C25.04,-64.54 32.1,-71.74 39.6,-75 52.07,-80.42 68.67,-81.04 75.39,-81.04"/>
<polygon fill="blue" stroke="blue" points="77.39,-81.03 75.4,-82.17 76.39,-81.04 75.39,-81.04 75.39,-81.04 75.39,-81.04 76.39,-81.04 75.38,-79.92 77.39,-81.03 77.39,-81.03"/>
</g>
<!-- (2, 0) -->
<g id="node2" class="node">
<title>(2, 0)</title>
<ellipse fill="blue" stroke="blue" cx="20.8" cy="-46" rx="1.8" ry="1.8"/>
<text text-anchor="middle" x="9.5" y="-37.8" font-family="Courier,monospace" font-size="8.00">q[1]</text>
</g>
<!-- (10, 0) -->
<g id="node12" class="node">
<title>(10, 0)</title>
<ellipse fill="black" stroke="black" cx="79.4" cy="-48" rx="1.8" ry="1.8"/>
</g>
<!-- (2, 0)&#45;&gt;(10, 0) -->
<g id="edge2" class="edge">
<title>(2, 0)&#45;&gt;(10, 0)</title>
<path fill="none" stroke="blue" d="M22.78,-46.03C29.17,-46.26 64.87,-47.52 75.45,-47.9"/>
<polygon fill="blue" stroke="blue" points="77.56,-47.97 75.52,-49.02 76.56,-47.94 75.56,-47.9 75.56,-47.9 75.56,-47.9 76.56,-47.94 75.6,-46.78 77.56,-47.97 77.56,-47.97"/>
</g>
<!-- (4, 0) -->
<g id="node3" class="node">
<title>(4, 0)</title>
<ellipse fill="blue" stroke="blue" cx="20.8" cy="-31" rx="1.8" ry="1.8"/>
<text text-anchor="middle" x="9.5" y="-22.8" font-family="Courier,monospace" font-size="8.00">q[2]</text>
</g>
<!-- (5, 0) -->
<g id="node7" class="node">
<title>(5, 0)</title>
<ellipse fill="blue" stroke="blue" cx="266.2" cy="-30" rx="1.8" ry="1.8"/>
<text text-anchor="middle" x="254.9" y="-21.8" font-family="Courier,monospace" font-size="8.00">q[2]</text>
</g>
<!-- (4, 0)&#45;&gt;(5, 0) -->
<g id="edge3" class="edge">
<title>(4, 0)&#45;&gt;(5, 0)</title>
<path fill="none" stroke="blue" d="M22.89,-31C39.23,-30.93 235.13,-30.12 262.12,-30.01"/>
<polygon fill="blue" stroke="blue" points="264.2,-30 262.2,-31.14 263.2,-30.01 262.2,-30.01 262.2,-30.01 262.2,-30.01 263.2,-30.01 262.19,-28.89 264.2,-30 264.2,-30"/>
</g>
<!-- (6, 0) -->
<g id="node4" class="node">
<title>(6, 0)</title>
<ellipse fill="blue" stroke="blue" cx="20.8" cy="-16" rx="1.8" ry="1.8"/>
<text text-anchor="middle" x="9.5" y="-7.8" font-family="Courier,monospace" font-size="8.00">q[3]</text>
</g>
<!-- (7, 0) -->
<g id="node8" class="node">
<title>(7, 0)</title>
<ellipse fill="blue" stroke="blue" cx="266.2" cy="-15" rx="1.8" ry="1.8"/>
<text text-anchor="middle" x="254.9" y="-6.8" font-family="Courier,monospace" font-size="8.00">q[3]</text>
</g>
<!-- (6, 0)&#45;&gt;(7, 0) -->
<g id="edge4" class="edge">
<title>(6, 0)&#45;&gt;(7, 0)</title>
<path fill="none" stroke="blue" d="M22.89,-16C39.23,-15.93 235.13,-15.12 262.12,-15.01"/>
<polygon fill="blue" stroke="blue" points="264.2,-15 262.2,-16.14 263.2,-15.01 262.2,-15.01 262.2,-15.01 262.2,-15.01 263.2,-15.01 262.19,-13.89 264.2,-15 264.2,-15"/>
</g>
<!-- (1, 0) -->
<g id="node5" class="node">
<title>(1, 0)</title>
<ellipse fill="blue" stroke="blue" cx="266.2" cy="-60" rx="1.8" ry="1.8"/>
<text text-anchor="middle" x="254.9" y="-51.8" font-family="Courier,monospace" font-size="8.00">q[0]</text>
</g>
<!-- (3, 0) -->
<g id="node6" class="node">
<title>(3, 0)</title>
<ellipse fill="blue" stroke="blue" cx="266.2" cy="-45" rx="1.8" ry="1.8"/>
<text text-anchor="middle" x="254.9" y="-36.8" font-family="Courier,monospace" font-size="8.00">q[1]</text>
</g>
<!-- (8, 0) -->
<g id="node9" class="node">
<title>(8, 0)</title>
<ellipse fill="black" stroke="black" cx="147" cy="-57" rx="1.8" ry="1.8"/>
<text text-anchor="middle" x="142.7" y="-48.8" font-family="Helvetica,sans-Serif" font-size="8.00">0</text>
</g>
<!-- (8, 0)&#45;&gt;(1, 0) -->
<g id="edge5" class="edge">
<title>(8, 0)&#45;&gt;(1, 0)</title>
<path fill="none" stroke="blue" d="M148.84,-57.38C151.14,-58.44 157.77,-61.59 162.8,-65 168.55,-68.89 168.27,-72.64 174.8,-75 205.56,-86.14 217.84,-86.66 248.4,-75 254.81,-72.55 260.33,-66.41 263.16,-62.79"/>
<polygon fill="blue" stroke="blue" points="264.45,-61.08 264.15,-63.35 263.85,-61.88 263.25,-62.68 263.25,-62.68 263.25,-62.68 263.85,-61.88 262.35,-62 264.45,-61.08 264.45,-61.08"/>
</g>
<!-- (8, 1) -->
<g id="node10" class="node">
<title>(8, 1)</title>
<ellipse fill="black" stroke="black" cx="147" cy="-72" rx="1.8" ry="1.8"/>
<text text-anchor="middle" x="142.7" y="-63.8" font-family="Helvetica,sans-Serif" font-size="8.00">1</text>
</g>
<!-- (11, 0) -->
<g id="node13" class="node">
<title>(11, 0)</title>
<ellipse fill="black" stroke="black" cx="211.6" cy="-48" rx="1.8" ry="1.8"/>
</g>
<!-- (8, 1)&#45;&gt;(11, 0) -->
<g id="edge6" class="edge">
<title>(8, 1)&#45;&gt;(11, 0)</title>
<path fill="none" stroke="blue" d="M149.09,-71.58C156.21,-68.85 196.31,-53.48 207.63,-49.14"/>
<polygon fill="blue" stroke="blue" points="209.67,-48.36 208.21,-50.12 208.74,-48.71 207.81,-49.07 207.81,-49.07 207.81,-49.07 208.74,-48.71 207.4,-48.02 209.67,-48.36 209.67,-48.36"/>
</g>
<!-- (9, 0)&#45;&gt;(8, 1) -->
<g id="edge7" class="edge">
<title>(9, 0)&#45;&gt;(8, 1)</title>
<path fill="none" stroke="blue" d="M81.54,-80.84C89,-79.82 131.02,-74.05 142.88,-72.43"/>
<polygon fill="blue" stroke="blue" points="145.03,-72.13 143.2,-73.52 144.04,-72.27 143.05,-72.41 143.05,-72.41 143.05,-72.41 144.04,-72.27 142.89,-71.29 145.03,-72.13 145.03,-72.13"/>
</g>
<!-- (10, 0)&#45;&gt;(8, 0) -->
<g id="edge8" class="edge">
<title>(10, 0)&#45;&gt;(8, 0)</title>
<path fill="none" stroke="blue" d="M81.54,-48.16C89,-49.18 131.02,-54.95 142.88,-56.57"/>
<polygon fill="blue" stroke="blue" points="145.03,-56.87 142.89,-57.71 144.04,-56.73 143.05,-56.59 143.05,-56.59 143.05,-56.59 144.04,-56.73 143.2,-55.48 145.03,-56.87 145.03,-56.87"/>
</g>
<!-- (11, 0)&#45;&gt;(3, 0) -->
<g id="edge9" class="edge">
<title>(11, 0)&#45;&gt;(3, 0)</title>
<path fill="none" stroke="blue" d="M213.51,-47.95C219.35,-47.62 251.51,-45.78 261.94,-45.19"/>
<polygon fill="blue" stroke="blue" points="264.09,-45.06 262.16,-46.3 263.09,-45.12 262.09,-45.18 262.09,-45.18 262.09,-45.18 263.09,-45.12 262.03,-44.05 264.09,-45.06 264.09,-45.06"/>
</g>
</g>
</svg>
