<?xml version="1.0" encoding="UTF-8" standalone="no"?>
<!DOCTYPE svg PUBLIC "-//W3C//DTD SVG 1.1//EN"
 "http://www.w3.org/Graphics/SVG/1.1/DTD/svg11.dtd">
<!-- Generated by graphviz version 2.50.0 (20211204.2007)
 -->
<!-- Title: Circuit Pages: 1 -->
<svg width="861pt" height="130pt"
 viewBox="0.00 0.00 861.00 130.00" xmlns="http://www.w3.org/2000/svg" xmlns:xlink="http://www.w3.org/1999/xlink">
<g id="graph0" class="graph" transform="scale(1 1) rotate(0) translate(4 126)">
<title>Circuit</title>
<polygon fill="white" stroke="transparent" points="-4,4 -4,-126 857,-126 857,4 -4,4"/>
<g id="clust1" class="cluster">
<title>cluster_q_inputs</title>
<path fill="lightgrey" stroke="lightgrey" d="M18.53,-26C18.53,-26 23.07,-26 23.07,-26 25.33,-26 27.6,-28.27 27.6,-30.53 27.6,-30.53 27.6,-65.47 27.6,-65.47 27.6,-67.73 25.33,-70 23.07,-70 23.07,-70 18.53,-70 18.53,-70 16.27,-70 14,-67.73 14,-65.47 14,-65.47 14,-30.53 14,-30.53 14,-28.27 16.27,-26 18.53,-26"/>
</g>
<g id="clust3" class="cluster">
<title>cluster_q_outputs</title>
<path fill="lightgrey" stroke="lightgrey" d="M835.93,-26C835.93,-26 840.47,-26 840.47,-26 842.73,-26 845,-28.27 845,-30.53 845,-30.53 845,-65.47 845,-65.47 845,-67.73 842.73,-70 840.47,-70 840.47,-70 835.93,-70 835.93,-70 833.67,-70 831.4,-67.73 831.4,-65.47 831.4,-65.47 831.4,-30.53 831.4,-30.53 831.4,-28.27 833.67,-26 835.93,-26"/>
</g>
<g id="clust5" class="cluster">
<title>cluster_3</title>
<path fill="lightblue" stroke="lightblue" d="M47.47,-41C47.47,-41 55.33,-41 55.33,-41 59.27,-41 63.2,-44.93 63.2,-48.87 63.2,-48.87 63.2,-66.13 63.2,-66.13 63.2,-70.07 59.27,-74 55.33,-74 55.33,-74 47.47,-74 47.47,-74 43.53,-74 39.6,-70.07 39.6,-66.13 39.6,-66.13 39.6,-48.87 39.6,-48.87 39.6,-44.93 43.53,-41 47.47,-41"/>
<text text-anchor="middle" x="51.4" y="-62" font-family="Times,serif" font-size="10.00">H</text>
</g>
<g id="clust6" class="cluster">
<title>cluster_4</title>
<path fill="lightblue" stroke="lightblue" d="M86.2,-41C86.2,-41 115.8,-41 115.8,-41 121.3,-41 126.8,-46.5 126.8,-52 126.8,-52 126.8,-63 126.8,-63 126.8,-68.5 121.3,-74 115.8,-74 115.8,-74 86.2,-74 86.2,-74 80.7,-74 75.2,-68.5 75.2,-63 75.2,-63 75.2,-52 75.2,-52 75.2,-46.5 80.7,-41 86.2,-41"/>
<text text-anchor="middle" x="101" y="-62" font-family="Times,serif" font-size="10.00">Rz(0.45)</text>
</g>
<g id="clust7" class="cluster">
<title>cluster_5</title>
<path fill="lightblue" stroke="lightblue" d="M146.67,-41C146.67,-41 154.53,-41 154.53,-41 158.47,-41 162.4,-44.93 162.4,-48.87 162.4,-48.87 162.4,-66.13 162.4,-66.13 162.4,-70.07 158.47,-74 154.53,-74 154.53,-74 146.67,-74 146.67,-74 142.73,-74 138.8,-70.07 138.8,-66.13 138.8,-66.13 138.8,-48.87 138.8,-48.87 138.8,-44.93 142.73,-41 146.67,-41"/>
<text text-anchor="middle" x="150.6" y="-62" font-family="Times,serif" font-size="10.00">H</text>
</g>
<g id="clust8" class="cluster">
<title>cluster_6</title>
<path fill="lightblue" stroke="lightblue" d="M185.4,-78C185.4,-78 210,-78 210,-78 215.5,-78 221,-83.5 221,-89 221,-89 221,-100 221,-100 221,-105.5 215.5,-111 210,-111 210,-111 185.4,-111 185.4,-111 179.9,-111 174.4,-105.5 174.4,-100 174.4,-100 174.4,-89 174.4,-89 174.4,-83.5 179.9,-78 185.4,-78"/>
<text text-anchor="middle" x="197.7" y="-99" font-family="Times,serif" font-size="10.00">Rz(0.2)</text>
</g>
<g id="clust9" class="cluster">
<title>cluster_7</title>
<path fill="lightblue" stroke="lightblue" d="M193.27,-43C193.27,-43 201.13,-43 201.13,-43 205.07,-43 209,-46.93 209,-50.87 209,-50.87 209,-68.13 209,-68.13 209,-72.07 205.07,-76 201.13,-76 201.13,-76 193.27,-76 193.27,-76 189.33,-76 185.4,-72.07 185.4,-68.13 185.4,-68.13 185.4,-50.87 185.4,-50.87 185.4,-46.93 189.33,-43 193.27,-43"/>
<text text-anchor="middle" x="197.2" y="-64" font-family="Times,serif" font-size="10.00">H</text>
</g>
<g id="clust10" class="cluster">
<title>cluster_8</title>
<path fill="lightblue" stroke="lightblue" d="M243.87,-78C243.87,-78 251.73,-78 251.73,-78 255.67,-78 259.6,-81.93 259.6,-85.87 259.6,-85.87 259.6,-103.13 259.6,-103.13 259.6,-107.07 255.67,-111 251.73,-111 251.73,-111 243.87,-111 243.87,-111 239.93,-111 236,-107.07 236,-103.13 236,-103.13 236,-85.87 236,-85.87 236,-81.93 239.93,-78 243.87,-78"/>
<text text-anchor="middle" x="247.8" y="-99" font-family="Times,serif" font-size="10.00">V</text>
</g>
<g id="clust11" class="cluster">
<title>cluster_9</title>
<path fill="lightblue" stroke="lightblue" d="M287.8,-78C287.8,-78 295,-78 295,-78 298.6,-78 302.2,-81.6 302.2,-85.2 302.2,-85.2 302.2,-103.8 302.2,-103.8 302.2,-107.4 298.6,-111 295,-111 295,-111 287.8,-111 287.8,-111 284.2,-111 280.6,-107.4 280.6,-103.8 280.6,-103.8 280.6,-85.2 280.6,-85.2 280.6,-81.6 284.2,-78 287.8,-78"/>
<text text-anchor="middle" x="291.4" y="-99" font-family="Times,serif" font-size="10.00">S</text>
</g>
<g id="clust12" class="cluster">
<title>cluster_10</title>
<path fill="lightblue" stroke="lightblue" d="M193.6,-10C193.6,-10 200.8,-10 200.8,-10 204.4,-10 208,-13.6 208,-17.2 208,-17.2 208,-35.8 208,-35.8 208,-39.4 204.4,-43 200.8,-43 200.8,-43 193.6,-43 193.6,-43 190,-43 186.4,-39.4 186.4,-35.8 186.4,-35.8 186.4,-17.2 186.4,-17.2 186.4,-13.6 190,-10 193.6,-10"/>
<text text-anchor="middle" x="197.2" y="-31" font-family="Times,serif" font-size="10.00">S</text>
</g>
<g id="clust13" class="cluster">
<title>cluster_11</title>
<path fill="lightblue" stroke="lightblue" d="M243.2,-20C243.2,-20 253.4,-20 253.4,-20 258.5,-20 263.6,-25.1 263.6,-30.2 263.6,-30.2 263.6,-57.8 263.6,-57.8 263.6,-62.9 258.5,-68 253.4,-68 253.4,-68 243.2,-68 243.2,-68 238.1,-68 233,-62.9 233,-57.8 233,-57.8 233,-30.2 233,-30.2 233,-25.1 238.1,-20 243.2,-20"/>
<text text-anchor="middle" x="248.3" y="-56" font-family="Times,serif" font-size="10.00">CX</text>
</g>
<g id="clust14" class="cluster">
<title>cluster_12</title>
<path fill="lightblue" stroke="lightblue" d="M286.13,-45C286.13,-45 296.67,-45 296.67,-45 301.93,-45 307.2,-50.27 307.2,-55.53 307.2,-55.53 307.2,-67.47 307.2,-67.47 307.2,-72.73 301.93,-78 296.67,-78 296.67,-78 286.13,-78 286.13,-78 280.87,-78 275.6,-72.73 275.6,-67.47 275.6,-67.47 275.6,-55.53 275.6,-55.53 275.6,-50.27 280.87,-45 286.13,-45"/>
<text text-anchor="middle" x="291.4" y="-66" font-family="Times,serif" font-size="10.00">Sdg</text>
</g>
<g id="clust15" class="cluster">
<title>cluster_13</title>
<path fill="lightblue" stroke="lightblue" d="M329.4,-54C329.4,-54 339.6,-54 339.6,-54 344.7,-54 349.8,-59.1 349.8,-64.2 349.8,-64.2 349.8,-91.8 349.8,-91.8 349.8,-96.9 344.7,-102 339.6,-102 339.6,-102 329.4,-102 329.4,-102 324.3,-102 319.2,-96.9 319.2,-91.8 319.2,-91.8 319.2,-64.2 319.2,-64.2 319.2,-59.1 324.3,-54 329.4,-54"/>
<text text-anchor="middle" x="334.5" y="-90" font-family="Times,serif" font-size="10.00">CX</text>
</g>
<g id="clust16" class="cluster">
<title>cluster_14</title>
<path fill="lightblue" stroke="lightblue" d="M372.8,-81C372.8,-81 397.4,-81 397.4,-81 402.9,-81 408.4,-86.5 408.4,-92 408.4,-92 408.4,-103 408.4,-103 408.4,-108.5 402.9,-114 397.4,-114 397.4,-114 372.8,-114 372.8,-114 367.3,-114 361.8,-108.5 361.8,-103 361.8,-103 361.8,-92 361.8,-92 361.8,-86.5 367.3,-81 372.8,-81"/>
<text text-anchor="middle" x="385.1" y="-102" font-family="Times,serif" font-size="10.00">Rz(3.4)</text>
</g>
<g id="clust17" class="cluster">
<title>cluster_15</title>
<path fill="lightblue" stroke="lightblue" d="M380.67,-46C380.67,-46 388.53,-46 388.53,-46 392.47,-46 396.4,-49.93 396.4,-53.87 396.4,-53.87 396.4,-71.13 396.4,-71.13 396.4,-75.07 392.47,-79 388.53,-79 388.53,-79 380.67,-79 380.67,-79 376.73,-79 372.8,-75.07 372.8,-71.13 372.8,-71.13 372.8,-53.87 372.8,-53.87 372.8,-49.93 376.73,-46 380.67,-46"/>
<text text-anchor="middle" x="384.6" y="-67" font-family="Times,serif" font-size="10.00">H</text>
</g>
<g id="clust18" class="cluster">
<title>cluster_16</title>
<path fill="lightblue" stroke="lightblue" d="M431.4,-45C431.4,-45 456,-45 456,-45 461.5,-45 467,-50.5 467,-56 467,-56 467,-67 467,-67 467,-72.5 461.5,-78 456,-78 456,-78 431.4,-78 431.4,-78 425.9,-78 420.4,-72.5 420.4,-67 420.4,-67 420.4,-56 420.4,-56 420.4,-50.5 425.9,-45 431.4,-45"/>
<text text-anchor="middle" x="443.7" y="-66" font-family="Times,serif" font-size="10.00">Rz(0.8)</text>
</g>
<g id="clust19" class="cluster">
<title>cluster_17</title>
<path fill="lightblue" stroke="lightblue" d="M486.87,-45C486.87,-45 494.73,-45 494.73,-45 498.67,-45 502.6,-48.93 502.6,-52.87 502.6,-52.87 502.6,-70.13 502.6,-70.13 502.6,-74.07 498.67,-78 494.73,-78 494.73,-78 486.87,-78 486.87,-78 482.93,-78 479,-74.07 479,-70.13 479,-70.13 479,-52.87 479,-52.87 479,-48.93 482.93,-45 486.87,-45"/>
<text text-anchor="middle" x="490.8" y="-66" font-family="Times,serif" font-size="10.00">H</text>
</g>
<g id="clust20" class="cluster">
<title>cluster_18</title>
<path fill="lightblue" stroke="lightblue" d="M659.27,-41C659.27,-41 667.13,-41 667.13,-41 671.07,-41 675,-44.93 675,-48.87 675,-48.87 675,-66.13 675,-66.13 675,-70.07 671.07,-74 667.13,-74 667.13,-74 659.27,-74 659.27,-74 655.33,-74 651.4,-70.07 651.4,-66.13 651.4,-66.13 651.4,-48.87 651.4,-48.87 651.4,-44.93 655.33,-41 659.27,-41"/>
<text text-anchor="middle" x="663.2" y="-62" font-family="Times,serif" font-size="10.00">H</text>
</g>
<g id="clust21" class="cluster">
<title>cluster_19</title>
<path fill="lightblue" stroke="lightblue" d="M611.8,-78C611.8,-78 624.4,-78 624.4,-78 629.9,-78 635.4,-83.5 635.4,-89 635.4,-89 635.4,-100 635.4,-100 635.4,-105.5 629.9,-111 624.4,-111 624.4,-111 611.8,-111 611.8,-111 606.3,-111 600.8,-105.5 600.8,-100 600.8,-100 600.8,-89 600.8,-89 600.8,-83.5 606.3,-78 611.8,-78"/>
<text text-anchor="middle" x="618.1" y="-99" font-family="Times,serif" font-size="10.00">Vdg</text>
</g>
<g id="clust22" class="cluster">
<title>cluster_20</title>
<path fill="lightblue" stroke="lightblue" d="M567.73,-78C567.73,-78 578.27,-78 578.27,-78 583.53,-78 588.8,-83.27 588.8,-88.53 588.8,-88.53 588.8,-100.47 588.8,-100.47 588.8,-105.73 583.53,-111 578.27,-111 578.27,-111 567.73,-111 567.73,-111 562.47,-111 557.2,-105.73 557.2,-100.47 557.2,-100.47 557.2,-88.53 557.2,-88.53 557.2,-83.27 562.47,-78 567.73,-78"/>
<text text-anchor="middle" x="573" y="-99" font-family="Times,serif" font-size="10.00">Sdg</text>
</g>
<g id="clust23" class="cluster">
<title>cluster_21</title>
<path fill="lightblue" stroke="lightblue" d="M657.93,-8C657.93,-8 668.47,-8 668.47,-8 673.73,-8 679,-13.27 679,-18.53 679,-18.53 679,-30.47 679,-30.47 679,-35.73 673.73,-41 668.47,-41 668.47,-41 657.93,-41 657.93,-41 652.67,-41 647.4,-35.73 647.4,-30.47 647.4,-30.47 647.4,-18.53 647.4,-18.53 647.4,-13.27 652.67,-8 657.93,-8"/>
<text text-anchor="middle" x="663.2" y="-29" font-family="Times,serif" font-size="10.00">Sdg</text>
</g>
<g id="clust24" class="cluster">
<title>cluster_22</title>
<path fill="lightblue" stroke="lightblue" d="M613,-28C613,-28 623.2,-28 623.2,-28 628.3,-28 633.4,-33.1 633.4,-38.2 633.4,-38.2 633.4,-65.8 633.4,-65.8 633.4,-70.9 628.3,-76 623.2,-76 623.2,-76 613,-76 613,-76 607.9,-76 602.8,-70.9 602.8,-65.8 602.8,-65.8 602.8,-38.2 602.8,-38.2 602.8,-33.1 607.9,-28 613,-28"/>
<text text-anchor="middle" x="618.1" y="-64" font-family="Times,serif" font-size="10.00">CX</text>
</g>
<g id="clust25" class="cluster">
<title>cluster_23</title>
<path fill="lightblue" stroke="lightblue" d="M569.4,-45C569.4,-45 576.6,-45 576.6,-45 580.2,-45 583.8,-48.6 583.8,-52.2 583.8,-52.2 583.8,-70.8 583.8,-70.8 583.8,-74.4 580.2,-78 576.6,-78 576.6,-78 569.4,-78 569.4,-78 565.8,-78 562.2,-74.4 562.2,-70.8 562.2,-70.8 562.2,-52.2 562.2,-52.2 562.2,-48.6 565.8,-45 569.4,-45"/>
<text text-anchor="middle" x="573" y="-66" font-family="Times,serif" font-size="10.00">S</text>
</g>
<g id="clust26" class="cluster">
<title>cluster_24</title>
<path fill="lightblue" stroke="lightblue" d="M524.8,-54C524.8,-54 535,-54 535,-54 540.1,-54 545.2,-59.1 545.2,-64.2 545.2,-64.2 545.2,-91.8 545.2,-91.8 545.2,-96.9 540.1,-102 535,-102 535,-102 524.8,-102 524.8,-102 519.7,-102 514.6,-96.9 514.6,-91.8 514.6,-91.8 514.6,-64.2 514.6,-64.2 514.6,-59.1 519.7,-54 524.8,-54"/>
<text text-anchor="middle" x="529.9" y="-90" font-family="Times,serif" font-size="10.00">CX</text>
</g>
<g id="clust27" class="cluster">
<title>cluster_28</title>
<path fill="lightblue" stroke="lightblue" d="M659.27,-78C659.27,-78 667.13,-78 667.13,-78 671.07,-78 675,-81.93 675,-85.87 675,-85.87 675,-103.13 675,-103.13 675,-107.07 671.07,-111 667.13,-111 667.13,-111 659.27,-111 659.27,-111 655.33,-111 651.4,-107.07 651.4,-103.13 651.4,-103.13 651.4,-85.87 651.4,-85.87 651.4,-81.93 655.33,-78 659.27,-78"/>
<text text-anchor="middle" x="663.2" y="-99" font-family="Times,serif" font-size="10.00">V</text>
</g>
<g id="clust28" class="cluster">
<title>cluster_29</title>
<path fill="lightblue" stroke="lightblue" d="M698.87,-41C698.87,-41 706.73,-41 706.73,-41 710.67,-41 714.6,-44.93 714.6,-48.87 714.6,-48.87 714.6,-66.13 714.6,-66.13 714.6,-70.07 710.67,-74 706.73,-74 706.73,-74 698.87,-74 698.87,-74 694.93,-74 691,-70.07 691,-66.13 691,-66.13 691,-48.87 691,-48.87 691,-44.93 694.93,-41 698.87,-41"/>
<text text-anchor="middle" x="702.8" y="-62" font-family="Times,serif" font-size="10.00">V</text>
</g>
<g id="clust29" class="cluster">
<title>cluster_30</title>
<path fill="lightblue" stroke="lightblue" d="M698.87,-8C698.87,-8 706.73,-8 706.73,-8 710.67,-8 714.6,-11.93 714.6,-15.87 714.6,-15.87 714.6,-33.13 714.6,-33.13 714.6,-37.07 710.67,-41 706.73,-41 706.73,-41 698.87,-41 698.87,-41 694.93,-41 691,-37.07 691,-33.13 691,-33.13 691,-15.87 691,-15.87 691,-11.93 694.93,-8 698.87,-8"/>
<text text-anchor="middle" x="702.8" y="-29" font-family="Times,serif" font-size="10.00">V</text>
</g>
<g id="clust30" class="cluster">
<title>cluster_31</title>
<path fill="lightblue" stroke="lightblue" d="M699.2,-78C699.2,-78 706.4,-78 706.4,-78 710,-78 713.6,-81.6 713.6,-85.2 713.6,-85.2 713.6,-103.8 713.6,-103.8 713.6,-107.4 710,-111 706.4,-111 706.4,-111 699.2,-111 699.2,-111 695.6,-111 692,-107.4 692,-103.8 692,-103.8 692,-85.2 692,-85.2 692,-81.6 695.6,-78 699.2,-78"/>
<text text-anchor="middle" x="702.8" y="-99" font-family="Times,serif" font-size="10.00">S</text>
</g>
<g id="clust31" class="cluster">
<title>cluster_32</title>
<path fill="lightblue" stroke="lightblue" d="M734.8,-41C734.8,-41 742,-41 742,-41 745.6,-41 749.2,-44.6 749.2,-48.2 749.2,-48.2 749.2,-66.8 749.2,-66.8 749.2,-70.4 745.6,-74 742,-74 742,-74 734.8,-74 734.8,-74 731.2,-74 727.6,-70.4 727.6,-66.8 727.6,-66.8 727.6,-48.2 727.6,-48.2 727.6,-44.6 731.2,-41 734.8,-41"/>
<text text-anchor="middle" x="738.4" y="-62" font-family="Times,serif" font-size="10.00">S</text>
</g>
<g id="clust32" class="cluster">
<title>cluster_33</title>
<path fill="lightblue" stroke="lightblue" d="M734.8,-8C734.8,-8 742,-8 742,-8 745.6,-8 749.2,-11.6 749.2,-15.2 749.2,-15.2 749.2,-33.8 749.2,-33.8 749.2,-37.4 745.6,-41 742,-41 742,-41 734.8,-41 734.8,-41 731.2,-41 727.6,-37.4 727.6,-33.8 727.6,-33.8 727.6,-15.2 727.6,-15.2 727.6,-11.6 731.2,-8 734.8,-8"/>
<text text-anchor="middle" x="738.4" y="-29" font-family="Times,serif" font-size="10.00">S</text>
</g>
<g id="clust33" class="cluster">
<title>cluster_34</title>
<path fill="lightblue" stroke="lightblue" d="M734.47,-78C734.47,-78 742.33,-78 742.33,-78 746.27,-78 750.2,-81.93 750.2,-85.87 750.2,-85.87 750.2,-103.13 750.2,-103.13 750.2,-107.07 746.27,-111 742.33,-111 742.33,-111 734.47,-111 734.47,-111 730.53,-111 726.6,-107.07 726.6,-103.13 726.6,-103.13 726.6,-85.87 726.6,-85.87 726.6,-81.93 730.53,-78 734.47,-78"/>
<text text-anchor="middle" x="738.4" y="-99" font-family="Times,serif" font-size="10.00">H</text>
</g>
<g id="clust34" class="cluster">
<title>cluster_35</title>
<path fill="lightblue" stroke="lightblue" d="M770.07,-41C770.07,-41 777.93,-41 777.93,-41 781.87,-41 785.8,-44.93 785.8,-48.87 785.8,-48.87 785.8,-66.13 785.8,-66.13 785.8,-70.07 781.87,-74 777.93,-74 777.93,-74 770.07,-74 770.07,-74 766.13,-74 762.2,-70.07 762.2,-66.13 762.2,-66.13 762.2,-48.87 762.2,-48.87 762.2,-44.93 766.13,-41 770.07,-41"/>
<text text-anchor="middle" x="774" y="-62" font-family="Times,serif" font-size="10.00">H</text>
</g>
<g id="clust35" class="cluster">
<title>cluster_36</title>
<path fill="lightblue" stroke="lightblue" d="M770.07,-8C770.07,-8 777.93,-8 777.93,-8 781.87,-8 785.8,-11.93 785.8,-15.87 785.8,-15.87 785.8,-33.13 785.8,-33.13 785.8,-37.07 781.87,-41 777.93,-41 777.93,-41 770.07,-41 770.07,-41 766.13,-41 762.2,-37.07 762.2,-33.13 762.2,-33.13 762.2,-15.87 762.2,-15.87 762.2,-11.93 766.13,-8 770.07,-8"/>
<text text-anchor="middle" x="774" y="-29" font-family="Times,serif" font-size="10.00">H</text>
</g>
<g id="clust36" class="cluster">
<title>cluster_37</title>
<path fill="lightblue" stroke="lightblue" d="M770.4,-78C770.4,-78 777.6,-78 777.6,-78 781.2,-78 784.8,-81.6 784.8,-85.2 784.8,-85.2 784.8,-103.8 784.8,-103.8 784.8,-107.4 781.2,-111 777.6,-111 777.6,-111 770.4,-111 770.4,-111 766.8,-111 763.2,-107.4 763.2,-103.8 763.2,-103.8 763.2,-85.2 763.2,-85.2 763.2,-81.6 766.8,-78 770.4,-78"/>
<text text-anchor="middle" x="774" y="-99" font-family="Times,serif" font-size="10.00">S</text>
</g>
<g id="clust37" class="cluster">
<title>cluster_38</title>
<path fill="lightblue" stroke="lightblue" d="M805,-41C805,-41 812.2,-41 812.2,-41 815.8,-41 819.4,-44.6 819.4,-48.2 819.4,-48.2 819.4,-66.8 819.4,-66.8 819.4,-70.4 815.8,-74 812.2,-74 812.2,-74 805,-74 805,-74 801.4,-74 797.8,-70.4 797.8,-66.8 797.8,-66.8 797.8,-48.2 797.8,-48.2 797.8,-44.6 801.4,-41 805,-41"/>
<text text-anchor="middle" x="808.6" y="-62" font-family="Times,serif" font-size="10.00">S</text>
</g>
<g id="clust38" class="cluster">
<title>cluster_39</title>
<path fill="lightblue" stroke="lightblue" d="M805,-8C805,-8 812.2,-8 812.2,-8 815.8,-8 819.4,-11.6 819.4,-15.2 819.4,-15.2 819.4,-33.8 819.4,-33.8 819.4,-37.4 815.8,-41 812.2,-41 812.2,-41 805,-41 805,-41 801.4,-41 797.8,-37.4 797.8,-33.8 797.8,-33.8 797.8,-15.2 797.8,-15.2 797.8,-11.6 801.4,-8 805,-8"/>
<text text-anchor="middle" x="808.6" y="-29" font-family="Times,serif" font-size="10.00">S</text>
</g>
<!-- (0, 0) -->
<g id="node1" class="node">
<title>(0, 0)</title>
<ellipse fill="blue" stroke="blue" cx="20.8" cy="-63" rx="1.8" ry="1.8"/>
<text text-anchor="middle" x="9.5" y="-54.8" font-family="Courier,monospace" font-size="8.00">q[0]</text>
</g>
<!-- (6, 0) -->
<g id="node10" class="node">
<title>(6, 0)</title>
<ellipse fill="black" stroke="black" cx="197.2" cy="-85" rx="1.8" ry="1.8"/>
</g>
<!-- (0, 0)&#45;&gt;(6, 0) -->
<g id="edge1" class="edge">
<title>(0, 0)&#45;&gt;(6, 0)</title>
<path fill="none" stroke="blue" d="M22.67,-63.84C25.1,-66.14 32.26,-72.5 39.6,-75 98.1,-94.94 175.91,-87.39 192.85,-85.42"/>
<polygon fill="blue" stroke="blue" points="195.17,-85.13 193.32,-86.49 194.17,-85.26 193.18,-85.38 193.18,-85.38 193.18,-85.38 194.17,-85.26 193.05,-84.26 195.17,-85.13 195.17,-85.13"/>
</g>
<!-- (1, 0) -->
<g id="node2" class="node">
<title>(1, 0)</title>
<ellipse fill="blue" stroke="blue" cx="20.8" cy="-48" rx="1.8" ry="1.8"/>
<text text-anchor="middle" x="9.5" y="-39.8" font-family="Courier,monospace" font-size="8.00">q[1]</text>
</g>
<!-- (3, 0) -->
<g id="node7" class="node">
<title>(3, 0)</title>
<ellipse fill="black" stroke="black" cx="51.4" cy="-48" rx="1.8" ry="1.8"/>
</g>
<!-- (1, 0)&#45;&gt;(3, 0) -->
<g id="edge2" class="edge">
<title>(1, 0)&#45;&gt;(3, 0)</title>
<path fill="none" stroke="blue" d="M23.03,-48C27.22,-48 41.04,-48 47.28,-48"/>
<polygon fill="blue" stroke="blue" points="49.45,-48 47.45,-49.13 48.45,-48 47.45,-48 47.45,-48 47.45,-48 48.45,-48 47.45,-46.88 49.45,-48 49.45,-48"/>
</g>
<!-- (2, 0) -->
<g id="node3" class="node">
<title>(2, 0)</title>
<ellipse fill="blue" stroke="blue" cx="20.8" cy="-33" rx="1.8" ry="1.8"/>
<text text-anchor="middle" x="9.5" y="-24.8" font-family="Courier,monospace" font-size="8.00">q[2]</text>
</g>
<!-- (10, 0) -->
<g id="node14" class="node">
<title>(10, 0)</title>
<ellipse fill="black" stroke="black" cx="197.2" cy="-17" rx="1.8" ry="1.8"/>
</g>
<!-- (2, 0)&#45;&gt;(10, 0) -->
<g id="edge3" class="edge">
<title>(2, 0)&#45;&gt;(10, 0)</title>
<path fill="none" stroke="blue" d="M22.91,-32.9C36.52,-31.65 170.57,-19.35 193.02,-17.29"/>
<polygon fill="blue" stroke="blue" points="195.19,-17.09 193.3,-18.4 194.19,-17.18 193.2,-17.28 193.2,-17.28 193.2,-17.28 194.19,-17.18 193.09,-16.16 195.19,-17.09 195.19,-17.09"/>
</g>
<!-- (25, 0) -->
<g id="node4" class="node">
<title>(25, 0)</title>
<ellipse fill="blue" stroke="blue" cx="838.2" cy="-63" rx="1.8" ry="1.8"/>
<text text-anchor="middle" x="826.9" y="-54.8" font-family="Courier,monospace" font-size="8.00">q[0]</text>
</g>
<!-- (26, 0) -->
<g id="node5" class="node">
<title>(26, 0)</title>
<ellipse fill="blue" stroke="blue" cx="838.2" cy="-48" rx="1.8" ry="1.8"/>
<text text-anchor="middle" x="826.9" y="-39.8" font-family="Courier,monospace" font-size="8.00">q[1]</text>
</g>
<!-- (27, 0) -->
<g id="node6" class="node">
<title>(27, 0)</title>
<ellipse fill="blue" stroke="blue" cx="838.2" cy="-33" rx="1.8" ry="1.8"/>
<text text-anchor="middle" x="826.9" y="-24.8" font-family="Courier,monospace" font-size="8.00">q[2]</text>
</g>
<!-- (4, 0) -->
<g id="node8" class="node">
<title>(4, 0)</title>
<ellipse fill="black" stroke="black" cx="101" cy="-48" rx="1.8" ry="1.8"/>
</g>
<!-- (3, 0)&#45;&gt;(4, 0) -->
<g id="edge4" class="edge">
<title>(3, 0)&#45;&gt;(4, 0)</title>
<path fill="none" stroke="blue" d="M53.23,-48C58.42,-48 86.63,-48 96.55,-48"/>
<polygon fill="blue" stroke="blue" points="98.99,-48 96.99,-49.13 97.99,-48 96.99,-48 96.99,-48 96.99,-48 97.99,-48 96.99,-46.88 98.99,-48 98.99,-48"/>
</g>
<!-- (5, 0) -->
<g id="node9" class="node">
<title>(5, 0)</title>
<ellipse fill="black" stroke="black" cx="150.6" cy="-48" rx="1.8" ry="1.8"/>
</g>
<!-- (4, 0)&#45;&gt;(5, 0) -->
<g id="edge5" class="edge">
<title>(4, 0)&#45;&gt;(5, 0)</title>
<path fill="none" stroke="blue" d="M102.83,-48C108.02,-48 136.23,-48 146.15,-48"/>
<polygon fill="blue" stroke="blue" points="148.59,-48 146.59,-49.13 147.59,-48 146.59,-48 146.59,-48 146.59,-48 147.59,-48 146.59,-46.88 148.59,-48 148.59,-48"/>
</g>
<!-- (7, 0) -->
<g id="node11" class="node">
<title>(7, 0)</title>
<ellipse fill="black" stroke="black" cx="197.2" cy="-50" rx="1.8" ry="1.8"/>
</g>
<!-- (5, 0)&#45;&gt;(7, 0) -->
<g id="edge6" class="edge">
<title>(5, 0)&#45;&gt;(7, 0)</title>
<path fill="none" stroke="blue" d="M152.7,-48.05C158.34,-48.3 184.06,-49.46 193.07,-49.86"/>
<polygon fill="blue" stroke="blue" points="195.29,-49.96 193.24,-50.99 194.29,-49.91 193.29,-49.87 193.29,-49.87 193.29,-49.87 194.29,-49.91 193.34,-48.75 195.29,-49.96 195.29,-49.96"/>
</g>
<!-- (8, 0) -->
<g id="node12" class="node">
<title>(8, 0)</title>
<ellipse fill="black" stroke="black" cx="247.8" cy="-85" rx="1.8" ry="1.8"/>
</g>
<!-- (6, 0)&#45;&gt;(8, 0) -->
<g id="edge7" class="edge">
<title>(6, 0)&#45;&gt;(8, 0)</title>
<path fill="none" stroke="blue" d="M199.04,-85C204.39,-85 233.65,-85 243.54,-85"/>
<polygon fill="blue" stroke="blue" points="245.77,-85 243.77,-86.13 244.77,-85 243.77,-85 243.77,-85 243.77,-85 244.77,-85 243.77,-83.88 245.77,-85 245.77,-85"/>
</g>
<!-- (11, 0) -->
<g id="node15" class="node">
<title>(11, 0)</title>
<ellipse fill="black" stroke="black" cx="247.8" cy="-42" rx="1.8" ry="1.8"/>
<text text-anchor="middle" x="243.5" y="-33.8" font-family="Helvetica,sans-Serif" font-size="8.00">0</text>
</g>
<!-- (7, 0)&#45;&gt;(11, 0) -->
<g id="edge8" class="edge">
<title>(7, 0)&#45;&gt;(11, 0)</title>
<path fill="none" stroke="blue" d="M199.04,-49.86C204.44,-48.97 234.15,-44.08 243.78,-42.5"/>
<polygon fill="blue" stroke="blue" points="245.77,-42.17 243.98,-43.6 244.79,-42.33 243.8,-42.49 243.8,-42.49 243.8,-42.49 244.79,-42.33 243.62,-41.38 245.77,-42.17 245.77,-42.17"/>
</g>
<!-- (9, 0) -->
<g id="node13" class="node">
<title>(9, 0)</title>
<ellipse fill="black" stroke="black" cx="291.4" cy="-85" rx="1.8" ry="1.8"/>
</g>
<!-- (8, 0)&#45;&gt;(9, 0) -->
<g id="edge9" class="edge">
<title>(8, 0)&#45;&gt;(9, 0)</title>
<path fill="none" stroke="blue" d="M249.83,-85C255.09,-85 279.08,-85 287.48,-85"/>
<polygon fill="blue" stroke="blue" points="289.55,-85 287.55,-86.13 288.55,-85 287.55,-85 287.55,-85 287.55,-85 288.55,-85 287.55,-83.88 289.55,-85 289.55,-85"/>
</g>
<!-- (13, 1) -->
<g id="node19" class="node">
<title>(13, 1)</title>
<ellipse fill="black" stroke="black" cx="334" cy="-76" rx="1.8" ry="1.8"/>
<text text-anchor="middle" x="329.7" y="-67.8" font-family="Helvetica,sans-Serif" font-size="8.00">1</text>
</g>
<!-- (9, 0)&#45;&gt;(13, 1) -->
<g id="edge10" class="edge">
<title>(9, 0)&#45;&gt;(13, 1)</title>
<path fill="none" stroke="blue" d="M293.4,-84.78C298.54,-83.64 321.95,-78.45 330.15,-76.63"/>
<polygon fill="blue" stroke="blue" points="332.17,-76.18 330.46,-77.72 331.19,-76.4 330.22,-76.62 330.22,-76.62 330.22,-76.62 331.19,-76.4 329.97,-75.52 332.17,-76.18 332.17,-76.18"/>
</g>
<!-- (11, 1) -->
<g id="node16" class="node">
<title>(11, 1)</title>
<ellipse fill="black" stroke="black" cx="247.8" cy="-27" rx="1.8" ry="1.8"/>
<text text-anchor="middle" x="243.5" y="-18.8" font-family="Helvetica,sans-Serif" font-size="8.00">1</text>
</g>
<!-- (10, 0)&#45;&gt;(11, 1) -->
<g id="edge11" class="edge">
<title>(10, 0)&#45;&gt;(11, 1)</title>
<path fill="none" stroke="blue" d="M199.04,-17.17C204.44,-18.28 234.15,-24.4 243.78,-26.38"/>
<polygon fill="blue" stroke="blue" points="245.77,-26.79 243.59,-27.49 244.79,-26.59 243.81,-26.39 243.81,-26.39 243.81,-26.39 244.79,-26.59 244.04,-25.28 245.77,-26.79 245.77,-26.79"/>
</g>
<!-- (22, 0) -->
<g id="node28" class="node">
<title>(22, 0)</title>
<ellipse fill="black" stroke="black" cx="617.6" cy="-35" rx="1.8" ry="1.8"/>
<text text-anchor="middle" x="613.3" y="-26.8" font-family="Helvetica,sans-Serif" font-size="8.00">0</text>
</g>
<!-- (11, 0)&#45;&gt;(22, 0) -->
<g id="edge13" class="edge">
<title>(11, 0)&#45;&gt;(22, 0)</title>
<path fill="none" stroke="blue" d="M249.63,-41.84C256.02,-40.65 298.3,-33 333,-33 333,-33 333,-33 530.4,-33 562.97,-33 602.44,-34.44 613.56,-34.88"/>
<polygon fill="blue" stroke="blue" points="615.75,-34.97 613.71,-36.01 614.75,-34.93 613.75,-34.89 613.75,-34.89 613.75,-34.89 614.75,-34.93 613.8,-33.76 615.75,-34.97 615.75,-34.97"/>
</g>
<!-- (12, 0) -->
<g id="node17" class="node">
<title>(12, 0)</title>
<ellipse fill="black" stroke="black" cx="291.4" cy="-52" rx="1.8" ry="1.8"/>
</g>
<!-- (11, 1)&#45;&gt;(12, 0) -->
<g id="edge12" class="edge">
<title>(11, 1)&#45;&gt;(12, 0)</title>
<path fill="none" stroke="blue" d="M249.61,-27.41C251.86,-28.57 258.36,-31.93 263.6,-35 272.58,-40.27 282.91,-47.02 287.7,-50.2"/>
<polygon fill="blue" stroke="blue" points="289.39,-51.33 287.11,-51.15 288.56,-50.77 287.73,-50.22 287.73,-50.22 287.73,-50.22 288.56,-50.77 288.35,-49.28 289.39,-51.33 289.39,-51.33"/>
</g>
<!-- (13, 0) -->
<g id="node18" class="node">
<title>(13, 0)</title>
<ellipse fill="black" stroke="black" cx="334" cy="-61" rx="1.8" ry="1.8"/>
<text text-anchor="middle" x="329.7" y="-52.8" font-family="Helvetica,sans-Serif" font-size="8.00">0</text>
</g>
<!-- (12, 0)&#45;&gt;(13, 0) -->
<g id="edge14" class="edge">
<title>(12, 0)&#45;&gt;(13, 0)</title>
<path fill="none" stroke="blue" d="M293.4,-52.22C298.54,-53.36 321.95,-58.55 330.15,-60.37"/>
<polygon fill="blue" stroke="blue" points="332.17,-60.82 329.97,-61.48 331.19,-60.6 330.22,-60.38 330.22,-60.38 330.22,-60.38 331.19,-60.6 330.46,-59.28 332.17,-60.82 332.17,-60.82"/>
</g>
<!-- (15, 0) -->
<g id="node21" class="node">
<title>(15, 0)</title>
<ellipse fill="black" stroke="black" cx="384.6" cy="-53" rx="1.8" ry="1.8"/>
</g>
<!-- (13, 0)&#45;&gt;(15, 0) -->
<g id="edge15" class="edge">
<title>(13, 0)&#45;&gt;(15, 0)</title>
<path fill="none" stroke="blue" d="M335.84,-60.86C341.24,-59.97 370.95,-55.08 380.58,-53.5"/>
<polygon fill="blue" stroke="blue" points="382.57,-53.17 380.78,-54.6 381.59,-53.33 380.6,-53.49 380.6,-53.49 380.6,-53.49 381.59,-53.33 380.42,-52.38 382.57,-53.17 382.57,-53.17"/>
</g>
<!-- (14, 0) -->
<g id="node20" class="node">
<title>(14, 0)</title>
<ellipse fill="black" stroke="black" cx="384.6" cy="-88" rx="1.8" ry="1.8"/>
</g>
<!-- (13, 1)&#45;&gt;(14, 0) -->
<g id="edge16" class="edge">
<title>(13, 1)&#45;&gt;(14, 0)</title>
<path fill="none" stroke="blue" d="M335.84,-76.21C341.24,-77.54 370.95,-84.88 380.58,-87.26"/>
<polygon fill="blue" stroke="blue" points="382.57,-87.75 380.36,-88.36 381.6,-87.51 380.63,-87.27 380.63,-87.27 380.63,-87.27 381.6,-87.51 380.9,-86.17 382.57,-87.75 382.57,-87.75"/>
</g>
<!-- (24, 1) -->
<g id="node32" class="node">
<title>(24, 1)</title>
<ellipse fill="black" stroke="black" cx="529.4" cy="-76" rx="1.8" ry="1.8"/>
<text text-anchor="middle" x="525.1" y="-67.8" font-family="Helvetica,sans-Serif" font-size="8.00">1</text>
</g>
<!-- (14, 0)&#45;&gt;(24, 1) -->
<g id="edge17" class="edge">
<title>(14, 0)&#45;&gt;(24, 1)</title>
<path fill="none" stroke="blue" d="M386.75,-87.93C395.69,-87.37 454.74,-83.62 502.6,-79 510.78,-78.21 520.39,-77.02 525.25,-76.41"/>
<polygon fill="blue" stroke="blue" points="527.42,-76.13 525.58,-77.5 526.43,-76.26 525.43,-76.38 525.43,-76.38 525.43,-76.38 526.43,-76.26 525.29,-75.27 527.42,-76.13 527.42,-76.13"/>
</g>
<!-- (16, 0) -->
<g id="node22" class="node">
<title>(16, 0)</title>
<ellipse fill="black" stroke="black" cx="443.2" cy="-52" rx="1.8" ry="1.8"/>
</g>
<!-- (15, 0)&#45;&gt;(16, 0) -->
<g id="edge18" class="edge">
<title>(15, 0)&#45;&gt;(16, 0)</title>
<path fill="none" stroke="blue" d="M386.58,-52.98C392.97,-52.87 428.67,-52.24 439.25,-52.05"/>
<polygon fill="blue" stroke="blue" points="441.36,-52.01 439.38,-53.18 440.36,-52.03 439.36,-52.05 439.36,-52.05 439.36,-52.05 440.36,-52.03 439.34,-50.93 441.36,-52.01 441.36,-52.01"/>
</g>
<!-- (17, 0) -->
<g id="node23" class="node">
<title>(17, 0)</title>
<ellipse fill="black" stroke="black" cx="490.8" cy="-52" rx="1.8" ry="1.8"/>
</g>
<!-- (16, 0)&#45;&gt;(17, 0) -->
<g id="edge19" class="edge">
<title>(16, 0)&#45;&gt;(17, 0)</title>
<path fill="none" stroke="blue" d="M445.33,-52C451.09,-52 477.39,-52 486.6,-52"/>
<polygon fill="blue" stroke="blue" points="488.87,-52 486.87,-53.13 487.87,-52 486.87,-52 486.87,-52 486.87,-52 487.87,-52 486.87,-50.88 488.87,-52 488.87,-52"/>
</g>
<!-- (24, 0) -->
<g id="node31" class="node">
<title>(24, 0)</title>
<ellipse fill="black" stroke="black" cx="529.4" cy="-61" rx="1.8" ry="1.8"/>
<text text-anchor="middle" x="525.1" y="-52.8" font-family="Helvetica,sans-Serif" font-size="8.00">0</text>
</g>
<!-- (17, 0)&#45;&gt;(24, 0) -->
<g id="edge20" class="edge">
<title>(17, 0)&#45;&gt;(24, 0)</title>
<path fill="none" stroke="blue" d="M492.7,-52.22C497.17,-53.32 517,-58.2 525.02,-60.17"/>
<polygon fill="blue" stroke="blue" points="527.1,-60.68 524.89,-61.29 526.13,-60.44 525.16,-60.2 525.16,-60.2 525.16,-60.2 526.13,-60.44 525.42,-59.11 527.1,-60.68 527.1,-60.68"/>
</g>
<!-- (18, 0) -->
<g id="node24" class="node">
<title>(18, 0)</title>
<ellipse fill="black" stroke="black" cx="663.2" cy="-48" rx="1.8" ry="1.8"/>
</g>
<!-- (29, 0) -->
<g id="node34" class="node">
<title>(29, 0)</title>
<ellipse fill="black" stroke="black" cx="702.8" cy="-48" rx="1.8" ry="1.8"/>
</g>
<!-- (18, 0)&#45;&gt;(29, 0) -->
<g id="edge21" class="edge">
<title>(18, 0)&#45;&gt;(29, 0)</title>
<path fill="none" stroke="blue" d="M665.13,-48C669.72,-48 690.09,-48 698.33,-48"/>
<polygon fill="blue" stroke="blue" points="700.46,-48 698.46,-49.13 699.46,-48 698.46,-48 698.46,-48 698.46,-48 699.46,-48 698.46,-46.88 700.46,-48 700.46,-48"/>
</g>
<!-- (19, 0) -->
<g id="node25" class="node">
<title>(19, 0)</title>
<ellipse fill="black" stroke="black" cx="617.6" cy="-85" rx="1.8" ry="1.8"/>
</g>
<!-- (28, 0) -->
<g id="node33" class="node">
<title>(28, 0)</title>
<ellipse fill="black" stroke="black" cx="663.2" cy="-85" rx="1.8" ry="1.8"/>
</g>
<!-- (19, 0)&#45;&gt;(28, 0) -->
<g id="edge22" class="edge">
<title>(19, 0)&#45;&gt;(28, 0)</title>
<path fill="none" stroke="blue" d="M619.68,-85C625.19,-85 650.33,-85 659.14,-85"/>
<polygon fill="blue" stroke="blue" points="661.31,-85 659.31,-86.13 660.31,-85 659.31,-85 659.31,-85 659.31,-85 660.31,-85 659.31,-83.88 661.31,-85 661.31,-85"/>
</g>
<!-- (20, 0) -->
<g id="node26" class="node">
<title>(20, 0)</title>
<ellipse fill="black" stroke="black" cx="573" cy="-85" rx="1.8" ry="1.8"/>
</g>
<!-- (20, 0)&#45;&gt;(19, 0) -->
<g id="edge23" class="edge">
<title>(20, 0)&#45;&gt;(19, 0)</title>
<path fill="none" stroke="blue" d="M575.05,-85C580.44,-85 605,-85 613.61,-85"/>
<polygon fill="blue" stroke="blue" points="615.73,-85 613.73,-86.13 614.73,-85 613.73,-85 613.73,-85 613.73,-85 614.73,-85 613.73,-83.88 615.73,-85 615.73,-85"/>
</g>
<!-- (21, 0) -->
<g id="node27" class="node">
<title>(21, 0)</title>
<ellipse fill="black" stroke="black" cx="663.2" cy="-15" rx="1.8" ry="1.8"/>
</g>
<!-- (30, 0) -->
<g id="node35" class="node">
<title>(30, 0)</title>
<ellipse fill="black" stroke="black" cx="702.8" cy="-15" rx="1.8" ry="1.8"/>
</g>
<!-- (21, 0)&#45;&gt;(30, 0) -->
<g id="edge24" class="edge">
<title>(21, 0)&#45;&gt;(30, 0)</title>
<path fill="none" stroke="blue" d="M665.13,-15C669.72,-15 690.09,-15 698.33,-15"/>
<polygon fill="blue" stroke="blue" points="700.46,-15 698.46,-16.13 699.46,-15 698.46,-15 698.46,-15 698.46,-15 699.46,-15 698.46,-13.88 700.46,-15 700.46,-15"/>
</g>
<!-- (22, 0)&#45;&gt;(18, 0) -->
<g id="edge25" class="edge">
<title>(22, 0)&#45;&gt;(18, 0)</title>
<path fill="none" stroke="blue" d="M619.68,-35.32C625.19,-36.97 650.33,-44.46 659.14,-47.09"/>
<polygon fill="blue" stroke="blue" points="661.31,-47.73 659.07,-48.24 660.35,-47.45 659.39,-47.16 659.39,-47.16 659.39,-47.16 660.35,-47.45 659.71,-46.08 661.31,-47.73 661.31,-47.73"/>
</g>
<!-- (22, 1) -->
<g id="node29" class="node">
<title>(22, 1)</title>
<ellipse fill="black" stroke="black" cx="617.6" cy="-50" rx="1.8" ry="1.8"/>
<text text-anchor="middle" x="613.3" y="-41.8" font-family="Helvetica,sans-Serif" font-size="8.00">1</text>
</g>
<!-- (22, 1)&#45;&gt;(21, 0) -->
<g id="edge26" class="edge">
<title>(22, 1)&#45;&gt;(21, 0)</title>
<path fill="none" stroke="blue" d="M619.57,-49.67C622.25,-48.74 629.92,-45.89 635.4,-42 645.76,-34.65 655.69,-23.1 659.98,-17.81"/>
<polygon fill="blue" stroke="blue" points="661.29,-16.17 660.92,-18.43 660.67,-16.95 660.04,-17.73 660.04,-17.73 660.04,-17.73 660.67,-16.95 659.17,-17.03 661.29,-16.17 661.29,-16.17"/>
</g>
<!-- (23, 0) -->
<g id="node30" class="node">
<title>(23, 0)</title>
<ellipse fill="black" stroke="black" cx="573" cy="-52" rx="1.8" ry="1.8"/>
</g>
<!-- (23, 0)&#45;&gt;(22, 1) -->
<g id="edge27" class="edge">
<title>(23, 0)&#45;&gt;(22, 1)</title>
<path fill="none" stroke="blue" d="M575.05,-51.95C580.44,-51.7 605,-50.54 613.61,-50.14"/>
<polygon fill="blue" stroke="blue" points="615.73,-50.04 613.78,-51.26 614.73,-50.09 613.73,-50.13 613.73,-50.13 613.73,-50.13 614.73,-50.09 613.68,-49.01 615.73,-50.04 615.73,-50.04"/>
</g>
<!-- (24, 0)&#45;&gt;(23, 0) -->
<g id="edge28" class="edge">
<title>(24, 0)&#45;&gt;(23, 0)</title>
<path fill="none" stroke="blue" d="M531.43,-60.78C536.69,-59.64 560.68,-54.45 569.08,-52.63"/>
<polygon fill="blue" stroke="blue" points="571.15,-52.18 569.43,-53.71 570.17,-52.4 569.2,-52.61 569.2,-52.61 569.2,-52.61 570.17,-52.4 568.96,-51.51 571.15,-52.18 571.15,-52.18"/>
</g>
<!-- (24, 1)&#45;&gt;(20, 0) -->
<g id="edge29" class="edge">
<title>(24, 1)&#45;&gt;(20, 0)</title>
<path fill="none" stroke="blue" d="M531.43,-76.22C536.69,-77.36 560.68,-82.55 569.08,-84.37"/>
<polygon fill="blue" stroke="blue" points="571.15,-84.82 568.96,-85.49 570.17,-84.6 569.2,-84.39 569.2,-84.39 569.2,-84.39 570.17,-84.6 569.43,-83.29 571.15,-84.82 571.15,-84.82"/>
</g>
<!-- (31, 0) -->
<g id="node36" class="node">
<title>(31, 0)</title>
<ellipse fill="black" stroke="black" cx="702.8" cy="-85" rx="1.8" ry="1.8"/>
</g>
<!-- (28, 0)&#45;&gt;(31, 0) -->
<g id="edge30" class="edge">
<title>(28, 0)&#45;&gt;(31, 0)</title>
<path fill="none" stroke="blue" d="M665.13,-85C669.72,-85 690.09,-85 698.33,-85"/>
<polygon fill="blue" stroke="blue" points="700.46,-85 698.46,-86.13 699.46,-85 698.46,-85 698.46,-85 698.46,-85 699.46,-85 698.46,-83.88 700.46,-85 700.46,-85"/>
</g>
<!-- (32, 0) -->
<g id="node37" class="node">
<title>(32, 0)</title>
<ellipse fill="black" stroke="black" cx="738.4" cy="-48" rx="1.8" ry="1.8"/>
</g>
<!-- (29, 0)&#45;&gt;(32, 0) -->
<g id="edge31" class="edge">
<title>(29, 0)&#45;&gt;(32, 0)</title>
<path fill="none" stroke="blue" d="M704.63,-48C708.66,-48 726.31,-48 733.91,-48"/>
<polygon fill="blue" stroke="blue" points="736.2,-48 734.2,-49.13 735.2,-48 734.2,-48 734.2,-48 734.2,-48 735.2,-48 734.2,-46.88 736.2,-48 736.2,-48"/>
</g>
<!-- (33, 0) -->
<g id="node38" class="node">
<title>(33, 0)</title>
<ellipse fill="black" stroke="black" cx="738.4" cy="-15" rx="1.8" ry="1.8"/>
</g>
<!-- (30, 0)&#45;&gt;(33, 0) -->
<g id="edge32" class="edge">
<title>(30, 0)&#45;&gt;(33, 0)</title>
<path fill="none" stroke="blue" d="M704.63,-15C708.66,-15 726.31,-15 733.91,-15"/>
<polygon fill="blue" stroke="blue" points="736.2,-15 734.2,-16.13 735.2,-15 734.2,-15 734.2,-15 734.2,-15 735.2,-15 734.2,-13.88 736.2,-15 736.2,-15"/>
</g>
<!-- (34, 0) -->
<g id="node39" class="node">
<title>(34, 0)</title>
<ellipse fill="black" stroke="black" cx="738.4" cy="-85" rx="1.8" ry="1.8"/>
</g>
<!-- (31, 0)&#45;&gt;(34, 0) -->
<g id="edge33" class="edge">
<title>(31, 0)&#45;&gt;(34, 0)</title>
<path fill="none" stroke="blue" d="M704.63,-85C708.66,-85 726.31,-85 733.91,-85"/>
<polygon fill="blue" stroke="blue" points="736.2,-85 734.2,-86.13 735.2,-85 734.2,-85 734.2,-85 734.2,-85 735.2,-85 734.2,-83.88 736.2,-85 736.2,-85"/>
</g>
<!-- (35, 0) -->
<g id="node40" class="node">
<title>(35, 0)</title>
<ellipse fill="black" stroke="black" cx="774" cy="-48" rx="1.8" ry="1.8"/>
</g>
<!-- (32, 0)&#45;&gt;(35, 0) -->
<g id="edge34" class="edge">
<title>(32, 0)&#45;&gt;(35, 0)</title>
<path fill="none" stroke="blue" d="M740.23,-48C744.26,-48 761.91,-48 769.51,-48"/>
<polygon fill="blue" stroke="blue" points="771.8,-48 769.8,-49.13 770.8,-48 769.8,-48 769.8,-48 769.8,-48 770.8,-48 769.8,-46.88 771.8,-48 771.8,-48"/>
</g>
<!-- (36, 0) -->
<g id="node41" class="node">
<title>(36, 0)</title>
<ellipse fill="black" stroke="black" cx="774" cy="-15" rx="1.8" ry="1.8"/>
</g>
<!-- (33, 0)&#45;&gt;(36, 0) -->
<g id="edge35" class="edge">
<title>(33, 0)&#45;&gt;(36, 0)</title>
<path fill="none" stroke="blue" d="M740.23,-15C744.26,-15 761.91,-15 769.51,-15"/>
<polygon fill="blue" stroke="blue" points="771.8,-15 769.8,-16.13 770.8,-15 769.8,-15 769.8,-15 769.8,-15 770.8,-15 769.8,-13.88 771.8,-15 771.8,-15"/>
</g>
<!-- (37, 0) -->
<g id="node42" class="node">
<title>(37, 0)</title>
<ellipse fill="black" stroke="black" cx="774" cy="-85" rx="1.8" ry="1.8"/>
</g>
<!-- (34, 0)&#45;&gt;(37, 0) -->
<g id="edge36" class="edge">
<title>(34, 0)&#45;&gt;(37, 0)</title>
<path fill="none" stroke="blue" d="M740.23,-85C744.26,-85 761.91,-85 769.51,-85"/>
<polygon fill="blue" stroke="blue" points="771.8,-85 769.8,-86.13 770.8,-85 769.8,-85 769.8,-85 769.8,-85 770.8,-85 769.8,-83.88 771.8,-85 771.8,-85"/>
</g>
<!-- (38, 0) -->
<g id="node43" class="node">
<title>(38, 0)</title>
<ellipse fill="black" stroke="black" cx="808.6" cy="-48" rx="1.8" ry="1.8"/>
</g>
<!-- (35, 0)&#45;&gt;(38, 0) -->
<g id="edge37" class="edge">
<title>(35, 0)&#45;&gt;(38, 0)</title>
<path fill="none" stroke="blue" d="M775.81,-48C779.72,-48 796.84,-48 804.21,-48"/>
<polygon fill="blue" stroke="blue" points="806.44,-48 804.44,-49.13 805.44,-48 804.44,-48 804.44,-48 804.44,-48 805.44,-48 804.44,-46.88 806.44,-48 806.44,-48"/>
</g>
<!-- (39, 0) -->
<g id="node44" class="node">
<title>(39, 0)</title>
<ellipse fill="black" stroke="black" cx="808.6" cy="-15" rx="1.8" ry="1.8"/>
</g>
<!-- (36, 0)&#45;&gt;(39, 0) -->
<g id="edge38" class="edge">
<title>(36, 0)&#45;&gt;(39, 0)</title>
<path fill="none" stroke="blue" d="M775.81,-15C779.72,-15 796.84,-15 804.21,-15"/>
<polygon fill="blue" stroke="blue" points="806.44,-15 804.44,-16.13 805.44,-15 804.44,-15 804.44,-15 804.44,-15 805.44,-15 804.44,-13.88 806.44,-15 806.44,-15"/>
</g>
<!-- (37, 0)&#45;&gt;(25, 0) -->
<g id="edge39" class="edge">
<title>(37, 0)&#45;&gt;(25, 0)</title>
<path fill="none" stroke="blue" d="M776.15,-84.9C781.34,-84.41 803.15,-82.01 819.4,-75 825.18,-72.5 831.09,-68.07 834.43,-65.35"/>
<polygon fill="blue" stroke="blue" points="836.31,-63.78 835.5,-65.93 835.54,-64.43 834.77,-65.07 834.77,-65.07 834.77,-65.07 835.54,-64.43 834.05,-64.2 836.31,-63.78 836.31,-63.78"/>
</g>
<!-- (38, 0)&#45;&gt;(26, 0) -->
<g id="edge40" class="edge">
<title>(38, 0)&#45;&gt;(26, 0)</title>
<path fill="none" stroke="blue" d="M810.79,-48C814.83,-48 828.17,-48 834.19,-48"/>
<polygon fill="blue" stroke="blue" points="836.28,-48 834.28,-49.13 835.28,-48 834.28,-48 834.28,-48 834.28,-48 835.28,-48 834.28,-46.88 836.28,-48 836.28,-48"/>
</g>
<!-- (39, 0)&#45;&gt;(27, 0) -->
<g id="edge41" class="edge">
<title>(39, 0)&#45;&gt;(27, 0)</title>
<path fill="none" stroke="blue" d="M810.79,-15.77C814.9,-18.46 828.64,-27.42 834.51,-31.25"/>
<polygon fill="blue" stroke="blue" points="836.28,-32.4 833.99,-32.25 835.44,-31.85 834.61,-31.31 834.61,-31.31 834.61,-31.31 835.44,-31.85 835.22,-30.37 836.28,-32.4 836.28,-32.4"/>
</g>
</g>
</svg>
