<?xml version="1.0" encoding="UTF-8" standalone="no"?>
<!DOCTYPE svg PUBLIC "-//W3C//DTD SVG 1.1//EN"
 "http://www.w3.org/Graphics/SVG/1.1/DTD/svg11.dtd">
<!-- Generated by graphviz version 6.0.1 (20220911.1526)
 -->
<!-- Title: G Pages: 1 -->
<svg width="464pt" height="219pt"
 viewBox="0.00 0.00 464.08 219.20" xmlns="http://www.w3.org/2000/svg" xmlns:xlink="http://www.w3.org/1999/xlink">
<g id="graph0" class="graph" transform="scale(1 1) rotate(0) translate(4 215.2)">
<title>G</title>
<polygon fill="white" stroke="none" points="-4,4 -4,-215.2 460.08,-215.2 460.08,4 -4,4"/>
<!-- 0 -->
<g id="node1" class="node">
<title>0</title>
<g id="a_node1"><a xlink:title="Q&#45;Input">
<ellipse fill="white" stroke="black" stroke-width="3" stroke-dasharray="5,2" cx="48.75" cy="-65.2" rx="38.19" ry="38.19"/>
<text text-anchor="middle" x="48.75" y="-61.5" font-family="Times,serif" font-size="14.00">Q&#45;Input</text>
</a>
</g>
<text text-anchor="start" x="3.4" y="-15.65" font-family="Times,serif" font-size="14.00" fill="grey">0</text>
</g>
<!-- 2 -->
<g id="node3" class="node">
<title>2</title>
<g id="a_node3"><a xlink:title="Q&#45;Z(0.0)">
<ellipse fill="green" stroke="black" stroke-width="3" cx="151.49" cy="-65.2" rx="18" ry="18"/>
</a>
</g>
<text text-anchor="start" x="126.49" y="-36" font-family="Times,serif" font-size="14.00" fill="grey">2</text>
</g>
<!-- 0&#45;&#45;2 -->
<g id="edge1" class="edge">
<title>0&#45;&#45;2</title>
<path fill="none" stroke="black" stroke-width="3" d="M87.26,-65.2C103.04,-65.2 120.62,-65.2 133.23,-65.2"/>
</g>
<!-- 1 -->
<g id="node2" class="node">
<title>1</title>
<g id="a_node2"><a xlink:title="Q&#45;Output">
<ellipse fill="white" stroke="black" stroke-width="3" stroke-dasharray="5,2" cx="402.79" cy="-59.2" rx="44.39" ry="44.39"/>
<text text-anchor="middle" x="402.79" y="-55.5" font-family="Times,serif" font-size="14.00">Q&#45;Output</text>
</a>
</g>
<text text-anchor="start" x="351.59" y="-3.8" font-family="Times,serif" font-size="14.00" fill="grey">1</text>
</g>
<!-- 4 -->
<g id="node5" class="node">
<title>4</title>
<g id="a_node5"><a xlink:title="C&#45;X(0.0)">
<ellipse fill="red" stroke="black" cx="223.49" cy="-79.2" rx="18" ry="18"/>
</a>
</g>
<text text-anchor="start" x="198.49" y="-50" font-family="Times,serif" font-size="14.00" fill="grey">4</text>
</g>
<!-- 2&#45;&#45;4 -->
<g id="edge2" class="edge">
<title>2&#45;&#45;4</title>
<path fill="none" stroke="black" stroke-width="3" d="M169.44,-68.59C180.44,-70.79 194.73,-73.64 205.7,-75.84"/>
</g>
<!-- 3 -->
<g id="node4" class="node">
<title>3</title>
<g id="a_node4"><a xlink:title="C&#45;Z(0.0)">
<ellipse fill="green" stroke="black" cx="48.75" cy="-193.2" rx="18" ry="18"/>
</a>
</g>
<text text-anchor="start" x="23.75" y="-164" font-family="Times,serif" font-size="14.00" fill="grey">3</text>
</g>
<!-- 5 -->
<g id="node6" class="node">
<title>5</title>
<g id="a_node6"><a xlink:title="Q&#45;Z(0.0)">
<ellipse fill="green" stroke="black" stroke-width="3" cx="295.49" cy="-59.2" rx="18" ry="18"/>
</a>
</g>
<text text-anchor="start" x="270.49" y="-30" font-family="Times,serif" font-size="14.00" fill="grey">5</text>
</g>
<!-- 4&#45;&#45;5 -->
<g id="edge4" class="edge">
<title>4&#45;&#45;5</title>
<path fill="none" stroke="black" stroke-width="3" d="M241.08,-74.46C252.24,-71.27 266.89,-67.08 278.02,-63.9"/>
</g>
<!-- 5&#45;&#45;1 -->
<g id="edge3" class="edge">
<title>5&#45;&#45;1</title>
<path fill="none" stroke="black" stroke-width="3" d="M313.88,-59.2C326.03,-59.2 342.81,-59.2 358.47,-59.2"/>
</g>
<!-- 5&#45;&#45;2 -->
<g id="edge5" class="edge">
<title>5&#45;&#45;2</title>
<path fill="none" stroke="black" stroke-width="3" d="M277.72,-55.9C259.8,-52.83 230.57,-49.17 205.49,-52.2 193.08,-53.7 179.37,-57.11 169.01,-60.06"/>
</g>
<!-- input_rank -->
<g id="node7" class="node">
<title>input_rank</title>
</g>
<!-- input_rank&#45;&#45;0 -->
<!-- output_rank -->
<g id="node8" class="node">
<title>output_rank</title>
</g>
<!-- input_rank&#45;&#45;output_rank -->
<!-- output_rank&#45;&#45;1 -->
</g>
</svg>
