<?xml version="1.0" encoding="UTF-8" standalone="no"?>
<!DOCTYPE svg PUBLIC "-//W3C//DTD SVG 1.1//EN"
 "http://www.w3.org/Graphics/SVG/1.1/DTD/svg11.dtd">
<!-- Generated by graphviz version 2.49.0 (20210828.1703)
 -->
<!-- Title: Circuit Pages: 1 -->
<svg width="858pt" height="130pt"
 viewBox="0.00 0.00 858.00 130.00" xmlns="http://www.w3.org/2000/svg" xmlns:xlink="http://www.w3.org/1999/xlink">
<g id="graph0" class="graph" transform="scale(1 1) rotate(0) translate(4 126)">
<title>Circuit</title>
<polygon fill="white" stroke="transparent" points="-4,4 -4,-126 854,-126 854,4 -4,4"/>
<g id="clust1" class="cluster">
<title>cluster_q_inputs</title>
<path fill="lightgrey" stroke="lightgrey" d="M19.53,-26C19.53,-26 24.07,-26 24.07,-26 26.33,-26 28.6,-28.27 28.6,-30.53 28.6,-30.53 28.6,-65.47 28.6,-65.47 28.6,-67.73 26.33,-70 24.07,-70 24.07,-70 19.53,-70 19.53,-70 17.27,-70 15,-67.73 15,-65.47 15,-65.47 15,-30.53 15,-30.53 15,-28.27 17.27,-26 19.53,-26"/>
</g>
<g id="clust3" class="cluster">
<title>cluster_q_outputs</title>
<path fill="lightgrey" stroke="lightgrey" d="M832.93,-26C832.93,-26 837.47,-26 837.47,-26 839.73,-26 842,-28.27 842,-30.53 842,-30.53 842,-65.47 842,-65.47 842,-67.73 839.73,-70 837.47,-70 837.47,-70 832.93,-70 832.93,-70 830.67,-70 828.4,-67.73 828.4,-65.47 828.4,-65.47 828.4,-30.53 828.4,-30.53 828.4,-28.27 830.67,-26 832.93,-26"/>
</g>
<g id="clust5" class="cluster">
<title>cluster_3</title>
<path fill="lightblue" stroke="lightblue" d="M48.47,-41C48.47,-41 56.33,-41 56.33,-41 60.27,-41 64.2,-44.93 64.2,-48.87 64.2,-48.87 64.2,-66.13 64.2,-66.13 64.2,-70.07 60.27,-74 56.33,-74 56.33,-74 48.47,-74 48.47,-74 44.53,-74 40.6,-70.07 40.6,-66.13 40.6,-66.13 40.6,-48.87 40.6,-48.87 40.6,-44.93 44.53,-41 48.47,-41"/>
<text text-anchor="middle" x="52.4" y="-62" font-family="Times,serif" font-size="10.00">H</text>
</g>
<g id="clust6" class="cluster">
<title>cluster_4</title>
<path fill="lightblue" stroke="lightblue" d="M87.2,-41C87.2,-41 116.8,-41 116.8,-41 122.3,-41 127.8,-46.5 127.8,-52 127.8,-52 127.8,-63 127.8,-63 127.8,-68.5 122.3,-74 116.8,-74 116.8,-74 87.2,-74 87.2,-74 81.7,-74 76.2,-68.5 76.2,-63 76.2,-63 76.2,-52 76.2,-52 76.2,-46.5 81.7,-41 87.2,-41"/>
<text text-anchor="middle" x="102" y="-62" font-family="Times,serif" font-size="10.00">Rz(0.45)</text>
</g>
<g id="clust7" class="cluster">
<title>cluster_5</title>
<path fill="lightblue" stroke="lightblue" d="M147.67,-41C147.67,-41 155.53,-41 155.53,-41 159.47,-41 163.4,-44.93 163.4,-48.87 163.4,-48.87 163.4,-66.13 163.4,-66.13 163.4,-70.07 159.47,-74 155.53,-74 155.53,-74 147.67,-74 147.67,-74 143.73,-74 139.8,-70.07 139.8,-66.13 139.8,-66.13 139.8,-48.87 139.8,-48.87 139.8,-44.93 143.73,-41 147.67,-41"/>
<text text-anchor="middle" x="151.6" y="-62" font-family="Times,serif" font-size="10.00">H</text>
</g>
<g id="clust8" class="cluster">
<title>cluster_6</title>
<path fill="lightblue" stroke="lightblue" d="M186.4,-78C186.4,-78 211,-78 211,-78 216.5,-78 222,-83.5 222,-89 222,-89 222,-100 222,-100 222,-105.5 216.5,-111 211,-111 211,-111 186.4,-111 186.4,-111 180.9,-111 175.4,-105.5 175.4,-100 175.4,-100 175.4,-89 175.4,-89 175.4,-83.5 180.9,-78 186.4,-78"/>
<text text-anchor="middle" x="198.7" y="-99" font-family="Times,serif" font-size="10.00">Rz(0.2)</text>
</g>
<g id="clust9" class="cluster">
<title>cluster_7</title>
<path fill="lightblue" stroke="lightblue" d="M194.27,-43C194.27,-43 202.13,-43 202.13,-43 206.07,-43 210,-46.93 210,-50.87 210,-50.87 210,-68.13 210,-68.13 210,-72.07 206.07,-76 202.13,-76 202.13,-76 194.27,-76 194.27,-76 190.33,-76 186.4,-72.07 186.4,-68.13 186.4,-68.13 186.4,-50.87 186.4,-50.87 186.4,-46.93 190.33,-43 194.27,-43"/>
<text text-anchor="middle" x="198.2" y="-64" font-family="Times,serif" font-size="10.00">H</text>
</g>
<g id="clust10" class="cluster">
<title>cluster_8</title>
<path fill="lightblue" stroke="lightblue" d="M244.87,-78C244.87,-78 252.73,-78 252.73,-78 256.67,-78 260.6,-81.93 260.6,-85.87 260.6,-85.87 260.6,-103.13 260.6,-103.13 260.6,-107.07 256.67,-111 252.73,-111 252.73,-111 244.87,-111 244.87,-111 240.93,-111 237,-107.07 237,-103.13 237,-103.13 237,-85.87 237,-85.87 237,-81.93 240.93,-78 244.87,-78"/>
<text text-anchor="middle" x="248.8" y="-99" font-family="Times,serif" font-size="10.00">V</text>
</g>
<g id="clust11" class="cluster">
<title>cluster_9</title>
<path fill="lightblue" stroke="lightblue" d="M287.8,-78C287.8,-78 295,-78 295,-78 298.6,-78 302.2,-81.6 302.2,-85.2 302.2,-85.2 302.2,-103.8 302.2,-103.8 302.2,-107.4 298.6,-111 295,-111 295,-111 287.8,-111 287.8,-111 284.2,-111 280.6,-107.4 280.6,-103.8 280.6,-103.8 280.6,-85.2 280.6,-85.2 280.6,-81.6 284.2,-78 287.8,-78"/>
<text text-anchor="middle" x="291.4" y="-99" font-family="Times,serif" font-size="10.00">S</text>
</g>
<g id="clust12" class="cluster">
<title>cluster_10</title>
<path fill="lightblue" stroke="lightblue" d="M194.6,-10C194.6,-10 201.8,-10 201.8,-10 205.4,-10 209,-13.6 209,-17.2 209,-17.2 209,-35.8 209,-35.8 209,-39.4 205.4,-43 201.8,-43 201.8,-43 194.6,-43 194.6,-43 191,-43 187.4,-39.4 187.4,-35.8 187.4,-35.8 187.4,-17.2 187.4,-17.2 187.4,-13.6 191,-10 194.6,-10"/>
<text text-anchor="middle" x="198.2" y="-31" font-family="Times,serif" font-size="10.00">S</text>
</g>
<g id="clust13" class="cluster">
<title>cluster_11</title>
<path fill="lightblue" stroke="lightblue" d="M243.87,-20C243.87,-20 253.73,-20 253.73,-20 258.67,-20 263.6,-24.93 263.6,-29.87 263.6,-29.87 263.6,-58.13 263.6,-58.13 263.6,-63.07 258.67,-68 253.73,-68 253.73,-68 243.87,-68 243.87,-68 238.93,-68 234,-63.07 234,-58.13 234,-58.13 234,-29.87 234,-29.87 234,-24.93 238.93,-20 243.87,-20"/>
<text text-anchor="middle" x="248.8" y="-56" font-family="Times,serif" font-size="10.00">CX</text>
</g>
<g id="clust14" class="cluster">
<title>cluster_12</title>
<path fill="lightblue" stroke="lightblue" d="M286.13,-45C286.13,-45 296.67,-45 296.67,-45 301.93,-45 307.2,-50.27 307.2,-55.53 307.2,-55.53 307.2,-67.47 307.2,-67.47 307.2,-72.73 301.93,-78 296.67,-78 296.67,-78 286.13,-78 286.13,-78 280.87,-78 275.6,-72.73 275.6,-67.47 275.6,-67.47 275.6,-55.53 275.6,-55.53 275.6,-50.27 280.87,-45 286.13,-45"/>
<text text-anchor="middle" x="291.4" y="-66" font-family="Times,serif" font-size="10.00">Sdg</text>
</g>
<g id="clust15" class="cluster">
<title>cluster_13</title>
<path fill="lightblue" stroke="lightblue" d="M329.07,-54C329.07,-54 338.93,-54 338.93,-54 343.87,-54 348.8,-58.93 348.8,-63.87 348.8,-63.87 348.8,-92.13 348.8,-92.13 348.8,-97.07 343.87,-102 338.93,-102 338.93,-102 329.07,-102 329.07,-102 324.13,-102 319.2,-97.07 319.2,-92.13 319.2,-92.13 319.2,-63.87 319.2,-63.87 319.2,-58.93 324.13,-54 329.07,-54"/>
<text text-anchor="middle" x="334" y="-90" font-family="Times,serif" font-size="10.00">CX</text>
</g>
<g id="clust16" class="cluster">
<title>cluster_14</title>
<path fill="lightblue" stroke="lightblue" d="M371.8,-81C371.8,-81 396.4,-81 396.4,-81 401.9,-81 407.4,-86.5 407.4,-92 407.4,-92 407.4,-103 407.4,-103 407.4,-108.5 401.9,-114 396.4,-114 396.4,-114 371.8,-114 371.8,-114 366.3,-114 360.8,-108.5 360.8,-103 360.8,-103 360.8,-92 360.8,-92 360.8,-86.5 366.3,-81 371.8,-81"/>
<text text-anchor="middle" x="384.1" y="-102" font-family="Times,serif" font-size="10.00">Rz(3.4)</text>
</g>
<g id="clust17" class="cluster">
<title>cluster_15</title>
<path fill="lightblue" stroke="lightblue" d="M379.67,-46C379.67,-46 387.53,-46 387.53,-46 391.47,-46 395.4,-49.93 395.4,-53.87 395.4,-53.87 395.4,-71.13 395.4,-71.13 395.4,-75.07 391.47,-79 387.53,-79 387.53,-79 379.67,-79 379.67,-79 375.73,-79 371.8,-75.07 371.8,-71.13 371.8,-71.13 371.8,-53.87 371.8,-53.87 371.8,-49.93 375.73,-46 379.67,-46"/>
<text text-anchor="middle" x="383.6" y="-67" font-family="Times,serif" font-size="10.00">H</text>
</g>
<g id="clust18" class="cluster">
<title>cluster_16</title>
<path fill="lightblue" stroke="lightblue" d="M430.4,-45C430.4,-45 455,-45 455,-45 460.5,-45 466,-50.5 466,-56 466,-56 466,-67 466,-67 466,-72.5 460.5,-78 455,-78 455,-78 430.4,-78 430.4,-78 424.9,-78 419.4,-72.5 419.4,-67 419.4,-67 419.4,-56 419.4,-56 419.4,-50.5 424.9,-45 430.4,-45"/>
<text text-anchor="middle" x="442.7" y="-66" font-family="Times,serif" font-size="10.00">Rz(0.8)</text>
</g>
<g id="clust19" class="cluster">
<title>cluster_17</title>
<path fill="lightblue" stroke="lightblue" d="M485.87,-45C485.87,-45 493.73,-45 493.73,-45 497.67,-45 501.6,-48.93 501.6,-52.87 501.6,-52.87 501.6,-70.13 501.6,-70.13 501.6,-74.07 497.67,-78 493.73,-78 493.73,-78 485.87,-78 485.87,-78 481.93,-78 478,-74.07 478,-70.13 478,-70.13 478,-52.87 478,-52.87 478,-48.93 481.93,-45 485.87,-45"/>
<text text-anchor="middle" x="489.8" y="-66" font-family="Times,serif" font-size="10.00">H</text>
</g>
<g id="clust20" class="cluster">
<title>cluster_18</title>
<path fill="lightblue" stroke="lightblue" d="M656.27,-41C656.27,-41 664.13,-41 664.13,-41 668.07,-41 672,-44.93 672,-48.87 672,-48.87 672,-66.13 672,-66.13 672,-70.07 668.07,-74 664.13,-74 664.13,-74 656.27,-74 656.27,-74 652.33,-74 648.4,-70.07 648.4,-66.13 648.4,-66.13 648.4,-48.87 648.4,-48.87 648.4,-44.93 652.33,-41 656.27,-41"/>
<text text-anchor="middle" x="660.2" y="-62" font-family="Times,serif" font-size="10.00">H</text>
</g>
<g id="clust21" class="cluster">
<title>cluster_19</title>
<path fill="lightblue" stroke="lightblue" d="M609.8,-78C609.8,-78 621.4,-78 621.4,-78 626.9,-78 632.4,-83.5 632.4,-89 632.4,-89 632.4,-100 632.4,-100 632.4,-105.5 626.9,-111 621.4,-111 621.4,-111 609.8,-111 609.8,-111 604.3,-111 598.8,-105.5 598.8,-100 598.8,-100 598.8,-89 598.8,-89 598.8,-83.5 604.3,-78 609.8,-78"/>
<text text-anchor="middle" x="615.6" y="-99" font-family="Times,serif" font-size="10.00">Vdg</text>
</g>
<g id="clust22" class="cluster">
<title>cluster_20</title>
<path fill="lightblue" stroke="lightblue" d="M565.73,-78C565.73,-78 576.27,-78 576.27,-78 581.53,-78 586.8,-83.27 586.8,-88.53 586.8,-88.53 586.8,-100.47 586.8,-100.47 586.8,-105.73 581.53,-111 576.27,-111 576.27,-111 565.73,-111 565.73,-111 560.47,-111 555.2,-105.73 555.2,-100.47 555.2,-100.47 555.2,-88.53 555.2,-88.53 555.2,-83.27 560.47,-78 565.73,-78"/>
<text text-anchor="middle" x="571" y="-99" font-family="Times,serif" font-size="10.00">Sdg</text>
</g>
<g id="clust23" class="cluster">
<title>cluster_21</title>
<path fill="lightblue" stroke="lightblue" d="M654.93,-8C654.93,-8 665.47,-8 665.47,-8 670.73,-8 676,-13.27 676,-18.53 676,-18.53 676,-30.47 676,-30.47 676,-35.73 670.73,-41 665.47,-41 665.47,-41 654.93,-41 654.93,-41 649.67,-41 644.4,-35.73 644.4,-30.47 644.4,-30.47 644.4,-18.53 644.4,-18.53 644.4,-13.27 649.67,-8 654.93,-8"/>
<text text-anchor="middle" x="660.2" y="-29" font-family="Times,serif" font-size="10.00">Sdg</text>
</g>
<g id="clust24" class="cluster">
<title>cluster_22</title>
<path fill="lightblue" stroke="lightblue" d="M610.67,-28C610.67,-28 620.53,-28 620.53,-28 625.47,-28 630.4,-32.93 630.4,-37.87 630.4,-37.87 630.4,-66.13 630.4,-66.13 630.4,-71.07 625.47,-76 620.53,-76 620.53,-76 610.67,-76 610.67,-76 605.73,-76 600.8,-71.07 600.8,-66.13 600.8,-66.13 600.8,-37.87 600.8,-37.87 600.8,-32.93 605.73,-28 610.67,-28"/>
<text text-anchor="middle" x="615.6" y="-64" font-family="Times,serif" font-size="10.00">CX</text>
</g>
<g id="clust25" class="cluster">
<title>cluster_23</title>
<path fill="lightblue" stroke="lightblue" d="M567.4,-45C567.4,-45 574.6,-45 574.6,-45 578.2,-45 581.8,-48.6 581.8,-52.2 581.8,-52.2 581.8,-70.8 581.8,-70.8 581.8,-74.4 578.2,-78 574.6,-78 574.6,-78 567.4,-78 567.4,-78 563.8,-78 560.2,-74.4 560.2,-70.8 560.2,-70.8 560.2,-52.2 560.2,-52.2 560.2,-48.6 563.8,-45 567.4,-45"/>
<text text-anchor="middle" x="571" y="-66" font-family="Times,serif" font-size="10.00">S</text>
</g>
<g id="clust26" class="cluster">
<title>cluster_24</title>
<path fill="lightblue" stroke="lightblue" d="M523.47,-54C523.47,-54 533.33,-54 533.33,-54 538.27,-54 543.2,-58.93 543.2,-63.87 543.2,-63.87 543.2,-92.13 543.2,-92.13 543.2,-97.07 538.27,-102 533.33,-102 533.33,-102 523.47,-102 523.47,-102 518.53,-102 513.6,-97.07 513.6,-92.13 513.6,-92.13 513.6,-63.87 513.6,-63.87 513.6,-58.93 518.53,-54 523.47,-54"/>
<text text-anchor="middle" x="528.4" y="-90" font-family="Times,serif" font-size="10.00">CX</text>
</g>
<g id="clust27" class="cluster">
<title>cluster_28</title>
<path fill="lightblue" stroke="lightblue" d="M656.27,-78C656.27,-78 664.13,-78 664.13,-78 668.07,-78 672,-81.93 672,-85.87 672,-85.87 672,-103.13 672,-103.13 672,-107.07 668.07,-111 664.13,-111 664.13,-111 656.27,-111 656.27,-111 652.33,-111 648.4,-107.07 648.4,-103.13 648.4,-103.13 648.4,-85.87 648.4,-85.87 648.4,-81.93 652.33,-78 656.27,-78"/>
<text text-anchor="middle" x="660.2" y="-99" font-family="Times,serif" font-size="10.00">V</text>
</g>
<g id="clust28" class="cluster">
<title>cluster_29</title>
<path fill="lightblue" stroke="lightblue" d="M695.87,-41C695.87,-41 703.73,-41 703.73,-41 707.67,-41 711.6,-44.93 711.6,-48.87 711.6,-48.87 711.6,-66.13 711.6,-66.13 711.6,-70.07 707.67,-74 703.73,-74 703.73,-74 695.87,-74 695.87,-74 691.93,-74 688,-70.07 688,-66.13 688,-66.13 688,-48.87 688,-48.87 688,-44.93 691.93,-41 695.87,-41"/>
<text text-anchor="middle" x="699.8" y="-62" font-family="Times,serif" font-size="10.00">V</text>
</g>
<g id="clust29" class="cluster">
<title>cluster_30</title>
<path fill="lightblue" stroke="lightblue" d="M695.87,-8C695.87,-8 703.73,-8 703.73,-8 707.67,-8 711.6,-11.93 711.6,-15.87 711.6,-15.87 711.6,-33.13 711.6,-33.13 711.6,-37.07 707.67,-41 703.73,-41 703.73,-41 695.87,-41 695.87,-41 691.93,-41 688,-37.07 688,-33.13 688,-33.13 688,-15.87 688,-15.87 688,-11.93 691.93,-8 695.87,-8"/>
<text text-anchor="middle" x="699.8" y="-29" font-family="Times,serif" font-size="10.00">V</text>
</g>
<g id="clust30" class="cluster">
<title>cluster_31</title>
<path fill="lightblue" stroke="lightblue" d="M696.2,-78C696.2,-78 703.4,-78 703.4,-78 707,-78 710.6,-81.6 710.6,-85.2 710.6,-85.2 710.6,-103.8 710.6,-103.8 710.6,-107.4 707,-111 703.4,-111 703.4,-111 696.2,-111 696.2,-111 692.6,-111 689,-107.4 689,-103.8 689,-103.8 689,-85.2 689,-85.2 689,-81.6 692.6,-78 696.2,-78"/>
<text text-anchor="middle" x="699.8" y="-99" font-family="Times,serif" font-size="10.00">S</text>
</g>
<g id="clust31" class="cluster">
<title>cluster_32</title>
<path fill="lightblue" stroke="lightblue" d="M731.8,-41C731.8,-41 739,-41 739,-41 742.6,-41 746.2,-44.6 746.2,-48.2 746.2,-48.2 746.2,-66.8 746.2,-66.8 746.2,-70.4 742.6,-74 739,-74 739,-74 731.8,-74 731.8,-74 728.2,-74 724.6,-70.4 724.6,-66.8 724.6,-66.8 724.6,-48.2 724.6,-48.2 724.6,-44.6 728.2,-41 731.8,-41"/>
<text text-anchor="middle" x="735.4" y="-62" font-family="Times,serif" font-size="10.00">S</text>
</g>
<g id="clust32" class="cluster">
<title>cluster_33</title>
<path fill="lightblue" stroke="lightblue" d="M731.8,-8C731.8,-8 739,-8 739,-8 742.6,-8 746.2,-11.6 746.2,-15.2 746.2,-15.2 746.2,-33.8 746.2,-33.8 746.2,-37.4 742.6,-41 739,-41 739,-41 731.8,-41 731.8,-41 728.2,-41 724.6,-37.4 724.6,-33.8 724.6,-33.8 724.6,-15.2 724.6,-15.2 724.6,-11.6 728.2,-8 731.8,-8"/>
<text text-anchor="middle" x="735.4" y="-29" font-family="Times,serif" font-size="10.00">S</text>
</g>
<g id="clust33" class="cluster">
<title>cluster_34</title>
<path fill="lightblue" stroke="lightblue" d="M731.47,-78C731.47,-78 739.33,-78 739.33,-78 743.27,-78 747.2,-81.93 747.2,-85.87 747.2,-85.87 747.2,-103.13 747.2,-103.13 747.2,-107.07 743.27,-111 739.33,-111 739.33,-111 731.47,-111 731.47,-111 727.53,-111 723.6,-107.07 723.6,-103.13 723.6,-103.13 723.6,-85.87 723.6,-85.87 723.6,-81.93 727.53,-78 731.47,-78"/>
<text text-anchor="middle" x="735.4" y="-99" font-family="Times,serif" font-size="10.00">H</text>
</g>
<g id="clust34" class="cluster">
<title>cluster_35</title>
<path fill="lightblue" stroke="lightblue" d="M767.07,-41C767.07,-41 774.93,-41 774.93,-41 778.87,-41 782.8,-44.93 782.8,-48.87 782.8,-48.87 782.8,-66.13 782.8,-66.13 782.8,-70.07 778.87,-74 774.93,-74 774.93,-74 767.07,-74 767.07,-74 763.13,-74 759.2,-70.07 759.2,-66.13 759.2,-66.13 759.2,-48.87 759.2,-48.87 759.2,-44.93 763.13,-41 767.07,-41"/>
<text text-anchor="middle" x="771" y="-62" font-family="Times,serif" font-size="10.00">H</text>
</g>
<g id="clust35" class="cluster">
<title>cluster_36</title>
<path fill="lightblue" stroke="lightblue" d="M767.07,-8C767.07,-8 774.93,-8 774.93,-8 778.87,-8 782.8,-11.93 782.8,-15.87 782.8,-15.87 782.8,-33.13 782.8,-33.13 782.8,-37.07 778.87,-41 774.93,-41 774.93,-41 767.07,-41 767.07,-41 763.13,-41 759.2,-37.07 759.2,-33.13 759.2,-33.13 759.2,-15.87 759.2,-15.87 759.2,-11.93 763.13,-8 767.07,-8"/>
<text text-anchor="middle" x="771" y="-29" font-family="Times,serif" font-size="10.00">H</text>
</g>
<g id="clust36" class="cluster">
<title>cluster_37</title>
<path fill="lightblue" stroke="lightblue" d="M767.4,-78C767.4,-78 774.6,-78 774.6,-78 778.2,-78 781.8,-81.6 781.8,-85.2 781.8,-85.2 781.8,-103.8 781.8,-103.8 781.8,-107.4 778.2,-111 774.6,-111 774.6,-111 767.4,-111 767.4,-111 763.8,-111 760.2,-107.4 760.2,-103.8 760.2,-103.8 760.2,-85.2 760.2,-85.2 760.2,-81.6 763.8,-78 767.4,-78"/>
<text text-anchor="middle" x="771" y="-99" font-family="Times,serif" font-size="10.00">S</text>
</g>
<g id="clust37" class="cluster">
<title>cluster_38</title>
<path fill="lightblue" stroke="lightblue" d="M802,-41C802,-41 809.2,-41 809.2,-41 812.8,-41 816.4,-44.6 816.4,-48.2 816.4,-48.2 816.4,-66.8 816.4,-66.8 816.4,-70.4 812.8,-74 809.2,-74 809.2,-74 802,-74 802,-74 798.4,-74 794.8,-70.4 794.8,-66.8 794.8,-66.8 794.8,-48.2 794.8,-48.2 794.8,-44.6 798.4,-41 802,-41"/>
<text text-anchor="middle" x="805.6" y="-62" font-family="Times,serif" font-size="10.00">S</text>
</g>
<g id="clust38" class="cluster">
<title>cluster_39</title>
<path fill="lightblue" stroke="lightblue" d="M802,-8C802,-8 809.2,-8 809.2,-8 812.8,-8 816.4,-11.6 816.4,-15.2 816.4,-15.2 816.4,-33.8 816.4,-33.8 816.4,-37.4 812.8,-41 809.2,-41 809.2,-41 802,-41 802,-41 798.4,-41 794.8,-37.4 794.8,-33.8 794.8,-33.8 794.8,-15.2 794.8,-15.2 794.8,-11.6 798.4,-8 802,-8"/>
<text text-anchor="middle" x="805.6" y="-29" font-family="Times,serif" font-size="10.00">S</text>
</g>
<!-- (0, 0) -->
<g id="node1" class="node">
<title>(0, 0)</title>
<ellipse fill="blue" stroke="blue" cx="21.8" cy="-63" rx="1.8" ry="1.8"/>
<text text-anchor="middle" x="10" y="-54.8" font-family="Courier,monospace" font-size="8.00">q[0]</text>
</g>
<!-- (6, 0) -->
<g id="node10" class="node">
<title>(6, 0)</title>
<ellipse fill="black" stroke="black" cx="198.2" cy="-85" rx="1.8" ry="1.8"/>
</g>
<!-- (0, 0)&#45;&gt;(6, 0) -->
<g id="edge1" class="edge">
<title>(0, 0)&#45;&gt;(6, 0)</title>
<path fill="none" stroke="blue" d="M23.67,-63.84C26.1,-66.14 33.26,-72.5 40.6,-75 99.1,-94.94 176.91,-87.39 193.85,-85.42"/>
<polygon fill="blue" stroke="blue" points="196.17,-85.13 194.32,-86.49 195.17,-85.26 194.18,-85.38 194.18,-85.38 194.18,-85.38 195.17,-85.26 194.05,-84.26 196.17,-85.13 196.17,-85.13"/>
</g>
<!-- (1, 0) -->
<g id="node2" class="node">
<title>(1, 0)</title>
<ellipse fill="blue" stroke="blue" cx="21.8" cy="-48" rx="1.8" ry="1.8"/>
<text text-anchor="middle" x="10" y="-39.8" font-family="Courier,monospace" font-size="8.00">q[1]</text>
</g>
<!-- (3, 0) -->
<g id="node7" class="node">
<title>(3, 0)</title>
<ellipse fill="black" stroke="black" cx="52.4" cy="-48" rx="1.8" ry="1.8"/>
</g>
<!-- (1, 0)&#45;&gt;(3, 0) -->
<g id="edge2" class="edge">
<title>(1, 0)&#45;&gt;(3, 0)</title>
<path fill="none" stroke="blue" d="M24.03,-48C28.22,-48 42.04,-48 48.28,-48"/>
<polygon fill="blue" stroke="blue" points="50.45,-48 48.45,-49.13 49.45,-48 48.45,-48 48.45,-48 48.45,-48 49.45,-48 48.45,-46.88 50.45,-48 50.45,-48"/>
</g>
<!-- (2, 0) -->
<g id="node3" class="node">
<title>(2, 0)</title>
<ellipse fill="blue" stroke="blue" cx="21.8" cy="-33" rx="1.8" ry="1.8"/>
<text text-anchor="middle" x="10" y="-24.8" font-family="Courier,monospace" font-size="8.00">q[2]</text>
</g>
<!-- (10, 0) -->
<g id="node14" class="node">
<title>(10, 0)</title>
<ellipse fill="black" stroke="black" cx="198.2" cy="-17" rx="1.8" ry="1.8"/>
</g>
<!-- (2, 0)&#45;&gt;(10, 0) -->
<g id="edge3" class="edge">
<title>(2, 0)&#45;&gt;(10, 0)</title>
<path fill="none" stroke="blue" d="M23.91,-32.9C37.52,-31.65 171.57,-19.35 194.02,-17.29"/>
<polygon fill="blue" stroke="blue" points="196.19,-17.09 194.3,-18.4 195.19,-17.18 194.2,-17.28 194.2,-17.28 194.2,-17.28 195.19,-17.18 194.09,-16.16 196.19,-17.09 196.19,-17.09"/>
</g>
<!-- (25, 0) -->
<g id="node4" class="node">
<title>(25, 0)</title>
<ellipse fill="blue" stroke="blue" cx="835.2" cy="-63" rx="1.8" ry="1.8"/>
<text text-anchor="middle" x="823.4" y="-54.8" font-family="Courier,monospace" font-size="8.00">q[0]</text>
</g>
<!-- (26, 0) -->
<g id="node5" class="node">
<title>(26, 0)</title>
<ellipse fill="blue" stroke="blue" cx="835.2" cy="-48" rx="1.8" ry="1.8"/>
<text text-anchor="middle" x="823.4" y="-39.8" font-family="Courier,monospace" font-size="8.00">q[1]</text>
</g>
<!-- (27, 0) -->
<g id="node6" class="node">
<title>(27, 0)</title>
<ellipse fill="blue" stroke="blue" cx="835.2" cy="-33" rx="1.8" ry="1.8"/>
<text text-anchor="middle" x="823.4" y="-24.8" font-family="Courier,monospace" font-size="8.00">q[2]</text>
</g>
<!-- (4, 0) -->
<g id="node8" class="node">
<title>(4, 0)</title>
<ellipse fill="black" stroke="black" cx="102" cy="-48" rx="1.8" ry="1.8"/>
</g>
<!-- (3, 0)&#45;&gt;(4, 0) -->
<g id="edge4" class="edge">
<title>(3, 0)&#45;&gt;(4, 0)</title>
<path fill="none" stroke="blue" d="M54.23,-48C59.42,-48 87.63,-48 97.55,-48"/>
<polygon fill="blue" stroke="blue" points="99.99,-48 97.99,-49.13 98.99,-48 97.99,-48 97.99,-48 97.99,-48 98.99,-48 97.99,-46.88 99.99,-48 99.99,-48"/>
</g>
<!-- (5, 0) -->
<g id="node9" class="node">
<title>(5, 0)</title>
<ellipse fill="black" stroke="black" cx="151.6" cy="-48" rx="1.8" ry="1.8"/>
</g>
<!-- (4, 0)&#45;&gt;(5, 0) -->
<g id="edge5" class="edge">
<title>(4, 0)&#45;&gt;(5, 0)</title>
<path fill="none" stroke="blue" d="M103.83,-48C109.02,-48 137.23,-48 147.15,-48"/>
<polygon fill="blue" stroke="blue" points="149.59,-48 147.59,-49.13 148.59,-48 147.59,-48 147.59,-48 147.59,-48 148.59,-48 147.59,-46.88 149.59,-48 149.59,-48"/>
</g>
<!-- (7, 0) -->
<g id="node11" class="node">
<title>(7, 0)</title>
<ellipse fill="black" stroke="black" cx="198.2" cy="-50" rx="1.8" ry="1.8"/>
</g>
<!-- (5, 0)&#45;&gt;(7, 0) -->
<g id="edge6" class="edge">
<title>(5, 0)&#45;&gt;(7, 0)</title>
<path fill="none" stroke="blue" d="M153.7,-48.05C159.34,-48.3 185.06,-49.46 194.07,-49.86"/>
<polygon fill="blue" stroke="blue" points="196.29,-49.96 194.24,-50.99 195.29,-49.91 194.29,-49.87 194.29,-49.87 194.29,-49.87 195.29,-49.91 194.34,-48.75 196.29,-49.96 196.29,-49.96"/>
</g>
<!-- (8, 0) -->
<g id="node12" class="node">
<title>(8, 0)</title>
<ellipse fill="black" stroke="black" cx="248.8" cy="-85" rx="1.8" ry="1.8"/>
</g>
<!-- (6, 0)&#45;&gt;(8, 0) -->
<g id="edge7" class="edge">
<title>(6, 0)&#45;&gt;(8, 0)</title>
<path fill="none" stroke="blue" d="M200.04,-85C205.39,-85 234.65,-85 244.54,-85"/>
<polygon fill="blue" stroke="blue" points="246.77,-85 244.77,-86.13 245.77,-85 244.77,-85 244.77,-85 244.77,-85 245.77,-85 244.77,-83.88 246.77,-85 246.77,-85"/>
</g>
<!-- (11, 0) -->
<g id="node15" class="node">
<title>(11, 0)</title>
<ellipse fill="black" stroke="black" cx="248.8" cy="-42" rx="1.8" ry="1.8"/>
<text text-anchor="middle" x="244.5" y="-33.8" font-family="Helvetica,sans-Serif" font-size="8.00">0</text>
</g>
<!-- (7, 0)&#45;&gt;(11, 0) -->
<g id="edge8" class="edge">
<title>(7, 0)&#45;&gt;(11, 0)</title>
<path fill="none" stroke="blue" d="M200.04,-49.86C205.44,-48.97 235.15,-44.08 244.78,-42.5"/>
<polygon fill="blue" stroke="blue" points="246.77,-42.17 244.98,-43.6 245.79,-42.33 244.8,-42.49 244.8,-42.49 244.8,-42.49 245.79,-42.33 244.62,-41.38 246.77,-42.17 246.77,-42.17"/>
</g>
<!-- (9, 0) -->
<g id="node13" class="node">
<title>(9, 0)</title>
<ellipse fill="black" stroke="black" cx="291.4" cy="-85" rx="1.8" ry="1.8"/>
</g>
<!-- (8, 0)&#45;&gt;(9, 0) -->
<g id="edge9" class="edge">
<title>(8, 0)&#45;&gt;(9, 0)</title>
<path fill="none" stroke="blue" d="M250.8,-85C255.94,-85 279.35,-85 287.55,-85"/>
<polygon fill="blue" stroke="blue" points="289.57,-85 287.57,-86.13 288.57,-85 287.57,-85 287.57,-85 287.57,-85 288.57,-85 287.57,-83.88 289.57,-85 289.57,-85"/>
</g>
<!-- (13, 1) -->
<g id="node19" class="node">
<title>(13, 1)</title>
<ellipse fill="black" stroke="black" cx="334" cy="-76" rx="1.8" ry="1.8"/>
<text text-anchor="middle" x="329.7" y="-67.8" font-family="Helvetica,sans-Serif" font-size="8.00">1</text>
</g>
<!-- (9, 0)&#45;&gt;(13, 1) -->
<g id="edge10" class="edge">
<title>(9, 0)&#45;&gt;(13, 1)</title>
<path fill="none" stroke="blue" d="M293.4,-84.78C298.54,-83.64 321.95,-78.45 330.15,-76.63"/>
<polygon fill="blue" stroke="blue" points="332.17,-76.18 330.46,-77.72 331.19,-76.4 330.22,-76.62 330.22,-76.62 330.22,-76.62 331.19,-76.4 329.97,-75.52 332.17,-76.18 332.17,-76.18"/>
</g>
<!-- (11, 1) -->
<g id="node16" class="node">
<title>(11, 1)</title>
<ellipse fill="black" stroke="black" cx="248.8" cy="-27" rx="1.8" ry="1.8"/>
<text text-anchor="middle" x="244.5" y="-18.8" font-family="Helvetica,sans-Serif" font-size="8.00">1</text>
</g>
<!-- (10, 0)&#45;&gt;(11, 1) -->
<g id="edge11" class="edge">
<title>(10, 0)&#45;&gt;(11, 1)</title>
<path fill="none" stroke="blue" d="M200.04,-17.17C205.44,-18.28 235.15,-24.4 244.78,-26.38"/>
<polygon fill="blue" stroke="blue" points="246.77,-26.79 244.59,-27.49 245.79,-26.59 244.81,-26.39 244.81,-26.39 244.81,-26.39 245.79,-26.59 245.04,-25.28 246.77,-26.79 246.77,-26.79"/>
</g>
<!-- (22, 0) -->
<g id="node28" class="node">
<title>(22, 0)</title>
<ellipse fill="black" stroke="black" cx="615.6" cy="-35" rx="1.8" ry="1.8"/>
<text text-anchor="middle" x="611.3" y="-26.8" font-family="Helvetica,sans-Serif" font-size="8.00">0</text>
</g>
<!-- (11, 0)&#45;&gt;(22, 0) -->
<g id="edge13" class="edge">
<title>(11, 0)&#45;&gt;(22, 0)</title>
<path fill="none" stroke="blue" d="M250.62,-41.84C256.93,-40.65 298.71,-33 333,-33 333,-33 333,-33 529.4,-33 561.59,-33 600.6,-34.44 611.59,-34.88"/>
<polygon fill="blue" stroke="blue" points="613.76,-34.97 611.72,-36.01 612.76,-34.93 611.76,-34.89 611.76,-34.89 611.76,-34.89 612.76,-34.93 611.81,-33.76 613.76,-34.97 613.76,-34.97"/>
</g>
<!-- (12, 0) -->
<g id="node17" class="node">
<title>(12, 0)</title>
<ellipse fill="black" stroke="black" cx="291.4" cy="-52" rx="1.8" ry="1.8"/>
</g>
<!-- (11, 1)&#45;&gt;(12, 0) -->
<g id="edge12" class="edge">
<title>(11, 1)&#45;&gt;(12, 0)</title>
<path fill="none" stroke="blue" d="M250.55,-27.42C252.64,-28.6 258.68,-32.01 263.6,-35 272.5,-40.4 282.87,-47.09 287.68,-50.23"/>
<polygon fill="blue" stroke="blue" points="289.39,-51.34 287.1,-51.19 288.55,-50.79 287.71,-50.24 287.71,-50.24 287.71,-50.24 288.55,-50.79 288.33,-49.3 289.39,-51.34 289.39,-51.34"/>
</g>
<!-- (13, 0) -->
<g id="node18" class="node">
<title>(13, 0)</title>
<ellipse fill="black" stroke="black" cx="334" cy="-61" rx="1.8" ry="1.8"/>
<text text-anchor="middle" x="329.7" y="-52.8" font-family="Helvetica,sans-Serif" font-size="8.00">0</text>
</g>
<!-- (12, 0)&#45;&gt;(13, 0) -->
<g id="edge14" class="edge">
<title>(12, 0)&#45;&gt;(13, 0)</title>
<path fill="none" stroke="blue" d="M293.4,-52.22C298.54,-53.36 321.95,-58.55 330.15,-60.37"/>
<polygon fill="blue" stroke="blue" points="332.17,-60.82 329.97,-61.48 331.19,-60.6 330.22,-60.38 330.22,-60.38 330.22,-60.38 331.19,-60.6 330.46,-59.28 332.17,-60.82 332.17,-60.82"/>
</g>
<!-- (15, 0) -->
<g id="node21" class="node">
<title>(15, 0)</title>
<ellipse fill="black" stroke="black" cx="383.6" cy="-53" rx="1.8" ry="1.8"/>
</g>
<!-- (13, 0)&#45;&gt;(15, 0) -->
<g id="edge15" class="edge">
<title>(13, 0)&#45;&gt;(15, 0)</title>
<path fill="none" stroke="blue" d="M335.83,-60.86C341.02,-59.99 369.23,-55.25 379.15,-53.58"/>
<polygon fill="blue" stroke="blue" points="381.59,-53.17 379.81,-54.61 380.61,-53.33 379.62,-53.5 379.62,-53.5 379.62,-53.5 380.61,-53.33 379.44,-52.39 381.59,-53.17 381.59,-53.17"/>
</g>
<!-- (14, 0) -->
<g id="node20" class="node">
<title>(14, 0)</title>
<ellipse fill="black" stroke="black" cx="383.6" cy="-88" rx="1.8" ry="1.8"/>
</g>
<!-- (13, 1)&#45;&gt;(14, 0) -->
<g id="edge16" class="edge">
<title>(13, 1)&#45;&gt;(14, 0)</title>
<path fill="none" stroke="blue" d="M335.83,-76.21C341.11,-77.54 370.21,-84.88 379.65,-87.26"/>
<polygon fill="blue" stroke="blue" points="381.59,-87.75 379.38,-88.35 380.63,-87.5 379.66,-87.26 379.66,-87.26 379.66,-87.26 380.63,-87.5 379.93,-86.17 381.59,-87.75 381.59,-87.75"/>
</g>
<!-- (24, 1) -->
<g id="node32" class="node">
<title>(24, 1)</title>
<ellipse fill="black" stroke="black" cx="528.4" cy="-76" rx="1.8" ry="1.8"/>
<text text-anchor="middle" x="524.1" y="-67.8" font-family="Helvetica,sans-Serif" font-size="8.00">1</text>
</g>
<!-- (14, 0)&#45;&gt;(24, 1) -->
<g id="edge17" class="edge">
<title>(14, 0)&#45;&gt;(24, 1)</title>
<path fill="none" stroke="blue" d="M385.75,-87.93C394.69,-87.37 453.74,-83.62 501.6,-79 509.78,-78.21 519.39,-77.02 524.25,-76.41"/>
<polygon fill="blue" stroke="blue" points="526.42,-76.13 524.58,-77.5 525.43,-76.26 524.43,-76.38 524.43,-76.38 524.43,-76.38 525.43,-76.26 524.29,-75.27 526.42,-76.13 526.42,-76.13"/>
</g>
<!-- (16, 0) -->
<g id="node22" class="node">
<title>(16, 0)</title>
<ellipse fill="black" stroke="black" cx="442.2" cy="-52" rx="1.8" ry="1.8"/>
</g>
<!-- (15, 0)&#45;&gt;(16, 0) -->
<g id="edge18" class="edge">
<title>(15, 0)&#45;&gt;(16, 0)</title>
<path fill="none" stroke="blue" d="M385.58,-52.98C391.97,-52.87 427.67,-52.24 438.25,-52.05"/>
<polygon fill="blue" stroke="blue" points="440.36,-52.01 438.38,-53.18 439.36,-52.03 438.36,-52.05 438.36,-52.05 438.36,-52.05 439.36,-52.03 438.34,-50.93 440.36,-52.01 440.36,-52.01"/>
</g>
<!-- (17, 0) -->
<g id="node23" class="node">
<title>(17, 0)</title>
<ellipse fill="black" stroke="black" cx="489.8" cy="-52" rx="1.8" ry="1.8"/>
</g>
<!-- (16, 0)&#45;&gt;(17, 0) -->
<g id="edge19" class="edge">
<title>(16, 0)&#45;&gt;(17, 0)</title>
<path fill="none" stroke="blue" d="M444.33,-52C450.09,-52 476.39,-52 485.6,-52"/>
<polygon fill="blue" stroke="blue" points="487.87,-52 485.87,-53.13 486.87,-52 485.87,-52 485.87,-52 485.87,-52 486.87,-52 485.87,-50.88 487.87,-52 487.87,-52"/>
</g>
<!-- (24, 0) -->
<g id="node31" class="node">
<title>(24, 0)</title>
<ellipse fill="black" stroke="black" cx="528.4" cy="-61" rx="1.8" ry="1.8"/>
<text text-anchor="middle" x="524.1" y="-52.8" font-family="Helvetica,sans-Serif" font-size="8.00">0</text>
</g>
<!-- (17, 0)&#45;&gt;(24, 0) -->
<g id="edge20" class="edge">
<title>(17, 0)&#45;&gt;(24, 0)</title>
<path fill="none" stroke="blue" d="M491.7,-52.22C496.17,-53.32 516,-58.2 524.02,-60.17"/>
<polygon fill="blue" stroke="blue" points="526.1,-60.68 523.89,-61.29 525.13,-60.44 524.16,-60.2 524.16,-60.2 524.16,-60.2 525.13,-60.44 524.42,-59.11 526.1,-60.68 526.1,-60.68"/>
</g>
<!-- (18, 0) -->
<g id="node24" class="node">
<title>(18, 0)</title>
<ellipse fill="black" stroke="black" cx="660.2" cy="-48" rx="1.8" ry="1.8"/>
</g>
<!-- (29, 0) -->
<g id="node34" class="node">
<title>(29, 0)</title>
<ellipse fill="black" stroke="black" cx="699.8" cy="-48" rx="1.8" ry="1.8"/>
</g>
<!-- (18, 0)&#45;&gt;(29, 0) -->
<g id="edge21" class="edge">
<title>(18, 0)&#45;&gt;(29, 0)</title>
<path fill="none" stroke="blue" d="M662.13,-48C666.72,-48 687.09,-48 695.33,-48"/>
<polygon fill="blue" stroke="blue" points="697.46,-48 695.46,-49.13 696.46,-48 695.46,-48 695.46,-48 695.46,-48 696.46,-48 695.46,-46.88 697.46,-48 697.46,-48"/>
</g>
<!-- (19, 0) -->
<g id="node25" class="node">
<title>(19, 0)</title>
<ellipse fill="black" stroke="black" cx="615.6" cy="-85" rx="1.8" ry="1.8"/>
</g>
<!-- (28, 0) -->
<g id="node33" class="node">
<title>(28, 0)</title>
<ellipse fill="black" stroke="black" cx="660.2" cy="-85" rx="1.8" ry="1.8"/>
</g>
<!-- (19, 0)&#45;&gt;(28, 0) -->
<g id="edge22" class="edge">
<title>(19, 0)&#45;&gt;(28, 0)</title>
<path fill="none" stroke="blue" d="M617.65,-85C623.04,-85 647.6,-85 656.21,-85"/>
<polygon fill="blue" stroke="blue" points="658.33,-85 656.33,-86.13 657.33,-85 656.33,-85 656.33,-85 656.33,-85 657.33,-85 656.33,-83.88 658.33,-85 658.33,-85"/>
</g>
<!-- (20, 0) -->
<g id="node26" class="node">
<title>(20, 0)</title>
<ellipse fill="black" stroke="black" cx="571" cy="-85" rx="1.8" ry="1.8"/>
</g>
<!-- (20, 0)&#45;&gt;(19, 0) -->
<g id="edge23" class="edge">
<title>(20, 0)&#45;&gt;(19, 0)</title>
<path fill="none" stroke="blue" d="M573.05,-85C578.44,-85 603,-85 611.61,-85"/>
<polygon fill="blue" stroke="blue" points="613.73,-85 611.73,-86.13 612.73,-85 611.73,-85 611.73,-85 611.73,-85 612.73,-85 611.73,-83.88 613.73,-85 613.73,-85"/>
</g>
<!-- (21, 0) -->
<g id="node27" class="node">
<title>(21, 0)</title>
<ellipse fill="black" stroke="black" cx="660.2" cy="-15" rx="1.8" ry="1.8"/>
</g>
<!-- (30, 0) -->
<g id="node35" class="node">
<title>(30, 0)</title>
<ellipse fill="black" stroke="black" cx="699.8" cy="-15" rx="1.8" ry="1.8"/>
</g>
<!-- (21, 0)&#45;&gt;(30, 0) -->
<g id="edge24" class="edge">
<title>(21, 0)&#45;&gt;(30, 0)</title>
<path fill="none" stroke="blue" d="M662.13,-15C666.72,-15 687.09,-15 695.33,-15"/>
<polygon fill="blue" stroke="blue" points="697.46,-15 695.46,-16.13 696.46,-15 695.46,-15 695.46,-15 695.46,-15 696.46,-15 695.46,-13.88 697.46,-15 697.46,-15"/>
</g>
<!-- (22, 0)&#45;&gt;(18, 0) -->
<g id="edge25" class="edge">
<title>(22, 0)&#45;&gt;(18, 0)</title>
<path fill="none" stroke="blue" d="M617.65,-35.32C623.04,-36.97 647.6,-44.46 656.21,-47.09"/>
<polygon fill="blue" stroke="blue" points="658.33,-47.73 656.09,-48.23 657.37,-47.44 656.42,-47.15 656.42,-47.15 656.42,-47.15 657.37,-47.44 656.75,-46.07 658.33,-47.73 658.33,-47.73"/>
</g>
<!-- (22, 1) -->
<g id="node29" class="node">
<title>(22, 1)</title>
<ellipse fill="black" stroke="black" cx="615.6" cy="-50" rx="1.8" ry="1.8"/>
<text text-anchor="middle" x="611.3" y="-41.8" font-family="Helvetica,sans-Serif" font-size="8.00">1</text>
</g>
<!-- (22, 1)&#45;&gt;(21, 0) -->
<g id="edge26" class="edge">
<title>(22, 1)&#45;&gt;(21, 0)</title>
<path fill="none" stroke="blue" d="M617.51,-49.66C620.03,-48.69 627.23,-45.76 632.4,-42 642.67,-34.53 652.64,-23.04 656.96,-17.79"/>
<polygon fill="blue" stroke="blue" points="658.29,-16.16 657.9,-18.42 657.66,-16.93 657.03,-17.71 657.03,-17.71 657.03,-17.71 657.66,-16.93 656.15,-17 658.29,-16.16 658.29,-16.16"/>
</g>
<!-- (23, 0) -->
<g id="node30" class="node">
<title>(23, 0)</title>
<ellipse fill="black" stroke="black" cx="571" cy="-52" rx="1.8" ry="1.8"/>
</g>
<!-- (23, 0)&#45;&gt;(22, 1) -->
<g id="edge27" class="edge">
<title>(23, 0)&#45;&gt;(22, 1)</title>
<path fill="none" stroke="blue" d="M573.05,-51.95C578.44,-51.7 603,-50.54 611.61,-50.14"/>
<polygon fill="blue" stroke="blue" points="613.73,-50.04 611.78,-51.26 612.73,-50.09 611.73,-50.13 611.73,-50.13 611.73,-50.13 612.73,-50.09 611.68,-49.01 613.73,-50.04 613.73,-50.04"/>
</g>
<!-- (24, 0)&#45;&gt;(23, 0) -->
<g id="edge28" class="edge">
<title>(24, 0)&#45;&gt;(23, 0)</title>
<path fill="none" stroke="blue" d="M530.4,-60.78C535.54,-59.64 558.95,-54.45 567.15,-52.63"/>
<polygon fill="blue" stroke="blue" points="569.17,-52.18 567.46,-53.72 568.19,-52.4 567.22,-52.62 567.22,-52.62 567.22,-52.62 568.19,-52.4 566.97,-51.52 569.17,-52.18 569.17,-52.18"/>
</g>
<!-- (24, 1)&#45;&gt;(20, 0) -->
<g id="edge29" class="edge">
<title>(24, 1)&#45;&gt;(20, 0)</title>
<path fill="none" stroke="blue" d="M530.4,-76.22C535.54,-77.36 558.95,-82.55 567.15,-84.37"/>
<polygon fill="blue" stroke="blue" points="569.17,-84.82 566.97,-85.48 568.19,-84.6 567.22,-84.38 567.22,-84.38 567.22,-84.38 568.19,-84.6 567.46,-83.28 569.17,-84.82 569.17,-84.82"/>
</g>
<!-- (31, 0) -->
<g id="node36" class="node">
<title>(31, 0)</title>
<ellipse fill="black" stroke="black" cx="699.8" cy="-85" rx="1.8" ry="1.8"/>
</g>
<!-- (28, 0)&#45;&gt;(31, 0) -->
<g id="edge30" class="edge">
<title>(28, 0)&#45;&gt;(31, 0)</title>
<path fill="none" stroke="blue" d="M662.13,-85C666.72,-85 687.09,-85 695.33,-85"/>
<polygon fill="blue" stroke="blue" points="697.46,-85 695.46,-86.13 696.46,-85 695.46,-85 695.46,-85 695.46,-85 696.46,-85 695.46,-83.88 697.46,-85 697.46,-85"/>
</g>
<!-- (32, 0) -->
<g id="node37" class="node">
<title>(32, 0)</title>
<ellipse fill="black" stroke="black" cx="735.4" cy="-48" rx="1.8" ry="1.8"/>
</g>
<!-- (29, 0)&#45;&gt;(32, 0) -->
<g id="edge31" class="edge">
<title>(29, 0)&#45;&gt;(32, 0)</title>
<path fill="none" stroke="blue" d="M701.63,-48C705.66,-48 723.31,-48 730.91,-48"/>
<polygon fill="blue" stroke="blue" points="733.2,-48 731.2,-49.13 732.2,-48 731.2,-48 731.2,-48 731.2,-48 732.2,-48 731.2,-46.88 733.2,-48 733.2,-48"/>
</g>
<!-- (33, 0) -->
<g id="node38" class="node">
<title>(33, 0)</title>
<ellipse fill="black" stroke="black" cx="735.4" cy="-15" rx="1.8" ry="1.8"/>
</g>
<!-- (30, 0)&#45;&gt;(33, 0) -->
<g id="edge32" class="edge">
<title>(30, 0)&#45;&gt;(33, 0)</title>
<path fill="none" stroke="blue" d="M701.63,-15C705.66,-15 723.31,-15 730.91,-15"/>
<polygon fill="blue" stroke="blue" points="733.2,-15 731.2,-16.13 732.2,-15 731.2,-15 731.2,-15 731.2,-15 732.2,-15 731.2,-13.88 733.2,-15 733.2,-15"/>
</g>
<!-- (34, 0) -->
<g id="node39" class="node">
<title>(34, 0)</title>
<ellipse fill="black" stroke="black" cx="735.4" cy="-85" rx="1.8" ry="1.8"/>
</g>
<!-- (31, 0)&#45;&gt;(34, 0) -->
<g id="edge33" class="edge">
<title>(31, 0)&#45;&gt;(34, 0)</title>
<path fill="none" stroke="blue" d="M701.63,-85C705.66,-85 723.31,-85 730.91,-85"/>
<polygon fill="blue" stroke="blue" points="733.2,-85 731.2,-86.13 732.2,-85 731.2,-85 731.2,-85 731.2,-85 732.2,-85 731.2,-83.88 733.2,-85 733.2,-85"/>
</g>
<!-- (35, 0) -->
<g id="node40" class="node">
<title>(35, 0)</title>
<ellipse fill="black" stroke="black" cx="771" cy="-48" rx="1.8" ry="1.8"/>
</g>
<!-- (32, 0)&#45;&gt;(35, 0) -->
<g id="edge34" class="edge">
<title>(32, 0)&#45;&gt;(35, 0)</title>
<path fill="none" stroke="blue" d="M737.23,-48C741.26,-48 758.91,-48 766.51,-48"/>
<polygon fill="blue" stroke="blue" points="768.8,-48 766.8,-49.13 767.8,-48 766.8,-48 766.8,-48 766.8,-48 767.8,-48 766.8,-46.88 768.8,-48 768.8,-48"/>
</g>
<!-- (36, 0) -->
<g id="node41" class="node">
<title>(36, 0)</title>
<ellipse fill="black" stroke="black" cx="771" cy="-15" rx="1.8" ry="1.8"/>
</g>
<!-- (33, 0)&#45;&gt;(36, 0) -->
<g id="edge35" class="edge">
<title>(33, 0)&#45;&gt;(36, 0)</title>
<path fill="none" stroke="blue" d="M737.23,-15C741.26,-15 758.91,-15 766.51,-15"/>
<polygon fill="blue" stroke="blue" points="768.8,-15 766.8,-16.13 767.8,-15 766.8,-15 766.8,-15 766.8,-15 767.8,-15 766.8,-13.88 768.8,-15 768.8,-15"/>
</g>
<!-- (37, 0) -->
<g id="node42" class="node">
<title>(37, 0)</title>
<ellipse fill="black" stroke="black" cx="771" cy="-85" rx="1.8" ry="1.8"/>
</g>
<!-- (34, 0)&#45;&gt;(37, 0) -->
<g id="edge36" class="edge">
<title>(34, 0)&#45;&gt;(37, 0)</title>
<path fill="none" stroke="blue" d="M737.23,-85C741.26,-85 758.91,-85 766.51,-85"/>
<polygon fill="blue" stroke="blue" points="768.8,-85 766.8,-86.13 767.8,-85 766.8,-85 766.8,-85 766.8,-85 767.8,-85 766.8,-83.88 768.8,-85 768.8,-85"/>
</g>
<!-- (38, 0) -->
<g id="node43" class="node">
<title>(38, 0)</title>
<ellipse fill="black" stroke="black" cx="805.6" cy="-48" rx="1.8" ry="1.8"/>
</g>
<!-- (35, 0)&#45;&gt;(38, 0) -->
<g id="edge37" class="edge">
<title>(35, 0)&#45;&gt;(38, 0)</title>
<path fill="none" stroke="blue" d="M772.81,-48C776.72,-48 793.84,-48 801.21,-48"/>
<polygon fill="blue" stroke="blue" points="803.44,-48 801.44,-49.13 802.44,-48 801.44,-48 801.44,-48 801.44,-48 802.44,-48 801.44,-46.88 803.44,-48 803.44,-48"/>
</g>
<!-- (39, 0) -->
<g id="node44" class="node">
<title>(39, 0)</title>
<ellipse fill="black" stroke="black" cx="805.6" cy="-15" rx="1.8" ry="1.8"/>
</g>
<!-- (36, 0)&#45;&gt;(39, 0) -->
<g id="edge38" class="edge">
<title>(36, 0)&#45;&gt;(39, 0)</title>
<path fill="none" stroke="blue" d="M772.81,-15C776.72,-15 793.84,-15 801.21,-15"/>
<polygon fill="blue" stroke="blue" points="803.44,-15 801.44,-16.13 802.44,-15 801.44,-15 801.44,-15 801.44,-15 802.44,-15 801.44,-13.88 803.44,-15 803.44,-15"/>
</g>
<!-- (37, 0)&#45;&gt;(25, 0) -->
<g id="edge39" class="edge">
<title>(37, 0)&#45;&gt;(25, 0)</title>
<path fill="none" stroke="blue" d="M773.15,-84.9C778.34,-84.41 800.15,-82.01 816.4,-75 822.18,-72.5 828.09,-68.07 831.43,-65.35"/>
<polygon fill="blue" stroke="blue" points="833.31,-63.78 832.5,-65.93 832.54,-64.43 831.77,-65.07 831.77,-65.07 831.77,-65.07 832.54,-64.43 831.05,-64.2 833.31,-63.78 833.31,-63.78"/>
</g>
<!-- (38, 0)&#45;&gt;(26, 0) -->
<g id="edge40" class="edge">
<title>(38, 0)&#45;&gt;(26, 0)</title>
<path fill="none" stroke="blue" d="M807.79,-48C811.83,-48 825.17,-48 831.19,-48"/>
<polygon fill="blue" stroke="blue" points="833.28,-48 831.28,-49.13 832.28,-48 831.28,-48 831.28,-48 831.28,-48 832.28,-48 831.28,-46.88 833.28,-48 833.28,-48"/>
</g>
<!-- (39, 0)&#45;&gt;(27, 0) -->
<g id="edge41" class="edge">
<title>(39, 0)&#45;&gt;(27, 0)</title>
<path fill="none" stroke="blue" d="M807.79,-15.77C811.9,-18.46 825.64,-27.42 831.51,-31.25"/>
<polygon fill="blue" stroke="blue" points="833.28,-32.4 830.99,-32.25 832.44,-31.85 831.61,-31.31 831.61,-31.31 831.61,-31.31 832.44,-31.85 832.22,-30.37 833.28,-32.4 833.28,-32.4"/>
</g>
</g>
</svg>
