<?xml version="1.0" encoding="UTF-8" standalone="no"?>
<!DOCTYPE svg PUBLIC "-//W3C//DTD SVG 1.1//EN"
 "http://www.w3.org/Graphics/SVG/1.1/DTD/svg11.dtd">
<!-- Generated by graphviz version 6.0.1 (20220911.1526)
 -->
<!-- Title: G Pages: 1 -->
<svg width="1116pt" height="655pt"
 viewBox="0.00 0.00 1115.65 655.20" xmlns="http://www.w3.org/2000/svg" xmlns:xlink="http://www.w3.org/1999/xlink">
<g id="graph0" class="graph" transform="scale(1 1) rotate(0) translate(4 651.2)">
<title>G</title>
<polygon fill="white" stroke="none" points="-4,4 -4,-651.2 1111.65,-651.2 1111.65,4 -4,4"/>
<!-- 0 -->
<g id="node1" class="node">
<title>0</title>
<g id="a_node1"><a xlink:title="Q&#45;Input">
<ellipse fill="white" stroke="black" stroke-width="3" stroke-dasharray="5,2" cx="48.75" cy="-555.2" rx="38.19" ry="38.19"/>
<text text-anchor="middle" x="48.75" y="-551.5" font-family="Times,serif" font-size="14.00">Q&#45;Input</text>
</a>
</g>
<text text-anchor="start" x="3.4" y="-505.65" font-family="Times,serif" font-size="14.00" fill="grey">0</text>
</g>
<!-- 1 -->
<g id="node2" class="node">
<title>1</title>
<g id="a_node2"><a xlink:title="Q&#45;Input">
<ellipse fill="white" stroke="black" stroke-width="3" stroke-dasharray="5,2" cx="48.75" cy="-460.2" rx="38.19" ry="38.19"/>
<text text-anchor="middle" x="48.75" y="-456.5" font-family="Times,serif" font-size="14.00">Q&#45;Input</text>
</a>
</g>
<text text-anchor="start" x="3.4" y="-410.65" font-family="Times,serif" font-size="14.00" fill="grey">1</text>
</g>
<!-- 0&#45;&#45;1 -->
<!-- 8 -->
<g id="node9" class="node">
<title>8</title>
<g id="a_node9"><a xlink:title="Q&#45;Z(1.5)">
<ellipse fill="green" stroke="black" stroke-width="3" cx="155.59" cy="-354.2" rx="22.2" ry="22.2"/>
<text text-anchor="middle" x="155.59" y="-350.5" font-family="Times,serif" font-size="14.00">1.5</text>
</a>
</g>
<text text-anchor="start" x="126.49" y="-320.9" font-family="Times,serif" font-size="14.00" fill="grey">8</text>
</g>
<!-- 0&#45;&#45;8 -->
<g id="edge1" class="edge">
<title>0&#45;&#45;8</title>
<path fill="none" stroke="black" stroke-width="3" d="M78.23,-530.57C85.19,-523.53 92.16,-515.51 97.49,-507.2 111.99,-484.58 136.31,-411.61 147.97,-375.23"/>
</g>
<!-- 2 -->
<g id="node3" class="node">
<title>2</title>
<g id="a_node3"><a xlink:title="Q&#45;Input">
<ellipse fill="white" stroke="black" stroke-width="3" stroke-dasharray="5,2" cx="48.75" cy="-365.2" rx="38.19" ry="38.19"/>
<text text-anchor="middle" x="48.75" y="-361.5" font-family="Times,serif" font-size="14.00">Q&#45;Input</text>
</a>
</g>
<text text-anchor="start" x="3.4" y="-315.65" font-family="Times,serif" font-size="14.00" fill="grey">2</text>
</g>
<!-- 1&#45;&#45;2 -->
<!-- 13 -->
<g id="node14" class="node">
<title>13</title>
<g id="a_node14"><a xlink:title="Q&#45;Z(0.5)">
<ellipse fill="green" stroke="black" stroke-width="3" cx="155.59" cy="-460.2" rx="22.2" ry="22.2"/>
<text text-anchor="middle" x="155.59" y="-456.5" font-family="Times,serif" font-size="14.00">0.5</text>
</a>
</g>
<text text-anchor="start" x="119.49" y="-426.9" font-family="Times,serif" font-size="14.00" fill="grey">13</text>
</g>
<!-- 1&#45;&#45;13 -->
<g id="edge9" class="edge">
<title>1&#45;&#45;13</title>
<path fill="none" stroke="black" stroke-width="3" d="M87.3,-460.2C102.81,-460.2 120.22,-460.2 133.44,-460.2"/>
</g>
<!-- 3 -->
<g id="node4" class="node">
<title>3</title>
<g id="a_node4"><a xlink:title="Q&#45;Input">
<ellipse fill="white" stroke="black" stroke-width="3" stroke-dasharray="5,2" cx="48.75" cy="-270.2" rx="38.19" ry="38.19"/>
<text text-anchor="middle" x="48.75" y="-266.5" font-family="Times,serif" font-size="14.00">Q&#45;Input</text>
</a>
</g>
<text text-anchor="start" x="3.4" y="-220.65" font-family="Times,serif" font-size="14.00" fill="grey">3</text>
</g>
<!-- 2&#45;&#45;3 -->
<!-- 18 -->
<g id="node19" class="node">
<title>18</title>
<g id="a_node19"><a xlink:title="Q&#45;X(0.0)">
<ellipse fill="red" stroke="black" stroke-width="3" cx="311.88" cy="-423.2" rx="18" ry="18"/>
</a>
</g>
<text text-anchor="start" x="279.88" y="-394" font-family="Times,serif" font-size="14.00" fill="grey">18</text>
</g>
<!-- 2&#45;&#45;18 -->
<g id="edge18" class="edge">
<title>2&#45;&#45;18</title>
<path fill="none" stroke="black" stroke-width="3" d="M86.39,-374.14C101.02,-377.67 118.04,-381.7 133.49,-385.2 192.32,-398.52 262.4,-413.17 293.98,-419.71"/>
</g>
<!-- 23 -->
<g id="node24" class="node">
<title>23</title>
<g id="a_node24"><a xlink:title="Q&#45;Z(0.0)">
<ellipse fill="green" stroke="black" stroke-width="3" cx="383.88" cy="-290.2" rx="18" ry="18"/>
</a>
</g>
<text text-anchor="start" x="351.88" y="-261" font-family="Times,serif" font-size="14.00" fill="grey">23</text>
</g>
<!-- 3&#45;&#45;23 -->
<g id="edge24" class="edge">
<title>3&#45;&#45;23</title>
<path fill="none" stroke="blue" stroke-width="3" stroke-dasharray="5,2" d="M87.31,-272.45C159.29,-276.77 314.08,-286.07 365.72,-289.17"/>
</g>
<!-- 4 -->
<g id="node5" class="node">
<title>4</title>
<g id="a_node5"><a xlink:title="Q&#45;Output">
<ellipse fill="white" stroke="black" stroke-width="3" stroke-dasharray="5,2" cx="910.36" cy="-377.2" rx="44.39" ry="44.39"/>
<text text-anchor="middle" x="910.36" y="-373.5" font-family="Times,serif" font-size="14.00">Q&#45;Output</text>
</a>
</g>
<text text-anchor="start" x="859.16" y="-321.8" font-family="Times,serif" font-size="14.00" fill="grey">4</text>
</g>
<!-- 5 -->
<g id="node6" class="node">
<title>5</title>
<g id="a_node6"><a xlink:title="Q&#45;Output">
<ellipse fill="white" stroke="black" stroke-width="3" stroke-dasharray="5,2" cx="910.36" cy="-271.2" rx="44.39" ry="44.39"/>
<text text-anchor="middle" x="910.36" y="-267.5" font-family="Times,serif" font-size="14.00">Q&#45;Output</text>
</a>
</g>
<text text-anchor="start" x="859.16" y="-215.8" font-family="Times,serif" font-size="14.00" fill="grey">5</text>
</g>
<!-- 4&#45;&#45;5 -->
<!-- 6 -->
<g id="node7" class="node">
<title>6</title>
<g id="a_node7"><a xlink:title="Q&#45;Output">
<ellipse fill="white" stroke="black" stroke-width="3" stroke-dasharray="5,2" cx="910.36" cy="-165.2" rx="44.39" ry="44.39"/>
<text text-anchor="middle" x="910.36" y="-161.5" font-family="Times,serif" font-size="14.00">Q&#45;Output</text>
</a>
</g>
<text text-anchor="start" x="859.16" y="-109.8" font-family="Times,serif" font-size="14.00" fill="grey">6</text>
</g>
<!-- 5&#45;&#45;6 -->
<!-- 17 -->
<g id="node18" class="node">
<title>17</title>
<g id="a_node18"><a xlink:title="Q&#45;Z(0.0)">
<ellipse fill="green" stroke="black" stroke-width="3" cx="1017.65" cy="-337.2" rx="18" ry="18"/>
</a>
</g>
<text text-anchor="start" x="985.65" y="-308" font-family="Times,serif" font-size="14.00" fill="grey">17</text>
</g>
<!-- 5&#45;&#45;17 -->
<g id="edge17" class="edge">
<title>5&#45;&#45;17</title>
<path fill="none" stroke="black" stroke-width="3" d="M948.18,-294.28C966.69,-305.88 988.07,-319.28 1001.94,-327.98"/>
</g>
<!-- 7 -->
<g id="node8" class="node">
<title>7</title>
<g id="a_node8"><a xlink:title="Q&#45;Output">
<ellipse fill="white" stroke="black" stroke-width="3" stroke-dasharray="5,2" cx="910.36" cy="-59.2" rx="44.39" ry="44.39"/>
<text text-anchor="middle" x="910.36" y="-55.5" font-family="Times,serif" font-size="14.00">Q&#45;Output</text>
</a>
</g>
<text text-anchor="start" x="859.16" y="-3.8" font-family="Times,serif" font-size="14.00" fill="grey">7</text>
</g>
<!-- 6&#45;&#45;7 -->
<!-- 9 -->
<g id="node10" class="node">
<title>9</title>
<g id="a_node10"><a xlink:title="Q&#45;Z(0.5)">
<ellipse fill="green" stroke="black" stroke-width="3" cx="235.79" cy="-353.2" rx="22.2" ry="22.2"/>
<text text-anchor="middle" x="235.79" y="-349.5" font-family="Times,serif" font-size="14.00">0.5</text>
</a>
</g>
<text text-anchor="start" x="206.69" y="-319.9" font-family="Times,serif" font-size="14.00" fill="grey">9</text>
</g>
<!-- 8&#45;&#45;9 -->
<g id="edge2" class="edge">
<title>8&#45;&#45;9</title>
<path fill="none" stroke="blue" stroke-width="3" stroke-dasharray="5,2" d="M177.96,-353.92C188.99,-353.78 202.41,-353.61 213.44,-353.47"/>
</g>
<!-- 10 -->
<g id="node11" class="node">
<title>10</title>
<g id="a_node11"><a xlink:title="Q&#45;Z(0.0)">
<ellipse fill="green" stroke="black" stroke-width="3" cx="311.88" cy="-347.2" rx="18" ry="18"/>
</a>
</g>
<text text-anchor="start" x="279.88" y="-318" font-family="Times,serif" font-size="14.00" fill="grey">10</text>
</g>
<!-- 9&#45;&#45;10 -->
<g id="edge3" class="edge">
<title>9&#45;&#45;10</title>
<path fill="none" stroke="black" stroke-width="3" d="M257.82,-351.49C269.12,-350.58 282.87,-349.46 293.55,-348.6"/>
</g>
<!-- 11 -->
<g id="node12" class="node">
<title>11</title>
<g id="a_node12"><a xlink:title="Q&#45;X(0.0)">
<ellipse fill="red" stroke="black" stroke-width="3" cx="383.88" cy="-347.2" rx="18" ry="18"/>
</a>
</g>
<text text-anchor="start" x="351.88" y="-318" font-family="Times,serif" font-size="14.00" fill="grey">11</text>
</g>
<!-- 10&#45;&#45;11 -->
<g id="edge5" class="edge">
<title>10&#45;&#45;11</title>
<path fill="none" stroke="black" stroke-width="3" d="M330.19,-347.2C341.04,-347.2 354.97,-347.2 365.78,-347.2"/>
</g>
<!-- 10&#45;&#45;23 -->
<g id="edge4" class="edge">
<title>10&#45;&#45;23</title>
<path fill="none" stroke="blue" stroke-width="3" stroke-dasharray="5,2" d="M326.38,-336.21C338.78,-326.11 357.05,-311.24 369.43,-301.15"/>
</g>
<!-- 12 -->
<g id="node13" class="node">
<title>12</title>
<g id="a_node13"><a xlink:title="Q&#45;Z(0.25)">
<ellipse fill="green" stroke="black" stroke-width="3" cx="714.22" cy="-358.2" rx="26.8" ry="26.8"/>
<text text-anchor="middle" x="714.22" y="-354.5" font-family="Times,serif" font-size="14.00">0.25</text>
</a>
</g>
<text text-anchor="start" x="673.57" y="-320.35" font-family="Times,serif" font-size="14.00" fill="grey">12</text>
</g>
<!-- 11&#45;&#45;12 -->
<g id="edge7" class="edge">
<title>11&#45;&#45;12</title>
<path fill="none" stroke="blue" stroke-width="3" stroke-dasharray="5,2" d="M402.07,-347.77C456.17,-349.58 623.15,-355.18 687.53,-357.34"/>
</g>
<!-- 24 -->
<g id="node25" class="node">
<title>24</title>
<g id="a_node25"><a xlink:title="Q&#45;Z(0.0)">
<ellipse fill="green" stroke="black" stroke-width="3" cx="459.98" cy="-290.2" rx="18" ry="18"/>
</a>
</g>
<text text-anchor="start" x="427.98" y="-261" font-family="Times,serif" font-size="14.00" fill="grey">24</text>
</g>
<!-- 11&#45;&#45;24 -->
<g id="edge6" class="edge">
<title>11&#45;&#45;24</title>
<path fill="none" stroke="black" stroke-width="3" d="M398.82,-336.47C412.07,-326.28 431.88,-311.04 445.11,-300.87"/>
</g>
<!-- 12&#45;&#45;4 -->
<g id="edge8" class="edge">
<title>12&#45;&#45;4</title>
<path fill="none" stroke="blue" stroke-width="3" stroke-dasharray="5,2" d="M741,-360.72C772.97,-363.85 827.95,-369.23 866.35,-372.99"/>
</g>
<!-- 14 -->
<g id="node15" class="node">
<title>14</title>
<g id="a_node15"><a xlink:title="Q&#45;Z(0.0)">
<ellipse fill="green" stroke="black" stroke-width="3" cx="235.79" cy="-460.2" rx="18" ry="18"/>
</a>
</g>
<text text-anchor="start" x="203.79" y="-431" font-family="Times,serif" font-size="14.00" fill="grey">14</text>
</g>
<!-- 13&#45;&#45;14 -->
<g id="edge10" class="edge">
<title>13&#45;&#45;14</title>
<path fill="none" stroke="black" stroke-width="3" d="M177.96,-460.2C190.44,-460.2 205.98,-460.2 217.65,-460.2"/>
</g>
<!-- 15 -->
<g id="node16" class="node">
<title>15</title>
<g id="a_node16"><a xlink:title="Q&#45;Z(0.0)">
<ellipse fill="green" stroke="black" stroke-width="3" cx="311.88" cy="-477.2" rx="18" ry="18"/>
</a>
</g>
<text text-anchor="start" x="279.88" y="-448" font-family="Times,serif" font-size="14.00" fill="grey">15</text>
</g>
<!-- 14&#45;&#45;15 -->
<g id="edge12" class="edge">
<title>14&#45;&#45;15</title>
<path fill="none" stroke="blue" stroke-width="3" stroke-dasharray="5,2" d="M253.6,-464.05C265.73,-466.84 282.02,-470.58 294.14,-473.35"/>
</g>
<!-- 14&#45;&#45;18 -->
<g id="edge11" class="edge">
<title>14&#45;&#45;18</title>
<path fill="none" stroke="black" stroke-width="3" d="M252.14,-452.53C264.86,-446.18 282.84,-437.2 295.55,-430.85"/>
</g>
<!-- 16 -->
<g id="node17" class="node">
<title>16</title>
<g id="a_node17"><a xlink:title="Q&#45;Z(0.25)">
<ellipse fill="green" stroke="black" stroke-width="3" cx="624.92" cy="-487.2" rx="26.8" ry="26.8"/>
<text text-anchor="middle" x="624.92" y="-483.5" font-family="Times,serif" font-size="14.00">0.25</text>
</a>
</g>
<text text-anchor="start" x="584.28" y="-449.35" font-family="Times,serif" font-size="14.00" fill="grey">16</text>
</g>
<!-- 15&#45;&#45;16 -->
<g id="edge14" class="edge">
<title>15&#45;&#45;16</title>
<path fill="none" stroke="black" stroke-width="3" d="M330.05,-477.75C381.76,-479.41 536.25,-484.38 598,-486.36"/>
</g>
<!-- 19 -->
<g id="node20" class="node">
<title>19</title>
<g id="a_node20"><a xlink:title="Q&#45;X(0.0)">
<ellipse fill="red" stroke="black" stroke-width="3" cx="383.88" cy="-432.2" rx="18" ry="18"/>
</a>
</g>
<text text-anchor="start" x="351.88" y="-403" font-family="Times,serif" font-size="14.00" fill="grey">19</text>
</g>
<!-- 15&#45;&#45;19 -->
<g id="edge13" class="edge">
<title>15&#45;&#45;19</title>
<path fill="none" stroke="black" stroke-width="3" d="M327.39,-467.87C339.4,-460.15 356.39,-449.23 368.4,-441.51"/>
</g>
<!-- 16&#45;&#45;17 -->
<g id="edge15" class="edge">
<title>16&#45;&#45;17</title>
<path fill="none" stroke="blue" stroke-width="3" stroke-dasharray="5,2" d="M651.42,-490.28C712.17,-496.19 867.56,-502.76 963.65,-430.2 989.16,-410.93 1004.32,-375.57 1011.52,-354.44"/>
</g>
<!-- 22 -->
<g id="node23" class="node">
<title>22</title>
<g id="a_node23"><a xlink:title="Q&#45;X(0.0)">
<ellipse fill="red" stroke="black" stroke-width="3" cx="1089.65" cy="-337.2" rx="18" ry="18"/>
</a>
</g>
<text text-anchor="start" x="1057.65" y="-308" font-family="Times,serif" font-size="14.00" fill="grey">22</text>
</g>
<!-- 17&#45;&#45;22 -->
<g id="edge16" class="edge">
<title>17&#45;&#45;22</title>
<path fill="none" stroke="black" stroke-width="3" d="M1035.96,-337.2C1046.81,-337.2 1060.74,-337.2 1071.55,-337.2"/>
</g>
<!-- 18&#45;&#45;19 -->
<g id="edge19" class="edge">
<title>18&#45;&#45;19</title>
<path fill="none" stroke="black" stroke-width="3" d="M329.83,-425.37C340.67,-426.77 354.7,-428.57 365.61,-429.97"/>
</g>
<!-- 20 -->
<g id="node21" class="node">
<title>20</title>
<g id="a_node21"><a xlink:title="Q&#45;Z(0.5)">
<ellipse fill="green" stroke="black" stroke-width="3" cx="459.98" cy="-432.2" rx="22.2" ry="22.2"/>
<text text-anchor="middle" x="459.98" y="-428.5" font-family="Times,serif" font-size="14.00">0.5</text>
</a>
</g>
<text text-anchor="start" x="423.88" y="-398.9" font-family="Times,serif" font-size="14.00" fill="grey">20</text>
</g>
<!-- 19&#45;&#45;20 -->
<g id="edge20" class="edge">
<title>19&#45;&#45;20</title>
<path fill="none" stroke="black" stroke-width="3" d="M402.07,-432.2C412.67,-432.2 426.36,-432.2 437.65,-432.2"/>
</g>
<!-- 21 -->
<g id="node22" class="node">
<title>21</title>
<g id="a_node22"><a xlink:title="Q&#45;Z(0.5)">
<ellipse fill="green" stroke="black" stroke-width="3" cx="798.96" cy="-434.2" rx="22.2" ry="22.2"/>
<text text-anchor="middle" x="798.96" y="-430.5" font-family="Times,serif" font-size="14.00">0.5</text>
</a>
</g>
<text text-anchor="start" x="762.87" y="-400.9" font-family="Times,serif" font-size="14.00" fill="grey">21</text>
</g>
<!-- 20&#45;&#45;21 -->
<g id="edge21" class="edge">
<title>20&#45;&#45;21</title>
<path fill="none" stroke="blue" stroke-width="3" stroke-dasharray="5,2" d="M482.32,-432.32C542.94,-432.68 715.73,-433.71 776.51,-434.07"/>
</g>
<!-- 21&#45;&#45;22 -->
<g id="edge22" class="edge">
<title>21&#45;&#45;22</title>
<path fill="none" stroke="black" stroke-width="3" d="M820.83,-437.61C852.64,-441.97 914.74,-447.06 963.65,-430.2 1011.47,-413.71 1056.13,-371.68 1076.73,-350.23"/>
</g>
<!-- 22&#45;&#45;6 -->
<g id="edge23" class="edge">
<title>22&#45;&#45;6</title>
<path fill="none" stroke="black" stroke-width="3" d="M1076.05,-324.97C1048.49,-298.23 982.21,-233.93 942.65,-195.55"/>
</g>
<!-- 23&#45;&#45;24 -->
<g id="edge25" class="edge">
<title>23&#45;&#45;24</title>
<path fill="none" stroke="black" stroke-width="3" d="M402.07,-290.2C414.04,-290.2 429.94,-290.2 441.89,-290.2"/>
</g>
<!-- 25 -->
<g id="node26" class="node">
<title>25</title>
<g id="a_node26"><a xlink:title="Q&#45;Z(1.5)">
<ellipse fill="green" stroke="black" stroke-width="3" cx="540.18" cy="-275.2" rx="22.2" ry="22.2"/>
<text text-anchor="middle" x="540.18" y="-271.5" font-family="Times,serif" font-size="14.00">1.5</text>
</a>
</g>
<text text-anchor="start" x="504.08" y="-241.9" font-family="Times,serif" font-size="14.00" fill="grey">25</text>
</g>
<!-- 24&#45;&#45;25 -->
<g id="edge26" class="edge">
<title>24&#45;&#45;25</title>
<path fill="none" stroke="blue" stroke-width="3" stroke-dasharray="5,2" d="M477.95,-286.94C489.81,-284.67 505.72,-281.61 518.34,-279.19"/>
</g>
<!-- 26 -->
<g id="node27" class="node">
<title>26</title>
<g id="a_node27"><a xlink:title="Q&#45;X(1.0)">
<ellipse fill="red" stroke="black" stroke-width="3" cx="624.92" cy="-245.2" rx="22.2" ry="22.2"/>
<text text-anchor="middle" x="624.92" y="-241.5" font-family="Times,serif" font-size="14.00">1.0</text>
</a>
</g>
<text text-anchor="start" x="588.83" y="-211.9" font-family="Times,serif" font-size="14.00" fill="grey">26</text>
</g>
<!-- 25&#45;&#45;26 -->
<g id="edge27" class="edge">
<title>25&#45;&#45;26</title>
<path fill="none" stroke="black" stroke-width="3" d="M561.21,-267.93C574.12,-263.25 590.86,-257.18 603.79,-252.5"/>
</g>
<!-- 27 -->
<g id="node28" class="node">
<title>27</title>
<g id="a_node28"><a xlink:title="Q&#45;Z(0.5)">
<ellipse fill="green" stroke="black" stroke-width="3" cx="714.22" cy="-186.2" rx="22.2" ry="22.2"/>
<text text-anchor="middle" x="714.22" y="-182.5" font-family="Times,serif" font-size="14.00">0.5</text>
</a>
</g>
<text text-anchor="start" x="678.12" y="-152.9" font-family="Times,serif" font-size="14.00" fill="grey">27</text>
</g>
<!-- 26&#45;&#45;27 -->
<g id="edge28" class="edge">
<title>26&#45;&#45;27</title>
<path fill="none" stroke="black" stroke-width="3" d="M643.59,-233.26C658.73,-223.02 680.44,-208.35 695.58,-198.12"/>
</g>
<!-- 28 -->
<g id="node29" class="node">
<title>28</title>
<g id="a_node29"><a xlink:title="Q&#45;X(1.0)">
<ellipse fill="red" stroke="black" stroke-width="3" cx="798.96" cy="-68.2" rx="22.2" ry="22.2"/>
<text text-anchor="middle" x="798.96" y="-64.5" font-family="Times,serif" font-size="14.00">1.0</text>
</a>
</g>
<text text-anchor="start" x="762.87" y="-34.9" font-family="Times,serif" font-size="14.00" fill="grey">28</text>
</g>
<!-- 27&#45;&#45;28 -->
<g id="edge29" class="edge">
<title>27&#45;&#45;28</title>
<path fill="none" stroke="black" stroke-width="3" d="M727.61,-168.53C743.21,-146.28 769.85,-108.28 785.49,-85.98"/>
</g>
<!-- 28&#45;&#45;7 -->
<g id="edge30" class="edge">
<title>28&#45;&#45;7</title>
<path fill="none" stroke="black" stroke-width="3" d="M821.06,-66.46C833.85,-65.41 850.64,-64.03 866.14,-62.75"/>
</g>
<!-- input_rank -->
<g id="node30" class="node">
<title>input_rank</title>
</g>
<!-- input_rank&#45;&#45;0 -->
<!-- output_rank -->
<g id="node31" class="node">
<title>output_rank</title>
</g>
<!-- input_rank&#45;&#45;output_rank -->
<!-- output_rank&#45;&#45;4 -->
</g>
</svg>
