<?xml version="1.0" encoding="UTF-8" standalone="no"?>
<!DOCTYPE svg PUBLIC "-//W3C//DTD SVG 1.1//EN"
 "http://www.w3.org/Graphics/SVG/1.1/DTD/svg11.dtd">
<!-- Generated by graphviz version 6.0.1 (20220911.1526)
 -->
<!-- Title: G Pages: 1 -->
<svg width="864pt" height="780pt"
 viewBox="0.00 0.00 863.86 780.20" xmlns="http://www.w3.org/2000/svg" xmlns:xlink="http://www.w3.org/1999/xlink">
<g id="graph0" class="graph" transform="scale(1 1) rotate(0) translate(4 776.2)">
<title>G</title>
<polygon fill="white" stroke="none" points="-4,4 -4,-776.2 859.86,-776.2 859.86,4 -4,4"/>
<!-- 0 -->
<g id="node1" class="node">
<title>0</title>
<g id="a_node1"><a xlink:title="Q&#45;Input">
<ellipse fill="white" stroke="black" stroke-width="3" stroke-dasharray="5,2" cx="80.52" cy="-549.2" rx="38.19" ry="38.19"/>
<text text-anchor="middle" x="80.52" y="-545.5" font-family="Times,serif" font-size="14.00">Q&#45;Input</text>
</a>
</g>
<text text-anchor="start" x="35.18" y="-499.65" font-family="Times,serif" font-size="14.00" fill="grey">0</text>
</g>
<!-- 1 -->
<g id="node2" class="node">
<title>1</title>
<g id="a_node2"><a xlink:title="Q&#45;Input">
<ellipse fill="white" stroke="black" stroke-width="3" stroke-dasharray="5,2" cx="80.52" cy="-454.2" rx="38.19" ry="38.19"/>
<text text-anchor="middle" x="80.52" y="-450.5" font-family="Times,serif" font-size="14.00">Q&#45;Input</text>
</a>
</g>
<text text-anchor="start" x="35.18" y="-404.65" font-family="Times,serif" font-size="14.00" fill="grey">1</text>
</g>
<!-- 0&#45;&#45;1 -->
<!-- 8 -->
<g id="node9" class="node">
<title>8</title>
<g id="a_node9"><a xlink:title="Q&#45;Y(0)">
<ellipse fill="lightgrey" stroke="black" stroke-width="3" cx="209.27" cy="-353.2" rx="3.5" ry="3.5"/>
<text text-anchor="middle" x="209.27" y="-357.5" font-family="Times,serif" font-size="14.00">Q&#45;Y(0)</text>
</a>
</g>
<text text-anchor="start" x="174.27" y="-322.5" font-family="Times,serif" font-size="14.00" fill="grey">8</text>
</g>
<!-- 0&#45;&#45;8 -->
<g id="edge1" class="edge">
<title>0&#45;&#45;8</title>
<path fill="none" stroke="black" stroke-width="3" d="M109.67,-523.91C116.55,-516.95 123.57,-509.12 129.27,-501.2 150.15,-472.14 148.45,-460.78 165.27,-429.2 180.8,-400.02 201.06,-365.42 206.73,-355.79"/>
</g>
<!-- 2 -->
<g id="node3" class="node">
<title>2</title>
<g id="a_node3"><a xlink:title="Q&#45;Input">
<ellipse fill="white" stroke="black" stroke-width="3" stroke-dasharray="5,2" cx="80.52" cy="-359.2" rx="38.19" ry="38.19"/>
<text text-anchor="middle" x="80.52" y="-355.5" font-family="Times,serif" font-size="14.00">Q&#45;Input</text>
</a>
</g>
<text text-anchor="start" x="35.18" y="-309.65" font-family="Times,serif" font-size="14.00" fill="grey">2</text>
</g>
<!-- 1&#45;&#45;2 -->
<!-- 10 -->
<g id="node11" class="node">
<title>10</title>
<g id="a_node11"><a xlink:title="Q&#45;X(1)">
<ellipse fill="lightgrey" stroke="black" stroke-width="3" cx="209.27" cy="-587.2" rx="3.5" ry="3.5"/>
<text text-anchor="middle" x="209.27" y="-591.5" font-family="Times,serif" font-size="14.00">Q&#45;X(1)</text>
</a>
</g>
<text text-anchor="start" x="167.27" y="-556.5" font-family="Times,serif" font-size="14.00" fill="grey">10</text>
</g>
<!-- 1&#45;&#45;10 -->
<g id="edge2" class="edge">
<title>1&#45;&#45;10</title>
<path fill="none" stroke="black" stroke-width="3" d="M108.87,-480.1C115.77,-487.05 122.99,-494.73 129.27,-502.2 147.11,-523.44 146.19,-533.05 165.27,-553.2 178.88,-567.57 198.76,-581.03 205.74,-585.57"/>
</g>
<!-- 3 -->
<g id="node4" class="node">
<title>3</title>
<g id="a_node4"><a xlink:title="Q&#45;Input">
<ellipse fill="white" stroke="black" stroke-width="3" stroke-dasharray="5,2" cx="80.52" cy="-264.2" rx="38.19" ry="38.19"/>
<text text-anchor="middle" x="80.52" y="-260.5" font-family="Times,serif" font-size="14.00">Q&#45;Input</text>
</a>
</g>
<text text-anchor="start" x="35.18" y="-214.65" font-family="Times,serif" font-size="14.00" fill="grey">3</text>
</g>
<!-- 2&#45;&#45;3 -->
<!-- 13 -->
<g id="node14" class="node">
<title>13</title>
<g id="a_node14"><a xlink:title="Q&#45;Y(1)">
<ellipse fill="lightgrey" stroke="black" stroke-width="3" cx="317.27" cy="-635.2" rx="3.5" ry="3.5"/>
<text text-anchor="middle" x="317.27" y="-639.5" font-family="Times,serif" font-size="14.00">Q&#45;Y(1)</text>
</a>
</g>
<text text-anchor="start" x="275.27" y="-604.5" font-family="Times,serif" font-size="14.00" fill="grey">13</text>
</g>
<!-- 2&#45;&#45;13 -->
<g id="edge3" class="edge">
<title>2&#45;&#45;13</title>
<path fill="none" stroke="black" stroke-width="3" d="M110.27,-383.66C117.23,-390.7 124.13,-398.76 129.27,-407.2 156.46,-451.86 130.49,-480.15 165.27,-519.2 193.84,-551.28 219.14,-533.11 253.27,-559.2 283.22,-582.09 308.22,-621.76 314.66,-632.47"/>
</g>
<!-- 14 -->
<g id="node15" class="node">
<title>14</title>
<g id="a_node15"><a xlink:title="Q&#45;Y(1)">
<ellipse fill="lightgrey" stroke="black" stroke-width="3" cx="317.27" cy="-264.2" rx="3.5" ry="3.5"/>
<text text-anchor="middle" x="317.27" y="-268.5" font-family="Times,serif" font-size="14.00">Q&#45;Y(1)</text>
</a>
</g>
<text text-anchor="start" x="275.27" y="-233.5" font-family="Times,serif" font-size="14.00" fill="grey">14</text>
</g>
<!-- 3&#45;&#45;14 -->
<g id="edge4" class="edge">
<title>3&#45;&#45;14</title>
<path fill="none" stroke="black" stroke-width="3" d="M118.98,-264.2C179.56,-264.2 294.23,-264.2 313.49,-264.2"/>
</g>
<!-- 4 -->
<g id="node5" class="node">
<title>4</title>
<g id="a_node5"><a xlink:title="Q&#45;Output">
<ellipse fill="white" stroke="black" stroke-width="3" stroke-dasharray="5,2" cx="710.56" cy="-377.2" rx="44.39" ry="44.39"/>
<text text-anchor="middle" x="710.56" y="-373.5" font-family="Times,serif" font-size="14.00">Q&#45;Output</text>
</a>
</g>
<text text-anchor="start" x="659.37" y="-321.8" font-family="Times,serif" font-size="14.00" fill="grey">4</text>
</g>
<!-- 5 -->
<g id="node6" class="node">
<title>5</title>
<g id="a_node6"><a xlink:title="Q&#45;Output">
<ellipse fill="white" stroke="black" stroke-width="3" stroke-dasharray="5,2" cx="710.56" cy="-271.2" rx="44.39" ry="44.39"/>
<text text-anchor="middle" x="710.56" y="-267.5" font-family="Times,serif" font-size="14.00">Q&#45;Output</text>
</a>
</g>
<text text-anchor="start" x="659.37" y="-215.8" font-family="Times,serif" font-size="14.00" fill="grey">5</text>
</g>
<!-- 4&#45;&#45;5 -->
<!-- 15 -->
<g id="node16" class="node">
<title>15</title>
<g id="a_node16"><a xlink:title="Q&#45;X(0)">
<ellipse fill="lightgrey" stroke="black" stroke-width="3" cx="827.86" cy="-413.2" rx="3.5" ry="3.5"/>
<text text-anchor="middle" x="827.86" y="-417.5" font-family="Times,serif" font-size="14.00">Q&#45;X(0)</text>
</a>
</g>
<text text-anchor="start" x="785.86" y="-382.5" font-family="Times,serif" font-size="14.00" fill="grey">15</text>
</g>
<!-- 4&#45;&#45;15 -->
<g id="edge6" class="edge">
<title>4&#45;&#45;15</title>
<path fill="none" stroke="black" stroke-width="3" d="M752.86,-390.09C781.03,-398.89 814.89,-409.46 824.31,-412.4"/>
</g>
<!-- 6 -->
<g id="node7" class="node">
<title>6</title>
<g id="a_node7"><a xlink:title="Q&#45;Output">
<ellipse fill="white" stroke="black" stroke-width="3" stroke-dasharray="5,2" cx="710.56" cy="-165.2" rx="44.39" ry="44.39"/>
<text text-anchor="middle" x="710.56" y="-161.5" font-family="Times,serif" font-size="14.00">Q&#45;Output</text>
</a>
</g>
<text text-anchor="start" x="659.37" y="-109.8" font-family="Times,serif" font-size="14.00" fill="grey">6</text>
</g>
<!-- 5&#45;&#45;6 -->
<!-- 7 -->
<g id="node8" class="node">
<title>7</title>
<g id="a_node8"><a xlink:title="Q&#45;Output">
<ellipse fill="white" stroke="black" stroke-width="3" stroke-dasharray="5,2" cx="710.56" cy="-59.2" rx="44.39" ry="44.39"/>
<text text-anchor="middle" x="710.56" y="-55.5" font-family="Times,serif" font-size="14.00">Q&#45;Output</text>
</a>
</g>
<text text-anchor="start" x="659.37" y="-3.8" font-family="Times,serif" font-size="14.00" fill="grey">7</text>
</g>
<!-- 6&#45;&#45;7 -->
<!-- 8&#45;&#45;14 -->
<g id="edge8" class="edge">
<title>8&#45;&#45;14</title>
<path fill="none" stroke="blue" stroke-width="3" stroke-dasharray="5,2" d="M212.48,-351.34C226.28,-339.75 300.31,-277.6 314.07,-266.04"/>
</g>
<!-- 9 -->
<g id="node10" class="node">
<title>9</title>
<g id="a_node10"><a xlink:title="Q&#45;XY(0.25)">
<ellipse fill="lightgrey" stroke="black" stroke-width="3" cx="80.52" cy="-625.2" rx="3.5" ry="3.5"/>
<text text-anchor="middle" x="80.52" y="-629.5" font-family="Times,serif" font-size="14.00">Q&#45;XY(0.25)</text>
</a>
</g>
<text text-anchor="start" x="32.02" y="-594.5" font-family="Times,serif" font-size="14.00" fill="grey">9</text>
</g>
<!-- 9&#45;&#45;8 -->
<g id="edge7" class="edge">
<title>9&#45;&#45;8</title>
<path fill="none" stroke="blue" stroke-width="3" stroke-dasharray="5,2" d="M84.21,-624.4C92.43,-621.84 117.34,-612.95 129.27,-596.2 173.3,-534.34 138.27,-500.16 165.27,-429.2 177.02,-398.31 199.94,-364.91 206.48,-355.68"/>
</g>
<!-- 9&#45;&#45;15 -->
<g id="edge5" class="edge">
<title>9&#45;&#45;15</title>
<path fill="none" stroke="blue" stroke-width="3" stroke-dasharray="5,2" d="M84.18,-624.38C92.28,-621.74 116.93,-612.64 129.27,-596.2 166.28,-546.87 117.43,-501.11 165.27,-462.2 249.18,-393.93 300.09,-448.2 408.27,-448.2 408.27,-448.2 408.27,-448.2 502.27,-448.2 618.81,-448.2 648.93,-449.47 763.86,-430.2 787.54,-426.22 815.21,-417.17 824.01,-414.18"/>
</g>
<!-- 12 -->
<g id="node13" class="node">
<title>12</title>
<g id="a_node13"><a xlink:title="Q&#45;Y(1)">
<ellipse fill="lightgrey" stroke="black" stroke-width="3" cx="409.27" cy="-611.2" rx="3.5" ry="3.5"/>
<text text-anchor="middle" x="409.27" y="-615.5" font-family="Times,serif" font-size="14.00">Q&#45;Y(1)</text>
</a>
</g>
<text text-anchor="start" x="367.27" y="-580.5" font-family="Times,serif" font-size="14.00" fill="grey">12</text>
</g>
<!-- 10&#45;&#45;12 -->
<g id="edge14" class="edge">
<title>10&#45;&#45;12</title>
<path fill="none" stroke="blue" stroke-width="3" stroke-dasharray="5,2" d="M212.77,-587.5C233.99,-590.07 383.48,-608.19 405.55,-610.87"/>
</g>
<!-- 10&#45;&#45;13 -->
<g id="edge13" class="edge">
<title>10&#45;&#45;13</title>
<path fill="none" stroke="blue" stroke-width="3" stroke-dasharray="5,2" d="M212.89,-588.38C227.55,-595.02 299.31,-627.52 313.74,-634.05"/>
</g>
<!-- 11 -->
<g id="node12" class="node">
<title>11</title>
<g id="a_node12"><a xlink:title="Q&#45;XY(&#45;0.75)">
<ellipse fill="lightgrey" stroke="black" stroke-width="3" cx="209.27" cy="-683.2" rx="3.5" ry="3.5"/>
<text text-anchor="middle" x="209.27" y="-687.5" font-family="Times,serif" font-size="14.00">Q&#45;XY(&#45;0.75)</text>
</a>
</g>
<text text-anchor="start" x="151.27" y="-652.5" font-family="Times,serif" font-size="14.00" fill="grey">11</text>
</g>
<!-- 11&#45;&#45;13 -->
<g id="edge15" class="edge">
<title>11&#45;&#45;13</title>
<path fill="none" stroke="blue" stroke-width="3" stroke-dasharray="5,2" d="M212.89,-682.01C227.55,-675.37 299.31,-642.87 313.74,-636.34"/>
</g>
<!-- 18 -->
<g id="node19" class="node">
<title>18</title>
<g id="a_node19"><a xlink:title="Q&#45;X(0)">
<ellipse fill="lightgrey" stroke="black" stroke-width="3" cx="501.27" cy="-588.2" rx="3.5" ry="3.5"/>
<text text-anchor="middle" x="501.27" y="-592.5" font-family="Times,serif" font-size="14.00">Q&#45;X(0)</text>
</a>
</g>
<text text-anchor="start" x="459.27" y="-557.5" font-family="Times,serif" font-size="14.00" fill="grey">18</text>
</g>
<!-- 12&#45;&#45;18 -->
<g id="edge19" class="edge">
<title>12&#45;&#45;18</title>
<path fill="none" stroke="blue" stroke-width="3" stroke-dasharray="5,2" d="M412.86,-610.53C425.89,-607.2 484.04,-592.34 497.49,-588.91"/>
</g>
<!-- 13&#45;&#45;12 -->
<g id="edge16" class="edge">
<title>13&#45;&#45;12</title>
<path fill="none" stroke="blue" stroke-width="3" stroke-dasharray="5,2" d="M320.86,-634.5C333.89,-631.03 392.04,-615.52 405.49,-611.94"/>
</g>
<!-- 16 -->
<g id="node17" class="node">
<title>16</title>
<g id="a_node17"><a xlink:title="Q&#45;Y(1)">
<ellipse fill="lightgrey" stroke="black" stroke-width="3" cx="80.52" cy="-682.2" rx="3.5" ry="3.5"/>
<text text-anchor="middle" x="80.52" y="-686.5" font-family="Times,serif" font-size="14.00">Q&#45;Y(1)</text>
</a>
</g>
<text text-anchor="start" x="38.52" y="-651.5" font-family="Times,serif" font-size="14.00" fill="grey">16</text>
</g>
<!-- 16&#45;&#45;10 -->
<g id="edge9" class="edge">
<title>16&#45;&#45;10</title>
<path fill="none" stroke="blue" stroke-width="3" stroke-dasharray="5,2" d="M84.23,-680.86C91.72,-677.13 113.19,-666.07 129.27,-654.2 146.73,-641.3 148.74,-635.27 165.27,-621.2 180.34,-608.36 199.31,-593.94 205.89,-588.98"/>
</g>
<!-- 16&#45;&#45;11 -->
<g id="edge10" class="edge">
<title>16&#45;&#45;11</title>
<path fill="none" stroke="blue" stroke-width="3" stroke-dasharray="5,2" d="M84.17,-682.22C100.66,-682.35 189.18,-683.05 205.64,-683.18"/>
</g>
<!-- 16&#45;&#45;12 -->
<g id="edge12" class="edge">
<title>16&#45;&#45;12</title>
<path fill="none" stroke="blue" stroke-width="3" stroke-dasharray="5,2" d="M84.04,-683.46C94.01,-688.4 131.79,-706.38 165.27,-712.2 203.8,-718.89 215.28,-721.51 253.27,-712.2 325.64,-694.45 394.14,-625.92 406.34,-613.22"/>
</g>
<!-- 16&#45;&#45;13 -->
<g id="edge11" class="edge">
<title>16&#45;&#45;13</title>
<path fill="none" stroke="blue" stroke-width="3" stroke-dasharray="5,2" d="M84.08,-681.18C94.2,-677.22 132.48,-662.59 165.27,-655.2 224.6,-641.82 299.21,-636.33 313.75,-635.36"/>
</g>
<!-- 20 -->
<g id="node21" class="node">
<title>20</title>
<g id="a_node21"><a xlink:title="Q&#45;X(0)">
<ellipse fill="lightgrey" stroke="black" stroke-width="3" cx="209.27" cy="-491.2" rx="3.5" ry="3.5"/>
<text text-anchor="middle" x="209.27" y="-495.5" font-family="Times,serif" font-size="14.00">Q&#45;X(0)</text>
</a>
</g>
<text text-anchor="start" x="167.27" y="-460.5" font-family="Times,serif" font-size="14.00" fill="grey">20</text>
</g>
<!-- 16&#45;&#45;20 -->
<g id="edge22" class="edge">
<title>16&#45;&#45;20</title>
<path fill="none" stroke="blue" stroke-width="3" stroke-dasharray="5,2" d="M84.1,-681.38C92.01,-678.75 116.12,-669.76 129.27,-654.2 158.4,-619.7 145.1,-599.59 165.27,-559.2 178.74,-532.2 200.09,-502.35 206.43,-493.68"/>
</g>
<!-- 17 -->
<g id="node18" class="node">
<title>17</title>
<g id="a_node18"><a xlink:title="Q&#45;Y(0)">
<ellipse fill="lightgrey" stroke="black" stroke-width="3" cx="80.52" cy="-188.2" rx="3.5" ry="3.5"/>
<text text-anchor="middle" x="80.52" y="-192.5" font-family="Times,serif" font-size="14.00">Q&#45;Y(0)</text>
</a>
</g>
<text text-anchor="start" x="38.52" y="-157.5" font-family="Times,serif" font-size="14.00" fill="grey">17</text>
</g>
<!-- 17&#45;&#45;8 -->
<g id="edge17" class="edge">
<title>17&#45;&#45;8</title>
<path fill="none" stroke="blue" stroke-width="3" stroke-dasharray="5,2" d="M83.99,-189.17C91.58,-192.26 114.87,-202.52 129.27,-217.2 172.86,-261.65 201.47,-334.8 207.2,-350.27"/>
</g>
<!-- 17&#45;&#45;14 -->
<g id="edge18" class="edge">
<title>17&#45;&#45;14</title>
<path fill="none" stroke="blue" stroke-width="3" stroke-dasharray="5,2" d="M84.16,-189.05C108.24,-196.84 289.66,-255.58 313.65,-263.35"/>
</g>
<!-- 22 -->
<g id="node23" class="node">
<title>22</title>
<g id="a_node23"><a xlink:title="Q&#45;X(0)">
<ellipse fill="lightgrey" stroke="black" stroke-width="3" cx="209.27" cy="-172.2" rx="3.5" ry="3.5"/>
<text text-anchor="middle" x="209.27" y="-176.5" font-family="Times,serif" font-size="14.00">Q&#45;X(0)</text>
</a>
</g>
<text text-anchor="start" x="167.27" y="-141.5" font-family="Times,serif" font-size="14.00" fill="grey">22</text>
</g>
<!-- 17&#45;&#45;22 -->
<g id="edge25" class="edge">
<title>17&#45;&#45;22</title>
<path fill="none" stroke="blue" stroke-width="3" stroke-dasharray="5,2" d="M84.17,-187.86C100.66,-185.78 189.18,-174.61 205.64,-172.53"/>
</g>
<!-- 19 -->
<g id="node20" class="node">
<title>19</title>
<g id="a_node20"><a xlink:title="Q&#45;X(0)">
<ellipse fill="lightgrey" stroke="black" stroke-width="3" cx="593.27" cy="-541.2" rx="3.5" ry="3.5"/>
<text text-anchor="middle" x="593.27" y="-545.5" font-family="Times,serif" font-size="14.00">Q&#45;X(0)</text>
</a>
</g>
<text text-anchor="start" x="551.27" y="-510.5" font-family="Times,serif" font-size="14.00" fill="grey">19</text>
</g>
<!-- 18&#45;&#45;19 -->
<g id="edge20" class="edge">
<title>18&#45;&#45;19</title>
<path fill="none" stroke="blue" stroke-width="3" stroke-dasharray="5,2" d="M504.86,-586.84C518.01,-579.98 577.07,-549.13 589.83,-542.47"/>
</g>
<!-- 19&#45;&#45;5 -->
<g id="edge21" class="edge">
<title>19&#45;&#45;5</title>
<path fill="none" stroke="black" stroke-width="3" d="M594.61,-537.9C596.89,-517.13 611.21,-402.69 657.27,-324.2 662.44,-315.39 669.39,-306.97 676.55,-299.54"/>
</g>
<!-- 21 -->
<g id="node22" class="node">
<title>21</title>
<g id="a_node22"><a xlink:title="Q&#45;X(0)">
<ellipse fill="lightgrey" stroke="black" stroke-width="3" cx="409.27" cy="-340.2" rx="3.5" ry="3.5"/>
<text text-anchor="middle" x="409.27" y="-344.5" font-family="Times,serif" font-size="14.00">Q&#45;X(0)</text>
</a>
</g>
<text text-anchor="start" x="367.27" y="-309.5" font-family="Times,serif" font-size="14.00" fill="grey">21</text>
</g>
<!-- 20&#45;&#45;21 -->
<g id="edge23" class="edge">
<title>20&#45;&#45;21</title>
<path fill="none" stroke="blue" stroke-width="3" stroke-dasharray="5,2" d="M212.49,-489.5C232.8,-474.01 385.83,-357.31 406.06,-341.88"/>
</g>
<!-- 21&#45;&#45;6 -->
<g id="edge24" class="edge">
<title>21&#45;&#45;6</title>
<path fill="none" stroke="black" stroke-width="3" d="M412.86,-338.68C435.25,-325.59 597.28,-230.85 672,-187.16"/>
</g>
<!-- 23 -->
<g id="node24" class="node">
<title>23</title>
<g id="a_node24"><a xlink:title="Q&#45;X(0)">
<ellipse fill="lightgrey" stroke="black" stroke-width="3" cx="501.27" cy="-80.2" rx="3.5" ry="3.5"/>
<text text-anchor="middle" x="501.27" y="-84.5" font-family="Times,serif" font-size="14.00">Q&#45;X(0)</text>
</a>
</g>
<text text-anchor="start" x="459.27" y="-49.5" font-family="Times,serif" font-size="14.00" fill="grey">23</text>
</g>
<!-- 22&#45;&#45;23 -->
<g id="edge26" class="edge">
<title>22&#45;&#45;23</title>
<path fill="none" stroke="blue" stroke-width="3" stroke-dasharray="5,2" d="M212.78,-171.4C239.46,-162.94 470.69,-89.58 497.7,-81.01"/>
</g>
<!-- 23&#45;&#45;7 -->
<g id="edge27" class="edge">
<title>23&#45;&#45;7</title>
<path fill="none" stroke="black" stroke-width="3" d="M504.89,-79.93C521.34,-78.26 611.43,-69.14 666.46,-63.56"/>
</g>
<!-- input_rank -->
<g id="node25" class="node">
<title>input_rank</title>
</g>
<!-- input_rank&#45;&#45;0 -->
<!-- output_rank -->
<g id="node26" class="node">
<title>output_rank</title>
</g>
<!-- input_rank&#45;&#45;output_rank -->
<!-- output_rank&#45;&#45;4 -->
</g>
</svg>
