<?xml version="1.0" encoding="UTF-8" standalone="no"?>
<!DOCTYPE svg PUBLIC "-//W3C//DTD SVG 1.1//EN"
 "http://www.w3.org/Graphics/SVG/1.1/DTD/svg11.dtd">
<!-- Generated by graphviz version 2.50.0 (0)
 -->
<!-- Title: G Pages: 1 -->
<svg width="499pt" height="271pt"
 viewBox="0.00 0.00 499.38 271.20" xmlns="http://www.w3.org/2000/svg" xmlns:xlink="http://www.w3.org/1999/xlink">
<g id="graph0" class="graph" transform="scale(1 1) rotate(0) translate(4 267.2)">
<title>G</title>
<polygon fill="white" stroke="transparent" points="-4,4 -4,-267.2 495.38,-267.2 495.38,4 -4,4"/>
<!-- 0 -->
<g id="node1" class="node">
<title>0</title>
<g id="a_node1"><a xlink:title="Q&#45;Input">
<ellipse fill="white" stroke="black" stroke-width="3" stroke-dasharray="5,2" cx="48.75" cy="-166.2" rx="38.19" ry="38.19"/>
<text text-anchor="middle" x="48.75" y="-162.5" font-family="Times,serif" font-size="14.00">Q&#45;Input</text>
</a>
</g>
<text text-anchor="start" x="3.4" y="-116.65" font-family="Times,serif" font-size="14.00" fill="grey">0</text>
</g>
<!-- 1 -->
<g id="node2" class="node">
<title>1</title>
<g id="a_node2"><a xlink:title="Q&#45;Input">
<ellipse fill="white" stroke="black" stroke-width="3" stroke-dasharray="5,2" cx="48.75" cy="-71.2" rx="38.19" ry="38.19"/>
<text text-anchor="middle" x="48.75" y="-67.5" font-family="Times,serif" font-size="14.00">Q&#45;Input</text>
</a>
</g>
<text text-anchor="start" x="3.4" y="-21.65" font-family="Times,serif" font-size="14.00" fill="grey">1</text>
</g>
<!-- 0&#45;&#45;1 -->
<!-- 4 -->
<g id="node5" class="node">
<title>4</title>
<g id="a_node5"><a xlink:title="Q&#45;Z(0.0)">
<ellipse fill="green" stroke="black" stroke-width="3" cx="151.49" cy="-165.2" rx="18" ry="18"/>
</a>
</g>
<text text-anchor="start" x="126.49" y="-136" font-family="Times,serif" font-size="14.00" fill="grey">4</text>
</g>
<!-- 0&#45;&#45;4 -->
<g id="edge1" class="edge">
<title>0&#45;&#45;4</title>
<path fill="none" stroke="black" stroke-width="3" d="M87.26,-165.82C103.04,-165.67 120.62,-165.49 133.23,-165.37"/>
</g>
<!-- 5 -->
<g id="node6" class="node">
<title>5</title>
<g id="a_node6"><a xlink:title="Q&#45;Z(0.0)">
<ellipse fill="green" stroke="black" stroke-width="3" cx="232.14" cy="-71.2" rx="18" ry="18"/>
</a>
</g>
<text text-anchor="start" x="207.14" y="-42" font-family="Times,serif" font-size="14.00" fill="grey">5</text>
</g>
<!-- 1&#45;&#45;5 -->
<g id="edge2" class="edge">
<title>1&#45;&#45;5</title>
<path fill="none" stroke="black" stroke-width="3" d="M87.33,-71.2C126.14,-71.2 184.99,-71.2 213.89,-71.2"/>
</g>
<!-- 2 -->
<g id="node3" class="node">
<title>2</title>
<g id="a_node3"><a xlink:title="Q&#45;Output">
<ellipse fill="white" stroke="black" stroke-width="3" stroke-dasharray="5,2" cx="438.08" cy="-165.2" rx="44.39" ry="44.39"/>
<text text-anchor="middle" x="438.08" y="-161.5" font-family="Times,serif" font-size="14.00">Q&#45;Output</text>
</a>
</g>
<text text-anchor="start" x="386.89" y="-109.8" font-family="Times,serif" font-size="14.00" fill="grey">2</text>
</g>
<!-- 3 -->
<g id="node4" class="node">
<title>3</title>
<g id="a_node4"><a xlink:title="C&#45;Output">
<ellipse fill="white" stroke="black" stroke-dasharray="5,2" cx="438.08" cy="-59.2" rx="44.39" ry="44.39"/>
<text text-anchor="middle" x="438.08" y="-55.5" font-family="Times,serif" font-size="14.00">C&#45;Output</text>
</a>
</g>
<text text-anchor="start" x="386.89" y="-3.8" font-family="Times,serif" font-size="14.00" fill="grey">3</text>
</g>
<!-- 2&#45;&#45;3 -->
<!-- 4&#45;&#45;5 -->
<g id="edge3" class="edge">
<title>4&#45;&#45;5</title>
<path fill="none" stroke="blue" stroke-width="3" stroke-dasharray="5,2" d="M163.76,-151.73C178.71,-133.86 204.95,-102.5 219.89,-84.64"/>
</g>
<!-- 6 -->
<g id="node7" class="node">
<title>6</title>
<g id="a_node7"><a xlink:title="Q&#45;X(0.25)">
<ellipse fill="red" stroke="black" stroke-width="3" cx="232.14" cy="-165.2" rx="26.8" ry="26.8"/>
<text text-anchor="middle" x="232.14" y="-161.5" font-family="Times,serif" font-size="14.00">0.25</text>
</a>
</g>
<text text-anchor="start" x="198.49" y="-127.35" font-family="Times,serif" font-size="14.00" fill="grey">6</text>
</g>
<!-- 4&#45;&#45;6 -->
<g id="edge4" class="edge">
<title>4&#45;&#45;6</title>
<path fill="none" stroke="black" stroke-width="3" d="M169.56,-165.2C180.04,-165.2 193.66,-165.2 205.43,-165.2"/>
</g>
<!-- 7 -->
<g id="node8" class="node">
<title>7</title>
<g id="a_node8"><a xlink:title="C&#45;X(0.0)">
<ellipse fill="red" stroke="black" cx="321.79" cy="-64.2" rx="18" ry="18"/>
</a>
</g>
<text text-anchor="start" x="296.79" y="-35" font-family="Times,serif" font-size="14.00" fill="grey">7</text>
</g>
<!-- 5&#45;&#45;7 -->
<g id="edge7" class="edge">
<title>5&#45;&#45;7</title>
<path fill="none" stroke="black" stroke-width="3" d="M250.46,-69.81C265.92,-68.58 288.44,-66.78 303.8,-65.55"/>
</g>
<!-- 8 -->
<g id="node9" class="node">
<title>8</title>
<g id="a_node9"><a xlink:title="Box">
<polygon fill="lightgrey" stroke="black" stroke-width="2" points="348.79,-183.2 298.79,-183.2 294.79,-179.2 294.79,-147.2 344.79,-147.2 348.79,-151.2 348.79,-183.2"/>
<polyline fill="none" stroke="black" stroke-width="2" points="344.79,-179.2 294.79,-179.2 "/>
<polyline fill="none" stroke="black" stroke-width="2" points="344.79,-179.2 344.79,-147.2 "/>
<polyline fill="none" stroke="black" stroke-width="2" points="344.79,-179.2 348.79,-183.2 "/>
<text text-anchor="middle" x="321.79" y="-161.5" font-family="Times,serif" font-size="14.00">Box</text>
</a>
</g>
<text text-anchor="start" x="287.79" y="-136" font-family="Times,serif" font-size="14.00" fill="grey">8</text>
</g>
<!-- 6&#45;&#45;8 -->
<g id="edge5" class="edge">
<title>6&#45;&#45;8</title>
<path fill="none" stroke="black" stroke-width="3" d="M258.96,-165.2C270.17,-165.2 283.28,-165.2 294.54,-165.2"/>
<text text-anchor="middle" x="291.04" y="-154" font-family="Times,serif" font-size="14.00">0</text>
</g>
<!-- 7&#45;&#45;3 -->
<g id="edge8" class="edge">
<title>7&#45;&#45;3</title>
<path fill="none" stroke="blue" stroke-dasharray="5,2" d="M340.15,-63.44C354.38,-62.81 375.16,-61.9 393.84,-61.09"/>
</g>
<!-- 8&#45;&#45;2 -->
<g id="edge6" class="edge">
<title>8&#45;&#45;2</title>
<path fill="none" stroke="black" stroke-width="3" d="M349.01,-165.2C362.19,-165.2 378.51,-165.2 393.51,-165.2"/>
<text text-anchor="middle" x="352.51" y="-154" font-family="Times,serif" font-size="14.00">1</text>
</g>
<!-- input_rank -->
<g id="node10" class="node">
<title>input_rank</title>
</g>
<!-- input_rank&#45;&#45;0 -->
<!-- output_rank -->
<g id="node11" class="node">
<title>output_rank</title>
</g>
<!-- input_rank&#45;&#45;output_rank -->
<!-- output_rank&#45;&#45;2 -->
</g>
</svg>
