<?xml version="1.0" encoding="UTF-8" standalone="no"?>
<!DOCTYPE svg PUBLIC "-//W3C//DTD SVG 1.1//EN"
 "http://www.w3.org/Graphics/SVG/1.1/DTD/svg11.dtd">
<!-- Generated by graphviz version 2.43.0 (0)
 -->
<!-- Title: Circuit Pages: 1 -->
<svg width="219pt" height="109pt"
 viewBox="0.00 0.00 219.00 109.00" xmlns="http://www.w3.org/2000/svg" xmlns:xlink="http://www.w3.org/1999/xlink">
<g id="graph0" class="graph" transform="scale(1 1) rotate(0) translate(4 105)">
<title>Circuit</title>
<polygon fill="white" stroke="transparent" points="-4,4 -4,-105 215,-105 215,4 -4,4"/>
<g id="clust1" class="cluster">
<title>cluster_q_inputs</title>
<path fill="lightgrey" stroke="lightgrey" d="M18.53,-12C18.53,-12 23.07,-12 23.07,-12 25.33,-12 27.6,-14.27 27.6,-16.53 27.6,-16.53 27.6,-51.47 27.6,-51.47 27.6,-53.73 25.33,-56 23.07,-56 23.07,-56 18.53,-56 18.53,-56 16.27,-56 14,-53.73 14,-51.47 14,-51.47 14,-16.53 14,-16.53 14,-14.27 16.27,-12 18.53,-12"/>
</g>
<g id="clust4" class="cluster">
<title>cluster_q_outputs</title>
<path fill="lightgrey" stroke="lightgrey" d="M193.93,-12C193.93,-12 198.47,-12 198.47,-12 200.73,-12 203,-14.27 203,-16.53 203,-16.53 203,-51.47 203,-51.47 203,-53.73 200.73,-56 198.47,-56 198.47,-56 193.93,-56 193.93,-56 191.67,-56 189.4,-53.73 189.4,-51.47 189.4,-51.47 189.4,-16.53 189.4,-16.53 189.4,-14.27 191.67,-12 193.93,-12"/>
</g>
<g id="clust7" class="cluster">
<title>cluster_6</title>
<path fill="lightblue" stroke="lightblue" d="M49.8,-27C49.8,-27 60,-27 60,-27 65.1,-27 70.2,-32.1 70.2,-37.2 70.2,-37.2 70.2,-64.8 70.2,-64.8 70.2,-69.9 65.1,-75 60,-75 60,-75 49.8,-75 49.8,-75 44.7,-75 39.6,-69.9 39.6,-64.8 39.6,-64.8 39.6,-37.2 39.6,-37.2 39.6,-32.1 44.7,-27 49.8,-27"/>
<text text-anchor="middle" x="54.9" y="-63" font-family="Times,serif" font-size="10.00">CX</text>
</g>
<g id="clust8" class="cluster">
<title>cluster_7</title>
<path fill="lightblue" stroke="lightblue" d="M92.4,-8C92.4,-8 102.6,-8 102.6,-8 107.7,-8 112.8,-13.1 112.8,-18.2 112.8,-18.2 112.8,-45.8 112.8,-45.8 112.8,-50.9 107.7,-56 102.6,-56 102.6,-56 92.4,-56 92.4,-56 87.3,-56 82.2,-50.9 82.2,-45.8 82.2,-45.8 82.2,-18.2 82.2,-18.2 82.2,-13.1 87.3,-8 92.4,-8"/>
<text text-anchor="middle" x="97.5" y="-44" font-family="Times,serif" font-size="10.00">CZ</text>
</g>
<g id="clust9" class="cluster">
<title>cluster_8</title>
<path fill="lightblue" stroke="lightblue" d="M147.33,-27C147.33,-27 154.87,-27 154.87,-27 158.63,-27 162.4,-30.77 162.4,-34.53 162.4,-34.53 162.4,-52.47 162.4,-52.47 162.4,-56.23 158.63,-60 154.87,-60 154.87,-60 147.33,-60 147.33,-60 143.57,-60 139.8,-56.23 139.8,-52.47 139.8,-52.47 139.8,-34.53 139.8,-34.53 139.8,-30.77 143.57,-27 147.33,-27"/>
<text text-anchor="middle" x="151.1" y="-48" font-family="Times,serif" font-size="10.00">X</text>
</g>
<g id="clust10" class="cluster">
<title>cluster_9</title>
<path fill="lightblue" stroke="lightblue" d="M135.8,-60C135.8,-60 166.4,-60 166.4,-60 171.9,-60 177.4,-65.5 177.4,-71 177.4,-71 177.4,-82 177.4,-82 177.4,-87.5 171.9,-93 166.4,-93 166.4,-93 135.8,-93 135.8,-93 130.3,-93 124.8,-87.5 124.8,-82 124.8,-82 124.8,-71 124.8,-71 124.8,-65.5 130.3,-60 135.8,-60"/>
<text text-anchor="middle" x="151.1" y="-81" font-family="Times,serif" font-size="10.00">Rx(0.3)</text>
</g>
<!-- (0, 0) -->
<g id="node1" class="node">
<title>(0, 0)</title>
<ellipse fill="blue" stroke="blue" cx="20.8" cy="-49" rx="1.8" ry="1.8"/>
<text text-anchor="middle" x="9.5" y="-40.8" font-family="Courier,monospace" font-size="8.00">q[0]</text>
</g>
<!-- (6, 0) -->
<g id="node7" class="node">
<title>(6, 0)</title>
<ellipse fill="black" stroke="black" cx="54.4" cy="-49" rx="1.8" ry="1.8"/>
<text text-anchor="middle" x="49.6" y="-40.8" font-family="Helvetica,sans-Serif" font-size="8.00">0</text>
</g>
<!-- (0, 0)&#45;&gt;(6, 0) -->
<g id="edge1" class="edge">
<title>(0, 0)&#45;&gt;(6, 0)</title>
<path fill="none" stroke="blue" d="M23.16,-49C27.87,-49 43.6,-49 50.32,-49"/>
<polygon fill="blue" stroke="blue" points="52.35,-49 50.35,-50.13 51.35,-49 50.35,-49 50.35,-49 50.35,-49 51.35,-49 50.35,-47.88 52.35,-49 52.35,-49"/>
</g>
<!-- (2, 0) -->
<g id="node2" class="node">
<title>(2, 0)</title>
<ellipse fill="blue" stroke="blue" cx="20.8" cy="-34" rx="1.8" ry="1.8"/>
<text text-anchor="middle" x="9.5" y="-25.8" font-family="Courier,monospace" font-size="8.00">q[1]</text>
</g>
<!-- (6, 1) -->
<g id="node8" class="node">
<title>(6, 1)</title>
<ellipse fill="black" stroke="black" cx="54.4" cy="-34" rx="1.8" ry="1.8"/>
<text text-anchor="middle" x="49.6" y="-25.8" font-family="Helvetica,sans-Serif" font-size="8.00">1</text>
</g>
<!-- (2, 0)&#45;&gt;(6, 1) -->
<g id="edge2" class="edge">
<title>(2, 0)&#45;&gt;(6, 1)</title>
<path fill="none" stroke="blue" d="M23.16,-34C27.87,-34 43.6,-34 50.32,-34"/>
<polygon fill="blue" stroke="blue" points="52.35,-34 50.35,-35.13 51.35,-34 50.35,-34 50.35,-34 50.35,-34 51.35,-34 50.35,-32.88 52.35,-34 52.35,-34"/>
</g>
<!-- (4, 0) -->
<g id="node3" class="node">
<title>(4, 0)</title>
<ellipse fill="blue" stroke="blue" cx="20.8" cy="-19" rx="1.8" ry="1.8"/>
<text text-anchor="middle" x="9.5" y="-10.8" font-family="Courier,monospace" font-size="8.00">q[2]</text>
</g>
<!-- (7, 1) -->
<g id="node10" class="node">
<title>(7, 1)</title>
<ellipse fill="black" stroke="black" cx="97" cy="-15" rx="1.8" ry="1.8"/>
<text text-anchor="middle" x="92.2" y="-6.8" font-family="Helvetica,sans-Serif" font-size="8.00">1</text>
</g>
<!-- (4, 0)&#45;&gt;(7, 1) -->
<g id="edge3" class="edge">
<title>(4, 0)&#45;&gt;(7, 1)</title>
<path fill="none" stroke="blue" d="M22.63,-18.96C29.68,-18.58 79.35,-15.9 92.7,-15.18"/>
<polygon fill="blue" stroke="blue" points="94.86,-15.06 92.93,-16.29 93.87,-15.12 92.87,-15.17 92.87,-15.17 92.87,-15.17 93.87,-15.12 92.81,-14.05 94.86,-15.06 94.86,-15.06"/>
</g>
<!-- (1, 0) -->
<g id="node4" class="node">
<title>(1, 0)</title>
<ellipse fill="blue" stroke="blue" cx="196.2" cy="-49" rx="1.8" ry="1.8"/>
<text text-anchor="middle" x="184.9" y="-40.8" font-family="Courier,monospace" font-size="8.00">q[0]</text>
</g>
<!-- (3, 0) -->
<g id="node5" class="node">
<title>(3, 0)</title>
<ellipse fill="blue" stroke="blue" cx="196.2" cy="-34" rx="1.8" ry="1.8"/>
<text text-anchor="middle" x="184.9" y="-25.8" font-family="Courier,monospace" font-size="8.00">q[1]</text>
</g>
<!-- (5, 0) -->
<g id="node6" class="node">
<title>(5, 0)</title>
<ellipse fill="blue" stroke="blue" cx="196.2" cy="-19" rx="1.8" ry="1.8"/>
<text text-anchor="middle" x="184.9" y="-10.8" font-family="Courier,monospace" font-size="8.00">q[2]</text>
</g>
<!-- (9, 0) -->
<g id="node12" class="node">
<title>(9, 0)</title>
<ellipse fill="black" stroke="black" cx="150.6" cy="-67" rx="1.8" ry="1.8"/>
</g>
<!-- (6, 0)&#45;&gt;(9, 0) -->
<g id="edge5" class="edge">
<title>(6, 0)&#45;&gt;(9, 0)</title>
<path fill="none" stroke="blue" d="M56.41,-49.36C59.92,-50.59 71.96,-54.72 82.2,-57 106.48,-62.4 136.34,-65.67 146.24,-66.67"/>
<polygon fill="blue" stroke="blue" points="148.64,-66.91 146.54,-67.83 147.65,-66.81 146.65,-66.71 146.65,-66.71 146.65,-66.71 147.65,-66.81 146.76,-65.59 148.64,-66.91 148.64,-66.91"/>
</g>
<!-- (7, 0) -->
<g id="node9" class="node">
<title>(7, 0)</title>
<ellipse fill="black" stroke="black" cx="97" cy="-30" rx="1.8" ry="1.8"/>
<text text-anchor="middle" x="92.2" y="-21.8" font-family="Helvetica,sans-Serif" font-size="8.00">0</text>
</g>
<!-- (6, 1)&#45;&gt;(7, 0) -->
<g id="edge4" class="edge">
<title>(6, 1)&#45;&gt;(7, 0)</title>
<path fill="none" stroke="blue" d="M56.4,-33.9C61.54,-33.4 84.95,-31.09 93.15,-30.28"/>
<polygon fill="blue" stroke="blue" points="95.17,-30.08 93.29,-31.4 94.18,-30.18 93.18,-30.28 93.18,-30.28 93.18,-30.28 94.18,-30.18 93.07,-29.16 95.17,-30.08 95.17,-30.08"/>
</g>
<!-- (8, 0) -->
<g id="node11" class="node">
<title>(8, 0)</title>
<ellipse fill="black" stroke="black" cx="150.6" cy="-34" rx="1.8" ry="1.8"/>
</g>
<!-- (7, 0)&#45;&gt;(8, 0) -->
<g id="edge6" class="edge">
<title>(7, 0)&#45;&gt;(8, 0)</title>
<path fill="none" stroke="blue" d="M98.9,-30.07C104.62,-30.51 136.17,-32.96 146.4,-33.75"/>
<polygon fill="blue" stroke="blue" points="148.51,-33.92 146.43,-34.88 147.51,-33.84 146.52,-33.76 146.52,-33.76 146.52,-33.76 147.51,-33.84 146.6,-32.64 148.51,-33.92 148.51,-33.92"/>
</g>
<!-- (7, 1)&#45;&gt;(5, 0) -->
<g id="edge7" class="edge">
<title>(7, 1)&#45;&gt;(5, 0)</title>
<path fill="none" stroke="blue" d="M99.09,-15.04C108.56,-15.43 176.73,-18.24 192.12,-18.87"/>
<polygon fill="blue" stroke="blue" points="194.24,-18.96 192.19,-20 193.24,-18.92 192.24,-18.88 192.24,-18.88 192.24,-18.88 193.24,-18.92 192.29,-17.75 194.24,-18.96 194.24,-18.96"/>
</g>
<!-- (8, 0)&#45;&gt;(3, 0) -->
<g id="edge8" class="edge">
<title>(8, 0)&#45;&gt;(3, 0)</title>
<path fill="none" stroke="blue" d="M152.68,-34C158.19,-34 183.33,-34 192.14,-34"/>
<polygon fill="blue" stroke="blue" points="194.31,-34 192.31,-35.13 193.31,-34 192.31,-34 192.31,-34 192.31,-34 193.31,-34 192.31,-32.88 194.31,-34 194.31,-34"/>
</g>
<!-- (9, 0)&#45;&gt;(1, 0) -->
<g id="edge9" class="edge">
<title>(9, 0)&#45;&gt;(1, 0)</title>
<path fill="none" stroke="blue" d="M152.63,-66.9C156.19,-66.51 168.29,-64.97 177.4,-61 183.17,-58.48 189.08,-54.06 192.43,-51.34"/>
<polygon fill="blue" stroke="blue" points="194.31,-49.78 193.49,-51.93 193.54,-50.42 192.77,-51.06 192.77,-51.06 192.77,-51.06 193.54,-50.42 192.05,-50.2 194.31,-49.78 194.31,-49.78"/>
</g>
</g>
</svg>
