<?xml version="1.0" encoding="UTF-8" standalone="no"?>
<!DOCTYPE svg PUBLIC "-//W3C//DTD SVG 1.1//EN"
 "http://www.w3.org/Graphics/SVG/1.1/DTD/svg11.dtd">
<!-- Generated by graphviz version 2.43.0 (0)
 -->
<!-- Title: G Pages: 1 -->
<svg width="515pt" height="190pt"
 viewBox="0.00 0.00 514.78 189.95" xmlns="http://www.w3.org/2000/svg" xmlns:xlink="http://www.w3.org/1999/xlink">
<g id="graph0" class="graph" transform="scale(1 1) rotate(0) translate(4 185.95)">
<title>G</title>
<polygon fill="white" stroke="transparent" points="-4,4 -4,-185.95 510.78,-185.95 510.78,4 -4,4"/>
<!-- 0 -->
<g id="node1" class="node">
<title>0</title>
<g id="a_node1"><a xlink:title="Q&#45;Input">
<ellipse fill="white" stroke="black" stroke-width="3" stroke-dasharray="5,2" cx="60.44" cy="-81.95" rx="46.29" ry="46.29"/>
<text text-anchor="middle" x="60.44" y="-78.25" font-family="Times,serif" font-size="14.00">Q&#45;Input</text>
</a>
</g>
<text text-anchor="start" x="4.3" y="-24.6" font-family="Times,serif" font-size="14.00" fill="grey">0</text>
</g>
<!-- 2 -->
<g id="node3" class="node">
<title>2</title>
<g id="a_node3"><a xlink:title="Q&#45;Z(0.0)">
<ellipse fill="green" stroke="black" stroke-width="3" cx="174.89" cy="-81.95" rx="18" ry="18"/>
</a>
</g>
<text text-anchor="start" x="146.89" y="-52.75" font-family="Times,serif" font-size="14.00" fill="grey">2</text>
</g>
<!-- 0&#45;&#45;2 -->
<g id="edge1" class="edge">
<title>0&#45;&#45;2</title>
<path fill="none" stroke="black" stroke-width="3" d="M106.86,-81.95C124.41,-81.95 143.43,-81.95 156.7,-81.95"/>
</g>
<!-- 1 -->
<g id="node2" class="node">
<title>1</title>
<g id="a_node2"><a xlink:title="Q&#45;Output">
<ellipse fill="white" stroke="black" stroke-width="3" stroke-dasharray="5,2" cx="439.83" cy="-68.95" rx="53.89" ry="53.89"/>
<text text-anchor="middle" x="439.83" y="-65.25" font-family="Times,serif" font-size="14.00">Q&#45;Output</text>
</a>
</g>
<text text-anchor="start" x="375.89" y="-3.8" font-family="Times,serif" font-size="14.00" fill="grey">1</text>
</g>
<!-- 3 -->
<g id="node4" class="node">
<title>3</title>
<g id="a_node4"><a xlink:title="Q&#45;X(0.0)">
<ellipse fill="red" stroke="black" stroke-width="3" cx="246.89" cy="-117.95" rx="18" ry="18"/>
</a>
</g>
<text text-anchor="start" x="218.89" y="-88.75" font-family="Times,serif" font-size="14.00" fill="grey">3</text>
</g>
<!-- 2&#45;&#45;3 -->
<g id="edge2" class="edge">
<title>2&#45;&#45;3</title>
<path fill="none" stroke="black" stroke-width="3" d="M191.42,-89.93C203.02,-95.9 218.81,-104.02 230.4,-109.98"/>
</g>
<!-- 5 -->
<g id="node6" class="node">
<title>5</title>
<g id="a_node6"><a xlink:title="C&#45;X(0.0)">
<ellipse fill="red" stroke="black" cx="246.89" cy="-63.95" rx="18" ry="18"/>
</a>
</g>
<text text-anchor="start" x="218.89" y="-34.75" font-family="Times,serif" font-size="14.00" fill="grey">5</text>
</g>
<!-- 2&#45;&#45;5 -->
<g id="edge3" class="edge">
<title>2&#45;&#45;5</title>
<path fill="none" stroke="black" stroke-width="3" d="M192.48,-77.68C203.48,-74.85 217.86,-71.15 228.93,-68.31"/>
</g>
<!-- 4 -->
<g id="node5" class="node">
<title>4</title>
<g id="a_node5"><a xlink:title="C&#45;Z(0.0)">
<ellipse fill="green" stroke="black" cx="318.89" cy="-117.95" rx="18" ry="18"/>
</a>
</g>
<text text-anchor="start" x="290.89" y="-88.75" font-family="Times,serif" font-size="14.00" fill="grey">4</text>
</g>
<!-- 3&#45;&#45;4 -->
<g id="edge4" class="edge">
<title>3&#45;&#45;4</title>
<path fill="none" stroke="black" stroke-width="3" d="M264.12,-112.14C275.43,-110.88 290.45,-110.88 301.74,-112.15"/>
</g>
<!-- 6 -->
<g id="node7" class="node">
<title>6</title>
<g id="a_node7"><a xlink:title="Q&#45;Z(0.0)">
<ellipse fill="green" stroke="black" stroke-width="3" cx="318.89" cy="-63.95" rx="18" ry="18"/>
</a>
</g>
<text text-anchor="start" x="290.89" y="-34.75" font-family="Times,serif" font-size="14.00" fill="grey">6</text>
</g>
<!-- 3&#45;&#45;6 -->
<g id="edge6" class="edge">
<title>3&#45;&#45;6</title>
<path fill="none" stroke="black" stroke-width="3" d="M261.72,-107.28C273.99,-97.81 291.82,-84.05 304.09,-74.59"/>
</g>
<!-- 4&#45;&#45;3 -->
<g id="edge7" class="edge">
<title>4&#45;&#45;3</title>
<path fill="none" stroke="black" stroke-width="3" d="M301.74,-123.74C290.45,-125.01 275.43,-125.01 264.12,-123.75"/>
</g>
<!-- 5&#45;&#45;6 -->
<g id="edge8" class="edge">
<title>5&#45;&#45;6</title>
<path fill="none" stroke="black" stroke-width="3" d="M265.19,-63.95C276.04,-63.95 289.97,-63.95 300.78,-63.95"/>
</g>
<!-- 6&#45;&#45;1 -->
<g id="edge5" class="edge">
<title>6&#45;&#45;1</title>
<path fill="none" stroke="black" stroke-width="3" d="M336.93,-64.66C349.78,-65.2 368.14,-65.97 385.74,-66.71"/>
</g>
<!-- input_rank -->
<g id="node8" class="node">
<title>input_rank</title>
</g>
<!-- input_rank&#45;&#45;0 -->
<!-- output_rank -->
<g id="node9" class="node">
<title>output_rank</title>
</g>
<!-- input_rank&#45;&#45;output_rank -->
<!-- output_rank&#45;&#45;1 -->
</g>
</svg>
