<?xml version="1.0" encoding="UTF-8" standalone="no"?>
<!DOCTYPE svg PUBLIC "-//W3C//DTD SVG 1.1//EN"
 "http://www.w3.org/Graphics/SVG/1.1/DTD/svg11.dtd">
<!-- Generated by graphviz version 2.43.0 (0)
 -->
<!-- Title: G Pages: 1 -->
<svg width="657pt" height="769pt"
 viewBox="0.00 0.00 657.26 768.85" xmlns="http://www.w3.org/2000/svg" xmlns:xlink="http://www.w3.org/1999/xlink">
<g id="graph0" class="graph" transform="scale(1 1) rotate(0) translate(4 764.85)">
<title>G</title>
<polygon fill="white" stroke="transparent" points="-4,4 -4,-764.85 653.26,-764.85 653.26,4 -4,4"/>
<!-- 0 -->
<g id="node1" class="node">
<title>0</title>
<g id="a_node1"><a xlink:title="Q&#45;Input">
<ellipse fill="white" stroke="black" stroke-width="3" stroke-dasharray="5,2" cx="60.44" cy="-468.85" rx="46.29" ry="46.29"/>
<text text-anchor="middle" x="60.44" y="-465.15" font-family="Times,serif" font-size="14.00">Q&#45;Input</text>
</a>
</g>
<text text-anchor="start" x="4.3" y="-411.5" font-family="Times,serif" font-size="14.00" fill="grey">0</text>
</g>
<!-- 1 -->
<g id="node2" class="node">
<title>1</title>
<g id="a_node2"><a xlink:title="Q&#45;Input">
<ellipse fill="white" stroke="black" stroke-width="3" stroke-dasharray="5,2" cx="60.44" cy="-358.85" rx="46.29" ry="46.29"/>
<text text-anchor="middle" x="60.44" y="-355.15" font-family="Times,serif" font-size="14.00">Q&#45;Input</text>
</a>
</g>
<text text-anchor="start" x="4.3" y="-301.5" font-family="Times,serif" font-size="14.00" fill="grey">1</text>
</g>
<!-- 0&#45;&#45;1 -->
<!-- 8 -->
<g id="node9" class="node">
<title>8</title>
<g id="a_node9"><a xlink:title="Q&#45;Z(1.5)">
<ellipse fill="green" stroke="black" stroke-width="3" cx="444.67" cy="-111.85" rx="25.2" ry="25.2"/>
<text text-anchor="middle" x="444.67" y="-108.15" font-family="Times,serif" font-size="14.00">1.5</text>
</a>
</g>
<text text-anchor="start" x="409.32" y="-75.3" font-family="Times,serif" font-size="14.00" fill="grey">8</text>
</g>
<!-- 0&#45;&#45;8 -->
<g id="edge1" class="edge">
<title>0&#45;&#45;8</title>
<path fill="none" stroke="black" stroke-width="3" d="M98.09,-442.15C106.86,-434.02 115.29,-424.41 120.89,-413.85 170.97,-319.32 83.91,-254.08 156.89,-175.85 175.03,-156.41 353.85,-126.18 419.59,-115.63"/>
</g>
<!-- 2 -->
<g id="node3" class="node">
<title>2</title>
<g id="a_node3"><a xlink:title="Q&#45;Input">
<ellipse fill="white" stroke="black" stroke-width="3" stroke-dasharray="5,2" cx="60.44" cy="-248.85" rx="46.29" ry="46.29"/>
<text text-anchor="middle" x="60.44" y="-245.15" font-family="Times,serif" font-size="14.00">Q&#45;Input</text>
</a>
</g>
<text text-anchor="start" x="4.3" y="-191.5" font-family="Times,serif" font-size="14.00" fill="grey">2</text>
</g>
<!-- 1&#45;&#45;2 -->
<!-- 10 -->
<g id="node11" class="node">
<title>10</title>
<g id="a_node11"><a xlink:title="Q&#45;Z(1.0)">
<ellipse fill="green" stroke="black" stroke-width="3" cx="444.67" cy="-373.85" rx="25.2" ry="25.2"/>
<text text-anchor="middle" x="444.67" y="-370.15" font-family="Times,serif" font-size="14.00">1.0</text>
</a>
</g>
<text text-anchor="start" x="400.32" y="-337.3" font-family="Times,serif" font-size="14.00" fill="grey">10</text>
</g>
<!-- 1&#45;&#45;10 -->
<g id="edge2" class="edge">
<title>1&#45;&#45;10</title>
<path fill="none" stroke="black" stroke-width="3" d="M106.79,-360.63C188.07,-363.82 355.94,-370.41 419,-372.88"/>
</g>
<!-- 3 -->
<g id="node4" class="node">
<title>3</title>
<g id="a_node4"><a xlink:title="Q&#45;Input">
<ellipse fill="white" stroke="black" stroke-width="3" stroke-dasharray="5,2" cx="60.44" cy="-65.85" rx="46.29" ry="46.29"/>
<text text-anchor="middle" x="60.44" y="-62.15" font-family="Times,serif" font-size="14.00">Q&#45;Input</text>
</a>
</g>
<text text-anchor="start" x="4.3" y="-8.5" font-family="Times,serif" font-size="14.00" fill="grey">3</text>
</g>
<!-- 2&#45;&#45;3 -->
<!-- 13 -->
<g id="node14" class="node">
<title>13</title>
<g id="a_node14"><a xlink:title="Q&#45;Z(0.5)">
<ellipse fill="green" stroke="black" stroke-width="3" cx="537.22" cy="-320.85" rx="25.2" ry="25.2"/>
<text text-anchor="middle" x="537.22" y="-317.15" font-family="Times,serif" font-size="14.00">0.5</text>
</a>
</g>
<text text-anchor="start" x="492.87" y="-284.3" font-family="Times,serif" font-size="14.00" fill="grey">13</text>
</g>
<!-- 2&#45;&#45;13 -->
<g id="edge4" class="edge">
<title>2&#45;&#45;13</title>
<path fill="none" stroke="black" stroke-width="3" d="M98.69,-274.75C115.66,-285.14 136.48,-296.02 156.89,-301.85 286.22,-338.83 450.31,-328.94 511.63,-323.39"/>
</g>
<!-- 14 -->
<g id="node15" class="node">
<title>14</title>
<g id="a_node15"><a xlink:title="Q&#45;Z(0.5)">
<ellipse fill="green" stroke="black" stroke-width="3" cx="537.22" cy="-58.85" rx="25.2" ry="25.2"/>
<text text-anchor="middle" x="537.22" y="-55.15" font-family="Times,serif" font-size="14.00">0.5</text>
</a>
</g>
<text text-anchor="start" x="492.87" y="-22.3" font-family="Times,serif" font-size="14.00" fill="grey">14</text>
</g>
<!-- 3&#45;&#45;14 -->
<g id="edge5" class="edge">
<title>3&#45;&#45;14</title>
<path fill="none" stroke="black" stroke-width="3" d="M98.49,-38.97C115.42,-28.29 136.27,-17.28 156.89,-11.85 288.76,22.87 453.35,-28.44 513.15,-50.03"/>
</g>
<!-- 4 -->
<g id="node5" class="node">
<title>4</title>
<g id="a_node5"><a xlink:title="Q&#45;Output">
<ellipse fill="white" stroke="black" stroke-width="3" stroke-dasharray="5,2" cx="223.83" cy="-652.85" rx="53.89" ry="53.89"/>
<text text-anchor="middle" x="223.83" y="-649.15" font-family="Times,serif" font-size="14.00">Q&#45;Output</text>
</a>
</g>
<text text-anchor="start" x="159.89" y="-587.71" font-family="Times,serif" font-size="14.00" fill="grey">4</text>
</g>
<!-- 5 -->
<g id="node6" class="node">
<title>5</title>
<g id="a_node6"><a xlink:title="Q&#45;Output">
<ellipse fill="white" stroke="black" stroke-width="3" stroke-dasharray="5,2" cx="223.83" cy="-526.85" rx="53.89" ry="53.89"/>
<text text-anchor="middle" x="223.83" y="-523.15" font-family="Times,serif" font-size="14.00">Q&#45;Output</text>
</a>
</g>
<text text-anchor="start" x="159.89" y="-461.71" font-family="Times,serif" font-size="14.00" fill="grey">5</text>
</g>
<!-- 4&#45;&#45;5 -->
<!-- 15 -->
<g id="node16" class="node">
<title>15</title>
<g id="a_node16"><a xlink:title="Q&#45;Z(0.0)">
<ellipse fill="green" stroke="black" stroke-width="3" cx="352.13" cy="-607.85" rx="18" ry="18"/>
</a>
</g>
<text text-anchor="start" x="315.13" y="-578.65" font-family="Times,serif" font-size="14.00" fill="grey">15</text>
</g>
<!-- 4&#45;&#45;15 -->
<g id="edge7" class="edge">
<title>4&#45;&#45;15</title>
<path fill="none" stroke="black" stroke-width="3" d="M275.11,-634.94C296.43,-627.34 319.8,-619.01 334.92,-613.62"/>
</g>
<!-- 6 -->
<g id="node7" class="node">
<title>6</title>
<g id="a_node7"><a xlink:title="Q&#45;Output">
<ellipse fill="white" stroke="black" stroke-width="3" stroke-dasharray="5,2" cx="223.83" cy="-238.85" rx="53.89" ry="53.89"/>
<text text-anchor="middle" x="223.83" y="-235.15" font-family="Times,serif" font-size="14.00">Q&#45;Output</text>
</a>
</g>
<text text-anchor="start" x="159.89" y="-173.71" font-family="Times,serif" font-size="14.00" fill="grey">6</text>
</g>
<!-- 5&#45;&#45;6 -->
<!-- 12 -->
<g id="node13" class="node">
<title>12</title>
<g id="a_node13"><a xlink:title="Q&#45;Z(0.5)">
<ellipse fill="green" stroke="black" stroke-width="3" cx="623.91" cy="-346.85" rx="25.2" ry="25.2"/>
<text text-anchor="middle" x="623.91" y="-343.15" font-family="Times,serif" font-size="14.00">0.5</text>
</a>
</g>
<text text-anchor="start" x="579.56" y="-310.3" font-family="Times,serif" font-size="14.00" fill="grey">12</text>
</g>
<!-- 5&#45;&#45;12 -->
<g id="edge3" class="edge">
<title>5&#45;&#45;12</title>
<path fill="none" stroke="black" stroke-width="3" d="M273.25,-504.96C359.86,-465.8 538.11,-385.2 600.64,-356.92"/>
</g>
<!-- 7 -->
<g id="node8" class="node">
<title>7</title>
<g id="a_node8"><a xlink:title="Q&#45;Output">
<ellipse fill="white" stroke="black" stroke-width="3" stroke-dasharray="5,2" cx="223.83" cy="-74.85" rx="53.89" ry="53.89"/>
<text text-anchor="middle" x="223.83" y="-71.15" font-family="Times,serif" font-size="14.00">Q&#45;Output</text>
</a>
</g>
<text text-anchor="start" x="159.89" y="-9.71" font-family="Times,serif" font-size="14.00" fill="grey">7</text>
</g>
<!-- 6&#45;&#45;7 -->
<!-- 16 -->
<g id="node17" class="node">
<title>16</title>
<g id="a_node17"><a xlink:title="Q&#45;Z(0.5)">
<ellipse fill="green" stroke="black" stroke-width="3" cx="352.13" cy="-247.85" rx="25.2" ry="25.2"/>
<text text-anchor="middle" x="352.13" y="-244.15" font-family="Times,serif" font-size="14.00">0.5</text>
</a>
</g>
<text text-anchor="start" x="307.78" y="-211.3" font-family="Times,serif" font-size="14.00" fill="grey">16</text>
</g>
<!-- 6&#45;&#45;16 -->
<g id="edge8" class="edge">
<title>6&#45;&#45;16</title>
<path fill="none" stroke="black" stroke-width="3" d="M277.66,-242.62C294.69,-243.83 312.76,-245.12 326.71,-246.11"/>
</g>
<!-- 17 -->
<g id="node18" class="node">
<title>17</title>
<g id="a_node18"><a xlink:title="Q&#45;Z(1.5)">
<ellipse fill="green" stroke="black" stroke-width="3" cx="352.13" cy="-74.85" rx="25.2" ry="25.2"/>
<text text-anchor="middle" x="352.13" y="-71.15" font-family="Times,serif" font-size="14.00">1.5</text>
</a>
</g>
<text text-anchor="start" x="307.78" y="-38.3" font-family="Times,serif" font-size="14.00" fill="grey">17</text>
</g>
<!-- 7&#45;&#45;17 -->
<g id="edge9" class="edge">
<title>7&#45;&#45;17</title>
<path fill="none" stroke="black" stroke-width="3" d="M278.03,-74.85C294.88,-74.85 312.7,-74.85 326.53,-74.85"/>
</g>
<!-- 8&#45;&#45;14 -->
<g id="edge11" class="edge">
<title>8&#45;&#45;14</title>
<path fill="none" stroke="blue" stroke-width="3" stroke-dasharray="5,2" d="M467.13,-99.29C481.56,-90.84 500.51,-79.75 514.91,-71.32"/>
</g>
<!-- 9 -->
<g id="node10" class="node">
<title>9</title>
<g id="a_node10"><a xlink:title="Q&#45;Z(&#45;0.25)">
<ellipse fill="green" stroke="black" stroke-width="3" cx="223.83" cy="-420.85" rx="34.39" ry="34.39"/>
<text text-anchor="middle" x="223.83" y="-417.15" font-family="Times,serif" font-size="14.00">&#45;0.25</text>
</a>
</g>
<text text-anchor="start" x="179.39" y="-375.2" font-family="Times,serif" font-size="14.00" fill="grey">9</text>
</g>
<!-- 9&#45;&#45;8 -->
<g id="edge10" class="edge">
<title>9&#45;&#45;8</title>
<path fill="none" stroke="blue" stroke-width="3" stroke-dasharray="5,2" d="M242.35,-391.53C256.25,-367.75 275.76,-333.16 290.78,-301.85 309.05,-263.75 301.96,-248.05 326.78,-213.85 344.13,-189.94 355.18,-190.24 377.47,-170.85 393.74,-156.71 412.01,-140.39 425.23,-128.5"/>
</g>
<!-- 9&#45;&#45;15 -->
<g id="edge6" class="edge">
<title>9&#45;&#45;15</title>
<path fill="none" stroke="blue" stroke-width="3" stroke-dasharray="5,2" d="M255.32,-435.59C267.62,-442.74 281.15,-452.3 290.78,-463.85 323.06,-502.58 340.29,-561.05 347.3,-590.13"/>
</g>
<!-- 10&#45;&#45;12 -->
<g id="edge17" class="edge">
<title>10&#45;&#45;12</title>
<path fill="none" stroke="blue" stroke-width="3" stroke-dasharray="5,2" d="M469.94,-370.15C503.79,-365 564.81,-355.7 598.65,-350.55"/>
</g>
<!-- 10&#45;&#45;13 -->
<g id="edge16" class="edge">
<title>10&#45;&#45;13</title>
<path fill="none" stroke="blue" stroke-width="3" stroke-dasharray="5,2" d="M467.13,-361.29C481.56,-352.84 500.51,-341.75 514.91,-333.32"/>
</g>
<!-- 11 -->
<g id="node12" class="node">
<title>11</title>
<g id="a_node12"><a xlink:title="Q&#45;Z(0.75)">
<ellipse fill="green" stroke="black" stroke-width="3" cx="444.67" cy="-261.85" rx="31.4" ry="31.4"/>
<text text-anchor="middle" x="444.67" y="-258.15" font-family="Times,serif" font-size="14.00">0.75</text>
</a>
</g>
<text text-anchor="start" x="394.47" y="-219.45" font-family="Times,serif" font-size="14.00" fill="grey">11</text>
</g>
<!-- 11&#45;&#45;13 -->
<g id="edge18" class="edge">
<title>11&#45;&#45;13</title>
<path fill="none" stroke="blue" stroke-width="3" stroke-dasharray="5,2" d="M471.37,-278.6C485.39,-287.73 502.5,-298.88 515.62,-307.43"/>
</g>
<!-- 13&#45;&#45;12 -->
<g id="edge19" class="edge">
<title>13&#45;&#45;12</title>
<path fill="none" stroke="blue" stroke-width="3" stroke-dasharray="5,2" d="M561.81,-328.09C573.55,-331.7 587.71,-336.05 599.44,-339.65"/>
</g>
<!-- 16&#45;&#45;10 -->
<g id="edge12" class="edge">
<title>16&#45;&#45;10</title>
<path fill="none" stroke="blue" stroke-width="3" stroke-dasharray="5,2" d="M367.67,-268.09C384.57,-291.61 412.28,-330.17 429.16,-353.66"/>
</g>
<!-- 16&#45;&#45;11 -->
<g id="edge13" class="edge">
<title>16&#45;&#45;11</title>
<path fill="none" stroke="blue" stroke-width="3" stroke-dasharray="5,2" d="M377.39,-251.6C388.49,-253.32 401.77,-255.37 413.51,-257.19"/>
</g>
<!-- 16&#45;&#45;12 -->
<g id="edge15" class="edge">
<title>16&#45;&#45;12</title>
<path fill="none" stroke="blue" stroke-width="3" stroke-dasharray="5,2" d="M372.21,-232.36C383.48,-224.23 398.45,-215.09 413.47,-210.85 440.16,-203.32 449.91,-201.08 475.87,-210.85 535.91,-233.44 585.79,-294.11 608.96,-326.24"/>
</g>
<!-- 16&#45;&#45;13 -->
<g id="edge14" class="edge">
<title>16&#45;&#45;13</title>
<path fill="none" stroke="blue" stroke-width="3" stroke-dasharray="5,2" d="M374.44,-234.88C400.05,-221.13 443.58,-203.72 475.87,-221.85 504.12,-237.72 520.71,-272.78 529.13,-296.62"/>
</g>
<!-- 17&#45;&#45;8 -->
<g id="edge20" class="edge">
<title>17&#45;&#45;8</title>
<path fill="none" stroke="blue" stroke-width="3" stroke-dasharray="5,2" d="M375.97,-84.19C389.7,-89.8 407.1,-96.91 420.83,-102.52"/>
</g>
<!-- 17&#45;&#45;14 -->
<g id="edge21" class="edge">
<title>17&#45;&#45;14</title>
<path fill="none" stroke="blue" stroke-width="3" stroke-dasharray="5,2" d="M377.44,-72.73C412.46,-69.67 476.73,-64.05 511.8,-60.98"/>
</g>
<!-- input_rank -->
<g id="node19" class="node">
<title>input_rank</title>
</g>
<!-- input_rank&#45;&#45;0 -->
<!-- output_rank -->
<g id="node20" class="node">
<title>output_rank</title>
</g>
<!-- input_rank&#45;&#45;output_rank -->
<!-- output_rank&#45;&#45;4 -->
</g>
</svg>
