<?xml version="1.0" encoding="UTF-8" standalone="no"?>
<!DOCTYPE svg PUBLIC "-//W3C//DTD SVG 1.1//EN"
 "http://www.w3.org/Graphics/SVG/1.1/DTD/svg11.dtd">
<!-- Generated by graphviz version 2.40.1 (20161225.0304)
 -->
<!-- Title: Qubit connectivity Pages: 1 -->
<svg width="196pt" height="128pt"
 viewBox="0.00 0.00 196.17 127.62" xmlns="http://www.w3.org/2000/svg" xmlns:xlink="http://www.w3.org/1999/xlink">
<g id="graph0" class="graph" transform="scale(1 1) rotate(0) translate(4 123.6151)">
<title>Qubit connectivity</title>
<polygon fill="#ffffff" stroke="transparent" points="-4,4 -4,-123.6151 192.1676,-123.6151 192.1676,4 -4,4"/>
<!-- q[0] -->
<g id="node1" class="node">
<title>q[0]</title>
<ellipse fill="none" stroke="#0000ff" cx="24.1352" cy="-43.8287" rx="24.2711" ry="24.2711"/>
<text text-anchor="middle" x="24.1352" y="-41.3287" font-family="Courier,monospace" font-size="10.00" fill="#000000">q[0]</text>
</g>
<!-- q[1] -->
<g id="node2" class="node">
<title>q[1]</title>
<ellipse fill="none" stroke="#0000ff" cx="96.9505" cy="-52.274" rx="24.2711" ry="24.2711"/>
<text text-anchor="middle" x="96.9505" y="-49.774" font-family="Courier,monospace" font-size="10.00" fill="#000000">q[1]</text>
</g>
<!-- q[0]&#45;&#45;q[1] -->
<g id="edge1" class="edge">
<title>q[0]&#45;&#45;q[1]</title>
<path fill="none" stroke="#000000" d="M48.3816,-46.6408C56.1594,-47.5429 64.7738,-48.542 72.5617,-49.4453"/>
</g>
<!-- q[2] -->
<g id="node3" class="node">
<title>q[2]</title>
<ellipse fill="none" stroke="#0000ff" cx="164.0324" cy="-24.1352" rx="24.2711" ry="24.2711"/>
<text text-anchor="middle" x="164.0324" y="-21.6352" font-family="Courier,monospace" font-size="10.00" fill="#000000">q[2]</text>
</g>
<!-- q[1]&#45;&#45;q[2] -->
<g id="edge2" class="edge">
<title>q[1]&#45;&#45;q[2]</title>
<path fill="none" stroke="#000000" d="M119.2878,-42.9042C126.4532,-39.8985 134.3892,-36.5696 141.5639,-33.56"/>
</g>
<!-- q[3] -->
<g id="node4" class="node">
<title>q[3]</title>
<ellipse fill="none" stroke="#0000ff" cx="155.4963" cy="-95.4799" rx="24.2711" ry="24.2711"/>
<text text-anchor="middle" x="155.4963" y="-92.9799" font-family="Courier,monospace" font-size="10.00" fill="#000000">q[3]</text>
</g>
<!-- q[1]&#45;&#45;q[3] -->
<g id="edge3" class="edge">
<title>q[1]&#45;&#45;q[3]</title>
<path fill="none" stroke="#000000" d="M116.4454,-66.6609C122.699,-71.276 129.6252,-76.3874 135.8869,-81.0085"/>
</g>
<!-- q[2]&#45;&#45;q[3] -->
<g id="edge4" class="edge">
<title>q[2]&#45;&#45;q[3]</title>
<path fill="none" stroke="#000000" d="M161.1425,-48.2892C160.2525,-55.7275 159.273,-63.9141 158.3833,-71.3507"/>
</g>
</g>
</svg>
