<?xml version="1.0" encoding="UTF-8" standalone="no"?>
<!DOCTYPE svg PUBLIC "-//W3C//DTD SVG 1.1//EN"
 "http://www.w3.org/Graphics/SVG/1.1/DTD/svg11.dtd">
<!-- Generated by graphviz version 2.43.0 (0)
 -->
<!-- Title: Circuit Pages: 1 -->
<svg width="909pt" height="130pt"
 viewBox="0.00 0.00 909.00 130.00" xmlns="http://www.w3.org/2000/svg" xmlns:xlink="http://www.w3.org/1999/xlink">
<g id="graph0" class="graph" transform="scale(1 1) rotate(0) translate(4 126)">
<title>Circuit</title>
<polygon fill="white" stroke="transparent" points="-4,4 -4,-126 905,-126 905,4 -4,4"/>
<g id="clust1" class="cluster">
<title>cluster_q_inputs</title>
<path fill="lightgrey" stroke="lightgrey" d="M18.53,-26C18.53,-26 23.07,-26 23.07,-26 25.33,-26 27.6,-28.27 27.6,-30.53 27.6,-30.53 27.6,-65.47 27.6,-65.47 27.6,-67.73 25.33,-70 23.07,-70 23.07,-70 18.53,-70 18.53,-70 16.27,-70 14,-67.73 14,-65.47 14,-65.47 14,-30.53 14,-30.53 14,-28.27 16.27,-26 18.53,-26"/>
</g>
<g id="clust3" class="cluster">
<title>cluster_q_outputs</title>
<path fill="lightgrey" stroke="lightgrey" d="M883.93,-26C883.93,-26 888.47,-26 888.47,-26 890.73,-26 893,-28.27 893,-30.53 893,-30.53 893,-65.47 893,-65.47 893,-67.73 890.73,-70 888.47,-70 888.47,-70 883.93,-70 883.93,-70 881.67,-70 879.4,-67.73 879.4,-65.47 879.4,-65.47 879.4,-30.53 879.4,-30.53 879.4,-28.27 881.67,-26 883.93,-26"/>
</g>
<g id="clust5" class="cluster">
<title>cluster_3</title>
<path fill="lightblue" stroke="lightblue" d="M48.13,-41C48.13,-41 56.67,-41 56.67,-41 60.93,-41 65.2,-45.27 65.2,-49.53 65.2,-49.53 65.2,-65.47 65.2,-65.47 65.2,-69.73 60.93,-74 56.67,-74 56.67,-74 48.13,-74 48.13,-74 43.87,-74 39.6,-69.73 39.6,-65.47 39.6,-65.47 39.6,-49.53 39.6,-49.53 39.6,-45.27 43.87,-41 48.13,-41"/>
<text text-anchor="middle" x="52.4" y="-62" font-family="Times,serif" font-size="10.00">H</text>
</g>
<g id="clust6" class="cluster">
<title>cluster_4</title>
<path fill="lightblue" stroke="lightblue" d="M88.2,-41C88.2,-41 123.8,-41 123.8,-41 129.3,-41 134.8,-46.5 134.8,-52 134.8,-52 134.8,-63 134.8,-63 134.8,-68.5 129.3,-74 123.8,-74 123.8,-74 88.2,-74 88.2,-74 82.7,-74 77.2,-68.5 77.2,-63 77.2,-63 77.2,-52 77.2,-52 77.2,-46.5 82.7,-41 88.2,-41"/>
<text text-anchor="middle" x="106" y="-62" font-family="Times,serif" font-size="10.00">Rz(0.45)</text>
</g>
<g id="clust7" class="cluster">
<title>cluster_5</title>
<path fill="lightblue" stroke="lightblue" d="M155.33,-41C155.33,-41 163.87,-41 163.87,-41 168.13,-41 172.4,-45.27 172.4,-49.53 172.4,-49.53 172.4,-65.47 172.4,-65.47 172.4,-69.73 168.13,-74 163.87,-74 163.87,-74 155.33,-74 155.33,-74 151.07,-74 146.8,-69.73 146.8,-65.47 146.8,-65.47 146.8,-49.53 146.8,-49.53 146.8,-45.27 151.07,-41 155.33,-41"/>
<text text-anchor="middle" x="159.6" y="-62" font-family="Times,serif" font-size="10.00">H</text>
</g>
<g id="clust8" class="cluster">
<title>cluster_6</title>
<path fill="lightblue" stroke="lightblue" d="M195.4,-78C195.4,-78 225,-78 225,-78 230.5,-78 236,-83.5 236,-89 236,-89 236,-100 236,-100 236,-105.5 230.5,-111 225,-111 225,-111 195.4,-111 195.4,-111 189.9,-111 184.4,-105.5 184.4,-100 184.4,-100 184.4,-89 184.4,-89 184.4,-83.5 189.9,-78 195.4,-78"/>
<text text-anchor="middle" x="210.2" y="-99" font-family="Times,serif" font-size="10.00">Rz(0.2)</text>
</g>
<g id="clust9" class="cluster">
<title>cluster_7</title>
<path fill="lightblue" stroke="lightblue" d="M205.93,-43C205.93,-43 214.47,-43 214.47,-43 218.73,-43 223,-47.27 223,-51.53 223,-51.53 223,-67.47 223,-67.47 223,-71.73 218.73,-76 214.47,-76 214.47,-76 205.93,-76 205.93,-76 201.67,-76 197.4,-71.73 197.4,-67.47 197.4,-67.47 197.4,-51.53 197.4,-51.53 197.4,-47.27 201.67,-43 205.93,-43"/>
<text text-anchor="middle" x="210.2" y="-64" font-family="Times,serif" font-size="10.00">H</text>
</g>
<g id="clust10" class="cluster">
<title>cluster_8</title>
<path fill="lightblue" stroke="lightblue" d="M257.87,-78C257.87,-78 265.73,-78 265.73,-78 269.67,-78 273.6,-81.93 273.6,-85.87 273.6,-85.87 273.6,-103.13 273.6,-103.13 273.6,-107.07 269.67,-111 265.73,-111 265.73,-111 257.87,-111 257.87,-111 253.93,-111 250,-107.07 250,-103.13 250,-103.13 250,-85.87 250,-85.87 250,-81.93 253.93,-78 257.87,-78"/>
<text text-anchor="middle" x="261.8" y="-99" font-family="Times,serif" font-size="10.00">V</text>
</g>
<g id="clust11" class="cluster">
<title>cluster_9</title>
<path fill="lightblue" stroke="lightblue" d="M304.13,-78C304.13,-78 311.67,-78 311.67,-78 315.43,-78 319.2,-81.77 319.2,-85.53 319.2,-85.53 319.2,-103.47 319.2,-103.47 319.2,-107.23 315.43,-111 311.67,-111 311.67,-111 304.13,-111 304.13,-111 300.37,-111 296.6,-107.23 296.6,-103.47 296.6,-103.47 296.6,-85.53 296.6,-85.53 296.6,-81.77 300.37,-78 304.13,-78"/>
<text text-anchor="middle" x="307.9" y="-99" font-family="Times,serif" font-size="10.00">S</text>
</g>
<g id="clust12" class="cluster">
<title>cluster_10</title>
<path fill="lightblue" stroke="lightblue" d="M206.93,-10C206.93,-10 214.47,-10 214.47,-10 218.23,-10 222,-13.77 222,-17.53 222,-17.53 222,-35.47 222,-35.47 222,-39.23 218.23,-43 214.47,-43 214.47,-43 206.93,-43 206.93,-43 203.17,-43 199.4,-39.23 199.4,-35.47 199.4,-35.47 199.4,-17.53 199.4,-17.53 199.4,-13.77 203.17,-10 206.93,-10"/>
<text text-anchor="middle" x="210.7" y="-31" font-family="Times,serif" font-size="10.00">S</text>
</g>
<g id="clust13" class="cluster">
<title>cluster_11</title>
<path fill="lightblue" stroke="lightblue" d="M257.2,-20C257.2,-20 267.4,-20 267.4,-20 272.5,-20 277.6,-25.1 277.6,-30.2 277.6,-30.2 277.6,-57.8 277.6,-57.8 277.6,-62.9 272.5,-68 267.4,-68 267.4,-68 257.2,-68 257.2,-68 252.1,-68 247,-62.9 247,-57.8 247,-57.8 247,-30.2 247,-30.2 247,-25.1 252.1,-20 257.2,-20"/>
<text text-anchor="middle" x="262.3" y="-56" font-family="Times,serif" font-size="10.00">CX</text>
</g>
<g id="clust14" class="cluster">
<title>cluster_12</title>
<path fill="lightblue" stroke="lightblue" d="M300.6,-45C300.6,-45 315.2,-45 315.2,-45 320.7,-45 326.2,-50.5 326.2,-56 326.2,-56 326.2,-67 326.2,-67 326.2,-72.5 320.7,-78 315.2,-78 315.2,-78 300.6,-78 300.6,-78 295.1,-78 289.6,-72.5 289.6,-67 289.6,-67 289.6,-56 289.6,-56 289.6,-50.5 295.1,-45 300.6,-45"/>
<text text-anchor="middle" x="307.9" y="-66" font-family="Times,serif" font-size="10.00">Sdg</text>
</g>
<g id="clust15" class="cluster">
<title>cluster_13</title>
<path fill="lightblue" stroke="lightblue" d="M348.4,-54C348.4,-54 358.6,-54 358.6,-54 363.7,-54 368.8,-59.1 368.8,-64.2 368.8,-64.2 368.8,-91.8 368.8,-91.8 368.8,-96.9 363.7,-102 358.6,-102 358.6,-102 348.4,-102 348.4,-102 343.3,-102 338.2,-96.9 338.2,-91.8 338.2,-91.8 338.2,-64.2 338.2,-64.2 338.2,-59.1 343.3,-54 348.4,-54"/>
<text text-anchor="middle" x="353.5" y="-90" font-family="Times,serif" font-size="10.00">CX</text>
</g>
<g id="clust16" class="cluster">
<title>cluster_14</title>
<path fill="lightblue" stroke="lightblue" d="M391.8,-81C391.8,-81 421.4,-81 421.4,-81 426.9,-81 432.4,-86.5 432.4,-92 432.4,-92 432.4,-103 432.4,-103 432.4,-108.5 426.9,-114 421.4,-114 421.4,-114 391.8,-114 391.8,-114 386.3,-114 380.8,-108.5 380.8,-103 380.8,-103 380.8,-92 380.8,-92 380.8,-86.5 386.3,-81 391.8,-81"/>
<text text-anchor="middle" x="406.6" y="-102" font-family="Times,serif" font-size="10.00">Rz(3.4)</text>
</g>
<g id="clust17" class="cluster">
<title>cluster_15</title>
<path fill="lightblue" stroke="lightblue" d="M402.33,-46C402.33,-46 410.87,-46 410.87,-46 415.13,-46 419.4,-50.27 419.4,-54.53 419.4,-54.53 419.4,-70.47 419.4,-70.47 419.4,-74.73 415.13,-79 410.87,-79 410.87,-79 402.33,-79 402.33,-79 398.07,-79 393.8,-74.73 393.8,-70.47 393.8,-70.47 393.8,-54.53 393.8,-54.53 393.8,-50.27 398.07,-46 402.33,-46"/>
<text text-anchor="middle" x="406.6" y="-67" font-family="Times,serif" font-size="10.00">H</text>
</g>
<g id="clust18" class="cluster">
<title>cluster_16</title>
<path fill="lightblue" stroke="lightblue" d="M455.4,-45C455.4,-45 485,-45 485,-45 490.5,-45 496,-50.5 496,-56 496,-56 496,-67 496,-67 496,-72.5 490.5,-78 485,-78 485,-78 455.4,-78 455.4,-78 449.9,-78 444.4,-72.5 444.4,-67 444.4,-67 444.4,-56 444.4,-56 444.4,-50.5 449.9,-45 455.4,-45"/>
<text text-anchor="middle" x="470.2" y="-66" font-family="Times,serif" font-size="10.00">Rz(0.8)</text>
</g>
<g id="clust19" class="cluster">
<title>cluster_17</title>
<path fill="lightblue" stroke="lightblue" d="M516.53,-45C516.53,-45 525.07,-45 525.07,-45 529.33,-45 533.6,-49.27 533.6,-53.53 533.6,-53.53 533.6,-69.47 533.6,-69.47 533.6,-73.73 529.33,-78 525.07,-78 525.07,-78 516.53,-78 516.53,-78 512.27,-78 508,-73.73 508,-69.47 508,-69.47 508,-53.53 508,-53.53 508,-49.27 512.27,-45 516.53,-45"/>
<text text-anchor="middle" x="520.8" y="-66" font-family="Times,serif" font-size="10.00">H</text>
</g>
<g id="clust20" class="cluster">
<title>cluster_18</title>
<path fill="lightblue" stroke="lightblue" d="M699.93,-41C699.93,-41 708.47,-41 708.47,-41 712.73,-41 717,-45.27 717,-49.53 717,-49.53 717,-65.47 717,-65.47 717,-69.73 712.73,-74 708.47,-74 708.47,-74 699.93,-74 699.93,-74 695.67,-74 691.4,-69.73 691.4,-65.47 691.4,-65.47 691.4,-49.53 691.4,-49.53 691.4,-45.27 695.67,-41 699.93,-41"/>
<text text-anchor="middle" x="704.2" y="-62" font-family="Times,serif" font-size="10.00">H</text>
</g>
<g id="clust21" class="cluster">
<title>cluster_19</title>
<path fill="lightblue" stroke="lightblue" d="M647.8,-78C647.8,-78 663.4,-78 663.4,-78 668.9,-78 674.4,-83.5 674.4,-89 674.4,-89 674.4,-100 674.4,-100 674.4,-105.5 668.9,-111 663.4,-111 663.4,-111 647.8,-111 647.8,-111 642.3,-111 636.8,-105.5 636.8,-100 636.8,-100 636.8,-89 636.8,-89 636.8,-83.5 642.3,-78 647.8,-78"/>
<text text-anchor="middle" x="655.6" y="-99" font-family="Times,serif" font-size="10.00">Vdg</text>
</g>
<g id="clust22" class="cluster">
<title>cluster_20</title>
<path fill="lightblue" stroke="lightblue" d="M599.2,-78C599.2,-78 613.8,-78 613.8,-78 619.3,-78 624.8,-83.5 624.8,-89 624.8,-89 624.8,-100 624.8,-100 624.8,-105.5 619.3,-111 613.8,-111 613.8,-111 599.2,-111 599.2,-111 593.7,-111 588.2,-105.5 588.2,-100 588.2,-100 588.2,-89 588.2,-89 588.2,-83.5 593.7,-78 599.2,-78"/>
<text text-anchor="middle" x="606.5" y="-99" font-family="Times,serif" font-size="10.00">Sdg</text>
</g>
<g id="clust23" class="cluster">
<title>cluster_21</title>
<path fill="lightblue" stroke="lightblue" d="M697.4,-8C697.4,-8 712,-8 712,-8 717.5,-8 723,-13.5 723,-19 723,-19 723,-30 723,-30 723,-35.5 717.5,-41 712,-41 712,-41 697.4,-41 697.4,-41 691.9,-41 686.4,-35.5 686.4,-30 686.4,-30 686.4,-19 686.4,-19 686.4,-13.5 691.9,-8 697.4,-8"/>
<text text-anchor="middle" x="704.7" y="-29" font-family="Times,serif" font-size="10.00">Sdg</text>
</g>
<g id="clust24" class="cluster">
<title>cluster_22</title>
<path fill="lightblue" stroke="lightblue" d="M651,-28C651,-28 661.2,-28 661.2,-28 666.3,-28 671.4,-33.1 671.4,-38.2 671.4,-38.2 671.4,-65.8 671.4,-65.8 671.4,-70.9 666.3,-76 661.2,-76 661.2,-76 651,-76 651,-76 645.9,-76 640.8,-70.9 640.8,-65.8 640.8,-65.8 640.8,-38.2 640.8,-38.2 640.8,-33.1 645.9,-28 651,-28"/>
<text text-anchor="middle" x="656.1" y="-64" font-family="Times,serif" font-size="10.00">CX</text>
</g>
<g id="clust25" class="cluster">
<title>cluster_23</title>
<path fill="lightblue" stroke="lightblue" d="M602.73,-45C602.73,-45 610.27,-45 610.27,-45 614.03,-45 617.8,-48.77 617.8,-52.53 617.8,-52.53 617.8,-70.47 617.8,-70.47 617.8,-74.23 614.03,-78 610.27,-78 610.27,-78 602.73,-78 602.73,-78 598.97,-78 595.2,-74.23 595.2,-70.47 595.2,-70.47 595.2,-52.53 595.2,-52.53 595.2,-48.77 598.97,-45 602.73,-45"/>
<text text-anchor="middle" x="606.5" y="-66" font-family="Times,serif" font-size="10.00">S</text>
</g>
<g id="clust26" class="cluster">
<title>cluster_24</title>
<path fill="lightblue" stroke="lightblue" d="M555.8,-54C555.8,-54 566,-54 566,-54 571.1,-54 576.2,-59.1 576.2,-64.2 576.2,-64.2 576.2,-91.8 576.2,-91.8 576.2,-96.9 571.1,-102 566,-102 566,-102 555.8,-102 555.8,-102 550.7,-102 545.6,-96.9 545.6,-91.8 545.6,-91.8 545.6,-64.2 545.6,-64.2 545.6,-59.1 550.7,-54 555.8,-54"/>
<text text-anchor="middle" x="560.9" y="-90" font-family="Times,serif" font-size="10.00">CX</text>
</g>
<g id="clust27" class="cluster">
<title>cluster_28</title>
<path fill="lightblue" stroke="lightblue" d="M700.27,-78C700.27,-78 708.13,-78 708.13,-78 712.07,-78 716,-81.93 716,-85.87 716,-85.87 716,-103.13 716,-103.13 716,-107.07 712.07,-111 708.13,-111 708.13,-111 700.27,-111 700.27,-111 696.33,-111 692.4,-107.07 692.4,-103.13 692.4,-103.13 692.4,-85.87 692.4,-85.87 692.4,-81.93 696.33,-78 700.27,-78"/>
<text text-anchor="middle" x="704.2" y="-99" font-family="Times,serif" font-size="10.00">V</text>
</g>
<g id="clust28" class="cluster">
<title>cluster_29</title>
<path fill="lightblue" stroke="lightblue" d="M742.87,-41C742.87,-41 750.73,-41 750.73,-41 754.67,-41 758.6,-44.93 758.6,-48.87 758.6,-48.87 758.6,-66.13 758.6,-66.13 758.6,-70.07 754.67,-74 750.73,-74 750.73,-74 742.87,-74 742.87,-74 738.93,-74 735,-70.07 735,-66.13 735,-66.13 735,-48.87 735,-48.87 735,-44.93 738.93,-41 742.87,-41"/>
<text text-anchor="middle" x="746.8" y="-62" font-family="Times,serif" font-size="10.00">V</text>
</g>
<g id="clust29" class="cluster">
<title>cluster_30</title>
<path fill="lightblue" stroke="lightblue" d="M742.87,-8C742.87,-8 750.73,-8 750.73,-8 754.67,-8 758.6,-11.93 758.6,-15.87 758.6,-15.87 758.6,-33.13 758.6,-33.13 758.6,-37.07 754.67,-41 750.73,-41 750.73,-41 742.87,-41 742.87,-41 738.93,-41 735,-37.07 735,-33.13 735,-33.13 735,-15.87 735,-15.87 735,-11.93 738.93,-8 742.87,-8"/>
<text text-anchor="middle" x="746.8" y="-29" font-family="Times,serif" font-size="10.00">V</text>
</g>
<g id="clust30" class="cluster">
<title>cluster_31</title>
<path fill="lightblue" stroke="lightblue" d="M743.53,-78C743.53,-78 751.07,-78 751.07,-78 754.83,-78 758.6,-81.77 758.6,-85.53 758.6,-85.53 758.6,-103.47 758.6,-103.47 758.6,-107.23 754.83,-111 751.07,-111 751.07,-111 743.53,-111 743.53,-111 739.77,-111 736,-107.23 736,-103.47 736,-103.47 736,-85.53 736,-85.53 736,-81.77 739.77,-78 743.53,-78"/>
<text text-anchor="middle" x="747.3" y="-99" font-family="Times,serif" font-size="10.00">S</text>
</g>
<g id="clust31" class="cluster">
<title>cluster_32</title>
<path fill="lightblue" stroke="lightblue" d="M779.13,-41C779.13,-41 786.67,-41 786.67,-41 790.43,-41 794.2,-44.77 794.2,-48.53 794.2,-48.53 794.2,-66.47 794.2,-66.47 794.2,-70.23 790.43,-74 786.67,-74 786.67,-74 779.13,-74 779.13,-74 775.37,-74 771.6,-70.23 771.6,-66.47 771.6,-66.47 771.6,-48.53 771.6,-48.53 771.6,-44.77 775.37,-41 779.13,-41"/>
<text text-anchor="middle" x="782.9" y="-62" font-family="Times,serif" font-size="10.00">S</text>
</g>
<g id="clust32" class="cluster">
<title>cluster_33</title>
<path fill="lightblue" stroke="lightblue" d="M779.13,-8C779.13,-8 786.67,-8 786.67,-8 790.43,-8 794.2,-11.77 794.2,-15.53 794.2,-15.53 794.2,-33.47 794.2,-33.47 794.2,-37.23 790.43,-41 786.67,-41 786.67,-41 779.13,-41 779.13,-41 775.37,-41 771.6,-37.23 771.6,-33.47 771.6,-33.47 771.6,-15.53 771.6,-15.53 771.6,-11.77 775.37,-8 779.13,-8"/>
<text text-anchor="middle" x="782.9" y="-29" font-family="Times,serif" font-size="10.00">S</text>
</g>
<g id="clust33" class="cluster">
<title>cluster_34</title>
<path fill="lightblue" stroke="lightblue" d="M778.13,-78C778.13,-78 786.67,-78 786.67,-78 790.93,-78 795.2,-82.27 795.2,-86.53 795.2,-86.53 795.2,-102.47 795.2,-102.47 795.2,-106.73 790.93,-111 786.67,-111 786.67,-111 778.13,-111 778.13,-111 773.87,-111 769.6,-106.73 769.6,-102.47 769.6,-102.47 769.6,-86.53 769.6,-86.53 769.6,-82.27 773.87,-78 778.13,-78"/>
<text text-anchor="middle" x="782.4" y="-99" font-family="Times,serif" font-size="10.00">H</text>
</g>
<g id="clust34" class="cluster">
<title>cluster_35</title>
<path fill="lightblue" stroke="lightblue" d="M815.73,-41C815.73,-41 824.27,-41 824.27,-41 828.53,-41 832.8,-45.27 832.8,-49.53 832.8,-49.53 832.8,-65.47 832.8,-65.47 832.8,-69.73 828.53,-74 824.27,-74 824.27,-74 815.73,-74 815.73,-74 811.47,-74 807.2,-69.73 807.2,-65.47 807.2,-65.47 807.2,-49.53 807.2,-49.53 807.2,-45.27 811.47,-41 815.73,-41"/>
<text text-anchor="middle" x="820" y="-62" font-family="Times,serif" font-size="10.00">H</text>
</g>
<g id="clust35" class="cluster">
<title>cluster_36</title>
<path fill="lightblue" stroke="lightblue" d="M815.73,-8C815.73,-8 824.27,-8 824.27,-8 828.53,-8 832.8,-12.27 832.8,-16.53 832.8,-16.53 832.8,-32.47 832.8,-32.47 832.8,-36.73 828.53,-41 824.27,-41 824.27,-41 815.73,-41 815.73,-41 811.47,-41 807.2,-36.73 807.2,-32.47 807.2,-32.47 807.2,-16.53 807.2,-16.53 807.2,-12.27 811.47,-8 815.73,-8"/>
<text text-anchor="middle" x="820" y="-29" font-family="Times,serif" font-size="10.00">H</text>
</g>
<g id="clust36" class="cluster">
<title>cluster_37</title>
<path fill="lightblue" stroke="lightblue" d="M816.73,-78C816.73,-78 824.27,-78 824.27,-78 828.03,-78 831.8,-81.77 831.8,-85.53 831.8,-85.53 831.8,-103.47 831.8,-103.47 831.8,-107.23 828.03,-111 824.27,-111 824.27,-111 816.73,-111 816.73,-111 812.97,-111 809.2,-107.23 809.2,-103.47 809.2,-103.47 809.2,-85.53 809.2,-85.53 809.2,-81.77 812.97,-78 816.73,-78"/>
<text text-anchor="middle" x="820.5" y="-99" font-family="Times,serif" font-size="10.00">S</text>
</g>
<g id="clust37" class="cluster">
<title>cluster_38</title>
<path fill="lightblue" stroke="lightblue" d="M852.33,-41C852.33,-41 859.87,-41 859.87,-41 863.63,-41 867.4,-44.77 867.4,-48.53 867.4,-48.53 867.4,-66.47 867.4,-66.47 867.4,-70.23 863.63,-74 859.87,-74 859.87,-74 852.33,-74 852.33,-74 848.57,-74 844.8,-70.23 844.8,-66.47 844.8,-66.47 844.8,-48.53 844.8,-48.53 844.8,-44.77 848.57,-41 852.33,-41"/>
<text text-anchor="middle" x="856.1" y="-62" font-family="Times,serif" font-size="10.00">S</text>
</g>
<g id="clust38" class="cluster">
<title>cluster_39</title>
<path fill="lightblue" stroke="lightblue" d="M852.33,-8C852.33,-8 859.87,-8 859.87,-8 863.63,-8 867.4,-11.77 867.4,-15.53 867.4,-15.53 867.4,-33.47 867.4,-33.47 867.4,-37.23 863.63,-41 859.87,-41 859.87,-41 852.33,-41 852.33,-41 848.57,-41 844.8,-37.23 844.8,-33.47 844.8,-33.47 844.8,-15.53 844.8,-15.53 844.8,-11.77 848.57,-8 852.33,-8"/>
<text text-anchor="middle" x="856.1" y="-29" font-family="Times,serif" font-size="10.00">S</text>
</g>
<!-- (0, 0) -->
<g id="node1" class="node">
<title>(0, 0)</title>
<ellipse fill="blue" stroke="blue" cx="20.8" cy="-63" rx="1.8" ry="1.8"/>
<text text-anchor="middle" x="9.5" y="-54.8" font-family="Courier,monospace" font-size="8.00">q[0]</text>
</g>
<!-- (6, 0) -->
<g id="node10" class="node">
<title>(6, 0)</title>
<ellipse fill="black" stroke="black" cx="210.2" cy="-85" rx="1.8" ry="1.8"/>
</g>
<!-- (0, 0)&#45;&gt;(6, 0) -->
<g id="edge1" class="edge">
<title>(0, 0)&#45;&gt;(6, 0)</title>
<path fill="none" stroke="blue" d="M22.67,-63.85C25.1,-66.15 32.26,-72.52 39.6,-75 103.52,-96.61 188.62,-87.58 206.02,-85.42"/>
<polygon fill="blue" stroke="blue" points="208.08,-85.15 206.24,-86.52 207.09,-85.28 206.1,-85.41 206.1,-85.41 206.1,-85.41 207.09,-85.28 205.95,-84.29 208.08,-85.15 208.08,-85.15"/>
</g>
<!-- (1, 0) -->
<g id="node2" class="node">
<title>(1, 0)</title>
<ellipse fill="blue" stroke="blue" cx="20.8" cy="-48" rx="1.8" ry="1.8"/>
<text text-anchor="middle" x="9.5" y="-39.8" font-family="Courier,monospace" font-size="8.00">q[1]</text>
</g>
<!-- (3, 0) -->
<g id="node7" class="node">
<title>(3, 0)</title>
<ellipse fill="black" stroke="black" cx="52.4" cy="-48" rx="1.8" ry="1.8"/>
</g>
<!-- (1, 0)&#45;&gt;(3, 0) -->
<g id="edge2" class="edge">
<title>(1, 0)&#45;&gt;(3, 0)</title>
<path fill="none" stroke="blue" d="M23.07,-48C27.41,-48 41.71,-48 48.18,-48"/>
<polygon fill="blue" stroke="blue" points="50.42,-48 48.42,-49.13 49.42,-48 48.42,-48 48.42,-48 48.42,-48 49.42,-48 48.42,-46.88 50.42,-48 50.42,-48"/>
</g>
<!-- (2, 0) -->
<g id="node3" class="node">
<title>(2, 0)</title>
<ellipse fill="blue" stroke="blue" cx="20.8" cy="-33" rx="1.8" ry="1.8"/>
<text text-anchor="middle" x="9.5" y="-24.8" font-family="Courier,monospace" font-size="8.00">q[2]</text>
</g>
<!-- (10, 0) -->
<g id="node14" class="node">
<title>(10, 0)</title>
<ellipse fill="black" stroke="black" cx="210.2" cy="-17" rx="1.8" ry="1.8"/>
</g>
<!-- (2, 0)&#45;&gt;(10, 0) -->
<g id="edge3" class="edge">
<title>(2, 0)&#45;&gt;(10, 0)</title>
<path fill="none" stroke="blue" d="M22.64,-32.93C35.07,-31.87 182.41,-19.29 206.02,-17.27"/>
<polygon fill="blue" stroke="blue" points="208.09,-17.09 206.2,-18.39 207.1,-17.18 206.1,-17.26 206.1,-17.26 206.1,-17.26 207.1,-17.18 206.01,-16.14 208.09,-17.09 208.09,-17.09"/>
</g>
<!-- (25, 0) -->
<g id="node4" class="node">
<title>(25, 0)</title>
<ellipse fill="blue" stroke="blue" cx="886.2" cy="-63" rx="1.8" ry="1.8"/>
<text text-anchor="middle" x="874.9" y="-54.8" font-family="Courier,monospace" font-size="8.00">q[0]</text>
</g>
<!-- (26, 0) -->
<g id="node5" class="node">
<title>(26, 0)</title>
<ellipse fill="blue" stroke="blue" cx="886.2" cy="-48" rx="1.8" ry="1.8"/>
<text text-anchor="middle" x="874.9" y="-39.8" font-family="Courier,monospace" font-size="8.00">q[1]</text>
</g>
<!-- (27, 0) -->
<g id="node6" class="node">
<title>(27, 0)</title>
<ellipse fill="blue" stroke="blue" cx="886.2" cy="-33" rx="1.8" ry="1.8"/>
<text text-anchor="middle" x="874.9" y="-24.8" font-family="Courier,monospace" font-size="8.00">q[2]</text>
</g>
<!-- (4, 0) -->
<g id="node8" class="node">
<title>(4, 0)</title>
<ellipse fill="black" stroke="black" cx="106" cy="-48" rx="1.8" ry="1.8"/>
</g>
<!-- (3, 0)&#45;&gt;(4, 0) -->
<g id="edge4" class="edge">
<title>(3, 0)&#45;&gt;(4, 0)</title>
<path fill="none" stroke="blue" d="M54.3,-48C60.02,-48 91.57,-48 101.8,-48"/>
<polygon fill="blue" stroke="blue" points="103.91,-48 101.91,-49.13 102.91,-48 101.91,-48 101.91,-48 101.91,-48 102.91,-48 101.91,-46.88 103.91,-48 103.91,-48"/>
</g>
<!-- (5, 0) -->
<g id="node9" class="node">
<title>(5, 0)</title>
<ellipse fill="black" stroke="black" cx="159.6" cy="-48" rx="1.8" ry="1.8"/>
</g>
<!-- (4, 0)&#45;&gt;(5, 0) -->
<g id="edge5" class="edge">
<title>(4, 0)&#45;&gt;(5, 0)</title>
<path fill="none" stroke="blue" d="M107.9,-48C113.62,-48 145.17,-48 155.4,-48"/>
<polygon fill="blue" stroke="blue" points="157.51,-48 155.51,-49.13 156.51,-48 155.51,-48 155.51,-48 155.51,-48 156.51,-48 155.51,-46.88 157.51,-48 157.51,-48"/>
</g>
<!-- (7, 0) -->
<g id="node11" class="node">
<title>(7, 0)</title>
<ellipse fill="black" stroke="black" cx="210.2" cy="-50" rx="1.8" ry="1.8"/>
</g>
<!-- (5, 0)&#45;&gt;(7, 0) -->
<g id="edge6" class="edge">
<title>(5, 0)&#45;&gt;(7, 0)</title>
<path fill="none" stroke="blue" d="M161.44,-48.03C166.79,-48.25 196.05,-49.46 205.94,-49.87"/>
<polygon fill="blue" stroke="blue" points="208.17,-49.96 206.13,-51 207.17,-49.92 206.18,-49.88 206.18,-49.88 206.18,-49.88 207.17,-49.92 206.22,-48.75 208.17,-49.96 208.17,-49.96"/>
</g>
<!-- (8, 0) -->
<g id="node12" class="node">
<title>(8, 0)</title>
<ellipse fill="black" stroke="black" cx="261.8" cy="-85" rx="1.8" ry="1.8"/>
</g>
<!-- (6, 0)&#45;&gt;(8, 0) -->
<g id="edge7" class="edge">
<title>(6, 0)&#45;&gt;(8, 0)</title>
<path fill="none" stroke="blue" d="M212.06,-85C217.56,-85 247.89,-85 257.72,-85"/>
<polygon fill="blue" stroke="blue" points="259.75,-85 257.75,-86.13 258.75,-85 257.75,-85 257.75,-85 257.75,-85 258.75,-85 257.75,-83.88 259.75,-85 259.75,-85"/>
</g>
<!-- (11, 0) -->
<g id="node15" class="node">
<title>(11, 0)</title>
<ellipse fill="black" stroke="black" cx="261.8" cy="-42" rx="1.8" ry="1.8"/>
<text text-anchor="middle" x="257" y="-33.8" font-family="Helvetica,sans-Serif" font-size="8.00">0</text>
</g>
<!-- (7, 0)&#45;&gt;(11, 0) -->
<g id="edge8" class="edge">
<title>(7, 0)&#45;&gt;(11, 0)</title>
<path fill="none" stroke="blue" d="M212.06,-49.86C217.56,-48.97 247.89,-44.08 257.72,-42.5"/>
<polygon fill="blue" stroke="blue" points="259.75,-42.17 257.96,-43.6 258.77,-42.33 257.78,-42.49 257.78,-42.49 257.78,-42.49 258.77,-42.33 257.6,-41.38 259.75,-42.17 259.75,-42.17"/>
</g>
<!-- (9, 0) -->
<g id="node13" class="node">
<title>(9, 0)</title>
<ellipse fill="black" stroke="black" cx="307.4" cy="-85" rx="1.8" ry="1.8"/>
</g>
<!-- (8, 0)&#45;&gt;(9, 0) -->
<g id="edge9" class="edge">
<title>(8, 0)&#45;&gt;(9, 0)</title>
<path fill="none" stroke="blue" d="M263.88,-85C269.39,-85 294.53,-85 303.34,-85"/>
<polygon fill="blue" stroke="blue" points="305.51,-85 303.51,-86.13 304.51,-85 303.51,-85 303.51,-85 303.51,-85 304.51,-85 303.51,-83.88 305.51,-85 305.51,-85"/>
</g>
<!-- (13, 1) -->
<g id="node19" class="node">
<title>(13, 1)</title>
<ellipse fill="black" stroke="black" cx="353" cy="-76" rx="1.8" ry="1.8"/>
<text text-anchor="middle" x="348.2" y="-67.8" font-family="Helvetica,sans-Serif" font-size="8.00">1</text>
</g>
<!-- (9, 0)&#45;&gt;(13, 1) -->
<g id="edge10" class="edge">
<title>(9, 0)&#45;&gt;(13, 1)</title>
<path fill="none" stroke="blue" d="M309.48,-84.78C314.99,-83.64 340.13,-78.45 348.94,-76.63"/>
<polygon fill="blue" stroke="blue" points="351.11,-76.18 349.38,-77.69 350.13,-76.39 349.15,-76.59 349.15,-76.59 349.15,-76.59 350.13,-76.39 348.92,-75.49 351.11,-76.18 351.11,-76.18"/>
</g>
<!-- (11, 1) -->
<g id="node16" class="node">
<title>(11, 1)</title>
<ellipse fill="black" stroke="black" cx="261.8" cy="-27" rx="1.8" ry="1.8"/>
<text text-anchor="middle" x="257" y="-18.8" font-family="Helvetica,sans-Serif" font-size="8.00">1</text>
</g>
<!-- (10, 0)&#45;&gt;(11, 1) -->
<g id="edge11" class="edge">
<title>(10, 0)&#45;&gt;(11, 1)</title>
<path fill="none" stroke="blue" d="M212.06,-17.17C217.56,-18.28 247.89,-24.4 257.72,-26.38"/>
<polygon fill="blue" stroke="blue" points="259.75,-26.79 257.57,-27.5 258.77,-26.59 257.79,-26.39 257.79,-26.39 257.79,-26.39 258.77,-26.59 258.01,-25.29 259.75,-26.79 259.75,-26.79"/>
</g>
<!-- (22, 0) -->
<g id="node28" class="node">
<title>(22, 0)</title>
<ellipse fill="black" stroke="black" cx="655.6" cy="-35" rx="1.8" ry="1.8"/>
<text text-anchor="middle" x="650.8" y="-26.8" font-family="Helvetica,sans-Serif" font-size="8.00">0</text>
</g>
<!-- (11, 0)&#45;&gt;(22, 0) -->
<g id="edge13" class="edge">
<title>(11, 0)&#45;&gt;(22, 0)</title>
<path fill="none" stroke="blue" d="M263.68,-41.84C270.45,-40.65 315.27,-33 352,-33 352,-33 352,-33 561.4,-33 596.91,-33 640.01,-34.47 651.61,-34.89"/>
<polygon fill="blue" stroke="blue" points="653.68,-34.97 651.64,-36.02 652.68,-34.93 651.68,-34.89 651.68,-34.89 651.68,-34.89 652.68,-34.93 651.72,-33.77 653.68,-34.97 653.68,-34.97"/>
</g>
<!-- (12, 0) -->
<g id="node17" class="node">
<title>(12, 0)</title>
<ellipse fill="black" stroke="black" cx="307.4" cy="-52" rx="1.8" ry="1.8"/>
</g>
<!-- (11, 1)&#45;&gt;(12, 0) -->
<g id="edge12" class="edge">
<title>(11, 1)&#45;&gt;(12, 0)</title>
<path fill="none" stroke="blue" d="M263.61,-27.42C265.85,-28.6 272.31,-32.01 277.6,-35 287.15,-40.4 298.3,-47.09 303.48,-50.23"/>
<polygon fill="blue" stroke="blue" points="305.31,-51.34 303.02,-51.26 304.45,-50.82 303.6,-50.3 303.6,-50.3 303.6,-50.3 304.45,-50.82 304.18,-49.34 305.31,-51.34 305.31,-51.34"/>
</g>
<!-- (13, 0) -->
<g id="node18" class="node">
<title>(13, 0)</title>
<ellipse fill="black" stroke="black" cx="353" cy="-61" rx="1.8" ry="1.8"/>
<text text-anchor="middle" x="348.2" y="-52.8" font-family="Helvetica,sans-Serif" font-size="8.00">0</text>
</g>
<!-- (12, 0)&#45;&gt;(13, 0) -->
<g id="edge14" class="edge">
<title>(12, 0)&#45;&gt;(13, 0)</title>
<path fill="none" stroke="blue" d="M309.48,-52.22C314.99,-53.36 340.13,-58.55 348.94,-60.37"/>
<polygon fill="blue" stroke="blue" points="351.11,-60.82 348.92,-61.51 350.13,-60.61 349.15,-60.41 349.15,-60.41 349.15,-60.41 350.13,-60.61 349.38,-59.31 351.11,-60.82 351.11,-60.82"/>
</g>
<!-- (15, 0) -->
<g id="node21" class="node">
<title>(15, 0)</title>
<ellipse fill="black" stroke="black" cx="406.6" cy="-53" rx="1.8" ry="1.8"/>
</g>
<!-- (13, 0)&#45;&gt;(15, 0) -->
<g id="edge15" class="edge">
<title>(13, 0)&#45;&gt;(15, 0)</title>
<path fill="none" stroke="blue" d="M354.9,-60.86C360.62,-59.97 392.17,-55.08 402.4,-53.5"/>
<polygon fill="blue" stroke="blue" points="404.51,-53.17 402.71,-54.59 403.52,-53.32 402.53,-53.48 402.53,-53.48 402.53,-53.48 403.52,-53.32 402.36,-52.36 404.51,-53.17 404.51,-53.17"/>
</g>
<!-- (14, 0) -->
<g id="node20" class="node">
<title>(14, 0)</title>
<ellipse fill="black" stroke="black" cx="406.6" cy="-88" rx="1.8" ry="1.8"/>
</g>
<!-- (13, 1)&#45;&gt;(14, 0) -->
<g id="edge16" class="edge">
<title>(13, 1)&#45;&gt;(14, 0)</title>
<path fill="none" stroke="blue" d="M354.9,-76.21C360.62,-77.54 392.17,-84.88 402.4,-87.26"/>
<polygon fill="blue" stroke="blue" points="404.51,-87.75 402.31,-88.39 403.54,-87.52 402.56,-87.29 402.56,-87.29 402.56,-87.29 403.54,-87.52 402.82,-86.2 404.51,-87.75 404.51,-87.75"/>
</g>
<!-- (24, 1) -->
<g id="node32" class="node">
<title>(24, 1)</title>
<ellipse fill="black" stroke="black" cx="560.4" cy="-76" rx="1.8" ry="1.8"/>
<text text-anchor="middle" x="555.6" y="-67.8" font-family="Helvetica,sans-Serif" font-size="8.00">1</text>
</g>
<!-- (14, 0)&#45;&gt;(24, 1) -->
<g id="edge17" class="edge">
<title>(14, 0)&#45;&gt;(24, 1)</title>
<path fill="none" stroke="blue" d="M408.4,-87.96C416.31,-87.52 481.2,-83.92 533.6,-79 541.78,-78.23 551.39,-77.04 556.25,-76.41"/>
<polygon fill="blue" stroke="blue" points="558.42,-76.13 556.58,-77.5 557.43,-76.26 556.43,-76.39 556.43,-76.39 556.43,-76.39 557.43,-76.26 556.29,-75.27 558.42,-76.13 558.42,-76.13"/>
</g>
<!-- (16, 0) -->
<g id="node22" class="node">
<title>(16, 0)</title>
<ellipse fill="black" stroke="black" cx="470.2" cy="-52" rx="1.8" ry="1.8"/>
</g>
<!-- (15, 0)&#45;&gt;(16, 0) -->
<g id="edge18" class="edge">
<title>(15, 0)&#45;&gt;(16, 0)</title>
<path fill="none" stroke="blue" d="M408.67,-52.98C415.68,-52.87 455.14,-52.23 466.27,-52.05"/>
<polygon fill="blue" stroke="blue" points="468.29,-52.01 466.31,-53.17 467.29,-52.03 466.29,-52.05 466.29,-52.05 466.29,-52.05 467.29,-52.03 466.27,-50.92 468.29,-52.01 468.29,-52.01"/>
</g>
<!-- (17, 0) -->
<g id="node23" class="node">
<title>(17, 0)</title>
<ellipse fill="black" stroke="black" cx="520.8" cy="-52" rx="1.8" ry="1.8"/>
</g>
<!-- (16, 0)&#45;&gt;(17, 0) -->
<g id="edge19" class="edge">
<title>(16, 0)&#45;&gt;(17, 0)</title>
<path fill="none" stroke="blue" d="M472.04,-52C477.39,-52 506.65,-52 516.54,-52"/>
<polygon fill="blue" stroke="blue" points="518.77,-52 516.77,-53.13 517.77,-52 516.77,-52 516.77,-52 516.77,-52 517.77,-52 516.77,-50.88 518.77,-52 518.77,-52"/>
</g>
<!-- (24, 0) -->
<g id="node31" class="node">
<title>(24, 0)</title>
<ellipse fill="black" stroke="black" cx="560.4" cy="-61" rx="1.8" ry="1.8"/>
<text text-anchor="middle" x="555.6" y="-52.8" font-family="Helvetica,sans-Serif" font-size="8.00">0</text>
</g>
<!-- (17, 0)&#45;&gt;(24, 0) -->
<g id="edge20" class="edge">
<title>(17, 0)&#45;&gt;(24, 0)</title>
<path fill="none" stroke="blue" d="M522.73,-52.22C527.32,-53.32 547.69,-58.2 555.93,-60.17"/>
<polygon fill="blue" stroke="blue" points="558.06,-60.68 555.85,-61.31 557.09,-60.45 556.12,-60.21 556.12,-60.21 556.12,-60.21 557.09,-60.45 556.38,-59.12 558.06,-60.68 558.06,-60.68"/>
</g>
<!-- (18, 0) -->
<g id="node24" class="node">
<title>(18, 0)</title>
<ellipse fill="black" stroke="black" cx="704.2" cy="-48" rx="1.8" ry="1.8"/>
</g>
<!-- (29, 0) -->
<g id="node34" class="node">
<title>(29, 0)</title>
<ellipse fill="black" stroke="black" cx="746.8" cy="-48" rx="1.8" ry="1.8"/>
</g>
<!-- (18, 0)&#45;&gt;(29, 0) -->
<g id="edge21" class="edge">
<title>(18, 0)&#45;&gt;(29, 0)</title>
<path fill="none" stroke="blue" d="M706.2,-48C711.34,-48 734.75,-48 742.95,-48"/>
<polygon fill="blue" stroke="blue" points="744.97,-48 742.97,-49.13 743.97,-48 742.97,-48 742.97,-48 742.97,-48 743.97,-48 742.97,-46.88 744.97,-48 744.97,-48"/>
</g>
<!-- (19, 0) -->
<g id="node25" class="node">
<title>(19, 0)</title>
<ellipse fill="black" stroke="black" cx="655.6" cy="-85" rx="1.8" ry="1.8"/>
</g>
<!-- (28, 0) -->
<g id="node33" class="node">
<title>(28, 0)</title>
<ellipse fill="black" stroke="black" cx="704.2" cy="-85" rx="1.8" ry="1.8"/>
</g>
<!-- (19, 0)&#45;&gt;(28, 0) -->
<g id="edge22" class="edge">
<title>(19, 0)&#45;&gt;(28, 0)</title>
<path fill="none" stroke="blue" d="M657.41,-85C662.49,-85 690.11,-85 699.82,-85"/>
<polygon fill="blue" stroke="blue" points="702.22,-85 700.22,-86.13 701.22,-85 700.22,-85 700.22,-85 700.22,-85 701.22,-85 700.22,-83.88 702.22,-85 702.22,-85"/>
</g>
<!-- (20, 0) -->
<g id="node26" class="node">
<title>(20, 0)</title>
<ellipse fill="black" stroke="black" cx="606" cy="-85" rx="1.8" ry="1.8"/>
</g>
<!-- (20, 0)&#45;&gt;(19, 0) -->
<g id="edge23" class="edge">
<title>(20, 0)&#45;&gt;(19, 0)</title>
<path fill="none" stroke="blue" d="M607.83,-85C613.02,-85 641.23,-85 651.15,-85"/>
<polygon fill="blue" stroke="blue" points="653.59,-85 651.59,-86.13 652.59,-85 651.59,-85 651.59,-85 651.59,-85 652.59,-85 651.59,-83.88 653.59,-85 653.59,-85"/>
</g>
<!-- (21, 0) -->
<g id="node27" class="node">
<title>(21, 0)</title>
<ellipse fill="black" stroke="black" cx="704.2" cy="-15" rx="1.8" ry="1.8"/>
</g>
<!-- (30, 0) -->
<g id="node35" class="node">
<title>(30, 0)</title>
<ellipse fill="black" stroke="black" cx="746.8" cy="-15" rx="1.8" ry="1.8"/>
</g>
<!-- (21, 0)&#45;&gt;(30, 0) -->
<g id="edge24" class="edge">
<title>(21, 0)&#45;&gt;(30, 0)</title>
<path fill="none" stroke="blue" d="M706.2,-15C711.34,-15 734.75,-15 742.95,-15"/>
<polygon fill="blue" stroke="blue" points="744.97,-15 742.97,-16.13 743.97,-15 742.97,-15 742.97,-15 742.97,-15 743.97,-15 742.97,-13.88 744.97,-15 744.97,-15"/>
</g>
<!-- (22, 0)&#45;&gt;(18, 0) -->
<g id="edge26" class="edge">
<title>(22, 0)&#45;&gt;(18, 0)</title>
<path fill="none" stroke="blue" d="M657.41,-35.23C662.49,-36.64 690.11,-44.35 699.82,-47.06"/>
<polygon fill="blue" stroke="blue" points="702.22,-47.73 699.99,-48.27 701.25,-47.46 700.29,-47.19 700.29,-47.19 700.29,-47.19 701.25,-47.46 700.59,-46.1 702.22,-47.73 702.22,-47.73"/>
</g>
<!-- (22, 1) -->
<g id="node29" class="node">
<title>(22, 1)</title>
<ellipse fill="black" stroke="black" cx="655.6" cy="-50" rx="1.8" ry="1.8"/>
<text text-anchor="middle" x="650.8" y="-41.8" font-family="Helvetica,sans-Serif" font-size="8.00">1</text>
</g>
<!-- (22, 1)&#45;&gt;(21, 0) -->
<g id="edge25" class="edge">
<title>(22, 1)&#45;&gt;(21, 0)</title>
<path fill="none" stroke="blue" d="M657.62,-49.67C660.45,-48.75 668.54,-45.91 674.4,-42 685.58,-34.55 696.52,-22.68 701.04,-17.53"/>
<polygon fill="blue" stroke="blue" points="702.56,-15.76 702.11,-18.01 701.91,-16.52 701.25,-17.28 701.25,-17.28 701.25,-17.28 701.91,-16.52 700.4,-16.54 702.56,-15.76 702.56,-15.76"/>
</g>
<!-- (23, 0) -->
<g id="node30" class="node">
<title>(23, 0)</title>
<ellipse fill="black" stroke="black" cx="606" cy="-52" rx="1.8" ry="1.8"/>
</g>
<!-- (23, 0)&#45;&gt;(22, 1) -->
<g id="edge27" class="edge">
<title>(23, 0)&#45;&gt;(22, 1)</title>
<path fill="none" stroke="blue" d="M607.83,-51.97C613.02,-51.75 641.23,-50.56 651.15,-50.14"/>
<polygon fill="blue" stroke="blue" points="653.59,-50.04 651.64,-51.25 652.6,-50.08 651.6,-50.13 651.6,-50.13 651.6,-50.13 652.6,-50.08 651.55,-49 653.59,-50.04 653.59,-50.04"/>
</g>
<!-- (24, 0)&#45;&gt;(23, 0) -->
<g id="edge28" class="edge">
<title>(24, 0)&#45;&gt;(23, 0)</title>
<path fill="none" stroke="blue" d="M562.48,-60.78C567.99,-59.64 593.13,-54.45 601.94,-52.63"/>
<polygon fill="blue" stroke="blue" points="604.11,-52.18 602.38,-53.69 603.13,-52.39 602.15,-52.59 602.15,-52.59 602.15,-52.59 603.13,-52.39 601.92,-51.49 604.11,-52.18 604.11,-52.18"/>
</g>
<!-- (24, 1)&#45;&gt;(20, 0) -->
<g id="edge29" class="edge">
<title>(24, 1)&#45;&gt;(20, 0)</title>
<path fill="none" stroke="blue" d="M562.48,-76.22C567.99,-77.36 593.13,-82.55 601.94,-84.37"/>
<polygon fill="blue" stroke="blue" points="604.11,-84.82 601.92,-85.51 603.13,-84.61 602.15,-84.41 602.15,-84.41 602.15,-84.41 603.13,-84.61 602.38,-83.31 604.11,-84.82 604.11,-84.82"/>
</g>
<!-- (31, 0) -->
<g id="node36" class="node">
<title>(31, 0)</title>
<ellipse fill="black" stroke="black" cx="746.8" cy="-85" rx="1.8" ry="1.8"/>
</g>
<!-- (28, 0)&#45;&gt;(31, 0) -->
<g id="edge30" class="edge">
<title>(28, 0)&#45;&gt;(31, 0)</title>
<path fill="none" stroke="blue" d="M706.2,-85C711.34,-85 734.75,-85 742.95,-85"/>
<polygon fill="blue" stroke="blue" points="744.97,-85 742.97,-86.13 743.97,-85 742.97,-85 742.97,-85 742.97,-85 743.97,-85 742.97,-83.88 744.97,-85 744.97,-85"/>
</g>
<!-- (32, 0) -->
<g id="node37" class="node">
<title>(32, 0)</title>
<ellipse fill="black" stroke="black" cx="782.4" cy="-48" rx="1.8" ry="1.8"/>
</g>
<!-- (29, 0)&#45;&gt;(32, 0) -->
<g id="edge31" class="edge">
<title>(29, 0)&#45;&gt;(32, 0)</title>
<path fill="none" stroke="blue" d="M748.63,-48C752.66,-48 770.31,-48 777.91,-48"/>
<polygon fill="blue" stroke="blue" points="780.2,-48 778.2,-49.13 779.2,-48 778.2,-48 778.2,-48 778.2,-48 779.2,-48 778.2,-46.88 780.2,-48 780.2,-48"/>
</g>
<!-- (33, 0) -->
<g id="node38" class="node">
<title>(33, 0)</title>
<ellipse fill="black" stroke="black" cx="782.4" cy="-15" rx="1.8" ry="1.8"/>
</g>
<!-- (30, 0)&#45;&gt;(33, 0) -->
<g id="edge32" class="edge">
<title>(30, 0)&#45;&gt;(33, 0)</title>
<path fill="none" stroke="blue" d="M748.63,-15C752.66,-15 770.31,-15 777.91,-15"/>
<polygon fill="blue" stroke="blue" points="780.2,-15 778.2,-16.13 779.2,-15 778.2,-15 778.2,-15 778.2,-15 779.2,-15 778.2,-13.88 780.2,-15 780.2,-15"/>
</g>
<!-- (34, 0) -->
<g id="node39" class="node">
<title>(34, 0)</title>
<ellipse fill="black" stroke="black" cx="782.4" cy="-85" rx="1.8" ry="1.8"/>
</g>
<!-- (31, 0)&#45;&gt;(34, 0) -->
<g id="edge33" class="edge">
<title>(31, 0)&#45;&gt;(34, 0)</title>
<path fill="none" stroke="blue" d="M748.63,-85C752.66,-85 770.31,-85 777.91,-85"/>
<polygon fill="blue" stroke="blue" points="780.2,-85 778.2,-86.13 779.2,-85 778.2,-85 778.2,-85 778.2,-85 779.2,-85 778.2,-83.88 780.2,-85 780.2,-85"/>
</g>
<!-- (35, 0) -->
<g id="node40" class="node">
<title>(35, 0)</title>
<ellipse fill="black" stroke="black" cx="820" cy="-48" rx="1.8" ry="1.8"/>
</g>
<!-- (32, 0)&#45;&gt;(35, 0) -->
<g id="edge34" class="edge">
<title>(32, 0)&#45;&gt;(35, 0)</title>
<path fill="none" stroke="blue" d="M784.28,-48C788.63,-48 807.91,-48 815.71,-48"/>
<polygon fill="blue" stroke="blue" points="817.73,-48 815.73,-49.13 816.73,-48 815.73,-48 815.73,-48 815.73,-48 816.73,-48 815.73,-46.88 817.73,-48 817.73,-48"/>
</g>
<!-- (36, 0) -->
<g id="node41" class="node">
<title>(36, 0)</title>
<ellipse fill="black" stroke="black" cx="820" cy="-15" rx="1.8" ry="1.8"/>
</g>
<!-- (33, 0)&#45;&gt;(36, 0) -->
<g id="edge35" class="edge">
<title>(33, 0)&#45;&gt;(36, 0)</title>
<path fill="none" stroke="blue" d="M784.28,-15C788.63,-15 807.91,-15 815.71,-15"/>
<polygon fill="blue" stroke="blue" points="817.73,-15 815.73,-16.13 816.73,-15 815.73,-15 815.73,-15 815.73,-15 816.73,-15 815.73,-13.88 817.73,-15 817.73,-15"/>
</g>
<!-- (37, 0) -->
<g id="node42" class="node">
<title>(37, 0)</title>
<ellipse fill="black" stroke="black" cx="820" cy="-85" rx="1.8" ry="1.8"/>
</g>
<!-- (34, 0)&#45;&gt;(37, 0) -->
<g id="edge36" class="edge">
<title>(34, 0)&#45;&gt;(37, 0)</title>
<path fill="none" stroke="blue" d="M784.28,-85C788.63,-85 807.91,-85 815.71,-85"/>
<polygon fill="blue" stroke="blue" points="817.73,-85 815.73,-86.13 816.73,-85 815.73,-85 815.73,-85 815.73,-85 816.73,-85 815.73,-83.88 817.73,-85 817.73,-85"/>
</g>
<!-- (38, 0) -->
<g id="node43" class="node">
<title>(38, 0)</title>
<ellipse fill="black" stroke="black" cx="855.6" cy="-48" rx="1.8" ry="1.8"/>
</g>
<!-- (35, 0)&#45;&gt;(38, 0) -->
<g id="edge37" class="edge">
<title>(35, 0)&#45;&gt;(38, 0)</title>
<path fill="none" stroke="blue" d="M821.83,-48C825.86,-48 843.51,-48 851.11,-48"/>
<polygon fill="blue" stroke="blue" points="853.4,-48 851.4,-49.13 852.4,-48 851.4,-48 851.4,-48 851.4,-48 852.4,-48 851.4,-46.88 853.4,-48 853.4,-48"/>
</g>
<!-- (39, 0) -->
<g id="node44" class="node">
<title>(39, 0)</title>
<ellipse fill="black" stroke="black" cx="855.6" cy="-15" rx="1.8" ry="1.8"/>
</g>
<!-- (36, 0)&#45;&gt;(39, 0) -->
<g id="edge38" class="edge">
<title>(36, 0)&#45;&gt;(39, 0)</title>
<path fill="none" stroke="blue" d="M821.83,-15C825.86,-15 843.51,-15 851.11,-15"/>
<polygon fill="blue" stroke="blue" points="853.4,-15 851.4,-16.13 852.4,-15 851.4,-15 851.4,-15 851.4,-15 852.4,-15 851.4,-13.88 853.4,-15 853.4,-15"/>
</g>
<!-- (37, 0)&#45;&gt;(25, 0) -->
<g id="edge39" class="edge">
<title>(37, 0)&#45;&gt;(25, 0)</title>
<path fill="none" stroke="blue" d="M822.2,-84.91C827.63,-84.46 850.42,-82.23 867.4,-75 873.19,-72.53 879.1,-68.09 882.44,-65.36"/>
<polygon fill="blue" stroke="blue" points="884.31,-63.79 883.5,-65.94 883.54,-64.43 882.78,-65.07 882.78,-65.07 882.78,-65.07 883.54,-64.43 882.05,-64.21 884.31,-63.79 884.31,-63.79"/>
</g>
<!-- (38, 0)&#45;&gt;(26, 0) -->
<g id="edge40" class="edge">
<title>(38, 0)&#45;&gt;(26, 0)</title>
<path fill="none" stroke="blue" d="M857.83,-48C862.02,-48 875.84,-48 882.08,-48"/>
<polygon fill="blue" stroke="blue" points="884.25,-48 882.25,-49.13 883.25,-48 882.25,-48 882.25,-48 882.25,-48 883.25,-48 882.25,-46.88 884.25,-48 884.25,-48"/>
</g>
<!-- (39, 0)&#45;&gt;(27, 0) -->
<g id="edge41" class="edge">
<title>(39, 0)&#45;&gt;(27, 0)</title>
<path fill="none" stroke="blue" d="M857.83,-15.77C862.09,-18.46 876.33,-27.42 882.41,-31.25"/>
<polygon fill="blue" stroke="blue" points="884.25,-32.4 881.96,-32.29 883.4,-31.87 882.56,-31.34 882.56,-31.34 882.56,-31.34 883.4,-31.87 883.16,-30.38 884.25,-32.4 884.25,-32.4"/>
</g>
</g>
</svg>
