<?xml version="1.0" encoding="UTF-8" standalone="no"?>
<!DOCTYPE svg PUBLIC "-//W3C//DTD SVG 1.1//EN"
 "http://www.w3.org/Graphics/SVG/1.1/DTD/svg11.dtd">
<!-- Generated by graphviz version 2.40.1 (20161225.0304)
 -->
<!-- Title: Qubit connectivity Pages: 1 -->
<svg width="360pt" height="456pt"
 viewBox="0.00 0.00 360.30 455.83" xmlns="http://www.w3.org/2000/svg" xmlns:xlink="http://www.w3.org/1999/xlink">
<g id="graph0" class="graph" transform="scale(1 1) rotate(0) translate(4 451.8279)">
<title>Qubit connectivity</title>
<polygon fill="#ffffff" stroke="transparent" points="-4,4 -4,-451.8279 356.2982,-451.8279 356.2982,4 -4,4"/>
<!-- q[6] -->
<g id="node1" class="node">
<title>q[6]</title>
<ellipse fill="none" stroke="#0000ff" cx="60.3644" cy="-361.1065" rx="24.2711" ry="24.2711"/>
<text text-anchor="middle" x="60.3644" y="-358.6065" font-family="Courier,monospace" font-size="10.00" fill="#000000">q[6]</text>
</g>
<!-- q[7] -->
<g id="node2" class="node">
<title>q[7]</title>
<ellipse fill="none" stroke="#0000ff" cx="24.1352" cy="-423.6927" rx="24.2711" ry="24.2711"/>
<text text-anchor="middle" x="24.1352" y="-421.1927" font-family="Courier,monospace" font-size="10.00" fill="#000000">q[7]</text>
</g>
<!-- q[6]&#45;&#45;q[7] -->
<g id="edge1" class="edge">
<title>q[6]&#45;&#45;q[7]</title>
<path fill="none" stroke="#000000" d="M48.0988,-382.2954C44.3217,-388.8204 40.1644,-396.0021 36.3881,-402.5257"/>
</g>
<!-- q[5] -->
<g id="node3" class="node">
<title>q[5]</title>
<ellipse fill="none" stroke="#0000ff" cx="107.8265" cy="-306.5889" rx="24.2711" ry="24.2711"/>
<text text-anchor="middle" x="107.8265" y="-304.0889" font-family="Courier,monospace" font-size="10.00" fill="#000000">q[5]</text>
</g>
<!-- q[6]&#45;&#45;q[5] -->
<g id="edge2" class="edge">
<title>q[6]&#45;&#45;q[5]</title>
<path fill="none" stroke="#000000" d="M76.4329,-342.6494C81.3812,-336.9655 86.8274,-330.7097 91.7745,-325.0271"/>
</g>
<!-- q[4] -->
<g id="node4" class="node">
<title>q[4]</title>
<ellipse fill="none" stroke="#0000ff" cx="162.6918" cy="-259.4329" rx="24.2711" ry="24.2711"/>
<text text-anchor="middle" x="162.6918" y="-256.9329" font-family="Courier,monospace" font-size="10.00" fill="#000000">q[4]</text>
</g>
<!-- q[5]&#45;&#45;q[4] -->
<g id="edge3" class="edge">
<title>q[5]&#45;&#45;q[4]</title>
<path fill="none" stroke="#000000" d="M126.4014,-290.624C132.1215,-285.7077 138.4172,-280.2966 144.136,-275.3813"/>
</g>
<!-- q[3] -->
<g id="node5" class="node">
<title>q[3]</title>
<ellipse fill="none" stroke="#0000ff" cx="212.1857" cy="-206.6991" rx="24.2711" ry="24.2711"/>
<text text-anchor="middle" x="212.1857" y="-204.1991" font-family="Courier,monospace" font-size="10.00" fill="#000000">q[3]</text>
</g>
<!-- q[4]&#45;&#45;q[3] -->
<g id="edge4" class="edge">
<title>q[4]&#45;&#45;q[3]</title>
<path fill="none" stroke="#000000" d="M179.4482,-241.5796C184.6083,-236.0818 190.2876,-230.0306 195.4466,-224.534"/>
</g>
<!-- q[2] -->
<g id="node6" class="node">
<title>q[2]</title>
<ellipse fill="none" stroke="#0000ff" cx="252.5769" cy="-146.6935" rx="24.2711" ry="24.2711"/>
<text text-anchor="middle" x="252.5769" y="-144.1935" font-family="Courier,monospace" font-size="10.00" fill="#000000">q[2]</text>
</g>
<!-- q[3]&#45;&#45;q[2] -->
<g id="edge5" class="edge">
<title>q[3]&#45;&#45;q[2]</title>
<path fill="none" stroke="#000000" d="M225.8604,-186.384C230.0714,-180.1279 234.7063,-173.2424 238.9164,-166.9877"/>
</g>
<!-- q[1] -->
<g id="node7" class="node">
<title>q[1]</title>
<ellipse fill="none" stroke="#0000ff" cx="285.5689" cy="-82.3422" rx="24.2711" ry="24.2711"/>
<text text-anchor="middle" x="285.5689" y="-79.8422" font-family="Courier,monospace" font-size="10.00" fill="#000000">q[1]</text>
</g>
<!-- q[2]&#45;&#45;q[1] -->
<g id="edge6" class="edge">
<title>q[2]&#45;&#45;q[1]</title>
<path fill="none" stroke="#000000" d="M263.7465,-124.9071C267.1862,-118.198 270.972,-110.8138 274.4108,-104.1062"/>
</g>
<!-- q[0] -->
<g id="node8" class="node">
<title>q[0]</title>
<ellipse fill="none" stroke="#0000ff" cx="328.163" cy="-24.1352" rx="24.2711" ry="24.2711"/>
<text text-anchor="middle" x="328.163" y="-21.6352" font-family="Courier,monospace" font-size="10.00" fill="#000000">q[0]</text>
</g>
<!-- q[1]&#45;&#45;q[0] -->
<g id="edge7" class="edge">
<title>q[1]&#45;&#45;q[0]</title>
<path fill="none" stroke="#000000" d="M299.9893,-62.636C304.4301,-56.5675 309.3177,-49.8883 313.7574,-43.8211"/>
</g>
</g>
</svg>
