<?xml version="1.0" encoding="UTF-8" standalone="no"?>
<!DOCTYPE svg PUBLIC "-//W3C//DTD SVG 1.1//EN"
 "http://www.w3.org/Graphics/SVG/1.1/DTD/svg11.dtd">
<!-- Generated by graphviz version 2.43.0 (0)
 -->
<!-- Title: Circuit Pages: 1 -->
<svg width="274pt" height="123pt"
 viewBox="0.00 0.00 274.00 123.00" xmlns="http://www.w3.org/2000/svg" xmlns:xlink="http://www.w3.org/1999/xlink">
<g id="graph0" class="graph" transform="scale(1 1) rotate(0) translate(4 119)">
<title>Circuit</title>
<polygon fill="white" stroke="transparent" points="-4,4 -4,-119 270,-119 270,4 -4,4"/>
<g id="clust1" class="cluster">
<title>cluster_q_inputs</title>
<path fill="lightgrey" stroke="lightgrey" d="M18.53,-9C18.53,-9 23.07,-9 23.07,-9 25.33,-9 27.6,-11.27 27.6,-13.53 27.6,-13.53 27.6,-63.47 27.6,-63.47 27.6,-65.73 25.33,-68 23.07,-68 23.07,-68 18.53,-68 18.53,-68 16.27,-68 14,-65.73 14,-63.47 14,-63.47 14,-13.53 14,-13.53 14,-11.27 16.27,-9 18.53,-9"/>
</g>
<g id="clust3" class="cluster">
<title>cluster_q_outputs</title>
<path fill="lightgrey" stroke="lightgrey" d="M248.93,-8C248.93,-8 253.47,-8 253.47,-8 255.73,-8 258,-10.27 258,-12.53 258,-12.53 258,-62.47 258,-62.47 258,-64.73 255.73,-67 253.47,-67 253.47,-67 248.93,-67 248.93,-67 246.67,-67 244.4,-64.73 244.4,-62.47 244.4,-62.47 244.4,-12.53 244.4,-12.53 244.4,-10.27 246.67,-8 248.93,-8"/>
</g>
<g id="clust5" class="cluster">
<title>cluster_8</title>
<path fill="lightblue" stroke="lightblue" d="M147.4,-50C147.4,-50 157.6,-50 157.6,-50 162.7,-50 167.8,-55.1 167.8,-60.2 167.8,-60.2 167.8,-87.8 167.8,-87.8 167.8,-92.9 162.7,-98 157.6,-98 157.6,-98 147.4,-98 147.4,-98 142.3,-98 137.2,-92.9 137.2,-87.8 137.2,-87.8 137.2,-60.2 137.2,-60.2 137.2,-55.1 142.3,-50 147.4,-50"/>
<text text-anchor="middle" x="152.5" y="-86" font-family="Times,serif" font-size="10.00">CX</text>
</g>
<g id="clust6" class="cluster">
<title>cluster_9</title>
<path fill="lightblue" stroke="lightblue" d="M50.6,-74C50.6,-74 114.2,-74 114.2,-74 119.7,-74 125.2,-79.5 125.2,-85 125.2,-85 125.2,-96 125.2,-96 125.2,-101.5 119.7,-107 114.2,-107 114.2,-107 50.6,-107 50.6,-107 45.1,-107 39.6,-101.5 39.6,-96 39.6,-96 39.6,-85 39.6,-85 39.6,-79.5 45.1,-74 50.6,-74"/>
<text text-anchor="middle" x="82.4" y="-95" font-family="Times,serif" font-size="10.00">U3(3.8, 0, 1.5)</text>
</g>
<g id="clust7" class="cluster">
<title>cluster_10</title>
<path fill="lightblue" stroke="lightblue" d="M190.8,-41C190.8,-41 221.4,-41 221.4,-41 226.9,-41 232.4,-46.5 232.4,-52 232.4,-52 232.4,-63 232.4,-63 232.4,-68.5 226.9,-74 221.4,-74 221.4,-74 190.8,-74 190.8,-74 185.3,-74 179.8,-68.5 179.8,-63 179.8,-63 179.8,-52 179.8,-52 179.8,-46.5 185.3,-41 190.8,-41"/>
<text text-anchor="middle" x="206.1" y="-62" font-family="Times,serif" font-size="10.00">U1(0.5)</text>
</g>
<g id="clust8" class="cluster">
<title>cluster_11</title>
<path fill="lightblue" stroke="lightblue" d="M67.6,-41C67.6,-41 98.2,-41 98.2,-41 103.7,-41 109.2,-46.5 109.2,-52 109.2,-52 109.2,-63 109.2,-63 109.2,-68.5 103.7,-74 98.2,-74 98.2,-74 67.6,-74 67.6,-74 62.1,-74 56.6,-68.5 56.6,-63 56.6,-63 56.6,-52 56.6,-52 56.6,-46.5 62.1,-41 67.6,-41"/>
<text text-anchor="middle" x="82.9" y="-62" font-family="Times,serif" font-size="10.00">U1(0.5)</text>
</g>
<!-- (0, 0) -->
<g id="node1" class="node">
<title>(0, 0)</title>
<ellipse fill="blue" stroke="blue" cx="20.8" cy="-61" rx="1.8" ry="1.8"/>
<text text-anchor="middle" x="9.5" y="-52.8" font-family="Courier,monospace" font-size="8.00">q[0]</text>
</g>
<!-- (9, 0) -->
<g id="node11" class="node">
<title>(9, 0)</title>
<ellipse fill="black" stroke="black" cx="82.4" cy="-81" rx="1.8" ry="1.8"/>
</g>
<!-- (0, 0)&#45;&gt;(9, 0) -->
<g id="edge1" class="edge">
<title>(0, 0)&#45;&gt;(9, 0)</title>
<path fill="none" stroke="blue" d="M22.65,-61.95C25.03,-64.55 32.08,-71.78 39.6,-75 53.05,-80.76 70.92,-81.18 78.16,-81.09"/>
<polygon fill="blue" stroke="blue" points="80.31,-81.05 78.34,-82.21 79.31,-81.07 78.31,-81.09 78.31,-81.09 78.31,-81.09 79.31,-81.07 78.29,-79.97 80.31,-81.05 80.31,-81.05"/>
</g>
<!-- (2, 0) -->
<g id="node2" class="node">
<title>(2, 0)</title>
<ellipse fill="blue" stroke="blue" cx="20.8" cy="-46" rx="1.8" ry="1.8"/>
<text text-anchor="middle" x="9.5" y="-37.8" font-family="Courier,monospace" font-size="8.00">q[1]</text>
</g>
<!-- (11, 0) -->
<g id="node13" class="node">
<title>(11, 0)</title>
<ellipse fill="black" stroke="black" cx="82.4" cy="-48" rx="1.8" ry="1.8"/>
</g>
<!-- (2, 0)&#45;&gt;(11, 0) -->
<g id="edge2" class="edge">
<title>(2, 0)&#45;&gt;(11, 0)</title>
<path fill="none" stroke="blue" d="M22.83,-46.03C29.56,-46.26 67.15,-47.52 78.29,-47.9"/>
<polygon fill="blue" stroke="blue" points="80.52,-47.97 78.48,-49.03 79.52,-47.94 78.52,-47.9 78.52,-47.9 78.52,-47.9 79.52,-47.94 78.56,-46.78 80.52,-47.97 80.52,-47.97"/>
</g>
<!-- (4, 0) -->
<g id="node3" class="node">
<title>(4, 0)</title>
<ellipse fill="blue" stroke="blue" cx="20.8" cy="-31" rx="1.8" ry="1.8"/>
<text text-anchor="middle" x="9.5" y="-22.8" font-family="Courier,monospace" font-size="8.00">q[2]</text>
</g>
<!-- (5, 0) -->
<g id="node7" class="node">
<title>(5, 0)</title>
<ellipse fill="blue" stroke="blue" cx="251.2" cy="-30" rx="1.8" ry="1.8"/>
<text text-anchor="middle" x="239.9" y="-21.8" font-family="Courier,monospace" font-size="8.00">q[2]</text>
</g>
<!-- (4, 0)&#45;&gt;(5, 0) -->
<g id="edge3" class="edge">
<title>(4, 0)&#45;&gt;(5, 0)</title>
<path fill="none" stroke="blue" d="M22.82,-31C38.09,-30.93 220.5,-30.13 247,-30.01"/>
<polygon fill="blue" stroke="blue" points="249.26,-30 247.26,-31.14 248.26,-30.01 247.26,-30.01 247.26,-30.01 247.26,-30.01 248.26,-30.01 247.25,-28.89 249.26,-30 249.26,-30"/>
</g>
<!-- (6, 0) -->
<g id="node4" class="node">
<title>(6, 0)</title>
<ellipse fill="blue" stroke="blue" cx="20.8" cy="-16" rx="1.8" ry="1.8"/>
<text text-anchor="middle" x="9.5" y="-7.8" font-family="Courier,monospace" font-size="8.00">q[3]</text>
</g>
<!-- (7, 0) -->
<g id="node8" class="node">
<title>(7, 0)</title>
<ellipse fill="blue" stroke="blue" cx="251.2" cy="-15" rx="1.8" ry="1.8"/>
<text text-anchor="middle" x="239.9" y="-6.8" font-family="Courier,monospace" font-size="8.00">q[3]</text>
</g>
<!-- (6, 0)&#45;&gt;(7, 0) -->
<g id="edge4" class="edge">
<title>(6, 0)&#45;&gt;(7, 0)</title>
<path fill="none" stroke="blue" d="M22.82,-16C38.09,-15.93 220.5,-15.13 247,-15.01"/>
<polygon fill="blue" stroke="blue" points="249.26,-15 247.26,-16.14 248.26,-15.01 247.26,-15.01 247.26,-15.01 247.26,-15.01 248.26,-15.01 247.25,-13.89 249.26,-15 249.26,-15"/>
</g>
<!-- (1, 0) -->
<g id="node5" class="node">
<title>(1, 0)</title>
<ellipse fill="blue" stroke="blue" cx="251.2" cy="-60" rx="1.8" ry="1.8"/>
<text text-anchor="middle" x="239.9" y="-51.8" font-family="Courier,monospace" font-size="8.00">q[0]</text>
</g>
<!-- (3, 0) -->
<g id="node6" class="node">
<title>(3, 0)</title>
<ellipse fill="blue" stroke="blue" cx="251.2" cy="-45" rx="1.8" ry="1.8"/>
<text text-anchor="middle" x="239.9" y="-36.8" font-family="Courier,monospace" font-size="8.00">q[1]</text>
</g>
<!-- (8, 0) -->
<g id="node9" class="node">
<title>(8, 0)</title>
<ellipse fill="black" stroke="black" cx="152" cy="-57" rx="1.8" ry="1.8"/>
<text text-anchor="middle" x="147.2" y="-48.8" font-family="Helvetica,sans-Serif" font-size="8.00">0</text>
</g>
<!-- (8, 0)&#45;&gt;(1, 0) -->
<g id="edge5" class="edge">
<title>(8, 0)&#45;&gt;(1, 0)</title>
<path fill="none" stroke="blue" d="M153.84,-57.38C156.14,-58.44 162.77,-61.59 167.8,-65 173.55,-68.89 173.27,-72.64 179.8,-75 201.78,-82.96 210.44,-83.02 232.4,-75 239.06,-72.57 244.96,-66.42 248,-62.8"/>
<polygon fill="blue" stroke="blue" points="249.39,-61.08 249.01,-63.34 248.76,-61.86 248.13,-62.64 248.13,-62.64 248.13,-62.64 248.76,-61.86 247.26,-61.93 249.39,-61.08 249.39,-61.08"/>
</g>
<!-- (8, 1) -->
<g id="node10" class="node">
<title>(8, 1)</title>
<ellipse fill="black" stroke="black" cx="152" cy="-72" rx="1.8" ry="1.8"/>
<text text-anchor="middle" x="147.2" y="-63.8" font-family="Helvetica,sans-Serif" font-size="8.00">1</text>
</g>
<!-- (10, 0) -->
<g id="node12" class="node">
<title>(10, 0)</title>
<ellipse fill="black" stroke="black" cx="205.6" cy="-48" rx="1.8" ry="1.8"/>
</g>
<!-- (8, 1)&#45;&gt;(10, 0) -->
<g id="edge6" class="edge">
<title>(8, 1)&#45;&gt;(10, 0)</title>
<path fill="none" stroke="blue" d="M153.9,-71.58C159.67,-68.9 191.71,-54 201.65,-49.37"/>
<polygon fill="blue" stroke="blue" points="203.51,-48.51 202.17,-50.37 202.6,-48.93 201.7,-49.35 201.7,-49.35 201.7,-49.35 202.6,-48.93 201.22,-48.33 203.51,-48.51 203.51,-48.51"/>
</g>
<!-- (9, 0)&#45;&gt;(8, 1) -->
<g id="edge7" class="edge">
<title>(9, 0)&#45;&gt;(8, 1)</title>
<path fill="none" stroke="blue" d="M84.57,-80.84C92.27,-79.82 135.57,-74.05 147.79,-72.43"/>
<polygon fill="blue" stroke="blue" points="150,-72.13 148.16,-73.51 149.01,-72.27 148.02,-72.4 148.02,-72.4 148.02,-72.4 149.01,-72.27 147.87,-71.28 150,-72.13 150,-72.13"/>
</g>
<!-- (10, 0)&#45;&gt;(3, 0) -->
<g id="edge8" class="edge">
<title>(10, 0)&#45;&gt;(3, 0)</title>
<path fill="none" stroke="blue" d="M207.68,-47.93C213.19,-47.55 238.33,-45.82 247.14,-45.21"/>
<polygon fill="blue" stroke="blue" points="249.31,-45.06 247.39,-46.32 248.31,-45.13 247.31,-45.2 247.31,-45.2 247.31,-45.2 248.31,-45.13 247.24,-44.08 249.31,-45.06 249.31,-45.06"/>
</g>
<!-- (11, 0)&#45;&gt;(8, 0) -->
<g id="edge9" class="edge">
<title>(11, 0)&#45;&gt;(8, 0)</title>
<path fill="none" stroke="blue" d="M84.57,-48.16C92.27,-49.18 135.57,-54.95 147.79,-56.57"/>
<polygon fill="blue" stroke="blue" points="150,-56.87 147.87,-57.72 149.01,-56.73 148.02,-56.6 148.02,-56.6 148.02,-56.6 149.01,-56.73 148.16,-55.49 150,-56.87 150,-56.87"/>
</g>
</g>
</svg>
