<?xml version="1.0" encoding="UTF-8" standalone="no"?>
<!DOCTYPE svg PUBLIC "-//W3C//DTD SVG 1.1//EN"
 "http://www.w3.org/Graphics/SVG/1.1/DTD/svg11.dtd">
<!-- Generated by graphviz version 2.43.0 (0)
 -->
<!-- Title: Circuit Pages: 1 -->
<svg width="337pt" height="123pt"
 viewBox="0.00 0.00 337.00 123.00" xmlns="http://www.w3.org/2000/svg" xmlns:xlink="http://www.w3.org/1999/xlink">
<g id="graph0" class="graph" transform="scale(1 1) rotate(0) translate(4 119)">
<title>Circuit</title>
<polygon fill="white" stroke="transparent" points="-4,4 -4,-119 333,-119 333,4 -4,4"/>
<g id="clust1" class="cluster">
<title>cluster_q_inputs</title>
<path fill="lightgrey" stroke="lightgrey" d="M18.53,-9C18.53,-9 23.07,-9 23.07,-9 25.33,-9 27.6,-11.27 27.6,-13.53 27.6,-13.53 27.6,-63.47 27.6,-63.47 27.6,-65.73 25.33,-68 23.07,-68 23.07,-68 18.53,-68 18.53,-68 16.27,-68 14,-65.73 14,-63.47 14,-63.47 14,-13.53 14,-13.53 14,-11.27 16.27,-9 18.53,-9"/>
</g>
<g id="clust3" class="cluster">
<title>cluster_q_outputs</title>
<path fill="lightgrey" stroke="lightgrey" d="M311.93,-8C311.93,-8 316.47,-8 316.47,-8 318.73,-8 321,-10.27 321,-12.53 321,-12.53 321,-62.47 321,-62.47 321,-64.73 318.73,-67 316.47,-67 316.47,-67 311.93,-67 311.93,-67 309.67,-67 307.4,-64.73 307.4,-62.47 307.4,-62.47 307.4,-12.53 307.4,-12.53 307.4,-10.27 309.67,-8 311.93,-8"/>
</g>
<g id="clust5" class="cluster">
<title>cluster_8</title>
<path fill="lightblue" stroke="lightblue" d="M195.4,-50C195.4,-50 205.6,-50 205.6,-50 210.7,-50 215.8,-55.1 215.8,-60.2 215.8,-60.2 215.8,-87.8 215.8,-87.8 215.8,-92.9 210.7,-98 205.6,-98 205.6,-98 195.4,-98 195.4,-98 190.3,-98 185.2,-92.9 185.2,-87.8 185.2,-87.8 185.2,-60.2 185.2,-60.2 185.2,-55.1 190.3,-50 195.4,-50"/>
<text text-anchor="middle" x="200.5" y="-86" font-family="Times,serif" font-size="10.00">CX</text>
</g>
<g id="clust6" class="cluster">
<title>cluster_9</title>
<path fill="lightblue" stroke="lightblue" d="M50.6,-74C50.6,-74 162.2,-74 162.2,-74 167.7,-74 173.2,-79.5 173.2,-85 173.2,-85 173.2,-96 173.2,-96 173.2,-101.5 167.7,-107 162.2,-107 162.2,-107 50.6,-107 50.6,-107 45.1,-107 39.6,-101.5 39.6,-96 39.6,-96 39.6,-85 39.6,-85 39.6,-79.5 45.1,-74 50.6,-74"/>
<text text-anchor="middle" x="106.4" y="-95" font-family="Times,serif" font-size="10.00">U3(3.8*PI, 0*PI, 1.5*PI)</text>
</g>
<g id="clust7" class="cluster">
<title>cluster_10</title>
<path fill="lightblue" stroke="lightblue" d="M238.8,-41C238.8,-41 285.4,-41 285.4,-41 290.9,-41 296.4,-46.5 296.4,-52 296.4,-52 296.4,-63 296.4,-63 296.4,-68.5 290.9,-74 285.4,-74 285.4,-74 238.8,-74 238.8,-74 233.3,-74 227.8,-68.5 227.8,-63 227.8,-63 227.8,-52 227.8,-52 227.8,-46.5 233.3,-41 238.8,-41"/>
<text text-anchor="middle" x="262.1" y="-62" font-family="Times,serif" font-size="10.00">U1(0.5*PI)</text>
</g>
<g id="clust8" class="cluster">
<title>cluster_11</title>
<path fill="lightblue" stroke="lightblue" d="M83.6,-41C83.6,-41 130.2,-41 130.2,-41 135.7,-41 141.2,-46.5 141.2,-52 141.2,-52 141.2,-63 141.2,-63 141.2,-68.5 135.7,-74 130.2,-74 130.2,-74 83.6,-74 83.6,-74 78.1,-74 72.6,-68.5 72.6,-63 72.6,-63 72.6,-52 72.6,-52 72.6,-46.5 78.1,-41 83.6,-41"/>
<text text-anchor="middle" x="106.9" y="-62" font-family="Times,serif" font-size="10.00">U1(0.5*PI)</text>
</g>
<!-- (0, 0) -->
<g id="node1" class="node">
<title>(0, 0)</title>
<ellipse fill="blue" stroke="blue" cx="20.8" cy="-61" rx="1.8" ry="1.8"/>
<text text-anchor="middle" x="9.5" y="-52.8" font-family="Courier,monospace" font-size="8.00">q[0]</text>
</g>
<!-- (9, 0) -->
<g id="node11" class="node">
<title>(9, 0)</title>
<ellipse fill="black" stroke="black" cx="106.4" cy="-81" rx="1.8" ry="1.8"/>
</g>
<!-- (0, 0)&#45;&gt;(9, 0) -->
<g id="edge1" class="edge">
<title>(0, 0)&#45;&gt;(9, 0)</title>
<path fill="none" stroke="blue" d="M22.64,-61.97C25,-64.62 32,-71.98 39.6,-75 62.01,-83.92 91.99,-82.23 101.99,-81.35"/>
<polygon fill="blue" stroke="blue" points="104.43,-81.11 102.54,-82.42 103.43,-81.21 102.43,-81.31 102.43,-81.31 102.43,-81.31 103.43,-81.21 102.33,-80.19 104.43,-81.11 104.43,-81.11"/>
</g>
<!-- (2, 0) -->
<g id="node2" class="node">
<title>(2, 0)</title>
<ellipse fill="blue" stroke="blue" cx="20.8" cy="-46" rx="1.8" ry="1.8"/>
<text text-anchor="middle" x="9.5" y="-37.8" font-family="Courier,monospace" font-size="8.00">q[1]</text>
</g>
<!-- (11, 0) -->
<g id="node13" class="node">
<title>(11, 0)</title>
<ellipse fill="black" stroke="black" cx="106.4" cy="-48" rx="1.8" ry="1.8"/>
</g>
<!-- (2, 0)&#45;&gt;(11, 0) -->
<g id="edge2" class="edge">
<title>(2, 0)&#45;&gt;(11, 0)</title>
<path fill="none" stroke="blue" d="M22.74,-46.02C30.81,-46.22 88.55,-47.6 102.41,-47.93"/>
<polygon fill="blue" stroke="blue" points="104.57,-47.98 102.55,-49.06 103.57,-47.96 102.57,-47.93 102.57,-47.93 102.57,-47.93 103.57,-47.96 102.6,-46.81 104.57,-47.98 104.57,-47.98"/>
</g>
<!-- (4, 0) -->
<g id="node3" class="node">
<title>(4, 0)</title>
<ellipse fill="blue" stroke="blue" cx="20.8" cy="-31" rx="1.8" ry="1.8"/>
<text text-anchor="middle" x="9.5" y="-22.8" font-family="Courier,monospace" font-size="8.00">q[2]</text>
</g>
<!-- (5, 0) -->
<g id="node7" class="node">
<title>(5, 0)</title>
<ellipse fill="blue" stroke="blue" cx="314.2" cy="-30" rx="1.8" ry="1.8"/>
<text text-anchor="middle" x="302.9" y="-21.8" font-family="Courier,monospace" font-size="8.00">q[2]</text>
</g>
<!-- (4, 0)&#45;&gt;(5, 0) -->
<g id="edge3" class="edge">
<title>(4, 0)&#45;&gt;(5, 0)</title>
<path fill="none" stroke="blue" d="M22.64,-31C38.61,-30.94 278.57,-30.12 309.85,-30.01"/>
<polygon fill="blue" stroke="blue" points="312.21,-30 310.21,-31.14 311.21,-30.01 310.21,-30.01 310.21,-30.01 310.21,-30.01 311.21,-30.01 310.21,-28.89 312.21,-30 312.21,-30"/>
</g>
<!-- (6, 0) -->
<g id="node4" class="node">
<title>(6, 0)</title>
<ellipse fill="blue" stroke="blue" cx="20.8" cy="-16" rx="1.8" ry="1.8"/>
<text text-anchor="middle" x="9.5" y="-7.8" font-family="Courier,monospace" font-size="8.00">q[3]</text>
</g>
<!-- (7, 0) -->
<g id="node8" class="node">
<title>(7, 0)</title>
<ellipse fill="blue" stroke="blue" cx="314.2" cy="-15" rx="1.8" ry="1.8"/>
<text text-anchor="middle" x="302.9" y="-6.8" font-family="Courier,monospace" font-size="8.00">q[3]</text>
</g>
<!-- (6, 0)&#45;&gt;(7, 0) -->
<g id="edge4" class="edge">
<title>(6, 0)&#45;&gt;(7, 0)</title>
<path fill="none" stroke="blue" d="M22.64,-16C38.61,-15.94 278.57,-15.12 309.85,-15.01"/>
<polygon fill="blue" stroke="blue" points="312.21,-15 310.21,-16.14 311.21,-15.01 310.21,-15.01 310.21,-15.01 310.21,-15.01 311.21,-15.01 310.21,-13.89 312.21,-15 312.21,-15"/>
</g>
<!-- (1, 0) -->
<g id="node5" class="node">
<title>(1, 0)</title>
<ellipse fill="blue" stroke="blue" cx="314.2" cy="-60" rx="1.8" ry="1.8"/>
<text text-anchor="middle" x="302.9" y="-51.8" font-family="Courier,monospace" font-size="8.00">q[0]</text>
</g>
<!-- (3, 0) -->
<g id="node6" class="node">
<title>(3, 0)</title>
<ellipse fill="blue" stroke="blue" cx="314.2" cy="-45" rx="1.8" ry="1.8"/>
<text text-anchor="middle" x="302.9" y="-36.8" font-family="Courier,monospace" font-size="8.00">q[1]</text>
</g>
<!-- (8, 0) -->
<g id="node9" class="node">
<title>(8, 0)</title>
<ellipse fill="black" stroke="black" cx="200" cy="-57" rx="1.8" ry="1.8"/>
<text text-anchor="middle" x="195.2" y="-48.8" font-family="Helvetica,sans-Serif" font-size="8.00">0</text>
</g>
<!-- (8, 0)&#45;&gt;(1, 0) -->
<g id="edge5" class="edge">
<title>(8, 0)&#45;&gt;(1, 0)</title>
<path fill="none" stroke="blue" d="M201.84,-57.38C204.14,-58.44 210.77,-61.59 215.8,-65 221.55,-68.89 221.27,-72.64 227.8,-75 256.47,-85.38 267.91,-85.87 296.4,-75 302.81,-72.55 308.33,-66.41 311.16,-62.79"/>
<polygon fill="blue" stroke="blue" points="312.45,-61.08 312.15,-63.35 311.85,-61.88 311.25,-62.68 311.25,-62.68 311.25,-62.68 311.85,-61.88 310.35,-62 312.45,-61.08 312.45,-61.08"/>
</g>
<!-- (8, 1) -->
<g id="node10" class="node">
<title>(8, 1)</title>
<ellipse fill="black" stroke="black" cx="200" cy="-72" rx="1.8" ry="1.8"/>
<text text-anchor="middle" x="195.2" y="-63.8" font-family="Helvetica,sans-Serif" font-size="8.00">1</text>
</g>
<!-- (10, 0) -->
<g id="node12" class="node">
<title>(10, 0)</title>
<ellipse fill="black" stroke="black" cx="261.6" cy="-48" rx="1.8" ry="1.8"/>
</g>
<!-- (8, 1)&#45;&gt;(10, 0) -->
<g id="edge6" class="edge">
<title>(8, 1)&#45;&gt;(10, 0)</title>
<path fill="none" stroke="blue" d="M202.03,-71.58C208.82,-68.85 246.99,-53.48 257.77,-49.14"/>
<polygon fill="blue" stroke="blue" points="259.72,-48.36 258.28,-50.15 258.79,-48.73 257.86,-49.1 257.86,-49.1 257.86,-49.1 258.79,-48.73 257.44,-48.06 259.72,-48.36 259.72,-48.36"/>
</g>
<!-- (9, 0)&#45;&gt;(8, 1) -->
<g id="edge7" class="edge">
<title>(9, 0)&#45;&gt;(8, 1)</title>
<path fill="none" stroke="blue" d="M108.33,-80.92C114.2,-80.44 146.73,-77.75 173.2,-75 181.37,-74.15 190.99,-72.99 195.85,-72.39"/>
<polygon fill="blue" stroke="blue" points="198.02,-72.12 196.17,-73.49 197.02,-72.25 196.03,-72.37 196.03,-72.37 196.03,-72.37 197.02,-72.25 195.89,-71.25 198.02,-72.12 198.02,-72.12"/>
</g>
<!-- (10, 0)&#45;&gt;(3, 0) -->
<g id="edge8" class="edge">
<title>(10, 0)&#45;&gt;(3, 0)</title>
<path fill="none" stroke="blue" d="M263.48,-47.95C269.09,-47.62 300.03,-45.78 310.06,-45.19"/>
<polygon fill="blue" stroke="blue" points="312.13,-45.06 310.2,-46.3 311.13,-45.12 310.13,-45.18 310.13,-45.18 310.13,-45.18 311.13,-45.12 310.07,-44.06 312.13,-45.06 312.13,-45.06"/>
</g>
<!-- (11, 0)&#45;&gt;(8, 0) -->
<g id="edge9" class="edge">
<title>(11, 0)&#45;&gt;(8, 0)</title>
<path fill="none" stroke="blue" d="M108.43,-48.1C117.35,-48.98 181.59,-55.29 196.1,-56.71"/>
<polygon fill="blue" stroke="blue" points="198.09,-56.91 195.99,-57.83 197.1,-56.81 196.1,-56.72 196.1,-56.72 196.1,-56.72 197.1,-56.81 196.21,-55.6 198.09,-56.91 198.09,-56.91"/>
</g>
</g>
</svg>
