<?xml version="1.0" encoding="UTF-8" standalone="no"?>
<!DOCTYPE svg PUBLIC "-//W3C//DTD SVG 1.1//EN"
 "http://www.w3.org/Graphics/SVG/1.1/DTD/svg11.dtd">
<!-- Generated by graphviz version 2.43.0 (0)
 -->
<!-- Title: Circuit Pages: 1 -->
<svg width="969pt" height="130pt"
 viewBox="0.00 0.00 969.00 130.00" xmlns="http://www.w3.org/2000/svg" xmlns:xlink="http://www.w3.org/1999/xlink">
<g id="graph0" class="graph" transform="scale(1 1) rotate(0) translate(4 126)">
<title>Circuit</title>
<polygon fill="white" stroke="transparent" points="-4,4 -4,-126 965,-126 965,4 -4,4"/>
<g id="clust1" class="cluster">
<title>cluster_q_inputs</title>
<path fill="lightgrey" stroke="lightgrey" d="M18.53,-26C18.53,-26 23.07,-26 23.07,-26 25.33,-26 27.6,-28.27 27.6,-30.53 27.6,-30.53 27.6,-65.47 27.6,-65.47 27.6,-67.73 25.33,-70 23.07,-70 23.07,-70 18.53,-70 18.53,-70 16.27,-70 14,-67.73 14,-65.47 14,-65.47 14,-30.53 14,-30.53 14,-28.27 16.27,-26 18.53,-26"/>
</g>
<g id="clust3" class="cluster">
<title>cluster_q_outputs</title>
<path fill="lightgrey" stroke="lightgrey" d="M943.93,-26C943.93,-26 948.47,-26 948.47,-26 950.73,-26 953,-28.27 953,-30.53 953,-30.53 953,-65.47 953,-65.47 953,-67.73 950.73,-70 948.47,-70 948.47,-70 943.93,-70 943.93,-70 941.67,-70 939.4,-67.73 939.4,-65.47 939.4,-65.47 939.4,-30.53 939.4,-30.53 939.4,-28.27 941.67,-26 943.93,-26"/>
</g>
<g id="clust5" class="cluster">
<title>cluster_3</title>
<path fill="lightblue" stroke="lightblue" d="M48.13,-41C48.13,-41 56.67,-41 56.67,-41 60.93,-41 65.2,-45.27 65.2,-49.53 65.2,-49.53 65.2,-65.47 65.2,-65.47 65.2,-69.73 60.93,-74 56.67,-74 56.67,-74 48.13,-74 48.13,-74 43.87,-74 39.6,-69.73 39.6,-65.47 39.6,-65.47 39.6,-49.53 39.6,-49.53 39.6,-45.27 43.87,-41 48.13,-41"/>
<text text-anchor="middle" x="52.4" y="-62" font-family="Times,serif" font-size="10.00">H</text>
</g>
<g id="clust6" class="cluster">
<title>cluster_4</title>
<path fill="lightblue" stroke="lightblue" d="M88.2,-41C88.2,-41 139.8,-41 139.8,-41 145.3,-41 150.8,-46.5 150.8,-52 150.8,-52 150.8,-63 150.8,-63 150.8,-68.5 145.3,-74 139.8,-74 139.8,-74 88.2,-74 88.2,-74 82.7,-74 77.2,-68.5 77.2,-63 77.2,-63 77.2,-52 77.2,-52 77.2,-46.5 82.7,-41 88.2,-41"/>
<text text-anchor="middle" x="114" y="-62" font-family="Times,serif" font-size="10.00">Rz(0.45*PI)</text>
</g>
<g id="clust7" class="cluster">
<title>cluster_5</title>
<path fill="lightblue" stroke="lightblue" d="M170.33,-41C170.33,-41 178.87,-41 178.87,-41 183.13,-41 187.4,-45.27 187.4,-49.53 187.4,-49.53 187.4,-65.47 187.4,-65.47 187.4,-69.73 183.13,-74 178.87,-74 178.87,-74 170.33,-74 170.33,-74 166.07,-74 161.8,-69.73 161.8,-65.47 161.8,-65.47 161.8,-49.53 161.8,-49.53 161.8,-45.27 166.07,-41 170.33,-41"/>
<text text-anchor="middle" x="174.6" y="-62" font-family="Times,serif" font-size="10.00">H</text>
</g>
<g id="clust8" class="cluster">
<title>cluster_6</title>
<path fill="lightblue" stroke="lightblue" d="M210.4,-78C210.4,-78 256,-78 256,-78 261.5,-78 267,-83.5 267,-89 267,-89 267,-100 267,-100 267,-105.5 261.5,-111 256,-111 256,-111 210.4,-111 210.4,-111 204.9,-111 199.4,-105.5 199.4,-100 199.4,-100 199.4,-89 199.4,-89 199.4,-83.5 204.9,-78 210.4,-78"/>
<text text-anchor="middle" x="233.2" y="-99" font-family="Times,serif" font-size="10.00">Rz(0.2*PI)</text>
</g>
<g id="clust9" class="cluster">
<title>cluster_7</title>
<path fill="lightblue" stroke="lightblue" d="M228.93,-43C228.93,-43 237.47,-43 237.47,-43 241.73,-43 246,-47.27 246,-51.53 246,-51.53 246,-67.47 246,-67.47 246,-71.73 241.73,-76 237.47,-76 237.47,-76 228.93,-76 228.93,-76 224.67,-76 220.4,-71.73 220.4,-67.47 220.4,-67.47 220.4,-51.53 220.4,-51.53 220.4,-47.27 224.67,-43 228.93,-43"/>
<text text-anchor="middle" x="233.2" y="-64" font-family="Times,serif" font-size="10.00">H</text>
</g>
<g id="clust10" class="cluster">
<title>cluster_8</title>
<path fill="lightblue" stroke="lightblue" d="M287.87,-78C287.87,-78 295.73,-78 295.73,-78 299.67,-78 303.6,-81.93 303.6,-85.87 303.6,-85.87 303.6,-103.13 303.6,-103.13 303.6,-107.07 299.67,-111 295.73,-111 295.73,-111 287.87,-111 287.87,-111 283.93,-111 280,-107.07 280,-103.13 280,-103.13 280,-85.87 280,-85.87 280,-81.93 283.93,-78 287.87,-78"/>
<text text-anchor="middle" x="291.8" y="-99" font-family="Times,serif" font-size="10.00">V</text>
</g>
<g id="clust11" class="cluster">
<title>cluster_9</title>
<path fill="lightblue" stroke="lightblue" d="M334.13,-78C334.13,-78 341.67,-78 341.67,-78 345.43,-78 349.2,-81.77 349.2,-85.53 349.2,-85.53 349.2,-103.47 349.2,-103.47 349.2,-107.23 345.43,-111 341.67,-111 341.67,-111 334.13,-111 334.13,-111 330.37,-111 326.6,-107.23 326.6,-103.47 326.6,-103.47 326.6,-85.53 326.6,-85.53 326.6,-81.77 330.37,-78 334.13,-78"/>
<text text-anchor="middle" x="337.9" y="-99" font-family="Times,serif" font-size="10.00">S</text>
</g>
<g id="clust12" class="cluster">
<title>cluster_10</title>
<path fill="lightblue" stroke="lightblue" d="M229.93,-10C229.93,-10 237.47,-10 237.47,-10 241.23,-10 245,-13.77 245,-17.53 245,-17.53 245,-35.47 245,-35.47 245,-39.23 241.23,-43 237.47,-43 237.47,-43 229.93,-43 229.93,-43 226.17,-43 222.4,-39.23 222.4,-35.47 222.4,-35.47 222.4,-17.53 222.4,-17.53 222.4,-13.77 226.17,-10 229.93,-10"/>
<text text-anchor="middle" x="233.7" y="-31" font-family="Times,serif" font-size="10.00">S</text>
</g>
<g id="clust13" class="cluster">
<title>cluster_11</title>
<path fill="lightblue" stroke="lightblue" d="M287.2,-20C287.2,-20 297.4,-20 297.4,-20 302.5,-20 307.6,-25.1 307.6,-30.2 307.6,-30.2 307.6,-57.8 307.6,-57.8 307.6,-62.9 302.5,-68 297.4,-68 297.4,-68 287.2,-68 287.2,-68 282.1,-68 277,-62.9 277,-57.8 277,-57.8 277,-30.2 277,-30.2 277,-25.1 282.1,-20 287.2,-20"/>
<text text-anchor="middle" x="292.3" y="-56" font-family="Times,serif" font-size="10.00">CX</text>
</g>
<g id="clust14" class="cluster">
<title>cluster_12</title>
<path fill="lightblue" stroke="lightblue" d="M330.6,-45C330.6,-45 345.2,-45 345.2,-45 350.7,-45 356.2,-50.5 356.2,-56 356.2,-56 356.2,-67 356.2,-67 356.2,-72.5 350.7,-78 345.2,-78 345.2,-78 330.6,-78 330.6,-78 325.1,-78 319.6,-72.5 319.6,-67 319.6,-67 319.6,-56 319.6,-56 319.6,-50.5 325.1,-45 330.6,-45"/>
<text text-anchor="middle" x="337.9" y="-66" font-family="Times,serif" font-size="10.00">Sdg</text>
</g>
<g id="clust15" class="cluster">
<title>cluster_13</title>
<path fill="lightblue" stroke="lightblue" d="M378.4,-54C378.4,-54 388.6,-54 388.6,-54 393.7,-54 398.8,-59.1 398.8,-64.2 398.8,-64.2 398.8,-91.8 398.8,-91.8 398.8,-96.9 393.7,-102 388.6,-102 388.6,-102 378.4,-102 378.4,-102 373.3,-102 368.2,-96.9 368.2,-91.8 368.2,-91.8 368.2,-64.2 368.2,-64.2 368.2,-59.1 373.3,-54 378.4,-54"/>
<text text-anchor="middle" x="383.5" y="-90" font-family="Times,serif" font-size="10.00">CX</text>
</g>
<g id="clust16" class="cluster">
<title>cluster_14</title>
<path fill="lightblue" stroke="lightblue" d="M421.8,-81C421.8,-81 467.4,-81 467.4,-81 472.9,-81 478.4,-86.5 478.4,-92 478.4,-92 478.4,-103 478.4,-103 478.4,-108.5 472.9,-114 467.4,-114 467.4,-114 421.8,-114 421.8,-114 416.3,-114 410.8,-108.5 410.8,-103 410.8,-103 410.8,-92 410.8,-92 410.8,-86.5 416.3,-81 421.8,-81"/>
<text text-anchor="middle" x="444.6" y="-102" font-family="Times,serif" font-size="10.00">Rz(3.4*PI)</text>
</g>
<g id="clust17" class="cluster">
<title>cluster_15</title>
<path fill="lightblue" stroke="lightblue" d="M440.33,-46C440.33,-46 448.87,-46 448.87,-46 453.13,-46 457.4,-50.27 457.4,-54.53 457.4,-54.53 457.4,-70.47 457.4,-70.47 457.4,-74.73 453.13,-79 448.87,-79 448.87,-79 440.33,-79 440.33,-79 436.07,-79 431.8,-74.73 431.8,-70.47 431.8,-70.47 431.8,-54.53 431.8,-54.53 431.8,-50.27 436.07,-46 440.33,-46"/>
<text text-anchor="middle" x="444.6" y="-67" font-family="Times,serif" font-size="10.00">H</text>
</g>
<g id="clust18" class="cluster">
<title>cluster_16</title>
<path fill="lightblue" stroke="lightblue" d="M500.4,-45C500.4,-45 546,-45 546,-45 551.5,-45 557,-50.5 557,-56 557,-56 557,-67 557,-67 557,-72.5 551.5,-78 546,-78 546,-78 500.4,-78 500.4,-78 494.9,-78 489.4,-72.5 489.4,-67 489.4,-67 489.4,-56 489.4,-56 489.4,-50.5 494.9,-45 500.4,-45"/>
<text text-anchor="middle" x="523.2" y="-66" font-family="Times,serif" font-size="10.00">Rz(0.8*PI)</text>
</g>
<g id="clust19" class="cluster">
<title>cluster_17</title>
<path fill="lightblue" stroke="lightblue" d="M576.53,-45C576.53,-45 585.07,-45 585.07,-45 589.33,-45 593.6,-49.27 593.6,-53.53 593.6,-53.53 593.6,-69.47 593.6,-69.47 593.6,-73.73 589.33,-78 585.07,-78 585.07,-78 576.53,-78 576.53,-78 572.27,-78 568,-73.73 568,-69.47 568,-69.47 568,-53.53 568,-53.53 568,-49.27 572.27,-45 576.53,-45"/>
<text text-anchor="middle" x="580.8" y="-66" font-family="Times,serif" font-size="10.00">H</text>
</g>
<g id="clust20" class="cluster">
<title>cluster_18</title>
<path fill="lightblue" stroke="lightblue" d="M759.93,-41C759.93,-41 768.47,-41 768.47,-41 772.73,-41 777,-45.27 777,-49.53 777,-49.53 777,-65.47 777,-65.47 777,-69.73 772.73,-74 768.47,-74 768.47,-74 759.93,-74 759.93,-74 755.67,-74 751.4,-69.73 751.4,-65.47 751.4,-65.47 751.4,-49.53 751.4,-49.53 751.4,-45.27 755.67,-41 759.93,-41"/>
<text text-anchor="middle" x="764.2" y="-62" font-family="Times,serif" font-size="10.00">H</text>
</g>
<g id="clust21" class="cluster">
<title>cluster_19</title>
<path fill="lightblue" stroke="lightblue" d="M707.8,-78C707.8,-78 723.4,-78 723.4,-78 728.9,-78 734.4,-83.5 734.4,-89 734.4,-89 734.4,-100 734.4,-100 734.4,-105.5 728.9,-111 723.4,-111 723.4,-111 707.8,-111 707.8,-111 702.3,-111 696.8,-105.5 696.8,-100 696.8,-100 696.8,-89 696.8,-89 696.8,-83.5 702.3,-78 707.8,-78"/>
<text text-anchor="middle" x="715.6" y="-99" font-family="Times,serif" font-size="10.00">Vdg</text>
</g>
<g id="clust22" class="cluster">
<title>cluster_20</title>
<path fill="lightblue" stroke="lightblue" d="M659.2,-78C659.2,-78 673.8,-78 673.8,-78 679.3,-78 684.8,-83.5 684.8,-89 684.8,-89 684.8,-100 684.8,-100 684.8,-105.5 679.3,-111 673.8,-111 673.8,-111 659.2,-111 659.2,-111 653.7,-111 648.2,-105.5 648.2,-100 648.2,-100 648.2,-89 648.2,-89 648.2,-83.5 653.7,-78 659.2,-78"/>
<text text-anchor="middle" x="666.5" y="-99" font-family="Times,serif" font-size="10.00">Sdg</text>
</g>
<g id="clust23" class="cluster">
<title>cluster_21</title>
<path fill="lightblue" stroke="lightblue" d="M757.4,-8C757.4,-8 772,-8 772,-8 777.5,-8 783,-13.5 783,-19 783,-19 783,-30 783,-30 783,-35.5 777.5,-41 772,-41 772,-41 757.4,-41 757.4,-41 751.9,-41 746.4,-35.5 746.4,-30 746.4,-30 746.4,-19 746.4,-19 746.4,-13.5 751.9,-8 757.4,-8"/>
<text text-anchor="middle" x="764.7" y="-29" font-family="Times,serif" font-size="10.00">Sdg</text>
</g>
<g id="clust24" class="cluster">
<title>cluster_22</title>
<path fill="lightblue" stroke="lightblue" d="M711,-28C711,-28 721.2,-28 721.2,-28 726.3,-28 731.4,-33.1 731.4,-38.2 731.4,-38.2 731.4,-65.8 731.4,-65.8 731.4,-70.9 726.3,-76 721.2,-76 721.2,-76 711,-76 711,-76 705.9,-76 700.8,-70.9 700.8,-65.8 700.8,-65.8 700.8,-38.2 700.8,-38.2 700.8,-33.1 705.9,-28 711,-28"/>
<text text-anchor="middle" x="716.1" y="-64" font-family="Times,serif" font-size="10.00">CX</text>
</g>
<g id="clust25" class="cluster">
<title>cluster_23</title>
<path fill="lightblue" stroke="lightblue" d="M662.73,-45C662.73,-45 670.27,-45 670.27,-45 674.03,-45 677.8,-48.77 677.8,-52.53 677.8,-52.53 677.8,-70.47 677.8,-70.47 677.8,-74.23 674.03,-78 670.27,-78 670.27,-78 662.73,-78 662.73,-78 658.97,-78 655.2,-74.23 655.2,-70.47 655.2,-70.47 655.2,-52.53 655.2,-52.53 655.2,-48.77 658.97,-45 662.73,-45"/>
<text text-anchor="middle" x="666.5" y="-66" font-family="Times,serif" font-size="10.00">S</text>
</g>
<g id="clust26" class="cluster">
<title>cluster_24</title>
<path fill="lightblue" stroke="lightblue" d="M615.8,-54C615.8,-54 626,-54 626,-54 631.1,-54 636.2,-59.1 636.2,-64.2 636.2,-64.2 636.2,-91.8 636.2,-91.8 636.2,-96.9 631.1,-102 626,-102 626,-102 615.8,-102 615.8,-102 610.7,-102 605.6,-96.9 605.6,-91.8 605.6,-91.8 605.6,-64.2 605.6,-64.2 605.6,-59.1 610.7,-54 615.8,-54"/>
<text text-anchor="middle" x="620.9" y="-90" font-family="Times,serif" font-size="10.00">CX</text>
</g>
<g id="clust27" class="cluster">
<title>cluster_28</title>
<path fill="lightblue" stroke="lightblue" d="M760.27,-78C760.27,-78 768.13,-78 768.13,-78 772.07,-78 776,-81.93 776,-85.87 776,-85.87 776,-103.13 776,-103.13 776,-107.07 772.07,-111 768.13,-111 768.13,-111 760.27,-111 760.27,-111 756.33,-111 752.4,-107.07 752.4,-103.13 752.4,-103.13 752.4,-85.87 752.4,-85.87 752.4,-81.93 756.33,-78 760.27,-78"/>
<text text-anchor="middle" x="764.2" y="-99" font-family="Times,serif" font-size="10.00">V</text>
</g>
<g id="clust28" class="cluster">
<title>cluster_29</title>
<path fill="lightblue" stroke="lightblue" d="M802.87,-41C802.87,-41 810.73,-41 810.73,-41 814.67,-41 818.6,-44.93 818.6,-48.87 818.6,-48.87 818.6,-66.13 818.6,-66.13 818.6,-70.07 814.67,-74 810.73,-74 810.73,-74 802.87,-74 802.87,-74 798.93,-74 795,-70.07 795,-66.13 795,-66.13 795,-48.87 795,-48.87 795,-44.93 798.93,-41 802.87,-41"/>
<text text-anchor="middle" x="806.8" y="-62" font-family="Times,serif" font-size="10.00">V</text>
</g>
<g id="clust29" class="cluster">
<title>cluster_30</title>
<path fill="lightblue" stroke="lightblue" d="M802.87,-8C802.87,-8 810.73,-8 810.73,-8 814.67,-8 818.6,-11.93 818.6,-15.87 818.6,-15.87 818.6,-33.13 818.6,-33.13 818.6,-37.07 814.67,-41 810.73,-41 810.73,-41 802.87,-41 802.87,-41 798.93,-41 795,-37.07 795,-33.13 795,-33.13 795,-15.87 795,-15.87 795,-11.93 798.93,-8 802.87,-8"/>
<text text-anchor="middle" x="806.8" y="-29" font-family="Times,serif" font-size="10.00">V</text>
</g>
<g id="clust30" class="cluster">
<title>cluster_31</title>
<path fill="lightblue" stroke="lightblue" d="M803.53,-78C803.53,-78 811.07,-78 811.07,-78 814.83,-78 818.6,-81.77 818.6,-85.53 818.6,-85.53 818.6,-103.47 818.6,-103.47 818.6,-107.23 814.83,-111 811.07,-111 811.07,-111 803.53,-111 803.53,-111 799.77,-111 796,-107.23 796,-103.47 796,-103.47 796,-85.53 796,-85.53 796,-81.77 799.77,-78 803.53,-78"/>
<text text-anchor="middle" x="807.3" y="-99" font-family="Times,serif" font-size="10.00">S</text>
</g>
<g id="clust31" class="cluster">
<title>cluster_32</title>
<path fill="lightblue" stroke="lightblue" d="M839.13,-41C839.13,-41 846.67,-41 846.67,-41 850.43,-41 854.2,-44.77 854.2,-48.53 854.2,-48.53 854.2,-66.47 854.2,-66.47 854.2,-70.23 850.43,-74 846.67,-74 846.67,-74 839.13,-74 839.13,-74 835.37,-74 831.6,-70.23 831.6,-66.47 831.6,-66.47 831.6,-48.53 831.6,-48.53 831.6,-44.77 835.37,-41 839.13,-41"/>
<text text-anchor="middle" x="842.9" y="-62" font-family="Times,serif" font-size="10.00">S</text>
</g>
<g id="clust32" class="cluster">
<title>cluster_33</title>
<path fill="lightblue" stroke="lightblue" d="M839.13,-8C839.13,-8 846.67,-8 846.67,-8 850.43,-8 854.2,-11.77 854.2,-15.53 854.2,-15.53 854.2,-33.47 854.2,-33.47 854.2,-37.23 850.43,-41 846.67,-41 846.67,-41 839.13,-41 839.13,-41 835.37,-41 831.6,-37.23 831.6,-33.47 831.6,-33.47 831.6,-15.53 831.6,-15.53 831.6,-11.77 835.37,-8 839.13,-8"/>
<text text-anchor="middle" x="842.9" y="-29" font-family="Times,serif" font-size="10.00">S</text>
</g>
<g id="clust33" class="cluster">
<title>cluster_34</title>
<path fill="lightblue" stroke="lightblue" d="M838.13,-78C838.13,-78 846.67,-78 846.67,-78 850.93,-78 855.2,-82.27 855.2,-86.53 855.2,-86.53 855.2,-102.47 855.2,-102.47 855.2,-106.73 850.93,-111 846.67,-111 846.67,-111 838.13,-111 838.13,-111 833.87,-111 829.6,-106.73 829.6,-102.47 829.6,-102.47 829.6,-86.53 829.6,-86.53 829.6,-82.27 833.87,-78 838.13,-78"/>
<text text-anchor="middle" x="842.4" y="-99" font-family="Times,serif" font-size="10.00">H</text>
</g>
<g id="clust34" class="cluster">
<title>cluster_35</title>
<path fill="lightblue" stroke="lightblue" d="M875.73,-41C875.73,-41 884.27,-41 884.27,-41 888.53,-41 892.8,-45.27 892.8,-49.53 892.8,-49.53 892.8,-65.47 892.8,-65.47 892.8,-69.73 888.53,-74 884.27,-74 884.27,-74 875.73,-74 875.73,-74 871.47,-74 867.2,-69.73 867.2,-65.47 867.2,-65.47 867.2,-49.53 867.2,-49.53 867.2,-45.27 871.47,-41 875.73,-41"/>
<text text-anchor="middle" x="880" y="-62" font-family="Times,serif" font-size="10.00">H</text>
</g>
<g id="clust35" class="cluster">
<title>cluster_36</title>
<path fill="lightblue" stroke="lightblue" d="M875.73,-8C875.73,-8 884.27,-8 884.27,-8 888.53,-8 892.8,-12.27 892.8,-16.53 892.8,-16.53 892.8,-32.47 892.8,-32.47 892.8,-36.73 888.53,-41 884.27,-41 884.27,-41 875.73,-41 875.73,-41 871.47,-41 867.2,-36.73 867.2,-32.47 867.2,-32.47 867.2,-16.53 867.2,-16.53 867.2,-12.27 871.47,-8 875.73,-8"/>
<text text-anchor="middle" x="880" y="-29" font-family="Times,serif" font-size="10.00">H</text>
</g>
<g id="clust36" class="cluster">
<title>cluster_37</title>
<path fill="lightblue" stroke="lightblue" d="M876.73,-78C876.73,-78 884.27,-78 884.27,-78 888.03,-78 891.8,-81.77 891.8,-85.53 891.8,-85.53 891.8,-103.47 891.8,-103.47 891.8,-107.23 888.03,-111 884.27,-111 884.27,-111 876.73,-111 876.73,-111 872.97,-111 869.2,-107.23 869.2,-103.47 869.2,-103.47 869.2,-85.53 869.2,-85.53 869.2,-81.77 872.97,-78 876.73,-78"/>
<text text-anchor="middle" x="880.5" y="-99" font-family="Times,serif" font-size="10.00">S</text>
</g>
<g id="clust37" class="cluster">
<title>cluster_38</title>
<path fill="lightblue" stroke="lightblue" d="M912.33,-41C912.33,-41 919.87,-41 919.87,-41 923.63,-41 927.4,-44.77 927.4,-48.53 927.4,-48.53 927.4,-66.47 927.4,-66.47 927.4,-70.23 923.63,-74 919.87,-74 919.87,-74 912.33,-74 912.33,-74 908.57,-74 904.8,-70.23 904.8,-66.47 904.8,-66.47 904.8,-48.53 904.8,-48.53 904.8,-44.77 908.57,-41 912.33,-41"/>
<text text-anchor="middle" x="916.1" y="-62" font-family="Times,serif" font-size="10.00">S</text>
</g>
<g id="clust38" class="cluster">
<title>cluster_39</title>
<path fill="lightblue" stroke="lightblue" d="M912.33,-8C912.33,-8 919.87,-8 919.87,-8 923.63,-8 927.4,-11.77 927.4,-15.53 927.4,-15.53 927.4,-33.47 927.4,-33.47 927.4,-37.23 923.63,-41 919.87,-41 919.87,-41 912.33,-41 912.33,-41 908.57,-41 904.8,-37.23 904.8,-33.47 904.8,-33.47 904.8,-15.53 904.8,-15.53 904.8,-11.77 908.57,-8 912.33,-8"/>
<text text-anchor="middle" x="916.1" y="-29" font-family="Times,serif" font-size="10.00">S</text>
</g>
<!-- (0, 0) -->
<g id="node1" class="node">
<title>(0, 0)</title>
<ellipse fill="blue" stroke="blue" cx="20.8" cy="-63" rx="1.8" ry="1.8"/>
<text text-anchor="middle" x="9.5" y="-54.8" font-family="Courier,monospace" font-size="8.00">q[0]</text>
</g>
<!-- (6, 0) -->
<g id="node10" class="node">
<title>(6, 0)</title>
<ellipse fill="black" stroke="black" cx="233.2" cy="-85" rx="1.8" ry="1.8"/>
</g>
<!-- (0, 0)&#45;&gt;(6, 0) -->
<g id="edge1" class="edge">
<title>(0, 0)&#45;&gt;(6, 0)</title>
<path fill="none" stroke="blue" d="M22.67,-63.85C25.09,-66.16 32.25,-72.54 39.6,-75 112.24,-99.28 208.84,-88.15 228.59,-85.51"/>
<polygon fill="blue" stroke="blue" points="230.93,-85.19 229.1,-86.57 229.94,-85.32 228.95,-85.46 228.95,-85.46 228.95,-85.46 229.94,-85.32 228.8,-84.35 230.93,-85.19 230.93,-85.19"/>
</g>
<!-- (1, 0) -->
<g id="node2" class="node">
<title>(1, 0)</title>
<ellipse fill="blue" stroke="blue" cx="20.8" cy="-48" rx="1.8" ry="1.8"/>
<text text-anchor="middle" x="9.5" y="-39.8" font-family="Courier,monospace" font-size="8.00">q[1]</text>
</g>
<!-- (3, 0) -->
<g id="node7" class="node">
<title>(3, 0)</title>
<ellipse fill="black" stroke="black" cx="52.4" cy="-48" rx="1.8" ry="1.8"/>
</g>
<!-- (1, 0)&#45;&gt;(3, 0) -->
<g id="edge2" class="edge">
<title>(1, 0)&#45;&gt;(3, 0)</title>
<path fill="none" stroke="blue" d="M23.07,-48C27.41,-48 41.71,-48 48.18,-48"/>
<polygon fill="blue" stroke="blue" points="50.42,-48 48.42,-49.13 49.42,-48 48.42,-48 48.42,-48 48.42,-48 49.42,-48 48.42,-46.88 50.42,-48 50.42,-48"/>
</g>
<!-- (2, 0) -->
<g id="node3" class="node">
<title>(2, 0)</title>
<ellipse fill="blue" stroke="blue" cx="20.8" cy="-33" rx="1.8" ry="1.8"/>
<text text-anchor="middle" x="9.5" y="-24.8" font-family="Courier,monospace" font-size="8.00">q[2]</text>
</g>
<!-- (10, 0) -->
<g id="node14" class="node">
<title>(10, 0)</title>
<ellipse fill="black" stroke="black" cx="233.2" cy="-17" rx="1.8" ry="1.8"/>
</g>
<!-- (2, 0)&#45;&gt;(10, 0) -->
<g id="edge3" class="edge">
<title>(2, 0)&#45;&gt;(10, 0)</title>
<path fill="none" stroke="blue" d="M22.74,-32.93C36.81,-31.86 204.85,-19.08 229.25,-17.22"/>
<polygon fill="blue" stroke="blue" points="231.33,-17.07 229.42,-18.34 230.34,-17.14 229.34,-17.22 229.34,-17.22 229.34,-17.22 230.34,-17.14 229.25,-16.1 231.33,-17.07 231.33,-17.07"/>
</g>
<!-- (25, 0) -->
<g id="node4" class="node">
<title>(25, 0)</title>
<ellipse fill="blue" stroke="blue" cx="946.2" cy="-63" rx="1.8" ry="1.8"/>
<text text-anchor="middle" x="934.9" y="-54.8" font-family="Courier,monospace" font-size="8.00">q[0]</text>
</g>
<!-- (26, 0) -->
<g id="node5" class="node">
<title>(26, 0)</title>
<ellipse fill="blue" stroke="blue" cx="946.2" cy="-48" rx="1.8" ry="1.8"/>
<text text-anchor="middle" x="934.9" y="-39.8" font-family="Courier,monospace" font-size="8.00">q[1]</text>
</g>
<!-- (27, 0) -->
<g id="node6" class="node">
<title>(27, 0)</title>
<ellipse fill="blue" stroke="blue" cx="946.2" cy="-33" rx="1.8" ry="1.8"/>
<text text-anchor="middle" x="934.9" y="-24.8" font-family="Courier,monospace" font-size="8.00">q[2]</text>
</g>
<!-- (4, 0) -->
<g id="node8" class="node">
<title>(4, 0)</title>
<ellipse fill="black" stroke="black" cx="114" cy="-48" rx="1.8" ry="1.8"/>
</g>
<!-- (3, 0)&#45;&gt;(4, 0) -->
<g id="edge4" class="edge">
<title>(3, 0)&#45;&gt;(4, 0)</title>
<path fill="none" stroke="blue" d="M54.43,-48C61.16,-48 98.75,-48 109.89,-48"/>
<polygon fill="blue" stroke="blue" points="112.12,-48 110.12,-49.13 111.12,-48 110.12,-48 110.12,-48 110.12,-48 111.12,-48 110.12,-46.88 112.12,-48 112.12,-48"/>
</g>
<!-- (5, 0) -->
<g id="node9" class="node">
<title>(5, 0)</title>
<ellipse fill="black" stroke="black" cx="174.6" cy="-48" rx="1.8" ry="1.8"/>
</g>
<!-- (4, 0)&#45;&gt;(5, 0) -->
<g id="edge5" class="edge">
<title>(4, 0)&#45;&gt;(5, 0)</title>
<path fill="none" stroke="blue" d="M116.02,-48C122.63,-48 159.59,-48 170.54,-48"/>
<polygon fill="blue" stroke="blue" points="172.73,-48 170.73,-49.13 171.73,-48 170.73,-48 170.73,-48 170.73,-48 171.73,-48 170.73,-46.88 172.73,-48 172.73,-48"/>
</g>
<!-- (7, 0) -->
<g id="node11" class="node">
<title>(7, 0)</title>
<ellipse fill="black" stroke="black" cx="233.2" cy="-50" rx="1.8" ry="1.8"/>
</g>
<!-- (5, 0)&#45;&gt;(7, 0) -->
<g id="edge6" class="edge">
<title>(5, 0)&#45;&gt;(7, 0)</title>
<path fill="none" stroke="blue" d="M176.58,-48.03C182.97,-48.26 218.67,-49.52 229.25,-49.9"/>
<polygon fill="blue" stroke="blue" points="231.36,-49.97 229.32,-51.02 230.36,-49.94 229.36,-49.9 229.36,-49.9 229.36,-49.9 230.36,-49.94 229.4,-48.78 231.36,-49.97 231.36,-49.97"/>
</g>
<!-- (8, 0) -->
<g id="node12" class="node">
<title>(8, 0)</title>
<ellipse fill="black" stroke="black" cx="291.8" cy="-85" rx="1.8" ry="1.8"/>
</g>
<!-- (6, 0)&#45;&gt;(8, 0) -->
<g id="edge7" class="edge">
<title>(6, 0)&#45;&gt;(8, 0)</title>
<path fill="none" stroke="blue" d="M235.18,-85C241.57,-85 277.27,-85 287.85,-85"/>
<polygon fill="blue" stroke="blue" points="289.96,-85 287.96,-86.13 288.96,-85 287.96,-85 287.96,-85 287.96,-85 288.96,-85 287.96,-83.88 289.96,-85 289.96,-85"/>
</g>
<!-- (11, 0) -->
<g id="node15" class="node">
<title>(11, 0)</title>
<ellipse fill="black" stroke="black" cx="291.8" cy="-42" rx="1.8" ry="1.8"/>
<text text-anchor="middle" x="287" y="-33.8" font-family="Helvetica,sans-Serif" font-size="8.00">0</text>
</g>
<!-- (7, 0)&#45;&gt;(11, 0) -->
<g id="edge8" class="edge">
<title>(7, 0)&#45;&gt;(11, 0)</title>
<path fill="none" stroke="blue" d="M235.18,-49.86C241.57,-48.96 277.27,-43.91 287.85,-42.42"/>
<polygon fill="blue" stroke="blue" points="289.96,-42.12 288.14,-43.51 288.97,-42.26 287.98,-42.4 287.98,-42.4 287.98,-42.4 288.97,-42.26 287.82,-41.28 289.96,-42.12 289.96,-42.12"/>
</g>
<!-- (9, 0) -->
<g id="node13" class="node">
<title>(9, 0)</title>
<ellipse fill="black" stroke="black" cx="337.4" cy="-85" rx="1.8" ry="1.8"/>
</g>
<!-- (8, 0)&#45;&gt;(9, 0) -->
<g id="edge9" class="edge">
<title>(8, 0)&#45;&gt;(9, 0)</title>
<path fill="none" stroke="blue" d="M293.88,-85C299.39,-85 324.53,-85 333.34,-85"/>
<polygon fill="blue" stroke="blue" points="335.51,-85 333.51,-86.13 334.51,-85 333.51,-85 333.51,-85 333.51,-85 334.51,-85 333.51,-83.88 335.51,-85 335.51,-85"/>
</g>
<!-- (13, 1) -->
<g id="node19" class="node">
<title>(13, 1)</title>
<ellipse fill="black" stroke="black" cx="383" cy="-76" rx="1.8" ry="1.8"/>
<text text-anchor="middle" x="378.2" y="-67.8" font-family="Helvetica,sans-Serif" font-size="8.00">1</text>
</g>
<!-- (9, 0)&#45;&gt;(13, 1) -->
<g id="edge10" class="edge">
<title>(9, 0)&#45;&gt;(13, 1)</title>
<path fill="none" stroke="blue" d="M339.48,-84.78C344.99,-83.64 370.13,-78.45 378.94,-76.63"/>
<polygon fill="blue" stroke="blue" points="381.11,-76.18 379.38,-77.69 380.13,-76.39 379.15,-76.59 379.15,-76.59 379.15,-76.59 380.13,-76.39 378.92,-75.49 381.11,-76.18 381.11,-76.18"/>
</g>
<!-- (11, 1) -->
<g id="node16" class="node">
<title>(11, 1)</title>
<ellipse fill="black" stroke="black" cx="291.8" cy="-27" rx="1.8" ry="1.8"/>
<text text-anchor="middle" x="287" y="-18.8" font-family="Helvetica,sans-Serif" font-size="8.00">1</text>
</g>
<!-- (10, 0)&#45;&gt;(11, 1) -->
<g id="edge11" class="edge">
<title>(10, 0)&#45;&gt;(11, 1)</title>
<path fill="none" stroke="blue" d="M235.18,-17.17C241.57,-18.3 277.27,-24.61 287.85,-26.48"/>
<polygon fill="blue" stroke="blue" points="289.96,-26.85 287.8,-27.61 288.98,-26.68 287.99,-26.5 287.99,-26.5 287.99,-26.5 288.98,-26.68 288.19,-25.4 289.96,-26.85 289.96,-26.85"/>
</g>
<!-- (22, 0) -->
<g id="node28" class="node">
<title>(22, 0)</title>
<ellipse fill="black" stroke="black" cx="715.6" cy="-35" rx="1.8" ry="1.8"/>
<text text-anchor="middle" x="710.8" y="-26.8" font-family="Helvetica,sans-Serif" font-size="8.00">0</text>
</g>
<!-- (11, 0)&#45;&gt;(22, 0) -->
<g id="edge13" class="edge">
<title>(11, 0)&#45;&gt;(22, 0)</title>
<path fill="none" stroke="blue" d="M293.68,-41.84C300.45,-40.65 345.27,-33 382,-33 382,-33 382,-33 621.4,-33 656.91,-33 700.01,-34.47 711.61,-34.89"/>
<polygon fill="blue" stroke="blue" points="713.68,-34.97 711.64,-36.02 712.68,-34.93 711.68,-34.89 711.68,-34.89 711.68,-34.89 712.68,-34.93 711.72,-33.77 713.68,-34.97 713.68,-34.97"/>
</g>
<!-- (12, 0) -->
<g id="node17" class="node">
<title>(12, 0)</title>
<ellipse fill="black" stroke="black" cx="337.4" cy="-52" rx="1.8" ry="1.8"/>
</g>
<!-- (11, 1)&#45;&gt;(12, 0) -->
<g id="edge12" class="edge">
<title>(11, 1)&#45;&gt;(12, 0)</title>
<path fill="none" stroke="blue" d="M293.61,-27.42C295.85,-28.6 302.31,-32.01 307.6,-35 317.15,-40.4 328.3,-47.09 333.48,-50.23"/>
<polygon fill="blue" stroke="blue" points="335.31,-51.34 333.02,-51.26 334.45,-50.82 333.6,-50.3 333.6,-50.3 333.6,-50.3 334.45,-50.82 334.18,-49.34 335.31,-51.34 335.31,-51.34"/>
</g>
<!-- (13, 0) -->
<g id="node18" class="node">
<title>(13, 0)</title>
<ellipse fill="black" stroke="black" cx="383" cy="-61" rx="1.8" ry="1.8"/>
<text text-anchor="middle" x="378.2" y="-52.8" font-family="Helvetica,sans-Serif" font-size="8.00">0</text>
</g>
<!-- (12, 0)&#45;&gt;(13, 0) -->
<g id="edge14" class="edge">
<title>(12, 0)&#45;&gt;(13, 0)</title>
<path fill="none" stroke="blue" d="M339.48,-52.22C344.99,-53.36 370.13,-58.55 378.94,-60.37"/>
<polygon fill="blue" stroke="blue" points="381.11,-60.82 378.92,-61.51 380.13,-60.61 379.15,-60.41 379.15,-60.41 379.15,-60.41 380.13,-60.61 379.38,-59.31 381.11,-60.82 381.11,-60.82"/>
</g>
<!-- (15, 0) -->
<g id="node21" class="node">
<title>(15, 0)</title>
<ellipse fill="black" stroke="black" cx="444.6" cy="-53" rx="1.8" ry="1.8"/>
</g>
<!-- (13, 0)&#45;&gt;(15, 0) -->
<g id="edge15" class="edge">
<title>(13, 0)&#45;&gt;(15, 0)</title>
<path fill="none" stroke="blue" d="M385.03,-60.86C391.76,-59.96 429.35,-54.91 440.49,-53.42"/>
<polygon fill="blue" stroke="blue" points="442.72,-53.12 440.88,-54.5 441.73,-53.25 440.73,-53.38 440.73,-53.38 440.73,-53.38 441.73,-53.25 440.59,-52.27 442.72,-53.12 442.72,-53.12"/>
</g>
<!-- (14, 0) -->
<g id="node20" class="node">
<title>(14, 0)</title>
<ellipse fill="black" stroke="black" cx="444.6" cy="-88" rx="1.8" ry="1.8"/>
</g>
<!-- (13, 1)&#45;&gt;(14, 0) -->
<g id="edge16" class="edge">
<title>(13, 1)&#45;&gt;(14, 0)</title>
<path fill="none" stroke="blue" d="M385.03,-76.21C391.76,-77.56 429.35,-85.13 440.49,-87.37"/>
<polygon fill="blue" stroke="blue" points="442.72,-87.82 440.53,-88.53 441.74,-87.62 440.76,-87.43 440.76,-87.43 440.76,-87.43 441.74,-87.62 440.98,-86.32 442.72,-87.82 442.72,-87.82"/>
</g>
<!-- (24, 1) -->
<g id="node32" class="node">
<title>(24, 1)</title>
<ellipse fill="black" stroke="black" cx="620.4" cy="-76" rx="1.8" ry="1.8"/>
<text text-anchor="middle" x="615.6" y="-67.8" font-family="Helvetica,sans-Serif" font-size="8.00">1</text>
</g>
<!-- (14, 0)&#45;&gt;(24, 1) -->
<g id="edge17" class="edge">
<title>(14, 0)&#45;&gt;(24, 1)</title>
<path fill="none" stroke="blue" d="M446.54,-87.96C455.83,-87.59 532.06,-84.44 593.6,-79 601.79,-78.28 611.39,-77.06 616.25,-76.42"/>
<polygon fill="blue" stroke="blue" points="618.42,-76.13 616.58,-77.51 617.43,-76.27 616.44,-76.4 616.44,-76.4 616.44,-76.4 617.43,-76.27 616.29,-75.28 618.42,-76.13 618.42,-76.13"/>
</g>
<!-- (16, 0) -->
<g id="node22" class="node">
<title>(16, 0)</title>
<ellipse fill="black" stroke="black" cx="523.2" cy="-52" rx="1.8" ry="1.8"/>
</g>
<!-- (15, 0)&#45;&gt;(16, 0) -->
<g id="edge18" class="edge">
<title>(15, 0)&#45;&gt;(16, 0)</title>
<path fill="none" stroke="blue" d="M446.46,-52.99C453.73,-52.89 505.01,-52.22 518.79,-52.04"/>
<polygon fill="blue" stroke="blue" points="521.03,-52.02 519.04,-53.17 520.03,-52.03 519.03,-52.04 519.03,-52.04 519.03,-52.04 520.03,-52.03 519.01,-50.92 521.03,-52.02 521.03,-52.02"/>
</g>
<!-- (17, 0) -->
<g id="node23" class="node">
<title>(17, 0)</title>
<ellipse fill="black" stroke="black" cx="580.8" cy="-52" rx="1.8" ry="1.8"/>
</g>
<!-- (16, 0)&#45;&gt;(17, 0) -->
<g id="edge19" class="edge">
<title>(16, 0)&#45;&gt;(17, 0)</title>
<path fill="none" stroke="blue" d="M525.17,-52C531.44,-52 566.51,-52 576.9,-52"/>
<polygon fill="blue" stroke="blue" points="578.98,-52 576.98,-53.13 577.98,-52 576.98,-52 576.98,-52 576.98,-52 577.98,-52 576.98,-50.88 578.98,-52 578.98,-52"/>
</g>
<!-- (24, 0) -->
<g id="node31" class="node">
<title>(24, 0)</title>
<ellipse fill="black" stroke="black" cx="620.4" cy="-61" rx="1.8" ry="1.8"/>
<text text-anchor="middle" x="615.6" y="-52.8" font-family="Helvetica,sans-Serif" font-size="8.00">0</text>
</g>
<!-- (17, 0)&#45;&gt;(24, 0) -->
<g id="edge20" class="edge">
<title>(17, 0)&#45;&gt;(24, 0)</title>
<path fill="none" stroke="blue" d="M582.73,-52.22C587.32,-53.32 607.69,-58.2 615.93,-60.17"/>
<polygon fill="blue" stroke="blue" points="618.06,-60.68 615.85,-61.31 617.09,-60.45 616.12,-60.21 616.12,-60.21 616.12,-60.21 617.09,-60.45 616.38,-59.12 618.06,-60.68 618.06,-60.68"/>
</g>
<!-- (18, 0) -->
<g id="node24" class="node">
<title>(18, 0)</title>
<ellipse fill="black" stroke="black" cx="764.2" cy="-48" rx="1.8" ry="1.8"/>
</g>
<!-- (29, 0) -->
<g id="node34" class="node">
<title>(29, 0)</title>
<ellipse fill="black" stroke="black" cx="806.8" cy="-48" rx="1.8" ry="1.8"/>
</g>
<!-- (18, 0)&#45;&gt;(29, 0) -->
<g id="edge21" class="edge">
<title>(18, 0)&#45;&gt;(29, 0)</title>
<path fill="none" stroke="blue" d="M766.2,-48C771.34,-48 794.75,-48 802.95,-48"/>
<polygon fill="blue" stroke="blue" points="804.97,-48 802.97,-49.13 803.97,-48 802.97,-48 802.97,-48 802.97,-48 803.97,-48 802.97,-46.88 804.97,-48 804.97,-48"/>
</g>
<!-- (19, 0) -->
<g id="node25" class="node">
<title>(19, 0)</title>
<ellipse fill="black" stroke="black" cx="715.6" cy="-85" rx="1.8" ry="1.8"/>
</g>
<!-- (28, 0) -->
<g id="node33" class="node">
<title>(28, 0)</title>
<ellipse fill="black" stroke="black" cx="764.2" cy="-85" rx="1.8" ry="1.8"/>
</g>
<!-- (19, 0)&#45;&gt;(28, 0) -->
<g id="edge22" class="edge">
<title>(19, 0)&#45;&gt;(28, 0)</title>
<path fill="none" stroke="blue" d="M717.41,-85C722.49,-85 750.11,-85 759.82,-85"/>
<polygon fill="blue" stroke="blue" points="762.22,-85 760.22,-86.13 761.22,-85 760.22,-85 760.22,-85 760.22,-85 761.22,-85 760.22,-83.88 762.22,-85 762.22,-85"/>
</g>
<!-- (20, 0) -->
<g id="node26" class="node">
<title>(20, 0)</title>
<ellipse fill="black" stroke="black" cx="666" cy="-85" rx="1.8" ry="1.8"/>
</g>
<!-- (20, 0)&#45;&gt;(19, 0) -->
<g id="edge23" class="edge">
<title>(20, 0)&#45;&gt;(19, 0)</title>
<path fill="none" stroke="blue" d="M667.83,-85C673.02,-85 701.23,-85 711.15,-85"/>
<polygon fill="blue" stroke="blue" points="713.59,-85 711.59,-86.13 712.59,-85 711.59,-85 711.59,-85 711.59,-85 712.59,-85 711.59,-83.88 713.59,-85 713.59,-85"/>
</g>
<!-- (21, 0) -->
<g id="node27" class="node">
<title>(21, 0)</title>
<ellipse fill="black" stroke="black" cx="764.2" cy="-15" rx="1.8" ry="1.8"/>
</g>
<!-- (30, 0) -->
<g id="node35" class="node">
<title>(30, 0)</title>
<ellipse fill="black" stroke="black" cx="806.8" cy="-15" rx="1.8" ry="1.8"/>
</g>
<!-- (21, 0)&#45;&gt;(30, 0) -->
<g id="edge24" class="edge">
<title>(21, 0)&#45;&gt;(30, 0)</title>
<path fill="none" stroke="blue" d="M766.2,-15C771.34,-15 794.75,-15 802.95,-15"/>
<polygon fill="blue" stroke="blue" points="804.97,-15 802.97,-16.13 803.97,-15 802.97,-15 802.97,-15 802.97,-15 803.97,-15 802.97,-13.88 804.97,-15 804.97,-15"/>
</g>
<!-- (22, 0)&#45;&gt;(18, 0) -->
<g id="edge26" class="edge">
<title>(22, 0)&#45;&gt;(18, 0)</title>
<path fill="none" stroke="blue" d="M717.41,-35.23C722.49,-36.64 750.11,-44.35 759.82,-47.06"/>
<polygon fill="blue" stroke="blue" points="762.22,-47.73 759.99,-48.27 761.25,-47.46 760.29,-47.19 760.29,-47.19 760.29,-47.19 761.25,-47.46 760.59,-46.1 762.22,-47.73 762.22,-47.73"/>
</g>
<!-- (22, 1) -->
<g id="node29" class="node">
<title>(22, 1)</title>
<ellipse fill="black" stroke="black" cx="715.6" cy="-50" rx="1.8" ry="1.8"/>
<text text-anchor="middle" x="710.8" y="-41.8" font-family="Helvetica,sans-Serif" font-size="8.00">1</text>
</g>
<!-- (22, 1)&#45;&gt;(21, 0) -->
<g id="edge25" class="edge">
<title>(22, 1)&#45;&gt;(21, 0)</title>
<path fill="none" stroke="blue" d="M717.62,-49.67C720.45,-48.75 728.54,-45.91 734.4,-42 745.58,-34.55 756.52,-22.68 761.04,-17.53"/>
<polygon fill="blue" stroke="blue" points="762.56,-15.76 762.11,-18.01 761.91,-16.52 761.25,-17.28 761.25,-17.28 761.25,-17.28 761.91,-16.52 760.4,-16.54 762.56,-15.76 762.56,-15.76"/>
</g>
<!-- (23, 0) -->
<g id="node30" class="node">
<title>(23, 0)</title>
<ellipse fill="black" stroke="black" cx="666" cy="-52" rx="1.8" ry="1.8"/>
</g>
<!-- (23, 0)&#45;&gt;(22, 1) -->
<g id="edge27" class="edge">
<title>(23, 0)&#45;&gt;(22, 1)</title>
<path fill="none" stroke="blue" d="M667.83,-51.97C673.02,-51.75 701.23,-50.56 711.15,-50.14"/>
<polygon fill="blue" stroke="blue" points="713.59,-50.04 711.64,-51.25 712.6,-50.08 711.6,-50.13 711.6,-50.13 711.6,-50.13 712.6,-50.08 711.55,-49 713.59,-50.04 713.59,-50.04"/>
</g>
<!-- (24, 0)&#45;&gt;(23, 0) -->
<g id="edge28" class="edge">
<title>(24, 0)&#45;&gt;(23, 0)</title>
<path fill="none" stroke="blue" d="M622.48,-60.78C627.99,-59.64 653.13,-54.45 661.94,-52.63"/>
<polygon fill="blue" stroke="blue" points="664.11,-52.18 662.38,-53.69 663.13,-52.39 662.15,-52.59 662.15,-52.59 662.15,-52.59 663.13,-52.39 661.92,-51.49 664.11,-52.18 664.11,-52.18"/>
</g>
<!-- (24, 1)&#45;&gt;(20, 0) -->
<g id="edge29" class="edge">
<title>(24, 1)&#45;&gt;(20, 0)</title>
<path fill="none" stroke="blue" d="M622.48,-76.22C627.99,-77.36 653.13,-82.55 661.94,-84.37"/>
<polygon fill="blue" stroke="blue" points="664.11,-84.82 661.92,-85.51 663.13,-84.61 662.15,-84.41 662.15,-84.41 662.15,-84.41 663.13,-84.61 662.38,-83.31 664.11,-84.82 664.11,-84.82"/>
</g>
<!-- (31, 0) -->
<g id="node36" class="node">
<title>(31, 0)</title>
<ellipse fill="black" stroke="black" cx="806.8" cy="-85" rx="1.8" ry="1.8"/>
</g>
<!-- (28, 0)&#45;&gt;(31, 0) -->
<g id="edge30" class="edge">
<title>(28, 0)&#45;&gt;(31, 0)</title>
<path fill="none" stroke="blue" d="M766.2,-85C771.34,-85 794.75,-85 802.95,-85"/>
<polygon fill="blue" stroke="blue" points="804.97,-85 802.97,-86.13 803.97,-85 802.97,-85 802.97,-85 802.97,-85 803.97,-85 802.97,-83.88 804.97,-85 804.97,-85"/>
</g>
<!-- (32, 0) -->
<g id="node37" class="node">
<title>(32, 0)</title>
<ellipse fill="black" stroke="black" cx="842.4" cy="-48" rx="1.8" ry="1.8"/>
</g>
<!-- (29, 0)&#45;&gt;(32, 0) -->
<g id="edge31" class="edge">
<title>(29, 0)&#45;&gt;(32, 0)</title>
<path fill="none" stroke="blue" d="M808.63,-48C812.66,-48 830.31,-48 837.91,-48"/>
<polygon fill="blue" stroke="blue" points="840.2,-48 838.2,-49.13 839.2,-48 838.2,-48 838.2,-48 838.2,-48 839.2,-48 838.2,-46.88 840.2,-48 840.2,-48"/>
</g>
<!-- (33, 0) -->
<g id="node38" class="node">
<title>(33, 0)</title>
<ellipse fill="black" stroke="black" cx="842.4" cy="-15" rx="1.8" ry="1.8"/>
</g>
<!-- (30, 0)&#45;&gt;(33, 0) -->
<g id="edge32" class="edge">
<title>(30, 0)&#45;&gt;(33, 0)</title>
<path fill="none" stroke="blue" d="M808.63,-15C812.66,-15 830.31,-15 837.91,-15"/>
<polygon fill="blue" stroke="blue" points="840.2,-15 838.2,-16.13 839.2,-15 838.2,-15 838.2,-15 838.2,-15 839.2,-15 838.2,-13.88 840.2,-15 840.2,-15"/>
</g>
<!-- (34, 0) -->
<g id="node39" class="node">
<title>(34, 0)</title>
<ellipse fill="black" stroke="black" cx="842.4" cy="-85" rx="1.8" ry="1.8"/>
</g>
<!-- (31, 0)&#45;&gt;(34, 0) -->
<g id="edge33" class="edge">
<title>(31, 0)&#45;&gt;(34, 0)</title>
<path fill="none" stroke="blue" d="M808.63,-85C812.66,-85 830.31,-85 837.91,-85"/>
<polygon fill="blue" stroke="blue" points="840.2,-85 838.2,-86.13 839.2,-85 838.2,-85 838.2,-85 838.2,-85 839.2,-85 838.2,-83.88 840.2,-85 840.2,-85"/>
</g>
<!-- (35, 0) -->
<g id="node40" class="node">
<title>(35, 0)</title>
<ellipse fill="black" stroke="black" cx="880" cy="-48" rx="1.8" ry="1.8"/>
</g>
<!-- (32, 0)&#45;&gt;(35, 0) -->
<g id="edge34" class="edge">
<title>(32, 0)&#45;&gt;(35, 0)</title>
<path fill="none" stroke="blue" d="M844.28,-48C848.63,-48 867.91,-48 875.71,-48"/>
<polygon fill="blue" stroke="blue" points="877.73,-48 875.73,-49.13 876.73,-48 875.73,-48 875.73,-48 875.73,-48 876.73,-48 875.73,-46.88 877.73,-48 877.73,-48"/>
</g>
<!-- (36, 0) -->
<g id="node41" class="node">
<title>(36, 0)</title>
<ellipse fill="black" stroke="black" cx="880" cy="-15" rx="1.8" ry="1.8"/>
</g>
<!-- (33, 0)&#45;&gt;(36, 0) -->
<g id="edge35" class="edge">
<title>(33, 0)&#45;&gt;(36, 0)</title>
<path fill="none" stroke="blue" d="M844.28,-15C848.63,-15 867.91,-15 875.71,-15"/>
<polygon fill="blue" stroke="blue" points="877.73,-15 875.73,-16.13 876.73,-15 875.73,-15 875.73,-15 875.73,-15 876.73,-15 875.73,-13.88 877.73,-15 877.73,-15"/>
</g>
<!-- (37, 0) -->
<g id="node42" class="node">
<title>(37, 0)</title>
<ellipse fill="black" stroke="black" cx="880" cy="-85" rx="1.8" ry="1.8"/>
</g>
<!-- (34, 0)&#45;&gt;(37, 0) -->
<g id="edge36" class="edge">
<title>(34, 0)&#45;&gt;(37, 0)</title>
<path fill="none" stroke="blue" d="M844.28,-85C848.63,-85 867.91,-85 875.71,-85"/>
<polygon fill="blue" stroke="blue" points="877.73,-85 875.73,-86.13 876.73,-85 875.73,-85 875.73,-85 875.73,-85 876.73,-85 875.73,-83.88 877.73,-85 877.73,-85"/>
</g>
<!-- (38, 0) -->
<g id="node43" class="node">
<title>(38, 0)</title>
<ellipse fill="black" stroke="black" cx="915.6" cy="-48" rx="1.8" ry="1.8"/>
</g>
<!-- (35, 0)&#45;&gt;(38, 0) -->
<g id="edge37" class="edge">
<title>(35, 0)&#45;&gt;(38, 0)</title>
<path fill="none" stroke="blue" d="M881.83,-48C885.86,-48 903.51,-48 911.11,-48"/>
<polygon fill="blue" stroke="blue" points="913.4,-48 911.4,-49.13 912.4,-48 911.4,-48 911.4,-48 911.4,-48 912.4,-48 911.4,-46.88 913.4,-48 913.4,-48"/>
</g>
<!-- (39, 0) -->
<g id="node44" class="node">
<title>(39, 0)</title>
<ellipse fill="black" stroke="black" cx="915.6" cy="-15" rx="1.8" ry="1.8"/>
</g>
<!-- (36, 0)&#45;&gt;(39, 0) -->
<g id="edge38" class="edge">
<title>(36, 0)&#45;&gt;(39, 0)</title>
<path fill="none" stroke="blue" d="M881.83,-15C885.86,-15 903.51,-15 911.11,-15"/>
<polygon fill="blue" stroke="blue" points="913.4,-15 911.4,-16.13 912.4,-15 911.4,-15 911.4,-15 911.4,-15 912.4,-15 911.4,-13.88 913.4,-15 913.4,-15"/>
</g>
<!-- (37, 0)&#45;&gt;(25, 0) -->
<g id="edge39" class="edge">
<title>(37, 0)&#45;&gt;(25, 0)</title>
<path fill="none" stroke="blue" d="M882.2,-84.91C887.63,-84.46 910.42,-82.23 927.4,-75 933.19,-72.53 939.1,-68.09 942.44,-65.36"/>
<polygon fill="blue" stroke="blue" points="944.31,-63.79 943.5,-65.94 943.54,-64.43 942.78,-65.07 942.78,-65.07 942.78,-65.07 943.54,-64.43 942.05,-64.21 944.31,-63.79 944.31,-63.79"/>
</g>
<!-- (38, 0)&#45;&gt;(26, 0) -->
<g id="edge40" class="edge">
<title>(38, 0)&#45;&gt;(26, 0)</title>
<path fill="none" stroke="blue" d="M917.83,-48C922.02,-48 935.84,-48 942.08,-48"/>
<polygon fill="blue" stroke="blue" points="944.25,-48 942.25,-49.13 943.25,-48 942.25,-48 942.25,-48 942.25,-48 943.25,-48 942.25,-46.88 944.25,-48 944.25,-48"/>
</g>
<!-- (39, 0)&#45;&gt;(27, 0) -->
<g id="edge41" class="edge">
<title>(39, 0)&#45;&gt;(27, 0)</title>
<path fill="none" stroke="blue" d="M917.83,-15.77C922.09,-18.46 936.33,-27.42 942.41,-31.25"/>
<polygon fill="blue" stroke="blue" points="944.25,-32.4 941.96,-32.29 943.4,-31.87 942.56,-31.34 942.56,-31.34 942.56,-31.34 943.4,-31.87 943.16,-30.38 944.25,-32.4 944.25,-32.4"/>
</g>
</g>
</svg>
