<?xml version="1.0" encoding="UTF-8" standalone="no"?>
<!DOCTYPE svg PUBLIC "-//W3C//DTD SVG 1.1//EN"
 "http://www.w3.org/Graphics/SVG/1.1/DTD/svg11.dtd">
<!-- Generated by graphviz version 2.40.1 (20161225.0304)
 -->
<!-- Title: Circuit Pages: 1 -->
<svg width="268pt" height="113pt"
 viewBox="0.00 0.00 267.60 113.00" xmlns="http://www.w3.org/2000/svg" xmlns:xlink="http://www.w3.org/1999/xlink">
<g id="graph0" class="graph" transform="scale(1 1) rotate(0) translate(4 109)">
<title>Circuit</title>
<polygon fill="#ffffff" stroke="transparent" points="-4,4 -4,-109 263.6,-109 263.6,4 -4,4"/>
<g id="clust1" class="cluster">
<title>cluster_q_inputs</title>
<path fill="#d3d3d3" stroke="#d3d3d3" d="M18.5333,-9C18.5333,-9 23.0667,-9 23.0667,-9 25.3333,-9 27.6,-11.2667 27.6,-13.5333 27.6,-13.5333 27.6,-63.4667 27.6,-63.4667 27.6,-65.7333 25.3333,-68 23.0667,-68 23.0667,-68 18.5333,-68 18.5333,-68 16.2667,-68 14,-65.7333 14,-63.4667 14,-63.4667 14,-13.5333 14,-13.5333 14,-11.2667 16.2667,-9 18.5333,-9"/>
</g>
<g id="clust3" class="cluster">
<title>cluster_q_outputs</title>
<path fill="#d3d3d3" stroke="#d3d3d3" d="M242.5333,-8C242.5333,-8 247.0667,-8 247.0667,-8 249.3333,-8 251.6,-10.2667 251.6,-12.5333 251.6,-12.5333 251.6,-62.4667 251.6,-62.4667 251.6,-64.7333 249.3333,-67 247.0667,-67 247.0667,-67 242.5333,-67 242.5333,-67 240.2667,-67 238,-64.7333 238,-62.4667 238,-62.4667 238,-12.5333 238,-12.5333 238,-10.2667 240.2667,-8 242.5333,-8"/>
</g>
<g id="clust5" class="cluster">
<title>cluster_8</title>
<path fill="#add8e6" stroke="#add8e6" d="M49.8,-42C49.8,-42 60,-42 60,-42 65.1,-42 70.2,-47.1 70.2,-52.2 70.2,-52.2 70.2,-79.8 70.2,-79.8 70.2,-84.9 65.1,-90 60,-90 60,-90 49.8,-90 49.8,-90 44.7,-90 39.6,-84.9 39.6,-79.8 39.6,-79.8 39.6,-52.2 39.6,-52.2 39.6,-47.1 44.7,-42 49.8,-42"/>
<text text-anchor="middle" x="54.9" y="-78" font-family="Times,serif" font-size="10.00" fill="#000000">CX</text>
</g>
<g id="clust6" class="cluster">
<title>cluster_9</title>
<path fill="#add8e6" stroke="#add8e6" d="M92.4,-44C92.4,-44 102.6,-44 102.6,-44 107.7,-44 112.8,-49.1 112.8,-54.2 112.8,-54.2 112.8,-81.8 112.8,-81.8 112.8,-86.9 107.7,-92 102.6,-92 102.6,-92 92.4,-92 92.4,-92 87.3,-92 82.2,-86.9 82.2,-81.8 82.2,-81.8 82.2,-54.2 82.2,-54.2 82.2,-49.1 87.3,-44 92.4,-44"/>
<text text-anchor="middle" x="97.5" y="-80" font-family="Times,serif" font-size="10.00" fill="#000000">CX</text>
</g>
<g id="clust7" class="cluster">
<title>cluster_10</title>
<path fill="#add8e6" stroke="#add8e6" d="M135.8,-64C135.8,-64 174.4,-64 174.4,-64 179.9,-64 185.4,-69.5 185.4,-75 185.4,-75 185.4,-86 185.4,-86 185.4,-91.5 179.9,-97 174.4,-97 174.4,-97 135.8,-97 135.8,-97 130.3,-97 124.8,-91.5 124.8,-86 124.8,-86 124.8,-75 124.8,-75 124.8,-69.5 130.3,-64 135.8,-64"/>
<text text-anchor="middle" x="155.1" y="-85" font-family="Times,serif" font-size="10.00" fill="#000000">Rx(0.2*PI)</text>
</g>
<g id="clust8" class="cluster">
<title>cluster_11</title>
<path fill="#add8e6" stroke="#add8e6" d="M206.9333,-43C206.9333,-43 216.4667,-43 216.4667,-43 221.2333,-43 226,-47.7667 226,-52.5333 226,-52.5333 226,-81.4667 226,-81.4667 226,-86.2333 221.2333,-91 216.4667,-91 216.4667,-91 206.9333,-91 206.9333,-91 202.1667,-91 197.4,-86.2333 197.4,-81.4667 197.4,-81.4667 197.4,-52.5333 197.4,-52.5333 197.4,-47.7667 202.1667,-43 206.9333,-43"/>
<text text-anchor="middle" x="211.7" y="-79" font-family="Times,serif" font-size="10.00" fill="#000000">CZ</text>
</g>
<!-- (0, 0) -->
<g id="node1" class="node">
<title>(0, 0)</title>
<ellipse fill="#0000ff" stroke="#0000ff" cx="20.8" cy="-46" rx="1.8" ry="1.8"/>
<text text-anchor="middle" x="9.5" y="-37.8" font-family="Courier,monospace" font-size="8.00" fill="#000000">q[0]</text>
</g>
<!-- (8, 0) -->
<g id="node9" class="node">
<title>(8, 0)</title>
<ellipse fill="#000000" stroke="#000000" cx="54.4" cy="-49" rx="1.8" ry="1.8"/>
<text text-anchor="middle" x="50.1" y="-40.8" font-family="Helvetica,sans-Serif" font-size="8.00" fill="#000000">0</text>
</g>
<!-- (0, 0)&#45;&gt;(8, 0) -->
<g id="edge1" class="edge">
<title>(0, 0)&#45;&gt;(8, 0)</title>
<path fill="none" stroke="#0000ff" d="M22.6065,-46.1613C27.7539,-46.6209 42.6033,-47.9467 50.0433,-48.611"/>
<polygon fill="#0000ff" stroke="#0000ff" points="52.4174,-48.823 50.3252,-49.7656 51.4214,-48.734 50.4253,-48.645 50.4253,-48.645 50.4253,-48.645 51.4214,-48.734 50.5254,-47.5245 52.4174,-48.823 52.4174,-48.823"/>
</g>
<!-- (2, 0) -->
<g id="node2" class="node">
<title>(2, 0)</title>
<ellipse fill="#0000ff" stroke="#0000ff" cx="20.8" cy="-61" rx="1.8" ry="1.8"/>
<text text-anchor="middle" x="9.5" y="-52.8" font-family="Courier,monospace" font-size="8.00" fill="#000000">q[1]</text>
</g>
<!-- (8, 1) -->
<g id="node10" class="node">
<title>(8, 1)</title>
<ellipse fill="#000000" stroke="#000000" cx="54.4" cy="-64" rx="1.8" ry="1.8"/>
<text text-anchor="middle" x="50.1" y="-55.8" font-family="Helvetica,sans-Serif" font-size="8.00" fill="#000000">1</text>
</g>
<!-- (2, 0)&#45;&gt;(8, 1) -->
<g id="edge2" class="edge">
<title>(2, 0)&#45;&gt;(8, 1)</title>
<path fill="none" stroke="#0000ff" d="M22.6065,-61.1613C27.7539,-61.6209 42.6033,-62.9467 50.0433,-63.611"/>
<polygon fill="#0000ff" stroke="#0000ff" points="52.4174,-63.823 50.3252,-64.7656 51.4214,-63.734 50.4253,-63.645 50.4253,-63.645 50.4253,-63.645 51.4214,-63.734 50.5254,-62.5245 52.4174,-63.823 52.4174,-63.823"/>
</g>
<!-- (4, 0) -->
<g id="node3" class="node">
<title>(4, 0)</title>
<ellipse fill="#0000ff" stroke="#0000ff" cx="20.8" cy="-31" rx="1.8" ry="1.8"/>
<text text-anchor="middle" x="9.5" y="-22.8" font-family="Courier,monospace" font-size="8.00" fill="#000000">q[2]</text>
</g>
<!-- (5, 0) -->
<g id="node7" class="node">
<title>(5, 0)</title>
<ellipse fill="#0000ff" stroke="#0000ff" cx="244.8" cy="-30" rx="1.8" ry="1.8"/>
<text text-anchor="middle" x="233.5" y="-21.8" font-family="Courier,monospace" font-size="8.00" fill="#000000">q[2]</text>
</g>
<!-- (4, 0)&#45;&gt;(5, 0) -->
<g id="edge3" class="edge">
<title>(4, 0)&#45;&gt;(5, 0)</title>
<path fill="none" stroke="#0000ff" d="M22.6847,-30.9141C31.2485,-30.5313 67.3565,-29 97,-29 97,-29 97,-29 154.6,-29 187.4874,-29 227.1156,-29.6729 240.2952,-29.9147"/>
<polygon fill="#0000ff" stroke="#0000ff" points="242.5686,-29.957 240.548,-31.0446 241.5688,-29.9384 240.5689,-29.9197 240.5689,-29.9197 240.5689,-29.9197 241.5688,-29.9384 240.5899,-28.7949 242.5686,-29.957 242.5686,-29.957"/>
</g>
<!-- (6, 0) -->
<g id="node4" class="node">
<title>(6, 0)</title>
<ellipse fill="#0000ff" stroke="#0000ff" cx="20.8" cy="-16" rx="1.8" ry="1.8"/>
<text text-anchor="middle" x="9.5" y="-7.8" font-family="Courier,monospace" font-size="8.00" fill="#000000">q[3]</text>
</g>
<!-- (7, 0) -->
<g id="node8" class="node">
<title>(7, 0)</title>
<ellipse fill="#0000ff" stroke="#0000ff" cx="244.8" cy="-15" rx="1.8" ry="1.8"/>
<text text-anchor="middle" x="233.5" y="-6.8" font-family="Courier,monospace" font-size="8.00" fill="#000000">q[3]</text>
</g>
<!-- (6, 0)&#45;&gt;(7, 0) -->
<g id="edge4" class="edge">
<title>(6, 0)&#45;&gt;(7, 0)</title>
<path fill="none" stroke="#0000ff" d="M22.6732,-15.5703C31.1875,-13.6563 67.1126,-6 97,-6 97,-6 97,-6 154.6,-6 187.6487,-6 227.1736,-12.0562 240.3108,-14.2327"/>
<polygon fill="#0000ff" stroke="#0000ff" points="242.5767,-14.6133 240.4179,-15.3914 241.5905,-14.4476 240.6043,-14.2819 240.6043,-14.2819 240.6043,-14.2819 241.5905,-14.4476 240.7907,-13.1724 242.5767,-14.6133 242.5767,-14.6133"/>
</g>
<!-- (1, 0) -->
<g id="node5" class="node">
<title>(1, 0)</title>
<ellipse fill="#0000ff" stroke="#0000ff" cx="244.8" cy="-45" rx="1.8" ry="1.8"/>
<text text-anchor="middle" x="233.5" y="-36.8" font-family="Courier,monospace" font-size="8.00" fill="#000000">q[0]</text>
</g>
<!-- (3, 0) -->
<g id="node6" class="node">
<title>(3, 0)</title>
<ellipse fill="#0000ff" stroke="#0000ff" cx="244.8" cy="-60" rx="1.8" ry="1.8"/>
<text text-anchor="middle" x="233.5" y="-51.8" font-family="Courier,monospace" font-size="8.00" fill="#000000">q[1]</text>
</g>
<!-- (9, 1) -->
<g id="node12" class="node">
<title>(9, 1)</title>
<ellipse fill="#000000" stroke="#000000" cx="97" cy="-51" rx="1.8" ry="1.8"/>
<text text-anchor="middle" x="92.7" y="-42.8" font-family="Helvetica,sans-Serif" font-size="8.00" fill="#000000">1</text>
</g>
<!-- (8, 0)&#45;&gt;(9, 1) -->
<g id="edge5" class="edge">
<title>(8, 0)&#45;&gt;(9, 1)</title>
<path fill="none" stroke="#0000ff" d="M56.2305,-49.0859C62.5728,-49.3837 83.7151,-50.3763 92.7963,-50.8026"/>
<polygon fill="#0000ff" stroke="#0000ff" points="94.8289,-50.8981 92.7783,-51.9279 93.83,-50.8511 92.8311,-50.8042 92.8311,-50.8042 92.8311,-50.8042 93.83,-50.8511 92.8839,-49.6804 94.8289,-50.8981 94.8289,-50.8981"/>
</g>
<!-- (9, 0) -->
<g id="node11" class="node">
<title>(9, 0)</title>
<ellipse fill="#000000" stroke="#000000" cx="97" cy="-66" rx="1.8" ry="1.8"/>
<text text-anchor="middle" x="92.7" y="-57.8" font-family="Helvetica,sans-Serif" font-size="8.00" fill="#000000">0</text>
</g>
<!-- (8, 1)&#45;&gt;(9, 0) -->
<g id="edge6" class="edge">
<title>(8, 1)&#45;&gt;(9, 0)</title>
<path fill="none" stroke="#0000ff" d="M56.2305,-64.0859C62.5728,-64.3837 83.7151,-65.3763 92.7963,-65.8026"/>
<polygon fill="#0000ff" stroke="#0000ff" points="94.8289,-65.8981 92.7783,-66.9279 93.83,-65.8511 92.8311,-65.8042 92.8311,-65.8042 92.8311,-65.8042 93.83,-65.8511 92.8839,-64.6804 94.8289,-65.8981 94.8289,-65.8981"/>
</g>
<!-- (10, 0) -->
<g id="node13" class="node">
<title>(10, 0)</title>
<ellipse fill="#000000" stroke="#000000" cx="154.6" cy="-71" rx="1.8" ry="1.8"/>
</g>
<!-- (9, 0)&#45;&gt;(10, 0) -->
<g id="edge8" class="edge">
<title>(9, 0)&#45;&gt;(10, 0)</title>
<path fill="none" stroke="#0000ff" d="M98.9165,-66.1664C107.0467,-66.8721 138.7977,-69.6283 150.3594,-70.6319"/>
<polygon fill="#0000ff" stroke="#0000ff" points="152.6173,-70.8279 150.5274,-71.7756 151.621,-70.7414 150.6248,-70.6548 150.6248,-70.6548 150.6248,-70.6548 151.621,-70.7414 150.7221,-69.5341 152.6173,-70.8279 152.6173,-70.8279"/>
</g>
<!-- (11, 0) -->
<g id="node14" class="node">
<title>(11, 0)</title>
<ellipse fill="#000000" stroke="#000000" cx="211.2" cy="-50" rx="1.8" ry="1.8"/>
<text text-anchor="middle" x="206.9" y="-41.8" font-family="Helvetica,sans-Serif" font-size="8.00" fill="#000000">0</text>
</g>
<!-- (9, 1)&#45;&gt;(11, 0) -->
<g id="edge7" class="edge">
<title>(9, 1)&#45;&gt;(11, 0)</title>
<path fill="none" stroke="#0000ff" d="M98.9822,-50.9826C112.1938,-50.867 187.5603,-50.207 206.7532,-50.0389"/>
<polygon fill="#0000ff" stroke="#0000ff" points="209.1633,-50.0178 207.1733,-51.1604 208.1633,-50.0266 207.1634,-50.0354 207.1634,-50.0354 207.1634,-50.0354 208.1633,-50.0266 207.1535,-48.9105 209.1633,-50.0178 209.1633,-50.0178"/>
</g>
<!-- (11, 1) -->
<g id="node15" class="node">
<title>(11, 1)</title>
<ellipse fill="#000000" stroke="#000000" cx="211.2" cy="-65" rx="1.8" ry="1.8"/>
<text text-anchor="middle" x="206.9" y="-56.8" font-family="Helvetica,sans-Serif" font-size="8.00" fill="#000000">1</text>
</g>
<!-- (10, 0)&#45;&gt;(11, 1) -->
<g id="edge9" class="edge">
<title>(10, 0)&#45;&gt;(11, 1)</title>
<path fill="none" stroke="#0000ff" d="M156.4832,-70.8004C164.4723,-69.9535 195.672,-66.6461 207.033,-65.4417"/>
<polygon fill="#0000ff" stroke="#0000ff" points="209.2517,-65.2065 207.3815,-66.5362 208.2573,-65.312 207.2628,-65.4174 207.2628,-65.4174 207.2628,-65.4174 208.2573,-65.312 207.1442,-64.2987 209.2517,-65.2065 209.2517,-65.2065"/>
</g>
<!-- (11, 0)&#45;&gt;(1, 0) -->
<g id="edge11" class="edge">
<title>(11, 0)&#45;&gt;(1, 0)</title>
<path fill="none" stroke="#0000ff" d="M213.0065,-49.7312C218.2442,-48.9518 233.5274,-46.6775 240.828,-45.5911"/>
<polygon fill="#0000ff" stroke="#0000ff" points="242.8174,-45.295 241.0048,-46.7022 241.8283,-45.4423 240.8392,-45.5895 240.8392,-45.5895 240.8392,-45.5895 241.8283,-45.4423 240.6736,-44.4767 242.8174,-45.295 242.8174,-45.295"/>
</g>
<!-- (11, 1)&#45;&gt;(3, 0) -->
<g id="edge10" class="edge">
<title>(11, 1)&#45;&gt;(3, 0)</title>
<path fill="none" stroke="#0000ff" d="M213.0065,-64.7312C218.2442,-63.9518 233.5274,-61.6775 240.828,-60.5911"/>
<polygon fill="#0000ff" stroke="#0000ff" points="242.8174,-60.295 241.0048,-61.7022 241.8283,-60.4423 240.8392,-60.5895 240.8392,-60.5895 240.8392,-60.5895 241.8283,-60.4423 240.6736,-59.4767 242.8174,-60.295 242.8174,-60.295"/>
</g>
</g>
</svg>
