<?xml version="1.0" encoding="UTF-8" standalone="no"?>
<!DOCTYPE svg PUBLIC "-//W3C//DTD SVG 1.1//EN"
 "http://www.w3.org/Graphics/SVG/1.1/DTD/svg11.dtd">
<!-- Generated by graphviz version 2.40.1 (20161225.0304)
 -->
<!-- Title: Circuit Pages: 1 -->
<svg width="257pt" height="123pt"
 viewBox="0.00 0.00 257.00 123.00" xmlns="http://www.w3.org/2000/svg" xmlns:xlink="http://www.w3.org/1999/xlink">
<g id="graph0" class="graph" transform="scale(1 1) rotate(0) translate(4 119)">
<title>Circuit</title>
<polygon fill="#ffffff" stroke="transparent" points="-4,4 -4,-119 253,-119 253,4 -4,4"/>
<g id="clust1" class="cluster">
<title>cluster_q_inputs</title>
<path fill="#d3d3d3" stroke="#d3d3d3" d="M18.5333,-9C18.5333,-9 23.0667,-9 23.0667,-9 25.3333,-9 27.6,-11.2667 27.6,-13.5333 27.6,-13.5333 27.6,-63.4667 27.6,-63.4667 27.6,-65.7333 25.3333,-68 23.0667,-68 23.0667,-68 18.5333,-68 18.5333,-68 16.2667,-68 14,-65.7333 14,-63.4667 14,-63.4667 14,-13.5333 14,-13.5333 14,-11.2667 16.2667,-9 18.5333,-9"/>
</g>
<g id="clust3" class="cluster">
<title>cluster_q_outputs</title>
<path fill="#d3d3d3" stroke="#d3d3d3" d="M231.9333,-8C231.9333,-8 236.4667,-8 236.4667,-8 238.7333,-8 241,-10.2667 241,-12.5333 241,-12.5333 241,-62.4667 241,-62.4667 241,-64.7333 238.7333,-67 236.4667,-67 236.4667,-67 231.9333,-67 231.9333,-67 229.6667,-67 227.4,-64.7333 227.4,-62.4667 227.4,-62.4667 227.4,-12.5333 227.4,-12.5333 227.4,-10.2667 229.6667,-8 231.9333,-8"/>
</g>
<g id="clust5" class="cluster">
<title>cluster_8</title>
<path fill="#add8e6" stroke="#add8e6" d="M135.4,-50C135.4,-50 145.6,-50 145.6,-50 150.7,-50 155.8,-55.1 155.8,-60.2 155.8,-60.2 155.8,-87.8 155.8,-87.8 155.8,-92.9 150.7,-98 145.6,-98 145.6,-98 135.4,-98 135.4,-98 130.3,-98 125.2,-92.9 125.2,-87.8 125.2,-87.8 125.2,-60.2 125.2,-60.2 125.2,-55.1 130.3,-50 135.4,-50"/>
<text text-anchor="middle" x="140.5" y="-86" font-family="Times,serif" font-size="10.00" fill="#000000">CX</text>
</g>
<g id="clust6" class="cluster">
<title>cluster_9</title>
<path fill="#add8e6" stroke="#add8e6" d="M50.6,-74C50.6,-74 103.2,-74 103.2,-74 108.7,-74 114.2,-79.5 114.2,-85 114.2,-85 114.2,-96 114.2,-96 114.2,-101.5 108.7,-107 103.2,-107 103.2,-107 50.6,-107 50.6,-107 45.1,-107 39.6,-101.5 39.6,-96 39.6,-96 39.6,-85 39.6,-85 39.6,-79.5 45.1,-74 50.6,-74"/>
<text text-anchor="middle" x="76.9" y="-95" font-family="Times,serif" font-size="10.00" fill="#000000">U3(3.8, 0, 1.5)</text>
</g>
<g id="clust7" class="cluster">
<title>cluster_10</title>
<path fill="#add8e6" stroke="#add8e6" d="M178.8,-41C178.8,-41 204.4,-41 204.4,-41 209.9,-41 215.4,-46.5 215.4,-52 215.4,-52 215.4,-63 215.4,-63 215.4,-68.5 209.9,-74 204.4,-74 204.4,-74 178.8,-74 178.8,-74 173.3,-74 167.8,-68.5 167.8,-63 167.8,-63 167.8,-52 167.8,-52 167.8,-46.5 173.3,-41 178.8,-41"/>
<text text-anchor="middle" x="191.6" y="-62" font-family="Times,serif" font-size="10.00" fill="#000000">U1(0.5)</text>
</g>
<g id="clust8" class="cluster">
<title>cluster_11</title>
<path fill="#add8e6" stroke="#add8e6" d="M63.6,-41C63.6,-41 89.2,-41 89.2,-41 94.7,-41 100.2,-46.5 100.2,-52 100.2,-52 100.2,-63 100.2,-63 100.2,-68.5 94.7,-74 89.2,-74 89.2,-74 63.6,-74 63.6,-74 58.1,-74 52.6,-68.5 52.6,-63 52.6,-63 52.6,-52 52.6,-52 52.6,-46.5 58.1,-41 63.6,-41"/>
<text text-anchor="middle" x="76.4" y="-62" font-family="Times,serif" font-size="10.00" fill="#000000">U1(0.5)</text>
</g>
<!-- (0, 0) -->
<g id="node1" class="node">
<title>(0, 0)</title>
<ellipse fill="#0000ff" stroke="#0000ff" cx="20.8" cy="-61" rx="1.8" ry="1.8"/>
<text text-anchor="middle" x="9.5" y="-52.8" font-family="Courier,monospace" font-size="8.00" fill="#000000">q[0]</text>
</g>
<!-- (9, 0) -->
<g id="node11" class="node">
<title>(9, 0)</title>
<ellipse fill="#000000" stroke="#000000" cx="76.4" cy="-81" rx="1.8" ry="1.8"/>
</g>
<!-- (0, 0)&#45;&gt;(9, 0) -->
<g id="edge1" class="edge">
<title>(0, 0)&#45;&gt;(9, 0)</title>
<path fill="none" stroke="#0000ff" d="M22.3886,-62.6158C25.428,-65.6006 32.406,-71.9512 39.6,-75 50.6411,-79.6792 64.9729,-80.7282 72.0513,-80.9507"/>
<polygon fill="#0000ff" stroke="#0000ff" points="74.3114,-81.0004 72.2871,-82.081 73.3116,-80.9784 72.3119,-80.9563 72.3119,-80.9563 72.3119,-80.9563 73.3116,-80.9784 72.3367,-79.8316 74.3114,-81.0004 74.3114,-81.0004"/>
</g>
<!-- (2, 0) -->
<g id="node2" class="node">
<title>(2, 0)</title>
<ellipse fill="#0000ff" stroke="#0000ff" cx="20.8" cy="-46" rx="1.8" ry="1.8"/>
<text text-anchor="middle" x="9.5" y="-37.8" font-family="Courier,monospace" font-size="8.00" fill="#000000">q[1]</text>
</g>
<!-- (11, 0) -->
<g id="node13" class="node">
<title>(11, 0)</title>
<ellipse fill="#000000" stroke="#000000" cx="76.4" cy="-48" rx="1.8" ry="1.8"/>
</g>
<!-- (2, 0)&#45;&gt;(11, 0) -->
<g id="edge2" class="edge">
<title>(2, 0)&#45;&gt;(11, 0)</title>
<path fill="none" stroke="#0000ff" d="M22.6499,-46.0665C30.4979,-46.3488 61.1464,-47.4513 72.3067,-47.8528"/>
<polygon fill="#0000ff" stroke="#0000ff" points="74.4861,-47.9312 72.4469,-48.9834 73.4868,-47.8952 72.4874,-47.8592 72.4874,-47.8592 72.4874,-47.8592 73.4868,-47.8952 72.5279,-46.7349 74.4861,-47.9312 74.4861,-47.9312"/>
</g>
<!-- (4, 0) -->
<g id="node3" class="node">
<title>(4, 0)</title>
<ellipse fill="#0000ff" stroke="#0000ff" cx="20.8" cy="-31" rx="1.8" ry="1.8"/>
<text text-anchor="middle" x="9.5" y="-22.8" font-family="Courier,monospace" font-size="8.00" fill="#000000">q[2]</text>
</g>
<!-- (5, 0) -->
<g id="node7" class="node">
<title>(5, 0)</title>
<ellipse fill="#0000ff" stroke="#0000ff" cx="234.2" cy="-30" rx="1.8" ry="1.8"/>
<text text-anchor="middle" x="222.9" y="-21.8" font-family="Courier,monospace" font-size="8.00" fill="#000000">q[2]</text>
</g>
<!-- (4, 0)&#45;&gt;(5, 0) -->
<g id="edge3" class="edge">
<title>(4, 0)&#45;&gt;(5, 0)</title>
<path fill="none" stroke="#0000ff" d="M22.6449,-30.9914C41.6641,-30.9022 201.9051,-30.1513 230.003,-30.0197"/>
<polygon fill="#0000ff" stroke="#0000ff" points="232.0533,-30.0101 230.0586,-31.1445 231.0533,-30.0148 230.0533,-30.0195 230.0533,-30.0195 230.0533,-30.0195 231.0533,-30.0148 230.048,-28.8945 232.0533,-30.0101 232.0533,-30.0101"/>
</g>
<!-- (6, 0) -->
<g id="node4" class="node">
<title>(6, 0)</title>
<ellipse fill="#0000ff" stroke="#0000ff" cx="20.8" cy="-16" rx="1.8" ry="1.8"/>
<text text-anchor="middle" x="9.5" y="-7.8" font-family="Courier,monospace" font-size="8.00" fill="#000000">q[3]</text>
</g>
<!-- (7, 0) -->
<g id="node8" class="node">
<title>(7, 0)</title>
<ellipse fill="#0000ff" stroke="#0000ff" cx="234.2" cy="-15" rx="1.8" ry="1.8"/>
<text text-anchor="middle" x="222.9" y="-6.8" font-family="Courier,monospace" font-size="8.00" fill="#000000">q[3]</text>
</g>
<!-- (6, 0)&#45;&gt;(7, 0) -->
<g id="edge4" class="edge">
<title>(6, 0)&#45;&gt;(7, 0)</title>
<path fill="none" stroke="#0000ff" d="M22.6449,-15.9914C41.6641,-15.9022 201.9051,-15.1513 230.003,-15.0197"/>
<polygon fill="#0000ff" stroke="#0000ff" points="232.0533,-15.0101 230.0586,-16.1445 231.0533,-15.0148 230.0533,-15.0195 230.0533,-15.0195 230.0533,-15.0195 231.0533,-15.0148 230.048,-13.8945 232.0533,-15.0101 232.0533,-15.0101"/>
</g>
<!-- (1, 0) -->
<g id="node5" class="node">
<title>(1, 0)</title>
<ellipse fill="#0000ff" stroke="#0000ff" cx="234.2" cy="-60" rx="1.8" ry="1.8"/>
<text text-anchor="middle" x="222.9" y="-51.8" font-family="Courier,monospace" font-size="8.00" fill="#000000">q[0]</text>
</g>
<!-- (3, 0) -->
<g id="node6" class="node">
<title>(3, 0)</title>
<ellipse fill="#0000ff" stroke="#0000ff" cx="234.2" cy="-45" rx="1.8" ry="1.8"/>
<text text-anchor="middle" x="222.9" y="-36.8" font-family="Courier,monospace" font-size="8.00" fill="#000000">q[1]</text>
</g>
<!-- (8, 0) -->
<g id="node9" class="node">
<title>(8, 0)</title>
<ellipse fill="#000000" stroke="#000000" cx="140" cy="-57" rx="1.8" ry="1.8"/>
<text text-anchor="middle" x="135.7" y="-48.8" font-family="Helvetica,sans-Serif" font-size="8.00" fill="#000000">0</text>
</g>
<!-- (8, 0)&#45;&gt;(1, 0) -->
<g id="edge5" class="edge">
<title>(8, 0)&#45;&gt;(1, 0)</title>
<path fill="none" stroke="#0000ff" d="M141.9247,-57.8048C144.9789,-59.1187 151.0732,-61.8915 155.8,-65 161.6005,-68.8146 161.2722,-72.6366 167.8,-75 187.692,-82.2019 195.4325,-81.9897 215.4,-75 222.0504,-72.672 228.1021,-66.8954 231.4547,-63.2282"/>
<polygon fill="#0000ff" stroke="#0000ff" points="233.0262,-61.4432 232.549,-63.6878 232.3654,-62.1938 231.7046,-62.9444 231.7046,-62.9444 231.7046,-62.9444 232.3654,-62.1938 230.8602,-62.2009 233.0262,-61.4432 233.0262,-61.4432"/>
</g>
<!-- (8, 1) -->
<g id="node10" class="node">
<title>(8, 1)</title>
<ellipse fill="#000000" stroke="#000000" cx="140" cy="-72" rx="1.8" ry="1.8"/>
<text text-anchor="middle" x="135.7" y="-63.8" font-family="Helvetica,sans-Serif" font-size="8.00" fill="#000000">1</text>
</g>
<!-- (10, 0) -->
<g id="node12" class="node">
<title>(10, 0)</title>
<ellipse fill="#000000" stroke="#000000" cx="191.6" cy="-48" rx="1.8" ry="1.8"/>
</g>
<!-- (8, 1)&#45;&gt;(10, 0) -->
<g id="edge6" class="edge">
<title>(8, 1)&#45;&gt;(10, 0)</title>
<path fill="none" stroke="#0000ff" d="M141.7168,-71.2015C149.0002,-67.8139 177.4438,-54.5843 187.8011,-49.7669"/>
<polygon fill="#0000ff" stroke="#0000ff" points="189.8238,-48.8261 188.4848,-50.6897 188.9171,-49.2479 188.0104,-49.6696 188.0104,-49.6696 188.0104,-49.6696 188.9171,-49.2479 187.5359,-48.6496 189.8238,-48.8261 189.8238,-48.8261"/>
</g>
<!-- (9, 0)&#45;&gt;(8, 1) -->
<g id="edge7" class="edge">
<title>(9, 0)&#45;&gt;(8, 1)</title>
<path fill="none" stroke="#0000ff" d="M78.2348,-80.7404C86.789,-79.5299 122.8715,-74.4238 135.5625,-72.6279"/>
<polygon fill="#0000ff" stroke="#0000ff" points="137.7737,-72.315 135.9511,-73.7092 136.7836,-72.4552 135.7935,-72.5953 135.7935,-72.5953 135.7935,-72.5953 136.7836,-72.4552 135.6358,-71.4814 137.7737,-72.315 137.7737,-72.315"/>
</g>
<!-- (10, 0)&#45;&gt;(3, 0) -->
<g id="edge8" class="edge">
<title>(10, 0)&#45;&gt;(3, 0)</title>
<path fill="none" stroke="#0000ff" d="M193.4305,-47.8711C199.7728,-47.4244 220.9151,-45.9356 229.9963,-45.296"/>
<polygon fill="#0000ff" stroke="#0000ff" points="232.0289,-45.1529 230.1129,-46.4157 231.0314,-45.2232 230.0338,-45.2935 230.0338,-45.2935 230.0338,-45.2935 231.0314,-45.2232 229.9548,-44.1713 232.0289,-45.1529 232.0289,-45.1529"/>
</g>
<!-- (11, 0)&#45;&gt;(8, 0) -->
<g id="edge9" class="edge">
<title>(11, 0)&#45;&gt;(8, 0)</title>
<path fill="none" stroke="#0000ff" d="M78.2348,-48.2596C86.789,-49.4701 122.8715,-54.5762 135.5625,-56.3721"/>
<polygon fill="#0000ff" stroke="#0000ff" points="137.7737,-56.685 135.6358,-57.5186 136.7836,-56.5448 135.7935,-56.4047 135.7935,-56.4047 135.7935,-56.4047 136.7836,-56.5448 135.9511,-55.2908 137.7737,-56.685 137.7737,-56.685"/>
</g>
</g>
</svg>
