<?xml version="1.0" encoding="UTF-8" standalone="no"?>
<!DOCTYPE svg PUBLIC "-//W3C//DTD SVG 1.1//EN"
 "http://www.w3.org/Graphics/SVG/1.1/DTD/svg11.dtd">
<!-- Generated by graphviz version 2.40.1 (20161225.0304)
 -->
<!-- Title: Circuit Pages: 1 -->
<svg width="858pt" height="130pt"
 viewBox="0.00 0.00 858.00 130.00" xmlns="http://www.w3.org/2000/svg" xmlns:xlink="http://www.w3.org/1999/xlink">
<g id="graph0" class="graph" transform="scale(1 1) rotate(0) translate(4 126)">
<title>Circuit</title>
<polygon fill="#ffffff" stroke="transparent" points="-4,4 -4,-126 854,-126 854,4 -4,4"/>
<g id="clust1" class="cluster">
<title>cluster_q_inputs</title>
<path fill="#d3d3d3" stroke="#d3d3d3" d="M18.5333,-26C18.5333,-26 23.0667,-26 23.0667,-26 25.3333,-26 27.6,-28.2667 27.6,-30.5333 27.6,-30.5333 27.6,-65.4667 27.6,-65.4667 27.6,-67.7333 25.3333,-70 23.0667,-70 23.0667,-70 18.5333,-70 18.5333,-70 16.2667,-70 14,-67.7333 14,-65.4667 14,-65.4667 14,-30.5333 14,-30.5333 14,-28.2667 16.2667,-26 18.5333,-26"/>
</g>
<g id="clust3" class="cluster">
<title>cluster_q_outputs</title>
<path fill="#d3d3d3" stroke="#d3d3d3" d="M832.9333,-26C832.9333,-26 837.4667,-26 837.4667,-26 839.7333,-26 842,-28.2667 842,-30.5333 842,-30.5333 842,-65.4667 842,-65.4667 842,-67.7333 839.7333,-70 837.4667,-70 837.4667,-70 832.9333,-70 832.9333,-70 830.6667,-70 828.4,-67.7333 828.4,-65.4667 828.4,-65.4667 828.4,-30.5333 828.4,-30.5333 828.4,-28.2667 830.6667,-26 832.9333,-26"/>
</g>
<g id="clust5" class="cluster">
<title>cluster_3</title>
<path fill="#add8e6" stroke="#add8e6" d="M47.4667,-41C47.4667,-41 55.3333,-41 55.3333,-41 59.2667,-41 63.2,-44.9333 63.2,-48.8667 63.2,-48.8667 63.2,-66.1333 63.2,-66.1333 63.2,-70.0667 59.2667,-74 55.3333,-74 55.3333,-74 47.4667,-74 47.4667,-74 43.5333,-74 39.6,-70.0667 39.6,-66.1333 39.6,-66.1333 39.6,-48.8667 39.6,-48.8667 39.6,-44.9333 43.5333,-41 47.4667,-41"/>
<text text-anchor="middle" x="51.4" y="-62" font-family="Times,serif" font-size="10.00" fill="#000000">H</text>
</g>
<g id="clust6" class="cluster">
<title>cluster_4</title>
<path fill="#add8e6" stroke="#add8e6" d="M86.2,-41C86.2,-41 115.8,-41 115.8,-41 121.3,-41 126.8,-46.5 126.8,-52 126.8,-52 126.8,-63 126.8,-63 126.8,-68.5 121.3,-74 115.8,-74 115.8,-74 86.2,-74 86.2,-74 80.7,-74 75.2,-68.5 75.2,-63 75.2,-63 75.2,-52 75.2,-52 75.2,-46.5 80.7,-41 86.2,-41"/>
<text text-anchor="middle" x="101" y="-62" font-family="Times,serif" font-size="10.00" fill="#000000">Rz(0.45)</text>
</g>
<g id="clust7" class="cluster">
<title>cluster_5</title>
<path fill="#add8e6" stroke="#add8e6" d="M146.6667,-41C146.6667,-41 154.5333,-41 154.5333,-41 158.4667,-41 162.4,-44.9333 162.4,-48.8667 162.4,-48.8667 162.4,-66.1333 162.4,-66.1333 162.4,-70.0667 158.4667,-74 154.5333,-74 154.5333,-74 146.6667,-74 146.6667,-74 142.7333,-74 138.8,-70.0667 138.8,-66.1333 138.8,-66.1333 138.8,-48.8667 138.8,-48.8667 138.8,-44.9333 142.7333,-41 146.6667,-41"/>
<text text-anchor="middle" x="150.6" y="-62" font-family="Times,serif" font-size="10.00" fill="#000000">H</text>
</g>
<g id="clust8" class="cluster">
<title>cluster_6</title>
<path fill="#add8e6" stroke="#add8e6" d="M185.4,-78C185.4,-78 210,-78 210,-78 215.5,-78 221,-83.5 221,-89 221,-89 221,-100 221,-100 221,-105.5 215.5,-111 210,-111 210,-111 185.4,-111 185.4,-111 179.9,-111 174.4,-105.5 174.4,-100 174.4,-100 174.4,-89 174.4,-89 174.4,-83.5 179.9,-78 185.4,-78"/>
<text text-anchor="middle" x="197.7" y="-99" font-family="Times,serif" font-size="10.00" fill="#000000">Rz(0.2)</text>
</g>
<g id="clust9" class="cluster">
<title>cluster_7</title>
<path fill="#add8e6" stroke="#add8e6" d="M193.2667,-43C193.2667,-43 201.1333,-43 201.1333,-43 205.0667,-43 209,-46.9333 209,-50.8667 209,-50.8667 209,-68.1333 209,-68.1333 209,-72.0667 205.0667,-76 201.1333,-76 201.1333,-76 193.2667,-76 193.2667,-76 189.3333,-76 185.4,-72.0667 185.4,-68.1333 185.4,-68.1333 185.4,-50.8667 185.4,-50.8667 185.4,-46.9333 189.3333,-43 193.2667,-43"/>
<text text-anchor="middle" x="197.2" y="-64" font-family="Times,serif" font-size="10.00" fill="#000000">H</text>
</g>
<g id="clust10" class="cluster">
<title>cluster_8</title>
<path fill="#add8e6" stroke="#add8e6" d="M242.8667,-78C242.8667,-78 250.7333,-78 250.7333,-78 254.6667,-78 258.6,-81.9333 258.6,-85.8667 258.6,-85.8667 258.6,-103.1333 258.6,-103.1333 258.6,-107.0667 254.6667,-111 250.7333,-111 250.7333,-111 242.8667,-111 242.8667,-111 238.9333,-111 235,-107.0667 235,-103.1333 235,-103.1333 235,-85.8667 235,-85.8667 235,-81.9333 238.9333,-78 242.8667,-78"/>
<text text-anchor="middle" x="246.8" y="-99" font-family="Times,serif" font-size="10.00" fill="#000000">V</text>
</g>
<g id="clust11" class="cluster">
<title>cluster_9</title>
<path fill="#add8e6" stroke="#add8e6" d="M286.8,-78C286.8,-78 294,-78 294,-78 297.6,-78 301.2,-81.6 301.2,-85.2 301.2,-85.2 301.2,-103.8 301.2,-103.8 301.2,-107.4 297.6,-111 294,-111 294,-111 286.8,-111 286.8,-111 283.2,-111 279.6,-107.4 279.6,-103.8 279.6,-103.8 279.6,-85.2 279.6,-85.2 279.6,-81.6 283.2,-78 286.8,-78"/>
<text text-anchor="middle" x="290.4" y="-99" font-family="Times,serif" font-size="10.00" fill="#000000">S</text>
</g>
<g id="clust12" class="cluster">
<title>cluster_10</title>
<path fill="#add8e6" stroke="#add8e6" d="M193.6,-10C193.6,-10 200.8,-10 200.8,-10 204.4,-10 208,-13.6 208,-17.2 208,-17.2 208,-35.8 208,-35.8 208,-39.4 204.4,-43 200.8,-43 200.8,-43 193.6,-43 193.6,-43 190,-43 186.4,-39.4 186.4,-35.8 186.4,-35.8 186.4,-17.2 186.4,-17.2 186.4,-13.6 190,-10 193.6,-10"/>
<text text-anchor="middle" x="197.2" y="-31" font-family="Times,serif" font-size="10.00" fill="#000000">S</text>
</g>
<g id="clust13" class="cluster">
<title>cluster_11</title>
<path fill="#add8e6" stroke="#add8e6" d="M242.2,-20C242.2,-20 252.4,-20 252.4,-20 257.5,-20 262.6,-25.1 262.6,-30.2 262.6,-30.2 262.6,-57.8 262.6,-57.8 262.6,-62.9 257.5,-68 252.4,-68 252.4,-68 242.2,-68 242.2,-68 237.1,-68 232,-62.9 232,-57.8 232,-57.8 232,-30.2 232,-30.2 232,-25.1 237.1,-20 242.2,-20"/>
<text text-anchor="middle" x="247.3" y="-56" font-family="Times,serif" font-size="10.00" fill="#000000">CX</text>
</g>
<g id="clust14" class="cluster">
<title>cluster_12</title>
<path fill="#add8e6" stroke="#add8e6" d="M285.1333,-45C285.1333,-45 295.6667,-45 295.6667,-45 300.9333,-45 306.2,-50.2667 306.2,-55.5333 306.2,-55.5333 306.2,-67.4667 306.2,-67.4667 306.2,-72.7333 300.9333,-78 295.6667,-78 295.6667,-78 285.1333,-78 285.1333,-78 279.8667,-78 274.6,-72.7333 274.6,-67.4667 274.6,-67.4667 274.6,-55.5333 274.6,-55.5333 274.6,-50.2667 279.8667,-45 285.1333,-45"/>
<text text-anchor="middle" x="290.4" y="-66" font-family="Times,serif" font-size="10.00" fill="#000000">Sdg</text>
</g>
<g id="clust15" class="cluster">
<title>cluster_13</title>
<path fill="#add8e6" stroke="#add8e6" d="M328.4,-54C328.4,-54 338.6,-54 338.6,-54 343.7,-54 348.8,-59.1 348.8,-64.2 348.8,-64.2 348.8,-91.8 348.8,-91.8 348.8,-96.9 343.7,-102 338.6,-102 338.6,-102 328.4,-102 328.4,-102 323.3,-102 318.2,-96.9 318.2,-91.8 318.2,-91.8 318.2,-64.2 318.2,-64.2 318.2,-59.1 323.3,-54 328.4,-54"/>
<text text-anchor="middle" x="333.5" y="-90" font-family="Times,serif" font-size="10.00" fill="#000000">CX</text>
</g>
<g id="clust16" class="cluster">
<title>cluster_14</title>
<path fill="#add8e6" stroke="#add8e6" d="M371.8,-81C371.8,-81 396.4,-81 396.4,-81 401.9,-81 407.4,-86.5 407.4,-92 407.4,-92 407.4,-103 407.4,-103 407.4,-108.5 401.9,-114 396.4,-114 396.4,-114 371.8,-114 371.8,-114 366.3,-114 360.8,-108.5 360.8,-103 360.8,-103 360.8,-92 360.8,-92 360.8,-86.5 366.3,-81 371.8,-81"/>
<text text-anchor="middle" x="384.1" y="-102" font-family="Times,serif" font-size="10.00" fill="#000000">Rz(3.4)</text>
</g>
<g id="clust17" class="cluster">
<title>cluster_15</title>
<path fill="#add8e6" stroke="#add8e6" d="M379.6667,-46C379.6667,-46 387.5333,-46 387.5333,-46 391.4667,-46 395.4,-49.9333 395.4,-53.8667 395.4,-53.8667 395.4,-71.1333 395.4,-71.1333 395.4,-75.0667 391.4667,-79 387.5333,-79 387.5333,-79 379.6667,-79 379.6667,-79 375.7333,-79 371.8,-75.0667 371.8,-71.1333 371.8,-71.1333 371.8,-53.8667 371.8,-53.8667 371.8,-49.9333 375.7333,-46 379.6667,-46"/>
<text text-anchor="middle" x="383.6" y="-67" font-family="Times,serif" font-size="10.00" fill="#000000">H</text>
</g>
<g id="clust18" class="cluster">
<title>cluster_16</title>
<path fill="#add8e6" stroke="#add8e6" d="M430.4,-45C430.4,-45 455,-45 455,-45 460.5,-45 466,-50.5 466,-56 466,-56 466,-67 466,-67 466,-72.5 460.5,-78 455,-78 455,-78 430.4,-78 430.4,-78 424.9,-78 419.4,-72.5 419.4,-67 419.4,-67 419.4,-56 419.4,-56 419.4,-50.5 424.9,-45 430.4,-45"/>
<text text-anchor="middle" x="442.7" y="-66" font-family="Times,serif" font-size="10.00" fill="#000000">Rz(0.8)</text>
</g>
<g id="clust19" class="cluster">
<title>cluster_17</title>
<path fill="#add8e6" stroke="#add8e6" d="M485.8667,-45C485.8667,-45 493.7333,-45 493.7333,-45 497.6667,-45 501.6,-48.9333 501.6,-52.8667 501.6,-52.8667 501.6,-70.1333 501.6,-70.1333 501.6,-74.0667 497.6667,-78 493.7333,-78 493.7333,-78 485.8667,-78 485.8667,-78 481.9333,-78 478,-74.0667 478,-70.1333 478,-70.1333 478,-52.8667 478,-52.8667 478,-48.9333 481.9333,-45 485.8667,-45"/>
<text text-anchor="middle" x="489.8" y="-66" font-family="Times,serif" font-size="10.00" fill="#000000">H</text>
</g>
<g id="clust20" class="cluster">
<title>cluster_18</title>
<path fill="#add8e6" stroke="#add8e6" d="M657.2667,-41C657.2667,-41 665.1333,-41 665.1333,-41 669.0667,-41 673,-44.9333 673,-48.8667 673,-48.8667 673,-66.1333 673,-66.1333 673,-70.0667 669.0667,-74 665.1333,-74 665.1333,-74 657.2667,-74 657.2667,-74 653.3333,-74 649.4,-70.0667 649.4,-66.1333 649.4,-66.1333 649.4,-48.8667 649.4,-48.8667 649.4,-44.9333 653.3333,-41 657.2667,-41"/>
<text text-anchor="middle" x="661.2" y="-62" font-family="Times,serif" font-size="10.00" fill="#000000">H</text>
</g>
<g id="clust21" class="cluster">
<title>cluster_19</title>
<path fill="#add8e6" stroke="#add8e6" d="M610.8,-78C610.8,-78 623.4,-78 623.4,-78 628.9,-78 634.4,-83.5 634.4,-89 634.4,-89 634.4,-100 634.4,-100 634.4,-105.5 628.9,-111 623.4,-111 623.4,-111 610.8,-111 610.8,-111 605.3,-111 599.8,-105.5 599.8,-100 599.8,-100 599.8,-89 599.8,-89 599.8,-83.5 605.3,-78 610.8,-78"/>
<text text-anchor="middle" x="617.1" y="-99" font-family="Times,serif" font-size="10.00" fill="#000000">Vdg</text>
</g>
<g id="clust22" class="cluster">
<title>cluster_20</title>
<path fill="#add8e6" stroke="#add8e6" d="M566.7333,-78C566.7333,-78 577.2667,-78 577.2667,-78 582.5333,-78 587.8,-83.2667 587.8,-88.5333 587.8,-88.5333 587.8,-100.4667 587.8,-100.4667 587.8,-105.7333 582.5333,-111 577.2667,-111 577.2667,-111 566.7333,-111 566.7333,-111 561.4667,-111 556.2,-105.7333 556.2,-100.4667 556.2,-100.4667 556.2,-88.5333 556.2,-88.5333 556.2,-83.2667 561.4667,-78 566.7333,-78"/>
<text text-anchor="middle" x="572" y="-99" font-family="Times,serif" font-size="10.00" fill="#000000">Sdg</text>
</g>
<g id="clust23" class="cluster">
<title>cluster_21</title>
<path fill="#add8e6" stroke="#add8e6" d="M655.9333,-8C655.9333,-8 666.4667,-8 666.4667,-8 671.7333,-8 677,-13.2667 677,-18.5333 677,-18.5333 677,-30.4667 677,-30.4667 677,-35.7333 671.7333,-41 666.4667,-41 666.4667,-41 655.9333,-41 655.9333,-41 650.6667,-41 645.4,-35.7333 645.4,-30.4667 645.4,-30.4667 645.4,-18.5333 645.4,-18.5333 645.4,-13.2667 650.6667,-8 655.9333,-8"/>
<text text-anchor="middle" x="661.2" y="-29" font-family="Times,serif" font-size="10.00" fill="#000000">Sdg</text>
</g>
<g id="clust24" class="cluster">
<title>cluster_22</title>
<path fill="#add8e6" stroke="#add8e6" d="M612,-28C612,-28 622.2,-28 622.2,-28 627.3,-28 632.4,-33.1 632.4,-38.2 632.4,-38.2 632.4,-65.8 632.4,-65.8 632.4,-70.9 627.3,-76 622.2,-76 622.2,-76 612,-76 612,-76 606.9,-76 601.8,-70.9 601.8,-65.8 601.8,-65.8 601.8,-38.2 601.8,-38.2 601.8,-33.1 606.9,-28 612,-28"/>
<text text-anchor="middle" x="617.1" y="-64" font-family="Times,serif" font-size="10.00" fill="#000000">CX</text>
</g>
<g id="clust25" class="cluster">
<title>cluster_23</title>
<path fill="#add8e6" stroke="#add8e6" d="M568.4,-45C568.4,-45 575.6,-45 575.6,-45 579.2,-45 582.8,-48.6 582.8,-52.2 582.8,-52.2 582.8,-70.8 582.8,-70.8 582.8,-74.4 579.2,-78 575.6,-78 575.6,-78 568.4,-78 568.4,-78 564.8,-78 561.2,-74.4 561.2,-70.8 561.2,-70.8 561.2,-52.2 561.2,-52.2 561.2,-48.6 564.8,-45 568.4,-45"/>
<text text-anchor="middle" x="572" y="-66" font-family="Times,serif" font-size="10.00" fill="#000000">S</text>
</g>
<g id="clust26" class="cluster">
<title>cluster_24</title>
<path fill="#add8e6" stroke="#add8e6" d="M523.8,-54C523.8,-54 534,-54 534,-54 539.1,-54 544.2,-59.1 544.2,-64.2 544.2,-64.2 544.2,-91.8 544.2,-91.8 544.2,-96.9 539.1,-102 534,-102 534,-102 523.8,-102 523.8,-102 518.7,-102 513.6,-96.9 513.6,-91.8 513.6,-91.8 513.6,-64.2 513.6,-64.2 513.6,-59.1 518.7,-54 523.8,-54"/>
<text text-anchor="middle" x="528.9" y="-90" font-family="Times,serif" font-size="10.00" fill="#000000">CX</text>
</g>
<g id="clust27" class="cluster">
<title>cluster_28</title>
<path fill="#add8e6" stroke="#add8e6" d="M657.2667,-78C657.2667,-78 665.1333,-78 665.1333,-78 669.0667,-78 673,-81.9333 673,-85.8667 673,-85.8667 673,-103.1333 673,-103.1333 673,-107.0667 669.0667,-111 665.1333,-111 665.1333,-111 657.2667,-111 657.2667,-111 653.3333,-111 649.4,-107.0667 649.4,-103.1333 649.4,-103.1333 649.4,-85.8667 649.4,-85.8667 649.4,-81.9333 653.3333,-78 657.2667,-78"/>
<text text-anchor="middle" x="661.2" y="-99" font-family="Times,serif" font-size="10.00" fill="#000000">V</text>
</g>
<g id="clust28" class="cluster">
<title>cluster_29</title>
<path fill="#add8e6" stroke="#add8e6" d="M696.8667,-41C696.8667,-41 704.7333,-41 704.7333,-41 708.6667,-41 712.6,-44.9333 712.6,-48.8667 712.6,-48.8667 712.6,-66.1333 712.6,-66.1333 712.6,-70.0667 708.6667,-74 704.7333,-74 704.7333,-74 696.8667,-74 696.8667,-74 692.9333,-74 689,-70.0667 689,-66.1333 689,-66.1333 689,-48.8667 689,-48.8667 689,-44.9333 692.9333,-41 696.8667,-41"/>
<text text-anchor="middle" x="700.8" y="-62" font-family="Times,serif" font-size="10.00" fill="#000000">V</text>
</g>
<g id="clust29" class="cluster">
<title>cluster_30</title>
<path fill="#add8e6" stroke="#add8e6" d="M696.8667,-8C696.8667,-8 704.7333,-8 704.7333,-8 708.6667,-8 712.6,-11.9333 712.6,-15.8667 712.6,-15.8667 712.6,-33.1333 712.6,-33.1333 712.6,-37.0667 708.6667,-41 704.7333,-41 704.7333,-41 696.8667,-41 696.8667,-41 692.9333,-41 689,-37.0667 689,-33.1333 689,-33.1333 689,-15.8667 689,-15.8667 689,-11.9333 692.9333,-8 696.8667,-8"/>
<text text-anchor="middle" x="700.8" y="-29" font-family="Times,serif" font-size="10.00" fill="#000000">V</text>
</g>
<g id="clust30" class="cluster">
<title>cluster_31</title>
<path fill="#add8e6" stroke="#add8e6" d="M697.2,-78C697.2,-78 704.4,-78 704.4,-78 708,-78 711.6,-81.6 711.6,-85.2 711.6,-85.2 711.6,-103.8 711.6,-103.8 711.6,-107.4 708,-111 704.4,-111 704.4,-111 697.2,-111 697.2,-111 693.6,-111 690,-107.4 690,-103.8 690,-103.8 690,-85.2 690,-85.2 690,-81.6 693.6,-78 697.2,-78"/>
<text text-anchor="middle" x="700.8" y="-99" font-family="Times,serif" font-size="10.00" fill="#000000">S</text>
</g>
<g id="clust31" class="cluster">
<title>cluster_32</title>
<path fill="#add8e6" stroke="#add8e6" d="M731.8,-41C731.8,-41 739,-41 739,-41 742.6,-41 746.2,-44.6 746.2,-48.2 746.2,-48.2 746.2,-66.8 746.2,-66.8 746.2,-70.4 742.6,-74 739,-74 739,-74 731.8,-74 731.8,-74 728.2,-74 724.6,-70.4 724.6,-66.8 724.6,-66.8 724.6,-48.2 724.6,-48.2 724.6,-44.6 728.2,-41 731.8,-41"/>
<text text-anchor="middle" x="735.4" y="-62" font-family="Times,serif" font-size="10.00" fill="#000000">S</text>
</g>
<g id="clust32" class="cluster">
<title>cluster_33</title>
<path fill="#add8e6" stroke="#add8e6" d="M731.8,-8C731.8,-8 739,-8 739,-8 742.6,-8 746.2,-11.6 746.2,-15.2 746.2,-15.2 746.2,-33.8 746.2,-33.8 746.2,-37.4 742.6,-41 739,-41 739,-41 731.8,-41 731.8,-41 728.2,-41 724.6,-37.4 724.6,-33.8 724.6,-33.8 724.6,-15.2 724.6,-15.2 724.6,-11.6 728.2,-8 731.8,-8"/>
<text text-anchor="middle" x="735.4" y="-29" font-family="Times,serif" font-size="10.00" fill="#000000">S</text>
</g>
<g id="clust33" class="cluster">
<title>cluster_34</title>
<path fill="#add8e6" stroke="#add8e6" d="M731.4667,-78C731.4667,-78 739.3333,-78 739.3333,-78 743.2667,-78 747.2,-81.9333 747.2,-85.8667 747.2,-85.8667 747.2,-103.1333 747.2,-103.1333 747.2,-107.0667 743.2667,-111 739.3333,-111 739.3333,-111 731.4667,-111 731.4667,-111 727.5333,-111 723.6,-107.0667 723.6,-103.1333 723.6,-103.1333 723.6,-85.8667 723.6,-85.8667 723.6,-81.9333 727.5333,-78 731.4667,-78"/>
<text text-anchor="middle" x="735.4" y="-99" font-family="Times,serif" font-size="10.00" fill="#000000">H</text>
</g>
<g id="clust34" class="cluster">
<title>cluster_35</title>
<path fill="#add8e6" stroke="#add8e6" d="M767.0667,-41C767.0667,-41 774.9333,-41 774.9333,-41 778.8667,-41 782.8,-44.9333 782.8,-48.8667 782.8,-48.8667 782.8,-66.1333 782.8,-66.1333 782.8,-70.0667 778.8667,-74 774.9333,-74 774.9333,-74 767.0667,-74 767.0667,-74 763.1333,-74 759.2,-70.0667 759.2,-66.1333 759.2,-66.1333 759.2,-48.8667 759.2,-48.8667 759.2,-44.9333 763.1333,-41 767.0667,-41"/>
<text text-anchor="middle" x="771" y="-62" font-family="Times,serif" font-size="10.00" fill="#000000">H</text>
</g>
<g id="clust35" class="cluster">
<title>cluster_36</title>
<path fill="#add8e6" stroke="#add8e6" d="M767.0667,-8C767.0667,-8 774.9333,-8 774.9333,-8 778.8667,-8 782.8,-11.9333 782.8,-15.8667 782.8,-15.8667 782.8,-33.1333 782.8,-33.1333 782.8,-37.0667 778.8667,-41 774.9333,-41 774.9333,-41 767.0667,-41 767.0667,-41 763.1333,-41 759.2,-37.0667 759.2,-33.1333 759.2,-33.1333 759.2,-15.8667 759.2,-15.8667 759.2,-11.9333 763.1333,-8 767.0667,-8"/>
<text text-anchor="middle" x="771" y="-29" font-family="Times,serif" font-size="10.00" fill="#000000">H</text>
</g>
<g id="clust36" class="cluster">
<title>cluster_37</title>
<path fill="#add8e6" stroke="#add8e6" d="M767.4,-78C767.4,-78 774.6,-78 774.6,-78 778.2,-78 781.8,-81.6 781.8,-85.2 781.8,-85.2 781.8,-103.8 781.8,-103.8 781.8,-107.4 778.2,-111 774.6,-111 774.6,-111 767.4,-111 767.4,-111 763.8,-111 760.2,-107.4 760.2,-103.8 760.2,-103.8 760.2,-85.2 760.2,-85.2 760.2,-81.6 763.8,-78 767.4,-78"/>
<text text-anchor="middle" x="771" y="-99" font-family="Times,serif" font-size="10.00" fill="#000000">S</text>
</g>
<g id="clust37" class="cluster">
<title>cluster_38</title>
<path fill="#add8e6" stroke="#add8e6" d="M802,-41C802,-41 809.2,-41 809.2,-41 812.8,-41 816.4,-44.6 816.4,-48.2 816.4,-48.2 816.4,-66.8 816.4,-66.8 816.4,-70.4 812.8,-74 809.2,-74 809.2,-74 802,-74 802,-74 798.4,-74 794.8,-70.4 794.8,-66.8 794.8,-66.8 794.8,-48.2 794.8,-48.2 794.8,-44.6 798.4,-41 802,-41"/>
<text text-anchor="middle" x="805.6" y="-62" font-family="Times,serif" font-size="10.00" fill="#000000">S</text>
</g>
<g id="clust38" class="cluster">
<title>cluster_39</title>
<path fill="#add8e6" stroke="#add8e6" d="M802,-8C802,-8 809.2,-8 809.2,-8 812.8,-8 816.4,-11.6 816.4,-15.2 816.4,-15.2 816.4,-33.8 816.4,-33.8 816.4,-37.4 812.8,-41 809.2,-41 809.2,-41 802,-41 802,-41 798.4,-41 794.8,-37.4 794.8,-33.8 794.8,-33.8 794.8,-15.2 794.8,-15.2 794.8,-11.6 798.4,-8 802,-8"/>
<text text-anchor="middle" x="805.6" y="-29" font-family="Times,serif" font-size="10.00" fill="#000000">S</text>
</g>
<!-- (0, 0) -->
<g id="node1" class="node">
<title>(0, 0)</title>
<ellipse fill="#0000ff" stroke="#0000ff" cx="20.8" cy="-63" rx="1.8" ry="1.8"/>
<text text-anchor="middle" x="9.5" y="-54.8" font-family="Courier,monospace" font-size="8.00" fill="#000000">q[0]</text>
</g>
<!-- (6, 0) -->
<g id="node10" class="node">
<title>(6, 0)</title>
<ellipse fill="#000000" stroke="#000000" cx="197.2" cy="-85" rx="1.8" ry="1.8"/>
</g>
<!-- (0, 0)&#45;&gt;(6, 0) -->
<g id="edge1" class="edge">
<title>(0, 0)&#45;&gt;(6, 0)</title>
<path fill="none" stroke="#0000ff" d="M22.4124,-64.4422C25.4915,-67.0957 32.533,-72.6915 39.6,-75 97.724,-93.987 174.192,-87.4806 192.9237,-85.4899"/>
<polygon fill="#0000ff" stroke="#0000ff" points="195.2594,-85.2325 193.3947,-86.5699 194.2654,-85.3421 193.2714,-85.4516 193.2714,-85.4516 193.2714,-85.4516 194.2654,-85.3421 193.1482,-84.3334 195.2594,-85.2325 195.2594,-85.2325"/>
</g>
<!-- (1, 0) -->
<g id="node2" class="node">
<title>(1, 0)</title>
<ellipse fill="#0000ff" stroke="#0000ff" cx="20.8" cy="-48" rx="1.8" ry="1.8"/>
<text text-anchor="middle" x="9.5" y="-39.8" font-family="Courier,monospace" font-size="8.00" fill="#000000">q[1]</text>
</g>
<!-- (3, 0) -->
<g id="node7" class="node">
<title>(3, 0)</title>
<ellipse fill="#000000" stroke="#000000" cx="51.4" cy="-48" rx="1.8" ry="1.8"/>
</g>
<!-- (1, 0)&#45;&gt;(3, 0) -->
<g id="edge2" class="edge">
<title>(1, 0)&#45;&gt;(3, 0)</title>
<path fill="none" stroke="#0000ff" d="M22.8078,-48C27.734,-48 40.5028,-48 47.1843,-48"/>
<polygon fill="#0000ff" stroke="#0000ff" points="49.3447,-48 47.3448,-49.1251 48.3447,-48 47.3447,-48.0001 47.3447,-48.0001 47.3447,-48.0001 48.3447,-48 47.3447,-46.8751 49.3447,-48 49.3447,-48"/>
</g>
<!-- (2, 0) -->
<g id="node3" class="node">
<title>(2, 0)</title>
<ellipse fill="#0000ff" stroke="#0000ff" cx="20.8" cy="-33" rx="1.8" ry="1.8"/>
<text text-anchor="middle" x="9.5" y="-24.8" font-family="Courier,monospace" font-size="8.00" fill="#000000">q[2]</text>
</g>
<!-- (10, 0) -->
<g id="node14" class="node">
<title>(10, 0)</title>
<ellipse fill="#000000" stroke="#000000" cx="197.2" cy="-17" rx="1.8" ry="1.8"/>
</g>
<!-- (2, 0)&#45;&gt;(10, 0) -->
<g id="edge3" class="edge">
<title>(2, 0)&#45;&gt;(10, 0)</title>
<path fill="none" stroke="#0000ff" d="M22.7811,-32.8203C40.3086,-31.2305 168.8018,-19.5758 193.2046,-17.3624"/>
<polygon fill="#0000ff" stroke="#0000ff" points="195.2341,-17.1783 193.3439,-18.4795 194.2381,-17.2687 193.2422,-17.3591 193.2422,-17.3591 193.2422,-17.3591 194.2381,-17.2687 193.1406,-16.2387 195.2341,-17.1783 195.2341,-17.1783"/>
</g>
<!-- (25, 0) -->
<g id="node4" class="node">
<title>(25, 0)</title>
<ellipse fill="#0000ff" stroke="#0000ff" cx="835.2" cy="-63" rx="1.8" ry="1.8"/>
<text text-anchor="middle" x="823.9" y="-54.8" font-family="Courier,monospace" font-size="8.00" fill="#000000">q[0]</text>
</g>
<!-- (26, 0) -->
<g id="node5" class="node">
<title>(26, 0)</title>
<ellipse fill="#0000ff" stroke="#0000ff" cx="835.2" cy="-48" rx="1.8" ry="1.8"/>
<text text-anchor="middle" x="823.9" y="-39.8" font-family="Courier,monospace" font-size="8.00" fill="#000000">q[1]</text>
</g>
<!-- (27, 0) -->
<g id="node6" class="node">
<title>(27, 0)</title>
<ellipse fill="#0000ff" stroke="#0000ff" cx="835.2" cy="-33" rx="1.8" ry="1.8"/>
<text text-anchor="middle" x="823.9" y="-24.8" font-family="Courier,monospace" font-size="8.00" fill="#000000">q[2]</text>
</g>
<!-- (4, 0) -->
<g id="node8" class="node">
<title>(4, 0)</title>
<ellipse fill="#000000" stroke="#000000" cx="101" cy="-48" rx="1.8" ry="1.8"/>
</g>
<!-- (3, 0)&#45;&gt;(4, 0) -->
<g id="edge4" class="edge">
<title>(3, 0)&#45;&gt;(4, 0)</title>
<path fill="none" stroke="#0000ff" d="M53.5313,-48C61.0525,-48 86.4498,-48 96.6783,-48"/>
<polygon fill="#0000ff" stroke="#0000ff" points="98.9319,-48 96.9319,-49.1251 97.9319,-48 96.9319,-48.0001 96.9319,-48.0001 96.9319,-48.0001 97.9319,-48 96.9318,-46.8751 98.9319,-48 98.9319,-48"/>
</g>
<!-- (5, 0) -->
<g id="node9" class="node">
<title>(5, 0)</title>
<ellipse fill="#000000" stroke="#000000" cx="150.6" cy="-48" rx="1.8" ry="1.8"/>
</g>
<!-- (4, 0)&#45;&gt;(5, 0) -->
<g id="edge5" class="edge">
<title>(4, 0)&#45;&gt;(5, 0)</title>
<path fill="none" stroke="#0000ff" d="M103.1313,-48C110.6525,-48 136.0498,-48 146.2783,-48"/>
<polygon fill="#0000ff" stroke="#0000ff" points="148.5319,-48 146.5319,-49.1251 147.5319,-48 146.5319,-48.0001 146.5319,-48.0001 146.5319,-48.0001 147.5319,-48 146.5318,-46.8751 148.5319,-48 148.5319,-48"/>
</g>
<!-- (7, 0) -->
<g id="node11" class="node">
<title>(7, 0)</title>
<ellipse fill="#000000" stroke="#000000" cx="197.2" cy="-50" rx="1.8" ry="1.8"/>
</g>
<!-- (5, 0)&#45;&gt;(7, 0) -->
<g id="edge6" class="edge">
<title>(5, 0)&#45;&gt;(7, 0)</title>
<path fill="none" stroke="#0000ff" d="M152.6023,-48.0859C159.6687,-48.3892 183.5298,-49.4133 193.1397,-49.8257"/>
<polygon fill="#0000ff" stroke="#0000ff" points="195.257,-49.9166 193.2105,-50.9547 194.2579,-49.8737 193.2588,-49.8308 193.2588,-49.8308 193.2588,-49.8308 194.2579,-49.8737 193.3071,-48.7068 195.257,-49.9166 195.257,-49.9166"/>
</g>
<!-- (8, 0) -->
<g id="node12" class="node">
<title>(8, 0)</title>
<ellipse fill="#000000" stroke="#000000" cx="246.8" cy="-85" rx="1.8" ry="1.8"/>
</g>
<!-- (6, 0)&#45;&gt;(8, 0) -->
<g id="edge7" class="edge">
<title>(6, 0)&#45;&gt;(8, 0)</title>
<path fill="none" stroke="#0000ff" d="M199.3313,-85C206.8525,-85 232.2498,-85 242.4783,-85"/>
<polygon fill="#0000ff" stroke="#0000ff" points="244.7319,-85 242.7319,-86.1251 243.7319,-85 242.7319,-85.0001 242.7319,-85.0001 242.7319,-85.0001 243.7319,-85 242.7318,-83.8751 244.7319,-85 244.7319,-85"/>
</g>
<!-- (11, 0) -->
<g id="node15" class="node">
<title>(11, 0)</title>
<ellipse fill="#000000" stroke="#000000" cx="246.8" cy="-42" rx="1.8" ry="1.8"/>
<text text-anchor="middle" x="242.5" y="-33.8" font-family="Helvetica,sans-Serif" font-size="8.00" fill="#000000">0</text>
</g>
<!-- (7, 0)&#45;&gt;(11, 0) -->
<g id="edge8" class="edge">
<title>(7, 0)&#45;&gt;(11, 0)</title>
<path fill="none" stroke="#0000ff" d="M199.3313,-49.6563C206.9163,-48.4329 232.6815,-44.2772 242.7351,-42.6556"/>
<polygon fill="#0000ff" stroke="#0000ff" points="244.7319,-42.3336 242.9366,-43.7628 243.7447,-42.4928 242.7574,-42.6521 242.7574,-42.6521 242.7574,-42.6521 243.7447,-42.4928 242.5782,-41.5415 244.7319,-42.3336 244.7319,-42.3336"/>
</g>
<!-- (9, 0) -->
<g id="node13" class="node">
<title>(9, 0)</title>
<ellipse fill="#000000" stroke="#000000" cx="290.4" cy="-85" rx="1.8" ry="1.8"/>
</g>
<!-- (8, 0)&#45;&gt;(9, 0) -->
<g id="edge9" class="edge">
<title>(8, 0)&#45;&gt;(9, 0)</title>
<path fill="none" stroke="#0000ff" d="M248.6734,-85C255.1728,-85 276.8576,-85 286.1326,-85"/>
<polygon fill="#0000ff" stroke="#0000ff" points="288.5821,-85 286.5821,-86.1251 287.5821,-85 286.5821,-85.0001 286.5821,-85.0001 286.5821,-85.0001 287.5821,-85 286.582,-83.8751 288.5821,-85 288.5821,-85"/>
</g>
<!-- (13, 1) -->
<g id="node19" class="node">
<title>(13, 1)</title>
<ellipse fill="#000000" stroke="#000000" cx="333" cy="-76" rx="1.8" ry="1.8"/>
<text text-anchor="middle" x="328.7" y="-67.8" font-family="Helvetica,sans-Serif" font-size="8.00" fill="#000000">1</text>
</g>
<!-- (9, 0)&#45;&gt;(13, 1) -->
<g id="edge10" class="edge">
<title>(9, 0)&#45;&gt;(13, 1)</title>
<path fill="none" stroke="#0000ff" d="M292.2305,-84.6133C298.5808,-83.2717 319.7682,-78.7954 328.8305,-76.8809"/>
<polygon fill="#0000ff" stroke="#0000ff" points="331.2238,-76.3753 329.4995,-77.8894 330.2454,-76.582 329.267,-76.7887 329.267,-76.7887 329.267,-76.7887 330.2454,-76.582 329.0344,-75.688 331.2238,-76.3753 331.2238,-76.3753"/>
</g>
<!-- (11, 1) -->
<g id="node16" class="node">
<title>(11, 1)</title>
<ellipse fill="#000000" stroke="#000000" cx="246.8" cy="-27" rx="1.8" ry="1.8"/>
<text text-anchor="middle" x="242.5" y="-18.8" font-family="Helvetica,sans-Serif" font-size="8.00" fill="#000000">1</text>
</g>
<!-- (10, 0)&#45;&gt;(11, 1) -->
<g id="edge11" class="edge">
<title>(10, 0)&#45;&gt;(11, 1)</title>
<path fill="none" stroke="#0000ff" d="M199.3313,-17.4297C206.9163,-18.9589 232.6815,-24.1535 242.7351,-26.1805"/>
<polygon fill="#0000ff" stroke="#0000ff" points="244.7319,-26.583 242.549,-27.2905 243.7516,-26.3854 242.7713,-26.1877 242.7713,-26.1877 242.7713,-26.1877 243.7516,-26.3854 242.9937,-25.0849 244.7319,-26.583 244.7319,-26.583"/>
</g>
<!-- (22, 0) -->
<g id="node28" class="node">
<title>(22, 0)</title>
<ellipse fill="#000000" stroke="#000000" cx="616.6" cy="-35" rx="1.8" ry="1.8"/>
<text text-anchor="middle" x="612.3" y="-26.8" font-family="Helvetica,sans-Serif" font-size="8.00" fill="#000000">0</text>
</g>
<!-- (11, 0)&#45;&gt;(22, 0) -->
<g id="edge13" class="edge">
<title>(11, 0)&#45;&gt;(22, 0)</title>
<path fill="none" stroke="#0000ff" d="M248.924,-41.6133C258.577,-39.8906 299.2956,-33 333,-33 333,-33 333,-33 528.4,-33 560.5645,-33 599.31,-34.3458 612.1957,-34.8295"/>
<polygon fill="#0000ff" stroke="#0000ff" points="614.4184,-34.9141 612.377,-35.9621 613.4191,-34.876 612.4198,-34.8379 612.4198,-34.8379 612.4198,-34.8379 613.4191,-34.876 612.4627,-33.7137 614.4184,-34.9141 614.4184,-34.9141"/>
</g>
<!-- (12, 0) -->
<g id="node17" class="node">
<title>(12, 0)</title>
<ellipse fill="#000000" stroke="#000000" cx="290.4" cy="-52" rx="1.8" ry="1.8"/>
</g>
<!-- (11, 1)&#45;&gt;(12, 0) -->
<g id="edge12" class="edge">
<title>(11, 1)&#45;&gt;(12, 0)</title>
<path fill="none" stroke="#0000ff" d="M248.6739,-27.8885C251.6585,-29.3171 257.6592,-32.2443 262.6,-35 271.4192,-39.9189 281.4556,-46.2433 286.724,-49.6217"/>
<polygon fill="#0000ff" stroke="#0000ff" points="288.6725,-50.8765 286.3819,-50.7395 287.8318,-50.3351 286.991,-49.7936 286.991,-49.7936 286.991,-49.7936 287.8318,-50.3351 287.6001,-48.8478 288.6725,-50.8765 288.6725,-50.8765"/>
</g>
<!-- (13, 0) -->
<g id="node18" class="node">
<title>(13, 0)</title>
<ellipse fill="#000000" stroke="#000000" cx="333" cy="-61" rx="1.8" ry="1.8"/>
<text text-anchor="middle" x="328.7" y="-52.8" font-family="Helvetica,sans-Serif" font-size="8.00" fill="#000000">0</text>
</g>
<!-- (12, 0)&#45;&gt;(13, 0) -->
<g id="edge14" class="edge">
<title>(12, 0)&#45;&gt;(13, 0)</title>
<path fill="none" stroke="#0000ff" d="M292.2305,-52.3867C298.5808,-53.7283 319.7682,-58.2046 328.8305,-60.1191"/>
<polygon fill="#0000ff" stroke="#0000ff" points="331.2238,-60.6247 329.0344,-61.312 330.2454,-60.418 329.267,-60.2113 329.267,-60.2113 329.267,-60.2113 330.2454,-60.418 329.4995,-59.1106 331.2238,-60.6247 331.2238,-60.6247"/>
</g>
<!-- (15, 0) -->
<g id="node21" class="node">
<title>(15, 0)</title>
<ellipse fill="#000000" stroke="#000000" cx="383.6" cy="-53" rx="1.8" ry="1.8"/>
</g>
<!-- (13, 0)&#45;&gt;(15, 0) -->
<g id="edge15" class="edge">
<title>(13, 0)&#45;&gt;(15, 0)</title>
<path fill="none" stroke="#0000ff" d="M335.1742,-60.6563C342.9122,-59.4329 369.1969,-55.2772 379.4531,-53.6556"/>
<polygon fill="#0000ff" stroke="#0000ff" points="381.4902,-53.3336 379.6905,-54.7572 380.5025,-53.4898 379.5147,-53.646 379.5147,-53.646 379.5147,-53.646 380.5025,-53.4898 379.339,-52.5348 381.4902,-53.3336 381.4902,-53.3336"/>
</g>
<!-- (14, 0) -->
<g id="node20" class="node">
<title>(14, 0)</title>
<ellipse fill="#000000" stroke="#000000" cx="383.6" cy="-88" rx="1.8" ry="1.8"/>
</g>
<!-- (13, 1)&#45;&gt;(14, 0) -->
<g id="edge16" class="edge">
<title>(13, 1)&#45;&gt;(14, 0)</title>
<path fill="none" stroke="#0000ff" d="M335.1742,-76.5156C342.9122,-78.3507 369.1969,-84.5842 379.4531,-87.0166"/>
<polygon fill="#0000ff" stroke="#0000ff" points="381.4902,-87.4997 379.2845,-88.1327 380.5172,-87.2689 379.5442,-87.0381 379.5442,-87.0381 379.5442,-87.0381 380.5172,-87.2689 379.8038,-85.9434 381.4902,-87.4997 381.4902,-87.4997"/>
</g>
<!-- (24, 1) -->
<g id="node32" class="node">
<title>(24, 1)</title>
<ellipse fill="#000000" stroke="#000000" cx="528.4" cy="-76" rx="1.8" ry="1.8"/>
<text text-anchor="middle" x="524.1" y="-67.8" font-family="Helvetica,sans-Serif" font-size="8.00" fill="#000000">1</text>
</g>
<!-- (14, 0)&#45;&gt;(24, 1) -->
<g id="edge17" class="edge">
<title>(14, 0)&#45;&gt;(24, 1)</title>
<path fill="none" stroke="#0000ff" d="M385.5484,-87.8773C396.7951,-87.1637 454.5528,-83.426 501.6,-79 509.6115,-78.2463 518.9458,-77.1524 524.2153,-76.5148"/>
<polygon fill="#0000ff" stroke="#0000ff" points="526.4521,-76.242 524.6031,-77.6009 525.4594,-76.3631 524.4668,-76.4842 524.4668,-76.4842 524.4668,-76.4842 525.4594,-76.3631 524.3305,-75.3675 526.4521,-76.242 526.4521,-76.242"/>
</g>
<!-- (16, 0) -->
<g id="node22" class="node">
<title>(16, 0)</title>
<ellipse fill="#000000" stroke="#000000" cx="442.2" cy="-52" rx="1.8" ry="1.8"/>
</g>
<!-- (15, 0)&#45;&gt;(16, 0) -->
<g id="edge18" class="edge">
<title>(15, 0)&#45;&gt;(16, 0)</title>
<path fill="none" stroke="#0000ff" d="M385.5497,-52.9667C393.8907,-52.8244 426.6679,-52.2651 438.178,-52.0686"/>
<polygon fill="#0000ff" stroke="#0000ff" points="440.1829,-52.0344 438.2024,-53.1935 439.183,-52.0515 438.1831,-52.0686 438.1831,-52.0686 438.1831,-52.0686 439.183,-52.0515 438.1639,-50.9438 440.1829,-52.0344 440.1829,-52.0344"/>
</g>
<!-- (17, 0) -->
<g id="node23" class="node">
<title>(17, 0)</title>
<ellipse fill="#000000" stroke="#000000" cx="489.8" cy="-52" rx="1.8" ry="1.8"/>
</g>
<!-- (16, 0)&#45;&gt;(17, 0) -->
<g id="edge19" class="edge">
<title>(16, 0)&#45;&gt;(17, 0)</title>
<path fill="none" stroke="#0000ff" d="M444.2453,-52C451.4633,-52 475.8365,-52 485.6526,-52"/>
<polygon fill="#0000ff" stroke="#0000ff" points="487.8153,-52 485.8153,-53.1251 486.8153,-52 485.8153,-52.0001 485.8153,-52.0001 485.8153,-52.0001 486.8153,-52 485.8152,-50.8751 487.8153,-52 487.8153,-52"/>
</g>
<!-- (24, 0) -->
<g id="node31" class="node">
<title>(24, 0)</title>
<ellipse fill="#000000" stroke="#000000" cx="528.4" cy="-61" rx="1.8" ry="1.8"/>
<text text-anchor="middle" x="524.1" y="-52.8" font-family="Helvetica,sans-Serif" font-size="8.00" fill="#000000">0</text>
</g>
<!-- (17, 0)&#45;&gt;(24, 0) -->
<g id="edge20" class="edge">
<title>(17, 0)&#45;&gt;(24, 0)</title>
<path fill="none" stroke="#0000ff" d="M491.8753,-52.4839C498.006,-53.9133 516.1165,-58.136 524.3017,-60.0444"/>
<polygon fill="#0000ff" stroke="#0000ff" points="526.499,-60.5568 524.2957,-61.1982 525.5251,-60.3297 524.5512,-60.1025 524.5512,-60.1025 524.5512,-60.1025 525.5251,-60.3297 524.8067,-59.0069 526.499,-60.5568 526.499,-60.5568"/>
</g>
<!-- (18, 0) -->
<g id="node24" class="node">
<title>(18, 0)</title>
<ellipse fill="#000000" stroke="#000000" cx="661.2" cy="-48" rx="1.8" ry="1.8"/>
</g>
<!-- (29, 0) -->
<g id="node34" class="node">
<title>(29, 0)</title>
<ellipse fill="#000000" stroke="#000000" cx="700.8" cy="-48" rx="1.8" ry="1.8"/>
</g>
<!-- (18, 0)&#45;&gt;(29, 0) -->
<g id="edge21" class="edge">
<title>(18, 0)&#45;&gt;(29, 0)</title>
<path fill="none" stroke="#0000ff" d="M663.3291,-48C669.6186,-48 688.1983,-48 696.5955,-48"/>
<polygon fill="#0000ff" stroke="#0000ff" points="698.8497,-48 696.8498,-49.1251 697.8497,-48 696.8497,-48.0001 696.8497,-48.0001 696.8497,-48.0001 697.8497,-48 696.8497,-46.8751 698.8497,-48 698.8497,-48"/>
</g>
<!-- (19, 0) -->
<g id="node25" class="node">
<title>(19, 0)</title>
<ellipse fill="#000000" stroke="#000000" cx="616.6" cy="-85" rx="1.8" ry="1.8"/>
</g>
<!-- (28, 0) -->
<g id="node33" class="node">
<title>(28, 0)</title>
<ellipse fill="#000000" stroke="#000000" cx="661.2" cy="-85" rx="1.8" ry="1.8"/>
</g>
<!-- (19, 0)&#45;&gt;(28, 0) -->
<g id="edge22" class="edge">
<title>(19, 0)&#45;&gt;(28, 0)</title>
<path fill="none" stroke="#0000ff" d="M618.5164,-85C625.2795,-85 648.1165,-85 657.314,-85"/>
<polygon fill="#0000ff" stroke="#0000ff" points="659.3404,-85 657.3404,-86.1251 658.3404,-85 657.3404,-85.0001 657.3404,-85.0001 657.3404,-85.0001 658.3404,-85 657.3403,-83.8751 659.3404,-85 659.3404,-85"/>
</g>
<!-- (20, 0) -->
<g id="node26" class="node">
<title>(20, 0)</title>
<ellipse fill="#000000" stroke="#000000" cx="572" cy="-85" rx="1.8" ry="1.8"/>
</g>
<!-- (20, 0)&#45;&gt;(19, 0) -->
<g id="edge23" class="edge">
<title>(20, 0)&#45;&gt;(19, 0)</title>
<path fill="none" stroke="#0000ff" d="M573.9164,-85C580.6795,-85 603.5165,-85 612.714,-85"/>
<polygon fill="#0000ff" stroke="#0000ff" points="614.7404,-85 612.7404,-86.1251 613.7404,-85 612.7404,-85.0001 612.7404,-85.0001 612.7404,-85.0001 613.7404,-85 612.7403,-83.8751 614.7404,-85 614.7404,-85"/>
</g>
<!-- (21, 0) -->
<g id="node27" class="node">
<title>(21, 0)</title>
<ellipse fill="#000000" stroke="#000000" cx="661.2" cy="-15" rx="1.8" ry="1.8"/>
</g>
<!-- (30, 0) -->
<g id="node35" class="node">
<title>(30, 0)</title>
<ellipse fill="#000000" stroke="#000000" cx="700.8" cy="-15" rx="1.8" ry="1.8"/>
</g>
<!-- (21, 0)&#45;&gt;(30, 0) -->
<g id="edge24" class="edge">
<title>(21, 0)&#45;&gt;(30, 0)</title>
<path fill="none" stroke="#0000ff" d="M663.3291,-15C669.6186,-15 688.1983,-15 696.5955,-15"/>
<polygon fill="#0000ff" stroke="#0000ff" points="698.8497,-15 696.8498,-16.1251 697.8497,-15 696.8497,-15.0001 696.8497,-15.0001 696.8497,-15.0001 697.8497,-15 696.8497,-13.8751 698.8497,-15 698.8497,-15"/>
</g>
<!-- (22, 0)&#45;&gt;(18, 0) -->
<g id="edge25" class="edge">
<title>(22, 0)&#45;&gt;(18, 0)</title>
<path fill="none" stroke="#0000ff" d="M618.5164,-35.5586C625.2795,-37.5299 648.1165,-44.1864 657.314,-46.8673"/>
<polygon fill="#0000ff" stroke="#0000ff" points="659.3404,-47.458 657.1054,-47.9783 658.3803,-47.1781 657.4203,-46.8982 657.4203,-46.8982 657.4203,-46.8982 658.3803,-47.1781 657.7351,-45.8182 659.3404,-47.458 659.3404,-47.458"/>
</g>
<!-- (22, 1) -->
<g id="node29" class="node">
<title>(22, 1)</title>
<ellipse fill="#000000" stroke="#000000" cx="616.6" cy="-50" rx="1.8" ry="1.8"/>
<text text-anchor="middle" x="612.3" y="-41.8" font-family="Helvetica,sans-Serif" font-size="8.00" fill="#000000">1</text>
</g>
<!-- (22, 1)&#45;&gt;(21, 0) -->
<g id="edge26" class="edge">
<title>(22, 1)&#45;&gt;(21, 0)</title>
<path fill="none" stroke="#0000ff" d="M618.3786,-49.4445C621.7137,-48.3519 629.0524,-45.7038 634.4,-42 644.4581,-35.0336 653.9931,-24.011 658.4952,-18.4506"/>
<polygon fill="#0000ff" stroke="#0000ff" points="659.9179,-16.6667 659.5504,-18.9319 659.2943,-17.4486 658.6708,-18.2304 658.6708,-18.2304 658.6708,-18.2304 659.2943,-17.4486 657.7913,-17.5289 659.9179,-16.6667 659.9179,-16.6667"/>
</g>
<!-- (23, 0) -->
<g id="node30" class="node">
<title>(23, 0)</title>
<ellipse fill="#000000" stroke="#000000" cx="572" cy="-52" rx="1.8" ry="1.8"/>
</g>
<!-- (23, 0)&#45;&gt;(22, 1) -->
<g id="edge27" class="edge">
<title>(23, 0)&#45;&gt;(22, 1)</title>
<path fill="none" stroke="#0000ff" d="M573.9164,-51.9141C580.6795,-51.6108 603.5165,-50.5867 612.714,-50.1743"/>
<polygon fill="#0000ff" stroke="#0000ff" points="614.7404,-50.0834 612.7928,-51.297 613.7414,-50.1282 612.7424,-50.1731 612.7424,-50.1731 612.7424,-50.1731 613.7414,-50.1282 612.6919,-49.0492 614.7404,-50.0834 614.7404,-50.0834"/>
</g>
<!-- (24, 0)&#45;&gt;(23, 0) -->
<g id="edge28" class="edge">
<title>(24, 0)&#45;&gt;(23, 0)</title>
<path fill="none" stroke="#0000ff" d="M530.2734,-60.6133C536.8849,-59.2485 559.2099,-54.6402 568.2011,-52.7842"/>
<polygon fill="#0000ff" stroke="#0000ff" points="570.1821,-52.3753 568.4508,-53.8814 569.2027,-52.5775 568.2234,-52.7797 568.2234,-52.7797 568.2234,-52.7797 569.2027,-52.5775 567.9959,-51.6779 570.1821,-52.3753 570.1821,-52.3753"/>
</g>
<!-- (24, 1)&#45;&gt;(20, 0) -->
<g id="edge29" class="edge">
<title>(24, 1)&#45;&gt;(20, 0)</title>
<path fill="none" stroke="#0000ff" d="M530.2734,-76.3867C536.8849,-77.7515 559.2099,-82.3598 568.2011,-84.2158"/>
<polygon fill="#0000ff" stroke="#0000ff" points="570.1821,-84.6247 567.9959,-85.3221 569.2027,-84.4225 568.2234,-84.2203 568.2234,-84.2203 568.2234,-84.2203 569.2027,-84.4225 568.4508,-83.1186 570.1821,-84.6247 570.1821,-84.6247"/>
</g>
<!-- (31, 0) -->
<g id="node36" class="node">
<title>(31, 0)</title>
<ellipse fill="#000000" stroke="#000000" cx="700.8" cy="-85" rx="1.8" ry="1.8"/>
</g>
<!-- (28, 0)&#45;&gt;(31, 0) -->
<g id="edge30" class="edge">
<title>(28, 0)&#45;&gt;(31, 0)</title>
<path fill="none" stroke="#0000ff" d="M663.3291,-85C669.6186,-85 688.1983,-85 696.5955,-85"/>
<polygon fill="#0000ff" stroke="#0000ff" points="698.8497,-85 696.8498,-86.1251 697.8497,-85 696.8497,-85.0001 696.8497,-85.0001 696.8497,-85.0001 697.8497,-85 696.8497,-83.8751 698.8497,-85 698.8497,-85"/>
</g>
<!-- (32, 0) -->
<g id="node37" class="node">
<title>(32, 0)</title>
<ellipse fill="#000000" stroke="#000000" cx="735.4" cy="-48" rx="1.8" ry="1.8"/>
</g>
<!-- (29, 0)&#45;&gt;(32, 0) -->
<g id="edge31" class="edge">
<title>(29, 0)&#45;&gt;(32, 0)</title>
<path fill="none" stroke="#0000ff" d="M702.6602,-48C708.0538,-48 723.7919,-48 731.3097,-48"/>
<polygon fill="#0000ff" stroke="#0000ff" points="733.3584,-48 731.3585,-49.1251 732.3584,-48 731.3584,-48.0001 731.3584,-48.0001 731.3584,-48.0001 732.3584,-48 731.3584,-46.8751 733.3584,-48 733.3584,-48"/>
</g>
<!-- (33, 0) -->
<g id="node38" class="node">
<title>(33, 0)</title>
<ellipse fill="#000000" stroke="#000000" cx="735.4" cy="-15" rx="1.8" ry="1.8"/>
</g>
<!-- (30, 0)&#45;&gt;(33, 0) -->
<g id="edge32" class="edge">
<title>(30, 0)&#45;&gt;(33, 0)</title>
<path fill="none" stroke="#0000ff" d="M702.6602,-15C708.0538,-15 723.7919,-15 731.3097,-15"/>
<polygon fill="#0000ff" stroke="#0000ff" points="733.3584,-15 731.3585,-16.1251 732.3584,-15 731.3584,-15.0001 731.3584,-15.0001 731.3584,-15.0001 732.3584,-15 731.3584,-13.8751 733.3584,-15 733.3584,-15"/>
</g>
<!-- (34, 0) -->
<g id="node39" class="node">
<title>(34, 0)</title>
<ellipse fill="#000000" stroke="#000000" cx="735.4" cy="-85" rx="1.8" ry="1.8"/>
</g>
<!-- (31, 0)&#45;&gt;(34, 0) -->
<g id="edge33" class="edge">
<title>(31, 0)&#45;&gt;(34, 0)</title>
<path fill="none" stroke="#0000ff" d="M702.6602,-85C708.0538,-85 723.7919,-85 731.3097,-85"/>
<polygon fill="#0000ff" stroke="#0000ff" points="733.3584,-85 731.3585,-86.1251 732.3584,-85 731.3584,-85.0001 731.3584,-85.0001 731.3584,-85.0001 732.3584,-85 731.3584,-83.8751 733.3584,-85 733.3584,-85"/>
</g>
<!-- (35, 0) -->
<g id="node40" class="node">
<title>(35, 0)</title>
<ellipse fill="#000000" stroke="#000000" cx="771" cy="-48" rx="1.8" ry="1.8"/>
</g>
<!-- (32, 0)&#45;&gt;(35, 0) -->
<g id="edge34" class="edge">
<title>(32, 0)&#45;&gt;(35, 0)</title>
<path fill="none" stroke="#0000ff" d="M737.314,-48C742.8635,-48 759.0564,-48 766.7915,-48"/>
<polygon fill="#0000ff" stroke="#0000ff" points="768.8994,-48 766.8995,-49.1251 767.8994,-48 766.8994,-48.0001 766.8994,-48.0001 766.8994,-48.0001 767.8994,-48 766.8994,-46.8751 768.8994,-48 768.8994,-48"/>
</g>
<!-- (36, 0) -->
<g id="node41" class="node">
<title>(36, 0)</title>
<ellipse fill="#000000" stroke="#000000" cx="771" cy="-15" rx="1.8" ry="1.8"/>
</g>
<!-- (33, 0)&#45;&gt;(36, 0) -->
<g id="edge35" class="edge">
<title>(33, 0)&#45;&gt;(36, 0)</title>
<path fill="none" stroke="#0000ff" d="M737.314,-15C742.8635,-15 759.0564,-15 766.7915,-15"/>
<polygon fill="#0000ff" stroke="#0000ff" points="768.8994,-15 766.8995,-16.1251 767.8994,-15 766.8994,-15.0001 766.8994,-15.0001 766.8994,-15.0001 767.8994,-15 766.8994,-13.8751 768.8994,-15 768.8994,-15"/>
</g>
<!-- (37, 0) -->
<g id="node42" class="node">
<title>(37, 0)</title>
<ellipse fill="#000000" stroke="#000000" cx="771" cy="-85" rx="1.8" ry="1.8"/>
</g>
<!-- (34, 0)&#45;&gt;(37, 0) -->
<g id="edge36" class="edge">
<title>(34, 0)&#45;&gt;(37, 0)</title>
<path fill="none" stroke="#0000ff" d="M737.314,-85C742.8635,-85 759.0564,-85 766.7915,-85"/>
<polygon fill="#0000ff" stroke="#0000ff" points="768.8994,-85 766.8995,-86.1251 767.8994,-85 766.8994,-85.0001 766.8994,-85.0001 766.8994,-85.0001 767.8994,-85 766.8994,-83.8751 768.8994,-85 768.8994,-85"/>
</g>
<!-- (38, 0) -->
<g id="node43" class="node">
<title>(38, 0)</title>
<ellipse fill="#000000" stroke="#000000" cx="805.6" cy="-48" rx="1.8" ry="1.8"/>
</g>
<!-- (35, 0)&#45;&gt;(38, 0) -->
<g id="edge37" class="edge">
<title>(35, 0)&#45;&gt;(38, 0)</title>
<path fill="none" stroke="#0000ff" d="M772.8602,-48C778.2538,-48 793.9919,-48 801.5097,-48"/>
<polygon fill="#0000ff" stroke="#0000ff" points="803.5584,-48 801.5585,-49.1251 802.5584,-48 801.5584,-48.0001 801.5584,-48.0001 801.5584,-48.0001 802.5584,-48 801.5584,-46.8751 803.5584,-48 803.5584,-48"/>
</g>
<!-- (39, 0) -->
<g id="node44" class="node">
<title>(39, 0)</title>
<ellipse fill="#000000" stroke="#000000" cx="805.6" cy="-15" rx="1.8" ry="1.8"/>
</g>
<!-- (36, 0)&#45;&gt;(39, 0) -->
<g id="edge38" class="edge">
<title>(36, 0)&#45;&gt;(39, 0)</title>
<path fill="none" stroke="#0000ff" d="M772.8602,-15C778.2538,-15 793.9919,-15 801.5097,-15"/>
<polygon fill="#0000ff" stroke="#0000ff" points="803.5584,-15 801.5585,-16.1251 802.5584,-15 801.5584,-15.0001 801.5584,-15.0001 801.5584,-15.0001 802.5584,-15 801.5584,-13.8751 803.5584,-15 803.5584,-15"/>
</g>
<!-- (37, 0)&#45;&gt;(25, 0) -->
<g id="edge39" class="edge">
<title>(37, 0)&#45;&gt;(25, 0)</title>
<path fill="none" stroke="#0000ff" d="M772.7991,-84.8322C779.0454,-84.2027 800.2923,-81.6674 816.4,-75 822.1959,-72.6009 828.1849,-68.4328 831.8016,-65.6952"/>
<polygon fill="#0000ff" stroke="#0000ff" points="833.5505,-64.3419 832.6572,-66.4556 832.7596,-64.9539 831.9687,-65.5659 831.9687,-65.5659 831.9687,-65.5659 832.7596,-64.9539 831.2802,-64.6761 833.5505,-64.3419 833.5505,-64.3419"/>
</g>
<!-- (38, 0)&#45;&gt;(26, 0) -->
<g id="edge40" class="edge">
<title>(38, 0)&#45;&gt;(26, 0)</title>
<path fill="none" stroke="#0000ff" d="M807.5421,-48C812.3074,-48 824.659,-48 831.1221,-48"/>
<polygon fill="#0000ff" stroke="#0000ff" points="833.2119,-48 831.212,-49.1251 832.2119,-48 831.2119,-48.0001 831.2119,-48.0001 831.2119,-48.0001 832.2119,-48 831.2118,-46.8751 833.2119,-48 833.2119,-48"/>
</g>
<!-- (39, 0)&#45;&gt;(27, 0) -->
<g id="edge41" class="edge">
<title>(39, 0)&#45;&gt;(27, 0)</title>
<path fill="none" stroke="#0000ff" d="M807.1914,-15.9678C811.8056,-18.7737 825.2693,-26.9611 831.7008,-30.8721"/>
<polygon fill="#0000ff" stroke="#0000ff" points="833.4534,-31.9379 831.16,-31.8599 832.599,-31.4183 831.7446,-30.8987 831.7446,-30.8987 831.7446,-30.8987 832.599,-31.4183 832.3291,-29.9375 833.4534,-31.9379 833.4534,-31.9379"/>
</g>
</g>
</svg>
