<?xml version="1.0" encoding="UTF-8" standalone="no"?>
<!DOCTYPE svg PUBLIC "-//W3C//DTD SVG 1.1//EN"
 "http://www.w3.org/Graphics/SVG/1.1/DTD/svg11.dtd">
<!-- Generated by graphviz version 2.40.1 (20161225.0304)
 -->
<!-- Title: Circuit Pages: 1 -->
<svg width="909pt" height="130pt"
 viewBox="0.00 0.00 909.00 130.00" xmlns="http://www.w3.org/2000/svg" xmlns:xlink="http://www.w3.org/1999/xlink">
<g id="graph0" class="graph" transform="scale(1 1) rotate(0) translate(4 126)">
<title>Circuit</title>
<polygon fill="#ffffff" stroke="transparent" points="-4,4 -4,-126 905,-126 905,4 -4,4"/>
<g id="clust1" class="cluster">
<title>cluster_q_inputs</title>
<path fill="#d3d3d3" stroke="#d3d3d3" d="M18.5333,-26C18.5333,-26 23.0667,-26 23.0667,-26 25.3333,-26 27.6,-28.2667 27.6,-30.5333 27.6,-30.5333 27.6,-65.4667 27.6,-65.4667 27.6,-67.7333 25.3333,-70 23.0667,-70 23.0667,-70 18.5333,-70 18.5333,-70 16.2667,-70 14,-67.7333 14,-65.4667 14,-65.4667 14,-30.5333 14,-30.5333 14,-28.2667 16.2667,-26 18.5333,-26"/>
</g>
<g id="clust3" class="cluster">
<title>cluster_q_outputs</title>
<path fill="#d3d3d3" stroke="#d3d3d3" d="M883.9333,-26C883.9333,-26 888.4667,-26 888.4667,-26 890.7333,-26 893,-28.2667 893,-30.5333 893,-30.5333 893,-65.4667 893,-65.4667 893,-67.7333 890.7333,-70 888.4667,-70 888.4667,-70 883.9333,-70 883.9333,-70 881.6667,-70 879.4,-67.7333 879.4,-65.4667 879.4,-65.4667 879.4,-30.5333 879.4,-30.5333 879.4,-28.2667 881.6667,-26 883.9333,-26"/>
</g>
<g id="clust5" class="cluster">
<title>cluster_3</title>
<path fill="#add8e6" stroke="#add8e6" d="M47.4667,-41C47.4667,-41 55.3333,-41 55.3333,-41 59.2667,-41 63.2,-44.9333 63.2,-48.8667 63.2,-48.8667 63.2,-66.1333 63.2,-66.1333 63.2,-70.0667 59.2667,-74 55.3333,-74 55.3333,-74 47.4667,-74 47.4667,-74 43.5333,-74 39.6,-70.0667 39.6,-66.1333 39.6,-66.1333 39.6,-48.8667 39.6,-48.8667 39.6,-44.9333 43.5333,-41 47.4667,-41"/>
<text text-anchor="middle" x="51.4" y="-62" font-family="Times,serif" font-size="10.00" fill="#000000">H</text>
</g>
<g id="clust6" class="cluster">
<title>cluster_4</title>
<path fill="#add8e6" stroke="#add8e6" d="M86.2,-41C86.2,-41 128.8,-41 128.8,-41 134.3,-41 139.8,-46.5 139.8,-52 139.8,-52 139.8,-63 139.8,-63 139.8,-68.5 134.3,-74 128.8,-74 128.8,-74 86.2,-74 86.2,-74 80.7,-74 75.2,-68.5 75.2,-63 75.2,-63 75.2,-52 75.2,-52 75.2,-46.5 80.7,-41 86.2,-41"/>
<text text-anchor="middle" x="107.5" y="-62" font-family="Times,serif" font-size="10.00" fill="#000000">Rz(0.45*PI)</text>
</g>
<g id="clust7" class="cluster">
<title>cluster_5</title>
<path fill="#add8e6" stroke="#add8e6" d="M158.6667,-41C158.6667,-41 166.5333,-41 166.5333,-41 170.4667,-41 174.4,-44.9333 174.4,-48.8667 174.4,-48.8667 174.4,-66.1333 174.4,-66.1333 174.4,-70.0667 170.4667,-74 166.5333,-74 166.5333,-74 158.6667,-74 158.6667,-74 154.7333,-74 150.8,-70.0667 150.8,-66.1333 150.8,-66.1333 150.8,-48.8667 150.8,-48.8667 150.8,-44.9333 154.7333,-41 158.6667,-41"/>
<text text-anchor="middle" x="162.6" y="-62" font-family="Times,serif" font-size="10.00" fill="#000000">H</text>
</g>
<g id="clust8" class="cluster">
<title>cluster_6</title>
<path fill="#add8e6" stroke="#add8e6" d="M197.4,-78C197.4,-78 235,-78 235,-78 240.5,-78 246,-83.5 246,-89 246,-89 246,-100 246,-100 246,-105.5 240.5,-111 235,-111 235,-111 197.4,-111 197.4,-111 191.9,-111 186.4,-105.5 186.4,-100 186.4,-100 186.4,-89 186.4,-89 186.4,-83.5 191.9,-78 197.4,-78"/>
<text text-anchor="middle" x="216.2" y="-99" font-family="Times,serif" font-size="10.00" fill="#000000">Rz(0.2*PI)</text>
</g>
<g id="clust9" class="cluster">
<title>cluster_7</title>
<path fill="#add8e6" stroke="#add8e6" d="M212.2667,-43C212.2667,-43 220.1333,-43 220.1333,-43 224.0667,-43 228,-46.9333 228,-50.8667 228,-50.8667 228,-68.1333 228,-68.1333 228,-72.0667 224.0667,-76 220.1333,-76 220.1333,-76 212.2667,-76 212.2667,-76 208.3333,-76 204.4,-72.0667 204.4,-68.1333 204.4,-68.1333 204.4,-50.8667 204.4,-50.8667 204.4,-46.9333 208.3333,-43 212.2667,-43"/>
<text text-anchor="middle" x="216.2" y="-64" font-family="Times,serif" font-size="10.00" fill="#000000">H</text>
</g>
<g id="clust10" class="cluster">
<title>cluster_8</title>
<path fill="#add8e6" stroke="#add8e6" d="M267.8667,-78C267.8667,-78 275.7333,-78 275.7333,-78 279.6667,-78 283.6,-81.9333 283.6,-85.8667 283.6,-85.8667 283.6,-103.1333 283.6,-103.1333 283.6,-107.0667 279.6667,-111 275.7333,-111 275.7333,-111 267.8667,-111 267.8667,-111 263.9333,-111 260,-107.0667 260,-103.1333 260,-103.1333 260,-85.8667 260,-85.8667 260,-81.9333 263.9333,-78 267.8667,-78"/>
<text text-anchor="middle" x="271.8" y="-99" font-family="Times,serif" font-size="10.00" fill="#000000">V</text>
</g>
<g id="clust11" class="cluster">
<title>cluster_9</title>
<path fill="#add8e6" stroke="#add8e6" d="M311.8,-78C311.8,-78 319,-78 319,-78 322.6,-78 326.2,-81.6 326.2,-85.2 326.2,-85.2 326.2,-103.8 326.2,-103.8 326.2,-107.4 322.6,-111 319,-111 319,-111 311.8,-111 311.8,-111 308.2,-111 304.6,-107.4 304.6,-103.8 304.6,-103.8 304.6,-85.2 304.6,-85.2 304.6,-81.6 308.2,-78 311.8,-78"/>
<text text-anchor="middle" x="315.4" y="-99" font-family="Times,serif" font-size="10.00" fill="#000000">S</text>
</g>
<g id="clust12" class="cluster">
<title>cluster_10</title>
<path fill="#add8e6" stroke="#add8e6" d="M212.6,-10C212.6,-10 219.8,-10 219.8,-10 223.4,-10 227,-13.6 227,-17.2 227,-17.2 227,-35.8 227,-35.8 227,-39.4 223.4,-43 219.8,-43 219.8,-43 212.6,-43 212.6,-43 209,-43 205.4,-39.4 205.4,-35.8 205.4,-35.8 205.4,-17.2 205.4,-17.2 205.4,-13.6 209,-10 212.6,-10"/>
<text text-anchor="middle" x="216.2" y="-31" font-family="Times,serif" font-size="10.00" fill="#000000">S</text>
</g>
<g id="clust13" class="cluster">
<title>cluster_11</title>
<path fill="#add8e6" stroke="#add8e6" d="M267.2,-20C267.2,-20 277.4,-20 277.4,-20 282.5,-20 287.6,-25.1 287.6,-30.2 287.6,-30.2 287.6,-57.8 287.6,-57.8 287.6,-62.9 282.5,-68 277.4,-68 277.4,-68 267.2,-68 267.2,-68 262.1,-68 257,-62.9 257,-57.8 257,-57.8 257,-30.2 257,-30.2 257,-25.1 262.1,-20 267.2,-20"/>
<text text-anchor="middle" x="272.3" y="-56" font-family="Times,serif" font-size="10.00" fill="#000000">CX</text>
</g>
<g id="clust14" class="cluster">
<title>cluster_12</title>
<path fill="#add8e6" stroke="#add8e6" d="M310.1333,-45C310.1333,-45 320.6667,-45 320.6667,-45 325.9333,-45 331.2,-50.2667 331.2,-55.5333 331.2,-55.5333 331.2,-67.4667 331.2,-67.4667 331.2,-72.7333 325.9333,-78 320.6667,-78 320.6667,-78 310.1333,-78 310.1333,-78 304.8667,-78 299.6,-72.7333 299.6,-67.4667 299.6,-67.4667 299.6,-55.5333 299.6,-55.5333 299.6,-50.2667 304.8667,-45 310.1333,-45"/>
<text text-anchor="middle" x="315.4" y="-66" font-family="Times,serif" font-size="10.00" fill="#000000">Sdg</text>
</g>
<g id="clust15" class="cluster">
<title>cluster_13</title>
<path fill="#add8e6" stroke="#add8e6" d="M353.4,-54C353.4,-54 363.6,-54 363.6,-54 368.7,-54 373.8,-59.1 373.8,-64.2 373.8,-64.2 373.8,-91.8 373.8,-91.8 373.8,-96.9 368.7,-102 363.6,-102 363.6,-102 353.4,-102 353.4,-102 348.3,-102 343.2,-96.9 343.2,-91.8 343.2,-91.8 343.2,-64.2 343.2,-64.2 343.2,-59.1 348.3,-54 353.4,-54"/>
<text text-anchor="middle" x="358.5" y="-90" font-family="Times,serif" font-size="10.00" fill="#000000">CX</text>
</g>
<g id="clust16" class="cluster">
<title>cluster_14</title>
<path fill="#add8e6" stroke="#add8e6" d="M396.8,-81C396.8,-81 434.4,-81 434.4,-81 439.9,-81 445.4,-86.5 445.4,-92 445.4,-92 445.4,-103 445.4,-103 445.4,-108.5 439.9,-114 434.4,-114 434.4,-114 396.8,-114 396.8,-114 391.3,-114 385.8,-108.5 385.8,-103 385.8,-103 385.8,-92 385.8,-92 385.8,-86.5 391.3,-81 396.8,-81"/>
<text text-anchor="middle" x="415.6" y="-102" font-family="Times,serif" font-size="10.00" fill="#000000">Rz(3.4*PI)</text>
</g>
<g id="clust17" class="cluster">
<title>cluster_15</title>
<path fill="#add8e6" stroke="#add8e6" d="M411.6667,-46C411.6667,-46 419.5333,-46 419.5333,-46 423.4667,-46 427.4,-49.9333 427.4,-53.8667 427.4,-53.8667 427.4,-71.1333 427.4,-71.1333 427.4,-75.0667 423.4667,-79 419.5333,-79 419.5333,-79 411.6667,-79 411.6667,-79 407.7333,-79 403.8,-75.0667 403.8,-71.1333 403.8,-71.1333 403.8,-53.8667 403.8,-53.8667 403.8,-49.9333 407.7333,-46 411.6667,-46"/>
<text text-anchor="middle" x="415.6" y="-67" font-family="Times,serif" font-size="10.00" fill="#000000">H</text>
</g>
<g id="clust18" class="cluster">
<title>cluster_16</title>
<path fill="#add8e6" stroke="#add8e6" d="M468.4,-45C468.4,-45 506,-45 506,-45 511.5,-45 517,-50.5 517,-56 517,-56 517,-67 517,-67 517,-72.5 511.5,-78 506,-78 506,-78 468.4,-78 468.4,-78 462.9,-78 457.4,-72.5 457.4,-67 457.4,-67 457.4,-56 457.4,-56 457.4,-50.5 462.9,-45 468.4,-45"/>
<text text-anchor="middle" x="487.2" y="-66" font-family="Times,serif" font-size="10.00" fill="#000000">Rz(0.8*PI)</text>
</g>
<g id="clust19" class="cluster">
<title>cluster_17</title>
<path fill="#add8e6" stroke="#add8e6" d="M536.8667,-45C536.8667,-45 544.7333,-45 544.7333,-45 548.6667,-45 552.6,-48.9333 552.6,-52.8667 552.6,-52.8667 552.6,-70.1333 552.6,-70.1333 552.6,-74.0667 548.6667,-78 544.7333,-78 544.7333,-78 536.8667,-78 536.8667,-78 532.9333,-78 529,-74.0667 529,-70.1333 529,-70.1333 529,-52.8667 529,-52.8667 529,-48.9333 532.9333,-45 536.8667,-45"/>
<text text-anchor="middle" x="540.8" y="-66" font-family="Times,serif" font-size="10.00" fill="#000000">H</text>
</g>
<g id="clust20" class="cluster">
<title>cluster_18</title>
<path fill="#add8e6" stroke="#add8e6" d="M708.2667,-41C708.2667,-41 716.1333,-41 716.1333,-41 720.0667,-41 724,-44.9333 724,-48.8667 724,-48.8667 724,-66.1333 724,-66.1333 724,-70.0667 720.0667,-74 716.1333,-74 716.1333,-74 708.2667,-74 708.2667,-74 704.3333,-74 700.4,-70.0667 700.4,-66.1333 700.4,-66.1333 700.4,-48.8667 700.4,-48.8667 700.4,-44.9333 704.3333,-41 708.2667,-41"/>
<text text-anchor="middle" x="712.2" y="-62" font-family="Times,serif" font-size="10.00" fill="#000000">H</text>
</g>
<g id="clust21" class="cluster">
<title>cluster_19</title>
<path fill="#add8e6" stroke="#add8e6" d="M661.8,-78C661.8,-78 674.4,-78 674.4,-78 679.9,-78 685.4,-83.5 685.4,-89 685.4,-89 685.4,-100 685.4,-100 685.4,-105.5 679.9,-111 674.4,-111 674.4,-111 661.8,-111 661.8,-111 656.3,-111 650.8,-105.5 650.8,-100 650.8,-100 650.8,-89 650.8,-89 650.8,-83.5 656.3,-78 661.8,-78"/>
<text text-anchor="middle" x="668.1" y="-99" font-family="Times,serif" font-size="10.00" fill="#000000">Vdg</text>
</g>
<g id="clust22" class="cluster">
<title>cluster_20</title>
<path fill="#add8e6" stroke="#add8e6" d="M617.7333,-78C617.7333,-78 628.2667,-78 628.2667,-78 633.5333,-78 638.8,-83.2667 638.8,-88.5333 638.8,-88.5333 638.8,-100.4667 638.8,-100.4667 638.8,-105.7333 633.5333,-111 628.2667,-111 628.2667,-111 617.7333,-111 617.7333,-111 612.4667,-111 607.2,-105.7333 607.2,-100.4667 607.2,-100.4667 607.2,-88.5333 607.2,-88.5333 607.2,-83.2667 612.4667,-78 617.7333,-78"/>
<text text-anchor="middle" x="623" y="-99" font-family="Times,serif" font-size="10.00" fill="#000000">Sdg</text>
</g>
<g id="clust23" class="cluster">
<title>cluster_21</title>
<path fill="#add8e6" stroke="#add8e6" d="M706.9333,-8C706.9333,-8 717.4667,-8 717.4667,-8 722.7333,-8 728,-13.2667 728,-18.5333 728,-18.5333 728,-30.4667 728,-30.4667 728,-35.7333 722.7333,-41 717.4667,-41 717.4667,-41 706.9333,-41 706.9333,-41 701.6667,-41 696.4,-35.7333 696.4,-30.4667 696.4,-30.4667 696.4,-18.5333 696.4,-18.5333 696.4,-13.2667 701.6667,-8 706.9333,-8"/>
<text text-anchor="middle" x="712.2" y="-29" font-family="Times,serif" font-size="10.00" fill="#000000">Sdg</text>
</g>
<g id="clust24" class="cluster">
<title>cluster_22</title>
<path fill="#add8e6" stroke="#add8e6" d="M663,-28C663,-28 673.2,-28 673.2,-28 678.3,-28 683.4,-33.1 683.4,-38.2 683.4,-38.2 683.4,-65.8 683.4,-65.8 683.4,-70.9 678.3,-76 673.2,-76 673.2,-76 663,-76 663,-76 657.9,-76 652.8,-70.9 652.8,-65.8 652.8,-65.8 652.8,-38.2 652.8,-38.2 652.8,-33.1 657.9,-28 663,-28"/>
<text text-anchor="middle" x="668.1" y="-64" font-family="Times,serif" font-size="10.00" fill="#000000">CX</text>
</g>
<g id="clust25" class="cluster">
<title>cluster_23</title>
<path fill="#add8e6" stroke="#add8e6" d="M619.4,-45C619.4,-45 626.6,-45 626.6,-45 630.2,-45 633.8,-48.6 633.8,-52.2 633.8,-52.2 633.8,-70.8 633.8,-70.8 633.8,-74.4 630.2,-78 626.6,-78 626.6,-78 619.4,-78 619.4,-78 615.8,-78 612.2,-74.4 612.2,-70.8 612.2,-70.8 612.2,-52.2 612.2,-52.2 612.2,-48.6 615.8,-45 619.4,-45"/>
<text text-anchor="middle" x="623" y="-66" font-family="Times,serif" font-size="10.00" fill="#000000">S</text>
</g>
<g id="clust26" class="cluster">
<title>cluster_24</title>
<path fill="#add8e6" stroke="#add8e6" d="M574.8,-54C574.8,-54 585,-54 585,-54 590.1,-54 595.2,-59.1 595.2,-64.2 595.2,-64.2 595.2,-91.8 595.2,-91.8 595.2,-96.9 590.1,-102 585,-102 585,-102 574.8,-102 574.8,-102 569.7,-102 564.6,-96.9 564.6,-91.8 564.6,-91.8 564.6,-64.2 564.6,-64.2 564.6,-59.1 569.7,-54 574.8,-54"/>
<text text-anchor="middle" x="579.9" y="-90" font-family="Times,serif" font-size="10.00" fill="#000000">CX</text>
</g>
<g id="clust27" class="cluster">
<title>cluster_28</title>
<path fill="#add8e6" stroke="#add8e6" d="M708.2667,-78C708.2667,-78 716.1333,-78 716.1333,-78 720.0667,-78 724,-81.9333 724,-85.8667 724,-85.8667 724,-103.1333 724,-103.1333 724,-107.0667 720.0667,-111 716.1333,-111 716.1333,-111 708.2667,-111 708.2667,-111 704.3333,-111 700.4,-107.0667 700.4,-103.1333 700.4,-103.1333 700.4,-85.8667 700.4,-85.8667 700.4,-81.9333 704.3333,-78 708.2667,-78"/>
<text text-anchor="middle" x="712.2" y="-99" font-family="Times,serif" font-size="10.00" fill="#000000">V</text>
</g>
<g id="clust28" class="cluster">
<title>cluster_29</title>
<path fill="#add8e6" stroke="#add8e6" d="M747.8667,-41C747.8667,-41 755.7333,-41 755.7333,-41 759.6667,-41 763.6,-44.9333 763.6,-48.8667 763.6,-48.8667 763.6,-66.1333 763.6,-66.1333 763.6,-70.0667 759.6667,-74 755.7333,-74 755.7333,-74 747.8667,-74 747.8667,-74 743.9333,-74 740,-70.0667 740,-66.1333 740,-66.1333 740,-48.8667 740,-48.8667 740,-44.9333 743.9333,-41 747.8667,-41"/>
<text text-anchor="middle" x="751.8" y="-62" font-family="Times,serif" font-size="10.00" fill="#000000">V</text>
</g>
<g id="clust29" class="cluster">
<title>cluster_30</title>
<path fill="#add8e6" stroke="#add8e6" d="M747.8667,-8C747.8667,-8 755.7333,-8 755.7333,-8 759.6667,-8 763.6,-11.9333 763.6,-15.8667 763.6,-15.8667 763.6,-33.1333 763.6,-33.1333 763.6,-37.0667 759.6667,-41 755.7333,-41 755.7333,-41 747.8667,-41 747.8667,-41 743.9333,-41 740,-37.0667 740,-33.1333 740,-33.1333 740,-15.8667 740,-15.8667 740,-11.9333 743.9333,-8 747.8667,-8"/>
<text text-anchor="middle" x="751.8" y="-29" font-family="Times,serif" font-size="10.00" fill="#000000">V</text>
</g>
<g id="clust30" class="cluster">
<title>cluster_31</title>
<path fill="#add8e6" stroke="#add8e6" d="M748.2,-78C748.2,-78 755.4,-78 755.4,-78 759,-78 762.6,-81.6 762.6,-85.2 762.6,-85.2 762.6,-103.8 762.6,-103.8 762.6,-107.4 759,-111 755.4,-111 755.4,-111 748.2,-111 748.2,-111 744.6,-111 741,-107.4 741,-103.8 741,-103.8 741,-85.2 741,-85.2 741,-81.6 744.6,-78 748.2,-78"/>
<text text-anchor="middle" x="751.8" y="-99" font-family="Times,serif" font-size="10.00" fill="#000000">S</text>
</g>
<g id="clust31" class="cluster">
<title>cluster_32</title>
<path fill="#add8e6" stroke="#add8e6" d="M782.8,-41C782.8,-41 790,-41 790,-41 793.6,-41 797.2,-44.6 797.2,-48.2 797.2,-48.2 797.2,-66.8 797.2,-66.8 797.2,-70.4 793.6,-74 790,-74 790,-74 782.8,-74 782.8,-74 779.2,-74 775.6,-70.4 775.6,-66.8 775.6,-66.8 775.6,-48.2 775.6,-48.2 775.6,-44.6 779.2,-41 782.8,-41"/>
<text text-anchor="middle" x="786.4" y="-62" font-family="Times,serif" font-size="10.00" fill="#000000">S</text>
</g>
<g id="clust32" class="cluster">
<title>cluster_33</title>
<path fill="#add8e6" stroke="#add8e6" d="M782.8,-8C782.8,-8 790,-8 790,-8 793.6,-8 797.2,-11.6 797.2,-15.2 797.2,-15.2 797.2,-33.8 797.2,-33.8 797.2,-37.4 793.6,-41 790,-41 790,-41 782.8,-41 782.8,-41 779.2,-41 775.6,-37.4 775.6,-33.8 775.6,-33.8 775.6,-15.2 775.6,-15.2 775.6,-11.6 779.2,-8 782.8,-8"/>
<text text-anchor="middle" x="786.4" y="-29" font-family="Times,serif" font-size="10.00" fill="#000000">S</text>
</g>
<g id="clust33" class="cluster">
<title>cluster_34</title>
<path fill="#add8e6" stroke="#add8e6" d="M782.4667,-78C782.4667,-78 790.3333,-78 790.3333,-78 794.2667,-78 798.2,-81.9333 798.2,-85.8667 798.2,-85.8667 798.2,-103.1333 798.2,-103.1333 798.2,-107.0667 794.2667,-111 790.3333,-111 790.3333,-111 782.4667,-111 782.4667,-111 778.5333,-111 774.6,-107.0667 774.6,-103.1333 774.6,-103.1333 774.6,-85.8667 774.6,-85.8667 774.6,-81.9333 778.5333,-78 782.4667,-78"/>
<text text-anchor="middle" x="786.4" y="-99" font-family="Times,serif" font-size="10.00" fill="#000000">H</text>
</g>
<g id="clust34" class="cluster">
<title>cluster_35</title>
<path fill="#add8e6" stroke="#add8e6" d="M818.0667,-41C818.0667,-41 825.9333,-41 825.9333,-41 829.8667,-41 833.8,-44.9333 833.8,-48.8667 833.8,-48.8667 833.8,-66.1333 833.8,-66.1333 833.8,-70.0667 829.8667,-74 825.9333,-74 825.9333,-74 818.0667,-74 818.0667,-74 814.1333,-74 810.2,-70.0667 810.2,-66.1333 810.2,-66.1333 810.2,-48.8667 810.2,-48.8667 810.2,-44.9333 814.1333,-41 818.0667,-41"/>
<text text-anchor="middle" x="822" y="-62" font-family="Times,serif" font-size="10.00" fill="#000000">H</text>
</g>
<g id="clust35" class="cluster">
<title>cluster_36</title>
<path fill="#add8e6" stroke="#add8e6" d="M818.0667,-8C818.0667,-8 825.9333,-8 825.9333,-8 829.8667,-8 833.8,-11.9333 833.8,-15.8667 833.8,-15.8667 833.8,-33.1333 833.8,-33.1333 833.8,-37.0667 829.8667,-41 825.9333,-41 825.9333,-41 818.0667,-41 818.0667,-41 814.1333,-41 810.2,-37.0667 810.2,-33.1333 810.2,-33.1333 810.2,-15.8667 810.2,-15.8667 810.2,-11.9333 814.1333,-8 818.0667,-8"/>
<text text-anchor="middle" x="822" y="-29" font-family="Times,serif" font-size="10.00" fill="#000000">H</text>
</g>
<g id="clust36" class="cluster">
<title>cluster_37</title>
<path fill="#add8e6" stroke="#add8e6" d="M818.4,-78C818.4,-78 825.6,-78 825.6,-78 829.2,-78 832.8,-81.6 832.8,-85.2 832.8,-85.2 832.8,-103.8 832.8,-103.8 832.8,-107.4 829.2,-111 825.6,-111 825.6,-111 818.4,-111 818.4,-111 814.8,-111 811.2,-107.4 811.2,-103.8 811.2,-103.8 811.2,-85.2 811.2,-85.2 811.2,-81.6 814.8,-78 818.4,-78"/>
<text text-anchor="middle" x="822" y="-99" font-family="Times,serif" font-size="10.00" fill="#000000">S</text>
</g>
<g id="clust37" class="cluster">
<title>cluster_38</title>
<path fill="#add8e6" stroke="#add8e6" d="M853,-41C853,-41 860.2,-41 860.2,-41 863.8,-41 867.4,-44.6 867.4,-48.2 867.4,-48.2 867.4,-66.8 867.4,-66.8 867.4,-70.4 863.8,-74 860.2,-74 860.2,-74 853,-74 853,-74 849.4,-74 845.8,-70.4 845.8,-66.8 845.8,-66.8 845.8,-48.2 845.8,-48.2 845.8,-44.6 849.4,-41 853,-41"/>
<text text-anchor="middle" x="856.6" y="-62" font-family="Times,serif" font-size="10.00" fill="#000000">S</text>
</g>
<g id="clust38" class="cluster">
<title>cluster_39</title>
<path fill="#add8e6" stroke="#add8e6" d="M853,-8C853,-8 860.2,-8 860.2,-8 863.8,-8 867.4,-11.6 867.4,-15.2 867.4,-15.2 867.4,-33.8 867.4,-33.8 867.4,-37.4 863.8,-41 860.2,-41 860.2,-41 853,-41 853,-41 849.4,-41 845.8,-37.4 845.8,-33.8 845.8,-33.8 845.8,-15.2 845.8,-15.2 845.8,-11.6 849.4,-8 853,-8"/>
<text text-anchor="middle" x="856.6" y="-29" font-family="Times,serif" font-size="10.00" fill="#000000">S</text>
</g>
<!-- (0, 0) -->
<g id="node1" class="node">
<title>(0, 0)</title>
<ellipse fill="#0000ff" stroke="#0000ff" cx="20.8" cy="-63" rx="1.8" ry="1.8"/>
<text text-anchor="middle" x="9.5" y="-54.8" font-family="Courier,monospace" font-size="8.00" fill="#000000">q[0]</text>
</g>
<!-- (6, 0) -->
<g id="node10" class="node">
<title>(6, 0)</title>
<ellipse fill="#000000" stroke="#000000" cx="216.2" cy="-85" rx="1.8" ry="1.8"/>
</g>
<!-- (0, 0)&#45;&gt;(6, 0) -->
<g id="edge1" class="edge">
<title>(0, 0)&#45;&gt;(6, 0)</title>
<path fill="none" stroke="#0000ff" d="M22.411,-64.4467C25.4876,-67.1078 32.5252,-72.7155 39.6,-75 105.3337,-96.2257 191.8955,-87.8714 211.9342,-85.5316"/>
<polygon fill="#0000ff" stroke="#0000ff" points="214.3976,-85.2342 212.5469,-86.5908 213.4048,-85.3541 212.412,-85.4739 212.412,-85.4739 212.412,-85.4739 213.4048,-85.3541 212.2771,-84.357 214.3976,-85.2342 214.3976,-85.2342"/>
</g>
<!-- (1, 0) -->
<g id="node2" class="node">
<title>(1, 0)</title>
<ellipse fill="#0000ff" stroke="#0000ff" cx="20.8" cy="-48" rx="1.8" ry="1.8"/>
<text text-anchor="middle" x="9.5" y="-39.8" font-family="Courier,monospace" font-size="8.00" fill="#000000">q[1]</text>
</g>
<!-- (3, 0) -->
<g id="node7" class="node">
<title>(3, 0)</title>
<ellipse fill="#000000" stroke="#000000" cx="51.4" cy="-48" rx="1.8" ry="1.8"/>
</g>
<!-- (1, 0)&#45;&gt;(3, 0) -->
<g id="edge2" class="edge">
<title>(1, 0)&#45;&gt;(3, 0)</title>
<path fill="none" stroke="#0000ff" d="M22.8078,-48C27.734,-48 40.5028,-48 47.1843,-48"/>
<polygon fill="#0000ff" stroke="#0000ff" points="49.3447,-48 47.3448,-49.1251 48.3447,-48 47.3447,-48.0001 47.3447,-48.0001 47.3447,-48.0001 48.3447,-48 47.3447,-46.8751 49.3447,-48 49.3447,-48"/>
</g>
<!-- (2, 0) -->
<g id="node3" class="node">
<title>(2, 0)</title>
<ellipse fill="#0000ff" stroke="#0000ff" cx="20.8" cy="-33" rx="1.8" ry="1.8"/>
<text text-anchor="middle" x="9.5" y="-24.8" font-family="Courier,monospace" font-size="8.00" fill="#000000">q[2]</text>
</g>
<!-- (10, 0) -->
<g id="node14" class="node">
<title>(10, 0)</title>
<ellipse fill="#000000" stroke="#000000" cx="216.2" cy="-17" rx="1.8" ry="1.8"/>
</g>
<!-- (2, 0)&#45;&gt;(10, 0) -->
<g id="edge3" class="edge">
<title>(2, 0)&#45;&gt;(10, 0)</title>
<path fill="none" stroke="#0000ff" d="M22.9944,-32.8203C42.4911,-31.2239 185.9362,-19.4781 212.1075,-17.3351"/>
<polygon fill="#0000ff" stroke="#0000ff" points="214.2661,-17.1584 212.3646,-18.4429 213.2694,-17.24 212.2727,-17.3217 212.2727,-17.3217 212.2727,-17.3217 213.2694,-17.24 212.1809,-16.2004 214.2661,-17.1584 214.2661,-17.1584"/>
</g>
<!-- (25, 0) -->
<g id="node4" class="node">
<title>(25, 0)</title>
<ellipse fill="#0000ff" stroke="#0000ff" cx="886.2" cy="-63" rx="1.8" ry="1.8"/>
<text text-anchor="middle" x="874.9" y="-54.8" font-family="Courier,monospace" font-size="8.00" fill="#000000">q[0]</text>
</g>
<!-- (26, 0) -->
<g id="node5" class="node">
<title>(26, 0)</title>
<ellipse fill="#0000ff" stroke="#0000ff" cx="886.2" cy="-48" rx="1.8" ry="1.8"/>
<text text-anchor="middle" x="874.9" y="-39.8" font-family="Courier,monospace" font-size="8.00" fill="#000000">q[1]</text>
</g>
<!-- (27, 0) -->
<g id="node6" class="node">
<title>(27, 0)</title>
<ellipse fill="#0000ff" stroke="#0000ff" cx="886.2" cy="-33" rx="1.8" ry="1.8"/>
<text text-anchor="middle" x="874.9" y="-24.8" font-family="Courier,monospace" font-size="8.00" fill="#000000">q[2]</text>
</g>
<!-- (4, 0) -->
<g id="node8" class="node">
<title>(4, 0)</title>
<ellipse fill="#000000" stroke="#000000" cx="107" cy="-48" rx="1.8" ry="1.8"/>
</g>
<!-- (3, 0)&#45;&gt;(4, 0) -->
<g id="edge4" class="edge">
<title>(3, 0)&#45;&gt;(4, 0)</title>
<path fill="none" stroke="#0000ff" d="M53.2499,-48C61.0979,-48 91.7464,-48 102.9067,-48"/>
<polygon fill="#0000ff" stroke="#0000ff" points="105.0861,-48 103.0862,-49.1251 104.0861,-48 103.0861,-48.0001 103.0861,-48.0001 103.0861,-48.0001 104.0861,-48 103.0861,-46.8751 105.0861,-48 105.0861,-48"/>
</g>
<!-- (5, 0) -->
<g id="node9" class="node">
<title>(5, 0)</title>
<ellipse fill="#000000" stroke="#000000" cx="162.6" cy="-48" rx="1.8" ry="1.8"/>
</g>
<!-- (4, 0)&#45;&gt;(5, 0) -->
<g id="edge5" class="edge">
<title>(4, 0)&#45;&gt;(5, 0)</title>
<path fill="none" stroke="#0000ff" d="M108.8499,-48C116.6979,-48 147.3464,-48 158.5067,-48"/>
<polygon fill="#0000ff" stroke="#0000ff" points="160.6861,-48 158.6862,-49.1251 159.6861,-48 158.6861,-48.0001 158.6861,-48.0001 158.6861,-48.0001 159.6861,-48 158.6861,-46.8751 160.6861,-48 160.6861,-48"/>
</g>
<!-- (7, 0) -->
<g id="node11" class="node">
<title>(7, 0)</title>
<ellipse fill="#000000" stroke="#000000" cx="216.2" cy="-50" rx="1.8" ry="1.8"/>
</g>
<!-- (5, 0)&#45;&gt;(7, 0) -->
<g id="edge6" class="edge">
<title>(5, 0)&#45;&gt;(7, 0)</title>
<path fill="none" stroke="#0000ff" d="M164.9031,-48.0859C173.0999,-48.3918 200.9429,-49.4307 211.8073,-49.8361"/>
<polygon fill="#0000ff" stroke="#0000ff" points="213.9651,-49.9166 211.9245,-50.9662 212.9658,-49.8793 211.9665,-49.8419 211.9665,-49.8419 211.9665,-49.8419 212.9658,-49.8793 212.0085,-48.7177 213.9651,-49.9166 213.9651,-49.9166"/>
</g>
<!-- (8, 0) -->
<g id="node12" class="node">
<title>(8, 0)</title>
<ellipse fill="#000000" stroke="#000000" cx="271.8" cy="-85" rx="1.8" ry="1.8"/>
</g>
<!-- (6, 0)&#45;&gt;(8, 0) -->
<g id="edge7" class="edge">
<title>(6, 0)&#45;&gt;(8, 0)</title>
<path fill="none" stroke="#0000ff" d="M218.0499,-85C225.8979,-85 256.5464,-85 267.7067,-85"/>
<polygon fill="#0000ff" stroke="#0000ff" points="269.8861,-85 267.8862,-86.1251 268.8861,-85 267.8861,-85.0001 267.8861,-85.0001 267.8861,-85.0001 268.8861,-85 267.8861,-83.8751 269.8861,-85 269.8861,-85"/>
</g>
<!-- (11, 0) -->
<g id="node15" class="node">
<title>(11, 0)</title>
<ellipse fill="#000000" stroke="#000000" cx="271.8" cy="-42" rx="1.8" ry="1.8"/>
<text text-anchor="middle" x="267.5" y="-33.8" font-family="Helvetica,sans-Serif" font-size="8.00" fill="#000000">0</text>
</g>
<!-- (7, 0)&#45;&gt;(11, 0) -->
<g id="edge8" class="edge">
<title>(7, 0)&#45;&gt;(11, 0)</title>
<path fill="none" stroke="#0000ff" d="M218.0499,-49.7338C225.8979,-48.6046 256.5464,-44.1948 267.7067,-42.589"/>
<polygon fill="#0000ff" stroke="#0000ff" points="269.8861,-42.2754 268.0668,-43.6738 268.8963,-42.4178 267.9065,-42.5603 267.9065,-42.5603 267.9065,-42.5603 268.8963,-42.4178 267.7462,-41.4468 269.8861,-42.2754 269.8861,-42.2754"/>
</g>
<!-- (9, 0) -->
<g id="node13" class="node">
<title>(9, 0)</title>
<ellipse fill="#000000" stroke="#000000" cx="315.4" cy="-85" rx="1.8" ry="1.8"/>
</g>
<!-- (8, 0)&#45;&gt;(9, 0) -->
<g id="edge9" class="edge">
<title>(8, 0)&#45;&gt;(9, 0)</title>
<path fill="none" stroke="#0000ff" d="M273.6734,-85C280.1728,-85 301.8576,-85 311.1326,-85"/>
<polygon fill="#0000ff" stroke="#0000ff" points="313.5821,-85 311.5821,-86.1251 312.5821,-85 311.5821,-85.0001 311.5821,-85.0001 311.5821,-85.0001 312.5821,-85 311.582,-83.8751 313.5821,-85 313.5821,-85"/>
</g>
<!-- (13, 1) -->
<g id="node19" class="node">
<title>(13, 1)</title>
<ellipse fill="#000000" stroke="#000000" cx="358" cy="-76" rx="1.8" ry="1.8"/>
<text text-anchor="middle" x="353.7" y="-67.8" font-family="Helvetica,sans-Serif" font-size="8.00" fill="#000000">1</text>
</g>
<!-- (9, 0)&#45;&gt;(13, 1) -->
<g id="edge10" class="edge">
<title>(9, 0)&#45;&gt;(13, 1)</title>
<path fill="none" stroke="#0000ff" d="M317.2305,-84.6133C323.5808,-83.2717 344.7682,-78.7954 353.8305,-76.8809"/>
<polygon fill="#0000ff" stroke="#0000ff" points="356.2238,-76.3753 354.4995,-77.8894 355.2454,-76.582 354.267,-76.7887 354.267,-76.7887 354.267,-76.7887 355.2454,-76.582 354.0344,-75.688 356.2238,-76.3753 356.2238,-76.3753"/>
</g>
<!-- (11, 1) -->
<g id="node16" class="node">
<title>(11, 1)</title>
<ellipse fill="#000000" stroke="#000000" cx="271.8" cy="-27" rx="1.8" ry="1.8"/>
<text text-anchor="middle" x="267.5" y="-18.8" font-family="Helvetica,sans-Serif" font-size="8.00" fill="#000000">1</text>
</g>
<!-- (10, 0)&#45;&gt;(11, 1) -->
<g id="edge11" class="edge">
<title>(10, 0)&#45;&gt;(11, 1)</title>
<path fill="none" stroke="#0000ff" d="M218.0499,-17.3327C225.8979,-18.7442 256.5464,-24.2565 267.7067,-26.2638"/>
<polygon fill="#0000ff" stroke="#0000ff" points="269.8861,-26.6558 267.7185,-27.4089 268.9019,-26.4787 267.9177,-26.3017 267.9177,-26.3017 267.9177,-26.3017 268.9019,-26.4787 268.1169,-25.1944 269.8861,-26.6558 269.8861,-26.6558"/>
</g>
<!-- (22, 0) -->
<g id="node28" class="node">
<title>(22, 0)</title>
<ellipse fill="#000000" stroke="#000000" cx="667.6" cy="-35" rx="1.8" ry="1.8"/>
<text text-anchor="middle" x="663.3" y="-26.8" font-family="Helvetica,sans-Serif" font-size="8.00" fill="#000000">0</text>
</g>
<!-- (11, 0)&#45;&gt;(22, 0) -->
<g id="edge13" class="edge">
<title>(11, 0)&#45;&gt;(22, 0)</title>
<path fill="none" stroke="#0000ff" d="M273.924,-41.6133C283.577,-39.8906 324.2956,-33 358,-33 358,-33 358,-33 579.4,-33 611.5645,-33 650.31,-34.3458 663.1957,-34.8295"/>
<polygon fill="#0000ff" stroke="#0000ff" points="665.4184,-34.9141 663.377,-35.9621 664.4191,-34.876 663.4198,-34.8379 663.4198,-34.8379 663.4198,-34.8379 664.4191,-34.876 663.4627,-33.7137 665.4184,-34.9141 665.4184,-34.9141"/>
</g>
<!-- (12, 0) -->
<g id="node17" class="node">
<title>(12, 0)</title>
<ellipse fill="#000000" stroke="#000000" cx="315.4" cy="-52" rx="1.8" ry="1.8"/>
</g>
<!-- (11, 1)&#45;&gt;(12, 0) -->
<g id="edge12" class="edge">
<title>(11, 1)&#45;&gt;(12, 0)</title>
<path fill="none" stroke="#0000ff" d="M273.6739,-27.8885C276.6585,-29.3171 282.6592,-32.2443 287.6,-35 296.4192,-39.9189 306.4556,-46.2433 311.724,-49.6217"/>
<polygon fill="#0000ff" stroke="#0000ff" points="313.6725,-50.8765 311.3819,-50.7395 312.8318,-50.3351 311.991,-49.7936 311.991,-49.7936 311.991,-49.7936 312.8318,-50.3351 312.6001,-48.8478 313.6725,-50.8765 313.6725,-50.8765"/>
</g>
<!-- (13, 0) -->
<g id="node18" class="node">
<title>(13, 0)</title>
<ellipse fill="#000000" stroke="#000000" cx="358" cy="-61" rx="1.8" ry="1.8"/>
<text text-anchor="middle" x="353.7" y="-52.8" font-family="Helvetica,sans-Serif" font-size="8.00" fill="#000000">0</text>
</g>
<!-- (12, 0)&#45;&gt;(13, 0) -->
<g id="edge14" class="edge">
<title>(12, 0)&#45;&gt;(13, 0)</title>
<path fill="none" stroke="#0000ff" d="M317.2305,-52.3867C323.5808,-53.7283 344.7682,-58.2046 353.8305,-60.1191"/>
<polygon fill="#0000ff" stroke="#0000ff" points="356.2238,-60.6247 354.0344,-61.312 355.2454,-60.418 354.267,-60.2113 354.267,-60.2113 354.267,-60.2113 355.2454,-60.418 354.4995,-59.1106 356.2238,-60.6247 356.2238,-60.6247"/>
</g>
<!-- (15, 0) -->
<g id="node21" class="node">
<title>(15, 0)</title>
<ellipse fill="#000000" stroke="#000000" cx="415.6" cy="-53" rx="1.8" ry="1.8"/>
</g>
<!-- (13, 0)&#45;&gt;(15, 0) -->
<g id="edge15" class="edge">
<title>(13, 0)&#45;&gt;(15, 0)</title>
<path fill="none" stroke="#0000ff" d="M359.9165,-60.7338C368.0467,-59.6046 399.7977,-55.1948 411.3594,-53.589"/>
<polygon fill="#0000ff" stroke="#0000ff" points="413.6173,-53.2754 411.7911,-54.6649 412.6268,-53.413 411.6363,-53.5506 411.6363,-53.5506 411.6363,-53.5506 412.6268,-53.413 411.4815,-52.4363 413.6173,-53.2754 413.6173,-53.2754"/>
</g>
<!-- (14, 0) -->
<g id="node20" class="node">
<title>(14, 0)</title>
<ellipse fill="#000000" stroke="#000000" cx="415.6" cy="-88" rx="1.8" ry="1.8"/>
</g>
<!-- (13, 1)&#45;&gt;(14, 0) -->
<g id="edge16" class="edge">
<title>(13, 1)&#45;&gt;(14, 0)</title>
<path fill="none" stroke="#0000ff" d="M359.9165,-76.3993C368.1151,-78.1073 400.333,-84.8194 411.6466,-87.1764"/>
<polygon fill="#0000ff" stroke="#0000ff" points="413.6173,-87.5869 411.4298,-88.2803 412.6383,-87.3829 411.6593,-87.1789 411.6593,-87.1789 411.6593,-87.1789 412.6383,-87.3829 411.8888,-86.0776 413.6173,-87.5869 413.6173,-87.5869"/>
</g>
<!-- (24, 1) -->
<g id="node32" class="node">
<title>(24, 1)</title>
<ellipse fill="#000000" stroke="#000000" cx="579.4" cy="-76" rx="1.8" ry="1.8"/>
<text text-anchor="middle" x="575.1" y="-67.8" font-family="Helvetica,sans-Serif" font-size="8.00" fill="#000000">1</text>
</g>
<!-- (14, 0)&#45;&gt;(24, 1) -->
<g id="edge17" class="edge">
<title>(14, 0)&#45;&gt;(24, 1)</title>
<path fill="none" stroke="#0000ff" d="M417.5342,-87.9065C429.7554,-87.3084 497.5171,-83.8897 552.6,-79 560.6154,-78.2885 569.9483,-77.1801 575.2166,-76.5285"/>
<polygon fill="#0000ff" stroke="#0000ff" points="577.4527,-76.249 575.6077,-77.6134 576.4604,-76.373 575.4682,-76.4971 575.4682,-76.4971 575.4682,-76.4971 576.4604,-76.373 575.3286,-75.3808 577.4527,-76.249 577.4527,-76.249"/>
</g>
<!-- (16, 0) -->
<g id="node22" class="node">
<title>(16, 0)</title>
<ellipse fill="#000000" stroke="#000000" cx="487.2" cy="-52" rx="1.8" ry="1.8"/>
</g>
<!-- (15, 0)&#45;&gt;(16, 0) -->
<g id="edge18" class="edge">
<title>(15, 0)&#45;&gt;(16, 0)</title>
<path fill="none" stroke="#0000ff" d="M417.6656,-52.9712C427.4677,-52.8342 469.3776,-52.2489 482.9442,-52.0594"/>
<polygon fill="#0000ff" stroke="#0000ff" points="485.2617,-52.0271 483.2777,-53.18 484.2618,-52.0411 483.2619,-52.0551 483.2619,-52.0551 483.2619,-52.0551 484.2618,-52.0411 483.2461,-50.9302 485.2617,-52.0271 485.2617,-52.0271"/>
</g>
<!-- (17, 0) -->
<g id="node23" class="node">
<title>(17, 0)</title>
<ellipse fill="#000000" stroke="#000000" cx="540.8" cy="-52" rx="1.8" ry="1.8"/>
</g>
<!-- (16, 0)&#45;&gt;(17, 0) -->
<g id="edge19" class="edge">
<title>(16, 0)&#45;&gt;(17, 0)</title>
<path fill="none" stroke="#0000ff" d="M489.5031,-52C497.6999,-52 525.5429,-52 536.4073,-52"/>
<polygon fill="#0000ff" stroke="#0000ff" points="538.5651,-52 536.5652,-53.1251 537.5651,-52 536.5651,-52.0001 536.5651,-52.0001 536.5651,-52.0001 537.5651,-52 536.5651,-50.8751 538.5651,-52 538.5651,-52"/>
</g>
<!-- (24, 0) -->
<g id="node31" class="node">
<title>(24, 0)</title>
<ellipse fill="#000000" stroke="#000000" cx="579.4" cy="-61" rx="1.8" ry="1.8"/>
<text text-anchor="middle" x="575.1" y="-52.8" font-family="Helvetica,sans-Serif" font-size="8.00" fill="#000000">0</text>
</g>
<!-- (17, 0)&#45;&gt;(24, 0) -->
<g id="edge20" class="edge">
<title>(17, 0)&#45;&gt;(24, 0)</title>
<path fill="none" stroke="#0000ff" d="M542.8753,-52.4839C549.006,-53.9133 567.1165,-58.136 575.3017,-60.0444"/>
<polygon fill="#0000ff" stroke="#0000ff" points="577.499,-60.5568 575.2957,-61.1982 576.5251,-60.3297 575.5512,-60.1025 575.5512,-60.1025 575.5512,-60.1025 576.5251,-60.3297 575.8067,-59.0069 577.499,-60.5568 577.499,-60.5568"/>
</g>
<!-- (18, 0) -->
<g id="node24" class="node">
<title>(18, 0)</title>
<ellipse fill="#000000" stroke="#000000" cx="712.2" cy="-48" rx="1.8" ry="1.8"/>
</g>
<!-- (29, 0) -->
<g id="node34" class="node">
<title>(29, 0)</title>
<ellipse fill="#000000" stroke="#000000" cx="751.8" cy="-48" rx="1.8" ry="1.8"/>
</g>
<!-- (18, 0)&#45;&gt;(29, 0) -->
<g id="edge21" class="edge">
<title>(18, 0)&#45;&gt;(29, 0)</title>
<path fill="none" stroke="#0000ff" d="M714.3291,-48C720.6186,-48 739.1983,-48 747.5955,-48"/>
<polygon fill="#0000ff" stroke="#0000ff" points="749.8497,-48 747.8498,-49.1251 748.8497,-48 747.8497,-48.0001 747.8497,-48.0001 747.8497,-48.0001 748.8497,-48 747.8497,-46.8751 749.8497,-48 749.8497,-48"/>
</g>
<!-- (19, 0) -->
<g id="node25" class="node">
<title>(19, 0)</title>
<ellipse fill="#000000" stroke="#000000" cx="667.6" cy="-85" rx="1.8" ry="1.8"/>
</g>
<!-- (28, 0) -->
<g id="node33" class="node">
<title>(28, 0)</title>
<ellipse fill="#000000" stroke="#000000" cx="712.2" cy="-85" rx="1.8" ry="1.8"/>
</g>
<!-- (19, 0)&#45;&gt;(28, 0) -->
<g id="edge22" class="edge">
<title>(19, 0)&#45;&gt;(28, 0)</title>
<path fill="none" stroke="#0000ff" d="M669.5164,-85C676.2795,-85 699.1165,-85 708.314,-85"/>
<polygon fill="#0000ff" stroke="#0000ff" points="710.3404,-85 708.3404,-86.1251 709.3404,-85 708.3404,-85.0001 708.3404,-85.0001 708.3404,-85.0001 709.3404,-85 708.3403,-83.8751 710.3404,-85 710.3404,-85"/>
</g>
<!-- (20, 0) -->
<g id="node26" class="node">
<title>(20, 0)</title>
<ellipse fill="#000000" stroke="#000000" cx="623" cy="-85" rx="1.8" ry="1.8"/>
</g>
<!-- (20, 0)&#45;&gt;(19, 0) -->
<g id="edge23" class="edge">
<title>(20, 0)&#45;&gt;(19, 0)</title>
<path fill="none" stroke="#0000ff" d="M624.9164,-85C631.6795,-85 654.5165,-85 663.714,-85"/>
<polygon fill="#0000ff" stroke="#0000ff" points="665.7404,-85 663.7404,-86.1251 664.7404,-85 663.7404,-85.0001 663.7404,-85.0001 663.7404,-85.0001 664.7404,-85 663.7403,-83.8751 665.7404,-85 665.7404,-85"/>
</g>
<!-- (21, 0) -->
<g id="node27" class="node">
<title>(21, 0)</title>
<ellipse fill="#000000" stroke="#000000" cx="712.2" cy="-15" rx="1.8" ry="1.8"/>
</g>
<!-- (30, 0) -->
<g id="node35" class="node">
<title>(30, 0)</title>
<ellipse fill="#000000" stroke="#000000" cx="751.8" cy="-15" rx="1.8" ry="1.8"/>
</g>
<!-- (21, 0)&#45;&gt;(30, 0) -->
<g id="edge24" class="edge">
<title>(21, 0)&#45;&gt;(30, 0)</title>
<path fill="none" stroke="#0000ff" d="M714.3291,-15C720.6186,-15 739.1983,-15 747.5955,-15"/>
<polygon fill="#0000ff" stroke="#0000ff" points="749.8497,-15 747.8498,-16.1251 748.8497,-15 747.8497,-15.0001 747.8497,-15.0001 747.8497,-15.0001 748.8497,-15 747.8497,-13.8751 749.8497,-15 749.8497,-15"/>
</g>
<!-- (22, 0)&#45;&gt;(18, 0) -->
<g id="edge25" class="edge">
<title>(22, 0)&#45;&gt;(18, 0)</title>
<path fill="none" stroke="#0000ff" d="M669.5164,-35.5586C676.2795,-37.5299 699.1165,-44.1864 708.314,-46.8673"/>
<polygon fill="#0000ff" stroke="#0000ff" points="710.3404,-47.458 708.1054,-47.9783 709.3803,-47.1781 708.4203,-46.8982 708.4203,-46.8982 708.4203,-46.8982 709.3803,-47.1781 708.7351,-45.8182 710.3404,-47.458 710.3404,-47.458"/>
</g>
<!-- (22, 1) -->
<g id="node29" class="node">
<title>(22, 1)</title>
<ellipse fill="#000000" stroke="#000000" cx="667.6" cy="-50" rx="1.8" ry="1.8"/>
<text text-anchor="middle" x="663.3" y="-41.8" font-family="Helvetica,sans-Serif" font-size="8.00" fill="#000000">1</text>
</g>
<!-- (22, 1)&#45;&gt;(21, 0) -->
<g id="edge26" class="edge">
<title>(22, 1)&#45;&gt;(21, 0)</title>
<path fill="none" stroke="#0000ff" d="M669.3786,-49.4445C672.7137,-48.3519 680.0524,-45.7038 685.4,-42 695.4581,-35.0336 704.9931,-24.011 709.4952,-18.4506"/>
<polygon fill="#0000ff" stroke="#0000ff" points="710.9179,-16.6667 710.5504,-18.9319 710.2943,-17.4486 709.6708,-18.2304 709.6708,-18.2304 709.6708,-18.2304 710.2943,-17.4486 708.7913,-17.5289 710.9179,-16.6667 710.9179,-16.6667"/>
</g>
<!-- (23, 0) -->
<g id="node30" class="node">
<title>(23, 0)</title>
<ellipse fill="#000000" stroke="#000000" cx="623" cy="-52" rx="1.8" ry="1.8"/>
</g>
<!-- (23, 0)&#45;&gt;(22, 1) -->
<g id="edge27" class="edge">
<title>(23, 0)&#45;&gt;(22, 1)</title>
<path fill="none" stroke="#0000ff" d="M624.9164,-51.9141C631.6795,-51.6108 654.5165,-50.5867 663.714,-50.1743"/>
<polygon fill="#0000ff" stroke="#0000ff" points="665.7404,-50.0834 663.7928,-51.297 664.7414,-50.1282 663.7424,-50.1731 663.7424,-50.1731 663.7424,-50.1731 664.7414,-50.1282 663.6919,-49.0492 665.7404,-50.0834 665.7404,-50.0834"/>
</g>
<!-- (24, 0)&#45;&gt;(23, 0) -->
<g id="edge28" class="edge">
<title>(24, 0)&#45;&gt;(23, 0)</title>
<path fill="none" stroke="#0000ff" d="M581.2734,-60.6133C587.8849,-59.2485 610.2099,-54.6402 619.2011,-52.7842"/>
<polygon fill="#0000ff" stroke="#0000ff" points="621.1821,-52.3753 619.4508,-53.8814 620.2027,-52.5775 619.2234,-52.7797 619.2234,-52.7797 619.2234,-52.7797 620.2027,-52.5775 618.9959,-51.6779 621.1821,-52.3753 621.1821,-52.3753"/>
</g>
<!-- (24, 1)&#45;&gt;(20, 0) -->
<g id="edge29" class="edge">
<title>(24, 1)&#45;&gt;(20, 0)</title>
<path fill="none" stroke="#0000ff" d="M581.2734,-76.3867C587.8849,-77.7515 610.2099,-82.3598 619.2011,-84.2158"/>
<polygon fill="#0000ff" stroke="#0000ff" points="621.1821,-84.6247 618.9959,-85.3221 620.2027,-84.4225 619.2234,-84.2203 619.2234,-84.2203 619.2234,-84.2203 620.2027,-84.4225 619.4508,-83.1186 621.1821,-84.6247 621.1821,-84.6247"/>
</g>
<!-- (31, 0) -->
<g id="node36" class="node">
<title>(31, 0)</title>
<ellipse fill="#000000" stroke="#000000" cx="751.8" cy="-85" rx="1.8" ry="1.8"/>
</g>
<!-- (28, 0)&#45;&gt;(31, 0) -->
<g id="edge30" class="edge">
<title>(28, 0)&#45;&gt;(31, 0)</title>
<path fill="none" stroke="#0000ff" d="M714.3291,-85C720.6186,-85 739.1983,-85 747.5955,-85"/>
<polygon fill="#0000ff" stroke="#0000ff" points="749.8497,-85 747.8498,-86.1251 748.8497,-85 747.8497,-85.0001 747.8497,-85.0001 747.8497,-85.0001 748.8497,-85 747.8497,-83.8751 749.8497,-85 749.8497,-85"/>
</g>
<!-- (32, 0) -->
<g id="node37" class="node">
<title>(32, 0)</title>
<ellipse fill="#000000" stroke="#000000" cx="786.4" cy="-48" rx="1.8" ry="1.8"/>
</g>
<!-- (29, 0)&#45;&gt;(32, 0) -->
<g id="edge31" class="edge">
<title>(29, 0)&#45;&gt;(32, 0)</title>
<path fill="none" stroke="#0000ff" d="M753.6602,-48C759.0538,-48 774.7919,-48 782.3097,-48"/>
<polygon fill="#0000ff" stroke="#0000ff" points="784.3584,-48 782.3585,-49.1251 783.3584,-48 782.3584,-48.0001 782.3584,-48.0001 782.3584,-48.0001 783.3584,-48 782.3584,-46.8751 784.3584,-48 784.3584,-48"/>
</g>
<!-- (33, 0) -->
<g id="node38" class="node">
<title>(33, 0)</title>
<ellipse fill="#000000" stroke="#000000" cx="786.4" cy="-15" rx="1.8" ry="1.8"/>
</g>
<!-- (30, 0)&#45;&gt;(33, 0) -->
<g id="edge32" class="edge">
<title>(30, 0)&#45;&gt;(33, 0)</title>
<path fill="none" stroke="#0000ff" d="M753.6602,-15C759.0538,-15 774.7919,-15 782.3097,-15"/>
<polygon fill="#0000ff" stroke="#0000ff" points="784.3584,-15 782.3585,-16.1251 783.3584,-15 782.3584,-15.0001 782.3584,-15.0001 782.3584,-15.0001 783.3584,-15 782.3584,-13.8751 784.3584,-15 784.3584,-15"/>
</g>
<!-- (34, 0) -->
<g id="node39" class="node">
<title>(34, 0)</title>
<ellipse fill="#000000" stroke="#000000" cx="786.4" cy="-85" rx="1.8" ry="1.8"/>
</g>
<!-- (31, 0)&#45;&gt;(34, 0) -->
<g id="edge33" class="edge">
<title>(31, 0)&#45;&gt;(34, 0)</title>
<path fill="none" stroke="#0000ff" d="M753.6602,-85C759.0538,-85 774.7919,-85 782.3097,-85"/>
<polygon fill="#0000ff" stroke="#0000ff" points="784.3584,-85 782.3585,-86.1251 783.3584,-85 782.3584,-85.0001 782.3584,-85.0001 782.3584,-85.0001 783.3584,-85 782.3584,-83.8751 784.3584,-85 784.3584,-85"/>
</g>
<!-- (35, 0) -->
<g id="node40" class="node">
<title>(35, 0)</title>
<ellipse fill="#000000" stroke="#000000" cx="822" cy="-48" rx="1.8" ry="1.8"/>
</g>
<!-- (32, 0)&#45;&gt;(35, 0) -->
<g id="edge34" class="edge">
<title>(32, 0)&#45;&gt;(35, 0)</title>
<path fill="none" stroke="#0000ff" d="M788.314,-48C793.8635,-48 810.0564,-48 817.7915,-48"/>
<polygon fill="#0000ff" stroke="#0000ff" points="819.8994,-48 817.8995,-49.1251 818.8994,-48 817.8994,-48.0001 817.8994,-48.0001 817.8994,-48.0001 818.8994,-48 817.8994,-46.8751 819.8994,-48 819.8994,-48"/>
</g>
<!-- (36, 0) -->
<g id="node41" class="node">
<title>(36, 0)</title>
<ellipse fill="#000000" stroke="#000000" cx="822" cy="-15" rx="1.8" ry="1.8"/>
</g>
<!-- (33, 0)&#45;&gt;(36, 0) -->
<g id="edge35" class="edge">
<title>(33, 0)&#45;&gt;(36, 0)</title>
<path fill="none" stroke="#0000ff" d="M788.314,-15C793.8635,-15 810.0564,-15 817.7915,-15"/>
<polygon fill="#0000ff" stroke="#0000ff" points="819.8994,-15 817.8995,-16.1251 818.8994,-15 817.8994,-15.0001 817.8994,-15.0001 817.8994,-15.0001 818.8994,-15 817.8994,-13.8751 819.8994,-15 819.8994,-15"/>
</g>
<!-- (37, 0) -->
<g id="node42" class="node">
<title>(37, 0)</title>
<ellipse fill="#000000" stroke="#000000" cx="822" cy="-85" rx="1.8" ry="1.8"/>
</g>
<!-- (34, 0)&#45;&gt;(37, 0) -->
<g id="edge36" class="edge">
<title>(34, 0)&#45;&gt;(37, 0)</title>
<path fill="none" stroke="#0000ff" d="M788.314,-85C793.8635,-85 810.0564,-85 817.7915,-85"/>
<polygon fill="#0000ff" stroke="#0000ff" points="819.8994,-85 817.8995,-86.1251 818.8994,-85 817.8994,-85.0001 817.8994,-85.0001 817.8994,-85.0001 818.8994,-85 817.8994,-83.8751 819.8994,-85 819.8994,-85"/>
</g>
<!-- (38, 0) -->
<g id="node43" class="node">
<title>(38, 0)</title>
<ellipse fill="#000000" stroke="#000000" cx="856.6" cy="-48" rx="1.8" ry="1.8"/>
</g>
<!-- (35, 0)&#45;&gt;(38, 0) -->
<g id="edge37" class="edge">
<title>(35, 0)&#45;&gt;(38, 0)</title>
<path fill="none" stroke="#0000ff" d="M823.8602,-48C829.2538,-48 844.9919,-48 852.5097,-48"/>
<polygon fill="#0000ff" stroke="#0000ff" points="854.5584,-48 852.5585,-49.1251 853.5584,-48 852.5584,-48.0001 852.5584,-48.0001 852.5584,-48.0001 853.5584,-48 852.5584,-46.8751 854.5584,-48 854.5584,-48"/>
</g>
<!-- (39, 0) -->
<g id="node44" class="node">
<title>(39, 0)</title>
<ellipse fill="#000000" stroke="#000000" cx="856.6" cy="-15" rx="1.8" ry="1.8"/>
</g>
<!-- (36, 0)&#45;&gt;(39, 0) -->
<g id="edge38" class="edge">
<title>(36, 0)&#45;&gt;(39, 0)</title>
<path fill="none" stroke="#0000ff" d="M823.8602,-15C829.2538,-15 844.9919,-15 852.5097,-15"/>
<polygon fill="#0000ff" stroke="#0000ff" points="854.5584,-15 852.5585,-16.1251 853.5584,-15 852.5584,-15.0001 852.5584,-15.0001 852.5584,-15.0001 853.5584,-15 852.5584,-13.8751 854.5584,-15 854.5584,-15"/>
</g>
<!-- (37, 0)&#45;&gt;(25, 0) -->
<g id="edge39" class="edge">
<title>(37, 0)&#45;&gt;(25, 0)</title>
<path fill="none" stroke="#0000ff" d="M823.7991,-84.8322C830.0454,-84.2027 851.2923,-81.6674 867.4,-75 873.1959,-72.6009 879.1849,-68.4328 882.8016,-65.6952"/>
<polygon fill="#0000ff" stroke="#0000ff" points="884.5505,-64.3419 883.6572,-66.4556 883.7596,-64.9539 882.9687,-65.5659 882.9687,-65.5659 882.9687,-65.5659 883.7596,-64.9539 882.2802,-64.6761 884.5505,-64.3419 884.5505,-64.3419"/>
</g>
<!-- (38, 0)&#45;&gt;(26, 0) -->
<g id="edge40" class="edge">
<title>(38, 0)&#45;&gt;(26, 0)</title>
<path fill="none" stroke="#0000ff" d="M858.5421,-48C863.3074,-48 875.659,-48 882.1221,-48"/>
<polygon fill="#0000ff" stroke="#0000ff" points="884.2119,-48 882.212,-49.1251 883.2119,-48 882.2119,-48.0001 882.2119,-48.0001 882.2119,-48.0001 883.2119,-48 882.2118,-46.8751 884.2119,-48 884.2119,-48"/>
</g>
<!-- (39, 0)&#45;&gt;(27, 0) -->
<g id="edge41" class="edge">
<title>(39, 0)&#45;&gt;(27, 0)</title>
<path fill="none" stroke="#0000ff" d="M858.1914,-15.9678C862.8056,-18.7737 876.2693,-26.9611 882.7008,-30.8721"/>
<polygon fill="#0000ff" stroke="#0000ff" points="884.4534,-31.9379 882.16,-31.8599 883.599,-31.4183 882.7446,-30.8987 882.7446,-30.8987 882.7446,-30.8987 883.599,-31.4183 883.3291,-29.9375 884.4534,-31.9379 884.4534,-31.9379"/>
</g>
</g>
</svg>
