<?xml version="1.0" encoding="UTF-8" standalone="no"?>
<!DOCTYPE svg PUBLIC "-//W3C//DTD SVG 1.1//EN"
 "http://www.w3.org/Graphics/SVG/1.1/DTD/svg11.dtd">
<!-- Generated by graphviz version 2.43.0 (0)
 -->
<!-- Title: Circuit Pages: 1 -->
<svg width="262pt" height="113pt"
 viewBox="0.00 0.00 261.60 113.00" xmlns="http://www.w3.org/2000/svg" xmlns:xlink="http://www.w3.org/1999/xlink">
<g id="graph0" class="graph" transform="scale(1 1) rotate(0) translate(4 109)">
<title>Circuit</title>
<polygon fill="white" stroke="transparent" points="-4,4 -4,-109 257.6,-109 257.6,4 -4,4"/>
<g id="clust1" class="cluster">
<title>cluster_q_inputs</title>
<path fill="lightgrey" stroke="lightgrey" d="M18.53,-9C18.53,-9 23.07,-9 23.07,-9 25.33,-9 27.6,-11.27 27.6,-13.53 27.6,-13.53 27.6,-63.47 27.6,-63.47 27.6,-65.73 25.33,-68 23.07,-68 23.07,-68 18.53,-68 18.53,-68 16.27,-68 14,-65.73 14,-63.47 14,-63.47 14,-13.53 14,-13.53 14,-11.27 16.27,-9 18.53,-9"/>
</g>
<g id="clust3" class="cluster">
<title>cluster_q_outputs</title>
<path fill="lightgrey" stroke="lightgrey" d="M236.53,-8C236.53,-8 241.07,-8 241.07,-8 243.33,-8 245.6,-10.27 245.6,-12.53 245.6,-12.53 245.6,-62.47 245.6,-62.47 245.6,-64.73 243.33,-67 241.07,-67 241.07,-67 236.53,-67 236.53,-67 234.27,-67 232,-64.73 232,-62.47 232,-62.47 232,-12.53 232,-12.53 232,-10.27 234.27,-8 236.53,-8"/>
</g>
<g id="clust5" class="cluster">
<title>cluster_8</title>
<path fill="lightblue" stroke="lightblue" d="M49.8,-42C49.8,-42 60,-42 60,-42 65.1,-42 70.2,-47.1 70.2,-52.2 70.2,-52.2 70.2,-79.8 70.2,-79.8 70.2,-84.9 65.1,-90 60,-90 60,-90 49.8,-90 49.8,-90 44.7,-90 39.6,-84.9 39.6,-79.8 39.6,-79.8 39.6,-52.2 39.6,-52.2 39.6,-47.1 44.7,-42 49.8,-42"/>
<text text-anchor="middle" x="54.9" y="-78" font-family="Times,serif" font-size="10.00">CX</text>
</g>
<g id="clust6" class="cluster">
<title>cluster_9</title>
<path fill="lightblue" stroke="lightblue" d="M92.4,-44C92.4,-44 102.6,-44 102.6,-44 107.7,-44 112.8,-49.1 112.8,-54.2 112.8,-54.2 112.8,-81.8 112.8,-81.8 112.8,-86.9 107.7,-92 102.6,-92 102.6,-92 92.4,-92 92.4,-92 87.3,-92 82.2,-86.9 82.2,-81.8 82.2,-81.8 82.2,-54.2 82.2,-54.2 82.2,-49.1 87.3,-44 92.4,-44"/>
<text text-anchor="middle" x="97.5" y="-80" font-family="Times,serif" font-size="10.00">CX</text>
</g>
<g id="clust7" class="cluster">
<title>cluster_10</title>
<path fill="lightblue" stroke="lightblue" d="M135.8,-64C135.8,-64 166.4,-64 166.4,-64 171.9,-64 177.4,-69.5 177.4,-75 177.4,-75 177.4,-86 177.4,-86 177.4,-91.5 171.9,-97 166.4,-97 166.4,-97 135.8,-97 135.8,-97 130.3,-97 124.8,-91.5 124.8,-86 124.8,-86 124.8,-75 124.8,-75 124.8,-69.5 130.3,-64 135.8,-64"/>
<text text-anchor="middle" x="151.1" y="-85" font-family="Times,serif" font-size="10.00">Rx(0.2)</text>
</g>
<g id="clust8" class="cluster">
<title>cluster_11</title>
<path fill="lightblue" stroke="lightblue" d="M199.6,-43C199.6,-43 209.8,-43 209.8,-43 214.9,-43 220,-48.1 220,-53.2 220,-53.2 220,-80.8 220,-80.8 220,-85.9 214.9,-91 209.8,-91 209.8,-91 199.6,-91 199.6,-91 194.5,-91 189.4,-85.9 189.4,-80.8 189.4,-80.8 189.4,-53.2 189.4,-53.2 189.4,-48.1 194.5,-43 199.6,-43"/>
<text text-anchor="middle" x="204.7" y="-79" font-family="Times,serif" font-size="10.00">CZ</text>
</g>
<!-- (0, 0) -->
<g id="node1" class="node">
<title>(0, 0)</title>
<ellipse fill="blue" stroke="blue" cx="20.8" cy="-46" rx="1.8" ry="1.8"/>
<text text-anchor="middle" x="9.5" y="-37.8" font-family="Courier,monospace" font-size="8.00">q[0]</text>
</g>
<!-- (8, 0) -->
<g id="node9" class="node">
<title>(8, 0)</title>
<ellipse fill="black" stroke="black" cx="54.4" cy="-49" rx="1.8" ry="1.8"/>
<text text-anchor="middle" x="49.6" y="-40.8" font-family="Helvetica,sans-Serif" font-size="8.00">0</text>
</g>
<!-- (0, 0)&#45;&gt;(8, 0) -->
<g id="edge1" class="edge">
<title>(0, 0)&#45;&gt;(8, 0)</title>
<path fill="none" stroke="blue" d="M23.16,-46.13C27.87,-46.58 43.6,-48.07 50.32,-48.71"/>
<polygon fill="blue" stroke="blue" points="52.35,-48.9 50.25,-49.83 51.35,-48.81 50.36,-48.71 50.36,-48.71 50.36,-48.71 51.35,-48.81 50.46,-47.59 52.35,-48.9 52.35,-48.9"/>
</g>
<!-- (2, 0) -->
<g id="node2" class="node">
<title>(2, 0)</title>
<ellipse fill="blue" stroke="blue" cx="20.8" cy="-61" rx="1.8" ry="1.8"/>
<text text-anchor="middle" x="9.5" y="-52.8" font-family="Courier,monospace" font-size="8.00">q[1]</text>
</g>
<!-- (8, 1) -->
<g id="node10" class="node">
<title>(8, 1)</title>
<ellipse fill="black" stroke="black" cx="54.4" cy="-64" rx="1.8" ry="1.8"/>
<text text-anchor="middle" x="49.6" y="-55.8" font-family="Helvetica,sans-Serif" font-size="8.00">1</text>
</g>
<!-- (2, 0)&#45;&gt;(8, 1) -->
<g id="edge2" class="edge">
<title>(2, 0)&#45;&gt;(8, 1)</title>
<path fill="none" stroke="blue" d="M23.16,-61.13C27.87,-61.58 43.6,-63.07 50.32,-63.71"/>
<polygon fill="blue" stroke="blue" points="52.35,-63.9 50.25,-64.83 51.35,-63.81 50.36,-63.71 50.36,-63.71 50.36,-63.71 51.35,-63.81 50.46,-62.59 52.35,-63.9 52.35,-63.9"/>
</g>
<!-- (4, 0) -->
<g id="node3" class="node">
<title>(4, 0)</title>
<ellipse fill="blue" stroke="blue" cx="20.8" cy="-31" rx="1.8" ry="1.8"/>
<text text-anchor="middle" x="9.5" y="-22.8" font-family="Courier,monospace" font-size="8.00">q[2]</text>
</g>
<!-- (5, 0) -->
<g id="node7" class="node">
<title>(5, 0)</title>
<ellipse fill="blue" stroke="blue" cx="238.8" cy="-30" rx="1.8" ry="1.8"/>
<text text-anchor="middle" x="227.5" y="-21.8" font-family="Courier,monospace" font-size="8.00">q[2]</text>
</g>
<!-- (4, 0)&#45;&gt;(5, 0) -->
<g id="edge3" class="edge">
<title>(4, 0)&#45;&gt;(5, 0)</title>
<path fill="none" stroke="blue" d="M22.85,-30.95C29.45,-30.64 66.1,-29 96,-29 96,-29 96,-29 151.6,-29 184.16,-29 223.64,-29.72 234.76,-29.94"/>
<polygon fill="blue" stroke="blue" points="236.95,-29.98 234.93,-31.07 235.95,-29.96 234.95,-29.94 234.95,-29.94 234.95,-29.94 235.95,-29.96 234.97,-28.82 236.95,-29.98 236.95,-29.98"/>
</g>
<!-- (6, 0) -->
<g id="node4" class="node">
<title>(6, 0)</title>
<ellipse fill="blue" stroke="blue" cx="20.8" cy="-16" rx="1.8" ry="1.8"/>
<text text-anchor="middle" x="9.5" y="-7.8" font-family="Courier,monospace" font-size="8.00">q[3]</text>
</g>
<!-- (7, 0) -->
<g id="node8" class="node">
<title>(7, 0)</title>
<ellipse fill="blue" stroke="blue" cx="238.8" cy="-15" rx="1.8" ry="1.8"/>
<text text-anchor="middle" x="227.5" y="-6.8" font-family="Courier,monospace" font-size="8.00">q[3]</text>
</g>
<!-- (6, 0)&#45;&gt;(7, 0) -->
<g id="edge4" class="edge">
<title>(6, 0)&#45;&gt;(7, 0)</title>
<path fill="none" stroke="blue" d="M22.84,-15.75C29.41,-14.21 65.84,-6 96,-6 96,-6 96,-6 151.6,-6 184.34,-6 223.69,-12.5 234.77,-14.45"/>
<polygon fill="blue" stroke="blue" points="236.95,-14.84 234.79,-15.6 235.97,-14.67 234.99,-14.49 234.99,-14.49 234.99,-14.49 235.97,-14.67 235.18,-13.38 236.95,-14.84 236.95,-14.84"/>
</g>
<!-- (1, 0) -->
<g id="node5" class="node">
<title>(1, 0)</title>
<ellipse fill="blue" stroke="blue" cx="238.8" cy="-45" rx="1.8" ry="1.8"/>
<text text-anchor="middle" x="227.5" y="-36.8" font-family="Courier,monospace" font-size="8.00">q[0]</text>
</g>
<!-- (3, 0) -->
<g id="node6" class="node">
<title>(3, 0)</title>
<ellipse fill="blue" stroke="blue" cx="238.8" cy="-60" rx="1.8" ry="1.8"/>
<text text-anchor="middle" x="227.5" y="-51.8" font-family="Courier,monospace" font-size="8.00">q[1]</text>
</g>
<!-- (9, 1) -->
<g id="node12" class="node">
<title>(9, 1)</title>
<ellipse fill="black" stroke="black" cx="97" cy="-51" rx="1.8" ry="1.8"/>
<text text-anchor="middle" x="92.2" y="-42.8" font-family="Helvetica,sans-Serif" font-size="8.00">1</text>
</g>
<!-- (8, 0)&#45;&gt;(9, 1) -->
<g id="edge5" class="edge">
<title>(8, 0)&#45;&gt;(9, 1)</title>
<path fill="none" stroke="blue" d="M56.4,-49.05C61.54,-49.3 84.95,-50.46 93.15,-50.86"/>
<polygon fill="blue" stroke="blue" points="95.17,-50.96 93.12,-51.98 94.17,-50.91 93.17,-50.86 93.17,-50.86 93.17,-50.86 94.17,-50.91 93.23,-49.74 95.17,-50.96 95.17,-50.96"/>
</g>
<!-- (9, 0) -->
<g id="node11" class="node">
<title>(9, 0)</title>
<ellipse fill="black" stroke="black" cx="97" cy="-66" rx="1.8" ry="1.8"/>
<text text-anchor="middle" x="92.2" y="-57.8" font-family="Helvetica,sans-Serif" font-size="8.00">0</text>
</g>
<!-- (8, 1)&#45;&gt;(9, 0) -->
<g id="edge6" class="edge">
<title>(8, 1)&#45;&gt;(9, 0)</title>
<path fill="none" stroke="blue" d="M56.4,-64.05C61.54,-64.3 84.95,-65.46 93.15,-65.86"/>
<polygon fill="blue" stroke="blue" points="95.17,-65.96 93.12,-66.98 94.17,-65.91 93.17,-65.86 93.17,-65.86 93.17,-65.86 94.17,-65.91 93.23,-64.74 95.17,-65.96 95.17,-65.96"/>
</g>
<!-- (10, 0) -->
<g id="node13" class="node">
<title>(10, 0)</title>
<ellipse fill="black" stroke="black" cx="150.6" cy="-71" rx="1.8" ry="1.8"/>
</g>
<!-- (9, 0)&#45;&gt;(10, 0) -->
<g id="edge7" class="edge">
<title>(9, 0)&#45;&gt;(10, 0)</title>
<path fill="none" stroke="blue" d="M98.9,-66.09C104.62,-66.64 136.17,-69.7 146.4,-70.69"/>
<polygon fill="blue" stroke="blue" points="148.51,-70.89 146.41,-71.82 147.52,-70.8 146.52,-70.7 146.52,-70.7 146.52,-70.7 147.52,-70.8 146.63,-69.58 148.51,-70.89 148.51,-70.89"/>
</g>
<!-- (11, 0) -->
<g id="node14" class="node">
<title>(11, 0)</title>
<ellipse fill="black" stroke="black" cx="204.2" cy="-50" rx="1.8" ry="1.8"/>
<text text-anchor="middle" x="199.4" y="-41.8" font-family="Helvetica,sans-Serif" font-size="8.00">0</text>
</g>
<!-- (9, 1)&#45;&gt;(11, 0) -->
<g id="edge8" class="edge">
<title>(9, 1)&#45;&gt;(11, 0)</title>
<path fill="none" stroke="blue" d="M99.18,-50.99C109.42,-50.89 183.21,-50.19 199.86,-50.03"/>
<polygon fill="blue" stroke="blue" points="202.16,-50.01 200.17,-51.15 201.16,-50.02 200.16,-50.03 200.16,-50.03 200.16,-50.03 201.16,-50.02 200.15,-48.9 202.16,-50.01 202.16,-50.01"/>
</g>
<!-- (11, 1) -->
<g id="node15" class="node">
<title>(11, 1)</title>
<ellipse fill="black" stroke="black" cx="204.2" cy="-65" rx="1.8" ry="1.8"/>
<text text-anchor="middle" x="199.4" y="-56.8" font-family="Helvetica,sans-Serif" font-size="8.00">1</text>
</g>
<!-- (10, 0)&#45;&gt;(11, 1) -->
<g id="edge9" class="edge">
<title>(10, 0)&#45;&gt;(11, 1)</title>
<path fill="none" stroke="blue" d="M152.5,-70.9C158.22,-70.23 189.77,-66.56 200,-65.37"/>
<polygon fill="blue" stroke="blue" points="202.11,-65.13 200.25,-66.48 201.12,-65.24 200.12,-65.36 200.12,-65.36 200.12,-65.36 201.12,-65.24 199.99,-64.24 202.11,-65.13 202.11,-65.13"/>
</g>
<!-- (11, 0)&#45;&gt;(1, 0) -->
<g id="edge11" class="edge">
<title>(11, 0)&#45;&gt;(1, 0)</title>
<path fill="none" stroke="blue" d="M206.01,-49.88C209.92,-49.28 227.04,-46.65 234.41,-45.52"/>
<polygon fill="blue" stroke="blue" points="236.64,-45.18 234.83,-46.59 235.65,-45.33 234.66,-45.48 234.66,-45.48 234.66,-45.48 235.65,-45.33 234.49,-44.37 236.64,-45.18 236.64,-45.18"/>
</g>
<!-- (11, 1)&#45;&gt;(3, 0) -->
<g id="edge10" class="edge">
<title>(11, 1)&#45;&gt;(3, 0)</title>
<path fill="none" stroke="blue" d="M206.01,-64.88C209.92,-64.28 227.04,-61.65 234.41,-60.52"/>
<polygon fill="blue" stroke="blue" points="236.64,-60.18 234.83,-61.59 235.65,-60.33 234.66,-60.48 234.66,-60.48 234.66,-60.48 235.65,-60.33 234.49,-59.37 236.64,-60.18 236.64,-60.18"/>
</g>
</g>
</svg>
