<?xml version="1.0" encoding="UTF-8" standalone="no"?>
<!DOCTYPE svg PUBLIC "-//W3C//DTD SVG 1.1//EN"
 "http://www.w3.org/Graphics/SVG/1.1/DTD/svg11.dtd">
<!-- Generated by graphviz version 2.40.1 (20161225.0304)
 -->
<!-- Title: Circuit Pages: 1 -->
<svg width="211pt" height="109pt"
 viewBox="0.00 0.00 211.00 109.00" xmlns="http://www.w3.org/2000/svg" xmlns:xlink="http://www.w3.org/1999/xlink">
<g id="graph0" class="graph" transform="scale(1 1) rotate(0) translate(4 105)">
<title>Circuit</title>
<polygon fill="#ffffff" stroke="transparent" points="-4,4 -4,-105 207,-105 207,4 -4,4"/>
<g id="clust1" class="cluster">
<title>cluster_q_inputs</title>
<path fill="#d3d3d3" stroke="#d3d3d3" d="M18.5333,-12C18.5333,-12 23.0667,-12 23.0667,-12 25.3333,-12 27.6,-14.2667 27.6,-16.5333 27.6,-16.5333 27.6,-51.4667 27.6,-51.4667 27.6,-53.7333 25.3333,-56 23.0667,-56 23.0667,-56 18.5333,-56 18.5333,-56 16.2667,-56 14,-53.7333 14,-51.4667 14,-51.4667 14,-16.5333 14,-16.5333 14,-14.2667 16.2667,-12 18.5333,-12"/>
</g>
<g id="clust3" class="cluster">
<title>cluster_q_outputs</title>
<path fill="#d3d3d3" stroke="#d3d3d3" d="M185.9333,-12C185.9333,-12 190.4667,-12 190.4667,-12 192.7333,-12 195,-14.2667 195,-16.5333 195,-16.5333 195,-51.4667 195,-51.4667 195,-53.7333 192.7333,-56 190.4667,-56 190.4667,-56 185.9333,-56 185.9333,-56 183.6667,-56 181.4,-53.7333 181.4,-51.4667 181.4,-51.4667 181.4,-16.5333 181.4,-16.5333 181.4,-14.2667 183.6667,-12 185.9333,-12"/>
</g>
<g id="clust5" class="cluster">
<title>cluster_6</title>
<path fill="#add8e6" stroke="#add8e6" d="M49.8,-27C49.8,-27 60,-27 60,-27 65.1,-27 70.2,-32.1 70.2,-37.2 70.2,-37.2 70.2,-64.8 70.2,-64.8 70.2,-69.9 65.1,-75 60,-75 60,-75 49.8,-75 49.8,-75 44.7,-75 39.6,-69.9 39.6,-64.8 39.6,-64.8 39.6,-37.2 39.6,-37.2 39.6,-32.1 44.7,-27 49.8,-27"/>
<text text-anchor="middle" x="54.9" y="-63" font-family="Times,serif" font-size="10.00" fill="#000000">CX</text>
</g>
<g id="clust6" class="cluster">
<title>cluster_7</title>
<path fill="#add8e6" stroke="#add8e6" d="M91.7333,-8C91.7333,-8 101.2667,-8 101.2667,-8 106.0333,-8 110.8,-12.7667 110.8,-17.5333 110.8,-17.5333 110.8,-46.4667 110.8,-46.4667 110.8,-51.2333 106.0333,-56 101.2667,-56 101.2667,-56 91.7333,-56 91.7333,-56 86.9667,-56 82.2,-51.2333 82.2,-46.4667 82.2,-46.4667 82.2,-17.5333 82.2,-17.5333 82.2,-12.7667 86.9667,-8 91.7333,-8"/>
<text text-anchor="middle" x="96.5" y="-44" font-family="Times,serif" font-size="10.00" fill="#000000">CZ</text>
</g>
<g id="clust7" class="cluster">
<title>cluster_8</title>
<path fill="#add8e6" stroke="#add8e6" d="M141.6667,-27C141.6667,-27 149.5333,-27 149.5333,-27 153.4667,-27 157.4,-30.9333 157.4,-34.8667 157.4,-34.8667 157.4,-52.1333 157.4,-52.1333 157.4,-56.0667 153.4667,-60 149.5333,-60 149.5333,-60 141.6667,-60 141.6667,-60 137.7333,-60 133.8,-56.0667 133.8,-52.1333 133.8,-52.1333 133.8,-34.8667 133.8,-34.8667 133.8,-30.9333 137.7333,-27 141.6667,-27"/>
<text text-anchor="middle" x="145.6" y="-48" font-family="Times,serif" font-size="10.00" fill="#000000">X</text>
</g>
<g id="clust8" class="cluster">
<title>cluster_9</title>
<path fill="#add8e6" stroke="#add8e6" d="M133.8,-60C133.8,-60 158.4,-60 158.4,-60 163.9,-60 169.4,-65.5 169.4,-71 169.4,-71 169.4,-82 169.4,-82 169.4,-87.5 163.9,-93 158.4,-93 158.4,-93 133.8,-93 133.8,-93 128.3,-93 122.8,-87.5 122.8,-82 122.8,-82 122.8,-71 122.8,-71 122.8,-65.5 128.3,-60 133.8,-60"/>
<text text-anchor="middle" x="146.1" y="-81" font-family="Times,serif" font-size="10.00" fill="#000000">Rx(0.3)</text>
</g>
<!-- (0, 0) -->
<g id="node1" class="node">
<title>(0, 0)</title>
<ellipse fill="#0000ff" stroke="#0000ff" cx="20.8" cy="-49" rx="1.8" ry="1.8"/>
<text text-anchor="middle" x="9.5" y="-40.8" font-family="Courier,monospace" font-size="8.00" fill="#000000">q[0]</text>
</g>
<!-- (6, 0) -->
<g id="node7" class="node">
<title>(6, 0)</title>
<ellipse fill="#000000" stroke="#000000" cx="54.4" cy="-49" rx="1.8" ry="1.8"/>
<text text-anchor="middle" x="50.1" y="-40.8" font-family="Helvetica,sans-Serif" font-size="8.00" fill="#000000">0</text>
</g>
<!-- (0, 0)&#45;&gt;(6, 0) -->
<g id="edge1" class="edge">
<title>(0, 0)&#45;&gt;(6, 0)</title>
<path fill="none" stroke="#0000ff" d="M22.6065,-49C27.7539,-49 42.6033,-49 50.0433,-49"/>
<polygon fill="#0000ff" stroke="#0000ff" points="52.4174,-49 50.4175,-50.1251 51.4174,-49 50.4174,-49.0001 50.4174,-49.0001 50.4174,-49.0001 51.4174,-49 50.4174,-47.8751 52.4174,-49 52.4174,-49"/>
</g>
<!-- (2, 0) -->
<g id="node2" class="node">
<title>(2, 0)</title>
<ellipse fill="#0000ff" stroke="#0000ff" cx="20.8" cy="-34" rx="1.8" ry="1.8"/>
<text text-anchor="middle" x="9.5" y="-25.8" font-family="Courier,monospace" font-size="8.00" fill="#000000">q[1]</text>
</g>
<!-- (6, 1) -->
<g id="node8" class="node">
<title>(6, 1)</title>
<ellipse fill="#000000" stroke="#000000" cx="54.4" cy="-34" rx="1.8" ry="1.8"/>
<text text-anchor="middle" x="50.1" y="-25.8" font-family="Helvetica,sans-Serif" font-size="8.00" fill="#000000">1</text>
</g>
<!-- (2, 0)&#45;&gt;(6, 1) -->
<g id="edge2" class="edge">
<title>(2, 0)&#45;&gt;(6, 1)</title>
<path fill="none" stroke="#0000ff" d="M22.6065,-34C27.7539,-34 42.6033,-34 50.0433,-34"/>
<polygon fill="#0000ff" stroke="#0000ff" points="52.4174,-34 50.4175,-35.1251 51.4174,-34 50.4174,-34.0001 50.4174,-34.0001 50.4174,-34.0001 51.4174,-34 50.4174,-32.8751 52.4174,-34 52.4174,-34"/>
</g>
<!-- (4, 0) -->
<g id="node3" class="node">
<title>(4, 0)</title>
<ellipse fill="#0000ff" stroke="#0000ff" cx="20.8" cy="-19" rx="1.8" ry="1.8"/>
<text text-anchor="middle" x="9.5" y="-10.8" font-family="Courier,monospace" font-size="8.00" fill="#000000">q[2]</text>
</g>
<!-- (7, 1) -->
<g id="node10" class="node">
<title>(7, 1)</title>
<ellipse fill="#000000" stroke="#000000" cx="96" cy="-15" rx="1.8" ry="1.8"/>
<text text-anchor="middle" x="91.7" y="-6.8" font-family="Helvetica,sans-Serif" font-size="8.00" fill="#000000">1</text>
</g>
<!-- (4, 0)&#45;&gt;(7, 1) -->
<g id="edge3" class="edge">
<title>(4, 0)&#45;&gt;(7, 1)</title>
<path fill="none" stroke="#0000ff" d="M22.6589,-18.9011C32.4085,-18.3825 77.7275,-15.9719 91.8121,-15.2228"/>
<polygon fill="#0000ff" stroke="#0000ff" points="93.93,-15.1101 91.9926,-16.3398 92.9314,-15.1633 91.9328,-15.2164 91.9328,-15.2164 91.9328,-15.2164 92.9314,-15.1633 91.873,-14.093 93.93,-15.1101 93.93,-15.1101"/>
</g>
<!-- (1, 0) -->
<g id="node4" class="node">
<title>(1, 0)</title>
<ellipse fill="#0000ff" stroke="#0000ff" cx="188.2" cy="-49" rx="1.8" ry="1.8"/>
<text text-anchor="middle" x="176.9" y="-40.8" font-family="Courier,monospace" font-size="8.00" fill="#000000">q[0]</text>
</g>
<!-- (3, 0) -->
<g id="node5" class="node">
<title>(3, 0)</title>
<ellipse fill="#0000ff" stroke="#0000ff" cx="188.2" cy="-34" rx="1.8" ry="1.8"/>
<text text-anchor="middle" x="176.9" y="-25.8" font-family="Courier,monospace" font-size="8.00" fill="#000000">q[1]</text>
</g>
<!-- (5, 0) -->
<g id="node6" class="node">
<title>(5, 0)</title>
<ellipse fill="#0000ff" stroke="#0000ff" cx="188.2" cy="-19" rx="1.8" ry="1.8"/>
<text text-anchor="middle" x="176.9" y="-10.8" font-family="Courier,monospace" font-size="8.00" fill="#000000">q[2]</text>
</g>
<!-- (9, 0) -->
<g id="node12" class="node">
<title>(9, 0)</title>
<ellipse fill="#000000" stroke="#000000" cx="145.6" cy="-67" rx="1.8" ry="1.8"/>
</g>
<!-- (6, 0)&#45;&gt;(9, 0) -->
<g id="edge5" class="edge">
<title>(6, 0)&#45;&gt;(9, 0)</title>
<path fill="none" stroke="#0000ff" d="M56.137,-49.5815C60.4833,-51.0184 72.1978,-54.781 82.2,-57 104.263,-61.8948 131.1601,-65.3103 141.3841,-66.5183"/>
<polygon fill="#0000ff" stroke="#0000ff" points="143.6112,-66.7774 141.4945,-67.6636 142.6179,-66.6618 141.6246,-66.5461 141.6246,-66.5461 141.6246,-66.5461 142.6179,-66.6618 141.7546,-65.4287 143.6112,-66.7774 143.6112,-66.7774"/>
</g>
<!-- (7, 0) -->
<g id="node9" class="node">
<title>(7, 0)</title>
<ellipse fill="#000000" stroke="#000000" cx="96" cy="-30" rx="1.8" ry="1.8"/>
<text text-anchor="middle" x="91.7" y="-21.8" font-family="Helvetica,sans-Serif" font-size="8.00" fill="#000000">0</text>
</g>
<!-- (6, 1)&#45;&gt;(7, 0) -->
<g id="edge4" class="edge">
<title>(6, 1)&#45;&gt;(7, 0)</title>
<path fill="none" stroke="#0000ff" d="M56.6366,-33.7849C63.2437,-33.1496 82.7619,-31.2729 91.5832,-30.4247"/>
<polygon fill="#0000ff" stroke="#0000ff" points="93.9512,-30.197 92.0681,-31.5083 92.9558,-30.2927 91.9604,-30.3885 91.9604,-30.3885 91.9604,-30.3885 92.9558,-30.2927 91.8527,-29.2687 93.9512,-30.197 93.9512,-30.197"/>
</g>
<!-- (8, 0) -->
<g id="node11" class="node">
<title>(8, 0)</title>
<ellipse fill="#000000" stroke="#000000" cx="145.6" cy="-34" rx="1.8" ry="1.8"/>
</g>
<!-- (7, 0)&#45;&gt;(8, 0) -->
<g id="edge6" class="edge">
<title>(7, 0)&#45;&gt;(8, 0)</title>
<path fill="none" stroke="#0000ff" d="M98.1312,-30.1719C105.7163,-30.7836 131.4815,-32.8614 141.5351,-33.6722"/>
<polygon fill="#0000ff" stroke="#0000ff" points="143.5319,-33.8332 141.4479,-34.7937 142.5351,-33.7528 141.5384,-33.6724 141.5384,-33.6724 141.5384,-33.6724 142.5351,-33.7528 141.6289,-32.551 143.5319,-33.8332 143.5319,-33.8332"/>
</g>
<!-- (7, 1)&#45;&gt;(5, 0) -->
<g id="edge7" class="edge">
<title>(7, 1)&#45;&gt;(5, 0)</title>
<path fill="none" stroke="#0000ff" d="M97.9257,-15.0835C109.3622,-15.5797 168.3952,-18.1408 184.2671,-18.8294"/>
<polygon fill="#0000ff" stroke="#0000ff" points="186.2849,-18.9169 184.2379,-19.9541 185.2858,-18.8735 184.2867,-18.8301 184.2867,-18.8301 184.2867,-18.8301 185.2858,-18.8735 184.3356,-17.7062 186.2849,-18.9169 186.2849,-18.9169"/>
</g>
<!-- (8, 0)&#45;&gt;(3, 0) -->
<g id="edge8" class="edge">
<title>(8, 0)&#45;&gt;(3, 0)</title>
<path fill="none" stroke="#0000ff" d="M147.4305,-34C153.7728,-34 174.9151,-34 183.9963,-34"/>
<polygon fill="#0000ff" stroke="#0000ff" points="186.0289,-34 184.0289,-35.1251 185.0289,-34 184.0289,-34.0001 184.0289,-34.0001 184.0289,-34.0001 185.0289,-34 184.0288,-32.8751 186.0289,-34 186.0289,-34"/>
</g>
<!-- (9, 0)&#45;&gt;(1, 0) -->
<g id="edge9" class="edge">
<title>(9, 0)&#45;&gt;(1, 0)</title>
<path fill="none" stroke="#0000ff" d="M147.3951,-66.7492C151.4504,-66.1399 161.5755,-64.3778 169.4,-61 175.1591,-58.5138 181.1578,-54.3688 184.7867,-51.66"/>
<polygon fill="#0000ff" stroke="#0000ff" points="186.5423,-50.3225 185.6331,-52.4295 185.7468,-50.9285 184.9513,-51.5345 184.9513,-51.5345 184.9513,-51.5345 185.7468,-50.9285 184.2696,-50.6396 186.5423,-50.3225 186.5423,-50.3225"/>
</g>
</g>
</svg>
