<?xml version="1.0" encoding="UTF-8" standalone="no"?>
<!DOCTYPE svg PUBLIC "-//W3C//DTD SVG 1.1//EN"
 "http://www.w3.org/Graphics/SVG/1.1/DTD/svg11.dtd">
<!-- Generated by graphviz version 2.43.0 (0)
 -->
<!-- Title: Circuit Pages: 1 -->
<svg width="233pt" height="109pt"
 viewBox="0.00 0.00 233.00 109.00" xmlns="http://www.w3.org/2000/svg" xmlns:xlink="http://www.w3.org/1999/xlink">
<g id="graph0" class="graph" transform="scale(1 1) rotate(0) translate(4 105)">
<title>Circuit</title>
<polygon fill="white" stroke="transparent" points="-4,4 -4,-105 229,-105 229,4 -4,4"/>
<g id="clust1" class="cluster">
<title>cluster_q_inputs</title>
<path fill="lightgrey" stroke="lightgrey" d="M18.53,-12C18.53,-12 23.07,-12 23.07,-12 25.33,-12 27.6,-14.27 27.6,-16.53 27.6,-16.53 27.6,-51.47 27.6,-51.47 27.6,-53.73 25.33,-56 23.07,-56 23.07,-56 18.53,-56 18.53,-56 16.27,-56 14,-53.73 14,-51.47 14,-51.47 14,-16.53 14,-16.53 14,-14.27 16.27,-12 18.53,-12"/>
</g>
<g id="clust3" class="cluster">
<title>cluster_q_outputs</title>
<path fill="lightgrey" stroke="lightgrey" d="M207.93,-12C207.93,-12 212.47,-12 212.47,-12 214.73,-12 217,-14.27 217,-16.53 217,-16.53 217,-51.47 217,-51.47 217,-53.73 214.73,-56 212.47,-56 212.47,-56 207.93,-56 207.93,-56 205.67,-56 203.4,-53.73 203.4,-51.47 203.4,-51.47 203.4,-16.53 203.4,-16.53 203.4,-14.27 205.67,-12 207.93,-12"/>
</g>
<g id="clust5" class="cluster">
<title>cluster_6</title>
<path fill="lightblue" stroke="lightblue" d="M49.8,-27C49.8,-27 60,-27 60,-27 65.1,-27 70.2,-32.1 70.2,-37.2 70.2,-37.2 70.2,-64.8 70.2,-64.8 70.2,-69.9 65.1,-75 60,-75 60,-75 49.8,-75 49.8,-75 44.7,-75 39.6,-69.9 39.6,-64.8 39.6,-64.8 39.6,-37.2 39.6,-37.2 39.6,-32.1 44.7,-27 49.8,-27"/>
<text text-anchor="middle" x="54.9" y="-63" font-family="Times,serif" font-size="10.00">CX</text>
</g>
<g id="clust6" class="cluster">
<title>cluster_7</title>
<path fill="lightblue" stroke="lightblue" d="M92.4,-8C92.4,-8 102.6,-8 102.6,-8 107.7,-8 112.8,-13.1 112.8,-18.2 112.8,-18.2 112.8,-45.8 112.8,-45.8 112.8,-50.9 107.7,-56 102.6,-56 102.6,-56 92.4,-56 92.4,-56 87.3,-56 82.2,-50.9 82.2,-45.8 82.2,-45.8 82.2,-18.2 82.2,-18.2 82.2,-13.1 87.3,-8 92.4,-8"/>
<text text-anchor="middle" x="97.5" y="-44" font-family="Times,serif" font-size="10.00">CZ</text>
</g>
<g id="clust7" class="cluster">
<title>cluster_8</title>
<path fill="lightblue" stroke="lightblue" d="M155.33,-27C155.33,-27 162.87,-27 162.87,-27 166.63,-27 170.4,-30.77 170.4,-34.53 170.4,-34.53 170.4,-52.47 170.4,-52.47 170.4,-56.23 166.63,-60 162.87,-60 162.87,-60 155.33,-60 155.33,-60 151.57,-60 147.8,-56.23 147.8,-52.47 147.8,-52.47 147.8,-34.53 147.8,-34.53 147.8,-30.77 151.57,-27 155.33,-27"/>
<text text-anchor="middle" x="159.1" y="-48" font-family="Times,serif" font-size="10.00">X</text>
</g>
<g id="clust8" class="cluster">
<title>cluster_9</title>
<path fill="lightblue" stroke="lightblue" d="M135.8,-60C135.8,-60 181.4,-60 181.4,-60 186.9,-60 192.4,-65.5 192.4,-71 192.4,-71 192.4,-82 192.4,-82 192.4,-87.5 186.9,-93 181.4,-93 181.4,-93 135.8,-93 135.8,-93 130.3,-93 124.8,-87.5 124.8,-82 124.8,-82 124.8,-71 124.8,-71 124.8,-65.5 130.3,-60 135.8,-60"/>
<text text-anchor="middle" x="158.6" y="-81" font-family="Times,serif" font-size="10.00">Rx(0.3*PI)</text>
</g>
<!-- (0, 0) -->
<g id="node1" class="node">
<title>(0, 0)</title>
<ellipse fill="blue" stroke="blue" cx="20.8" cy="-49" rx="1.8" ry="1.8"/>
<text text-anchor="middle" x="9.5" y="-40.8" font-family="Courier,monospace" font-size="8.00">q[0]</text>
</g>
<!-- (6, 0) -->
<g id="node7" class="node">
<title>(6, 0)</title>
<ellipse fill="black" stroke="black" cx="54.4" cy="-49" rx="1.8" ry="1.8"/>
<text text-anchor="middle" x="49.6" y="-40.8" font-family="Helvetica,sans-Serif" font-size="8.00">0</text>
</g>
<!-- (0, 0)&#45;&gt;(6, 0) -->
<g id="edge1" class="edge">
<title>(0, 0)&#45;&gt;(6, 0)</title>
<path fill="none" stroke="blue" d="M23.16,-49C27.87,-49 43.6,-49 50.32,-49"/>
<polygon fill="blue" stroke="blue" points="52.35,-49 50.35,-50.13 51.35,-49 50.35,-49 50.35,-49 50.35,-49 51.35,-49 50.35,-47.88 52.35,-49 52.35,-49"/>
</g>
<!-- (2, 0) -->
<g id="node2" class="node">
<title>(2, 0)</title>
<ellipse fill="blue" stroke="blue" cx="20.8" cy="-34" rx="1.8" ry="1.8"/>
<text text-anchor="middle" x="9.5" y="-25.8" font-family="Courier,monospace" font-size="8.00">q[1]</text>
</g>
<!-- (6, 1) -->
<g id="node8" class="node">
<title>(6, 1)</title>
<ellipse fill="black" stroke="black" cx="54.4" cy="-34" rx="1.8" ry="1.8"/>
<text text-anchor="middle" x="49.6" y="-25.8" font-family="Helvetica,sans-Serif" font-size="8.00">1</text>
</g>
<!-- (2, 0)&#45;&gt;(6, 1) -->
<g id="edge2" class="edge">
<title>(2, 0)&#45;&gt;(6, 1)</title>
<path fill="none" stroke="blue" d="M23.16,-34C27.87,-34 43.6,-34 50.32,-34"/>
<polygon fill="blue" stroke="blue" points="52.35,-34 50.35,-35.13 51.35,-34 50.35,-34 50.35,-34 50.35,-34 51.35,-34 50.35,-32.88 52.35,-34 52.35,-34"/>
</g>
<!-- (4, 0) -->
<g id="node3" class="node">
<title>(4, 0)</title>
<ellipse fill="blue" stroke="blue" cx="20.8" cy="-19" rx="1.8" ry="1.8"/>
<text text-anchor="middle" x="9.5" y="-10.8" font-family="Courier,monospace" font-size="8.00">q[2]</text>
</g>
<!-- (7, 1) -->
<g id="node10" class="node">
<title>(7, 1)</title>
<ellipse fill="black" stroke="black" cx="97" cy="-15" rx="1.8" ry="1.8"/>
<text text-anchor="middle" x="92.2" y="-6.8" font-family="Helvetica,sans-Serif" font-size="8.00">1</text>
</g>
<!-- (4, 0)&#45;&gt;(7, 1) -->
<g id="edge3" class="edge">
<title>(4, 0)&#45;&gt;(7, 1)</title>
<path fill="none" stroke="blue" d="M22.63,-18.96C29.68,-18.58 79.35,-15.9 92.7,-15.18"/>
<polygon fill="blue" stroke="blue" points="94.86,-15.06 92.93,-16.29 93.87,-15.12 92.87,-15.17 92.87,-15.17 92.87,-15.17 93.87,-15.12 92.81,-14.05 94.86,-15.06 94.86,-15.06"/>
</g>
<!-- (1, 0) -->
<g id="node4" class="node">
<title>(1, 0)</title>
<ellipse fill="blue" stroke="blue" cx="210.2" cy="-49" rx="1.8" ry="1.8"/>
<text text-anchor="middle" x="198.9" y="-40.8" font-family="Courier,monospace" font-size="8.00">q[0]</text>
</g>
<!-- (3, 0) -->
<g id="node5" class="node">
<title>(3, 0)</title>
<ellipse fill="blue" stroke="blue" cx="210.2" cy="-34" rx="1.8" ry="1.8"/>
<text text-anchor="middle" x="198.9" y="-25.8" font-family="Courier,monospace" font-size="8.00">q[1]</text>
</g>
<!-- (5, 0) -->
<g id="node6" class="node">
<title>(5, 0)</title>
<ellipse fill="blue" stroke="blue" cx="210.2" cy="-19" rx="1.8" ry="1.8"/>
<text text-anchor="middle" x="198.9" y="-10.8" font-family="Courier,monospace" font-size="8.00">q[2]</text>
</g>
<!-- (9, 0) -->
<g id="node12" class="node">
<title>(9, 0)</title>
<ellipse fill="black" stroke="black" cx="158.6" cy="-67" rx="1.8" ry="1.8"/>
</g>
<!-- (6, 0)&#45;&gt;(9, 0) -->
<g id="edge5" class="edge">
<title>(6, 0)&#45;&gt;(9, 0)</title>
<path fill="none" stroke="blue" d="M56.41,-49.36C59.92,-50.62 71.94,-54.8 82.2,-57 109.82,-62.91 143.92,-65.93 154.39,-66.76"/>
<polygon fill="blue" stroke="blue" points="156.53,-66.92 154.45,-67.89 155.53,-66.85 154.53,-66.77 154.53,-66.77 154.53,-66.77 155.53,-66.85 154.62,-65.65 156.53,-66.92 156.53,-66.92"/>
</g>
<!-- (7, 0) -->
<g id="node9" class="node">
<title>(7, 0)</title>
<ellipse fill="black" stroke="black" cx="97" cy="-30" rx="1.8" ry="1.8"/>
<text text-anchor="middle" x="92.2" y="-21.8" font-family="Helvetica,sans-Serif" font-size="8.00">0</text>
</g>
<!-- (6, 1)&#45;&gt;(7, 0) -->
<g id="edge4" class="edge">
<title>(6, 1)&#45;&gt;(7, 0)</title>
<path fill="none" stroke="blue" d="M56.4,-33.9C61.54,-33.4 84.95,-31.09 93.15,-30.28"/>
<polygon fill="blue" stroke="blue" points="95.17,-30.08 93.29,-31.4 94.18,-30.18 93.18,-30.28 93.18,-30.28 93.18,-30.28 94.18,-30.18 93.07,-29.16 95.17,-30.08 95.17,-30.08"/>
</g>
<!-- (8, 0) -->
<g id="node11" class="node">
<title>(8, 0)</title>
<ellipse fill="black" stroke="black" cx="158.6" cy="-34" rx="1.8" ry="1.8"/>
</g>
<!-- (7, 0)&#45;&gt;(8, 0) -->
<g id="edge6" class="edge">
<title>(7, 0)&#45;&gt;(8, 0)</title>
<path fill="none" stroke="blue" d="M99.03,-30.07C105.76,-30.52 143.35,-33.04 154.49,-33.79"/>
<polygon fill="blue" stroke="blue" points="156.72,-33.94 154.65,-34.93 155.72,-33.87 154.72,-33.81 154.72,-33.81 154.72,-33.81 155.72,-33.87 154.8,-32.68 156.72,-33.94 156.72,-33.94"/>
</g>
<!-- (7, 1)&#45;&gt;(5, 0) -->
<g id="edge7" class="edge">
<title>(7, 1)&#45;&gt;(5, 0)</title>
<path fill="none" stroke="blue" d="M99.25,-15.04C110.17,-15.44 189.36,-18.29 206.1,-18.89"/>
<polygon fill="blue" stroke="blue" points="208.1,-18.96 206.06,-20.01 207.1,-18.92 206.1,-18.89 206.1,-18.89 206.1,-18.89 207.1,-18.92 206.14,-17.76 208.1,-18.96 208.1,-18.96"/>
</g>
<!-- (8, 0)&#45;&gt;(3, 0) -->
<g id="edge8" class="edge">
<title>(8, 0)&#45;&gt;(3, 0)</title>
<path fill="none" stroke="blue" d="M160.46,-34C165.96,-34 196.29,-34 206.12,-34"/>
<polygon fill="blue" stroke="blue" points="208.15,-34 206.15,-35.13 207.15,-34 206.15,-34 206.15,-34 206.15,-34 207.15,-34 206.15,-32.88 208.15,-34 208.15,-34"/>
</g>
<!-- (9, 0)&#45;&gt;(1, 0) -->
<g id="edge9" class="edge">
<title>(9, 0)&#45;&gt;(1, 0)</title>
<path fill="none" stroke="blue" d="M160.45,-66.98C164.3,-66.86 180.46,-66.06 192.4,-61 197.98,-58.64 203.51,-54.16 206.63,-51.4"/>
<polygon fill="blue" stroke="blue" points="208.37,-49.8 207.66,-51.98 207.64,-50.48 206.9,-51.15 206.9,-51.15 206.9,-51.15 207.64,-50.48 206.14,-50.32 208.37,-49.8 208.37,-49.8"/>
</g>
</g>
</svg>
