<?xml version="1.0" encoding="UTF-8" standalone="no"?>
<!DOCTYPE svg PUBLIC "-//W3C//DTD SVG 1.1//EN"
 "http://www.w3.org/Graphics/SVG/1.1/DTD/svg11.dtd">
<!-- Generated by graphviz version 2.40.1 (20161225.0304)
 -->
<!-- Title: Circuit Pages: 1 -->
<svg width="225pt" height="109pt"
 viewBox="0.00 0.00 225.00 109.00" xmlns="http://www.w3.org/2000/svg" xmlns:xlink="http://www.w3.org/1999/xlink">
<g id="graph0" class="graph" transform="scale(1 1) rotate(0) translate(4 105)">
<title>Circuit</title>
<polygon fill="#ffffff" stroke="transparent" points="-4,4 -4,-105 221,-105 221,4 -4,4"/>
<g id="clust1" class="cluster">
<title>cluster_q_inputs</title>
<path fill="#d3d3d3" stroke="#d3d3d3" d="M18.5333,-12C18.5333,-12 23.0667,-12 23.0667,-12 25.3333,-12 27.6,-14.2667 27.6,-16.5333 27.6,-16.5333 27.6,-51.4667 27.6,-51.4667 27.6,-53.7333 25.3333,-56 23.0667,-56 23.0667,-56 18.5333,-56 18.5333,-56 16.2667,-56 14,-53.7333 14,-51.4667 14,-51.4667 14,-16.5333 14,-16.5333 14,-14.2667 16.2667,-12 18.5333,-12"/>
</g>
<g id="clust3" class="cluster">
<title>cluster_q_outputs</title>
<path fill="#d3d3d3" stroke="#d3d3d3" d="M199.9333,-12C199.9333,-12 204.4667,-12 204.4667,-12 206.7333,-12 209,-14.2667 209,-16.5333 209,-16.5333 209,-51.4667 209,-51.4667 209,-53.7333 206.7333,-56 204.4667,-56 204.4667,-56 199.9333,-56 199.9333,-56 197.6667,-56 195.4,-53.7333 195.4,-51.4667 195.4,-51.4667 195.4,-16.5333 195.4,-16.5333 195.4,-14.2667 197.6667,-12 199.9333,-12"/>
</g>
<g id="clust5" class="cluster">
<title>cluster_6</title>
<path fill="#add8e6" stroke="#add8e6" d="M49.8,-27C49.8,-27 60,-27 60,-27 65.1,-27 70.2,-32.1 70.2,-37.2 70.2,-37.2 70.2,-64.8 70.2,-64.8 70.2,-69.9 65.1,-75 60,-75 60,-75 49.8,-75 49.8,-75 44.7,-75 39.6,-69.9 39.6,-64.8 39.6,-64.8 39.6,-37.2 39.6,-37.2 39.6,-32.1 44.7,-27 49.8,-27"/>
<text text-anchor="middle" x="54.9" y="-63" font-family="Times,serif" font-size="10.00" fill="#000000">CX</text>
</g>
<g id="clust6" class="cluster">
<title>cluster_7</title>
<path fill="#add8e6" stroke="#add8e6" d="M91.7333,-8C91.7333,-8 101.2667,-8 101.2667,-8 106.0333,-8 110.8,-12.7667 110.8,-17.5333 110.8,-17.5333 110.8,-46.4667 110.8,-46.4667 110.8,-51.2333 106.0333,-56 101.2667,-56 101.2667,-56 91.7333,-56 91.7333,-56 86.9667,-56 82.2,-51.2333 82.2,-46.4667 82.2,-46.4667 82.2,-17.5333 82.2,-17.5333 82.2,-12.7667 86.9667,-8 91.7333,-8"/>
<text text-anchor="middle" x="96.5" y="-44" font-family="Times,serif" font-size="10.00" fill="#000000">CZ</text>
</g>
<g id="clust7" class="cluster">
<title>cluster_8</title>
<path fill="#add8e6" stroke="#add8e6" d="M148.6667,-27C148.6667,-27 156.5333,-27 156.5333,-27 160.4667,-27 164.4,-30.9333 164.4,-34.8667 164.4,-34.8667 164.4,-52.1333 164.4,-52.1333 164.4,-56.0667 160.4667,-60 156.5333,-60 156.5333,-60 148.6667,-60 148.6667,-60 144.7333,-60 140.8,-56.0667 140.8,-52.1333 140.8,-52.1333 140.8,-34.8667 140.8,-34.8667 140.8,-30.9333 144.7333,-27 148.6667,-27"/>
<text text-anchor="middle" x="152.6" y="-48" font-family="Times,serif" font-size="10.00" fill="#000000">X</text>
</g>
<g id="clust8" class="cluster">
<title>cluster_9</title>
<path fill="#add8e6" stroke="#add8e6" d="M133.8,-60C133.8,-60 172.4,-60 172.4,-60 177.9,-60 183.4,-65.5 183.4,-71 183.4,-71 183.4,-82 183.4,-82 183.4,-87.5 177.9,-93 172.4,-93 172.4,-93 133.8,-93 133.8,-93 128.3,-93 122.8,-87.5 122.8,-82 122.8,-82 122.8,-71 122.8,-71 122.8,-65.5 128.3,-60 133.8,-60"/>
<text text-anchor="middle" x="153.1" y="-81" font-family="Times,serif" font-size="10.00" fill="#000000">Rx(0.3*PI)</text>
</g>
<!-- (0, 0) -->
<g id="node1" class="node">
<title>(0, 0)</title>
<ellipse fill="#0000ff" stroke="#0000ff" cx="20.8" cy="-49" rx="1.8" ry="1.8"/>
<text text-anchor="middle" x="9.5" y="-40.8" font-family="Courier,monospace" font-size="8.00" fill="#000000">q[0]</text>
</g>
<!-- (6, 0) -->
<g id="node7" class="node">
<title>(6, 0)</title>
<ellipse fill="#000000" stroke="#000000" cx="54.4" cy="-49" rx="1.8" ry="1.8"/>
<text text-anchor="middle" x="50.1" y="-40.8" font-family="Helvetica,sans-Serif" font-size="8.00" fill="#000000">0</text>
</g>
<!-- (0, 0)&#45;&gt;(6, 0) -->
<g id="edge1" class="edge">
<title>(0, 0)&#45;&gt;(6, 0)</title>
<path fill="none" stroke="#0000ff" d="M22.6065,-49C27.7539,-49 42.6033,-49 50.0433,-49"/>
<polygon fill="#0000ff" stroke="#0000ff" points="52.4174,-49 50.4175,-50.1251 51.4174,-49 50.4174,-49.0001 50.4174,-49.0001 50.4174,-49.0001 51.4174,-49 50.4174,-47.8751 52.4174,-49 52.4174,-49"/>
</g>
<!-- (2, 0) -->
<g id="node2" class="node">
<title>(2, 0)</title>
<ellipse fill="#0000ff" stroke="#0000ff" cx="20.8" cy="-34" rx="1.8" ry="1.8"/>
<text text-anchor="middle" x="9.5" y="-25.8" font-family="Courier,monospace" font-size="8.00" fill="#000000">q[1]</text>
</g>
<!-- (6, 1) -->
<g id="node8" class="node">
<title>(6, 1)</title>
<ellipse fill="#000000" stroke="#000000" cx="54.4" cy="-34" rx="1.8" ry="1.8"/>
<text text-anchor="middle" x="50.1" y="-25.8" font-family="Helvetica,sans-Serif" font-size="8.00" fill="#000000">1</text>
</g>
<!-- (2, 0)&#45;&gt;(6, 1) -->
<g id="edge2" class="edge">
<title>(2, 0)&#45;&gt;(6, 1)</title>
<path fill="none" stroke="#0000ff" d="M22.6065,-34C27.7539,-34 42.6033,-34 50.0433,-34"/>
<polygon fill="#0000ff" stroke="#0000ff" points="52.4174,-34 50.4175,-35.1251 51.4174,-34 50.4174,-34.0001 50.4174,-34.0001 50.4174,-34.0001 51.4174,-34 50.4174,-32.8751 52.4174,-34 52.4174,-34"/>
</g>
<!-- (4, 0) -->
<g id="node3" class="node">
<title>(4, 0)</title>
<ellipse fill="#0000ff" stroke="#0000ff" cx="20.8" cy="-19" rx="1.8" ry="1.8"/>
<text text-anchor="middle" x="9.5" y="-10.8" font-family="Courier,monospace" font-size="8.00" fill="#000000">q[2]</text>
</g>
<!-- (7, 1) -->
<g id="node10" class="node">
<title>(7, 1)</title>
<ellipse fill="#000000" stroke="#000000" cx="96" cy="-15" rx="1.8" ry="1.8"/>
<text text-anchor="middle" x="91.7" y="-6.8" font-family="Helvetica,sans-Serif" font-size="8.00" fill="#000000">1</text>
</g>
<!-- (4, 0)&#45;&gt;(7, 1) -->
<g id="edge3" class="edge">
<title>(4, 0)&#45;&gt;(7, 1)</title>
<path fill="none" stroke="#0000ff" d="M22.6589,-18.9011C32.4085,-18.3825 77.7275,-15.9719 91.8121,-15.2228"/>
<polygon fill="#0000ff" stroke="#0000ff" points="93.93,-15.1101 91.9926,-16.3398 92.9314,-15.1633 91.9328,-15.2164 91.9328,-15.2164 91.9328,-15.2164 92.9314,-15.1633 91.873,-14.093 93.93,-15.1101 93.93,-15.1101"/>
</g>
<!-- (1, 0) -->
<g id="node4" class="node">
<title>(1, 0)</title>
<ellipse fill="#0000ff" stroke="#0000ff" cx="202.2" cy="-49" rx="1.8" ry="1.8"/>
<text text-anchor="middle" x="190.9" y="-40.8" font-family="Courier,monospace" font-size="8.00" fill="#000000">q[0]</text>
</g>
<!-- (3, 0) -->
<g id="node5" class="node">
<title>(3, 0)</title>
<ellipse fill="#0000ff" stroke="#0000ff" cx="202.2" cy="-34" rx="1.8" ry="1.8"/>
<text text-anchor="middle" x="190.9" y="-25.8" font-family="Courier,monospace" font-size="8.00" fill="#000000">q[1]</text>
</g>
<!-- (5, 0) -->
<g id="node6" class="node">
<title>(5, 0)</title>
<ellipse fill="#0000ff" stroke="#0000ff" cx="202.2" cy="-19" rx="1.8" ry="1.8"/>
<text text-anchor="middle" x="190.9" y="-10.8" font-family="Courier,monospace" font-size="8.00" fill="#000000">q[2]</text>
</g>
<!-- (9, 0) -->
<g id="node12" class="node">
<title>(9, 0)</title>
<ellipse fill="#000000" stroke="#000000" cx="152.6" cy="-67" rx="1.8" ry="1.8"/>
</g>
<!-- (6, 0)&#45;&gt;(9, 0) -->
<g id="edge5" class="edge">
<title>(6, 0)&#45;&gt;(9, 0)</title>
<path fill="none" stroke="#0000ff" d="M56.135,-49.591C60.4765,-51.0496 72.1811,-54.8577 82.2,-57 106.8911,-62.2795 137.0661,-65.5061 148.2014,-66.5901"/>
<polygon fill="#0000ff" stroke="#0000ff" points="150.3906,-66.7993 148.2926,-67.7289 149.3951,-66.7041 148.3997,-66.609 148.3997,-66.609 148.3997,-66.609 149.3951,-66.7041 148.5067,-65.4891 150.3906,-66.7993 150.3906,-66.7993"/>
</g>
<!-- (7, 0) -->
<g id="node9" class="node">
<title>(7, 0)</title>
<ellipse fill="#000000" stroke="#000000" cx="96" cy="-30" rx="1.8" ry="1.8"/>
<text text-anchor="middle" x="91.7" y="-21.8" font-family="Helvetica,sans-Serif" font-size="8.00" fill="#000000">0</text>
</g>
<!-- (6, 1)&#45;&gt;(7, 0) -->
<g id="edge4" class="edge">
<title>(6, 1)&#45;&gt;(7, 0)</title>
<path fill="none" stroke="#0000ff" d="M56.6366,-33.7849C63.2437,-33.1496 82.7619,-31.2729 91.5832,-30.4247"/>
<polygon fill="#0000ff" stroke="#0000ff" points="93.9512,-30.197 92.0681,-31.5083 92.9558,-30.2927 91.9604,-30.3885 91.9604,-30.3885 91.9604,-30.3885 92.9558,-30.2927 91.8527,-29.2687 93.9512,-30.197 93.9512,-30.197"/>
</g>
<!-- (8, 0) -->
<g id="node11" class="node">
<title>(8, 0)</title>
<ellipse fill="#000000" stroke="#000000" cx="152.6" cy="-34" rx="1.8" ry="1.8"/>
</g>
<!-- (7, 0)&#45;&gt;(8, 0) -->
<g id="edge6" class="edge">
<title>(7, 0)&#45;&gt;(8, 0)</title>
<path fill="none" stroke="#0000ff" d="M97.8832,-30.1331C105.8723,-30.6977 137.072,-32.9026 148.433,-33.7055"/>
<polygon fill="#0000ff" stroke="#0000ff" points="150.6517,-33.8623 148.5773,-34.8434 149.6542,-33.7918 148.6567,-33.7212 148.6567,-33.7212 148.6567,-33.7212 149.6542,-33.7918 148.736,-32.599 150.6517,-33.8623 150.6517,-33.8623"/>
</g>
<!-- (7, 1)&#45;&gt;(5, 0) -->
<g id="edge7" class="edge">
<title>(7, 1)&#45;&gt;(5, 0)</title>
<path fill="none" stroke="#0000ff" d="M97.8433,-15.0694C110.1294,-15.5322 180.2163,-18.172 198.0647,-18.8442"/>
<polygon fill="#0000ff" stroke="#0000ff" points="200.306,-18.9287 198.265,-19.9775 199.3067,-18.891 198.3074,-18.8533 198.3074,-18.8533 198.3074,-18.8533 199.3067,-18.891 198.3498,-17.7291 200.306,-18.9287 200.306,-18.9287"/>
</g>
<!-- (8, 0)&#45;&gt;(3, 0) -->
<g id="edge8" class="edge">
<title>(8, 0)&#45;&gt;(3, 0)</title>
<path fill="none" stroke="#0000ff" d="M154.7313,-34C162.2525,-34 187.6498,-34 197.8783,-34"/>
<polygon fill="#0000ff" stroke="#0000ff" points="200.1319,-34 198.1319,-35.1251 199.1319,-34 198.1319,-34.0001 198.1319,-34.0001 198.1319,-34.0001 199.1319,-34 198.1318,-32.8751 200.1319,-34 200.1319,-34"/>
</g>
<!-- (9, 0)&#45;&gt;(1, 0) -->
<g id="edge9" class="edge">
<title>(9, 0)&#45;&gt;(1, 0)</title>
<path fill="none" stroke="#0000ff" d="M154.6188,-66.8685C159.6494,-66.4857 173.0804,-65.1248 183.4,-61 189.2248,-58.6718 195.2061,-54.4848 198.8132,-51.7239"/>
<polygon fill="#0000ff" stroke="#0000ff" points="200.5569,-50.3576 199.6765,-52.4768 199.7697,-50.9744 198.9826,-51.5912 198.9826,-51.5912 198.9826,-51.5912 199.7697,-50.9744 198.2887,-50.7057 200.5569,-50.3576 200.5569,-50.3576"/>
</g>
</g>
</svg>
