<?xml version="1.0" encoding="UTF-8" standalone="no"?>
<!DOCTYPE svg PUBLIC "-//W3C//DTD SVG 1.1//EN"
 "http://www.w3.org/Graphics/SVG/1.1/DTD/svg11.dtd">
<!-- Generated by graphviz version 2.40.1 (20161225.0304)
 -->
<!-- Title: Qubit connectivity Pages: 1 -->
<svg width="215pt" height="219pt"
 viewBox="0.00 0.00 215.10 219.40" xmlns="http://www.w3.org/2000/svg" xmlns:xlink="http://www.w3.org/1999/xlink">
<g id="graph0" class="graph" transform="scale(1 1) rotate(0) translate(4 215.3997)">
<title>Qubit connectivity</title>
<polygon fill="#ffffff" stroke="transparent" points="-4,4 -4,-215.3997 211.0964,-215.3997 211.0964,4 -4,4"/>
<!-- q[0] -->
<g id="node1" class="node">
<title>q[0]</title>
<ellipse fill="none" stroke="#0000ff" cx="99.3492" cy="-105.6553" rx="24.2711" ry="24.2711"/>
<text text-anchor="middle" x="99.3492" y="-103.1553" font-family="Courier,monospace" font-size="10.00" fill="#000000">q[0]</text>
</g>
<!-- q[7] -->
<g id="node2" class="node">
<title>q[7]</title>
<ellipse fill="none" stroke="#0000ff" cx="182.9612" cy="-106.2772" rx="24.2711" ry="24.2711"/>
<text text-anchor="middle" x="182.9612" y="-103.7772" font-family="Courier,monospace" font-size="10.00" fill="#000000">q[7]</text>
</g>
<!-- q[0]&#45;&#45;q[7] -->
<g id="edge1" class="edge">
<title>q[0]&#45;&#45;q[7]</title>
<path fill="none" stroke="#000000" d="M123.5333,-105.8352C134.5297,-105.917 147.5172,-106.0136 158.5419,-106.0955"/>
</g>
<!-- q[6] -->
<g id="node3" class="node">
<title>q[6]</title>
<ellipse fill="none" stroke="#0000ff" cx="81.4312" cy="-24.1352" rx="24.2711" ry="24.2711"/>
<text text-anchor="middle" x="81.4312" y="-21.6352" font-family="Courier,monospace" font-size="10.00" fill="#000000">q[6]</text>
</g>
<!-- q[0]&#45;&#45;q[6] -->
<g id="edge2" class="edge">
<title>q[0]&#45;&#45;q[6]</title>
<path fill="none" stroke="#000000" d="M94.1666,-82.0763C91.81,-71.355 89.0268,-58.6924 86.6642,-47.9436"/>
</g>
<!-- q[5] -->
<g id="node4" class="node">
<title>q[5]</title>
<ellipse fill="none" stroke="#0000ff" cx="24.4156" cy="-142.5088" rx="24.2711" ry="24.2711"/>
<text text-anchor="middle" x="24.4156" y="-140.0088" font-family="Courier,monospace" font-size="10.00" fill="#000000">q[5]</text>
</g>
<!-- q[0]&#45;&#45;q[5] -->
<g id="edge3" class="edge">
<title>q[0]&#45;&#45;q[5]</title>
<path fill="none" stroke="#000000" d="M77.6753,-116.3149C67.8202,-121.1618 56.1807,-126.8862 46.3004,-131.7455"/>
</g>
<!-- q[4] -->
<g id="node5" class="node">
<title>q[4]</title>
<ellipse fill="none" stroke="#0000ff" cx="151.5492" cy="-170.9687" rx="24.2711" ry="24.2711"/>
<text text-anchor="middle" x="151.5492" y="-168.4687" font-family="Courier,monospace" font-size="10.00" fill="#000000">q[4]</text>
</g>
<!-- q[0]&#45;&#45;q[4] -->
<g id="edge4" class="edge">
<title>q[0]&#45;&#45;q[4]</title>
<path fill="none" stroke="#000000" d="M114.4476,-124.5467C121.3128,-133.1365 129.4211,-143.2817 136.3039,-151.8935"/>
</g>
<!-- q[3] -->
<g id="node6" class="node">
<title>q[3]</title>
<ellipse fill="none" stroke="#0000ff" cx="81.3886" cy="-187.2645" rx="24.2711" ry="24.2711"/>
<text text-anchor="middle" x="81.3886" y="-184.7645" font-family="Courier,monospace" font-size="10.00" fill="#000000">q[3]</text>
</g>
<!-- q[0]&#45;&#45;q[3] -->
<g id="edge5" class="edge">
<title>q[0]&#45;&#45;q[3]</title>
<path fill="none" stroke="#000000" d="M94.1542,-129.2601C91.7921,-139.9931 89.0023,-152.6695 86.6341,-163.4301"/>
</g>
<!-- q[2] -->
<g id="node7" class="node">
<title>q[2]</title>
<ellipse fill="none" stroke="#0000ff" cx="24.1352" cy="-69.469" rx="24.2711" ry="24.2711"/>
<text text-anchor="middle" x="24.1352" y="-66.969" font-family="Courier,monospace" font-size="10.00" fill="#000000">q[2]</text>
</g>
<!-- q[0]&#45;&#45;q[2] -->
<g id="edge6" class="edge">
<title>q[0]&#45;&#45;q[2]</title>
<path fill="none" stroke="#000000" d="M77.5942,-95.1887C67.7022,-90.4296 56.0192,-84.8087 46.1019,-80.0374"/>
</g>
<!-- q[1] -->
<g id="node8" class="node">
<title>q[1]</title>
<ellipse fill="none" stroke="#0000ff" cx="152.1605" cy="-40.931" rx="24.2711" ry="24.2711"/>
<text text-anchor="middle" x="152.1605" y="-38.431" font-family="Courier,monospace" font-size="10.00" fill="#000000">q[1]</text>
</g>
<!-- q[0]&#45;&#45;q[1] -->
<g id="edge7" class="edge">
<title>q[0]&#45;&#45;q[1]</title>
<path fill="none" stroke="#000000" d="M114.6244,-86.9344C121.57,-78.422 129.7732,-68.3683 136.7366,-59.8341"/>
</g>
</g>
</svg>
