<?xml version="1.0" encoding="UTF-8" standalone="no"?>
<!DOCTYPE svg PUBLIC "-//W3C//DTD SVG 1.1//EN"
 "http://www.w3.org/Graphics/SVG/1.1/DTD/svg11.dtd">
<!-- Generated by graphviz version 2.40.1 (20161225.0304)
 -->
<!-- Title: Qubit connectivity Pages: 1 -->
<svg width="407pt" height="239pt"
 viewBox="0.00 0.00 406.84 239.12" xmlns="http://www.w3.org/2000/svg" xmlns:xlink="http://www.w3.org/1999/xlink">
<g id="graph0" class="graph" transform="scale(1 1) rotate(0) translate(4 235.1195)">
<title>Qubit connectivity</title>
<polygon fill="#ffffff" stroke="transparent" points="-4,4 -4,-235.1195 402.8388,-235.1195 402.8388,4 -4,4"/>
<!-- q[1] -->
<g id="node1" class="node">
<title>q[1]</title>
<ellipse fill="none" stroke="#0000ff" cx="259.3504" cy="-24.1352" rx="24.2711" ry="24.2711"/>
<text text-anchor="middle" x="259.3504" y="-21.6352" font-family="Courier,monospace" font-size="10.00" fill="#000000">q[1]</text>
</g>
<!-- q[0] -->
<g id="node2" class="node">
<title>q[0]</title>
<ellipse fill="none" stroke="#0000ff" cx="236.9324" cy="-101.5434" rx="24.2711" ry="24.2711"/>
<text text-anchor="middle" x="236.9324" y="-99.0434" font-family="Courier,monospace" font-size="10.00" fill="#000000">q[0]</text>
</g>
<!-- q[1]&#45;&#45;q[0] -->
<g id="edge1" class="edge">
<title>q[1]&#45;&#45;q[0]</title>
<path fill="none" stroke="#000000" d="M252.6243,-47.3602C249.7869,-57.1575 246.4907,-68.5392 243.6538,-78.3348"/>
</g>
<!-- q[2] -->
<g id="node3" class="node">
<title>q[2]</title>
<ellipse fill="none" stroke="#0000ff" cx="305.4519" cy="-141.0581" rx="24.2711" ry="24.2711"/>
<text text-anchor="middle" x="305.4519" y="-138.5581" font-family="Courier,monospace" font-size="10.00" fill="#000000">q[2]</text>
</g>
<!-- q[0]&#45;&#45;q[2] -->
<g id="edge2" class="edge">
<title>q[0]&#45;&#45;q[2]</title>
<path fill="none" stroke="#000000" d="M257.8628,-113.6138C266.2063,-118.4255 275.7994,-123.9577 284.1767,-128.7889"/>
</g>
<!-- q[4] -->
<g id="node4" class="node">
<title>q[4]</title>
<ellipse fill="none" stroke="#0000ff" cx="159.6603" cy="-129.6743" rx="24.2711" ry="24.2711"/>
<text text-anchor="middle" x="159.6603" y="-127.1743" font-family="Courier,monospace" font-size="10.00" fill="#000000">q[4]</text>
</g>
<!-- q[0]&#45;&#45;q[4] -->
<g id="edge3" class="edge">
<title>q[0]&#45;&#45;q[4]</title>
<path fill="none" stroke="#000000" d="M214.1661,-109.8315C204.1941,-113.4618 192.5148,-117.7136 182.5308,-121.3483"/>
</g>
<!-- q[3] -->
<g id="node5" class="node">
<title>q[3]</title>
<ellipse fill="none" stroke="#0000ff" cx="374.7036" cy="-168.1583" rx="24.2711" ry="24.2711"/>
<text text-anchor="middle" x="374.7036" y="-165.6583" font-family="Courier,monospace" font-size="10.00" fill="#000000">q[3]</text>
</g>
<!-- q[2]&#45;&#45;q[3] -->
<g id="edge4" class="edge">
<title>q[2]&#45;&#45;q[3]</title>
<path fill="none" stroke="#000000" d="M328.1275,-149.9317C335.859,-152.9573 344.4966,-156.3375 352.2135,-159.3573"/>
</g>
<!-- q[6] -->
<g id="node7" class="node">
<title>q[6]</title>
<ellipse fill="none" stroke="#0000ff" cx="91.0914" cy="-90.2998" rx="24.2711" ry="24.2711"/>
<text text-anchor="middle" x="91.0914" y="-87.7998" font-family="Courier,monospace" font-size="10.00" fill="#000000">q[6]</text>
</g>
<!-- q[4]&#45;&#45;q[6] -->
<g id="edge6" class="edge">
<title>q[4]&#45;&#45;q[6]</title>
<path fill="none" stroke="#000000" d="M138.7148,-117.6467C130.3653,-112.8522 120.7653,-107.3395 112.3818,-102.5255"/>
</g>
<!-- q[5] -->
<g id="node6" class="node">
<title>q[5]</title>
<ellipse fill="none" stroke="#0000ff" cx="136.9161" cy="-206.9843" rx="24.2711" ry="24.2711"/>
<text text-anchor="middle" x="136.9161" y="-204.4843" font-family="Courier,monospace" font-size="10.00" fill="#000000">q[5]</text>
</g>
<!-- q[5]&#45;&#45;q[4] -->
<g id="edge5" class="edge">
<title>q[5]&#45;&#45;q[4]</title>
<path fill="none" stroke="#000000" d="M143.7401,-183.7887C146.6188,-174.0038 149.9629,-162.6366 152.8411,-152.8535"/>
</g>
<!-- q[7] -->
<g id="node8" class="node">
<title>q[7]</title>
<ellipse fill="none" stroke="#0000ff" cx="24.1352" cy="-57.8904" rx="24.2711" ry="24.2711"/>
<text text-anchor="middle" x="24.1352" y="-55.3904" font-family="Courier,monospace" font-size="10.00" fill="#000000">q[7]</text>
</g>
<!-- q[7]&#45;&#45;q[6] -->
<g id="edge7" class="edge">
<title>q[7]&#45;&#45;q[6]</title>
<path fill="none" stroke="#000000" d="M46.0591,-68.5025C53.5344,-72.1208 61.8857,-76.1631 69.3468,-79.7746"/>
</g>
</g>
</svg>
