<?xml version="1.0" encoding="UTF-8" standalone="no"?>
<!DOCTYPE svg PUBLIC "-//W3C//DTD SVG 1.1//EN"
 "http://www.w3.org/Graphics/SVG/1.1/DTD/svg11.dtd">
<!-- Generated by graphviz version 2.40.1 (20161225.0304)
 -->
<!-- Title: Circuit Pages: 1 -->
<svg width="313pt" height="123pt"
 viewBox="0.00 0.00 313.00 123.00" xmlns="http://www.w3.org/2000/svg" xmlns:xlink="http://www.w3.org/1999/xlink">
<g id="graph0" class="graph" transform="scale(1 1) rotate(0) translate(4 119)">
<title>Circuit</title>
<polygon fill="#ffffff" stroke="transparent" points="-4,4 -4,-119 309,-119 309,4 -4,4"/>
<g id="clust1" class="cluster">
<title>cluster_q_inputs</title>
<path fill="#d3d3d3" stroke="#d3d3d3" d="M18.5333,-9C18.5333,-9 23.0667,-9 23.0667,-9 25.3333,-9 27.6,-11.2667 27.6,-13.5333 27.6,-13.5333 27.6,-63.4667 27.6,-63.4667 27.6,-65.7333 25.3333,-68 23.0667,-68 23.0667,-68 18.5333,-68 18.5333,-68 16.2667,-68 14,-65.7333 14,-63.4667 14,-63.4667 14,-13.5333 14,-13.5333 14,-11.2667 16.2667,-9 18.5333,-9"/>
</g>
<g id="clust3" class="cluster">
<title>cluster_q_outputs</title>
<path fill="#d3d3d3" stroke="#d3d3d3" d="M287.9333,-8C287.9333,-8 292.4667,-8 292.4667,-8 294.7333,-8 297,-10.2667 297,-12.5333 297,-12.5333 297,-62.4667 297,-62.4667 297,-64.7333 294.7333,-67 292.4667,-67 292.4667,-67 287.9333,-67 287.9333,-67 285.6667,-67 283.4,-64.7333 283.4,-62.4667 283.4,-62.4667 283.4,-12.5333 283.4,-12.5333 283.4,-10.2667 285.6667,-8 287.9333,-8"/>
</g>
<g id="clust5" class="cluster">
<title>cluster_8</title>
<path fill="#add8e6" stroke="#add8e6" d="M177.4,-50C177.4,-50 187.6,-50 187.6,-50 192.7,-50 197.8,-55.1 197.8,-60.2 197.8,-60.2 197.8,-87.8 197.8,-87.8 197.8,-92.9 192.7,-98 187.6,-98 187.6,-98 177.4,-98 177.4,-98 172.3,-98 167.2,-92.9 167.2,-87.8 167.2,-87.8 167.2,-60.2 167.2,-60.2 167.2,-55.1 172.3,-50 177.4,-50"/>
<text text-anchor="middle" x="182.5" y="-86" font-family="Times,serif" font-size="10.00" fill="#000000">CX</text>
</g>
<g id="clust6" class="cluster">
<title>cluster_9</title>
<path fill="#add8e6" stroke="#add8e6" d="M50.6,-74C50.6,-74 144.2,-74 144.2,-74 149.7,-74 155.2,-79.5 155.2,-85 155.2,-85 155.2,-96 155.2,-96 155.2,-101.5 149.7,-107 144.2,-107 144.2,-107 50.6,-107 50.6,-107 45.1,-107 39.6,-101.5 39.6,-96 39.6,-96 39.6,-85 39.6,-85 39.6,-79.5 45.1,-74 50.6,-74"/>
<text text-anchor="middle" x="97.4" y="-95" font-family="Times,serif" font-size="10.00" fill="#000000">U3(3.8*PI, 0*PI, 1.5*PI)</text>
</g>
<g id="clust7" class="cluster">
<title>cluster_10</title>
<path fill="#add8e6" stroke="#add8e6" d="M220.8,-41C220.8,-41 260.4,-41 260.4,-41 265.9,-41 271.4,-46.5 271.4,-52 271.4,-52 271.4,-63 271.4,-63 271.4,-68.5 265.9,-74 260.4,-74 260.4,-74 220.8,-74 220.8,-74 215.3,-74 209.8,-68.5 209.8,-63 209.8,-63 209.8,-52 209.8,-52 209.8,-46.5 215.3,-41 220.8,-41"/>
<text text-anchor="middle" x="240.6" y="-62" font-family="Times,serif" font-size="10.00" fill="#000000">U1(0.5*PI)</text>
</g>
<g id="clust8" class="cluster">
<title>cluster_11</title>
<path fill="#add8e6" stroke="#add8e6" d="M77.6,-41C77.6,-41 117.2,-41 117.2,-41 122.7,-41 128.2,-46.5 128.2,-52 128.2,-52 128.2,-63 128.2,-63 128.2,-68.5 122.7,-74 117.2,-74 117.2,-74 77.6,-74 77.6,-74 72.1,-74 66.6,-68.5 66.6,-63 66.6,-63 66.6,-52 66.6,-52 66.6,-46.5 72.1,-41 77.6,-41"/>
<text text-anchor="middle" x="97.4" y="-62" font-family="Times,serif" font-size="10.00" fill="#000000">U1(0.5*PI)</text>
</g>
<!-- (0, 0) -->
<g id="node1" class="node">
<title>(0, 0)</title>
<ellipse fill="#0000ff" stroke="#0000ff" cx="20.8" cy="-61" rx="1.8" ry="1.8"/>
<text text-anchor="middle" x="9.5" y="-52.8" font-family="Courier,monospace" font-size="8.00" fill="#000000">q[0]</text>
</g>
<!-- (9, 0) -->
<g id="node11" class="node">
<title>(9, 0)</title>
<ellipse fill="#000000" stroke="#000000" cx="97.4" cy="-81" rx="1.8" ry="1.8"/>
</g>
<!-- (0, 0)&#45;&gt;(9, 0) -->
<g id="edge1" class="edge">
<title>(0, 0)&#45;&gt;(9, 0)</title>
<path fill="none" stroke="#0000ff" d="M22.3726,-62.6553C25.3852,-65.7059 32.3204,-72.1617 39.6,-75 58.6633,-82.4326 83.7988,-81.8543 93.4204,-81.2931"/>
<polygon fill="#0000ff" stroke="#0000ff" points="95.5192,-81.1557 93.597,-82.4091 94.5214,-81.2211 93.5235,-81.2865 93.5235,-81.2865 93.5235,-81.2865 94.5214,-81.2211 93.4499,-80.1639 95.5192,-81.1557 95.5192,-81.1557"/>
</g>
<!-- (2, 0) -->
<g id="node2" class="node">
<title>(2, 0)</title>
<ellipse fill="#0000ff" stroke="#0000ff" cx="20.8" cy="-46" rx="1.8" ry="1.8"/>
<text text-anchor="middle" x="9.5" y="-37.8" font-family="Courier,monospace" font-size="8.00" fill="#000000">q[1]</text>
</g>
<!-- (11, 0) -->
<g id="node13" class="node">
<title>(11, 0)</title>
<ellipse fill="#000000" stroke="#000000" cx="97.4" cy="-48" rx="1.8" ry="1.8"/>
</g>
<!-- (2, 0)&#45;&gt;(11, 0) -->
<g id="edge2" class="edge">
<title>(2, 0)&#45;&gt;(11, 0)</title>
<path fill="none" stroke="#0000ff" d="M22.6935,-46.0494C32.7117,-46.311 79.6,-47.5352 93.5043,-47.8983"/>
<polygon fill="#0000ff" stroke="#0000ff" points="95.5727,-47.9523 93.544,-49.0246 94.573,-47.9261 93.5734,-47.9 93.5734,-47.9 93.5734,-47.9 94.573,-47.9261 93.6028,-46.7754 95.5727,-47.9523 95.5727,-47.9523"/>
</g>
<!-- (4, 0) -->
<g id="node3" class="node">
<title>(4, 0)</title>
<ellipse fill="#0000ff" stroke="#0000ff" cx="20.8" cy="-31" rx="1.8" ry="1.8"/>
<text text-anchor="middle" x="9.5" y="-22.8" font-family="Courier,monospace" font-size="8.00" fill="#000000">q[2]</text>
</g>
<!-- (5, 0) -->
<g id="node7" class="node">
<title>(5, 0)</title>
<ellipse fill="#0000ff" stroke="#0000ff" cx="290.2" cy="-30" rx="1.8" ry="1.8"/>
<text text-anchor="middle" x="278.9" y="-21.8" font-family="Courier,monospace" font-size="8.00" fill="#000000">q[2]</text>
</g>
<!-- (4, 0)&#45;&gt;(5, 0) -->
<g id="edge3" class="edge">
<title>(4, 0)&#45;&gt;(5, 0)</title>
<path fill="none" stroke="#0000ff" d="M22.8136,-30.9925C45.5745,-30.908 254.2311,-30.1335 286.1202,-30.0151"/>
<polygon fill="#0000ff" stroke="#0000ff" points="288.3825,-30.0067 286.3867,-31.1393 287.3825,-30.0105 286.3825,-30.0143 286.3825,-30.0143 286.3825,-30.0143 287.3825,-30.0105 286.3783,-28.8893 288.3825,-30.0067 288.3825,-30.0067"/>
</g>
<!-- (6, 0) -->
<g id="node4" class="node">
<title>(6, 0)</title>
<ellipse fill="#0000ff" stroke="#0000ff" cx="20.8" cy="-16" rx="1.8" ry="1.8"/>
<text text-anchor="middle" x="9.5" y="-7.8" font-family="Courier,monospace" font-size="8.00" fill="#000000">q[3]</text>
</g>
<!-- (7, 0) -->
<g id="node8" class="node">
<title>(7, 0)</title>
<ellipse fill="#0000ff" stroke="#0000ff" cx="290.2" cy="-15" rx="1.8" ry="1.8"/>
<text text-anchor="middle" x="278.9" y="-6.8" font-family="Courier,monospace" font-size="8.00" fill="#000000">q[3]</text>
</g>
<!-- (6, 0)&#45;&gt;(7, 0) -->
<g id="edge4" class="edge">
<title>(6, 0)&#45;&gt;(7, 0)</title>
<path fill="none" stroke="#0000ff" d="M22.8136,-15.9925C45.5745,-15.908 254.2311,-15.1335 286.1202,-15.0151"/>
<polygon fill="#0000ff" stroke="#0000ff" points="288.3825,-15.0067 286.3867,-16.1393 287.3825,-15.0105 286.3825,-15.0143 286.3825,-15.0143 286.3825,-15.0143 287.3825,-15.0105 286.3783,-13.8893 288.3825,-15.0067 288.3825,-15.0067"/>
</g>
<!-- (1, 0) -->
<g id="node5" class="node">
<title>(1, 0)</title>
<ellipse fill="#0000ff" stroke="#0000ff" cx="290.2" cy="-60" rx="1.8" ry="1.8"/>
<text text-anchor="middle" x="278.9" y="-51.8" font-family="Courier,monospace" font-size="8.00" fill="#000000">q[0]</text>
</g>
<!-- (3, 0) -->
<g id="node6" class="node">
<title>(3, 0)</title>
<ellipse fill="#0000ff" stroke="#0000ff" cx="290.2" cy="-45" rx="1.8" ry="1.8"/>
<text text-anchor="middle" x="278.9" y="-36.8" font-family="Courier,monospace" font-size="8.00" fill="#000000">q[1]</text>
</g>
<!-- (8, 0) -->
<g id="node9" class="node">
<title>(8, 0)</title>
<ellipse fill="#000000" stroke="#000000" cx="182" cy="-57" rx="1.8" ry="1.8"/>
<text text-anchor="middle" x="177.7" y="-48.8" font-family="Helvetica,sans-Serif" font-size="8.00" fill="#000000">0</text>
</g>
<!-- (8, 0)&#45;&gt;(1, 0) -->
<g id="edge5" class="edge">
<title>(8, 0)&#45;&gt;(1, 0)</title>
<path fill="none" stroke="#0000ff" d="M183.9247,-57.8048C186.9789,-59.1187 193.0732,-61.8915 197.8,-65 203.6005,-68.8146 203.2722,-72.6366 209.8,-75 235.5425,-84.3201 245.5597,-84.0455 271.4,-75 278.0504,-72.672 284.1021,-66.8954 287.4547,-63.2282"/>
<polygon fill="#0000ff" stroke="#0000ff" points="289.0262,-61.4432 288.549,-63.6878 288.3654,-62.1938 287.7046,-62.9444 287.7046,-62.9444 287.7046,-62.9444 288.3654,-62.1938 286.8602,-62.2009 289.0262,-61.4432 289.0262,-61.4432"/>
</g>
<!-- (8, 1) -->
<g id="node10" class="node">
<title>(8, 1)</title>
<ellipse fill="#000000" stroke="#000000" cx="182" cy="-72" rx="1.8" ry="1.8"/>
<text text-anchor="middle" x="177.7" y="-63.8" font-family="Helvetica,sans-Serif" font-size="8.00" fill="#000000">1</text>
</g>
<!-- (10, 0) -->
<g id="node12" class="node">
<title>(10, 0)</title>
<ellipse fill="#000000" stroke="#000000" cx="240.6" cy="-48" rx="1.8" ry="1.8"/>
</g>
<!-- (8, 1)&#45;&gt;(10, 0) -->
<g id="edge6" class="edge">
<title>(8, 1)&#45;&gt;(10, 0)</title>
<path fill="none" stroke="#0000ff" d="M183.6906,-71.3076C191.5722,-68.0796 224.8181,-54.4636 236.5114,-49.6745"/>
<polygon fill="#0000ff" stroke="#0000ff" points="238.5488,-48.8401 237.1244,-50.6392 237.6234,-49.2191 236.698,-49.5982 236.698,-49.5982 236.698,-49.5982 237.6234,-49.2191 236.2715,-48.5571 238.5488,-48.8401 238.5488,-48.8401"/>
</g>
<!-- (9, 0)&#45;&gt;(8, 1) -->
<g id="edge7" class="edge">
<title>(9, 0)&#45;&gt;(8, 1)</title>
<path fill="none" stroke="#0000ff" d="M99.1984,-80.8186C106.3069,-80.1006 133.133,-77.3804 155.2,-75 163.2005,-74.137 172.5385,-73.0805 177.8118,-72.4794"/>
<polygon fill="#0000ff" stroke="#0000ff" points="180.0502,-72.2237 178.1909,-73.5685 179.0567,-72.3372 178.0632,-72.4507 178.0632,-72.4507 178.0632,-72.4507 179.0567,-72.3372 177.9354,-71.333 180.0502,-72.2237 180.0502,-72.2237"/>
</g>
<!-- (10, 0)&#45;&gt;(3, 0) -->
<g id="edge8" class="edge">
<title>(10, 0)&#45;&gt;(3, 0)</title>
<path fill="none" stroke="#0000ff" d="M242.7313,-47.8711C250.3163,-47.4123 276.0815,-45.8539 286.1351,-45.2459"/>
<polygon fill="#0000ff" stroke="#0000ff" points="288.1319,-45.1251 286.2035,-46.3689 287.1337,-45.1855 286.1355,-45.2459 286.1355,-45.2459 286.1355,-45.2459 287.1337,-45.1855 286.0676,-44.123 288.1319,-45.1251 288.1319,-45.1251"/>
</g>
<!-- (11, 0)&#45;&gt;(8, 0) -->
<g id="edge9" class="edge">
<title>(11, 0)&#45;&gt;(8, 0)</title>
<path fill="none" stroke="#0000ff" d="M99.4912,-48.2225C110.5557,-49.3995 162.341,-54.9086 177.6974,-56.5423"/>
<polygon fill="#0000ff" stroke="#0000ff" points="179.9819,-56.7853 177.874,-57.6923 178.9875,-56.6795 177.9931,-56.5737 177.9931,-56.5737 177.9931,-56.5737 178.9875,-56.6795 178.1121,-55.455 179.9819,-56.7853 179.9819,-56.7853"/>
</g>
</g>
</svg>
